<?xml version="1.0" encoding="utf-8" ?>
<svg xmlns="http://www.w3.org/2000/svg" xmlns:ev="http://www.w3.org/2001/xml-events" xmlns:xlink="http://www.w3.org/1999/xlink" baseProfile="full" height="50mm" version="1.1" viewBox="0,0,200,50" width="200mm">
    <defs>
        <style type="text/css"><![CDATA[
.stitch_line {
    stroke-width: 0.3;
    stroke-linejoin: round;
    stroke-linecap: round;
    fill: none;
}
.path_center_line {
    stroke-width: 0.2;
    stroke-linejoin: round;
    stroke-linecap: round;
    fill: none;
    stroke:#333;
}
.path_contour {
    stroke: #ddd;
    fill-opacity: 1;
    fill: #eee;
    stroke-width: 0.3;
}
.text{
    text-anchor: middle;
    dominant-baseline: middle;
    font-family: sans-serif;
    font-size: 1.5mm;
}
.smalltext{
    text-anchor: middle;
    dominant-baseline: middle;
    font-family: sans-serif;
    font-size: 1mm;
}
.color_0 {
    stroke:#148983;
}
.dot_0 {
    marker-start:url(#dot_0);
    marker-mid:url(#dot_0);
    marker-end:url(#dot_0);
}
]]></style>
        <marker id="dot_0" markerHeight="3.0" markerWidth="3.0" refX="1.5" refY="1.5">
            <circle cx="1.5" cy="1.5" fill="#148983" r="1.5"/>
        </marker>
    </defs>
    <g>
        <path class="stitch_line color_0 dot_0" d="M 10.000, 25.000  L 10.894, 28.801  L 10.000, 25.000  L 13.578, 23.435  L 10.000, 25.000  L 9.106, 21.199  L 10.000, 25.000  L 6.422, 26.565  L 10.000, 25.000  L 12.951, 26.404  L 13.994, 30.167  L 12.951, 26.404  L 16.464, 24.699  L 12.951, 26.404  L 11.907, 22.641  L 12.951, 26.404  L 9.438, 28.109  L 12.951, 26.404  L 15.902, 27.667  L 17.093, 31.386  L 15.902, 27.667  L 19.345, 25.824  L 15.902, 27.667  L 14.710, 23.948  L 15.902, 27.667  L 12.459, 29.509  L 15.902, 27.667  L 18.852, 28.795  L 20.189, 32.464  L 18.852, 28.795  L 22.220, 26.818  L 18.852, 28.795  L 17.515, 25.125  L 18.852, 28.795  L 15.485, 30.771  L 18.852, 28.795  L 21.803, 29.791  L 23.283, 33.406  L 21.803, 29.791  L 25.091, 27.685  L 21.803, 29.791  L 20.324, 26.177  L 21.803, 29.791  L 18.515, 31.898  L 21.803, 29.791  L 24.754, 30.662  L 26.372, 34.217  L 24.754, 30.662  L 27.959, 28.430  L 24.754, 30.662  L 23.137, 27.108  L 24.754, 30.662  L 21.550, 32.894  L 24.754, 30.662  L 27.705, 31.412  L 29.456, 34.902  L 27.705, 31.412  L 30.823, 29.060  L 27.705, 31.412  L 25.954, 27.921  L 27.705, 31.412  L 24.587, 33.763  L 27.705, 31.412  L 30.656, 32.044  L 32.535, 35.468  L 30.656, 32.044  L 33.684, 29.579  L 30.656, 32.044  L 28.777, 28.621  L 30.656, 32.044  L 27.627, 34.510  L 30.656, 32.044  L 33.607, 32.565  L 35.607, 35.919  L 33.607, 32.565  L 36.545, 29.993  L 33.607, 32.565  L 31.606, 29.212  L 33.607, 32.565  L 30.669, 35.138  L 33.607, 32.565  L 36.557, 32.979  L 38.673, 36.261  L 36.557, 32.979  L 39.404, 30.306  L 36.557, 32.979  L 34.441, 29.697  L 36.557, 32.979  L 33.711, 35.653  L 36.557, 32.979  L 39.508, 33.291  L 41.733, 36.500  L 39.508, 33.291  L 42.264, 30.524  L 39.508, 33.291  L 37.283, 30.082  L 39.508, 33.291  L 36.753, 36.058  L 39.508, 33.291  L 42.459, 33.505  L 44.786, 36.642  L 42.459, 33.505  L 45.124, 30.651  L 42.459, 33.505  L 40.132, 30.369  L 42.459, 33.505  L 39.794, 36.359  L 42.459, 33.505  L 45.410, 33.626  L 47.831, 36.690  L 45.410, 33.626  L 47.987, 30.692  L 45.410, 33.626  L 42.988, 30.563  L 45.410, 33.626  L 42.833, 36.561  L 45.410, 33.626  L 48.361, 33.660  L 50.870, 36.652  L 48.361, 33.660  L 50.851, 30.652  L 48.361, 33.660  L 45.851, 30.667  L 48.361, 33.660  L 45.870, 36.667  L 48.361, 33.660  L 51.311, 33.610  L 53.902, 36.532  L 51.311, 33.610  L 53.719, 30.535  L 51.311, 33.610  L 48.721, 30.687  L 51.311, 33.610  L 48.904, 36.685  L 51.311, 33.610  L 54.262, 33.481  L 56.927, 36.336  L 54.262, 33.481  L 56.590, 30.346  L 54.262, 33.481  L 51.598, 30.627  L 54.262, 33.481  L 51.935, 36.617  L 54.262, 33.481  L 57.213, 33.279  L 59.946, 36.069  L 57.213, 33.279  L 59.464, 30.088  L 57.213, 33.279  L 54.480, 30.489  L 57.213, 33.279  L 54.962, 36.470  L 57.213, 33.279  L 60.164, 33.008  L 62.958, 35.736  L 60.164, 33.008  L 62.343, 29.767  L 60.164, 33.008  L 57.370, 30.280  L 60.164, 33.008  L 57.985, 36.248  L 60.164, 33.008  L 63.115, 32.672  L 65.965, 35.342  L 63.115, 32.672  L 65.226, 29.388  L 63.115, 32.672  L 60.265, 30.003  L 63.115, 32.672  L 61.003, 35.957  L 63.115, 32.672  L 66.066, 32.278  L 68.966, 34.892  L 66.066, 32.278  L 68.114, 28.953  L 66.066, 32.278  L 63.165, 29.663  L 66.066, 32.278  L 64.017, 35.602  L 66.066, 32.278  L 69.016, 31.828  L 71.962, 34.392  L 69.016, 31.828  L 71.007, 28.468  L 69.016, 31.828  L 66.071, 29.264  L 69.016, 31.828  L 67.025, 35.187  L 69.016, 31.828  L 71.967, 31.328  L 74.952, 33.846  L 71.967, 31.328  L 73.905, 27.938  L 71.967, 31.328  L 68.982, 28.811  L 71.967, 31.328  L 70.029, 34.719  L 71.967, 31.328  L 74.918, 30.783  L 77.938, 33.259  L 74.918, 30.783  L 76.808, 27.366  L 74.918, 30.783  L 71.898, 28.308  L 74.918, 30.783  L 73.028, 34.201  L 74.918, 30.783  L 77.869, 30.198  L 80.920, 32.636  L 77.869, 30.198  L 79.717, 26.758  L 77.869, 30.198  L 74.818, 27.760  L 77.869, 30.198  L 76.021, 33.639  L 77.869, 30.198  L 80.820, 29.577  L 83.897, 31.982  L 80.820, 29.577  L 82.630, 26.117  L 80.820, 29.577  L 77.743, 27.173  L 80.820, 29.577  L 79.009, 33.037  L 80.820, 29.577  L 83.770, 28.925  L 86.869, 31.302  L 83.770, 28.925  L 85.549, 25.449  L 83.770, 28.925  L 80.672, 26.549  L 83.770, 28.925  L 81.992, 32.402  L 83.770, 28.925  L 86.721, 28.247  L 89.838, 30.600  L 86.721, 28.247  L 88.473, 24.757  L 86.721, 28.247  L 83.604, 25.895  L 86.721, 28.247  L 84.970, 31.738  L 86.721, 28.247  L 89.672, 27.548  L 92.803, 29.881  L 89.672, 27.548  L 91.403, 24.047  L 89.672, 27.548  L 86.541, 25.215  L 89.672, 27.548  L 87.942, 31.049  L 89.672, 27.548  L 92.623, 26.832  L 95.765, 29.151  L 92.623, 26.832  L 94.337, 23.323  L 92.623, 26.832  L 89.481, 24.513  L 92.623, 26.832  L 90.909, 30.341  L 92.623, 26.832  L 95.574, 26.104  L 98.723, 28.413  L 95.574, 26.104  L 97.278, 22.590  L 95.574, 26.104  L 92.425, 23.794  L 95.574, 26.104  L 93.870, 29.618  L 95.574, 26.104  L 98.525, 25.369  L 101.677, 27.673  L 98.525, 25.369  L 100.223, 21.852  L 98.525, 25.369  L 95.372, 23.064  L 98.525, 25.369  L 96.826, 28.885  L 98.525, 25.369  L 101.475, 24.631  L 104.628, 26.936  L 101.475, 24.631  L 103.174, 21.115  L 101.475, 24.631  L 98.323, 22.327  L 101.475, 24.631  L 99.777, 28.148  L 101.475, 24.631  L 104.426, 23.896  L 107.575, 26.206  L 104.426, 23.896  L 106.130, 20.382  L 104.426, 23.896  L 101.277, 21.587  L 104.426, 23.896  L 102.722, 27.410  L 104.426, 23.896  L 107.377, 23.168  L 110.519, 25.487  L 107.377, 23.168  L 109.091, 19.659  L 107.377, 23.168  L 104.235, 20.849  L 107.377, 23.168  L 105.663, 26.677  L 107.377, 23.168  L 110.328, 22.452  L 113.459, 24.785  L 110.328, 22.452  L 112.058, 18.951  L 110.328, 22.452  L 107.197, 20.119  L 110.328, 22.452  L 108.597, 25.953  L 110.328, 22.452  L 113.279, 21.753  L 116.396, 24.105  L 113.279, 21.753  L 115.030, 18.262  L 113.279, 21.753  L 110.162, 19.400  L 113.279, 21.753  L 111.527, 25.243  L 113.279, 21.753  L 116.230, 21.075  L 119.328, 23.451  L 116.230, 21.075  L 118.008, 17.598  L 116.230, 21.075  L 113.131, 18.698  L 116.230, 21.075  L 114.451, 24.551  L 116.230, 21.075  L 119.180, 20.423  L 122.257, 22.827  L 119.180, 20.423  L 120.991, 16.963  L 119.180, 20.423  L 116.103, 18.018  L 119.180, 20.423  L 117.370, 23.883  L 119.180, 20.423  L 122.131, 19.802  L 125.182, 22.240  L 122.131, 19.802  L 123.979, 16.361  L 122.131, 19.802  L 119.080, 17.364  L 122.131, 19.802  L 120.283, 23.242  L 122.131, 19.802  L 125.082, 19.217  L 128.102, 21.692  L 125.082, 19.217  L 126.972, 15.799  L 125.082, 19.217  L 122.062, 16.741  L 125.082, 19.217  L 123.192, 22.634  L 125.082, 19.217  L 128.033, 18.672  L 131.018, 21.189  L 128.033, 18.672  L 129.971, 15.281  L 128.033, 18.672  L 125.048, 16.154  L 128.033, 18.672  L 126.095, 22.062  L 128.033, 18.672  L 130.984, 18.172  L 133.929, 20.736  L 130.984, 18.172  L 132.975, 14.813  L 130.984, 18.172  L 128.038, 15.608  L 130.984, 18.172  L 128.993, 21.532  L 130.984, 18.172  L 133.934, 17.722  L 136.835, 20.337  L 133.934, 17.722  L 135.983, 14.398  L 133.934, 17.722  L 131.034, 15.108  L 133.934, 17.722  L 131.886, 21.047  L 133.934, 17.722  L 136.885, 17.328  L 139.735, 19.997  L 136.885, 17.328  L 138.997, 14.043  L 136.885, 17.328  L 134.035, 14.658  L 136.885, 17.328  L 134.774, 20.612  L 136.885, 17.328  L 139.836, 16.992  L 142.630, 19.720  L 139.836, 16.992  L 142.015, 13.752  L 139.836, 16.992  L 137.042, 14.264  L 139.836, 16.992  L 137.657, 20.233  L 139.836, 16.992  L 142.787, 16.721  L 145.520, 19.511  L 142.787, 16.721  L 145.038, 13.530  L 142.787, 16.721  L 140.054, 13.931  L 142.787, 16.721  L 140.536, 19.912  L 142.787, 16.721  L 145.738, 16.519  L 148.402, 19.373  L 145.738, 16.519  L 148.065, 13.383  L 145.738, 16.519  L 143.073, 13.664  L 145.738, 16.519  L 143.410, 19.654  L 145.738, 16.519  L 148.689, 16.390  L 151.279, 19.313  L 148.689, 16.390  L 151.096, 13.315  L 148.689, 16.390  L 146.098, 13.468  L 148.689, 16.390  L 146.281, 19.465  L 148.689, 16.390  L 151.639, 16.340  L 154.149, 19.333  L 151.639, 16.340  L 154.130, 13.333  L 151.639, 16.340  L 149.130, 13.348  L 151.639, 16.340  L 149.149, 19.348  L 151.639, 16.340  L 154.590, 16.374  L 157.012, 19.437  L 154.590, 16.374  L 157.167, 13.439  L 154.590, 16.374  L 152.169, 13.310  L 154.590, 16.374  L 152.013, 19.308  L 154.590, 16.374  L 157.541, 16.495  L 159.868, 19.631  L 157.541, 16.495  L 160.206, 13.641  L 157.541, 16.495  L 155.214, 13.358  L 157.541, 16.495  L 154.876, 19.349  L 157.541, 16.495  L 160.492, 16.709  L 162.717, 19.918  L 160.492, 16.709  L 163.247, 13.942  L 160.492, 16.709  L 158.267, 13.500  L 160.492, 16.709  L 157.736, 19.476  L 160.492, 16.709  L 163.443, 17.021  L 165.559, 20.303  L 163.443, 17.021  L 166.289, 14.347  L 163.443, 17.021  L 161.327, 13.739  L 163.443, 17.021  L 160.596, 19.694  L 163.443, 17.021  L 166.393, 17.435  L 168.394, 20.788  L 166.393, 17.435  L 169.331, 14.862  L 166.393, 17.435  L 164.393, 14.081  L 166.393, 17.435  L 163.455, 20.007  L 166.393, 17.435  L 169.344, 17.956  L 171.223, 21.379  L 169.344, 17.956  L 172.373, 15.490  L 169.344, 17.956  L 167.465, 14.532  L 169.344, 17.956  L 166.316, 20.421  L 169.344, 17.956  L 172.295, 18.588  L 174.046, 22.079  L 172.295, 18.588  L 175.413, 16.237  L 172.295, 18.588  L 170.544, 15.098  L 172.295, 18.588  L 169.177, 20.940  L 172.295, 18.588  L 175.246, 19.338  L 176.863, 22.892  L 175.246, 19.338  L 178.450, 17.106  L 175.246, 19.338  L 173.628, 15.783  L 175.246, 19.338  L 172.041, 21.570  L 175.246, 19.338  L 178.197, 20.209  L 179.676, 23.823  L 178.197, 20.209  L 181.485, 18.102  L 178.197, 20.209  L 176.717, 16.594  L 178.197, 20.209  L 174.909, 22.315  L 178.197, 20.209  L 181.148, 21.205  L 182.485, 24.875  L 181.148, 21.205  L 184.515, 19.229  L 181.148, 21.205  L 179.811, 17.536  L 181.148, 21.205  L 177.780, 23.182  L 181.148, 21.205  L 184.098, 22.333  L 185.290, 26.052  L 184.098, 22.333  L 187.541, 20.491  L 184.098, 22.333  L 182.907, 18.614  L 184.098, 22.333  L 180.655, 24.176  L 184.098, 22.333  L 187.049, 23.596  L 188.093, 27.359  L 187.049, 23.596  L 190.562, 21.891  L 187.049, 23.596  L 186.006, 19.833  L 187.049, 23.596  L 183.536, 25.301  L 187.049, 23.596  L 190.000, 25.000  L 190.894, 28.801  L 190.000, 25.000  L 193.578, 23.435  L 190.000, 25.000  L 189.106, 21.199  L 190.000, 25.000  L 186.422, 26.565  L 190.000, 25.000 "/>
    </g>
</svg>
