<?xml version="1.0" encoding="utf-8" ?>
<svg xmlns="http://www.w3.org/2000/svg" xmlns:ev="http://www.w3.org/2001/xml-events" xmlns:xlink="http://www.w3.org/1999/xlink" baseProfile="full" height="50mm" version="1.1" viewBox="0,0,200,50" width="200mm">
    <defs>
        <style type="text/css"><![CDATA[
.stitch_line {
    stroke-width: 0.3;
    stroke-linejoin: round;
    stroke-linecap: round;
    fill: none;
}
.path_center_line {
    stroke-width: 0.2;
    stroke-linejoin: round;
    stroke-linecap: round;
    fill: none;
    stroke:#333;
}
.path_contour {
    stroke: #ddd;
    fill-opacity: 1;
    fill: #eee;
    stroke-width: 0.3;
}
.text{
    text-anchor: middle;
    dominant-baseline: middle;
    font-family: sans-serif;
    font-size: 1.5mm;
}
.smalltext{
    text-anchor: middle;
    dominant-baseline: middle;
    font-family: sans-serif;
    font-size: 1mm;
}
.color_0 {
    stroke:#148983;
}
.dot_0 {
    marker-start:url(#dot_0);
    marker-mid:url(#dot_0);
    marker-end:url(#dot_0);
}
]]></style>
        <marker id="dot_0" markerHeight="3.0" markerWidth="3.0" refX="1.5" refY="1.5">
            <circle cx="1.5" cy="1.5" fill="#148983" r="1.5"/>
        </marker>
    </defs>
    <g>
        <path class="stitch_line color_0 dot_0" d="M 11.118, 22.764  L 9.754, 22.138  L 12.446, 23.462  L 9.772, 22.102  L 12.464, 23.426  L 9.790, 22.066  L 12.482, 23.390  L 11.118, 22.764  L 11.922, 28.682  L 10.575, 28.019  L 13.301, 29.272  L 10.559, 28.056  L 13.285, 29.309  L 10.542, 28.092  L 13.268, 29.345  L 11.922, 28.682  L 16.840, 25.350  L 15.431, 24.833  L 18.219, 25.940  L 15.446, 24.796  L 18.234, 25.903  L 15.461, 24.759  L 18.249, 25.866  L 16.840, 25.350  L 18.006, 31.147  L 16.612, 30.592  L 19.428, 31.627  L 16.598, 30.630  L 19.414, 31.664  L 16.585, 30.668  L 19.401, 31.702  L 18.006, 31.147  L 22.557, 27.408  L 21.112, 27.003  L 23.978, 27.889  L 21.124, 26.965  L 23.990, 27.850  L 21.136, 26.927  L 24.002, 27.812  L 22.557, 27.408  L 24.093, 33.073  L 22.660, 32.628  L 25.547, 33.441  L 22.649, 32.667  L 25.537, 33.479  L 22.638, 32.705  L 25.526, 33.518  L 24.093, 33.073  L 28.274, 28.977  L 26.802, 28.684  L 29.728, 29.348  L 26.812, 28.645  L 29.737, 29.309  L 26.821, 28.606  L 29.746, 29.270  L 28.274, 28.977  L 30.177, 34.498  L 28.714, 34.162  L 31.655, 34.756  L 28.706, 34.201  L 31.647, 34.795  L 28.699, 34.240  L 31.639, 34.835  L 30.177, 34.498  L 33.997, 30.096  L 32.508, 29.911  L 35.474, 30.360  L 32.514, 29.872  L 35.480, 30.321  L 32.520, 29.832  L 35.486, 30.281  L 33.997, 30.096  L 36.253, 35.461  L 34.770, 35.228  L 37.745, 35.614  L 34.765, 35.268  L 37.741, 35.653  L 34.760, 35.308  L 37.736, 35.693  L 36.253, 35.461  L 39.729, 30.801  L 38.231, 30.718  L 41.221, 30.963  L 38.234, 30.678  L 41.224, 30.924  L 38.238, 30.638  L 41.228, 30.884  L 39.729, 30.801  L 42.318, 36.001  L 40.823, 35.866  L 43.817, 36.056  L 40.821, 35.906  L 43.815, 36.096  L 40.819, 35.946  L 43.813, 36.136  L 42.318, 36.001  L 45.475, 31.127  L 43.974, 31.138  L 46.973, 31.196  L 43.975, 31.098  L 46.974, 31.156  L 43.976, 31.058  L 46.975, 31.116  L 45.475, 31.127  L 48.368, 36.160  L 46.868, 36.114  L 49.868, 36.125  L 46.868, 36.154  L 49.868, 36.165  L 46.868, 36.194  L 49.869, 36.205  L 48.368, 36.160  L 51.235, 31.111  L 49.737, 31.207  L 52.735, 31.095  L 49.736, 31.167  L 52.734, 31.055  L 49.735, 31.127  L 52.733, 31.015  L 51.235, 31.111  L 54.403, 35.977  L 52.902, 36.012  L 55.899, 35.863  L 52.905, 36.052  L 55.901, 35.903  L 52.907, 36.092  L 55.903, 35.943  L 54.403, 35.977  L 57.013, 30.787  L 55.521, 30.957  L 58.510, 30.697  L 55.518, 30.917  L 58.507, 30.657  L 55.515, 30.878  L 58.504, 30.617  L 57.013, 30.787  L 60.420, 35.495  L 58.923, 35.599  L 61.909, 35.311  L 58.927, 35.639  L 61.913, 35.351  L 58.931, 35.678  L 61.917, 35.391  L 60.420, 35.495  L 62.807, 30.191  L 61.325, 30.426  L 64.299, 30.037  L 61.320, 30.386  L 64.294, 29.997  L 61.315, 30.346  L 64.289, 29.957  L 62.807, 30.191  L 66.420, 34.752  L 64.928, 34.916  L 67.901, 34.510  L 64.934, 34.955  L 67.907, 34.549  L 64.940, 34.995  L 67.912, 34.589  L 66.420, 34.752  L 68.619, 29.360  L 67.146, 29.648  L 70.104, 29.151  L 67.139, 29.608  L 70.098, 29.111  L 67.133, 29.569  L 70.092, 29.072  L 68.619, 29.360  L 72.404, 33.790  L 70.918, 34.002  L 73.875, 33.499  L 70.925, 34.042  L 73.882, 33.538  L 70.932, 34.081  L 73.889, 33.577  L 72.404, 33.790  L 74.447, 28.328  L 72.983, 28.660  L 75.926, 28.075  L 72.976, 28.621  L 75.919, 28.036  L 72.968, 28.581  L 75.911, 27.997  L 74.447, 28.328  L 78.370, 32.647  L 76.891, 32.899  L 79.834, 32.317  L 76.899, 32.938  L 79.842, 32.357  L 76.907, 32.978  L 79.850, 32.396  L 78.370, 32.647  L 80.292, 27.134  L 78.836, 27.499  L 81.765, 26.846  L 78.828, 27.460  L 81.756, 26.807  L 78.819, 27.421  L 81.748, 26.768  L 80.292, 27.134  L 84.321, 31.364  L 82.846, 31.645  L 85.777, 31.005  L 82.855, 31.685  L 85.786, 31.044  L 82.864, 31.724  L 85.795, 31.083  L 84.321, 31.364  L 86.152, 25.813  L 84.703, 26.203  L 87.620, 25.501  L 84.694, 26.164  L 87.611, 25.462  L 84.685, 26.125  L 87.602, 25.423  L 86.152, 25.813  L 90.256, 29.979  L 88.786, 30.280  L 91.707, 29.599  L 88.795, 30.319  L 91.717, 29.638  L 88.804, 30.358  L 91.726, 29.677  L 90.256, 29.979  L 92.028, 24.404  L 90.583, 24.809  L 93.492, 24.076  L 90.574, 24.770  L 93.483, 24.037  L 90.564, 24.731  L 93.473, 23.998  L 92.028, 24.404  L 96.176, 28.530  L 94.708, 28.843  L 97.625, 28.140  L 94.718, 28.882  L 97.634, 28.179  L 94.727, 28.921  L 97.644, 28.217  L 96.176, 28.530  L 97.919, 22.943  L 96.476, 23.355  L 99.381, 22.609  L 96.466, 23.317  L 99.372, 22.570  L 96.456, 23.278  L 99.362, 22.531  L 97.919, 22.943  L 102.081, 27.057  L 100.614, 27.372  L 103.529, 26.664  L 100.624, 27.411  L 103.539, 26.703  L 100.633, 27.449  L 103.549, 26.742  L 102.081, 27.057  L 103.824, 21.470  L 102.380, 21.880  L 105.287, 21.138  L 102.371, 21.841  L 105.277, 21.099  L 102.361, 21.802  L 105.268, 21.060  L 103.824, 21.470  L 107.972, 25.596  L 106.503, 25.905  L 109.422, 25.210  L 106.513, 25.944  L 109.431, 25.249  L 106.522, 25.982  L 109.441, 25.288  L 107.972, 25.596  L 109.744, 20.021  L 108.297, 20.420  L 111.210, 19.700  L 108.288, 20.381  L 111.200, 19.661  L 108.279, 20.342  L 111.191, 19.622  L 109.744, 20.021  L 113.848, 24.187  L 112.376, 24.480  L 115.301, 23.816  L 112.385, 24.519  L 115.310, 23.855  L 112.394, 24.558  L 115.320, 23.894  L 113.848, 24.187  L 115.679, 18.636  L 114.227, 19.015  L 117.149, 18.335  L 114.218, 18.976  L 117.140, 18.296  L 114.209, 18.937  L 117.132, 18.257  L 115.679, 18.636  L 119.708, 22.866  L 118.231, 23.134  L 121.168, 22.520  L 118.240, 23.173  L 121.176, 22.560  L 118.248, 23.212  L 121.185, 22.599  L 119.708, 22.866  L 121.630, 17.353  L 120.170, 17.702  L 123.105, 17.081  L 120.162, 17.663  L 123.097, 17.042  L 120.154, 17.624  L 123.089, 17.003  L 121.630, 17.353  L 125.553, 21.672  L 124.070, 21.905  L 127.020, 21.360  L 124.078, 21.944  L 127.028, 21.399  L 124.085, 21.984  L 127.035, 21.438  L 125.553, 21.672  L 127.596, 16.210  L 126.128, 16.521  L 129.079, 15.978  L 126.121, 16.482  L 129.072, 15.938  L 126.114, 16.442  L 129.065, 15.899  L 127.596, 16.210  L 131.381, 20.640  L 129.892, 20.830  L 132.857, 20.372  L 129.899, 20.869  L 132.864, 20.412  L 129.905, 20.908  L 132.870, 20.451  L 131.381, 20.640  L 133.580, 15.248  L 132.102, 15.510  L 135.069, 15.065  L 132.096, 15.471  L 135.063, 15.025  L 132.091, 15.431  L 135.057, 14.985  L 133.580, 15.248  L 137.193, 19.809  L 135.698, 19.944  L 138.678, 19.594  L 135.703, 19.983  L 138.683, 19.634  L 135.708, 20.023  L 138.688, 19.674  L 137.193, 19.809  L 139.580, 14.505  L 138.093, 14.709  L 141.075, 14.381  L 138.089, 14.669  L 141.071, 14.342  L 138.085, 14.629  L 141.067, 14.302  L 139.580, 14.505  L 142.987, 19.213  L 141.488, 19.283  L 144.480, 19.063  L 141.491, 19.323  L 144.483, 19.102  L 141.495, 19.363  L 144.487, 19.142  L 142.987, 19.213  L 145.597, 14.023  L 144.102, 14.157  L 147.096, 13.968  L 144.100, 14.117  L 147.094, 13.928  L 144.098, 14.077  L 147.092, 13.888  L 145.597, 14.023  L 148.765, 18.889  L 147.264, 18.885  L 150.263, 18.813  L 147.265, 18.925  L 150.264, 18.853  L 147.266, 18.965  L 150.266, 18.893  L 148.765, 18.889  L 151.632, 13.840  L 150.132, 13.895  L 153.132, 13.866  L 150.132, 13.855  L 153.132, 13.826  L 150.132, 13.815  L 153.131, 13.786  L 151.632, 13.840  L 154.525, 18.873  L 153.027, 18.784  L 156.026, 18.882  L 153.026, 18.824  L 156.025, 18.922  L 153.025, 18.864  L 156.024, 18.962  L 154.525, 18.873  L 157.682, 13.999  L 156.182, 13.964  L 159.178, 14.114  L 156.184, 13.924  L 159.180, 14.074  L 156.186, 13.884  L 159.183, 14.034  L 157.682, 13.999  L 160.271, 19.199  L 158.781, 19.017  L 161.767, 19.302  L 158.777, 19.057  L 161.764, 19.342  L 158.774, 19.096  L 161.760, 19.382  L 160.271, 19.199  L 163.747, 14.539  L 162.252, 14.406  L 165.232, 14.752  L 162.257, 14.367  L 165.237, 14.712  L 162.262, 14.327  L 165.242, 14.672  L 163.747, 14.539  L 166.003, 19.904  L 164.529, 19.620  L 167.489, 20.109  L 164.523, 19.660  L 167.483, 20.148  L 164.517, 19.699  L 167.477, 20.188  L 166.003, 19.904  L 169.823, 15.502  L 168.342, 15.264  L 171.290, 15.819  L 168.349, 15.224  L 171.297, 15.780  L 168.357, 15.185  L 171.305, 15.740  L 169.823, 15.502  L 171.726, 21.023  L 170.276, 20.632  L 173.193, 21.335  L 170.267, 20.671  L 173.184, 21.374  L 170.258, 20.710  L 173.175, 21.413  L 171.726, 21.023  L 175.907, 16.927  L 174.447, 16.578  L 177.346, 17.353  L 174.458, 16.540  L 177.356, 17.314  L 174.468, 16.501  L 177.367, 17.275  L 175.907, 16.927  L 177.443, 22.592  L 176.028, 22.092  L 178.882, 23.016  L 176.016, 22.131  L 178.870, 23.054  L 176.004, 22.169  L 178.858, 23.092  L 177.443, 22.592  L 181.994, 18.853  L 180.565, 18.392  L 183.395, 19.389  L 180.579, 18.355  L 183.409, 19.351  L 180.592, 18.317  L 183.422, 19.314  L 181.994, 18.853  L 183.160, 24.650  L 181.789, 24.041  L 184.562, 25.185  L 181.774, 24.078  L 184.547, 25.223  L 181.759, 24.115  L 184.532, 25.260  L 183.160, 24.650  L 188.078, 21.318  L 186.691, 20.746  L 189.433, 21.963  L 186.707, 20.710  L 189.449, 21.926  L 186.723, 20.673  L 189.466, 21.890  L 188.078, 21.318  L 188.882, 27.236  L 187.563, 26.521  L 190.237, 27.880  L 187.545, 26.556  L 190.219, 27.916  L 187.527, 26.592  L 190.201, 27.952  L 188.882, 27.236 "/>
    </g>
</svg>
