<?xml version="1.0" encoding="utf-8" ?>
<svg xmlns="http://www.w3.org/2000/svg" xmlns:ev="http://www.w3.org/2001/xml-events" xmlns:xlink="http://www.w3.org/1999/xlink" baseProfile="full" height="50mm" version="1.1" viewBox="0,0,200,50" width="200mm">
    <defs>
        <style type="text/css"><![CDATA[
.stitch_line {
    stroke-width: 0.3;
    stroke-linejoin: round;
    stroke-linecap: round;
    fill: none;
}
.path_center_line {
    stroke-width: 0.2;
    stroke-linejoin: round;
    stroke-linecap: round;
    fill: none;
    stroke:#333;
}
.path_contour {
    stroke: #ddd;
    fill-opacity: 1;
    fill: #eee;
    stroke-width: 0.3;
}
.text{
    text-anchor: middle;
    dominant-baseline: middle;
    font-family: sans-serif;
    font-size: 1.5mm;
}
.smalltext{
    text-anchor: middle;
    dominant-baseline: middle;
    font-family: sans-serif;
    font-size: 1mm;
}
.color_0 {
    stroke:#148983;
}
.dot_0 {
    marker-start:url(#dot_0);
    marker-mid:url(#dot_0);
    marker-end:url(#dot_0);
}
]]></style>
        <marker id="dot_0" markerHeight="3.0" markerWidth="3.0" refX="1.5" refY="1.5">
            <circle cx="1.5" cy="1.5" fill="#148983" r="1.5"/>
        </marker>
    </defs>
    <g>
        <path class="stitch_line color_0 dot_0" d="M 10.000, 25.000  L 13.089, 26.466  L 16.179, 27.778  L 19.268, 28.943  L 22.357, 29.964  L 25.446, 30.849  L 28.536, 31.601  L 26.787, 28.957  L 28.536, 31.601  L 25.892, 33.350  L 28.536, 31.601  L 30.000, 31.900  L 28.251, 29.256  L 30.000, 31.900  L 27.356, 33.649  L 30.000, 31.900  L 31.464, 32.198  L 29.715, 29.554  L 31.464, 32.198  L 28.820, 33.947  L 31.464, 32.198  L 34.310, 32.674  L 37.155, 33.051  L 40.000, 33.333  L 42.845, 33.526  L 45.690, 33.633  L 48.536, 33.659  L 46.299, 31.503  L 48.536, 33.659  L 46.380, 35.896  L 48.536, 33.659  L 50.000, 33.632  L 47.763, 31.476  L 50.000, 33.632  L 47.844, 35.869  L 50.000, 33.632  L 51.464, 33.605  L 49.227, 31.449  L 51.464, 33.605  L 49.308, 35.842  L 51.464, 33.605  L 54.310, 33.479  L 57.155, 33.284  L 60.000, 33.025  L 62.845, 32.706  L 65.690, 32.331  L 68.536, 31.905  L 65.973, 30.074  L 68.536, 31.905  L 66.705, 34.467  L 68.536, 31.905  L 70.000, 31.661  L 67.438, 29.830  L 70.000, 31.661  L 68.169, 34.223  L 70.000, 31.661  L 71.464, 31.417  L 68.902, 29.586  L 71.464, 31.417  L 69.634, 33.979  L 71.464, 31.417  L 74.310, 30.899  L 77.155, 30.343  L 80.000, 29.753  L 82.845, 29.133  L 85.690, 28.487  L 88.536, 27.820  L 85.811, 26.152  L 88.536, 27.820  L 86.868, 30.545  L 88.536, 27.820  L 90.000, 27.467  L 87.275, 25.799  L 90.000, 27.467  L 88.332, 30.192  L 90.000, 27.467  L 91.464, 27.115  L 88.739, 25.447  L 91.464, 27.115  L 89.796, 29.840  L 91.464, 27.115  L 94.310, 26.417  L 97.155, 25.711  L 100.000, 25.000  L 102.845, 24.289  L 105.690, 23.583  L 108.536, 22.885  L 105.811, 21.217  L 108.536, 22.885  L 106.868, 25.610  L 108.536, 22.885  L 110.000, 22.533  L 107.275, 20.865  L 110.000, 22.533  L 108.332, 25.258  L 110.000, 22.533  L 111.464, 22.180  L 108.739, 20.513  L 111.464, 22.180  L 109.796, 24.906  L 111.464, 22.180  L 114.310, 21.513  L 117.155, 20.867  L 120.000, 20.247  L 122.845, 19.657  L 125.690, 19.101  L 128.536, 18.583  L 125.973, 16.753  L 128.536, 18.583  L 126.705, 21.146  L 128.536, 18.583  L 130.000, 18.339  L 127.438, 16.509  L 130.000, 18.339  L 128.169, 20.902  L 130.000, 18.339  L 131.464, 18.095  L 128.902, 16.265  L 131.464, 18.095  L 129.634, 20.658  L 131.464, 18.095  L 134.310, 17.669  L 137.155, 17.294  L 140.000, 16.975  L 142.845, 16.716  L 145.690, 16.521  L 148.536, 16.395  L 146.299, 14.239  L 148.536, 16.395  L 146.380, 18.632  L 148.536, 16.395  L 150.000, 16.368  L 147.763, 14.212  L 150.000, 16.368  L 147.844, 18.605  L 150.000, 16.368  L 151.464, 16.341  L 149.227, 14.185  L 151.464, 16.341  L 149.308, 18.578  L 151.464, 16.341  L 154.310, 16.367  L 157.155, 16.474  L 160.000, 16.667  L 162.845, 16.949  L 165.690, 17.326  L 168.536, 17.802  L 166.787, 15.158  L 168.536, 17.802  L 165.892, 19.551  L 168.536, 17.802  L 170.000, 18.100  L 168.251, 15.456  L 170.000, 18.100  L 167.356, 19.849  L 170.000, 18.100  L 171.464, 18.399  L 169.715, 15.755  L 171.464, 18.399  L 168.820, 20.148  L 171.464, 18.399  L 174.554, 19.151  L 177.643, 20.036  L 180.732, 21.057  L 183.821, 22.222  L 186.911, 23.534  L 190.000, 25.000 "/>
    </g>
</svg>
