<?xml version="1.0" encoding="utf-8" ?>
<svg xmlns="http://www.w3.org/2000/svg" xmlns:ev="http://www.w3.org/2001/xml-events" xmlns:xlink="http://www.w3.org/1999/xlink" baseProfile="full" height="50mm" version="1.1" viewBox="0,0,200,50" width="200mm">
    <defs>
        <style type="text/css"><![CDATA[
.stitch_line {
    stroke-width: 0.3;
    stroke-linejoin: round;
    stroke-linecap: round;
    fill: none;
}
.path_center_line {
    fill: none;
    stroke:#808080;
    stroke-width: 0.2;
    stroke-linejoin: round;
    stroke-linecap: round;
}
.path_contour {
    fill: #808080;
    fill-opacity: 0.3;
    stroke: #808080;
    stroke-opacity: 1;
    stroke-width: 0.3;
}
.text{
    text-anchor: middle;
    dominant-baseline: middle;
    font-family: sans-serif;
    font-size: 1.5mm;
}
.smalltext{
    text-anchor: middle;
    dominant-baseline: middle;
    font-family: sans-serif;
    font-size: 1mm;
}
.color_0 {
    stroke:#3bb2d0;
}
.dot_0 {
    marker-start:url(#dot_0);
    marker-mid:url(#dot_0);
    marker-end:url(#dot_0);
}
]]></style>
        <marker id="dot_0" markerHeight="3.0" markerWidth="3.0" refX="1.5" refY="1.5">
            <circle cx="1.5" cy="1.5" fill="#3bb2d0" r="1.5"/>
        </marker>
    </defs>
    <g>
        <path class="stitch_line color_0 dot_0" d="M 7.093, 26.342  L 10.000, 25.000  L 9.329, 21.870  L 11.943, 23.198  L 12.728, 26.302  L 9.872, 27.749  L 12.701, 29.055  L 15.501, 27.504  L 14.602, 24.431  L 17.304, 25.563  L 18.318, 28.600  L 15.578, 30.256  L 18.499, 31.348  L 21.174, 29.590  L 20.045, 26.593  L 22.824, 27.519  L 24.065, 30.470  L 21.459, 32.329  L 24.453, 33.196  L 26.988, 31.240  L 25.637, 28.338  L 28.479, 29.051  L 29.938, 31.901  L 27.477, 33.949  L 30.526, 34.589  L 32.910, 32.452  L 31.348, 29.657  L 34.240, 30.158  L 35.899, 32.896  L 33.593, 35.116  L 36.674, 35.533  L 38.903, 33.235  L 37.150, 30.556  L 40.076, 30.853  L 41.916, 33.473  L 39.764, 35.843  L 42.860, 36.050  L 44.936, 33.613  L 43.013, 31.053  L 45.960, 31.159  L 47.958, 33.660  L 45.956, 36.159  L 49.050, 36.173  L 50.980, 33.619  L 48.912, 31.175  L 51.868, 31.107  L 54.000, 33.496  L 52.138, 36.100  L 55.219, 35.944  L 57.016, 33.295  L 54.826, 30.960  L 57.783, 30.738  L 60.027, 33.022  L 58.291, 35.712  L 61.352, 35.409  L 63.030, 32.683  L 60.739, 30.447  L 63.692, 30.092  L 66.026, 32.283  L 64.401, 35.041  L 67.438, 34.614  L 69.015, 31.828  L 66.643, 29.678  L 69.589, 29.211  L 71.995, 31.323  L 70.462, 34.134  L 73.475, 33.606  L 74.967, 30.774  L 72.532, 28.696  L 75.471, 28.138  L 77.932, 30.185  L 76.475, 33.036  L 79.463, 32.428  L 80.890, 29.562  L 78.407, 27.541  L 81.340, 26.911  L 83.841, 28.909  L 82.441, 31.789  L 85.409, 31.122  L 86.787, 28.232  L 84.271, 26.253  L 87.200, 25.571  L 89.728, 27.534  L 88.368, 30.432  L 91.318, 29.725  L 92.666, 26.821  L 90.128, 24.869  L 93.057, 24.153  L 95.601, 26.097  L 94.262, 29.005  L 97.199, 28.277  L 98.534, 25.366  L 95.987, 23.426  L 98.920, 22.693  L 101.466, 24.634  L 100.132, 27.544  L 103.061, 26.811  L 104.399, 23.903  L 101.856, 21.958  L 104.797, 21.226  L 107.334, 23.179  L 105.987, 26.083  L 108.911, 25.364  L 110.272, 22.466  L 107.743, 20.502  L 110.696, 19.789  L 113.213, 21.768  L 111.834, 24.658  L 114.758, 23.970  L 116.159, 21.091  L 113.657, 19.093  L 116.627, 18.417  L 119.110, 20.438  L 117.683, 23.304  L 120.610, 22.665  L 122.068, 19.815  L 119.607, 17.767  L 122.597, 17.148  L 125.033, 19.226  L 123.540, 22.058  L 126.472, 21.488  L 128.005, 18.677  L 125.599, 16.564  L 128.613, 16.022  L 130.985, 18.172  L 129.408, 20.958  L 132.348, 20.475  L 133.974, 17.717  L 131.640, 15.525  L 134.678, 15.081  L 136.970, 17.317  L 135.291, 20.043  L 138.237, 19.668  L 139.973, 16.978  L 137.730, 14.694  L 140.793, 14.370  L 142.984, 16.705  L 141.187, 19.355  L 144.138, 19.109  L 146.000, 16.504  L 143.868, 14.116  L 146.952, 13.937  L 149.020, 16.381  L 147.089, 18.935  L 150.040, 18.838  L 152.042, 16.340  L 150.044, 13.838  L 153.142, 13.827  L 155.064, 16.387  L 152.989, 18.824  L 155.932, 18.898  L 158.084, 16.527  L 156.243, 13.907  L 159.344, 14.086  L 161.097, 16.765  L 158.868, 19.063  L 161.794, 19.324  L 164.101, 17.104  L 162.441, 14.366  L 165.529, 14.753  L 167.090, 17.548  L 164.706, 19.685  L 167.602, 20.148  L 170.062, 18.099  L 168.604, 15.249  L 171.660, 15.857  L 173.012, 18.760  L 170.477, 20.715  L 173.328, 21.389  L 175.935, 19.530  L 174.693, 16.579  L 177.698, 17.414  L 178.826, 20.410  L 176.151, 22.169  L 178.942, 23.056  L 181.682, 21.400  L 180.668, 18.363  L 183.600, 19.424  L 184.499, 22.496  L 181.698, 24.048  L 184.416, 25.144  L 187.272, 23.698  L 186.488, 20.594  L 189.329, 21.870  L 190.000, 25.000  L 187.093, 26.342 "/>
    </g>
</svg>
