<?xml version="1.0" encoding="utf-8" ?>
<svg xmlns="http://www.w3.org/2000/svg" xmlns:ev="http://www.w3.org/2001/xml-events" xmlns:xlink="http://www.w3.org/1999/xlink" baseProfile="full" height="50mm" version="1.1" viewBox="0,0,200,50" width="200mm">
    <defs>
        <style type="text/css"><![CDATA[
.stitch_line {
    stroke-width: 0.3;
    stroke-linejoin: round;
    stroke-linecap: round;
    fill: none;
}
.sampling_line {
    stroke:#148983;
    stroke-width: 0.5;
    fill: none;
}
.path_handle {
    stroke-width: 0.5;
    stroke-linejoin: round;
    stroke-linecap: round;
    fill:none;
    stroke: #808080;
    marker-start: url(#handles);
    marker-mid: url(#handles);
    marker-end: url(#handles);
}
.path_center_line {
    stroke-width: 0.2;
    stroke-linejoin: round;
    stroke-linecap: round;
    fill: none;
    stroke:#148983;
    stroke-dasharray: 2,1.5;
    stroke-dashoffset: 1;
}
.path_contour {
    stroke: #85c4c1;
    fill-opacity: 0;
    stroke-width: 0.3;
}
.path_direction_line {
    stroke-width: 0.05;
    fill: none;
    stroke: #85c4c1;
}
.text{
    text-anchor: middle;
    dominant-baseline: middle;
    font-family: sans-serif;
    font-size: 1.5mm;
}
.smalltext{
    text-anchor: middle;
    dominant-baseline: middle;
    font-family: sans-serif;
    font-size: 1mm;
}
.color_0 {
    stroke:#148983;
    marker-start:url(#dot_0);
    marker-mid:url(#dot_0);
    marker-end:url(#dot_0);
}
.color_1 {
    stroke:#1873ac;
    marker-start:url(#dot_1);
    marker-mid:url(#dot_1);
    marker-end:url(#dot_1);
}
.color_2 {
    stroke:#8c5290;
    marker-start:url(#dot_2);
    marker-mid:url(#dot_2);
    marker-end:url(#dot_2);
}
.color_3 {
    stroke:#61a09c;
    marker-start:url(#dot_3);
    marker-mid:url(#dot_3);
    marker-end:url(#dot_3);
}
.color_4 {
    stroke:#5ad2f4;
    marker-start:url(#dot_4);
    marker-mid:url(#dot_4);
    marker-end:url(#dot_4);
}
.color_5 {
    stroke:#0f6460;
    marker-start:url(#dot_5);
    marker-mid:url(#dot_5);
    marker-end:url(#dot_5);
}
.color_6 {
    stroke:#0f4668;
    marker-start:url(#dot_6);
    marker-mid:url(#dot_6);
    marker-end:url(#dot_6);
}
.color_7 {
    stroke:#543156;
    marker-start:url(#dot_7);
    marker-mid:url(#dot_7);
    marker-end:url(#dot_7);
}
.color_8 {
    stroke:#487673;
    marker-start:url(#dot_8);
    marker-mid:url(#dot_8);
    marker-end:url(#dot_8);
}
.color_9 {
    stroke:#0c8baf;
    marker-start:url(#dot_9);
    marker-mid:url(#dot_9);
    marker-end:url(#dot_9);
}
]]></style>
        <marker id="dot_0" markerHeight="3.0" markerWidth="3.0" refX="1.5" refY="1.5">
            <circle cx="1.5" cy="1.5" fill="#148983" r="1.5"/>
        </marker>
        <marker id="dot_1" markerHeight="3.0" markerWidth="3.0" refX="1.5" refY="1.5">
            <circle cx="1.5" cy="1.5" fill="#1873ac" r="1.5"/>
        </marker>
        <marker id="dot_2" markerHeight="3.0" markerWidth="3.0" refX="1.5" refY="1.5">
            <circle cx="1.5" cy="1.5" fill="#8c5290" r="1.5"/>
        </marker>
        <marker id="dot_3" markerHeight="3.0" markerWidth="3.0" refX="1.5" refY="1.5">
            <circle cx="1.5" cy="1.5" fill="#61a09c" r="1.5"/>
        </marker>
        <marker id="dot_4" markerHeight="3.0" markerWidth="3.0" refX="1.5" refY="1.5">
            <circle cx="1.5" cy="1.5" fill="#5ad2f4" r="1.5"/>
        </marker>
        <marker id="dot_5" markerHeight="3.0" markerWidth="3.0" refX="1.5" refY="1.5">
            <circle cx="1.5" cy="1.5" fill="#0f6460" r="1.5"/>
        </marker>
        <marker id="dot_6" markerHeight="3.0" markerWidth="3.0" refX="1.5" refY="1.5">
            <circle cx="1.5" cy="1.5" fill="#0f4668" r="1.5"/>
        </marker>
        <marker id="dot_7" markerHeight="3.0" markerWidth="3.0" refX="1.5" refY="1.5">
            <circle cx="1.5" cy="1.5" fill="#543156" r="1.5"/>
        </marker>
        <marker id="dot_8" markerHeight="3.0" markerWidth="3.0" refX="1.5" refY="1.5">
            <circle cx="1.5" cy="1.5" fill="#487673" r="1.5"/>
        </marker>
        <marker id="dot_9" markerHeight="3.0" markerWidth="3.0" refX="1.5" refY="1.5">
            <circle cx="1.5" cy="1.5" fill="#0c8baf" r="1.5"/>
        </marker>
    </defs>
    <g>
        <path class="stitch_line color_0" d="M 10.000, 25.000  L 12.766, 26.320  L 15.532, 27.516  L 18.298, 28.593  L 16.862, 25.636  L 18.298, 28.593  L 15.341, 30.029  L 18.298, 28.593  L 19.762, 29.100  L 18.326, 26.143  L 19.762, 29.100  L 16.805, 30.536  L 19.762, 29.100  L 21.226, 29.607  L 19.790, 26.650  L 21.226, 29.607  L 18.270, 31.043  L 21.226, 29.607  L 24.082, 30.475  L 26.937, 31.228  L 29.792, 31.871  L 32.647, 32.408  L 35.502, 32.843  L 38.357, 33.181  L 36.348, 30.797  L 38.357, 33.181  L 35.973, 35.190  L 38.357, 33.181  L 39.822, 33.306  L 37.813, 30.922  L 39.822, 33.306  L 37.438, 35.315  L 39.822, 33.306  L 41.286, 33.431  L 39.277, 31.047  L 41.286, 33.431  L 38.902, 35.440  L 41.286, 33.431  L 44.141, 33.585  L 46.996, 33.655  L 49.851, 33.645  L 52.706, 33.559  L 55.562, 33.401  L 58.417, 33.177  L 55.999, 31.202  L 58.417, 33.177  L 56.442, 35.595  L 58.417, 33.177  L 59.881, 33.029  L 57.463, 31.054  L 59.881, 33.029  L 57.906, 35.447  L 59.881, 33.029  L 61.345, 32.881  L 58.927, 30.906  L 61.345, 32.881  L 59.371, 35.299  L 61.345, 32.881  L 64.201, 32.534  L 67.056, 32.133  L 69.911, 31.682  L 72.766, 31.185  L 75.621, 30.648  L 78.476, 30.073  L 75.813, 28.344  L 78.476, 30.073  L 76.747, 32.737  L 78.476, 30.073  L 79.941, 29.762  L 77.277, 28.032  L 79.941, 29.762  L 78.211, 32.425  L 79.941, 29.762  L 81.405, 29.450  L 78.741, 27.721  L 81.405, 29.450  L 79.676, 32.114  L 81.405, 29.450  L 84.260, 28.815  L 87.115, 28.155  L 89.970, 27.476  L 92.825, 26.782  L 95.681, 26.077  L 98.536, 25.366  L 95.790, 23.718  L 98.536, 25.366  L 96.888, 28.111  L 98.536, 25.366  L 100.000, 25.000  L 97.255, 23.352  L 100.000, 25.000  L 98.352, 27.745  L 100.000, 25.000  L 101.464, 24.634  L 98.719, 22.987  L 101.464, 24.634  L 99.817, 27.379  L 101.464, 24.634  L 104.319, 23.923  L 107.175, 23.218  L 110.030, 22.524  L 112.885, 21.845  L 115.740, 21.185  L 118.595, 20.550  L 115.932, 18.820  L 118.595, 20.550  L 116.866, 23.213  L 118.595, 20.550  L 120.059, 20.238  L 117.396, 18.509  L 120.059, 20.238  L 118.330, 22.902  L 120.059, 20.238  L 121.524, 19.927  L 118.860, 18.197  L 121.524, 19.927  L 119.794, 22.590  L 121.524, 19.927  L 124.379, 19.352  L 127.234, 18.815  L 130.089, 18.318  L 132.944, 17.867  L 135.799, 17.466  L 138.655, 17.119  L 136.236, 15.144  L 138.655, 17.119  L 136.680, 19.537  L 138.655, 17.119  L 140.119, 16.971  L 137.701, 14.996  L 140.119, 16.971  L 138.144, 19.389  L 140.119, 16.971  L 141.583, 16.823  L 139.165, 14.849  L 141.583, 16.823  L 139.608, 19.242  L 141.583, 16.823  L 144.438, 16.599  L 147.294, 16.441  L 150.149, 16.355  L 153.004, 16.345  L 155.859, 16.415  L 158.714, 16.569  L 156.705, 14.185  L 158.714, 16.569  L 156.330, 18.578  L 158.714, 16.569  L 160.178, 16.694  L 158.169, 14.310  L 160.178, 16.694  L 157.794, 18.703  L 160.178, 16.694  L 161.643, 16.819  L 159.634, 14.435  L 161.643, 16.819  L 159.259, 18.828  L 161.643, 16.819  L 164.498, 17.157  L 167.353, 17.592  L 170.208, 18.129  L 173.063, 18.772  L 175.918, 19.525  L 178.774, 20.393  L 177.337, 17.437  L 178.774, 20.393  L 175.817, 21.829  L 178.774, 20.393  L 180.238, 20.900  L 178.802, 17.943  L 180.238, 20.900  L 177.281, 22.336  L 180.238, 20.900  L 181.702, 21.407  L 180.266, 18.450  L 181.702, 21.407  L 178.745, 22.843  L 181.702, 21.407  L 184.468, 22.484  L 187.234, 23.680  L 190.000, 25.000 "/>
    </g>
</svg>
