<?xml version="1.0" encoding="utf-8" ?>
<svg xmlns="http://www.w3.org/2000/svg" xmlns:ev="http://www.w3.org/2001/xml-events" xmlns:xlink="http://www.w3.org/1999/xlink" baseProfile="full" height="50mm" version="1.1" viewBox="0,0,200,50" width="200mm">
    <defs>
        <style type="text/css"><![CDATA[
.stitch_line {
    stroke-width: 0.3;
    stroke-linejoin: round;
    stroke-linecap: round;
    fill: none;
}
.sampling_line {
    stroke:#148983;
    stroke-width: 0.5;
    fill: none;
}
.path_handle {
    stroke-width: 0.5;
    stroke-linejoin: round;
    stroke-linecap: round;
    fill:none;
    stroke: #808080;
    marker-start: url(#handles);
    marker-mid: url(#handles);
    marker-end: url(#handles);
}
.path_center_line {
    stroke-width: 0.2;
    stroke-linejoin: round;
    stroke-linecap: round;
    fill: none;
    stroke:#148983;
    stroke-dasharray: 2,1.5;
    stroke-dashoffset: 1;
}
.path_contour {
    stroke: #85c4c1;
    fill-opacity: 0;
    stroke-width: 0.3;
}
.path_direction_line {
    stroke-width: 0.05;
    fill: none;
    stroke: #85c4c1;
}
.text{
    text-anchor: middle;
    dominant-baseline: middle;
    font-family: sans-serif;
    font-size: 1.5mm;
}
.smalltext{
    text-anchor: middle;
    dominant-baseline: middle;
    font-family: sans-serif;
    font-size: 1mm;
}
.color_0 {
    stroke:#148983;
    marker-start:url(#dot_0);
    marker-mid:url(#dot_0);
    marker-end:url(#dot_0);
}
.color_1 {
    stroke:#1873ac;
    marker-start:url(#dot_1);
    marker-mid:url(#dot_1);
    marker-end:url(#dot_1);
}
.color_2 {
    stroke:#8c5290;
    marker-start:url(#dot_2);
    marker-mid:url(#dot_2);
    marker-end:url(#dot_2);
}
.color_3 {
    stroke:#61a09c;
    marker-start:url(#dot_3);
    marker-mid:url(#dot_3);
    marker-end:url(#dot_3);
}
.color_4 {
    stroke:#5ad2f4;
    marker-start:url(#dot_4);
    marker-mid:url(#dot_4);
    marker-end:url(#dot_4);
}
.color_5 {
    stroke:#0f6460;
    marker-start:url(#dot_5);
    marker-mid:url(#dot_5);
    marker-end:url(#dot_5);
}
.color_6 {
    stroke:#0f4668;
    marker-start:url(#dot_6);
    marker-mid:url(#dot_6);
    marker-end:url(#dot_6);
}
.color_7 {
    stroke:#543156;
    marker-start:url(#dot_7);
    marker-mid:url(#dot_7);
    marker-end:url(#dot_7);
}
.color_8 {
    stroke:#487673;
    marker-start:url(#dot_8);
    marker-mid:url(#dot_8);
    marker-end:url(#dot_8);
}
.color_9 {
    stroke:#0c8baf;
    marker-start:url(#dot_9);
    marker-mid:url(#dot_9);
    marker-end:url(#dot_9);
}
]]></style>
        <marker id="dot_0" markerHeight="3.0" markerWidth="3.0" refX="1.5" refY="1.5">
            <circle cx="1.5" cy="1.5" fill="#148983" r="1.5"/>
        </marker>
        <marker id="dot_1" markerHeight="3.0" markerWidth="3.0" refX="1.5" refY="1.5">
            <circle cx="1.5" cy="1.5" fill="#1873ac" r="1.5"/>
        </marker>
        <marker id="dot_2" markerHeight="3.0" markerWidth="3.0" refX="1.5" refY="1.5">
            <circle cx="1.5" cy="1.5" fill="#8c5290" r="1.5"/>
        </marker>
        <marker id="dot_3" markerHeight="3.0" markerWidth="3.0" refX="1.5" refY="1.5">
            <circle cx="1.5" cy="1.5" fill="#61a09c" r="1.5"/>
        </marker>
        <marker id="dot_4" markerHeight="3.0" markerWidth="3.0" refX="1.5" refY="1.5">
            <circle cx="1.5" cy="1.5" fill="#5ad2f4" r="1.5"/>
        </marker>
        <marker id="dot_5" markerHeight="3.0" markerWidth="3.0" refX="1.5" refY="1.5">
            <circle cx="1.5" cy="1.5" fill="#0f6460" r="1.5"/>
        </marker>
        <marker id="dot_6" markerHeight="3.0" markerWidth="3.0" refX="1.5" refY="1.5">
            <circle cx="1.5" cy="1.5" fill="#0f4668" r="1.5"/>
        </marker>
        <marker id="dot_7" markerHeight="3.0" markerWidth="3.0" refX="1.5" refY="1.5">
            <circle cx="1.5" cy="1.5" fill="#543156" r="1.5"/>
        </marker>
        <marker id="dot_8" markerHeight="3.0" markerWidth="3.0" refX="1.5" refY="1.5">
            <circle cx="1.5" cy="1.5" fill="#487673" r="1.5"/>
        </marker>
        <marker id="dot_9" markerHeight="3.0" markerWidth="3.0" refX="1.5" refY="1.5">
            <circle cx="1.5" cy="1.5" fill="#0c8baf" r="1.5"/>
        </marker>
    </defs>
    <g>
        <path class="stitch_line color_0" d="M 12.236, 26.118  L 8.658, 27.683  L 7.764, 23.882  L 11.342, 22.317  L 12.236, 26.118  L 15.229, 27.433  L 11.716, 29.138  L 10.672, 25.375  L 14.186, 23.670  L 15.229, 27.433  L 18.219, 28.605  L 14.776, 30.448  L 13.584, 26.729  L 17.027, 24.886  L 18.219, 28.605  L 21.205, 29.641  L 17.837, 31.618  L 16.500, 27.948  L 19.868, 25.972  L 21.205, 29.641  L 24.187, 30.545  L 20.899, 32.652  L 19.420, 29.038  L 22.708, 26.931  L 24.187, 30.545  L 27.165, 31.323  L 23.961, 33.555  L 22.343, 30.001  L 25.548, 27.769  L 27.165, 31.323  L 30.139, 31.981  L 27.022, 34.333  L 25.271, 30.842  L 28.388, 28.490  L 30.139, 31.981  L 33.109, 32.523  L 30.081, 34.989  L 28.202, 31.565  L 31.231, 29.100  L 33.109, 32.523  L 36.076, 32.956  L 33.138, 35.529  L 31.137, 32.175  L 34.075, 29.602  L 36.076, 32.956  L 39.039, 33.284  L 36.192, 35.957  L 34.076, 32.675  L 36.923, 30.002  L 39.039, 33.284  L 41.998, 33.512  L 39.243, 36.279  L 37.018, 33.070  L 39.774, 30.303  L 41.998, 33.512  L 44.955, 33.646  L 42.290, 36.500  L 39.963, 33.364  L 42.628, 30.510  L 44.955, 33.646  L 47.909, 33.691  L 45.332, 36.625  L 42.911, 33.562  L 45.488, 30.627  L 47.909, 33.691  L 50.861, 33.652  L 48.370, 36.660  L 45.861, 33.667  L 48.351, 30.660  L 50.861, 33.652  L 53.810, 33.534  L 51.403, 36.608  L 48.813, 33.686  L 51.220, 30.611  L 53.810, 33.534  L 56.758, 33.341  L 54.431, 36.477  L 51.766, 33.622  L 54.094, 30.486  L 56.758, 33.341  L 59.705, 33.079  L 57.454, 36.269  L 54.721, 33.480  L 56.972, 30.289  L 59.705, 33.079  L 62.651, 32.752  L 60.471, 35.992  L 57.677, 33.264  L 59.856, 30.024  L 62.651, 32.752  L 65.596, 32.365  L 63.484, 35.650  L 60.634, 32.980  L 62.746, 29.695  L 65.596, 32.365  L 68.540, 31.923  L 66.491, 35.247  L 63.591, 32.632  L 65.640, 29.308  L 68.540, 31.923  L 71.485, 31.430  L 69.494, 34.790  L 66.548, 32.226  L 68.539, 28.866  L 71.485, 31.430  L 74.429, 30.892  L 72.491, 34.282  L 69.506, 31.765  L 71.444, 28.374  L 74.429, 30.892  L 77.373, 30.313  L 75.483, 33.730  L 72.463, 31.254  L 74.353, 27.837  L 77.373, 30.313  L 80.318, 29.697  L 78.470, 33.137  L 75.420, 30.699  L 77.267, 27.259  L 80.318, 29.697  L 83.263, 29.050  L 81.453, 32.510  L 78.376, 30.105  L 80.186, 26.645  L 83.263, 29.050  L 86.209, 28.375  L 84.431, 31.852  L 81.332, 29.476  L 83.110, 25.999  L 86.209, 28.375  L 89.156, 27.679  L 87.404, 31.169  L 84.287, 28.816  L 86.039, 25.326  L 89.156, 27.679  L 92.103, 26.964  L 90.373, 30.465  L 87.241, 28.132  L 88.972, 24.631  L 92.103, 26.964  L 95.051, 26.237  L 93.337, 29.746  L 90.195, 27.427  L 91.909, 23.918  L 95.051, 26.237  L 98.000, 25.502  L 96.296, 29.016  L 93.147, 26.706  L 94.851, 23.192  L 98.000, 25.502  L 100.950, 24.763  L 99.252, 28.279  L 96.099, 25.975  L 97.798, 22.458  L 100.950, 24.763  L 103.901, 24.025  L 102.202, 27.542  L 99.050, 25.237  L 100.748, 21.721  L 103.901, 24.025  L 106.853, 23.294  L 105.149, 26.808  L 102.000, 24.498  L 103.704, 20.984  L 106.853, 23.294  L 109.805, 22.573  L 108.091, 26.082  L 104.949, 23.763  L 106.663, 20.254  L 109.805, 22.573  L 112.759, 21.868  L 111.028, 25.369  L 107.897, 23.036  L 109.627, 19.535  L 112.759, 21.868  L 115.713, 21.184  L 113.961, 24.674  L 110.844, 22.321  L 112.596, 18.831  L 115.713, 21.184  L 118.668, 20.524  L 116.890, 24.001  L 113.791, 21.625  L 115.569, 18.148  L 118.668, 20.524  L 121.624, 19.895  L 119.814, 23.355  L 116.737, 20.950  L 118.547, 17.490  L 121.624, 19.895  L 124.580, 19.301  L 122.733, 22.741  L 119.682, 20.303  L 121.530, 16.863  L 124.580, 19.301  L 127.537, 18.746  L 125.647, 22.163  L 122.627, 19.687  L 124.517, 16.270  L 127.537, 18.746  L 130.494, 18.235  L 128.556, 21.626  L 125.571, 19.108  L 127.509, 15.718  L 130.494, 18.235  L 133.452, 17.774  L 131.461, 21.134  L 128.515, 18.570  L 130.506, 15.210  L 133.452, 17.774  L 136.409, 17.368  L 134.360, 20.692  L 131.460, 18.077  L 133.509, 14.753  L 136.409, 17.368  L 139.366, 17.020  L 137.254, 20.305  L 134.404, 17.635  L 136.516, 14.350  L 139.366, 17.020  L 142.323, 16.736  L 140.144, 19.976  L 137.349, 17.248  L 139.529, 14.008  L 142.323, 16.736  L 145.279, 16.520  L 143.028, 19.711  L 140.295, 16.921  L 142.546, 13.731  L 145.279, 16.520  L 148.234, 16.378  L 145.906, 19.514  L 143.242, 16.659  L 145.569, 13.523  L 148.234, 16.378  L 151.187, 16.314  L 148.780, 19.389  L 146.190, 16.466  L 148.597, 13.392  L 151.187, 16.314  L 154.139, 16.333  L 151.649, 19.340  L 149.139, 16.348  L 151.630, 13.340  L 154.139, 16.333  L 157.089, 16.438  L 154.512, 19.373  L 152.091, 16.309  L 154.668, 13.375  L 157.089, 16.438  L 160.037, 16.636  L 157.372, 19.490  L 155.045, 16.354  L 157.710, 13.500  L 160.037, 16.636  L 162.982, 16.930  L 160.226, 19.697  L 158.002, 16.488  L 160.757, 13.721  L 162.982, 16.930  L 165.924, 17.325  L 163.077, 19.998  L 160.961, 16.716  L 163.808, 14.043  L 165.924, 17.325  L 168.863, 17.825  L 165.925, 20.398  L 163.924, 17.044  L 166.862, 14.471  L 168.863, 17.825  L 171.798, 18.435  L 168.769, 20.900  L 166.891, 17.477  L 169.919, 15.011  L 171.798, 18.435  L 174.729, 19.158  L 171.612, 21.510  L 169.861, 18.019  L 172.978, 15.667  L 174.729, 19.158  L 177.657, 19.999  L 174.452, 22.231  L 172.835, 18.677  L 176.039, 16.445  L 177.657, 19.999  L 180.580, 20.962  L 177.292, 23.069  L 175.813, 19.455  L 179.101, 17.348  L 180.580, 20.962  L 183.500, 22.052  L 180.132, 24.028  L 178.795, 20.359  L 182.163, 18.382  L 183.500, 22.052  L 186.416, 23.271  L 182.973, 25.114  L 181.781, 21.395  L 185.224, 19.552  L 186.416, 23.271  L 189.328, 24.625  L 185.814, 26.330  L 184.771, 22.567  L 188.284, 20.862  L 189.328, 24.625  L 192.236, 26.118  L 188.658, 27.683  L 187.764, 23.882  L 191.342, 22.317  L 192.236, 26.118 "/>
    </g>
</svg>
