<?xml version="1.0" encoding="utf-8" ?>
<svg xmlns="http://www.w3.org/2000/svg" xmlns:ev="http://www.w3.org/2001/xml-events" xmlns:xlink="http://www.w3.org/1999/xlink" baseProfile="full" height="50mm" version="1.1" viewBox="0,0,200,50" width="200mm">
    <defs>
        <style type="text/css"><![CDATA[
.stitch_line {
    stroke-width: 0.3;
    stroke-linejoin: round;
    stroke-linecap: round;
    fill: none;
}
.path_center_line {
    fill: none;
    stroke:#808080;
    stroke-width: 0.2;
    stroke-linejoin: round;
    stroke-linecap: round;
}
.path_contour {
    fill: #808080;
    fill-opacity: 0.3;
    stroke: #808080;
    stroke-opacity: 1;
    stroke-width: 0.3;
}
.text{
    text-anchor: middle;
    dominant-baseline: middle;
    font-family: sans-serif;
    font-size: 1.5mm;
}
.smalltext{
    text-anchor: middle;
    dominant-baseline: middle;
    font-family: sans-serif;
    font-size: 1mm;
}
.color_0 {
    stroke:#3bb2d0;
}
.dot_0 {
    marker-start:url(#dot_0);
    marker-mid:url(#dot_0);
    marker-end:url(#dot_0);
}
]]></style>
        <marker id="dot_0" markerHeight="3.0" markerWidth="3.0" refX="1.5" refY="1.5">
            <circle cx="1.5" cy="1.5" fill="#3bb2d0" r="1.5"/>
        </marker>
    </defs>
    <g>
        <path class="stitch_line color_0 dot_0" d="M 12.236, 26.118  L 8.658, 27.683  L 7.764, 23.882  L 11.342, 22.317  L 12.236, 26.118  L 15.003, 27.338  L 11.485, 29.033  L 10.452, 25.267  L 13.971, 23.572  L 15.003, 27.338  L 17.813, 28.454  L 14.361, 30.278  L 13.189, 26.553  L 16.642, 24.729  L 17.813, 28.454  L 20.664, 29.463  L 17.282, 31.416  L 15.972, 27.737  L 19.353, 25.785  L 20.664, 29.463  L 23.551, 30.363  L 20.246, 32.442  L 18.797, 28.816  L 22.102, 26.737  L 23.551, 30.363  L 26.470, 31.153  L 23.246, 33.356  L 21.660, 29.787  L 24.885, 27.584  L 26.470, 31.153  L 29.417, 31.832  L 26.278, 34.155  L 24.559, 30.649  L 27.698, 28.326  L 29.417, 31.832  L 32.387, 32.402  L 29.337, 34.840  L 27.488, 31.400  L 30.539, 28.962  L 32.387, 32.402  L 35.376, 32.863  L 32.416, 35.411  L 30.444, 32.041  L 33.403, 29.493  L 35.376, 32.863  L 38.378, 33.219  L 35.511, 35.871  L 33.420, 32.573  L 36.287, 29.921  L 38.378, 33.219  L 41.392, 33.473  L 38.617, 36.222  L 36.414, 32.997  L 39.189, 30.249  L 41.392, 33.473  L 44.411, 33.628  L 41.729, 36.467  L 39.421, 33.317  L 42.103, 30.479  L 44.411, 33.628  L 47.434, 33.690  L 44.843, 36.612  L 42.437, 33.536  L 45.028, 30.614  L 47.434, 33.690  L 50.458, 33.662  L 47.956, 36.660  L 45.458, 33.658  L 47.960, 30.660  L 50.458, 33.662  L 53.479, 33.551  L 51.063, 36.618  L 48.481, 33.688  L 50.898, 30.621  L 53.479, 33.551  L 56.497, 33.361  L 54.162, 36.491  L 51.504, 33.631  L 53.838, 30.500  L 56.497, 33.361  L 59.509, 33.098  L 57.252, 36.285  L 54.524, 33.491  L 56.780, 30.304  L 59.509, 33.098  L 62.514, 32.768  L 60.331, 36.006  L 57.540, 33.276  L 59.722, 30.037  L 62.514, 32.768  L 65.511, 32.377  L 63.398, 35.660  L 60.549, 32.989  L 62.663, 29.706  L 65.511, 32.377  L 68.501, 31.929  L 66.451, 35.253  L 63.552, 32.637  L 65.601, 29.313  L 68.501, 31.929  L 71.483, 31.431  L 69.492, 34.790  L 66.547, 32.226  L 68.538, 28.866  L 71.483, 31.431  L 74.457, 30.887  L 72.519, 34.277  L 69.533, 31.760  L 71.471, 28.369  L 74.457, 30.887  L 77.423, 30.303  L 75.533, 33.720  L 72.512, 31.245  L 74.402, 27.828  L 77.423, 30.303  L 80.381, 29.683  L 78.534, 33.124  L 75.483, 30.687  L 77.330, 27.246  L 80.381, 29.683  L 83.334, 29.034  L 81.524, 32.494  L 78.446, 30.090  L 80.256, 26.630  L 83.334, 29.034  L 86.280, 28.359  L 84.502, 31.836  L 81.403, 29.460  L 83.181, 25.983  L 86.280, 28.359  L 89.222, 27.663  L 87.470, 31.153  L 84.353, 28.801  L 86.104, 25.311  L 89.222, 27.663  L 92.159, 26.950  L 90.429, 30.451  L 87.298, 28.118  L 89.028, 24.617  L 92.159, 26.950  L 95.094, 26.226  L 93.380, 29.735  L 90.238, 27.416  L 91.952, 23.908  L 95.094, 26.226  L 98.027, 25.495  L 96.323, 29.009  L 93.174, 26.699  L 94.878, 23.186  L 98.027, 25.495  L 100.959, 24.761  L 99.261, 28.277  L 96.108, 25.972  L 97.807, 22.456  L 100.959, 24.761  L 103.892, 24.028  L 102.193, 27.544  L 99.041, 25.239  L 100.739, 21.723  L 103.892, 24.028  L 106.826, 23.301  L 105.122, 26.814  L 101.973, 24.505  L 103.677, 20.991  L 106.826, 23.301  L 109.762, 22.584  L 108.048, 26.092  L 104.906, 23.774  L 106.620, 20.265  L 109.762, 22.584  L 112.702, 21.882  L 110.972, 25.383  L 107.841, 23.050  L 109.571, 19.549  L 112.702, 21.882  L 115.647, 21.199  L 113.896, 24.689  L 110.778, 22.337  L 112.530, 18.847  L 115.647, 21.199  L 118.597, 20.540  L 116.819, 24.017  L 113.720, 21.641  L 115.498, 18.164  L 118.597, 20.540  L 121.554, 19.910  L 119.744, 23.370  L 116.666, 20.966  L 118.476, 17.506  L 121.554, 19.910  L 124.517, 19.313  L 122.670, 22.754  L 119.619, 20.317  L 121.466, 16.876  L 124.517, 19.313  L 127.488, 18.755  L 125.598, 22.172  L 122.577, 19.697  L 124.467, 16.280  L 127.488, 18.755  L 130.467, 18.240  L 128.529, 21.631  L 125.543, 19.113  L 127.481, 15.723  L 130.467, 18.240  L 133.453, 17.774  L 131.462, 21.134  L 128.517, 18.569  L 130.508, 15.210  L 133.453, 17.774  L 136.448, 17.363  L 134.399, 20.687  L 131.499, 18.071  L 133.549, 14.747  L 136.448, 17.363  L 139.451, 17.011  L 137.337, 20.294  L 134.489, 17.623  L 136.602, 14.340  L 139.451, 17.011  L 142.460, 16.724  L 140.278, 19.963  L 137.486, 17.232  L 139.669, 13.994  L 142.460, 16.724  L 145.476, 16.509  L 143.220, 19.696  L 140.491, 16.902  L 142.748, 13.715  L 145.476, 16.509  L 148.496, 16.369  L 146.162, 19.500  L 143.503, 16.639  L 145.838, 13.509  L 148.496, 16.369  L 151.519, 16.312  L 149.102, 19.379  L 146.521, 16.449  L 148.937, 13.382  L 151.519, 16.312  L 154.542, 16.342  L 152.040, 19.340  L 149.542, 16.338  L 152.044, 13.340  L 154.542, 16.342  L 157.563, 16.464  L 154.972, 19.386  L 152.566, 16.310  L 155.157, 13.388  L 157.563, 16.464  L 160.579, 16.683  L 157.897, 19.521  L 155.589, 16.372  L 158.271, 13.533  L 160.579, 16.683  L 163.586, 17.003  L 160.811, 19.751  L 158.608, 16.527  L 161.383, 13.778  L 163.586, 17.003  L 166.580, 17.427  L 163.713, 20.079  L 161.622, 16.781  L 164.489, 14.129  L 166.580, 17.427  L 169.556, 17.959  L 166.597, 20.507  L 164.624, 17.137  L 167.584, 14.589  L 169.556, 17.959  L 172.512, 18.600  L 169.461, 21.038  L 167.613, 17.598  L 170.663, 15.160  L 172.512, 18.600  L 175.441, 19.351  L 172.302, 21.674  L 170.583, 18.168  L 173.722, 15.845  L 175.441, 19.351  L 178.340, 20.213  L 175.115, 22.416  L 173.530, 18.847  L 176.754, 16.644  L 178.340, 20.213  L 181.203, 21.184  L 177.898, 23.263  L 176.449, 19.637  L 179.754, 17.558  L 181.203, 21.184  L 184.028, 22.263  L 180.647, 24.215  L 179.336, 20.537  L 182.718, 18.584  L 184.028, 22.263  L 186.811, 23.447  L 183.358, 25.271  L 182.187, 21.546  L 185.639, 19.722  L 186.811, 23.447  L 189.548, 24.733  L 186.029, 26.428  L 184.997, 22.662  L 188.515, 20.967  L 189.548, 24.733  L 192.236, 26.118  L 188.658, 27.683  L 187.764, 23.882  L 191.342, 22.317  L 192.236, 26.118 "/>
    </g>
</svg>
