<?xml version="1.0" encoding="utf-8" ?>
<svg xmlns="http://www.w3.org/2000/svg" xmlns:ev="http://www.w3.org/2001/xml-events" xmlns:xlink="http://www.w3.org/1999/xlink" baseProfile="full" height="50mm" version="1.1" viewBox="0,0,200,50" width="200mm">
    <defs>
        <style type="text/css"><![CDATA[
.stitch_line {
    stroke-width: 0.3;
    stroke-linejoin: round;
    stroke-linecap: round;
    fill: none;
}
.path_center_line {
    fill: none;
    stroke:#808080;
    stroke-width: 0.2;
    stroke-linejoin: round;
    stroke-linecap: round;
}
.path_contour {
    fill: #808080;
    fill-opacity: 0.3;
    stroke: #808080;
    stroke-opacity: 1;
    stroke-width: 0.3;
}
.text{
    text-anchor: middle;
    dominant-baseline: middle;
    font-family: sans-serif;
    font-size: 1.5mm;
}
.smalltext{
    text-anchor: middle;
    dominant-baseline: middle;
    font-family: sans-serif;
    font-size: 1mm;
}
.color_0 {
    stroke:#3bb2d0;
}
.dot_0 {
    marker-start:url(#dot_0);
    marker-mid:url(#dot_0);
    marker-end:url(#dot_0);
}
]]></style>
        <marker id="dot_0" markerHeight="3.0" markerWidth="3.0" refX="1.5" refY="1.5">
            <circle cx="1.5" cy="1.5" fill="#3bb2d0" r="1.5"/>
        </marker>
    </defs>
    <g>
        <path class="stitch_line color_0 dot_0" d="M 10.447, 24.106  L 13.768, 22.999  L 10.447, 24.106  L 12.313, 27.213  L 13.540, 30.490  L 12.313, 27.213  L 15.882, 26.579  L 19.112, 25.231  L 15.882, 26.579  L 17.973, 29.539  L 19.441, 32.716  L 17.973, 29.539  L 21.483, 28.639  L 24.602, 27.051  L 21.483, 28.639  L 23.792, 31.432  L 25.497, 34.489  L 23.792, 31.432  L 27.225, 30.269  L 30.215, 28.450  L 27.225, 30.269  L 29.737, 32.881  L 31.666, 35.801  L 29.737, 32.881  L 33.074, 31.466  L 35.922, 29.432  L 33.074, 31.466  L 35.770, 33.888  L 37.904, 36.662  L 35.770, 33.888  L 38.998, 32.240  L 41.697, 30.012  L 38.998, 32.240  L 41.854, 34.471  L 44.170, 37.095  L 41.854, 34.471  L 44.966, 32.613  L 47.516, 30.216  L 44.966, 32.613  L 47.957, 34.660  L 50.430, 37.137  L 47.957, 34.660  L 50.953, 32.620  L 53.359, 30.078  L 50.953, 32.620  L 54.054, 34.494  L 56.659, 36.832  L 54.054, 34.494  L 56.938, 32.298  L 59.210, 29.636  L 56.938, 32.298  L 60.128, 34.017  L 62.842, 36.228  L 60.128, 34.017  L 62.908, 31.690  L 65.061, 28.931  L 62.908, 31.690  L 66.168, 33.273  L 68.969, 35.372  L 66.168, 33.273  L 68.856, 30.841  L 70.905, 28.004  L 68.856, 30.841  L 72.170, 32.308  L 75.039, 34.313  L 72.170, 32.308  L 74.779, 29.792  L 76.743, 26.895  L 74.779, 29.792  L 78.133, 31.165  L 81.054, 33.093  L 78.133, 31.165  L 80.679, 28.585  L 82.575, 25.643  L 80.679, 28.585  L 84.062, 29.885  L 87.021, 31.754  L 84.062, 29.885  L 86.560, 27.258  L 88.406, 24.285  L 86.560, 27.258  L 89.962, 28.507  L 92.947, 30.335  L 89.962, 28.507  L 92.428, 25.850  L 94.243, 22.857  L 92.428, 25.850  L 95.842, 27.068  L 98.840, 28.874  L 95.842, 27.068  L 98.291, 24.396  L 100.093, 21.395  L 98.291, 24.396  L 101.709, 25.604  L 104.710, 27.405  L 101.709, 25.604  L 104.158, 22.932  L 105.964, 19.934  L 104.158, 22.932  L 107.572, 24.150  L 110.565, 25.965  L 107.572, 24.150  L 110.038, 21.493  L 111.866, 18.509  L 110.038, 21.493  L 113.440, 22.742  L 116.414, 24.588  L 113.440, 22.742  L 115.938, 20.115  L 117.807, 17.156  L 115.938, 20.115  L 119.321, 21.415  L 122.263, 23.311  L 119.321, 21.415  L 121.867, 18.835  L 123.795, 15.914  L 121.867, 18.835  L 125.221, 20.208  L 128.118, 22.172  L 125.221, 20.208  L 127.830, 17.692  L 129.835, 14.823  L 127.830, 17.692  L 131.144, 19.159  L 133.981, 21.209  L 131.144, 19.159  L 133.832, 16.727  L 135.931, 13.926  L 133.832, 16.727  L 137.092, 18.310  L 139.852, 20.463  L 137.092, 18.310  L 139.872, 15.983  L 142.083, 13.270  L 139.872, 15.983  L 143.062, 17.702  L 145.724, 19.975  L 143.062, 17.702  L 145.946, 15.506  L 148.283, 12.901  L 145.946, 15.506  L 149.047, 17.380  L 151.589, 19.786  L 149.047, 17.380  L 152.043, 15.340  L 154.520, 12.867  L 152.043, 15.340  L 155.034, 17.387  L 157.431, 19.936  L 155.034, 17.387  L 158.146, 15.529  L 160.770, 13.213  L 158.146, 15.529  L 161.002, 17.760  L 163.230, 20.460  L 161.002, 17.760  L 164.230, 16.112  L 167.004, 13.978  L 164.230, 16.112  L 166.926, 18.534  L 168.960, 21.382  L 166.926, 18.534  L 170.263, 17.119  L 173.183, 15.191  L 170.263, 17.119  L 172.775, 19.731  L 174.594, 22.721  L 172.775, 19.731  L 176.208, 18.568  L 179.264, 16.863  L 176.208, 18.568  L 178.517, 21.361  L 180.105, 24.480  L 178.517, 21.361  L 182.027, 20.461  L 185.204, 18.993  L 182.027, 20.461  L 184.118, 23.421  L 185.466, 26.651  L 184.118, 23.421  L 187.687, 22.787  L 190.965, 21.560  L 187.687, 22.787  L 189.553, 25.894  L 190.660, 29.215  L 189.553, 25.894 "/>
    </g>
</svg>
