<?xml version="1.0" encoding="utf-8" ?>
<svg xmlns="http://www.w3.org/2000/svg" xmlns:ev="http://www.w3.org/2001/xml-events" xmlns:xlink="http://www.w3.org/1999/xlink" baseProfile="full" height="50mm" version="1.1" viewBox="0,0,200,50" width="200mm">
    <defs>
        <style type="text/css"><![CDATA[
.stitch_line {
    stroke-width: 0.3;
    stroke-linejoin: round;
    stroke-linecap: round;
    fill: none;
}
.path_center_line {
    stroke-width: 0.2;
    stroke-linejoin: round;
    stroke-linecap: round;
    fill: none;
    stroke:#333;
}
.path_contour {
    stroke: #ddd;
    fill-opacity: 1;
    fill: #eee;
    stroke-width: 0.3;
}
.text{
    text-anchor: middle;
    dominant-baseline: middle;
    font-family: sans-serif;
    font-size: 1.5mm;
}
.smalltext{
    text-anchor: middle;
    dominant-baseline: middle;
    font-family: sans-serif;
    font-size: 1mm;
}
.color_0 {
    stroke:#148983;
}
.dot_0 {
    marker-start:url(#dot_0);
    marker-mid:url(#dot_0);
    marker-end:url(#dot_0);
}
]]></style>
        <marker id="dot_0" markerHeight="3.0" markerWidth="3.0" refX="1.5" refY="1.5">
            <circle cx="1.5" cy="1.5" fill="#148983" r="1.5"/>
        </marker>
    </defs>
    <g>
        <path class="stitch_line color_0 dot_0" d="M 10.000, 25.000  L 11.789, 21.422  L 10.000, 25.000  L 12.951, 26.404  L 14.597, 22.758  L 12.951, 26.404  L 15.902, 27.667  L 17.403, 23.959  L 15.902, 27.667  L 18.852, 28.795  L 20.206, 25.031  L 18.852, 28.795  L 21.803, 29.791  L 23.009, 25.978  L 21.803, 29.791  L 24.754, 30.662  L 25.812, 26.805  L 24.754, 30.662  L 27.705, 31.412  L 28.616, 27.517  L 27.705, 31.412  L 30.656, 32.044  L 31.422, 28.119  L 30.656, 32.044  L 33.607, 32.565  L 34.231, 28.614  L 33.607, 32.565  L 36.557, 32.979  L 37.044, 29.009  L 36.557, 32.979  L 39.508, 33.291  L 39.862, 29.307  L 39.508, 33.291  L 42.459, 33.505  L 42.685, 29.512  L 42.459, 33.505  L 45.410, 33.626  L 45.514, 29.628  L 45.410, 33.626  L 48.361, 33.660  L 48.348, 29.660  L 48.361, 33.660  L 51.311, 33.610  L 51.190, 29.612  L 51.311, 33.610  L 54.262, 33.481  L 54.037, 29.488  L 54.262, 33.481  L 57.213, 33.279  L 56.892, 29.292  L 57.213, 33.279  L 60.164, 33.008  L 59.754, 29.029  L 60.164, 33.008  L 63.115, 32.672  L 62.622, 28.703  L 63.115, 32.672  L 66.066, 32.278  L 65.498, 28.318  L 66.066, 32.278  L 69.016, 31.828  L 68.380, 27.879  L 69.016, 31.828  L 71.967, 31.328  L 71.269, 27.390  L 71.967, 31.328  L 74.918, 30.783  L 74.165, 26.855  L 74.918, 30.783  L 77.869, 30.198  L 77.067, 26.279  L 77.869, 30.198  L 80.820, 29.577  L 79.975, 25.667  L 80.820, 29.577  L 83.770, 28.925  L 82.890, 25.024  L 83.770, 28.925  L 86.721, 28.247  L 85.811, 24.352  L 86.721, 28.247  L 89.672, 27.548  L 88.738, 23.659  L 89.672, 27.548  L 92.623, 26.832  L 91.671, 22.947  L 92.623, 26.832  L 95.574, 26.104  L 94.610, 22.222  L 95.574, 26.104  L 98.525, 25.369  L 97.555, 21.488  L 98.525, 25.369  L 101.475, 24.631  L 100.506, 20.750  L 101.475, 24.631  L 104.426, 23.896  L 103.463, 20.014  L 104.426, 23.896  L 107.377, 23.168  L 106.425, 19.283  L 107.377, 23.168  L 110.328, 22.452  L 109.394, 18.563  L 110.328, 22.452  L 113.279, 21.753  L 112.369, 17.858  L 113.279, 21.753  L 116.230, 21.075  L 115.349, 17.173  L 116.230, 21.075  L 119.180, 20.423  L 118.336, 16.513  L 119.180, 20.423  L 122.131, 19.802  L 121.329, 15.883  L 122.131, 19.802  L 125.082, 19.217  L 124.329, 15.288  L 125.082, 19.217  L 128.033, 18.672  L 127.335, 14.733  L 128.033, 18.672  L 130.984, 18.172  L 130.347, 14.223  L 130.984, 18.172  L 133.934, 17.722  L 133.367, 13.763  L 133.934, 17.722  L 136.885, 17.328  L 136.393, 13.358  L 136.885, 17.328  L 139.836, 16.992  L 139.426, 13.013  L 139.836, 16.992  L 142.787, 16.721  L 142.466, 12.734  L 142.787, 16.721  L 145.738, 16.519  L 145.513, 12.525  L 145.738, 16.519  L 148.689, 16.390  L 148.567, 12.392  L 148.689, 16.390  L 151.639, 16.340  L 151.627, 12.340  L 151.639, 16.340  L 154.590, 16.374  L 154.694, 12.375  L 154.590, 16.374  L 157.541, 16.495  L 157.767, 12.501  L 157.541, 16.495  L 160.492, 16.709  L 160.846, 12.725  L 160.492, 16.709  L 163.443, 17.021  L 163.930, 13.050  L 163.443, 17.021  L 166.393, 17.435  L 167.018, 13.484  L 166.393, 17.435  L 169.344, 17.956  L 170.111, 14.030  L 169.344, 17.956  L 172.295, 18.588  L 173.206, 14.694  L 172.295, 18.588  L 175.246, 19.338  L 176.304, 15.480  L 175.246, 19.338  L 178.197, 20.209  L 179.403, 16.395  L 178.197, 20.209  L 181.148, 21.205  L 182.501, 17.442  L 181.148, 21.205  L 184.098, 22.333  L 185.599, 18.625  L 184.098, 22.333  L 187.049, 23.596  L 188.696, 19.951  L 187.049, 23.596  L 190.000, 25.000  L 191.789, 21.422  L 190.000, 25.000 "/>
    </g>
</svg>
