<?xml version="1.0" encoding="utf-8" ?>
<svg xmlns="http://www.w3.org/2000/svg" xmlns:ev="http://www.w3.org/2001/xml-events" xmlns:xlink="http://www.w3.org/1999/xlink" baseProfile="full" height="50mm" version="1.1" viewBox="0,0,200,50" width="200mm">
    <defs>
        <style type="text/css"><![CDATA[
.stitch_line {
    stroke-width: 0.3;
    stroke-linejoin: round;
    stroke-linecap: round;
    fill: none;
}
.path_center_line {
    fill: none;
    stroke:#808080;
    stroke-width: 0.2;
    stroke-linejoin: round;
    stroke-linecap: round;
}
.path_contour {
    fill: #808080;
    fill-opacity: 0.3;
    stroke: #808080;
    stroke-opacity: 1;
    stroke-width: 0.3;
}
.text{
    text-anchor: middle;
    dominant-baseline: middle;
    font-family: sans-serif;
    font-size: 1.5mm;
}
.smalltext{
    text-anchor: middle;
    dominant-baseline: middle;
    font-family: sans-serif;
    font-size: 1mm;
}
.color_0 {
    stroke:#3bb2d0;
}
.dot_0 {
    marker-start:url(#dot_0);
    marker-mid:url(#dot_0);
    marker-end:url(#dot_0);
}
]]></style>
        <marker id="dot_0" markerHeight="3.0" markerWidth="3.0" refX="1.5" refY="1.5">
            <circle cx="1.5" cy="1.5" fill="#3bb2d0" r="1.5"/>
        </marker>
    </defs>
    <g>
        <path class="stitch_line color_0 dot_0" d="M 8.882, 27.236  L 11.118, 22.764  L 13.763, 24.027  L 10.049, 25.583  L 8.882, 27.236  L 11.692, 28.578  L 13.763, 24.027  L 16.452, 25.191  L 12.797, 26.883  L 11.692, 28.578  L 14.551, 29.816  L 16.452, 25.191  L 19.181, 26.254  L 15.593, 28.081  L 14.551, 29.816  L 17.455, 30.947  L 19.181, 26.254  L 21.947, 27.212  L 18.431, 29.174  L 17.455, 30.947  L 20.401, 31.967  L 21.947, 27.212  L 24.748, 28.065  L 21.309, 30.159  L 20.401, 31.967  L 23.383, 32.875  L 24.748, 28.065  L 27.580, 28.811  L 24.222, 31.033  L 23.383, 32.875  L 26.397, 33.669  L 27.580, 28.811  L 30.439, 29.452  L 27.165, 31.798  L 26.397, 33.669  L 29.437, 34.350  L 30.439, 29.452  L 33.321, 29.986  L 30.136, 32.451  L 29.437, 34.350  L 32.498, 34.918  L 33.321, 29.986  L 36.223, 30.417  L 33.127, 32.995  L 32.498, 34.918  L 35.576, 35.375  L 36.223, 30.417  L 39.141, 30.747  L 36.136, 33.431  L 35.576, 35.375  L 38.665, 35.724  L 39.141, 30.747  L 42.072, 30.978  L 39.158, 33.761  L 38.665, 35.724  L 41.761, 35.968  L 42.072, 30.978  L 45.012, 31.114  L 42.188, 33.990  L 41.761, 35.968  L 44.859, 36.112  L 45.012, 31.114  L 47.960, 31.160  L 45.224, 34.122  L 44.859, 36.112  L 47.956, 36.160  L 47.960, 31.160  L 50.911, 31.120  L 48.261, 34.160  L 47.956, 36.160  L 51.049, 36.118  L 50.911, 31.120  L 53.865, 30.999  L 51.297, 34.110  L 51.049, 36.118  L 54.135, 35.992  L 53.865, 30.999  L 56.820, 30.803  L 54.330, 33.978  L 54.135, 35.992  L 57.213, 35.787  L 56.820, 30.803  L 59.773, 30.535  L 57.358, 33.769  L 57.213, 35.787  L 60.280, 35.509  L 59.773, 30.535  L 62.724, 30.202  L 60.379, 33.488  L 60.280, 35.509  L 63.337, 35.164  L 62.724, 30.202  L 65.672, 29.808  L 63.393, 33.142  L 63.337, 35.164  L 66.381, 34.758  L 65.672, 29.808  L 68.617, 29.360  L 66.397, 32.735  L 66.381, 34.758  L 69.412, 34.296  L 68.617, 29.360  L 71.558, 28.862  L 69.393, 32.273  L 69.412, 34.296  L 72.432, 33.785  L 71.558, 28.862  L 74.496, 28.319  L 72.381, 31.763  L 72.432, 33.785  L 75.439, 33.229  L 74.496, 28.319  L 77.430, 27.736  L 75.359, 31.208  L 75.439, 33.229  L 78.434, 32.634  L 77.430, 27.736  L 80.362, 27.119  L 78.329, 30.614  L 78.434, 32.634  L 81.418, 32.006  L 80.362, 27.119  L 83.291, 26.471  L 81.292, 29.987  L 81.418, 32.006  L 84.392, 31.348  L 83.291, 26.471  L 86.218, 25.798  L 84.247, 29.330  L 84.392, 31.348  L 87.357, 30.666  L 86.218, 25.798  L 89.145, 25.104  L 87.196, 28.650  L 87.357, 30.666  L 90.312, 29.965  L 89.145, 25.104  L 92.071, 24.393  L 90.139, 27.950  L 90.312, 29.965  L 93.261, 29.250  L 92.071, 24.393  L 94.998, 23.671  L 93.079, 27.235  L 93.261, 29.250  L 96.203, 28.524  L 94.998, 23.671  L 97.928, 22.941  L 96.015, 26.510  L 96.203, 28.524  L 99.140, 27.792  L 97.928, 22.941  L 100.860, 22.208  L 98.948, 25.778  L 99.140, 27.792  L 102.072, 27.059  L 100.860, 22.208  L 103.797, 21.476  L 101.881, 25.045  L 102.072, 27.059  L 105.002, 26.329  L 103.797, 21.476  L 106.739, 20.750  L 104.813, 24.315  L 105.002, 26.329  L 107.929, 25.607  L 106.739, 20.750  L 109.688, 20.035  L 107.747, 23.592  L 107.929, 25.607  L 110.855, 24.896  L 109.688, 20.035  L 112.643, 19.334  L 110.682, 22.881  L 110.855, 24.896  L 113.782, 24.202  L 112.643, 19.334  L 115.608, 18.652  L 113.621, 22.186  L 113.782, 24.202  L 116.709, 23.529  L 115.608, 18.652  L 118.582, 17.994  L 116.563, 21.512  L 116.709, 23.529  L 119.638, 22.881  L 118.582, 17.994  L 121.566, 17.366  L 119.511, 20.863  L 119.638, 22.881  L 122.570, 22.264  L 121.566, 17.366  L 124.561, 16.771  L 122.464, 20.244  L 122.570, 22.264  L 125.504, 21.681  L 124.561, 16.771  L 127.568, 16.215  L 125.423, 19.660  L 125.504, 21.681  L 128.442, 21.138  L 127.568, 16.215  L 130.588, 15.704  L 128.389, 19.117  L 128.442, 21.138  L 131.383, 20.640  L 130.588, 15.704  L 133.619, 15.242  L 131.362, 18.618  L 131.383, 20.640  L 134.328, 20.192  L 133.619, 15.242  L 136.663, 14.836  L 134.343, 18.169  L 134.328, 20.192  L 137.276, 19.798  L 136.663, 14.836  L 139.720, 14.491  L 137.330, 17.777  L 137.276, 19.798  L 140.227, 19.465  L 139.720, 14.491  L 142.787, 14.213  L 140.324, 17.445  L 140.227, 19.465  L 143.180, 19.197  L 142.787, 14.213  L 145.865, 14.008  L 143.323, 17.180  L 143.180, 19.197  L 146.135, 19.001  L 145.865, 14.008  L 148.951, 13.882  L 146.327, 16.988  L 146.135, 19.001  L 149.089, 18.880  L 148.951, 13.882  L 152.044, 13.840  L 149.334, 16.873  L 149.089, 18.880  L 152.040, 18.840  L 152.044, 13.840  L 155.141, 13.888  L 152.343, 16.840  L 152.040, 18.840  L 154.988, 18.886  L 155.141, 13.888  L 158.239, 14.032  L 155.350, 16.896  L 154.988, 18.886  L 157.928, 19.022  L 158.239, 14.032  L 161.335, 14.276  L 158.353, 17.045  L 157.928, 19.022  L 160.859, 19.253  L 161.335, 14.276  L 164.424, 14.625  L 161.349, 17.292  L 160.859, 19.253  L 163.777, 19.583  L 164.424, 14.625  L 167.502, 15.082  L 164.334, 17.639  L 163.777, 19.583  L 166.679, 20.014  L 167.502, 15.082  L 170.563, 15.650  L 167.304, 18.091  L 166.679, 20.014  L 169.561, 20.548  L 170.563, 15.650  L 173.603, 16.331  L 170.256, 18.650  L 169.561, 20.548  L 172.420, 21.189  L 173.603, 16.331  L 176.617, 17.125  L 173.185, 19.317  L 172.420, 21.189  L 175.252, 21.935  L 176.617, 17.125  L 179.599, 18.033  L 176.087, 20.094  L 175.252, 21.935  L 178.053, 22.788  L 179.599, 18.033  L 182.545, 19.053  L 178.957, 20.979  L 178.053, 22.788  L 180.819, 23.746  L 182.545, 19.053  L 185.449, 20.184  L 181.791, 21.973  L 180.819, 23.746  L 183.548, 24.809  L 185.449, 20.184  L 188.308, 21.422  L 184.586, 23.074  L 183.548, 24.809  L 186.237, 25.973  L 188.308, 21.422  L 191.118, 22.764  L 187.338, 24.278  L 186.237, 25.973  L 188.882, 27.236  L 191.118, 22.764  L 189.776, 25.447  L 188.437, 24.792  L 185.703, 23.547  L 182.925, 22.405  L 180.106, 21.368  L 177.250, 20.438  L 174.360, 19.617  L 171.442, 18.906  L 168.499, 18.304  L 165.535, 17.809  L 162.555, 17.420  L 159.563, 17.133  L 156.563, 16.945  L 153.557, 16.852  L 150.549, 16.849  L 147.541, 16.932  L 144.536, 17.094  L 141.534, 17.330  L 138.538, 17.635  L 135.548, 18.004  L 132.565, 18.430  L 129.589, 18.909  L 126.620, 19.436  L 123.658, 20.004  L 120.702, 20.609  L 117.753, 21.247  L 114.808, 21.911  L 111.868, 22.598  L 108.931, 23.304  L 105.997, 24.022  L 103.065, 24.750  L 100.132, 25.482  L 97.199, 26.215  L 94.264, 26.943  L 91.327, 27.663  L 88.385, 28.369  L 85.438, 29.058  L 82.486, 29.725  L 79.526, 30.365  L 76.559, 30.972  L 73.584, 31.544  L 70.601, 32.073  L 67.608, 32.555  L 64.607, 32.984  L 61.597, 33.356  L 58.579, 33.664  L 55.554, 33.903  L 52.523, 34.067  L 49.487, 34.150  L 46.450, 34.148  L 43.414, 34.055  L 40.381, 33.866  L 37.355, 33.577  L 34.340, 33.184  L 31.341, 32.684  L 28.362, 32.075  L 25.407, 31.355  L 22.481, 30.525  L 19.588, 29.585  L 16.734, 28.535  L 13.921, 27.379  L 11.153, 26.120  L 9.776, 25.447  L 11.153, 26.120  L 13.921, 27.379  L 16.734, 28.535  L 19.588, 29.585  L 22.481, 30.525  L 25.407, 31.355  L 28.362, 32.075  L 31.341, 32.684  L 34.340, 33.184  L 37.355, 33.577  L 40.381, 33.866  L 43.414, 34.055  L 46.450, 34.148  L 49.487, 34.150  L 52.523, 34.067  L 55.554, 33.903  L 58.579, 33.664  L 61.597, 33.356  L 64.607, 32.984  L 67.608, 32.555  L 70.601, 32.073  L 73.584, 31.544  L 76.559, 30.972  L 79.526, 30.365  L 82.486, 29.725  L 85.438, 29.058  L 88.385, 28.369  L 91.327, 27.663  L 94.264, 26.943  L 97.199, 26.215  L 100.132, 25.482  L 103.065, 24.750  L 105.997, 24.022  L 108.931, 23.304  L 111.868, 22.598  L 114.808, 21.911  L 117.753, 21.247  L 120.702, 20.609  L 123.658, 20.004  L 126.620, 19.436  L 129.589, 18.909  L 132.565, 18.430  L 135.548, 18.004  L 138.538, 17.635  L 141.534, 17.330  L 144.536, 17.094  L 147.541, 16.932  L 150.549, 16.849  L 153.557, 16.852  L 156.563, 16.945  L 159.563, 17.133  L 162.555, 17.420  L 165.535, 17.809  L 168.499, 18.304  L 171.442, 18.906  L 174.360, 19.617  L 177.250, 20.438  L 180.106, 21.368  L 182.925, 22.405  L 185.703, 23.547  L 188.437, 24.792  L 189.776, 25.447 "/>
    </g>
</svg>
