<?xml version="1.0" encoding="utf-8" ?>
<svg xmlns="http://www.w3.org/2000/svg" xmlns:ev="http://www.w3.org/2001/xml-events" xmlns:xlink="http://www.w3.org/1999/xlink" baseProfile="full" height="50mm" version="1.1" viewBox="0,0,200,50" width="200mm">
    <defs>
        <style type="text/css"><![CDATA[
.stitch_line {
    stroke-width: 0.3;
    stroke-linejoin: round;
    stroke-linecap: round;
    fill: none;
}
.path_center_line {
    stroke-width: 0.2;
    stroke-linejoin: round;
    stroke-linecap: round;
    fill: none;
    stroke:#333;
}
.path_contour {
    stroke: #ddd;
    fill-opacity: 1;
    fill: #eee;
    stroke-width: 0.3;
}
.text{
    text-anchor: middle;
    dominant-baseline: middle;
    font-family: sans-serif;
    font-size: 1.5mm;
}
.smalltext{
    text-anchor: middle;
    dominant-baseline: middle;
    font-family: sans-serif;
    font-size: 1mm;
}
.color_0 {
    stroke:#148983;
}
.dot_0 {
    marker-start:url(#dot_0);
    marker-mid:url(#dot_0);
    marker-end:url(#dot_0);
}
]]></style>
        <marker id="dot_0" markerHeight="3.0" markerWidth="3.0" refX="1.5" refY="1.5">
            <circle cx="1.5" cy="1.5" fill="#148983" r="1.5"/>
        </marker>
    </defs>
    <g>
        <path class="stitch_line color_0 dot_0" d="M 9.955, 24.978  L 11.543, 21.858  L 10.000, 25.000  L 11.588, 21.881  L 10.045, 25.022  L 12.905, 26.383  L 11.487, 29.583  L 12.951, 26.404  L 11.533, 29.604  L 12.996, 26.424  L 15.855, 27.648  L 17.192, 24.413  L 15.902, 27.667  L 17.238, 24.432  L 15.948, 27.686  L 18.805, 28.778  L 17.644, 32.080  L 18.852, 28.795  L 17.691, 32.096  L 18.900, 28.812  L 21.756, 29.776  L 22.835, 26.447  L 21.803, 29.791  L 22.882, 26.462  L 21.851, 29.806  L 24.706, 30.649  L 23.804, 34.031  L 24.754, 30.662  L 23.853, 34.044  L 24.802, 30.675  L 27.656, 31.400  L 28.478, 27.998  L 27.705, 31.412  L 28.527, 28.009  L 27.754, 31.423  L 30.607, 32.035  L 29.961, 35.475  L 30.656, 32.044  L 30.010, 35.484  L 30.705, 32.054  L 33.557, 32.558  L 34.129, 29.104  L 33.607, 32.565  L 34.178, 29.112  L 33.656, 32.573  L 36.508, 32.973  L 36.106, 36.450  L 36.557, 32.979  L 36.156, 36.456  L 36.607, 32.985  L 39.458, 33.287  L 39.793, 29.803  L 39.508, 33.291  L 39.843, 29.807  L 39.558, 33.295  L 42.409, 33.502  L 42.236, 36.998  L 42.459, 33.505  L 42.286, 37.001  L 42.509, 33.508  L 45.360, 33.625  L 45.476, 30.127  L 45.410, 33.626  L 45.526, 30.128  L 45.460, 33.628  L 48.311, 33.660  L 48.346, 37.160  L 48.361, 33.660  L 48.396, 37.160  L 48.411, 33.660  L 51.261, 33.611  L 51.180, 30.112  L 51.311, 33.610  L 51.230, 30.111  L 51.361, 33.608  L 54.212, 33.484  L 54.434, 36.977  L 54.262, 33.481  L 54.484, 36.974  L 54.312, 33.479  L 57.163, 33.283  L 56.907, 29.792  L 57.213, 33.279  L 56.957, 29.788  L 57.263, 33.275  L 60.114, 33.013  L 60.498, 36.492  L 60.164, 33.008  L 60.548, 36.487  L 60.214, 33.003  L 63.065, 32.679  L 62.659, 29.202  L 63.115, 32.672  L 62.709, 29.196  L 63.164, 32.666  L 66.016, 32.285  L 66.538, 35.746  L 66.066, 32.278  L 66.587, 35.739  L 66.115, 32.270  L 68.967, 31.836  L 68.435, 28.376  L 69.016, 31.828  L 68.484, 28.368  L 69.066, 31.820  L 71.918, 31.337  L 72.553, 34.779  L 71.967, 31.328  L 72.603, 34.770  L 72.016, 31.320  L 74.869, 30.793  L 74.234, 27.351  L 74.918, 30.783  L 74.283, 27.341  L 74.967, 30.774  L 77.820, 30.208  L 78.546, 33.632  L 77.869, 30.198  L 78.595, 33.622  L 77.918, 30.188  L 80.771, 29.588  L 80.056, 26.161  L 80.820, 29.577  L 80.105, 26.151  L 80.869, 29.567  L 83.722, 28.936  L 84.516, 32.345  L 83.770, 28.925  L 84.565, 32.334  L 83.819, 28.914  L 86.673, 28.259  L 85.901, 24.845  L 86.721, 28.247  L 85.949, 24.834  L 86.770, 28.236  L 89.624, 27.560  L 90.465, 30.957  L 89.672, 27.548  L 90.514, 30.945  L 89.721, 27.536  L 92.574, 26.844  L 91.766, 23.438  L 92.623, 26.832  L 91.814, 23.426  L 92.672, 26.820  L 95.525, 26.116  L 96.393, 29.507  L 95.574, 26.104  L 96.441, 29.495  L 95.622, 26.092  L 98.476, 25.381  L 97.652, 21.979  L 98.525, 25.369  L 97.701, 21.967  L 98.573, 25.357  L 101.427, 24.643  L 102.299, 28.033  L 101.475, 24.631  L 102.348, 28.021  L 101.524, 24.619  L 104.378, 23.908  L 103.559, 20.505  L 104.426, 23.896  L 103.607, 20.493  L 104.475, 23.884  L 107.328, 23.180  L 108.186, 26.574  L 107.377, 23.168  L 108.234, 26.562  L 107.426, 23.156  L 110.279, 22.464  L 109.486, 19.055  L 110.328, 22.452  L 109.535, 19.043  L 110.376, 22.440  L 113.230, 21.764  L 114.051, 25.166  L 113.279, 21.753  L 114.099, 25.155  L 113.327, 21.741  L 116.181, 21.086  L 115.435, 17.666  L 116.230, 21.075  L 115.484, 17.655  L 116.278, 21.064  L 119.131, 20.433  L 119.895, 23.849  L 119.180, 20.423  L 119.944, 23.839  L 119.229, 20.412  L 122.082, 19.812  L 121.405, 16.378  L 122.131, 19.802  L 121.454, 16.368  L 122.180, 19.792  L 125.033, 19.226  L 125.717, 22.659  L 125.082, 19.217  L 125.766, 22.649  L 125.131, 19.207  L 127.984, 18.680  L 127.397, 15.230  L 128.033, 18.672  L 127.447, 15.221  L 128.082, 18.663  L 130.934, 18.180  L 131.516, 21.632  L 130.984, 18.172  L 131.565, 21.624  L 131.033, 18.164  L 133.885, 17.730  L 133.413, 14.261  L 133.934, 17.722  L 133.462, 14.254  L 133.984, 17.715  L 136.836, 17.334  L 137.291, 20.804  L 136.885, 17.328  L 137.341, 20.798  L 136.935, 17.321  L 139.786, 16.997  L 139.452, 13.513  L 139.836, 16.992  L 139.502, 13.508  L 139.886, 16.987  L 142.737, 16.725  L 143.043, 20.212  L 142.787, 16.721  L 143.093, 20.208  L 142.837, 16.717  L 145.688, 16.521  L 145.516, 13.026  L 145.738, 16.519  L 145.566, 13.023  L 145.788, 16.516  L 148.639, 16.392  L 148.770, 19.889  L 148.689, 16.390  L 148.820, 19.888  L 148.739, 16.389  L 151.589, 16.340  L 151.604, 12.840  L 151.639, 16.340  L 151.654, 12.840  L 151.689, 16.340  L 154.540, 16.372  L 154.474, 19.872  L 154.590, 16.374  L 154.524, 19.873  L 154.640, 16.375  L 157.491, 16.492  L 157.714, 12.999  L 157.541, 16.495  L 157.764, 13.002  L 157.591, 16.498  L 160.442, 16.705  L 160.157, 20.193  L 160.492, 16.709  L 160.207, 20.197  L 160.542, 16.713  L 163.393, 17.015  L 163.844, 13.544  L 163.443, 17.021  L 163.894, 13.550  L 163.492, 17.027  L 166.344, 17.427  L 165.822, 20.888  L 166.393, 17.435  L 165.871, 20.896  L 166.443, 17.442  L 169.295, 17.946  L 169.990, 14.516  L 169.344, 17.956  L 170.039, 14.525  L 169.393, 17.965  L 172.246, 18.577  L 171.473, 21.991  L 172.295, 18.588  L 171.522, 22.002  L 172.344, 18.600  L 175.198, 19.325  L 176.147, 15.956  L 175.246, 19.338  L 176.196, 15.969  L 175.294, 19.351  L 178.149, 20.194  L 177.118, 23.538  L 178.197, 20.209  L 177.165, 23.553  L 178.244, 20.224  L 181.100, 21.188  L 182.309, 17.904  L 181.148, 21.205  L 182.356, 17.920  L 181.195, 21.222  L 184.052, 22.314  L 182.762, 25.568  L 184.098, 22.333  L 182.808, 25.587  L 184.145, 22.352  L 187.004, 23.576  L 188.467, 20.396  L 187.049, 23.596  L 188.513, 20.417  L 187.095, 23.617  L 189.955, 24.978  L 188.412, 28.119  L 190.000, 25.000  L 188.457, 28.142  L 190.045, 25.022 "/>
    </g>
</svg>
