<?xml version="1.0" encoding="utf-8" ?>
<svg xmlns="http://www.w3.org/2000/svg" xmlns:ev="http://www.w3.org/2001/xml-events" xmlns:xlink="http://www.w3.org/1999/xlink" baseProfile="full" height="50mm" version="1.1" viewBox="0,0,200,50" width="200mm">
    <defs>
        <style type="text/css"><![CDATA[
.stitch_line {
    stroke-width: 0.3;
    stroke-linejoin: round;
    stroke-linecap: round;
    fill: none;
}
.path_center_line {
    fill: none;
    stroke:#808080;
    stroke-width: 0.2;
    stroke-linejoin: round;
    stroke-linecap: round;
}
.path_contour {
    fill: #808080;
    fill-opacity: 0.3;
    stroke: #808080;
    stroke-opacity: 1;
    stroke-width: 0.3;
}
.text{
    text-anchor: middle;
    dominant-baseline: middle;
    font-family: sans-serif;
    font-size: 1.5mm;
}
.smalltext{
    text-anchor: middle;
    dominant-baseline: middle;
    font-family: sans-serif;
    font-size: 1mm;
}
.color_0 {
    stroke:#3bb2d0;
}
.dot_0 {
    marker-start:url(#dot_0);
    marker-mid:url(#dot_0);
    marker-end:url(#dot_0);
}
]]></style>
        <marker id="dot_0" markerHeight="3.0" markerWidth="3.0" refX="1.5" refY="1.5">
            <circle cx="1.5" cy="1.5" fill="#3bb2d0" r="1.5"/>
        </marker>
    </defs>
    <g>
        <path class="stitch_line color_0 dot_0" d="M 11.118, 22.764  L 9.754, 22.138  L 12.446, 23.462  L 9.772, 22.102  L 12.464, 23.426  L 9.790, 22.066  L 12.482, 23.390  L 11.118, 22.764  L 11.692, 28.578  L 10.347, 27.911  L 13.069, 29.172  L 10.331, 27.947  L 13.053, 29.208  L 10.314, 27.984  L 13.036, 29.245  L 11.692, 28.578  L 16.452, 25.191  L 15.046, 24.667  L 17.828, 25.789  L 15.061, 24.630  L 17.843, 25.752  L 15.076, 24.593  L 17.858, 25.715  L 16.452, 25.191  L 17.455, 30.947  L 16.064, 30.382  L 18.873, 31.436  L 16.051, 30.419  L 18.859, 31.474  L 16.037, 30.457  L 18.846, 31.511  L 17.455, 30.947  L 21.947, 27.212  L 20.505, 26.796  L 23.364, 27.705  L 20.518, 26.758  L 23.377, 27.667  L 20.530, 26.720  L 23.389, 27.629  L 21.947, 27.212  L 23.383, 32.875  L 21.953, 32.417  L 24.834, 33.256  L 21.942, 32.456  L 24.823, 33.294  L 21.932, 32.494  L 24.812, 33.333  L 23.383, 32.875  L 27.580, 28.811  L 26.111, 28.505  L 29.030, 29.196  L 26.120, 28.466  L 29.040, 29.157  L 26.130, 28.427  L 29.049, 29.118  L 27.580, 28.811  L 29.437, 34.350  L 27.977, 34.001  L 30.912, 34.621  L 27.969, 34.040  L 30.904, 34.661  L 27.961, 34.079  L 30.896, 34.700  L 29.437, 34.350  L 33.321, 29.986  L 31.833, 29.789  L 34.795, 30.263  L 31.840, 29.749  L 34.802, 30.223  L 31.846, 29.710  L 34.809, 30.184  L 33.321, 29.986  L 35.576, 35.375  L 34.095, 35.131  L 37.067, 35.539  L 34.090, 35.171  L 37.062, 35.579  L 34.085, 35.211  L 37.057, 35.619  L 35.576, 35.375  L 39.141, 30.747  L 37.643, 30.654  L 40.631, 30.919  L 37.647, 30.614  L 40.635, 30.879  L 37.651, 30.574  L 40.639, 30.840  L 39.141, 30.747  L 41.761, 35.968  L 40.267, 35.825  L 43.259, 36.031  L 40.264, 35.865  L 43.257, 36.071  L 40.262, 35.905  L 43.255, 36.111  L 41.761, 35.968  L 45.012, 31.114  L 43.512, 31.118  L 46.511, 31.190  L 43.513, 31.078  L 46.512, 31.150  L 43.514, 31.038  L 46.513, 31.110  L 45.012, 31.114  L 47.956, 36.160  L 46.456, 36.109  L 49.456, 36.131  L 46.456, 36.149  L 49.456, 36.171  L 46.456, 36.189  L 49.456, 36.211  L 47.956, 36.160  L 50.911, 31.120  L 49.413, 31.212  L 52.412, 31.109  L 49.412, 31.172  L 52.411, 31.069  L 49.411, 31.132  L 52.410, 31.029  L 50.911, 31.120  L 54.135, 35.992  L 52.635, 36.023  L 55.632, 35.881  L 52.637, 36.063  L 55.634, 35.921  L 52.639, 36.103  L 55.636, 35.961  L 54.135, 35.992  L 56.820, 30.803  L 55.328, 30.970  L 58.317, 30.714  L 55.325, 30.931  L 58.314, 30.675  L 55.322, 30.891  L 58.311, 30.635  L 56.820, 30.803  L 60.280, 35.509  L 58.783, 35.612  L 61.770, 35.327  L 58.787, 35.651  L 61.774, 35.367  L 58.791, 35.691  L 61.778, 35.407  L 60.280, 35.509  L 62.724, 30.202  L 61.241, 30.435  L 64.216, 30.048  L 61.237, 30.395  L 64.211, 30.008  L 61.232, 30.356  L 64.207, 29.968  L 62.724, 30.202  L 66.381, 34.758  L 64.889, 34.921  L 67.861, 34.516  L 64.894, 34.961  L 67.867, 34.555  L 64.900, 35.000  L 67.873, 34.595  L 66.381, 34.758  L 68.617, 29.360  L 67.144, 29.648  L 70.103, 29.151  L 67.138, 29.608  L 70.096, 29.112  L 67.131, 29.569  L 70.090, 29.072  L 68.617, 29.360  L 72.432, 33.785  L 70.946, 33.998  L 73.903, 33.493  L 70.953, 34.037  L 73.910, 33.533  L 70.960, 34.076  L 73.917, 33.572  L 72.432, 33.785  L 74.496, 28.319  L 73.032, 28.651  L 75.975, 28.066  L 73.025, 28.611  L 75.967, 28.026  L 73.017, 28.572  L 75.960, 27.987  L 74.496, 28.319  L 78.434, 32.634  L 76.955, 32.886  L 79.898, 32.304  L 76.963, 32.926  L 79.906, 32.343  L 76.971, 32.965  L 79.914, 32.382  L 78.434, 32.634  L 80.362, 27.119  L 78.906, 27.484  L 81.834, 26.831  L 78.898, 27.445  L 81.826, 26.792  L 78.889, 27.406  L 81.817, 26.753  L 80.362, 27.119  L 84.392, 31.348  L 82.918, 31.630  L 85.849, 30.988  L 82.927, 31.669  L 85.858, 31.027  L 82.936, 31.708  L 85.866, 31.066  L 84.392, 31.348  L 86.218, 25.798  L 84.769, 26.188  L 87.686, 25.485  L 84.760, 26.149  L 87.676, 25.446  L 84.751, 26.110  L 87.667, 25.407  L 86.218, 25.798  L 90.312, 29.965  L 88.842, 30.267  L 91.764, 29.586  L 88.852, 30.306  L 91.773, 29.625  L 88.861, 30.345  L 91.783, 29.664  L 90.312, 29.965  L 92.071, 24.393  L 90.626, 24.799  L 93.535, 24.065  L 90.616, 24.760  L 93.525, 24.026  L 90.607, 24.721  L 93.516, 23.988  L 92.071, 24.393  L 96.203, 28.524  L 94.735, 28.836  L 97.651, 28.133  L 94.745, 28.875  L 97.661, 28.172  L 94.754, 28.914  L 97.671, 28.211  L 96.203, 28.524  L 97.928, 22.941  L 96.485, 23.353  L 99.390, 22.607  L 96.475, 23.314  L 99.381, 22.568  L 96.465, 23.275  L 99.371, 22.529  L 97.928, 22.941  L 102.072, 27.059  L 100.605, 27.374  L 103.520, 26.666  L 100.614, 27.413  L 103.530, 26.705  L 100.624, 27.452  L 103.540, 26.744  L 102.072, 27.059  L 103.797, 21.476  L 102.353, 21.886  L 105.260, 21.144  L 102.344, 21.847  L 105.251, 21.105  L 102.334, 21.809  L 105.241, 21.067  L 103.797, 21.476  L 107.929, 25.607  L 106.460, 25.915  L 109.379, 25.221  L 106.470, 25.954  L 109.388, 25.260  L 106.479, 25.993  L 109.398, 25.298  L 107.929, 25.607  L 109.688, 20.035  L 108.241, 20.434  L 111.153, 19.714  L 108.231, 20.395  L 111.144, 19.675  L 108.222, 20.356  L 111.134, 19.636  L 109.688, 20.035  L 113.782, 24.202  L 112.310, 24.495  L 115.236, 23.832  L 112.319, 24.534  L 115.245, 23.871  L 112.328, 24.573  L 115.254, 23.909  L 113.782, 24.202  L 115.608, 18.652  L 114.156, 19.031  L 117.078, 18.351  L 114.147, 18.992  L 117.069, 18.312  L 114.138, 18.953  L 117.060, 18.273  L 115.608, 18.652  L 119.638, 22.881  L 118.162, 23.150  L 121.098, 22.535  L 118.170, 23.189  L 121.106, 22.574  L 118.178, 23.228  L 121.115, 22.613  L 119.638, 22.881  L 121.566, 17.366  L 120.107, 17.716  L 123.041, 17.094  L 120.098, 17.677  L 123.033, 17.055  L 120.090, 17.637  L 123.025, 17.016  L 121.566, 17.366  L 125.504, 21.681  L 124.021, 21.915  L 126.971, 21.369  L 124.029, 21.954  L 126.979, 21.408  L 124.037, 21.993  L 126.986, 21.447  L 125.504, 21.681  L 127.568, 16.215  L 126.100, 16.526  L 129.051, 15.983  L 126.093, 16.487  L 129.044, 15.943  L 126.086, 16.448  L 129.037, 15.904  L 127.568, 16.215  L 131.383, 20.640  L 129.894, 20.829  L 132.859, 20.372  L 129.900, 20.869  L 132.865, 20.411  L 129.907, 20.908  L 132.872, 20.451  L 131.383, 20.640  L 133.619, 15.242  L 132.142, 15.504  L 135.108, 15.059  L 132.136, 15.465  L 135.103, 15.020  L 132.130, 15.425  L 135.097, 14.980  L 133.619, 15.242  L 137.276, 19.798  L 135.781, 19.932  L 138.761, 19.585  L 135.786, 19.972  L 138.766, 19.624  L 135.791, 20.012  L 138.771, 19.664  L 137.276, 19.798  L 139.720, 14.491  L 138.232, 14.693  L 141.215, 14.369  L 138.228, 14.653  L 141.211, 14.329  L 138.224, 14.613  L 141.207, 14.289  L 139.720, 14.491  L 143.180, 19.197  L 141.681, 19.266  L 144.673, 19.050  L 141.684, 19.306  L 144.677, 19.089  L 141.687, 19.345  L 144.680, 19.129  L 143.180, 19.197  L 145.865, 14.008  L 144.370, 14.139  L 147.364, 13.957  L 144.367, 14.099  L 147.362, 13.917  L 144.365, 14.059  L 147.360, 13.877  L 145.865, 14.008  L 149.089, 18.880  L 147.588, 18.871  L 150.587, 18.808  L 147.589, 18.911  L 150.588, 18.848  L 147.590, 18.951  L 150.589, 18.888  L 149.089, 18.880  L 152.044, 13.840  L 150.544, 13.889  L 153.544, 13.871  L 150.544, 13.849  L 153.544, 13.831  L 150.544, 13.809  L 153.544, 13.791  L 152.044, 13.840  L 154.988, 18.886  L 153.490, 18.790  L 156.488, 18.902  L 153.489, 18.830  L 156.487, 18.942  L 153.487, 18.870  L 156.485, 18.982  L 154.988, 18.886  L 158.239, 14.032  L 156.739, 13.989  L 159.735, 14.155  L 156.742, 13.949  L 159.737, 14.115  L 156.744, 13.909  L 159.740, 14.076  L 158.239, 14.032  L 160.859, 19.253  L 159.371, 19.061  L 162.355, 19.366  L 159.367, 19.101  L 162.351, 19.406  L 159.363, 19.141  L 162.347, 19.446  L 160.859, 19.253  L 164.424, 14.625  L 162.930, 14.480  L 165.907, 14.849  L 162.935, 14.441  L 165.913, 14.809  L 162.940, 14.401  L 165.918, 14.769  L 164.424, 14.625  L 166.679, 20.014  L 165.208, 19.718  L 168.164, 20.231  L 165.201, 19.757  L 168.157, 20.270  L 165.195, 19.797  L 168.150, 20.310  L 166.679, 20.014  L 170.563, 15.650  L 169.084, 15.398  L 172.027, 15.980  L 169.092, 15.359  L 172.035, 15.941  L 169.100, 15.320  L 172.043, 15.901  L 170.563, 15.650  L 172.420, 21.189  L 170.975, 20.785  L 173.885, 21.514  L 170.965, 20.824  L 173.875, 21.553  L 170.956, 20.863  L 173.866, 21.592  L 172.420, 21.189  L 176.617, 17.125  L 175.161, 16.764  L 178.052, 17.564  L 175.172, 16.725  L 178.063, 17.525  L 175.183, 16.687  L 178.074, 17.487  L 176.617, 17.125  L 178.053, 22.788  L 176.642, 22.276  L 179.488, 23.223  L 176.629, 22.314  L 179.476, 23.261  L 176.617, 22.352  L 179.464, 23.299  L 178.053, 22.788  L 182.545, 19.053  L 181.120, 18.583  L 183.942, 19.599  L 181.134, 18.545  L 183.956, 19.562  L 181.148, 18.508  L 183.970, 19.524  L 182.545, 19.053  L 183.548, 24.809  L 182.180, 24.192  L 184.947, 25.351  L 182.165, 24.229  L 184.932, 25.388  L 182.149, 24.266  L 184.916, 25.425  L 183.548, 24.809  L 188.308, 21.422  L 186.922, 20.846  L 189.661, 22.071  L 186.939, 20.810  L 189.678, 22.035  L 186.955, 20.773  L 189.694, 21.998  L 188.308, 21.422  L 188.882, 27.236  L 187.563, 26.521  L 190.237, 27.880  L 187.545, 26.556  L 190.219, 27.916  L 187.527, 26.592  L 190.201, 27.952  L 188.882, 27.236 "/>
    </g>
</svg>
