<?xml version="1.0" encoding="utf-8" ?>
<svg xmlns="http://www.w3.org/2000/svg" xmlns:ev="http://www.w3.org/2001/xml-events" xmlns:xlink="http://www.w3.org/1999/xlink" baseProfile="full" height="50mm" version="1.1" viewBox="0,0,200,50" width="200mm">
    <defs>
        <style type="text/css"><![CDATA[
.stitch_line {
    stroke-width: 0.3;
    stroke-linejoin: round;
    stroke-linecap: round;
    fill: none;
}
.path_center_line {
    fill: none;
    stroke:#808080;
    stroke-width: 0.2;
    stroke-linejoin: round;
    stroke-linecap: round;
}
.path_contour {
    fill: #808080;
    fill-opacity: 0.3;
    stroke: #808080;
    stroke-opacity: 1;
    stroke-width: 0.3;
}
.text{
    text-anchor: middle;
    dominant-baseline: middle;
    font-family: sans-serif;
    font-size: 1.5mm;
}
.smalltext{
    text-anchor: middle;
    dominant-baseline: middle;
    font-family: sans-serif;
    font-size: 1mm;
}
.color_0 {
    stroke:#3bb2d0;
}
.dot_0 {
    marker-start:url(#dot_0);
    marker-mid:url(#dot_0);
    marker-end:url(#dot_0);
}
]]></style>
        <marker id="dot_0" markerHeight="3.0" markerWidth="3.0" refX="1.5" refY="1.5">
            <circle cx="1.5" cy="1.5" fill="#3bb2d0" r="1.5"/>
        </marker>
    </defs>
    <g>
        <path class="stitch_line color_0 dot_0" d="M 9.955, 24.978  L 11.543, 21.858  L 10.000, 25.000  L 11.588, 21.881  L 10.045, 25.022  L 12.682, 26.282  L 11.255, 29.478  L 12.728, 26.302  L 11.300, 29.498  L 12.773, 26.323  L 15.455, 27.485  L 16.809, 24.257  L 15.501, 27.504  L 16.855, 24.276  L 15.548, 27.523  L 18.271, 28.583  L 17.086, 31.876  L 18.318, 28.600  L 17.133, 31.894  L 18.365, 28.617  L 21.126, 29.574  L 22.233, 26.254  L 21.174, 29.590  L 22.281, 26.269  L 21.221, 29.605  L 24.017, 30.456  L 23.086, 33.830  L 24.065, 30.470  L 23.134, 33.844  L 24.114, 30.484  L 26.940, 31.229  L 27.792, 27.834  L 26.988, 31.240  L 27.841, 27.846  L 27.037, 31.252  L 29.889, 31.891  L 29.212, 35.325  L 29.938, 31.901  L 29.261, 35.335  L 29.987, 31.911  L 32.860, 32.444  L 33.461, 28.996  L 32.910, 32.452  L 33.510, 29.004  L 32.959, 32.460  L 35.850, 32.890  L 35.422, 36.363  L 35.899, 32.896  L 35.471, 36.370  L 35.949, 32.903  L 38.853, 33.230  L 39.211, 29.749  L 38.903, 33.235  L 39.261, 29.753  L 38.953, 33.240  L 41.866, 33.470  L 41.673, 36.964  L 41.916, 33.473  L 41.723, 36.968  L 41.966, 33.476  L 44.886, 33.611  L 45.018, 30.114  L 44.936, 33.613  L 45.068, 30.115  L 44.986, 33.615  L 47.908, 33.660  L 47.930, 37.160  L 47.958, 33.660  L 47.980, 37.160  L 48.008, 33.660  L 50.930, 33.621  L 50.859, 30.121  L 50.980, 33.619  L 50.909, 30.120  L 51.030, 33.618  L 53.950, 33.498  L 54.164, 36.992  L 54.000, 33.496  L 54.214, 36.989  L 54.050, 33.493  L 56.966, 33.299  L 56.716, 29.808  L 57.016, 33.295  L 56.766, 29.804  L 57.066, 33.291  L 59.977, 33.027  L 60.357, 36.506  L 60.027, 33.022  L 60.407, 36.501  L 60.076, 33.017  L 62.981, 32.689  L 62.577, 29.212  L 63.030, 32.683  L 62.626, 29.206  L 63.080, 32.677  L 65.977, 32.290  L 66.498, 35.751  L 66.026, 32.283  L 66.547, 35.744  L 66.076, 32.276  L 68.965, 31.836  L 68.433, 28.377  L 69.015, 31.828  L 68.483, 28.369  L 69.064, 31.820  L 71.946, 31.332  L 72.582, 34.774  L 71.995, 31.323  L 72.631, 34.765  L 72.044, 31.315  L 74.918, 30.783  L 74.283, 27.341  L 74.967, 30.774  L 74.332, 27.332  L 75.016, 30.765  L 77.883, 30.195  L 78.610, 33.619  L 77.932, 30.185  L 78.659, 33.609  L 77.981, 30.175  L 80.841, 29.573  L 80.126, 26.146  L 80.890, 29.562  L 80.175, 26.136  L 80.939, 29.552  L 83.793, 28.920  L 84.588, 32.329  L 83.841, 28.909  L 84.637, 32.318  L 83.890, 28.898  L 86.739, 28.243  L 85.966, 24.830  L 86.787, 28.232  L 86.015, 24.818  L 86.836, 28.221  L 89.680, 27.546  L 90.522, 30.943  L 89.728, 27.534  L 90.570, 30.932  L 89.777, 27.523  L 92.617, 26.833  L 91.809, 23.428  L 92.666, 26.821  L 91.857, 23.416  L 92.714, 26.809  L 95.552, 26.109  L 96.420, 29.500  L 95.601, 26.097  L 96.468, 29.488  L 95.649, 26.085  L 98.485, 25.379  L 97.661, 21.977  L 98.534, 25.366  L 97.710, 21.965  L 98.582, 25.354  L 101.418, 24.646  L 102.290, 28.035  L 101.466, 24.634  L 102.339, 28.023  L 101.515, 24.621  L 104.351, 23.915  L 103.532, 20.512  L 104.399, 23.903  L 103.580, 20.500  L 104.448, 23.891  L 107.286, 23.191  L 108.143, 26.584  L 107.334, 23.179  L 108.191, 26.572  L 107.383, 23.167  L 110.223, 22.477  L 109.430, 19.068  L 110.272, 22.466  L 109.478, 19.057  L 110.320, 22.454  L 113.164, 21.779  L 113.985, 25.182  L 113.213, 21.768  L 114.034, 25.170  L 113.261, 21.757  L 116.110, 21.102  L 115.363, 17.682  L 116.159, 21.091  L 115.412, 17.671  L 116.207, 21.080  L 119.061, 20.448  L 119.825, 23.864  L 119.110, 20.438  L 119.874, 23.854  L 119.159, 20.427  L 122.019, 19.825  L 121.341, 16.391  L 122.068, 19.815  L 121.390, 16.381  L 122.117, 19.805  L 124.984, 19.235  L 125.668, 22.668  L 125.033, 19.226  L 125.717, 22.659  L 125.082, 19.217  L 127.956, 18.685  L 127.369, 15.235  L 128.005, 18.677  L 127.418, 15.226  L 128.054, 18.668  L 130.936, 18.180  L 131.517, 21.631  L 130.985, 18.172  L 131.567, 21.623  L 131.035, 18.164  L 133.924, 17.724  L 133.453, 14.256  L 133.974, 17.717  L 133.502, 14.249  L 134.023, 17.710  L 136.920, 17.323  L 137.374, 20.794  L 136.970, 17.317  L 137.423, 20.788  L 137.019, 17.311  L 139.924, 16.983  L 139.593, 13.499  L 139.973, 16.978  L 139.643, 13.494  L 140.023, 16.973  L 142.934, 16.709  L 143.234, 20.196  L 142.984, 16.705  L 143.284, 20.192  L 143.034, 16.701  L 145.950, 16.507  L 145.786, 13.011  L 146.000, 16.504  L 145.836, 13.008  L 146.050, 16.502  L 148.970, 16.382  L 149.091, 19.880  L 149.020, 16.381  L 149.141, 19.879  L 149.070, 16.379  L 151.992, 16.340  L 152.020, 12.840  L 152.042, 16.340  L 152.070, 12.840  L 152.092, 16.340  L 155.014, 16.385  L 154.932, 19.885  L 155.064, 16.387  L 154.982, 19.886  L 155.114, 16.389  L 158.034, 16.524  L 158.277, 13.032  L 158.084, 16.527  L 158.327, 13.036  L 158.134, 16.530  L 161.047, 16.760  L 160.739, 20.247  L 161.097, 16.765  L 160.789, 20.251  L 161.147, 16.770  L 164.051, 17.097  L 164.529, 13.630  L 164.101, 17.104  L 164.578, 13.637  L 164.150, 17.110  L 167.041, 17.540  L 166.490, 20.996  L 167.090, 17.548  L 166.539, 21.004  L 167.140, 17.556  L 170.013, 18.089  L 170.739, 14.665  L 170.062, 18.099  L 170.788, 14.675  L 170.111, 18.109  L 172.963, 18.748  L 172.159, 22.154  L 173.012, 18.760  L 172.208, 22.166  L 173.060, 18.771  L 175.886, 19.516  L 176.866, 16.156  L 175.935, 19.530  L 176.914, 16.170  L 175.983, 19.544  L 178.779, 20.395  L 177.719, 23.731  L 178.826, 20.410  L 177.767, 23.746  L 178.874, 20.426  L 181.635, 21.383  L 182.867, 18.106  L 181.682, 21.400  L 182.914, 18.124  L 181.729, 21.417  L 184.452, 22.477  L 183.145, 25.724  L 184.499, 22.496  L 183.191, 25.743  L 184.545, 22.515  L 187.227, 23.677  L 188.700, 20.502  L 187.272, 23.698  L 188.745, 20.522  L 187.318, 23.718  L 189.955, 24.978  L 188.412, 28.119  L 190.000, 25.000  L 188.457, 28.142  L 190.045, 25.022 "/>
    </g>
</svg>
