<?xml version="1.0" encoding="utf-8" ?>
<svg xmlns="http://www.w3.org/2000/svg" xmlns:ev="http://www.w3.org/2001/xml-events" xmlns:xlink="http://www.w3.org/1999/xlink" baseProfile="full" height="50mm" version="1.1" viewBox="0,0,200,50" width="200mm">
    <defs>
        <style type="text/css"><![CDATA[
.stitch_line {
    stroke-width: 0.3;
    stroke-linejoin: round;
    stroke-linecap: round;
    fill: none;
}
.path_center_line {
    fill: none;
    stroke:#808080;
    stroke-width: 0.2;
    stroke-linejoin: round;
    stroke-linecap: round;
}
.path_contour {
    fill: #808080;
    fill-opacity: 0.3;
    stroke: #808080;
    stroke-opacity: 1;
    stroke-width: 0.3;
}
.text{
    text-anchor: middle;
    dominant-baseline: middle;
    font-family: sans-serif;
    font-size: 1.5mm;
}
.smalltext{
    text-anchor: middle;
    dominant-baseline: middle;
    font-family: sans-serif;
    font-size: 1mm;
}
.color_0 {
    stroke:#3bb2d0;
}
.dot_0 {
    marker-start:url(#dot_0);
    marker-mid:url(#dot_0);
    marker-end:url(#dot_0);
}
]]></style>
        <marker id="dot_0" markerHeight="3.0" markerWidth="3.0" refX="1.5" refY="1.5">
            <circle cx="1.5" cy="1.5" fill="#3bb2d0" r="1.5"/>
        </marker>
    </defs>
    <g>
        <path class="stitch_line color_0 dot_0" d="M 10.402, 24.083  L 11.766, 21.411  L 10.447, 24.106  L 11.811, 21.433  L 10.492, 24.128  L 12.268, 27.192  L 11.048, 29.933  L 12.313, 27.213  L 11.093, 29.953  L 12.359, 27.233  L 15.835, 26.560  L 16.999, 23.795  L 15.882, 26.579  L 17.045, 23.814  L 15.928, 26.598  L 17.926, 29.521  L 16.914, 32.346  L 17.973, 29.539  L 16.961, 32.363  L 18.020, 29.556  L 21.436, 28.623  L 22.388, 25.778  L 21.483, 28.639  L 22.435, 25.794  L 21.531, 28.654  L 23.744, 31.418  L 22.949, 34.311  L 23.792, 31.432  L 22.997, 34.325  L 23.840, 31.446  L 27.176, 30.257  L 27.911, 27.348  L 27.225, 30.269  L 27.959, 27.360  L 27.273, 30.281  L 29.688, 32.871  L 29.112, 35.815  L 29.737, 32.881  L 29.161, 35.825  L 29.786, 32.891  L 33.025, 31.458  L 33.543, 28.503  L 33.074, 31.466  L 33.592, 28.511  L 33.123, 31.474  L 35.720, 33.881  L 35.357, 36.859  L 35.770, 33.888  L 35.407, 36.866  L 35.820, 33.894  L 38.948, 32.235  L 39.259, 29.251  L 38.998, 32.240  L 39.309, 29.256  L 39.048, 32.244  L 41.804, 34.468  L 41.642, 37.464  L 41.854, 34.471  L 41.692, 37.467  L 41.904, 34.474  L 44.916, 32.612  L 45.034, 29.614  L 44.966, 32.613  L 45.083, 29.616  L 45.016, 32.615  L 47.907, 34.660  L 47.930, 37.660  L 47.957, 34.660  L 47.980, 37.660  L 48.007, 34.660  L 50.903, 32.621  L 50.845, 29.622  L 50.953, 32.620  L 50.895, 29.620  L 51.003, 32.618  L 54.004, 34.497  L 54.191, 37.491  L 54.054, 34.494  L 54.241, 37.489  L 54.104, 34.492  L 56.888, 32.302  L 56.677, 29.309  L 56.938, 32.298  L 56.727, 29.305  L 56.987, 32.294  L 60.078, 34.022  L 60.408, 37.004  L 60.128, 34.017  L 60.458, 36.999  L 60.178, 34.012  L 62.858, 31.697  L 62.515, 28.716  L 62.908, 31.690  L 62.565, 28.710  L 62.957, 31.684  L 66.119, 33.280  L 66.568, 36.246  L 66.168, 33.273  L 66.618, 36.239  L 66.218, 33.266  L 68.806, 30.849  L 68.354, 27.883  L 68.856, 30.841  L 68.403, 27.875  L 68.905, 30.833  L 72.120, 32.317  L 72.669, 35.266  L 72.170, 32.308  L 72.718, 35.258  L 72.219, 32.299  L 74.730, 29.801  L 74.189, 26.850  L 74.779, 29.792  L 74.238, 26.841  L 74.828, 29.783  L 78.084, 31.175  L 78.711, 34.109  L 78.133, 31.165  L 78.760, 34.099  L 78.182, 31.155  L 80.630, 28.595  L 80.020, 25.658  L 80.679, 28.585  L 80.069, 25.647  L 80.728, 28.574  L 84.013, 29.896  L 84.698, 32.817  L 84.062, 29.885  L 84.747, 32.806  L 84.111, 29.874  L 86.511, 27.270  L 85.852, 24.343  L 86.560, 27.258  L 85.901, 24.331  L 86.608, 27.247  L 89.913, 28.518  L 90.639, 31.430  L 89.962, 28.507  L 90.687, 31.418  L 90.011, 28.495  L 92.379, 25.862  L 91.690, 22.942  L 92.428, 25.850  L 91.738, 22.930  L 92.476, 25.838  L 95.793, 27.080  L 96.540, 29.985  L 95.842, 27.068  L 96.588, 29.973  L 95.890, 27.056  L 98.243, 24.408  L 97.540, 21.492  L 98.291, 24.396  L 97.589, 21.480  L 98.340, 24.384  L 101.660, 25.616  L 102.411, 28.520  L 101.709, 25.604  L 102.460, 28.508  L 101.757, 25.592  L 104.110, 22.944  L 103.412, 20.027  L 104.158, 22.932  L 103.460, 20.015  L 104.207, 22.920  L 107.524, 24.162  L 108.262, 27.070  L 107.572, 24.150  L 108.310, 27.058  L 107.621, 24.138  L 109.989, 21.505  L 109.313, 18.582  L 110.038, 21.493  L 109.361, 18.570  L 110.087, 21.482  L 113.392, 22.753  L 114.099, 25.669  L 113.440, 22.742  L 114.148, 25.657  L 113.489, 22.730  L 115.889, 20.126  L 115.253, 17.194  L 115.938, 20.115  L 115.302, 17.183  L 115.987, 20.104  L 119.272, 21.426  L 119.931, 24.353  L 119.321, 21.415  L 119.980, 24.342  L 119.370, 21.405  L 121.818, 18.845  L 121.240, 15.901  L 121.867, 18.835  L 121.289, 15.891  L 121.916, 18.825  L 125.172, 20.217  L 125.762, 23.159  L 125.221, 20.208  L 125.811, 23.150  L 125.270, 20.199  L 127.781, 17.701  L 127.282, 14.742  L 127.830, 17.692  L 127.331, 14.734  L 127.880, 17.683  L 131.095, 19.167  L 131.597, 22.125  L 131.144, 19.159  L 131.646, 22.117  L 131.194, 19.151  L 133.782, 16.734  L 133.382, 13.761  L 133.832, 16.727  L 133.432, 13.754  L 133.881, 16.720  L 137.043, 18.316  L 137.435, 21.290  L 137.092, 18.310  L 137.485, 21.284  L 137.142, 18.303  L 139.822, 15.988  L 139.542, 13.001  L 139.872, 15.983  L 139.592, 12.996  L 139.922, 15.978  L 143.013, 17.706  L 143.273, 20.695  L 143.062, 17.702  L 143.323, 20.691  L 143.112, 17.698  L 145.896, 15.508  L 145.759, 12.511  L 145.946, 15.506  L 145.809, 12.509  L 145.996, 15.503  L 148.997, 17.382  L 149.105, 20.380  L 149.047, 17.380  L 149.155, 20.378  L 149.097, 17.379  L 151.993, 15.340  L 152.020, 12.340  L 152.043, 15.340  L 152.070, 12.340  L 152.093, 15.340  L 154.984, 17.385  L 154.917, 20.384  L 155.034, 17.387  L 154.966, 20.386  L 155.084, 17.388  L 158.096, 15.526  L 158.308, 12.533  L 158.146, 15.529  L 158.358, 12.536  L 158.196, 15.532  L 160.952, 17.756  L 160.691, 20.744  L 161.002, 17.760  L 160.741, 20.749  L 161.052, 17.765  L 164.180, 16.106  L 164.593, 13.134  L 164.230, 16.112  L 164.643, 13.141  L 164.280, 16.119  L 166.877, 18.526  L 166.408, 21.489  L 166.926, 18.534  L 166.457, 21.497  L 166.975, 18.542  L 170.214, 17.109  L 170.839, 14.175  L 170.263, 17.119  L 170.888, 14.185  L 170.312, 17.129  L 172.727, 19.719  L 172.041, 22.640  L 172.775, 19.731  L 172.089, 22.652  L 172.824, 19.743  L 176.160, 18.554  L 177.003, 15.675  L 176.208, 18.568  L 177.051, 15.689  L 176.256, 18.582  L 178.469, 21.346  L 177.565, 24.206  L 178.517, 21.361  L 177.612, 24.222  L 178.564, 21.377  L 181.980, 20.444  L 183.039, 17.637  L 182.027, 20.461  L 183.086, 17.654  L 182.074, 20.479  L 184.072, 23.402  L 182.955, 26.186  L 184.118, 23.421  L 183.001, 26.205  L 184.165, 23.440  L 187.641, 22.767  L 188.907, 20.047  L 187.687, 22.787  L 188.952, 20.067  L 187.732, 22.808  L 189.508, 25.872  L 188.189, 28.567  L 189.553, 25.894  L 188.234, 28.589  L 189.598, 25.917 "/>
    </g>
</svg>
