<?xml version="1.0" encoding="utf-8" ?>
<svg xmlns="http://www.w3.org/2000/svg" xmlns:ev="http://www.w3.org/2001/xml-events" xmlns:xlink="http://www.w3.org/1999/xlink" baseProfile="full" height="50mm" version="1.1" viewBox="0,0,200,50" width="200mm">
    <defs>
        <style type="text/css"><![CDATA[
.stitch_line {
    stroke-width: 0.3;
    stroke-linejoin: round;
    stroke-linecap: round;
    fill: none;
}
.path_center_line {
    stroke-width: 0.2;
    stroke-linejoin: round;
    stroke-linecap: round;
    fill: none;
    stroke:#333;
}
.path_contour {
    stroke: #ddd;
    fill-opacity: 1;
    fill: #eee;
    stroke-width: 0.3;
}
.text{
    text-anchor: middle;
    dominant-baseline: middle;
    font-family: sans-serif;
    font-size: 1.5mm;
}
.smalltext{
    text-anchor: middle;
    dominant-baseline: middle;
    font-family: sans-serif;
    font-size: 1mm;
}
.color_0 {
    stroke:#148983;
}
.dot_0 {
    marker-start:url(#dot_0);
    marker-mid:url(#dot_0);
    marker-end:url(#dot_0);
}
]]></style>
        <marker id="dot_0" markerHeight="3.0" markerWidth="3.0" refX="1.5" refY="1.5">
            <circle cx="1.5" cy="1.5" fill="#148983" r="1.5"/>
        </marker>
    </defs>
    <g>
        <path class="stitch_line color_0 dot_0" d="M 10.402, 24.083  L 11.766, 21.411  L 10.447, 24.106  L 11.811, 21.433  L 10.492, 24.128  L 12.494, 27.294  L 11.282, 30.039  L 12.539, 27.315  L 11.327, 30.059  L 12.585, 27.336  L 16.231, 26.721  L 17.380, 23.950  L 16.277, 26.740  L 17.426, 23.969  L 16.323, 26.759  L 18.467, 29.719  L 17.475, 32.550  L 18.514, 29.736  L 17.522, 32.567  L 18.561, 29.752  L 22.057, 28.823  L 22.985, 25.970  L 22.105, 28.838  L 23.033, 25.985  L 22.152, 28.853  L 24.441, 31.613  L 23.672, 34.513  L 24.490, 31.627  L 23.720, 34.526  L 24.538, 31.640  L 27.884, 30.426  L 28.592, 27.511  L 27.933, 30.438  L 28.640, 27.522  L 27.981, 30.449  L 30.415, 33.016  L 29.865, 35.965  L 30.464, 33.026  L 29.914, 35.975  L 30.513, 33.035  L 33.713, 31.570  L 34.207, 28.611  L 33.763, 31.578  L 34.256, 28.618  L 33.812, 31.585  L 36.386, 33.966  L 36.045, 36.947  L 36.436, 33.972  L 36.095, 36.953  L 36.485, 33.978  L 39.547, 32.291  L 39.837, 29.304  L 39.597, 32.295  L 39.887, 29.309  L 39.646, 32.299  L 42.353, 34.501  L 42.208, 37.497  L 42.403, 34.504  L 42.258, 37.500  L 42.452, 34.506  L 45.386, 32.625  L 45.489, 29.627  L 45.436, 32.627  L 45.539, 29.628  L 45.486, 32.628  L 48.314, 34.660  L 48.348, 37.660  L 48.364, 34.660  L 48.398, 37.660  L 48.414, 34.660  L 51.231, 32.612  L 51.165, 29.612  L 51.281, 32.610  L 51.215, 29.611  L 51.331, 32.609  L 54.269, 34.483  L 54.462, 37.476  L 54.319, 34.480  L 54.512, 37.474  L 54.368, 34.477  L 57.083, 32.286  L 56.867, 29.294  L 57.133, 32.282  L 56.917, 29.290  L 57.183, 32.278  L 60.217, 34.008  L 60.549, 36.989  L 60.266, 34.003  L 60.599, 36.984  L 60.316, 33.997  L 62.942, 31.686  L 62.598, 28.706  L 62.992, 31.680  L 62.647, 28.700  L 63.041, 31.674  L 66.158, 33.274  L 66.609, 36.241  L 66.207, 33.267  L 66.658, 36.233  L 66.257, 33.260  L 68.808, 30.849  L 68.355, 27.883  L 68.857, 30.841  L 68.405, 27.875  L 68.907, 30.833  L 72.092, 32.322  L 72.641, 35.271  L 72.142, 32.313  L 72.690, 35.263  L 72.191, 32.304  L 74.681, 29.811  L 74.140, 26.860  L 74.730, 29.801  L 74.189, 26.850  L 74.779, 29.792  L 78.020, 31.188  L 78.646, 34.122  L 78.069, 31.178  L 78.695, 34.112  L 78.118, 31.168  L 80.560, 28.610  L 79.951, 25.673  L 80.609, 28.600  L 80.000, 25.662  L 80.657, 28.589  L 83.942, 29.912  L 84.626, 32.833  L 83.991, 29.901  L 84.675, 32.822  L 84.039, 29.890  L 86.445, 27.285  L 85.787, 24.358  L 86.494, 27.274  L 85.835, 24.347  L 86.542, 27.262  L 89.857, 28.532  L 90.582, 31.443  L 89.906, 28.520  L 90.630, 31.432  L 89.954, 28.509  L 92.336, 25.872  L 91.647, 22.953  L 92.385, 25.861  L 91.696, 22.941  L 92.434, 25.849  L 95.766, 27.086  L 96.513, 29.992  L 95.815, 27.074  L 96.562, 29.980  L 95.863, 27.062  L 98.234, 24.411  L 97.531, 21.494  L 98.282, 24.399  L 97.579, 21.482  L 98.331, 24.386  L 101.669, 25.614  L 102.421, 28.518  L 101.718, 25.601  L 102.469, 28.506  L 101.766, 25.589  L 104.137, 22.938  L 103.438, 20.020  L 104.185, 22.926  L 103.487, 20.008  L 104.234, 22.914  L 107.566, 24.151  L 108.304, 27.059  L 107.615, 24.139  L 108.353, 27.047  L 107.664, 24.128  L 110.046, 21.491  L 109.370, 18.568  L 110.094, 21.480  L 109.418, 18.557  L 110.143, 21.468  L 113.458, 22.738  L 114.165, 25.653  L 113.506, 22.726  L 114.213, 25.642  L 113.555, 22.715  L 115.961, 20.110  L 115.325, 17.178  L 116.009, 20.099  L 115.374, 17.167  L 116.058, 20.088  L 119.343, 21.411  L 120.000, 24.338  L 119.391, 21.400  L 120.049, 24.327  L 119.440, 21.390  L 121.882, 18.832  L 121.305, 15.888  L 121.931, 18.822  L 121.354, 15.878  L 121.980, 18.812  L 125.221, 20.208  L 125.811, 23.150  L 125.270, 20.199  L 125.860, 23.140  L 125.319, 20.189  L 127.809, 17.696  L 127.310, 14.737  L 127.858, 17.687  L 127.359, 14.729  L 127.908, 17.678  L 131.093, 19.167  L 131.595, 22.125  L 131.143, 19.159  L 131.645, 22.117  L 131.192, 19.151  L 133.743, 16.740  L 133.342, 13.767  L 133.793, 16.733  L 133.391, 13.759  L 133.842, 16.726  L 136.959, 18.326  L 137.353, 21.300  L 137.008, 18.320  L 137.402, 21.294  L 137.058, 18.314  L 139.684, 16.003  L 139.401, 13.016  L 139.734, 15.997  L 139.451, 13.011  L 139.783, 15.992  L 142.817, 17.722  L 143.083, 20.710  L 142.867, 17.718  L 143.133, 20.706  L 142.917, 17.714  L 145.632, 15.523  L 145.488, 12.526  L 145.681, 15.520  L 145.538, 12.524  L 145.731, 15.517  L 148.669, 17.391  L 148.785, 20.389  L 148.719, 17.390  L 148.835, 20.388  L 148.769, 17.388  L 151.586, 15.340  L 151.602, 12.340  L 151.636, 15.340  L 151.652, 12.340  L 151.686, 15.340  L 154.514, 17.372  L 154.461, 20.372  L 154.564, 17.373  L 154.511, 20.373  L 154.614, 17.375  L 157.548, 15.494  L 157.742, 12.500  L 157.597, 15.496  L 157.792, 12.503  L 157.647, 15.499  L 160.354, 17.701  L 160.113, 20.691  L 160.403, 17.705  L 160.163, 20.696  L 160.453, 17.709  L 163.515, 16.022  L 163.905, 13.047  L 163.564, 16.028  L 163.955, 13.053  L 163.614, 16.034  L 166.188, 18.415  L 165.744, 21.382  L 166.237, 18.422  L 165.793, 21.389  L 166.287, 18.430  L 169.487, 16.965  L 170.086, 14.025  L 169.536, 16.974  L 170.135, 14.035  L 169.585, 16.984  L 172.019, 19.551  L 171.360, 22.478  L 172.067, 19.562  L 171.408, 22.489  L 172.116, 19.574  L 175.462, 18.360  L 176.280, 15.474  L 175.510, 18.373  L 176.328, 15.487  L 175.559, 18.387  L 177.848, 21.147  L 176.967, 24.015  L 177.895, 21.162  L 177.015, 24.030  L 177.943, 21.177  L 181.439, 20.248  L 182.478, 17.433  L 181.486, 20.264  L 182.525, 17.450  L 181.533, 20.281  L 183.677, 23.241  L 182.574, 26.031  L 183.723, 23.260  L 182.620, 26.050  L 183.769, 23.279  L 187.415, 22.664  L 188.673, 19.941  L 187.461, 22.685  L 188.718, 19.961  L 187.506, 22.706  L 189.508, 25.872  L 188.189, 28.567  L 189.553, 25.894  L 188.234, 28.589  L 189.598, 25.917 "/>
    </g>
</svg>
