<?xml version="1.0" encoding="utf-8" ?>
<svg xmlns="http://www.w3.org/2000/svg" xmlns:ev="http://www.w3.org/2001/xml-events" xmlns:xlink="http://www.w3.org/1999/xlink" baseProfile="full" height="50mm" version="1.1" viewBox="0,0,200,50" width="200mm">
    <defs>
        <style type="text/css"><![CDATA[
.stitch_line {
    stroke-width: 0.3;
    stroke-linejoin: round;
    stroke-linecap: round;
    fill: none;
}
.sampling_line {
    stroke:#148983;
    stroke-width: 0.5;
    fill: none;
}
.path_handle {
    stroke-width: 0.5;
    stroke-linejoin: round;
    stroke-linecap: round;
    fill:none;
    stroke: #808080;
    marker-start: url(#handles);
    marker-mid: url(#handles);
    marker-end: url(#handles);
}
.path_center_line {
    stroke-width: 0.2;
    stroke-linejoin: round;
    stroke-linecap: round;
    fill: none;
    stroke:#148983;
    stroke-dasharray: 2,1.5;
    stroke-dashoffset: 1;
}
.path_contour {
    stroke: #85c4c1;
    fill-opacity: 0;
    stroke-width: 0.3;
}
.path_direction_line {
    stroke-width: 0.05;
    fill: none;
    stroke: #85c4c1;
}
.text{
    text-anchor: middle;
    dominant-baseline: middle;
    font-family: sans-serif;
    font-size: 1.5mm;
}
.smalltext{
    text-anchor: middle;
    dominant-baseline: middle;
    font-family: sans-serif;
    font-size: 1mm;
}
.color_0 {
    stroke:#148983;
    marker-start:url(#dot_0);
    marker-mid:url(#dot_0);
    marker-end:url(#dot_0);
}
.color_1 {
    stroke:#1873ac;
    marker-start:url(#dot_1);
    marker-mid:url(#dot_1);
    marker-end:url(#dot_1);
}
.color_2 {
    stroke:#8c5290;
    marker-start:url(#dot_2);
    marker-mid:url(#dot_2);
    marker-end:url(#dot_2);
}
.color_3 {
    stroke:#61a09c;
    marker-start:url(#dot_3);
    marker-mid:url(#dot_3);
    marker-end:url(#dot_3);
}
.color_4 {
    stroke:#5ad2f4;
    marker-start:url(#dot_4);
    marker-mid:url(#dot_4);
    marker-end:url(#dot_4);
}
.color_5 {
    stroke:#0f6460;
    marker-start:url(#dot_5);
    marker-mid:url(#dot_5);
    marker-end:url(#dot_5);
}
.color_6 {
    stroke:#0f4668;
    marker-start:url(#dot_6);
    marker-mid:url(#dot_6);
    marker-end:url(#dot_6);
}
.color_7 {
    stroke:#543156;
    marker-start:url(#dot_7);
    marker-mid:url(#dot_7);
    marker-end:url(#dot_7);
}
.color_8 {
    stroke:#487673;
    marker-start:url(#dot_8);
    marker-mid:url(#dot_8);
    marker-end:url(#dot_8);
}
.color_9 {
    stroke:#0c8baf;
    marker-start:url(#dot_9);
    marker-mid:url(#dot_9);
    marker-end:url(#dot_9);
}
]]></style>
        <marker id="dot_0" markerHeight="3.0" markerWidth="3.0" refX="1.5" refY="1.5">
            <circle cx="1.5" cy="1.5" fill="#148983" r="1.5"/>
        </marker>
        <marker id="dot_1" markerHeight="3.0" markerWidth="3.0" refX="1.5" refY="1.5">
            <circle cx="1.5" cy="1.5" fill="#1873ac" r="1.5"/>
        </marker>
        <marker id="dot_2" markerHeight="3.0" markerWidth="3.0" refX="1.5" refY="1.5">
            <circle cx="1.5" cy="1.5" fill="#8c5290" r="1.5"/>
        </marker>
        <marker id="dot_3" markerHeight="3.0" markerWidth="3.0" refX="1.5" refY="1.5">
            <circle cx="1.5" cy="1.5" fill="#61a09c" r="1.5"/>
        </marker>
        <marker id="dot_4" markerHeight="3.0" markerWidth="3.0" refX="1.5" refY="1.5">
            <circle cx="1.5" cy="1.5" fill="#5ad2f4" r="1.5"/>
        </marker>
        <marker id="dot_5" markerHeight="3.0" markerWidth="3.0" refX="1.5" refY="1.5">
            <circle cx="1.5" cy="1.5" fill="#0f6460" r="1.5"/>
        </marker>
        <marker id="dot_6" markerHeight="3.0" markerWidth="3.0" refX="1.5" refY="1.5">
            <circle cx="1.5" cy="1.5" fill="#0f4668" r="1.5"/>
        </marker>
        <marker id="dot_7" markerHeight="3.0" markerWidth="3.0" refX="1.5" refY="1.5">
            <circle cx="1.5" cy="1.5" fill="#543156" r="1.5"/>
        </marker>
        <marker id="dot_8" markerHeight="3.0" markerWidth="3.0" refX="1.5" refY="1.5">
            <circle cx="1.5" cy="1.5" fill="#487673" r="1.5"/>
        </marker>
        <marker id="dot_9" markerHeight="3.0" markerWidth="3.0" refX="1.5" refY="1.5">
            <circle cx="1.5" cy="1.5" fill="#0c8baf" r="1.5"/>
        </marker>
    </defs>
    <g>
        <path class="stitch_line color_0" d="M 9.307, 21.914  L 12.899, 23.673  L 9.337, 21.855  L 12.929, 23.614  L 10.120, 27.813  L 13.751, 29.490  L 10.092, 27.874  L 13.724, 29.551  L 14.967, 24.645  L 18.687, 26.116  L 14.992, 24.584  L 18.712, 26.054  L 16.141, 30.423  L 19.894, 31.808  L 16.119, 30.486  L 19.871, 31.871  L 20.635, 26.852  L 24.459, 28.027  L 20.655, 26.789  L 24.479, 27.963  L 22.177, 32.496  L 26.026, 33.586  L 22.160, 32.560  L 26.008, 33.650  L 26.316, 28.570  L 30.218, 29.449  L 26.331, 28.505  L 30.233, 29.384  L 28.223, 34.066  L 32.143, 34.865  L 28.211, 34.131  L 32.130, 34.930  L 32.014, 29.833  L 35.970, 30.425  L 32.024, 29.767  L 35.980, 30.359  L 34.274, 35.168  L 38.240, 35.688  L 34.266, 35.234  L 38.232, 35.754  L 37.733, 30.674  L 41.720, 30.994  L 37.739, 30.607  L 41.726, 30.928  L 40.324, 35.838  L 44.316, 36.097  L 40.320, 35.905  L 44.312, 36.164  L 43.474, 31.125  L 47.474, 31.196  L 43.476, 31.059  L 47.475, 31.129  L 46.368, 36.116  L 50.368, 36.137  L 46.368, 36.183  L 50.369, 36.204  L 49.238, 31.222  L 53.235, 31.067  L 49.236, 31.155  L 53.233, 31.000  L 52.403, 36.040  L 56.399, 35.848  L 52.407, 36.106  L 56.402, 35.915  L 55.023, 30.997  L 59.007, 30.643  L 55.018, 30.931  L 59.002, 30.577  L 58.426, 35.650  L 62.408, 35.273  L 58.432, 35.716  L 62.415, 35.339  L 60.828, 30.487  L 64.794, 29.962  L 60.820, 30.421  L 64.786, 29.896  L 64.434, 34.987  L 68.398, 34.452  L 64.443, 35.053  L 68.407, 34.518  L 66.652, 29.727  L 70.596, 29.058  L 66.642, 29.661  L 70.585, 28.992  L 70.425, 34.090  L 74.370, 33.424  L 70.437, 34.155  L 74.382, 33.490  L 72.492, 28.754  L 76.415, 27.968  L 72.480, 28.688  L 76.402, 27.902  L 76.401, 32.999  L 80.326, 32.230  L 76.414, 33.065  L 80.340, 32.295  L 78.348, 27.605  L 82.250, 26.728  L 78.334, 27.539  L 82.236, 26.663  L 82.359, 31.756  L 86.268, 30.908  L 82.373, 31.821  L 86.283, 30.973  L 84.216, 26.317  L 88.104, 25.374  L 84.201, 26.252  L 88.089, 25.309  L 88.299, 30.397  L 92.197, 29.496  L 88.315, 30.462  L 92.212, 29.561  L 90.097, 24.928  L 93.975, 23.944  L 90.082, 24.863  L 93.959, 23.879  L 94.223, 28.963  L 98.113, 28.032  L 94.239, 29.028  L 98.129, 28.097  L 95.990, 23.476  L 99.863, 22.475  L 95.974, 23.412  L 99.847, 22.410  L 100.129, 27.493  L 104.018, 26.556  L 100.145, 27.558  L 104.034, 26.621  L 101.895, 22.000  L 105.769, 21.004  L 101.879, 21.935  L 105.753, 20.939  L 106.017, 26.024  L 109.910, 25.104  L 106.033, 26.088  L 109.926, 25.169  L 107.811, 20.537  L 111.693, 19.570  L 107.796, 20.472  L 111.677, 19.506  L 111.889, 24.593  L 115.791, 23.716  L 111.904, 24.658  L 115.806, 23.781  L 113.739, 19.125  L 117.634, 18.212  L 113.725, 19.060  L 117.619, 18.147  L 117.743, 23.240  L 121.659, 22.428  L 117.757, 23.305  L 121.674, 22.493  L 119.681, 17.803  L 123.593, 16.968  L 119.667, 17.737  L 123.579, 16.903  L 123.579, 21.999  L 127.514, 21.279  L 123.592, 22.065  L 127.526, 21.344  L 125.636, 16.608  L 129.569, 15.877  L 125.624, 16.543  L 129.557, 15.812  L 129.399, 20.909  L 133.353, 20.306  L 129.409, 20.975  L 133.364, 20.372  L 131.607, 15.581  L 135.562, 14.980  L 131.597, 15.515  L 135.552, 14.914  L 135.202, 20.005  L 139.176, 19.546  L 135.210, 20.071  L 139.184, 19.612  L 137.595, 14.760  L 141.571, 14.317  L 137.589, 14.694  L 141.564, 14.251  L 140.990, 19.323  L 144.980, 19.036  L 140.995, 19.390  L 144.985, 19.102  L 143.603, 14.185  L 147.595, 13.927  L 143.599, 14.118  L 147.591, 13.860  L 146.764, 18.900  L 150.763, 18.811  L 146.766, 18.967  L 150.765, 18.878  L 149.632, 13.896  L 153.632, 13.851  L 149.632, 13.830  L 153.631, 13.784  L 152.527, 18.771  L 156.525, 18.908  L 152.526, 18.838  L 156.523, 18.975  L 155.683, 13.936  L 159.678, 14.128  L 155.686, 13.869  L 159.682, 14.062  L 158.283, 18.972  L 162.264, 19.360  L 158.277, 19.039  L 162.258, 19.426  L 161.756, 14.345  L 165.730, 14.799  L 161.764, 14.279  L 165.738, 14.733  L 164.035, 19.542  L 167.981, 20.200  L 164.025, 19.608  L 167.971, 20.266  L 167.851, 15.168  L 171.783, 15.902  L 167.864, 15.102  L 171.796, 15.836  L 169.790, 20.518  L 173.677, 21.462  L 169.774, 20.583  L 173.662, 21.527  L 173.965, 16.446  L 177.831, 17.472  L 173.983, 16.382  L 177.849, 17.408  L 175.551, 21.942  L 179.355, 23.179  L 175.531, 22.005  L 179.335, 23.243  L 180.095, 18.223  L 183.870, 19.546  L 180.117, 18.160  L 183.893, 19.483  L 181.325, 23.853  L 185.020, 25.385  L 181.300, 23.915  L 184.995, 25.447  L 186.235, 20.540  L 189.894, 22.156  L 186.262, 20.480  L 189.921, 22.096  L 187.115, 26.297  L 190.678, 28.116  L 187.086, 26.357  L 190.648, 28.175 "/>
    </g>
</svg>
