<?xml version="1.0" encoding="utf-8" ?>
<svg xmlns="http://www.w3.org/2000/svg" xmlns:ev="http://www.w3.org/2001/xml-events" xmlns:xlink="http://www.w3.org/1999/xlink" baseProfile="full" height="50mm" version="1.1" viewBox="0,0,200,50" width="200mm">
    <defs>
        <style type="text/css"><![CDATA[
.stitch_line {
    stroke-width: 0.3;
    stroke-linejoin: round;
    stroke-linecap: round;
    fill: none;
}
.path_center_line {
    fill: none;
    stroke:#808080;
    stroke-width: 0.2;
    stroke-linejoin: round;
    stroke-linecap: round;
}
.path_contour {
    fill: #808080;
    fill-opacity: 0.3;
    stroke: #808080;
    stroke-opacity: 1;
    stroke-width: 0.3;
}
.text{
    text-anchor: middle;
    dominant-baseline: middle;
    font-family: sans-serif;
    font-size: 1.5mm;
}
.smalltext{
    text-anchor: middle;
    dominant-baseline: middle;
    font-family: sans-serif;
    font-size: 1mm;
}
.color_0 {
    stroke:#3bb2d0;
}
.dot_0 {
    marker-start:url(#dot_0);
    marker-mid:url(#dot_0);
    marker-end:url(#dot_0);
}
]]></style>
        <marker id="dot_0" markerHeight="3.0" markerWidth="3.0" refX="1.5" refY="1.5">
            <circle cx="1.5" cy="1.5" fill="#3bb2d0" r="1.5"/>
        </marker>
    </defs>
    <g>
        <path class="stitch_line color_0 dot_0" d="M 9.307, 21.914  L 12.899, 23.673  L 9.337, 21.855  L 12.929, 23.614  L 9.892, 27.704  L 13.519, 29.391  L 9.865, 27.764  L 13.491, 29.452  L 14.583, 24.477  L 18.295, 25.967  L 14.608, 24.415  L 18.321, 25.906  L 15.595, 30.209  L 19.338, 31.621  L 15.572, 30.272  L 19.315, 31.684  L 20.030, 26.641  L 23.844, 27.847  L 20.051, 26.578  L 23.865, 27.783  L 21.472, 32.281  L 25.311, 33.405  L 21.454, 32.345  L 25.293, 33.469  L 25.625, 28.387  L 29.519, 29.301  L 25.641, 28.322  L 29.535, 29.236  L 27.487, 33.900  L 31.400, 34.735  L 27.474, 33.966  L 31.386, 34.800  L 31.340, 29.707  L 35.291, 30.332  L 31.351, 29.641  L 35.302, 30.266  L 33.599, 35.067  L 37.561, 35.617  L 33.591, 35.133  L 37.553, 35.683  L 37.145, 30.606  L 41.130, 30.954  L 37.152, 30.540  L 41.137, 30.887  L 39.768, 35.794  L 43.758, 36.076  L 39.763, 35.860  L 43.754, 36.142  L 43.012, 31.103  L 47.011, 31.192  L 43.014, 31.036  L 47.013, 31.126  L 45.956, 36.109  L 49.956, 36.145  L 45.956, 36.175  L 49.956, 36.212  L 48.914, 31.225  L 52.911, 31.082  L 48.912, 31.159  L 52.909, 31.015  L 52.136, 36.050  L 56.132, 35.867  L 52.139, 36.117  L 56.135, 35.934  L 54.830, 31.010  L 58.815, 30.662  L 54.825, 30.943  L 58.809, 30.595  L 58.286, 35.662  L 62.268, 35.289  L 58.293, 35.729  L 62.275, 35.356  L 60.745, 30.496  L 64.711, 29.973  L 60.737, 30.430  L 64.703, 29.907  L 64.394, 34.992  L 68.358, 34.458  L 64.403, 35.058  L 68.368, 34.524  L 66.650, 29.727  L 70.594, 29.058  L 66.640, 29.662  L 70.584, 28.993  L 70.454, 34.085  L 74.398, 33.419  L 70.465, 34.151  L 74.410, 33.485  L 72.541, 28.745  L 76.463, 27.958  L 72.529, 28.680  L 76.451, 27.893  L 76.465, 32.987  L 80.390, 32.217  L 76.478, 33.052  L 80.403, 32.282  L 78.417, 27.590  L 82.320, 26.712  L 78.403, 27.525  L 82.306, 26.647  L 82.430, 31.740  L 86.339, 30.891  L 82.445, 31.805  L 86.354, 30.956  L 84.282, 26.302  L 88.169, 25.358  L 84.267, 26.237  L 88.154, 25.294  L 88.356, 30.384  L 92.253, 29.482  L 88.372, 30.449  L 92.269, 29.547  L 90.140, 24.918  L 94.017, 23.933  L 90.124, 24.853  L 94.002, 23.869  L 94.250, 28.957  L 98.140, 28.026  L 94.266, 29.022  L 98.156, 28.090  L 96.000, 23.474  L 99.872, 22.472  L 95.983, 23.410  L 99.856, 22.408  L 100.120, 27.495  L 104.008, 26.558  L 100.136, 27.560  L 104.025, 26.623  L 101.868, 22.007  L 105.742, 21.011  L 101.852, 21.942  L 105.726, 20.946  L 105.975, 26.034  L 109.868, 25.115  L 105.990, 26.099  L 109.883, 25.179  L 107.755, 20.551  L 111.636, 19.584  L 107.739, 20.486  L 111.621, 19.519  L 111.823, 24.609  L 115.726, 23.731  L 111.838, 24.674  L 115.741, 23.796  L 113.668, 19.141  L 117.562, 18.228  L 113.653, 19.076  L 117.548, 18.163  L 117.673, 23.255  L 121.590, 22.443  L 117.687, 23.320  L 121.604, 22.508  L 119.617, 17.816  L 123.529, 16.980  L 119.603, 17.751  L 123.515, 16.915  L 123.530, 22.009  L 127.465, 21.288  L 123.543, 22.075  L 127.478, 21.353  L 125.608, 16.614  L 129.541, 15.882  L 125.596, 16.548  L 129.529, 15.817  L 129.400, 20.909  L 133.355, 20.305  L 129.411, 20.975  L 133.365, 20.371  L 131.647, 15.575  L 135.602, 14.975  L 131.637, 15.509  L 135.592, 14.909  L 135.285, 19.994  L 139.259, 19.537  L 135.293, 20.060  L 139.267, 19.603  L 137.735, 14.744  L 141.711, 14.304  L 137.728, 14.677  L 141.704, 14.238  L 141.183, 19.305  L 145.173, 19.023  L 141.188, 19.371  L 145.178, 19.090  L 143.870, 14.166  L 147.863, 13.917  L 143.867, 14.099  L 147.859, 13.850  L 147.088, 18.885  L 151.087, 18.808  L 147.090, 18.951  L 151.089, 18.875  L 150.044, 13.888  L 154.044, 13.858  L 150.044, 13.822  L 154.044, 13.791  L 152.990, 18.774  L 156.987, 18.931  L 152.988, 18.841  L 156.985, 18.997  L 156.240, 13.957  L 160.235, 14.173  L 156.244, 13.891  L 160.239, 14.107  L 158.873, 19.013  L 162.852, 19.427  L 158.867, 19.080  L 162.845, 19.494  L 162.434, 14.416  L 166.405, 14.900  L 162.443, 14.350  L 166.414, 14.834  L 164.715, 19.635  L 168.655, 20.326  L 164.704, 19.701  L 168.644, 20.392  L 168.594, 15.298  L 172.519, 16.067  L 168.607, 15.233  L 172.533, 16.002  L 170.489, 20.667  L 174.367, 21.646  L 170.473, 20.731  L 174.351, 21.710  L 174.680, 16.627  L 178.537, 17.687  L 174.698, 16.563  L 178.555, 17.623  L 176.166, 22.122  L 179.960, 23.391  L 176.146, 22.185  L 179.939, 23.454  L 180.651, 18.410  L 184.416, 19.759  L 180.674, 18.348  L 184.439, 19.697  L 181.717, 24.002  L 185.404, 25.554  L 181.692, 24.064  L 185.379, 25.615  L 186.467, 20.639  L 190.122, 22.266  L 186.495, 20.578  L 190.149, 22.205  L 187.115, 26.297  L 190.678, 28.116  L 187.086, 26.357  L 190.648, 28.175 "/>
    </g>
</svg>
