<?xml version="1.0" encoding="utf-8" ?>
<svg xmlns="http://www.w3.org/2000/svg" xmlns:ev="http://www.w3.org/2001/xml-events" xmlns:xlink="http://www.w3.org/1999/xlink" baseProfile="full" height="50mm" version="1.1" viewBox="0,0,200,50" width="200mm">
    <defs>
        <style type="text/css"><![CDATA[
.stitch_line {
    stroke-width: 0.3;
    stroke-linejoin: round;
    stroke-linecap: round;
    fill: none;
}
.sampling_line {
    stroke:#148983;
    stroke-width: 0.5;
    fill: none;
}
.path_handle {
    stroke-width: 0.5;
    stroke-linejoin: round;
    stroke-linecap: round;
    fill:none;
    stroke: #808080;
    marker-start: url(#handles);
    marker-mid: url(#handles);
    marker-end: url(#handles);
}
.path_center_line {
    stroke-width: 0.2;
    stroke-linejoin: round;
    stroke-linecap: round;
    fill: none;
    stroke:#148983;
    stroke-dasharray: 2,1.5;
    stroke-dashoffset: 1;
}
.path_contour {
    stroke: #85c4c1;
    fill-opacity: 0;
    stroke-width: 0.3;
}
.path_direction_line {
    stroke-width: 0.05;
    fill: none;
    stroke: #85c4c1;
}
.text{
    text-anchor: middle;
    dominant-baseline: middle;
    font-family: sans-serif;
    font-size: 1.5mm;
}
.smalltext{
    text-anchor: middle;
    dominant-baseline: middle;
    font-family: sans-serif;
    font-size: 1mm;
}
.color_0 {
    stroke:#148983;
    marker-start:url(#dot_0);
    marker-mid:url(#dot_0);
    marker-end:url(#dot_0);
}
.color_1 {
    stroke:#1873ac;
    marker-start:url(#dot_1);
    marker-mid:url(#dot_1);
    marker-end:url(#dot_1);
}
.color_2 {
    stroke:#8c5290;
    marker-start:url(#dot_2);
    marker-mid:url(#dot_2);
    marker-end:url(#dot_2);
}
.color_3 {
    stroke:#61a09c;
    marker-start:url(#dot_3);
    marker-mid:url(#dot_3);
    marker-end:url(#dot_3);
}
.color_4 {
    stroke:#5ad2f4;
    marker-start:url(#dot_4);
    marker-mid:url(#dot_4);
    marker-end:url(#dot_4);
}
.color_5 {
    stroke:#0f6460;
    marker-start:url(#dot_5);
    marker-mid:url(#dot_5);
    marker-end:url(#dot_5);
}
.color_6 {
    stroke:#0f4668;
    marker-start:url(#dot_6);
    marker-mid:url(#dot_6);
    marker-end:url(#dot_6);
}
.color_7 {
    stroke:#543156;
    marker-start:url(#dot_7);
    marker-mid:url(#dot_7);
    marker-end:url(#dot_7);
}
.color_8 {
    stroke:#487673;
    marker-start:url(#dot_8);
    marker-mid:url(#dot_8);
    marker-end:url(#dot_8);
}
.color_9 {
    stroke:#0c8baf;
    marker-start:url(#dot_9);
    marker-mid:url(#dot_9);
    marker-end:url(#dot_9);
}
]]></style>
        <marker id="dot_0" markerHeight="3.0" markerWidth="3.0" refX="1.5" refY="1.5">
            <circle cx="1.5" cy="1.5" fill="#148983" r="1.5"/>
        </marker>
        <marker id="dot_1" markerHeight="3.0" markerWidth="3.0" refX="1.5" refY="1.5">
            <circle cx="1.5" cy="1.5" fill="#1873ac" r="1.5"/>
        </marker>
        <marker id="dot_2" markerHeight="3.0" markerWidth="3.0" refX="1.5" refY="1.5">
            <circle cx="1.5" cy="1.5" fill="#8c5290" r="1.5"/>
        </marker>
        <marker id="dot_3" markerHeight="3.0" markerWidth="3.0" refX="1.5" refY="1.5">
            <circle cx="1.5" cy="1.5" fill="#61a09c" r="1.5"/>
        </marker>
        <marker id="dot_4" markerHeight="3.0" markerWidth="3.0" refX="1.5" refY="1.5">
            <circle cx="1.5" cy="1.5" fill="#5ad2f4" r="1.5"/>
        </marker>
        <marker id="dot_5" markerHeight="3.0" markerWidth="3.0" refX="1.5" refY="1.5">
            <circle cx="1.5" cy="1.5" fill="#0f6460" r="1.5"/>
        </marker>
        <marker id="dot_6" markerHeight="3.0" markerWidth="3.0" refX="1.5" refY="1.5">
            <circle cx="1.5" cy="1.5" fill="#0f4668" r="1.5"/>
        </marker>
        <marker id="dot_7" markerHeight="3.0" markerWidth="3.0" refX="1.5" refY="1.5">
            <circle cx="1.5" cy="1.5" fill="#543156" r="1.5"/>
        </marker>
        <marker id="dot_8" markerHeight="3.0" markerWidth="3.0" refX="1.5" refY="1.5">
            <circle cx="1.5" cy="1.5" fill="#487673" r="1.5"/>
        </marker>
        <marker id="dot_9" markerHeight="3.0" markerWidth="3.0" refX="1.5" refY="1.5">
            <circle cx="1.5" cy="1.5" fill="#0c8baf" r="1.5"/>
        </marker>
    </defs>
    <g>
        <path class="stitch_line color_0" d="M 10.447, 24.106  L 13.768, 22.999  L 10.447, 24.106  L 12.539, 27.315  L 13.776, 30.589  L 12.539, 27.315  L 16.277, 26.740  L 19.500, 25.375  L 16.277, 26.740  L 18.514, 29.736  L 20.005, 32.902  L 18.514, 29.736  L 22.105, 28.838  L 25.211, 27.224  L 22.105, 28.838  L 24.490, 31.627  L 26.222, 34.668  L 24.490, 31.627  L 27.933, 30.438  L 30.906, 28.592  L 27.933, 30.438  L 30.464, 33.026  L 32.419, 35.929  L 30.464, 33.026  L 33.763, 31.578  L 36.594, 29.520  L 33.763, 31.578  L 36.436, 33.972  L 38.591, 36.730  L 36.436, 33.972  L 39.597, 32.295  L 42.281, 30.049  L 39.597, 32.295  L 42.403, 34.504  L 44.734, 37.114  L 42.403, 34.504  L 45.436, 32.627  L 47.974, 30.217  L 45.436, 32.627  L 48.364, 34.660  L 50.846, 37.127  L 48.364, 34.660  L 51.281, 32.610  L 53.679, 30.061  L 51.281, 32.610  L 54.319, 34.480  L 56.929, 36.812  L 54.319, 34.480  L 57.133, 32.282  L 59.401, 29.617  L 57.133, 32.282  L 60.266, 34.003  L 62.982, 36.211  L 60.266, 34.003  L 62.992, 31.680  L 65.143, 28.919  L 62.992, 31.680  L 66.207, 33.267  L 69.009, 35.366  L 66.207, 33.267  L 68.857, 30.841  L 70.907, 28.004  L 68.857, 30.841  L 72.142, 32.313  L 75.011, 34.318  L 72.142, 32.313  L 74.730, 29.801  L 76.694, 26.905  L 74.730, 29.801  L 78.069, 31.178  L 80.990, 33.106  L 78.069, 31.178  L 80.609, 28.600  L 82.505, 25.658  L 80.609, 28.600  L 83.991, 29.901  L 86.949, 31.770  L 83.991, 29.901  L 86.494, 27.274  L 88.341, 24.301  L 86.494, 27.274  L 89.906, 28.520  L 92.890, 30.349  L 89.906, 28.520  L 92.385, 25.861  L 94.200, 22.868  L 92.385, 25.861  L 95.815, 27.074  L 98.813, 28.880  L 95.815, 27.074  L 98.282, 24.399  L 100.084, 21.398  L 98.282, 24.399  L 101.718, 25.601  L 104.719, 27.403  L 101.718, 25.601  L 104.185, 22.926  L 105.991, 19.927  L 104.185, 22.926  L 107.615, 24.139  L 110.608, 25.954  L 107.615, 24.139  L 110.094, 21.480  L 111.923, 18.495  L 110.094, 21.480  L 113.506, 22.726  L 116.479, 24.573  L 113.506, 22.726  L 116.009, 20.099  L 117.879, 17.140  L 116.009, 20.099  L 119.391, 21.400  L 122.333, 23.297  L 119.391, 21.400  L 121.931, 18.822  L 123.859, 15.901  L 121.931, 18.822  L 125.270, 20.199  L 128.167, 22.163  L 125.270, 20.199  L 127.858, 17.687  L 129.863, 14.818  L 127.858, 17.687  L 131.143, 19.159  L 133.980, 21.209  L 131.143, 19.159  L 133.793, 16.733  L 135.891, 13.932  L 133.793, 16.733  L 137.008, 18.320  L 139.769, 20.471  L 137.008, 18.320  L 139.734, 15.997  L 141.942, 13.282  L 139.734, 15.997  L 142.867, 17.718  L 145.533, 19.986  L 142.867, 17.718  L 145.681, 15.520  L 148.013, 12.910  L 145.681, 15.520  L 148.719, 17.390  L 151.268, 19.788  L 148.719, 17.390  L 151.636, 15.340  L 154.103, 12.858  L 151.636, 15.340  L 154.564, 17.373  L 156.974, 19.911  L 154.564, 17.373  L 157.597, 15.496  L 160.208, 13.165  L 157.597, 15.496  L 160.403, 17.705  L 162.650, 20.389  L 160.403, 17.705  L 163.564, 16.028  L 166.322, 13.873  L 163.564, 16.028  L 166.237, 18.422  L 168.295, 21.253  L 166.237, 18.422  L 169.536, 16.974  L 172.439, 15.019  L 169.536, 16.974  L 172.067, 19.562  L 173.913, 22.536  L 172.067, 19.562  L 175.510, 18.373  L 178.552, 16.641  L 175.510, 18.373  L 177.895, 21.162  L 179.509, 24.268  L 177.895, 21.162  L 181.486, 20.264  L 184.653, 18.773  L 181.486, 20.264  L 183.723, 23.260  L 185.088, 26.483  L 183.723, 23.260  L 187.461, 22.685  L 190.735, 21.448  L 187.461, 22.685  L 189.553, 25.894  L 190.660, 29.215  L 189.553, 25.894 "/>
    </g>
</svg>
