<?xml version="1.0" encoding="utf-8" ?>
<svg xmlns="http://www.w3.org/2000/svg" xmlns:ev="http://www.w3.org/2001/xml-events" xmlns:xlink="http://www.w3.org/1999/xlink" baseProfile="full" height="50mm" version="1.1" viewBox="0,0,200,50" width="200mm">
    <defs>
        <style type="text/css"><![CDATA[
.stitch_line {
    stroke-width: 0.3;
    stroke-linejoin: round;
    stroke-linecap: round;
    fill: none;
}
.path_center_line {
    fill: none;
    stroke:#808080;
    stroke-width: 0.2;
    stroke-linejoin: round;
    stroke-linecap: round;
}
.path_contour {
    fill: #808080;
    fill-opacity: 0.3;
    stroke: #808080;
    stroke-opacity: 1;
    stroke-width: 0.3;
}
.text{
    text-anchor: middle;
    dominant-baseline: middle;
    font-family: sans-serif;
    font-size: 1.5mm;
}
.smalltext{
    text-anchor: middle;
    dominant-baseline: middle;
    font-family: sans-serif;
    font-size: 1mm;
}
.color_0 {
    stroke:#3bb2d0;
}
.dot_0 {
    marker-start:url(#dot_0);
    marker-mid:url(#dot_0);
    marker-end:url(#dot_0);
}
]]></style>
        <marker id="dot_0" markerHeight="3.0" markerWidth="3.0" refX="1.5" refY="1.5">
            <circle cx="1.5" cy="1.5" fill="#3bb2d0" r="1.5"/>
        </marker>
    </defs>
    <g>
        <path class="stitch_line color_0 dot_0" d="M 9.527, 23.919  L 12.798, 27.703  L 9.712, 23.767  L 12.983, 27.551  L 9.898, 23.614  L 13.168, 27.398  L 12.215, 25.240  L 15.623, 28.901  L 12.395, 25.081  L 15.802, 28.742  L 12.574, 24.922  L 15.982, 28.582  L 14.949, 26.461  L 18.492, 29.992  L 15.123, 26.296  L 18.665, 29.826  L 15.296, 26.130  L 18.838, 29.661  L 17.727, 27.580  L 21.400, 30.974  L 17.894, 27.407  L 21.567, 30.802  L 18.061, 27.235  L 21.734, 30.630  L 20.545, 28.592  L 24.344, 31.845  L 20.705, 28.414  L 24.504, 31.666  L 20.865, 28.235  L 24.665, 31.488  L 23.399, 29.497  L 27.318, 32.604  L 23.552, 29.313  L 27.472, 32.419  L 23.706, 29.128  L 27.626, 32.235  L 26.286, 30.293  L 30.319, 33.251  L 26.432, 30.103  L 30.465, 33.061  L 26.579, 29.913  L 30.612, 32.871  L 29.201, 30.980  L 33.340, 33.787  L 29.340, 30.785  L 33.480, 33.591  L 29.480, 30.589  L 33.619, 33.396  L 32.140, 31.558  L 36.378, 34.214  L 32.272, 31.358  L 36.510, 34.014  L 32.405, 31.158  L 36.643, 33.813  L 35.099, 32.029  L 39.427, 34.535  L 35.224, 31.824  L 39.553, 34.330  L 35.350, 31.619  L 39.678, 34.126  L 38.074, 32.395  L 42.484, 34.754  L 38.192, 32.186  L 42.602, 34.545  L 38.310, 31.977  L 42.721, 34.336  L 41.060, 32.659  L 45.545, 34.874  L 41.172, 32.447  L 45.656, 34.662  L 41.283, 32.234  L 45.768, 34.449  L 44.055, 32.826  L 48.605, 34.902  L 44.160, 32.610  L 48.710, 34.686  L 44.265, 32.394  L 48.815, 34.470  L 47.055, 32.898  L 51.664, 34.841  L 47.153, 32.679  L 51.762, 34.622  L 47.252, 32.461  L 51.861, 34.403  L 50.057, 32.882  L 54.717, 34.697  L 50.149, 32.660  L 54.810, 34.476  L 50.242, 32.439  L 54.902, 34.254  L 53.058, 32.782  L 57.764, 34.477  L 53.145, 32.558  L 57.850, 34.253  L 53.232, 32.334  L 57.937, 34.029  L 56.057, 32.603  L 60.802, 34.185  L 56.139, 32.377  L 60.883, 33.959  L 56.220, 32.151  L 60.965, 33.734  L 59.053, 32.350  L 63.831, 33.828  L 59.129, 32.123  L 63.907, 33.600  L 59.205, 31.895  L 63.984, 33.373  L 62.043, 32.030  L 66.850, 33.411  L 62.115, 31.801  L 66.922, 33.182  L 62.186, 31.572  L 66.993, 32.953  L 65.027, 31.648  L 69.859, 32.940  L 65.094, 31.418  L 69.926, 32.710  L 65.162, 31.188  L 69.994, 32.479  L 68.005, 31.210  L 72.857, 32.420  L 68.068, 30.978  L 72.921, 32.189  L 68.132, 30.747  L 72.985, 31.958  L 70.976, 30.719  L 75.846, 31.857  L 71.036, 30.487  L 75.906, 31.625  L 71.096, 30.255  L 75.966, 31.393  L 73.940, 30.183  L 78.825, 31.256  L 73.997, 29.950  L 78.882, 31.023  L 74.054, 29.717  L 78.939, 30.790  L 76.898, 29.606  L 81.795, 30.622  L 76.952, 29.372  L 81.849, 30.388  L 77.007, 29.138  L 81.904, 30.155  L 79.850, 28.992  L 84.757, 29.960  L 79.902, 28.758  L 84.809, 29.725  L 79.954, 28.524  L 84.861, 29.491  L 82.796, 28.348  L 87.711, 29.274  L 82.846, 28.113  L 87.761, 29.039  L 82.897, 27.878  L 87.812, 28.804  L 85.738, 27.677  L 90.659, 28.569  L 85.787, 27.442  L 90.708, 28.334  L 85.835, 27.207  L 90.756, 28.099  L 88.676, 26.984  L 93.602, 27.851  L 88.724, 26.749  L 93.649, 27.616  L 88.771, 26.514  L 93.697, 27.380  L 91.612, 26.275  L 96.541, 27.123  L 91.658, 26.039  L 96.587, 26.887  L 91.704, 25.804  L 96.633, 26.652  L 94.545, 25.552  L 99.476, 26.389  L 94.591, 25.317  L 99.522, 26.154  L 94.637, 25.081  L 99.568, 25.918  L 97.478, 24.822  L 102.409, 25.655  L 97.523, 24.586  L 102.455, 25.419  L 97.569, 24.351  L 102.500, 25.184  L 100.410, 24.088  L 105.341, 24.924  L 100.456, 23.852  L 105.387, 24.689  L 100.502, 23.616  L 105.433, 24.453  L 103.345, 23.354  L 108.274, 24.202  L 103.391, 23.118  L 108.320, 23.966  L 103.437, 22.883  L 108.366, 23.731  L 106.281, 22.625  L 111.207, 23.492  L 106.328, 22.390  L 111.254, 23.256  L 106.376, 22.155  L 111.302, 23.021  L 109.221, 21.906  L 114.143, 22.798  L 109.270, 21.671  L 114.191, 22.563  L 109.318, 21.436  L 114.240, 22.328  L 112.166, 21.201  L 117.081, 22.127  L 112.216, 20.966  L 117.131, 21.892  L 112.266, 20.731  L 117.181, 21.657  L 115.117, 20.514  L 120.024, 21.481  L 115.169, 20.280  L 120.076, 21.247  L 115.221, 20.045  L 120.128, 21.013  L 118.074, 19.850  L 122.971, 20.866  L 118.128, 19.617  L 123.025, 20.633  L 118.183, 19.383  L 123.080, 20.399  L 121.039, 19.215  L 125.924, 20.288  L 121.096, 18.982  L 125.981, 20.054  L 121.153, 18.748  L 126.038, 19.821  L 124.011, 18.612  L 128.882, 19.749  L 124.072, 18.379  L 128.942, 19.517  L 124.132, 18.147  L 129.002, 19.285  L 126.993, 18.046  L 131.846, 19.257  L 127.057, 17.815  L 131.909, 19.025  L 127.120, 17.584  L 131.973, 18.794  L 129.984, 17.524  L 134.816, 18.815  L 130.051, 17.294  L 134.883, 18.585  L 130.119, 17.064  L 134.951, 18.355  L 132.984, 17.050  L 137.791, 18.430  L 133.056, 16.821  L 137.863, 18.201  L 133.128, 16.592  L 137.935, 17.972  L 135.994, 16.630  L 140.772, 18.107  L 136.070, 16.402  L 140.849, 17.879  L 136.146, 16.175  L 140.925, 17.652  L 139.013, 16.269  L 143.757, 17.851  L 139.094, 16.043  L 143.839, 17.625  L 139.175, 15.817  L 143.920, 17.399  L 142.040, 15.973  L 146.746, 17.667  L 142.127, 15.749  L 146.833, 17.443  L 142.214, 15.525  L 146.919, 17.220  L 145.075, 15.747  L 149.736, 17.562  L 145.168, 15.526  L 149.828, 17.340  L 145.260, 15.304  L 149.921, 17.119  L 148.116, 15.598  L 152.726, 17.539  L 148.215, 15.379  L 152.824, 17.320  L 148.313, 15.160  L 152.923, 17.102  L 151.162, 15.530  L 155.713, 17.605  L 151.267, 15.314  L 155.818, 17.389  L 151.372, 15.099  L 155.922, 17.173  L 154.210, 15.550  L 158.694, 17.764  L 154.321, 15.338  L 158.806, 17.552  L 154.432, 15.125  L 158.917, 17.339  L 157.256, 15.663  L 161.667, 18.020  L 157.375, 15.454  L 161.786, 17.811  L 157.493, 15.245  L 161.904, 17.603  L 160.299, 15.872  L 164.628, 18.377  L 160.425, 15.668  L 164.753, 18.173  L 160.550, 15.463  L 164.879, 17.968  L 163.335, 16.184  L 167.573, 18.839  L 163.467, 15.984  L 167.706, 18.638  L 163.599, 15.783  L 167.838, 18.438  L 166.358, 16.600  L 170.498, 19.406  L 166.498, 16.405  L 170.638, 19.211  L 166.637, 16.210  L 170.777, 19.015  L 169.366, 17.125  L 173.400, 20.082  L 169.512, 16.935  L 173.546, 19.891  L 169.658, 16.745  L 173.693, 19.701  L 172.352, 17.760  L 176.273, 20.865  L 172.506, 17.575  L 176.426, 20.681  L 172.659, 17.391  L 176.580, 20.496  L 175.313, 18.506  L 179.113, 21.758  L 175.473, 18.327  L 179.274, 21.579  L 175.634, 18.149  L 179.434, 21.400  L 178.244, 19.364  L 181.918, 22.757  L 178.411, 19.191  L 182.085, 22.585  L 178.578, 19.019  L 182.252, 22.412  L 181.140, 20.332  L 184.683, 23.862  L 181.313, 20.166  L 184.857, 23.696  L 181.487, 20.000  L 185.030, 23.530  L 183.997, 21.409  L 187.406, 25.069  L 184.176, 21.250  L 187.585, 24.910  L 184.356, 21.090  L 187.765, 24.750  L 186.811, 22.593  L 190.083, 26.375  L 186.996, 22.440  L 190.268, 26.223  L 187.181, 22.287  L 190.453, 26.070 "/>
    </g>
</svg>
