<?xml version="1.0" encoding="utf-8" ?>
<svg xmlns="http://www.w3.org/2000/svg" xmlns:ev="http://www.w3.org/2001/xml-events" xmlns:xlink="http://www.w3.org/1999/xlink" baseProfile="full" height="50mm" version="1.1" viewBox="0,0,200,50" width="200mm">
    <defs>
        <style type="text/css"><![CDATA[
.stitch_line {
    stroke-width: 0.3;
    stroke-linejoin: round;
    stroke-linecap: round;
    fill: none;
}
.path_center_line {
    fill: none;
    stroke:#808080;
    stroke-width: 0.2;
    stroke-linejoin: round;
    stroke-linecap: round;
}
.path_contour {
    fill: #808080;
    fill-opacity: 0.3;
    stroke: #808080;
    stroke-opacity: 1;
    stroke-width: 0.3;
}
.text{
    text-anchor: middle;
    dominant-baseline: middle;
    font-family: sans-serif;
    font-size: 1.5mm;
}
.smalltext{
    text-anchor: middle;
    dominant-baseline: middle;
    font-family: sans-serif;
    font-size: 1mm;
}
.color_0 {
    stroke:#3bb2d0;
}
.dot_0 {
    marker-start:url(#dot_0);
    marker-mid:url(#dot_0);
    marker-end:url(#dot_0);
}
]]></style>
        <marker id="dot_0" markerHeight="3.0" markerWidth="3.0" refX="1.5" refY="1.5">
            <circle cx="1.5" cy="1.5" fill="#3bb2d0" r="1.5"/>
        </marker>
    </defs>
    <g>
        <path class="stitch_line color_0 dot_0" d="M 10.000, 25.000  L 10.894, 28.801  L 10.000, 25.000  L 13.578, 23.435  L 10.000, 25.000  L 9.106, 21.199  L 10.000, 25.000  L 6.422, 26.565  L 10.000, 25.000  L 12.728, 26.302  L 13.760, 30.069  L 12.728, 26.302  L 16.246, 24.608  L 12.728, 26.302  L 11.695, 22.536  L 12.728, 26.302  L 9.209, 27.997  L 12.728, 26.302  L 15.501, 27.504  L 16.673, 31.229  L 15.501, 27.504  L 18.954, 25.679  L 15.501, 27.504  L 14.330, 23.778  L 15.501, 27.504  L 12.048, 29.328  L 15.501, 27.504  L 18.318, 28.600  L 19.629, 32.279  L 18.318, 28.600  L 21.700, 26.647  L 18.318, 28.600  L 17.007, 24.922  L 18.318, 28.600  L 14.936, 30.553  L 18.318, 28.600  L 21.174, 29.590  L 22.623, 33.216  L 21.174, 29.590  L 24.479, 27.510  L 21.174, 29.590  L 19.725, 25.963  L 21.174, 29.590  L 17.868, 31.669  L 21.174, 29.590  L 24.065, 30.470  L 25.651, 34.039  L 24.065, 30.470  L 27.290, 28.267  L 24.065, 30.470  L 22.480, 26.901  L 24.065, 30.470  L 20.841, 32.673  L 24.065, 30.470  L 26.988, 31.240  L 28.707, 34.747  L 26.988, 31.240  L 30.127, 28.917  L 26.988, 31.240  L 25.269, 27.734  L 26.988, 31.240  L 23.849, 33.564  L 26.988, 31.240  L 29.938, 31.901  L 31.786, 35.341  L 29.938, 31.901  L 32.988, 29.463  L 29.938, 31.901  L 28.090, 28.461  L 29.938, 31.901  L 26.887, 34.339  L 29.938, 31.901  L 32.910, 32.452  L 34.882, 35.823  L 32.910, 32.452  L 35.869, 29.904  L 32.910, 32.452  L 30.937, 29.082  L 32.910, 32.452  L 29.950, 35.000  L 32.910, 32.452  L 35.899, 32.896  L 37.990, 36.194  L 35.899, 32.896  L 38.766, 30.245  L 35.899, 32.896  L 33.808, 29.598  L 35.899, 32.896  L 33.032, 35.547  L 35.899, 32.896  L 38.903, 33.235  L 41.106, 36.460  L 38.903, 33.235  L 41.677, 30.487  L 38.903, 33.235  L 36.700, 30.011  L 38.903, 33.235  L 36.129, 35.984  L 38.903, 33.235  L 41.916, 33.473  L 44.225, 36.623  L 41.916, 33.473  L 44.598, 30.634  L 41.916, 33.473  L 39.608, 30.323  L 41.916, 33.473  L 39.234, 36.311  L 41.916, 33.473  L 44.936, 33.613  L 47.342, 36.688  L 44.936, 33.613  L 47.527, 30.691  L 44.936, 33.613  L 42.529, 30.538  L 44.936, 33.613  L 42.345, 36.535  L 44.936, 33.613  L 47.958, 33.660  L 50.456, 36.662  L 47.958, 33.660  L 50.460, 30.662  L 47.958, 33.660  L 45.460, 30.658  L 47.958, 33.660  L 45.456, 36.658  L 47.958, 33.660  L 50.980, 33.619  L 53.562, 36.550  L 50.980, 33.619  L 53.397, 30.552  L 50.980, 33.619  L 48.399, 30.689  L 50.980, 33.619  L 48.564, 36.687  L 50.980, 33.619  L 54.000, 33.496  L 56.659, 36.356  L 54.000, 33.496  L 56.335, 30.365  L 54.000, 33.496  L 51.342, 30.635  L 54.000, 33.496  L 51.666, 36.626  L 54.000, 33.496  L 57.016, 33.295  L 59.745, 36.089  L 57.016, 33.295  L 59.273, 30.107  L 57.016, 33.295  L 54.288, 30.501  L 57.016, 33.295  L 54.760, 36.482  L 57.016, 33.295  L 60.027, 33.022  L 62.818, 35.753  L 60.027, 33.022  L 62.209, 29.784  L 60.027, 33.022  L 57.235, 30.291  L 60.027, 33.022  L 57.844, 36.260  L 60.027, 33.022  L 63.030, 32.683  L 65.879, 35.354  L 63.030, 32.683  L 65.144, 29.399  L 63.030, 32.683  L 60.182, 30.012  L 63.030, 32.683  L 60.917, 35.967  L 63.030, 32.683  L 66.026, 32.283  L 68.926, 34.899  L 66.026, 32.283  L 68.076, 28.959  L 66.026, 32.283  L 63.127, 29.668  L 66.026, 32.283  L 63.977, 35.607  L 66.026, 32.283  L 69.015, 31.828  L 71.960, 34.392  L 69.015, 31.828  L 71.006, 28.469  L 69.015, 31.828  L 66.069, 29.264  L 69.015, 31.828  L 67.024, 35.188  L 69.015, 31.828  L 71.995, 31.323  L 74.981, 33.841  L 71.995, 31.323  L 73.933, 27.933  L 71.995, 31.323  L 69.009, 28.806  L 71.995, 31.323  L 70.057, 34.714  L 71.995, 31.323  L 74.967, 30.774  L 77.988, 33.249  L 74.967, 30.774  L 76.857, 27.356  L 74.967, 30.774  L 71.947, 28.299  L 74.967, 30.774  L 73.078, 34.192  L 74.967, 30.774  L 77.932, 30.185  L 80.984, 32.622  L 77.932, 30.185  L 79.779, 26.744  L 77.932, 30.185  L 74.881, 27.748  L 77.932, 30.185  L 76.085, 33.626  L 77.932, 30.185  L 80.890, 29.562  L 83.967, 31.966  L 80.890, 29.562  L 82.700, 26.102  L 80.890, 29.562  L 77.813, 27.158  L 80.890, 29.562  L 79.080, 33.023  L 80.890, 29.562  L 83.841, 28.909  L 86.941, 31.285  L 83.841, 28.909  L 85.619, 25.432  L 83.841, 28.909  L 80.742, 26.534  L 83.841, 28.909  L 82.064, 32.386  L 83.841, 28.909  L 86.787, 28.232  L 89.905, 30.584  L 86.787, 28.232  L 88.539, 24.742  L 86.787, 28.232  L 83.670, 25.880  L 86.787, 28.232  L 85.036, 31.722  L 86.787, 28.232  L 89.728, 27.534  L 92.860, 29.867  L 89.728, 27.534  L 91.459, 24.033  L 89.728, 27.534  L 86.597, 25.201  L 89.728, 27.534  L 87.998, 31.035  L 89.728, 27.534  L 92.666, 26.821  L 95.808, 29.140  L 92.666, 26.821  L 94.380, 23.313  L 92.666, 26.821  L 89.524, 24.502  L 92.666, 26.821  L 90.952, 30.330  L 92.666, 26.821  L 95.601, 26.097  L 98.750, 28.407  L 95.601, 26.097  L 97.304, 22.583  L 95.601, 26.097  L 92.452, 23.788  L 95.601, 26.097  L 93.897, 29.611  L 95.601, 26.097  L 98.534, 25.366  L 101.686, 27.671  L 98.534, 25.366  L 100.232, 21.850  L 98.534, 25.366  L 95.381, 23.062  L 98.534, 25.366  L 96.835, 28.883  L 98.534, 25.366  L 101.466, 24.634  L 104.619, 26.938  L 101.466, 24.634  L 103.165, 21.117  L 101.466, 24.634  L 98.314, 22.329  L 101.466, 24.634  L 99.768, 28.150  L 101.466, 24.634  L 104.399, 23.903  L 107.548, 26.212  L 104.399, 23.903  L 106.103, 20.389  L 104.399, 23.903  L 101.250, 21.593  L 104.399, 23.903  L 102.696, 27.417  L 104.399, 23.903  L 107.334, 23.179  L 110.476, 25.498  L 107.334, 23.179  L 109.048, 19.670  L 107.334, 23.179  L 104.192, 20.860  L 107.334, 23.179  L 105.620, 26.687  L 107.334, 23.179  L 110.272, 22.466  L 113.403, 24.799  L 110.272, 22.466  L 112.002, 18.965  L 110.272, 22.466  L 107.140, 20.133  L 110.272, 22.466  L 108.541, 25.967  L 110.272, 22.466  L 113.213, 21.768  L 116.330, 24.120  L 113.213, 21.768  L 114.964, 18.278  L 113.213, 21.768  L 110.095, 19.416  L 113.213, 21.768  L 111.461, 25.258  L 113.213, 21.768  L 116.159, 21.091  L 119.258, 23.466  L 116.159, 21.091  L 117.936, 17.614  L 116.159, 21.091  L 113.059, 18.715  L 116.159, 21.091  L 114.381, 24.568  L 116.159, 21.091  L 119.110, 20.438  L 122.187, 22.842  L 119.110, 20.438  L 120.920, 16.977  L 119.110, 20.438  L 116.033, 18.034  L 119.110, 20.438  L 117.300, 23.898  L 119.110, 20.438  L 122.068, 19.815  L 125.119, 22.252  L 122.068, 19.815  L 123.915, 16.374  L 122.068, 19.815  L 119.016, 17.378  L 122.068, 19.815  L 120.221, 23.256  L 122.068, 19.815  L 125.033, 19.226  L 128.053, 21.701  L 125.033, 19.226  L 126.922, 15.808  L 125.033, 19.226  L 122.012, 16.751  L 125.033, 19.226  L 123.143, 22.644  L 125.033, 19.226  L 128.005, 18.677  L 130.991, 21.194  L 128.005, 18.677  L 129.943, 15.286  L 128.005, 18.677  L 125.019, 16.159  L 128.005, 18.677  L 126.067, 22.067  L 128.005, 18.677  L 130.985, 18.172  L 133.931, 20.736  L 130.985, 18.172  L 132.976, 14.812  L 130.985, 18.172  L 128.040, 15.608  L 130.985, 18.172  L 128.994, 21.531  L 130.985, 18.172  L 133.974, 17.717  L 136.873, 20.332  L 133.974, 17.717  L 136.023, 14.393  L 133.974, 17.717  L 131.074, 15.101  L 133.974, 17.717  L 131.924, 21.041  L 133.974, 17.717  L 136.970, 17.317  L 139.818, 19.988  L 136.970, 17.317  L 139.083, 14.033  L 136.970, 17.317  L 134.121, 14.646  L 136.970, 17.317  L 134.856, 20.601  L 136.970, 17.317  L 139.973, 16.978  L 142.765, 19.709  L 139.973, 16.978  L 142.156, 13.740  L 139.973, 16.978  L 137.182, 14.247  L 139.973, 16.978  L 137.791, 20.216  L 139.973, 16.978  L 142.984, 16.705  L 145.712, 19.499  L 142.984, 16.705  L 145.240, 13.518  L 142.984, 16.705  L 140.255, 13.911  L 142.984, 16.705  L 140.727, 19.893  L 142.984, 16.705  L 146.000, 16.504  L 148.658, 19.365  L 146.000, 16.504  L 148.334, 13.374  L 146.000, 16.504  L 143.341, 13.644  L 146.000, 16.504  L 143.665, 19.635  L 146.000, 16.504  L 149.020, 16.381  L 151.601, 19.311  L 149.020, 16.381  L 151.436, 13.313  L 149.020, 16.381  L 146.438, 13.450  L 149.020, 16.381  L 146.603, 19.448  L 149.020, 16.381  L 152.042, 16.340  L 154.540, 19.342  L 152.042, 16.340  L 154.544, 13.342  L 152.042, 16.340  L 149.544, 13.338  L 152.042, 16.340  L 149.540, 19.338  L 152.042, 16.340  L 155.064, 16.387  L 157.471, 19.462  L 155.064, 16.387  L 157.655, 13.465  L 155.064, 16.387  L 152.658, 13.312  L 155.064, 16.387  L 152.473, 19.309  L 155.064, 16.387  L 158.084, 16.527  L 160.392, 19.677  L 158.084, 16.527  L 160.766, 13.689  L 158.084, 16.527  L 155.775, 13.377  L 158.084, 16.527  L 155.402, 19.366  L 158.084, 16.527  L 161.097, 16.765  L 163.300, 19.989  L 161.097, 16.765  L 163.871, 14.016  L 161.097, 16.765  L 158.894, 13.540  L 161.097, 16.765  L 158.323, 19.513  L 161.097, 16.765  L 164.101, 17.104  L 166.192, 20.402  L 164.101, 17.104  L 166.968, 14.453  L 164.101, 17.104  L 162.010, 13.806  L 164.101, 17.104  L 161.234, 19.755  L 164.101, 17.104  L 167.090, 17.548  L 169.063, 20.918  L 167.090, 17.548  L 170.050, 15.000  L 167.090, 17.548  L 165.118, 14.177  L 167.090, 17.548  L 164.131, 20.096  L 167.090, 17.548  L 170.062, 18.099  L 171.910, 21.539  L 170.062, 18.099  L 173.113, 15.661  L 170.062, 18.099  L 168.214, 14.659  L 170.062, 18.099  L 167.012, 20.537  L 170.062, 18.099  L 173.012, 18.760  L 174.731, 22.266  L 173.012, 18.760  L 176.151, 16.436  L 173.012, 18.760  L 171.293, 15.253  L 173.012, 18.760  L 169.873, 21.083  L 173.012, 18.760  L 175.935, 19.530  L 177.520, 23.099  L 175.935, 19.530  L 179.159, 17.327  L 175.935, 19.530  L 174.349, 15.961  L 175.935, 19.530  L 172.710, 21.733  L 175.935, 19.530  L 178.826, 20.410  L 180.275, 24.037  L 178.826, 20.410  L 182.132, 18.331  L 178.826, 20.410  L 177.377, 16.784  L 178.826, 20.410  L 175.521, 22.490  L 178.826, 20.410  L 181.682, 21.400  L 182.993, 25.078  L 181.682, 21.400  L 185.064, 19.447  L 181.682, 21.400  L 180.371, 17.721  L 181.682, 21.400  L 178.300, 23.353  L 181.682, 21.400  L 184.499, 22.496  L 185.670, 26.222  L 184.499, 22.496  L 187.952, 20.672  L 184.499, 22.496  L 183.327, 18.771  L 184.499, 22.496  L 181.046, 24.321  L 184.499, 22.496  L 187.272, 23.698  L 188.305, 27.464  L 187.272, 23.698  L 190.791, 22.003  L 187.272, 23.698  L 186.240, 19.931  L 187.272, 23.698  L 183.754, 25.392  L 187.272, 23.698  L 190.000, 25.000  L 190.894, 28.801  L 190.000, 25.000  L 193.578, 23.435  L 190.000, 25.000  L 189.106, 21.199  L 190.000, 25.000  L 186.422, 26.565  L 190.000, 25.000 "/>
    </g>
</svg>
