<?xml version="1.0" encoding="utf-8" ?>
<svg xmlns="http://www.w3.org/2000/svg" xmlns:ev="http://www.w3.org/2001/xml-events" xmlns:xlink="http://www.w3.org/1999/xlink" baseProfile="full" height="50mm" version="1.1" viewBox="0,0,200,50" width="200mm">
    <defs>
        <style type="text/css"><![CDATA[
.stitch_line {
    stroke-width: 0.3;
    stroke-linejoin: round;
    stroke-linecap: round;
    fill: none;
}
.sampling_line {
    stroke:#148983;
    stroke-width: 0.5;
    fill: none;
}
.path_handle {
    stroke-width: 0.5;
    stroke-linejoin: round;
    stroke-linecap: round;
    fill:none;
    stroke: #808080;
    marker-start: url(#handles);
    marker-mid: url(#handles);
    marker-end: url(#handles);
}
.path_center_line {
    stroke-width: 0.2;
    stroke-linejoin: round;
    stroke-linecap: round;
    fill: none;
    stroke:#148983;
    stroke-dasharray: 2,1.5;
    stroke-dashoffset: 1;
}
.path_contour {
    stroke: #85c4c1;
    fill-opacity: 0;
    stroke-width: 0.3;
}
.path_direction_line {
    stroke-width: 0.05;
    fill: none;
    stroke: #85c4c1;
}
.text{
    text-anchor: middle;
    dominant-baseline: middle;
    font-family: sans-serif;
    font-size: 1.5mm;
}
.smalltext{
    text-anchor: middle;
    dominant-baseline: middle;
    font-family: sans-serif;
    font-size: 1mm;
}
.color_0 {
    stroke:#148983;
    marker-start:url(#dot_0);
    marker-mid:url(#dot_0);
    marker-end:url(#dot_0);
}
.color_1 {
    stroke:#1873ac;
    marker-start:url(#dot_1);
    marker-mid:url(#dot_1);
    marker-end:url(#dot_1);
}
.color_2 {
    stroke:#8c5290;
    marker-start:url(#dot_2);
    marker-mid:url(#dot_2);
    marker-end:url(#dot_2);
}
.color_3 {
    stroke:#61a09c;
    marker-start:url(#dot_3);
    marker-mid:url(#dot_3);
    marker-end:url(#dot_3);
}
.color_4 {
    stroke:#5ad2f4;
    marker-start:url(#dot_4);
    marker-mid:url(#dot_4);
    marker-end:url(#dot_4);
}
.color_5 {
    stroke:#0f6460;
    marker-start:url(#dot_5);
    marker-mid:url(#dot_5);
    marker-end:url(#dot_5);
}
.color_6 {
    stroke:#0f4668;
    marker-start:url(#dot_6);
    marker-mid:url(#dot_6);
    marker-end:url(#dot_6);
}
.color_7 {
    stroke:#543156;
    marker-start:url(#dot_7);
    marker-mid:url(#dot_7);
    marker-end:url(#dot_7);
}
.color_8 {
    stroke:#487673;
    marker-start:url(#dot_8);
    marker-mid:url(#dot_8);
    marker-end:url(#dot_8);
}
.color_9 {
    stroke:#0c8baf;
    marker-start:url(#dot_9);
    marker-mid:url(#dot_9);
    marker-end:url(#dot_9);
}
]]></style>
        <marker id="dot_0" markerHeight="3.0" markerWidth="3.0" refX="1.5" refY="1.5">
            <circle cx="1.5" cy="1.5" fill="#148983" r="1.5"/>
        </marker>
        <marker id="dot_1" markerHeight="3.0" markerWidth="3.0" refX="1.5" refY="1.5">
            <circle cx="1.5" cy="1.5" fill="#1873ac" r="1.5"/>
        </marker>
        <marker id="dot_2" markerHeight="3.0" markerWidth="3.0" refX="1.5" refY="1.5">
            <circle cx="1.5" cy="1.5" fill="#8c5290" r="1.5"/>
        </marker>
        <marker id="dot_3" markerHeight="3.0" markerWidth="3.0" refX="1.5" refY="1.5">
            <circle cx="1.5" cy="1.5" fill="#61a09c" r="1.5"/>
        </marker>
        <marker id="dot_4" markerHeight="3.0" markerWidth="3.0" refX="1.5" refY="1.5">
            <circle cx="1.5" cy="1.5" fill="#5ad2f4" r="1.5"/>
        </marker>
        <marker id="dot_5" markerHeight="3.0" markerWidth="3.0" refX="1.5" refY="1.5">
            <circle cx="1.5" cy="1.5" fill="#0f6460" r="1.5"/>
        </marker>
        <marker id="dot_6" markerHeight="3.0" markerWidth="3.0" refX="1.5" refY="1.5">
            <circle cx="1.5" cy="1.5" fill="#0f4668" r="1.5"/>
        </marker>
        <marker id="dot_7" markerHeight="3.0" markerWidth="3.0" refX="1.5" refY="1.5">
            <circle cx="1.5" cy="1.5" fill="#543156" r="1.5"/>
        </marker>
        <marker id="dot_8" markerHeight="3.0" markerWidth="3.0" refX="1.5" refY="1.5">
            <circle cx="1.5" cy="1.5" fill="#487673" r="1.5"/>
        </marker>
        <marker id="dot_9" markerHeight="3.0" markerWidth="3.0" refX="1.5" refY="1.5">
            <circle cx="1.5" cy="1.5" fill="#0c8baf" r="1.5"/>
        </marker>
    </defs>
    <g>
        <path class="stitch_line color_0" d="M 7.093, 26.342  L 10.000, 25.000  L 9.329, 21.870  L 12.157, 23.302  L 12.951, 26.404  L 10.099, 27.859  L 13.110, 29.234  L 15.902, 27.667  L 14.986, 24.599  L 17.817, 25.765  L 18.852, 28.795  L 16.124, 30.470  L 19.143, 31.572  L 21.803, 29.791  L 20.650, 26.805  L 23.487, 27.722  L 24.754, 30.662  L 22.164, 32.544  L 25.188, 33.390  L 27.705, 31.412  L 26.327, 28.522  L 29.172, 29.207  L 30.656, 32.044  L 28.214, 34.115  L 31.241, 34.722  L 33.607, 32.565  L 32.022, 29.784  L 34.877, 30.254  L 36.557, 32.979  L 34.268, 35.217  L 37.295, 35.604  L 39.508, 33.291  L 37.737, 30.624  L 40.603, 30.896  L 42.459, 33.505  L 40.321, 35.888  L 43.346, 36.074  L 45.410, 33.626  L 43.475, 31.075  L 46.353, 31.166  L 48.361, 33.660  L 46.368, 36.166  L 49.389, 36.170  L 51.311, 33.610  L 49.236, 31.172  L 52.125, 31.098  L 54.262, 33.481  L 52.406, 36.090  L 55.420, 35.932  L 57.213, 33.279  L 55.019, 30.948  L 57.918, 30.726  L 60.164, 33.008  L 58.431, 35.700  L 61.438, 35.400  L 63.115, 32.672  L 60.822, 30.438  L 63.731, 30.087  L 66.066, 32.278  L 64.441, 35.036  L 67.440, 34.614  L 69.016, 31.828  L 66.644, 29.678  L 69.562, 29.216  L 71.967, 31.328  L 70.434, 34.139  L 73.425, 33.615  L 74.918, 30.783  L 72.483, 28.705  L 75.408, 28.150  L 77.869, 30.198  L 76.411, 33.048  L 79.392, 32.443  L 80.820, 29.577  L 78.337, 27.556  L 81.269, 26.927  L 83.770, 28.925  L 82.370, 31.804  L 85.343, 31.137  L 86.721, 28.247  L 84.205, 26.268  L 87.144, 25.584  L 89.672, 27.548  L 88.311, 30.446  L 91.275, 29.736  L 92.623, 26.832  L 90.086, 24.880  L 93.030, 24.159  L 95.574, 26.104  L 94.235, 29.012  L 97.190, 28.279  L 98.525, 25.369  L 95.978, 23.428  L 98.929, 22.690  L 101.475, 24.631  L 100.141, 27.541  L 103.087, 26.804  L 104.426, 23.896  L 101.883, 21.951  L 104.840, 21.216  L 107.377, 23.168  L 106.029, 26.072  L 108.967, 25.350  L 110.328, 22.452  L 107.799, 20.488  L 110.762, 19.773  L 113.279, 21.753  L 111.900, 24.642  L 114.829, 23.953  L 116.230, 21.075  L 113.728, 19.076  L 116.698, 18.401  L 119.180, 20.423  L 117.753, 23.289  L 120.673, 22.652  L 122.131, 19.802  L 119.671, 17.754  L 122.647, 17.138  L 125.082, 19.217  L 123.589, 22.048  L 126.500, 21.482  L 128.033, 18.672  L 125.627, 16.559  L 128.611, 16.022  L 130.984, 18.172  L 129.407, 20.958  L 132.309, 20.481  L 133.934, 17.722  L 131.600, 15.532  L 134.593, 15.093  L 136.885, 17.328  L 135.208, 20.055  L 138.103, 19.684  L 139.836, 16.992  L 137.590, 14.710  L 140.593, 14.389  L 142.787, 16.721  L 140.994, 19.373  L 143.881, 19.127  L 145.738, 16.519  L 143.600, 14.135  L 146.613, 13.952  L 148.689, 16.390  L 146.766, 18.950  L 149.647, 18.846  L 151.639, 16.340  L 149.632, 13.846  L 152.656, 13.823  L 154.590, 16.374  L 152.526, 18.821  L 155.403, 18.878  L 157.541, 16.495  L 155.685, 13.886  L 158.721, 14.042  L 160.492, 16.709  L 158.278, 19.022  L 161.153, 19.259  L 163.443, 17.021  L 161.762, 14.296  L 164.809, 14.653  L 166.393, 17.435  L 164.027, 19.591  L 166.902, 20.026  L 169.344, 17.956  L 167.860, 15.119  L 170.917, 15.699  L 172.295, 18.588  L 169.778, 20.567  L 172.656, 21.220  L 175.246, 19.338  L 173.978, 16.398  L 177.043, 17.222  L 178.197, 20.209  L 175.536, 21.989  L 178.419, 22.881  L 181.148, 21.205  L 180.112, 18.176  L 183.183, 19.265  L 184.098, 22.333  L 181.306, 23.900  L 184.197, 25.052  L 187.049, 23.596  L 186.255, 20.495  L 189.329, 21.870  L 190.000, 25.000  L 187.093, 26.342 "/>
    </g>
</svg>
