<?xml version="1.0" encoding="utf-8" ?>
<svg xmlns="http://www.w3.org/2000/svg" xmlns:ev="http://www.w3.org/2001/xml-events" xmlns:xlink="http://www.w3.org/1999/xlink" baseProfile="full" height="50mm" version="1.1" viewBox="0,0,200,50" width="200mm">
    <defs>
        <style type="text/css"><![CDATA[
.stitch_line {
    stroke-width: 0.3;
    stroke-linejoin: round;
    stroke-linecap: round;
    fill: none;
}
.path_center_line {
    fill: none;
    stroke:#808080;
    stroke-width: 0.2;
    stroke-linejoin: round;
    stroke-linecap: round;
}
.path_contour {
    fill: #808080;
    fill-opacity: 0.3;
    stroke: #808080;
    stroke-opacity: 1;
    stroke-width: 0.3;
}
.text{
    text-anchor: middle;
    dominant-baseline: middle;
    font-family: sans-serif;
    font-size: 1.5mm;
}
.smalltext{
    text-anchor: middle;
    dominant-baseline: middle;
    font-family: sans-serif;
    font-size: 1mm;
}
.color_0 {
    stroke:#3bb2d0;
}
.dot_0 {
    marker-start:url(#dot_0);
    marker-mid:url(#dot_0);
    marker-end:url(#dot_0);
}
]]></style>
        <marker id="dot_0" markerHeight="3.0" markerWidth="3.0" refX="1.5" refY="1.5">
            <circle cx="1.5" cy="1.5" fill="#3bb2d0" r="1.5"/>
        </marker>
    </defs>
    <g>
        <path class="stitch_line color_0 dot_0" d="M 10.000, 25.000  L 12.857, 26.361  L 15.764, 27.611  L 18.718, 28.746  L 21.714, 29.763  L 24.749, 30.661  L 27.816, 31.437  L 26.085, 28.768  L 27.816, 31.437  L 25.147, 33.169  L 27.816, 31.437  L 29.283, 31.750  L 27.552, 29.081  L 29.283, 31.750  L 26.614, 33.482  L 29.283, 31.750  L 30.750, 32.063  L 29.019, 29.393  L 30.750, 32.063  L 28.081, 33.794  L 30.750, 32.063  L 33.620, 32.568  L 36.507, 32.973  L 39.405, 33.282  L 42.311, 33.497  L 45.223, 33.621  L 48.137, 33.660  L 45.854, 31.444  L 48.137, 33.660  L 45.921, 35.944  L 48.137, 33.660  L 49.637, 33.638  L 47.353, 31.422  L 49.637, 33.638  L 47.421, 35.921  L 49.637, 33.638  L 51.137, 33.615  L 48.853, 31.399  L 51.137, 33.615  L 48.921, 35.899  L 51.137, 33.615  L 54.049, 33.493  L 56.957, 33.299  L 59.860, 33.039  L 62.756, 32.716  L 65.646, 32.337  L 68.528, 31.906  L 65.939, 30.056  L 68.528, 31.906  L 66.679, 34.495  L 68.528, 31.906  L 70.008, 31.659  L 67.419, 29.810  L 70.008, 31.659  L 68.158, 34.248  L 70.008, 31.659  L 71.488, 31.413  L 68.898, 29.563  L 71.488, 31.413  L 69.638, 34.002  L 71.488, 31.413  L 74.355, 30.891  L 77.215, 30.331  L 80.069, 29.738  L 82.917, 29.117  L 85.759, 28.471  L 88.596, 27.805  L 85.882, 26.144  L 88.596, 27.805  L 86.935, 30.519  L 88.596, 27.805  L 90.055, 27.454  L 87.340, 25.793  L 90.055, 27.454  L 88.394, 30.168  L 90.055, 27.454  L 91.513, 27.103  L 88.799, 25.442  L 91.513, 27.103  L 89.852, 29.817  L 91.513, 27.103  L 94.344, 26.409  L 97.172, 25.706  L 100.000, 25.000  L 102.828, 24.294  L 105.656, 23.591  L 108.487, 22.897  L 105.773, 21.236  L 108.487, 22.897  L 106.826, 25.611  L 108.487, 22.897  L 109.945, 22.546  L 107.231, 20.885  L 109.945, 22.546  L 108.285, 25.260  L 109.945, 22.546  L 111.404, 22.195  L 108.690, 20.534  L 111.404, 22.195  L 109.743, 24.909  L 111.404, 22.195  L 114.241, 21.529  L 117.083, 20.883  L 119.931, 20.262  L 122.785, 19.669  L 125.645, 19.109  L 128.512, 18.587  L 125.923, 16.738  L 128.512, 18.587  L 126.663, 21.177  L 128.512, 18.587  L 129.992, 18.341  L 127.403, 16.491  L 129.992, 18.341  L 128.142, 20.930  L 129.992, 18.341  L 131.472, 18.094  L 128.882, 16.245  L 131.472, 18.094  L 129.622, 20.683  L 131.472, 18.094  L 134.354, 17.663  L 137.244, 17.284  L 140.140, 16.961  L 143.043, 16.701  L 145.951, 16.507  L 148.863, 16.385  L 146.580, 14.169  L 148.863, 16.385  L 146.648, 18.669  L 148.863, 16.385  L 150.363, 16.362  L 148.079, 14.147  L 150.363, 16.362  L 148.147, 18.646  L 150.363, 16.362  L 151.863, 16.340  L 149.579, 14.124  L 151.863, 16.340  L 149.647, 18.623  L 151.863, 16.340  L 154.777, 16.379  L 157.689, 16.503  L 160.595, 16.718  L 163.493, 17.027  L 166.380, 17.432  L 169.250, 17.937  L 167.518, 15.268  L 169.250, 17.937  L 166.581, 19.669  L 169.250, 17.937  L 170.717, 18.250  L 168.985, 15.580  L 170.717, 18.250  L 168.048, 19.981  L 170.717, 18.250  L 172.184, 18.563  L 170.452, 15.893  L 172.184, 18.563  L 169.515, 20.294  L 172.184, 18.563  L 175.251, 19.339  L 178.286, 20.237  L 181.282, 21.254  L 184.236, 22.389  L 187.143, 23.639  L 190.000, 25.000 "/>
    </g>
</svg>
