<?xml version="1.0" encoding="utf-8" ?>
<svg xmlns="http://www.w3.org/2000/svg" xmlns:ev="http://www.w3.org/2001/xml-events" xmlns:xlink="http://www.w3.org/1999/xlink" baseProfile="full" height="50mm" version="1.1" viewBox="0,0,200,50" width="200mm">
    <defs>
        <style type="text/css"><![CDATA[
.stitch_line {
    stroke-width: 0.3;
    stroke-linejoin: round;
    stroke-linecap: round;
    fill: none;
}
.path_center_line {
    fill: none;
    stroke:#808080;
    stroke-width: 0.2;
    stroke-linejoin: round;
    stroke-linecap: round;
}
.path_contour {
    fill: #808080;
    fill-opacity: 0.3;
    stroke: #808080;
    stroke-opacity: 1;
    stroke-width: 0.3;
}
.text{
    text-anchor: middle;
    dominant-baseline: middle;
    font-family: sans-serif;
    font-size: 1.5mm;
}
.smalltext{
    text-anchor: middle;
    dominant-baseline: middle;
    font-family: sans-serif;
    font-size: 1mm;
}
.color_0 {
    stroke:#3bb2d0;
}
.dot_0 {
    marker-start:url(#dot_0);
    marker-mid:url(#dot_0);
    marker-end:url(#dot_0);
}
]]></style>
        <marker id="dot_0" markerHeight="3.0" markerWidth="3.0" refX="1.5" refY="1.5">
            <circle cx="1.5" cy="1.5" fill="#3bb2d0" r="1.5"/>
        </marker>
    </defs>
    <g>
        <path class="stitch_line color_0 dot_0" d="M 10.000, 25.000  L 11.789, 21.422  L 10.000, 25.000  L 12.728, 26.302  L 14.385, 22.662  L 12.728, 26.302  L 15.501, 27.504  L 17.022, 23.804  L 15.501, 27.504  L 18.318, 28.600  L 19.699, 24.846  L 18.318, 28.600  L 21.174, 29.590  L 22.411, 25.786  L 21.174, 29.590  L 24.065, 30.470  L 25.158, 26.622  L 24.065, 30.470  L 26.988, 31.240  L 27.935, 27.354  L 26.988, 31.240  L 29.938, 31.901  L 30.739, 27.982  L 29.938, 31.901  L 32.910, 32.452  L 33.568, 28.507  L 32.910, 32.452  L 35.899, 32.896  L 36.417, 28.930  L 35.899, 32.896  L 38.903, 33.235  L 39.284, 29.253  L 38.903, 33.235  L 41.916, 33.473  L 42.165, 29.481  L 41.916, 33.473  L 44.936, 33.613  L 45.059, 29.615  L 44.936, 33.613  L 47.958, 33.660  L 47.961, 29.660  L 47.958, 33.660  L 50.980, 33.619  L 50.870, 29.621  L 50.980, 33.619  L 54.000, 33.496  L 53.784, 29.502  L 54.000, 33.496  L 57.016, 33.295  L 56.702, 29.307  L 57.016, 33.295  L 60.027, 33.022  L 59.621, 29.043  L 60.027, 33.022  L 63.030, 32.683  L 62.540, 28.713  L 63.030, 32.683  L 66.026, 32.283  L 65.460, 28.323  L 66.026, 32.283  L 69.015, 31.828  L 68.379, 27.879  L 69.015, 31.828  L 71.995, 31.323  L 71.296, 27.385  L 71.995, 31.323  L 74.967, 30.774  L 74.213, 26.846  L 74.967, 30.774  L 77.932, 30.185  L 77.129, 26.267  L 77.932, 30.185  L 80.890, 29.562  L 80.045, 25.652  L 80.890, 29.562  L 83.841, 28.909  L 82.960, 25.008  L 83.841, 28.909  L 86.787, 28.232  L 85.877, 24.337  L 86.787, 28.232  L 89.728, 27.534  L 88.794, 23.645  L 89.728, 27.534  L 92.666, 26.821  L 91.714, 22.936  L 92.666, 26.821  L 95.601, 26.097  L 94.637, 22.215  L 95.601, 26.097  L 98.534, 25.366  L 97.564, 21.486  L 98.534, 25.366  L 101.466, 24.634  L 100.497, 20.753  L 101.466, 24.634  L 104.399, 23.903  L 103.436, 20.021  L 104.399, 23.903  L 107.334, 23.179  L 106.382, 19.294  L 107.334, 23.179  L 110.272, 22.466  L 109.337, 18.576  L 110.272, 22.466  L 113.213, 21.768  L 112.302, 17.873  L 113.213, 21.768  L 116.159, 21.091  L 115.277, 17.189  L 116.159, 21.091  L 119.110, 20.438  L 118.265, 16.528  L 119.110, 20.438  L 122.068, 19.815  L 121.265, 15.896  L 122.068, 19.815  L 125.033, 19.226  L 124.278, 15.298  L 125.033, 19.226  L 128.005, 18.677  L 127.306, 14.738  L 128.005, 18.677  L 130.985, 18.172  L 130.349, 14.223  L 130.985, 18.172  L 133.974, 17.717  L 133.407, 13.757  L 133.974, 17.717  L 136.970, 17.317  L 136.480, 13.347  L 136.970, 17.317  L 139.973, 16.978  L 139.567, 12.999  L 139.973, 16.978  L 142.984, 16.705  L 142.669, 12.718  L 142.984, 16.705  L 146.000, 16.504  L 145.784, 12.510  L 146.000, 16.504  L 149.020, 16.381  L 148.910, 12.382  L 149.020, 16.381  L 152.042, 16.340  L 152.045, 12.340  L 152.042, 16.340  L 155.064, 16.387  L 155.187, 12.389  L 155.064, 16.387  L 158.084, 16.527  L 158.333, 12.535  L 158.084, 16.527  L 161.097, 16.765  L 161.478, 12.783  L 161.097, 16.765  L 164.101, 17.104  L 164.618, 13.138  L 164.101, 17.104  L 167.090, 17.548  L 167.748, 13.602  L 167.090, 17.548  L 170.062, 18.099  L 170.864, 14.180  L 170.062, 18.099  L 173.012, 18.760  L 173.958, 14.873  L 173.012, 18.760  L 175.935, 19.530  L 177.027, 15.682  L 175.935, 19.530  L 178.826, 20.410  L 180.064, 16.607  L 178.826, 20.410  L 181.682, 21.400  L 183.063, 17.646  L 181.682, 21.400  L 184.499, 22.496  L 186.020, 18.797  L 184.499, 22.496  L 187.272, 23.698  L 188.930, 20.057  L 187.272, 23.698  L 190.000, 25.000  L 191.789, 21.422  L 190.000, 25.000 "/>
    </g>
</svg>
