<?xml version="1.0" encoding="utf-8" ?>
<svg xmlns="http://www.w3.org/2000/svg" xmlns:ev="http://www.w3.org/2001/xml-events" xmlns:xlink="http://www.w3.org/1999/xlink" baseProfile="full" height="50mm" version="1.1" viewBox="0,0,200,50" width="200mm">
    <defs>
        <style type="text/css"><![CDATA[
.stitch_line {
    stroke-width: 0.3;
    stroke-linejoin: round;
    stroke-linecap: round;
    fill: none;
}
.sampling_line {
    stroke:#148983;
    stroke-width: 0.5;
    fill: none;
}
.path_handle {
    stroke-width: 0.5;
    stroke-linejoin: round;
    stroke-linecap: round;
    fill:none;
    stroke: #808080;
    marker-start: url(#handles);
    marker-mid: url(#handles);
    marker-end: url(#handles);
}
.path_center_line {
    stroke-width: 0.2;
    stroke-linejoin: round;
    stroke-linecap: round;
    fill: none;
    stroke:#148983;
    stroke-dasharray: 2,1.5;
    stroke-dashoffset: 1;
}
.path_contour {
    stroke: #85c4c1;
    fill-opacity: 0;
    stroke-width: 0.3;
}
.path_direction_line {
    stroke-width: 0.05;
    fill: none;
    stroke: #85c4c1;
}
.text{
    text-anchor: middle;
    dominant-baseline: middle;
    font-family: sans-serif;
    font-size: 1.5mm;
}
.smalltext{
    text-anchor: middle;
    dominant-baseline: middle;
    font-family: sans-serif;
    font-size: 1mm;
}
.color_0 {
    stroke:#148983;
    marker-start:url(#dot_0);
    marker-mid:url(#dot_0);
    marker-end:url(#dot_0);
}
.color_1 {
    stroke:#1873ac;
    marker-start:url(#dot_1);
    marker-mid:url(#dot_1);
    marker-end:url(#dot_1);
}
.color_2 {
    stroke:#8c5290;
    marker-start:url(#dot_2);
    marker-mid:url(#dot_2);
    marker-end:url(#dot_2);
}
.color_3 {
    stroke:#61a09c;
    marker-start:url(#dot_3);
    marker-mid:url(#dot_3);
    marker-end:url(#dot_3);
}
.color_4 {
    stroke:#5ad2f4;
    marker-start:url(#dot_4);
    marker-mid:url(#dot_4);
    marker-end:url(#dot_4);
}
.color_5 {
    stroke:#0f6460;
    marker-start:url(#dot_5);
    marker-mid:url(#dot_5);
    marker-end:url(#dot_5);
}
.color_6 {
    stroke:#0f4668;
    marker-start:url(#dot_6);
    marker-mid:url(#dot_6);
    marker-end:url(#dot_6);
}
.color_7 {
    stroke:#543156;
    marker-start:url(#dot_7);
    marker-mid:url(#dot_7);
    marker-end:url(#dot_7);
}
.color_8 {
    stroke:#487673;
    marker-start:url(#dot_8);
    marker-mid:url(#dot_8);
    marker-end:url(#dot_8);
}
.color_9 {
    stroke:#0c8baf;
    marker-start:url(#dot_9);
    marker-mid:url(#dot_9);
    marker-end:url(#dot_9);
}
]]></style>
        <marker id="dot_0" markerHeight="3.0" markerWidth="3.0" refX="1.5" refY="1.5">
            <circle cx="1.5" cy="1.5" fill="#148983" r="1.5"/>
        </marker>
        <marker id="dot_1" markerHeight="3.0" markerWidth="3.0" refX="1.5" refY="1.5">
            <circle cx="1.5" cy="1.5" fill="#1873ac" r="1.5"/>
        </marker>
        <marker id="dot_2" markerHeight="3.0" markerWidth="3.0" refX="1.5" refY="1.5">
            <circle cx="1.5" cy="1.5" fill="#8c5290" r="1.5"/>
        </marker>
        <marker id="dot_3" markerHeight="3.0" markerWidth="3.0" refX="1.5" refY="1.5">
            <circle cx="1.5" cy="1.5" fill="#61a09c" r="1.5"/>
        </marker>
        <marker id="dot_4" markerHeight="3.0" markerWidth="3.0" refX="1.5" refY="1.5">
            <circle cx="1.5" cy="1.5" fill="#5ad2f4" r="1.5"/>
        </marker>
        <marker id="dot_5" markerHeight="3.0" markerWidth="3.0" refX="1.5" refY="1.5">
            <circle cx="1.5" cy="1.5" fill="#0f6460" r="1.5"/>
        </marker>
        <marker id="dot_6" markerHeight="3.0" markerWidth="3.0" refX="1.5" refY="1.5">
            <circle cx="1.5" cy="1.5" fill="#0f4668" r="1.5"/>
        </marker>
        <marker id="dot_7" markerHeight="3.0" markerWidth="3.0" refX="1.5" refY="1.5">
            <circle cx="1.5" cy="1.5" fill="#543156" r="1.5"/>
        </marker>
        <marker id="dot_8" markerHeight="3.0" markerWidth="3.0" refX="1.5" refY="1.5">
            <circle cx="1.5" cy="1.5" fill="#487673" r="1.5"/>
        </marker>
        <marker id="dot_9" markerHeight="3.0" markerWidth="3.0" refX="1.5" refY="1.5">
            <circle cx="1.5" cy="1.5" fill="#0c8baf" r="1.5"/>
        </marker>
    </defs>
    <g>
        <path class="stitch_line color_0" d="M 9.641, 23.978  L 12.918, 27.757  L 9.826, 23.825  L 13.103, 27.604  L 10.011, 23.672  L 13.288, 27.451  L 12.525, 25.385  L 15.948, 29.031  L 12.703, 25.225  L 16.127, 28.871  L 12.882, 25.065  L 16.306, 28.711  L 15.411, 26.656  L 18.976, 30.164  L 15.584, 26.489  L 19.148, 29.997  L 15.756, 26.322  L 19.321, 29.830  L 18.301, 27.796  L 22.001, 31.162  L 18.467, 27.622  L 22.167, 30.988  L 18.633, 27.449  L 22.332, 30.815  L 21.195, 28.809  L 25.022, 32.029  L 21.354, 28.629  L 25.181, 31.849  L 21.513, 28.449  L 25.340, 31.669  L 24.093, 29.699  L 28.040, 32.770  L 24.245, 29.513  L 28.192, 32.584  L 24.396, 29.328  L 28.344, 32.399  L 26.995, 30.471  L 31.054, 33.392  L 27.139, 30.279  L 31.199, 33.200  L 27.284, 30.088  L 31.344, 33.009  L 29.900, 31.128  L 34.064, 33.899  L 30.038, 30.931  L 34.202, 33.702  L 30.176, 30.735  L 34.340, 33.505  L 32.811, 31.674  L 37.070, 34.296  L 32.941, 31.473  L 37.200, 34.095  L 33.072, 31.272  L 37.331, 33.893  L 35.725, 32.115  L 40.071, 34.590  L 35.849, 31.909  L 40.195, 34.384  L 35.972, 31.703  L 40.319, 34.178  L 38.643, 32.453  L 43.068, 34.784  L 38.760, 32.244  L 43.185, 34.575  L 38.877, 32.034  L 43.302, 34.365  L 41.565, 32.694  L 46.061, 34.885  L 41.675, 32.481  L 46.171, 34.672  L 41.786, 32.268  L 46.282, 34.459  L 44.491, 32.842  L 49.050, 34.898  L 44.595, 32.626  L 49.154, 34.682  L 44.698, 32.409  L 49.258, 34.465  L 47.420, 32.901  L 52.035, 34.828  L 47.517, 32.682  L 52.133, 34.608  L 47.615, 32.463  L 52.230, 34.389  L 50.351, 32.876  L 55.016, 34.679  L 50.443, 32.654  L 55.108, 34.457  L 50.535, 32.432  L 55.200, 34.235  L 53.286, 32.771  L 57.995, 34.457  L 53.372, 32.547  L 58.081, 34.233  L 53.459, 32.323  L 58.167, 34.009  L 56.223, 32.590  L 60.970, 34.167  L 56.304, 32.365  L 61.051, 33.941  L 56.385, 32.139  L 61.132, 33.715  L 59.162, 32.340  L 63.942, 33.814  L 59.239, 32.112  L 64.018, 33.586  L 59.315, 31.885  L 64.094, 33.359  L 62.104, 32.023  L 66.911, 33.402  L 62.175, 31.794  L 66.983, 33.173  L 62.247, 31.565  L 67.055, 32.944  L 65.046, 31.646  L 69.878, 32.937  L 65.114, 31.415  L 69.946, 32.707  L 65.181, 31.185  L 70.013, 32.476  L 67.991, 31.212  L 72.843, 32.423  L 68.054, 30.980  L 72.907, 32.192  L 68.118, 30.749  L 72.971, 31.960  L 70.936, 30.726  L 75.806, 31.865  L 70.997, 30.494  L 75.867, 31.633  L 71.057, 30.261  L 75.927, 31.400  L 73.883, 30.194  L 78.768, 31.268  L 73.940, 29.961  L 78.825, 31.035  L 73.997, 29.727  L 78.882, 30.802  L 76.830, 29.619  L 81.727, 30.637  L 76.885, 29.385  L 81.782, 30.403  L 76.939, 29.152  L 81.836, 30.169  L 79.779, 29.007  L 84.685, 29.976  L 79.831, 28.773  L 84.737, 29.742  L 79.883, 28.539  L 84.789, 29.507  L 82.727, 28.363  L 87.642, 29.290  L 82.777, 28.128  L 87.692, 29.055  L 82.828, 27.894  L 87.742, 28.821  L 85.677, 27.691  L 90.598, 28.584  L 85.725, 27.456  L 90.646, 28.349  L 85.774, 27.221  L 90.695, 28.114  L 88.626, 26.996  L 93.552, 27.863  L 88.674, 26.761  L 93.599, 27.628  L 88.721, 26.526  L 93.647, 27.393  L 91.576, 26.283  L 96.505, 27.131  L 91.623, 26.048  L 96.552, 26.896  L 91.669, 25.812  L 96.598, 26.660  L 94.527, 25.557  L 99.458, 26.394  L 94.573, 25.321  L 99.504, 26.158  L 94.618, 25.086  L 99.549, 25.923  L 97.477, 24.822  L 102.409, 25.655  L 97.523, 24.586  L 102.455, 25.419  L 97.569, 24.351  L 102.500, 25.184  L 100.428, 24.083  L 105.359, 24.920  L 100.474, 23.847  L 105.405, 24.684  L 100.520, 23.612  L 105.451, 24.449  L 103.380, 23.345  L 108.309, 24.193  L 103.426, 23.110  L 108.355, 23.958  L 103.472, 22.874  L 108.401, 23.722  L 106.331, 22.613  L 111.257, 23.480  L 106.378, 22.378  L 111.304, 23.244  L 106.426, 22.142  L 111.352, 23.009  L 109.283, 21.891  L 114.204, 22.784  L 109.332, 21.656  L 114.253, 22.549  L 109.380, 21.421  L 114.301, 22.314  L 112.235, 21.184  L 117.150, 22.111  L 112.286, 20.950  L 117.200, 21.877  L 112.336, 20.715  L 117.251, 21.642  L 115.188, 20.498  L 120.095, 21.466  L 115.240, 20.263  L 120.147, 21.232  L 115.293, 20.029  L 120.199, 20.997  L 118.142, 19.835  L 123.039, 20.853  L 118.196, 19.602  L 123.093, 20.619  L 118.251, 19.368  L 123.148, 20.385  L 121.096, 19.203  L 125.981, 20.277  L 121.153, 18.970  L 126.038, 20.044  L 121.210, 18.736  L 126.095, 19.811  L 124.051, 18.604  L 128.921, 19.742  L 124.111, 18.372  L 128.981, 19.510  L 124.171, 18.139  L 129.042, 19.278  L 127.007, 18.044  L 131.860, 19.255  L 127.071, 17.813  L 131.923, 19.023  L 127.134, 17.581  L 131.987, 18.792  L 129.964, 17.527  L 134.796, 18.818  L 130.032, 17.297  L 134.864, 18.588  L 130.099, 17.067  L 134.931, 18.357  L 132.923, 17.059  L 137.731, 18.437  L 132.995, 16.830  L 137.803, 18.208  L 133.066, 16.601  L 137.874, 17.979  L 135.884, 16.644  L 140.663, 18.118  L 135.960, 16.417  L 140.739, 17.890  L 136.036, 16.189  L 140.816, 17.662  L 138.846, 16.287  L 143.593, 17.863  L 138.927, 16.061  L 143.674, 17.637  L 139.008, 15.835  L 143.755, 17.411  L 141.811, 15.993  L 146.519, 17.678  L 141.897, 15.769  L 146.606, 17.454  L 141.983, 15.545  L 146.692, 17.230  L 144.777, 15.766  L 149.443, 17.568  L 144.869, 15.544  L 149.535, 17.347  L 144.961, 15.322  L 149.627, 17.125  L 147.747, 15.612  L 152.363, 17.537  L 147.845, 15.392  L 152.461, 17.318  L 147.943, 15.173  L 152.558, 17.099  L 150.720, 15.535  L 155.280, 17.590  L 150.824, 15.319  L 155.384, 17.374  L 150.928, 15.102  L 155.487, 17.157  L 153.696, 15.541  L 158.192, 17.731  L 153.806, 15.327  L 158.303, 17.518  L 153.917, 15.114  L 158.413, 17.304  L 156.676, 15.634  L 161.101, 17.964  L 156.792, 15.424  L 161.218, 17.754  L 156.909, 15.215  L 161.335, 17.545  L 159.659, 15.820  L 164.006, 18.294  L 159.783, 15.614  L 164.130, 18.088  L 159.906, 15.409  L 164.253, 17.882  L 162.646, 16.104  L 166.906, 18.725  L 162.777, 15.903  L 167.037, 18.523  L 162.908, 15.701  L 167.168, 18.322  L 165.638, 16.491  L 169.802, 19.261  L 165.776, 16.295  L 169.940, 19.064  L 165.913, 16.098  L 170.078, 18.868  L 168.633, 16.987  L 172.694, 19.907  L 168.778, 16.795  L 172.839, 19.715  L 168.923, 16.604  L 172.984, 19.524  L 171.633, 17.596  L 175.582, 20.666  L 171.785, 17.411  L 175.734, 20.480  L 171.937, 17.225  L 175.885, 20.294  L 174.637, 18.325  L 178.466, 21.544  L 174.796, 18.145  L 178.624, 21.364  L 174.955, 17.965  L 178.783, 21.184  L 177.645, 19.179  L 181.346, 22.543  L 177.811, 19.005  L 181.511, 22.370  L 177.976, 18.831  L 181.677, 22.196  L 180.657, 20.162  L 184.222, 23.669  L 180.829, 19.995  L 184.395, 23.502  L 181.001, 19.828  L 184.567, 23.335  L 183.672, 21.280  L 187.096, 24.925  L 183.850, 21.120  L 187.275, 24.765  L 184.029, 20.960  L 187.454, 24.605  L 186.690, 22.539  L 189.967, 26.317  L 186.875, 22.386  L 190.152, 26.164  L 187.060, 22.233  L 190.337, 26.011 "/>
    </g>
</svg>
