<?xml version="1.0" encoding="utf-8" ?>
<svg xmlns="http://www.w3.org/2000/svg" xmlns:ev="http://www.w3.org/2001/xml-events" xmlns:xlink="http://www.w3.org/1999/xlink" baseProfile="full" height="50mm" version="1.1" viewBox="0,0,200,50" width="200mm">
    <defs>
        <style type="text/css"><![CDATA[
.stitch_line {
    stroke-width: 0.3;
    stroke-linejoin: round;
    stroke-linecap: round;
    fill: none;
}
.path_center_line {
    stroke-width: 0.2;
    stroke-linejoin: round;
    stroke-linecap: round;
    fill: none;
    stroke:#333;
}
.path_contour {
    stroke: #ddd;
    fill-opacity: 1;
    fill: #eee;
    stroke-width: 0.3;
}
.text{
    text-anchor: middle;
    dominant-baseline: middle;
    font-family: sans-serif;
    font-size: 1.5mm;
}
.smalltext{
    text-anchor: middle;
    dominant-baseline: middle;
    font-family: sans-serif;
    font-size: 1mm;
}
.color_0 {
    stroke:#148983;
}
.dot_0 {
    marker-start:url(#dot_0);
    marker-mid:url(#dot_0);
    marker-end:url(#dot_0);
}
]]></style>
        <marker id="dot_0" markerHeight="3.0" markerWidth="3.0" refX="1.5" refY="1.5">
            <circle cx="1.5" cy="1.5" fill="#148983" r="1.5"/>
        </marker>
    </defs>
    <g>
        <path class="stitch_line color_0 dot_0" d="M 8.882, 27.236  L 11.118, 22.764  L 13.980, 24.125  L 10.073, 25.595  L 8.882, 27.236  L 11.922, 28.682  L 13.980, 24.125  L 16.840, 25.350  L 13.042, 26.993  L 11.922, 28.682  L 14.963, 29.984  L 16.840, 25.350  L 19.699, 26.442  L 16.011, 28.250  L 14.963, 29.984  L 18.006, 31.147  L 19.699, 26.442  L 22.557, 27.408  L 18.980, 29.371  L 18.006, 31.147  L 21.050, 32.175  L 22.557, 27.408  L 25.415, 28.251  L 21.949, 30.361  L 21.050, 32.175  L 24.093, 33.073  L 25.415, 28.251  L 28.274, 28.977  L 24.919, 31.225  L 24.093, 33.073  L 27.135, 33.846  L 28.274, 28.977  L 31.135, 29.591  L 27.888, 31.967  L 27.135, 33.846  L 30.177, 34.498  L 31.135, 29.591  L 33.997, 30.096  L 30.857, 32.593  L 30.177, 34.498  L 33.216, 35.035  L 33.997, 30.096  L 36.862, 30.498  L 33.825, 33.106  L 33.216, 35.035  L 36.253, 35.461  L 36.862, 30.498  L 39.729, 30.801  L 36.793, 33.512  L 36.253, 35.461  L 39.287, 35.781  L 39.729, 30.801  L 42.600, 31.009  L 39.761, 33.815  L 39.287, 35.781  L 42.318, 36.001  L 42.600, 31.009  L 45.475, 31.127  L 42.727, 34.021  L 42.318, 36.001  L 45.345, 36.126  L 45.475, 31.127  L 48.353, 31.160  L 45.693, 34.134  L 45.345, 36.126  L 48.368, 36.160  L 48.353, 31.160  L 51.235, 31.111  L 48.659, 34.158  L 48.368, 36.160  L 51.388, 36.109  L 51.235, 31.111  L 54.122, 30.985  L 51.623, 34.100  L 51.388, 36.109  L 54.403, 35.977  L 54.122, 30.985  L 57.013, 30.787  L 54.587, 33.963  L 54.403, 35.977  L 57.414, 35.771  L 57.013, 30.787  L 59.908, 30.521  L 57.549, 33.753  L 57.414, 35.771  L 60.420, 35.495  L 59.908, 30.521  L 62.807, 30.191  L 60.511, 33.474  L 60.420, 35.495  L 63.422, 35.153  L 62.807, 30.191  L 65.711, 29.803  L 63.472, 33.132  L 63.422, 35.153  L 66.420, 34.752  L 65.711, 29.803  L 68.619, 29.360  L 66.433, 32.730  L 66.420, 34.752  L 69.414, 34.296  L 68.619, 29.360  L 71.531, 28.867  L 69.392, 32.274  L 69.414, 34.296  L 72.404, 33.790  L 71.531, 28.867  L 74.447, 28.328  L 72.350, 31.768  L 72.404, 33.790  L 75.389, 33.239  L 74.447, 28.328  L 77.368, 27.749  L 75.308, 31.218  L 75.389, 33.239  L 78.370, 32.647  L 77.368, 27.749  L 80.292, 27.134  L 78.265, 30.627  L 78.370, 32.647  L 81.347, 32.021  L 80.292, 27.134  L 83.220, 26.487  L 81.221, 30.002  L 81.347, 32.021  L 84.321, 31.364  L 83.220, 26.487  L 86.152, 25.813  L 84.176, 29.346  L 84.321, 31.364  L 87.290, 30.682  L 86.152, 25.813  L 89.088, 25.117  L 87.130, 28.665  L 87.290, 30.682  L 90.256, 29.979  L 89.088, 25.117  L 92.028, 24.404  L 90.084, 27.963  L 90.256, 29.979  L 93.218, 29.260  L 92.028, 24.404  L 94.972, 23.677  L 93.037, 27.245  L 93.218, 29.260  L 96.176, 28.530  L 94.972, 23.677  L 97.919, 22.943  L 95.989, 26.516  L 96.176, 28.530  L 99.130, 27.794  L 97.919, 22.943  L 100.870, 22.206  L 98.941, 25.780  L 99.130, 27.794  L 102.081, 27.057  L 100.870, 22.206  L 103.824, 21.470  L 101.892, 25.043  L 102.081, 27.057  L 105.028, 26.323  L 103.824, 21.470  L 106.782, 20.740  L 104.842, 24.308  L 105.028, 26.323  L 107.972, 25.596  L 106.782, 20.740  L 109.744, 20.021  L 107.791, 23.582  L 107.972, 25.596  L 110.912, 24.883  L 109.744, 20.021  L 112.710, 19.318  L 110.739, 22.868  L 110.912, 24.883  L 113.848, 24.187  L 112.710, 19.318  L 115.679, 18.636  L 113.687, 22.171  L 113.848, 24.187  L 116.780, 23.513  L 115.679, 18.636  L 118.653, 17.979  L 116.634, 21.496  L 116.780, 23.513  L 119.708, 22.866  L 118.653, 17.979  L 121.630, 17.353  L 119.580, 20.848  L 119.708, 22.866  L 122.632, 22.251  L 121.630, 17.353  L 124.611, 16.761  L 122.526, 20.232  L 122.632, 22.251  L 125.553, 21.672  L 124.611, 16.761  L 127.596, 16.210  L 125.471, 19.651  L 125.553, 21.672  L 128.469, 21.133  L 127.596, 16.210  L 130.586, 15.704  L 128.414, 19.112  L 128.469, 21.133  L 131.381, 20.640  L 130.586, 15.704  L 133.580, 15.248  L 131.357, 18.619  L 131.381, 20.640  L 134.289, 20.197  L 133.580, 15.248  L 136.578, 14.847  L 134.300, 18.176  L 134.289, 20.197  L 137.193, 19.809  L 136.578, 14.847  L 139.580, 14.505  L 137.241, 17.788  L 137.193, 19.809  L 140.092, 19.479  L 139.580, 14.505  L 142.586, 14.229  L 140.181, 17.459  L 140.092, 19.479  L 142.987, 19.213  L 142.586, 14.229  L 145.597, 14.023  L 143.121, 17.196  L 142.987, 19.213  L 145.878, 19.015  L 145.597, 14.023  L 148.612, 13.891  L 146.060, 17.002  L 145.878, 19.015  L 148.765, 18.889  L 148.612, 13.891  L 151.632, 13.840  L 148.998, 16.881  L 148.765, 18.889  L 151.647, 18.840  L 151.632, 13.840  L 154.655, 13.874  L 151.935, 16.840  L 151.647, 18.840  L 154.525, 18.873  L 154.655, 13.874  L 157.682, 13.999  L 154.871, 16.881  L 154.525, 18.873  L 157.400, 18.991  L 157.682, 13.999  L 160.713, 14.219  L 157.806, 17.011  L 157.400, 18.991  L 160.271, 19.199  L 160.713, 14.219  L 163.747, 14.539  L 160.741, 17.234  L 160.271, 19.199  L 163.138, 19.502  L 163.747, 14.539  L 166.784, 14.965  L 163.675, 17.553  L 163.138, 19.502  L 166.003, 19.904  L 166.784, 14.965  L 169.823, 15.502  L 166.609, 17.975  L 166.003, 19.904  L 168.865, 20.409  L 169.823, 15.502  L 172.865, 16.154  L 169.542, 18.504  L 168.865, 20.409  L 171.726, 21.023  L 172.865, 16.154  L 175.907, 16.927  L 172.474, 19.144  L 171.726, 21.023  L 174.585, 21.749  L 175.907, 16.927  L 178.950, 17.825  L 175.407, 19.901  L 174.585, 21.749  L 177.443, 22.592  L 178.950, 17.825  L 181.994, 18.853  L 178.339, 20.779  L 177.443, 22.592  L 180.301, 23.558  L 181.994, 18.853  L 185.037, 20.016  L 181.272, 21.782  L 180.301, 23.558  L 183.160, 24.650  L 185.037, 20.016  L 188.078, 21.318  L 184.204, 22.916  L 183.160, 24.650  L 186.020, 25.875  L 188.078, 21.318  L 191.118, 22.764  L 187.137, 24.185  L 186.020, 25.875  L 188.882, 27.236  L 191.118, 22.764  L 189.776, 25.447  L 188.321, 24.737  L 185.388, 23.412  L 182.456, 22.224  L 179.523, 21.168  L 176.591, 20.241  L 173.658, 19.436  L 170.726, 18.749  L 167.793, 18.176  L 164.860, 17.711  L 161.926, 17.351  L 158.991, 17.090  L 156.056, 16.923  L 153.120, 16.846  L 150.183, 16.855  L 147.246, 16.944  L 144.308, 17.109  L 141.368, 17.345  L 138.428, 17.648  L 135.487, 18.012  L 132.545, 18.433  L 129.603, 18.907  L 126.659, 19.428  L 123.715, 19.993  L 120.770, 20.595  L 117.824, 21.231  L 114.877, 21.895  L 111.930, 22.584  L 108.981, 23.291  L 106.033, 24.014  L 103.083, 24.745  L 100.132, 25.482  L 97.181, 26.219  L 94.229, 26.952  L 91.277, 27.675  L 88.323, 28.384  L 85.369, 29.074  L 82.414, 29.741  L 79.458, 30.379  L 76.502, 30.984  L 73.545, 31.551  L 70.586, 32.075  L 67.627, 32.552  L 64.668, 32.976  L 61.707, 33.343  L 58.745, 33.649  L 55.783, 33.887  L 52.820, 34.054  L 49.856, 34.145  L 46.891, 34.154  L 43.925, 34.077  L 40.959, 33.909  L 37.991, 33.646  L 35.024, 33.282  L 32.055, 32.813  L 29.087, 32.234  L 26.118, 31.539  L 23.148, 30.725  L 20.179, 29.787  L 17.210, 28.719  L 14.241, 27.517  L 11.272, 26.177  L 9.776, 25.447  L 11.272, 26.177  L 14.241, 27.517  L 17.210, 28.719  L 20.179, 29.787  L 23.148, 30.725  L 26.118, 31.539  L 29.087, 32.234  L 32.055, 32.813  L 35.024, 33.282  L 37.991, 33.646  L 40.959, 33.909  L 43.925, 34.077  L 46.891, 34.154  L 49.856, 34.145  L 52.820, 34.054  L 55.783, 33.887  L 58.745, 33.649  L 61.707, 33.343  L 64.668, 32.976  L 67.627, 32.552  L 70.586, 32.075  L 73.545, 31.551  L 76.502, 30.984  L 79.458, 30.379  L 82.414, 29.741  L 85.369, 29.074  L 88.323, 28.384  L 91.277, 27.675  L 94.229, 26.952  L 97.181, 26.219  L 100.132, 25.482  L 103.083, 24.745  L 106.033, 24.014  L 108.981, 23.291  L 111.930, 22.584  L 114.877, 21.895  L 117.824, 21.231  L 120.770, 20.595  L 123.715, 19.993  L 126.659, 19.428  L 129.603, 18.907  L 132.545, 18.433  L 135.487, 18.012  L 138.428, 17.648  L 141.368, 17.345  L 144.308, 17.109  L 147.246, 16.944  L 150.183, 16.855  L 153.120, 16.846  L 156.056, 16.923  L 158.991, 17.090  L 161.926, 17.351  L 164.860, 17.711  L 167.793, 18.176  L 170.726, 18.749  L 173.658, 19.436  L 176.591, 20.241  L 179.523, 21.168  L 182.456, 22.224  L 185.388, 23.412  L 188.321, 24.737  L 189.776, 25.447 "/>
    </g>
</svg>
