<?xml version="1.0" encoding="utf-8" ?>
<svg xmlns="http://www.w3.org/2000/svg" xmlns:ev="http://www.w3.org/2001/xml-events" xmlns:xlink="http://www.w3.org/1999/xlink" baseProfile="full" height="50mm" version="1.1" viewBox="0,0,200,50" width="200mm">
    <defs>
        <style type="text/css"><![CDATA[
.stitch_line {
    stroke-width: 0.3;
    stroke-linejoin: round;
    stroke-linecap: round;
    fill: none;
}
.path_center_line {
    stroke-width: 0.2;
    stroke-linejoin: round;
    stroke-linecap: round;
    fill: none;
    stroke:#333;
}
.path_contour {
    stroke: #ddd;
    fill-opacity: 1;
    fill: #eee;
    stroke-width: 0.3;
}
.text{
    text-anchor: middle;
    dominant-baseline: middle;
    font-family: sans-serif;
    font-size: 1.5mm;
}
.smalltext{
    text-anchor: middle;
    dominant-baseline: middle;
    font-family: sans-serif;
    font-size: 1mm;
}
.color_0 {
    stroke:#148983;
}
.dot_0 {
    marker-start:url(#dot_0);
    marker-mid:url(#dot_0);
    marker-end:url(#dot_0);
}
]]></style>
        <marker id="dot_0" markerHeight="3.0" markerWidth="3.0" refX="1.5" refY="1.5">
            <circle cx="1.5" cy="1.5" fill="#148983" r="1.5"/>
        </marker>
    </defs>
    <g>
        <path class="stitch_line color_0 dot_0" d="M 8.584, 27.113  L 12.626, 27.928  L 9.444, 25.307  L 13.485, 26.122  L 10.303, 23.501  L 14.344, 24.316  L 11.593, 28.559  L 15.663, 29.214  L 12.380, 26.720  L 16.450, 27.375  L 13.167, 24.882  L 17.238, 25.537  L 14.605, 29.864  L 18.699, 30.358  L 15.319, 27.996  L 19.413, 28.490  L 16.033, 26.128  L 20.127, 26.622  L 17.622, 31.033  L 21.731, 31.367  L 18.262, 29.139  L 22.372, 29.472  L 18.902, 27.244  L 23.012, 27.577  L 20.642, 32.071  L 24.761, 32.244  L 21.208, 30.152  L 25.327, 30.326  L 21.774, 28.234  L 25.894, 28.407  L 23.664, 32.979  L 27.788, 32.995  L 24.157, 31.041  L 28.280, 31.057  L 24.649, 29.103  L 28.772, 29.118  L 26.689, 33.765  L 30.810, 33.626  L 27.109, 31.809  L 31.230, 31.671  L 27.528, 29.854  L 31.649, 29.715  L 29.716, 34.431  L 33.829, 34.142  L 30.064, 32.461  L 34.177, 32.172  L 30.411, 30.492  L 34.524, 30.203  L 32.743, 34.982  L 36.843, 34.547  L 33.021, 33.001  L 37.121, 32.567  L 33.299, 31.020  L 37.399, 30.586  L 35.770, 35.422  L 39.853, 34.848  L 35.980, 33.434  L 40.063, 32.859  L 36.190, 31.445  L 40.273, 30.871  L 38.797, 35.758  L 42.859, 35.050  L 38.942, 33.763  L 43.003, 33.055  L 39.086, 31.768  L 43.148, 31.061  L 41.822, 35.992  L 45.860, 35.158  L 41.904, 33.994  L 45.942, 33.159  L 41.987, 31.996  L 46.024, 31.161  L 44.846, 36.131  L 48.857, 35.176  L 44.869, 34.131  L 48.880, 33.176  L 44.891, 32.131  L 48.902, 31.177  L 47.867, 36.179  L 51.850, 35.111  L 47.834, 34.179  L 51.816, 33.111  L 47.800, 32.179  L 51.782, 31.112  L 50.886, 36.140  L 54.839, 34.967  L 50.799, 34.142  L 54.752, 32.969  L 50.712, 32.144  L 54.665, 30.971  L 53.902, 36.021  L 57.824, 34.750  L 53.765, 34.025  L 57.688, 32.754  L 53.629, 32.030  L 57.551, 30.759  L 56.915, 35.825  L 60.806, 34.464  L 56.732, 33.834  L 60.623, 32.472  L 56.549, 31.842  L 60.440, 30.480  L 59.923, 35.559  L 63.785, 34.114  L 59.698, 33.572  L 63.559, 32.126  L 59.472, 31.585  L 63.333, 30.139  L 62.928, 35.227  L 66.760, 33.705  L 62.663, 33.244  L 66.495, 31.723  L 62.398, 31.262  L 66.230, 29.740  L 65.929, 34.834  L 69.733, 33.243  L 65.628, 32.857  L 69.432, 31.265  L 65.327, 30.879  L 69.130, 29.288  L 68.926, 34.385  L 72.703, 32.731  L 68.592, 32.413  L 72.369, 30.759  L 68.258, 30.441  L 72.035, 28.787  L 71.919, 33.885  L 75.671, 32.175  L 71.556, 31.918  L 75.308, 30.208  L 71.192, 29.951  L 74.944, 28.242  L 74.907, 33.339  L 78.636, 31.580  L 74.518, 31.377  L 78.247, 29.618  L 74.129, 29.416  L 77.858, 27.656  L 77.891, 32.753  L 81.599, 30.950  L 77.479, 30.795  L 81.187, 28.993  L 77.067, 28.838  L 80.775, 27.036  L 80.870, 32.130  L 84.561, 30.291  L 80.439, 30.177  L 84.129, 28.338  L 80.007, 28.224  L 83.698, 26.385  L 83.846, 31.476  L 87.520, 29.606  L 83.398, 29.527  L 87.072, 27.657  L 82.950, 27.578  L 86.624, 25.708  L 86.816, 30.797  L 90.478, 28.901  L 86.355, 28.851  L 90.016, 26.955  L 85.894, 26.905  L 89.555, 25.009  L 89.783, 30.096  L 93.434, 28.180  L 89.311, 28.152  L 92.962, 26.237  L 88.839, 26.208  L 92.490, 24.293  L 92.744, 29.378  L 96.388, 27.449  L 92.265, 27.436  L 95.909, 25.507  L 91.786, 25.495  L 95.430, 23.565  L 95.702, 28.649  L 99.341, 26.712  L 95.218, 26.708  L 98.858, 24.771  L 94.735, 24.768  L 98.374, 22.830  L 98.655, 27.913  L 102.293, 25.973  L 98.170, 25.973  L 101.808, 24.033  L 97.685, 24.033  L 101.323, 22.092  L 101.604, 27.175  L 105.243, 25.238  L 101.120, 25.235  L 104.759, 23.297  L 100.636, 23.294  L 104.276, 21.356  L 104.548, 26.440  L 108.192, 24.511  L 104.069, 24.498  L 107.712, 22.569  L 103.589, 22.557  L 107.233, 20.627  L 107.488, 25.712  L 111.139, 23.797  L 107.016, 23.769  L 110.667, 21.853  L 106.544, 21.825  L 110.195, 19.910  L 110.423, 24.997  L 114.084, 23.101  L 109.962, 23.051  L 113.623, 21.155  L 109.500, 21.104  L 113.161, 19.209  L 113.354, 24.298  L 117.028, 22.427  L 112.906, 22.349  L 116.580, 20.478  L 112.458, 20.399  L 116.132, 18.529  L 116.280, 23.620  L 119.970, 21.781  L 115.849, 21.667  L 119.539, 19.828  L 115.417, 19.714  L 119.107, 17.875  L 119.203, 22.969  L 122.911, 21.166  L 118.791, 21.012  L 122.499, 19.209  L 118.379, 19.055  L 122.087, 17.252  L 122.120, 22.348  L 125.849, 20.589  L 121.731, 20.386  L 125.460, 18.627  L 121.342, 18.425  L 125.071, 16.665  L 125.034, 21.763  L 128.786, 20.053  L 124.670, 19.796  L 128.422, 18.086  L 124.307, 17.829  L 128.059, 16.119  L 127.943, 21.217  L 131.720, 19.563  L 127.609, 19.245  L 131.385, 17.591  L 127.275, 17.273  L 131.051, 15.619  L 130.848, 20.715  L 134.651, 19.124  L 130.546, 18.738  L 134.350, 17.147  L 130.245, 16.761  L 134.048, 15.169  L 133.748, 20.263  L 137.580, 18.741  L 133.483, 18.281  L 137.315, 16.758  L 133.217, 16.298  L 137.049, 14.776  L 136.645, 19.864  L 140.506, 18.418  L 136.419, 17.876  L 140.280, 16.430  L 136.193, 15.889  L 140.054, 14.443  L 139.538, 19.522  L 143.429, 18.160  L 139.355, 17.530  L 143.246, 16.168  L 139.171, 15.539  L 143.063, 14.176  L 142.427, 19.243  L 146.349, 17.971  L 142.290, 17.248  L 146.212, 15.976  L 142.153, 15.252  L 146.075, 13.980  L 145.313, 19.030  L 149.266, 17.857  L 145.226, 17.032  L 149.178, 15.859  L 145.138, 15.034  L 149.091, 13.860  L 148.196, 18.889  L 152.178, 17.821  L 148.162, 16.889  L 152.144, 15.821  L 148.127, 14.890  L 152.110, 13.821  L 151.076, 18.824  L 155.087, 17.868  L 151.098, 16.824  L 155.109, 15.868  L 151.120, 14.824  L 155.131, 13.868  L 153.954, 18.839  L 157.991, 18.003  L 154.036, 16.840  L 158.073, 16.005  L 154.118, 14.842  L 158.155, 14.006  L 156.830, 18.938  L 160.892, 18.230  L 156.974, 16.944  L 161.036, 16.235  L 157.119, 14.949  L 161.181, 14.240  L 159.705, 19.128  L 163.788, 18.553  L 159.915, 17.139  L 163.998, 16.564  L 160.124, 15.150  L 164.207, 14.575  L 162.579, 19.411  L 166.680, 18.976  L 162.857, 17.431  L 166.957, 16.995  L 163.134, 15.450  L 167.234, 15.015  L 165.454, 19.794  L 169.567, 19.504  L 165.801, 17.825  L 169.914, 17.534  L 166.149, 15.855  L 170.262, 15.565  L 168.329, 20.281  L 172.450, 20.141  L 168.748, 18.325  L 172.869, 18.185  L 169.167, 16.370  L 173.288, 16.230  L 171.206, 20.877  L 175.329, 20.891  L 171.698, 18.938  L 175.821, 18.953  L 172.190, 17.000  L 176.313, 17.014  L 174.085, 21.587  L 178.204, 21.759  L 174.650, 19.668  L 178.770, 19.841  L 175.216, 17.750  L 179.336, 17.922  L 176.966, 22.416  L 181.076, 22.748  L 177.606, 20.521  L 181.716, 20.853  L 178.246, 18.626  L 182.356, 18.958  L 179.852, 23.370  L 183.945, 23.863  L 180.565, 21.502  L 184.659, 21.995  L 181.279, 19.634  L 185.372, 20.126  L 182.740, 24.454  L 186.811, 25.109  L 183.527, 22.616  L 187.598, 23.270  L 184.314, 20.777  L 188.385, 21.431  L 185.634, 25.674  L 189.676, 26.489  L 186.493, 23.868  L 190.534, 24.682  L 187.351, 22.062  L 191.393, 22.876 "/>
    </g>
</svg>
