<?xml version="1.0" encoding="utf-8" ?>
<svg xmlns="http://www.w3.org/2000/svg" xmlns:ev="http://www.w3.org/2001/xml-events" xmlns:xlink="http://www.w3.org/1999/xlink" baseProfile="full" height="100mm" version="1.1" viewBox="0,0,188,100" width="188mm">
    <defs>
        <style type="text/css"><![CDATA[
.stitch_line {
    stroke-width: 0.3;
    stroke-linejoin: round;
    stroke-linecap: round;
    fill: none;
}
.path_center_line {
    stroke-width: 0.2;
    stroke-linejoin: round;
    stroke-linecap: round;
    fill: none;
    stroke:#333;
}
.path_contour {
    stroke: #ddd;
    fill-opacity: 1;
    fill: #eee;
    stroke-width: 0.3;
}
.text{
    text-anchor: middle;
    dominant-baseline: middle;
    font-family: sans-serif;
    font-size: 1.5mm;
}
.smalltext{
    text-anchor: middle;
    dominant-baseline: middle;
    font-family: sans-serif;
    font-size: 1mm;
}
.color_0 {
    stroke:#148983;
}
.dot_0 {
    marker-start:url(#dot_0);
    marker-mid:url(#dot_0);
    marker-end:url(#dot_0);
}
.color_1 {
    stroke:#1873ac;
}
.dot_1 {
    marker-start:url(#dot_1);
    marker-mid:url(#dot_1);
    marker-end:url(#dot_1);
}
.color_2 {
    stroke:#8c5290;
}
.dot_2 {
    marker-start:url(#dot_2);
    marker-mid:url(#dot_2);
    marker-end:url(#dot_2);
}
.color_3 {
    stroke:#61a09c;
}
.dot_3 {
    marker-start:url(#dot_3);
    marker-mid:url(#dot_3);
    marker-end:url(#dot_3);
}
.color_4 {
    stroke:#5ad2f4;
}
.dot_4 {
    marker-start:url(#dot_4);
    marker-mid:url(#dot_4);
    marker-end:url(#dot_4);
}
.color_5 {
    stroke:#0f6460;
}
.dot_5 {
    marker-start:url(#dot_5);
    marker-mid:url(#dot_5);
    marker-end:url(#dot_5);
}
.color_6 {
    stroke:#0f4668;
}
.dot_6 {
    marker-start:url(#dot_6);
    marker-mid:url(#dot_6);
    marker-end:url(#dot_6);
}
.color_7 {
    stroke:#543156;
}
.dot_7 {
    marker-start:url(#dot_7);
    marker-mid:url(#dot_7);
    marker-end:url(#dot_7);
}
.color_8 {
    stroke:#487673;
}
.dot_8 {
    marker-start:url(#dot_8);
    marker-mid:url(#dot_8);
    marker-end:url(#dot_8);
}
.color_9 {
    stroke:#0c8baf;
}
.dot_9 {
    marker-start:url(#dot_9);
    marker-mid:url(#dot_9);
    marker-end:url(#dot_9);
}
.color_10 {
    stroke:#148983;
}
.dot_10 {
    marker-start:url(#dot_10);
    marker-mid:url(#dot_10);
    marker-end:url(#dot_10);
}
.color_11 {
    stroke:#1873ac;
}
.dot_11 {
    marker-start:url(#dot_11);
    marker-mid:url(#dot_11);
    marker-end:url(#dot_11);
}
.color_12 {
    stroke:#8c5290;
}
.dot_12 {
    marker-start:url(#dot_12);
    marker-mid:url(#dot_12);
    marker-end:url(#dot_12);
}
.color_13 {
    stroke:#61a09c;
}
.dot_13 {
    marker-start:url(#dot_13);
    marker-mid:url(#dot_13);
    marker-end:url(#dot_13);
}
]]></style>
        <marker id="dot_0" markerHeight="3.0" markerWidth="3.0" refX="1.5" refY="1.5">
            <circle cx="1.5" cy="1.5" fill="#148983" r="1.5"/>
        </marker>
        <marker id="dot_1" markerHeight="3.0" markerWidth="3.0" refX="1.5" refY="1.5">
            <circle cx="1.5" cy="1.5" fill="#1873ac" r="1.5"/>
        </marker>
        <marker id="dot_2" markerHeight="3.0" markerWidth="3.0" refX="1.5" refY="1.5">
            <circle cx="1.5" cy="1.5" fill="#8c5290" r="1.5"/>
        </marker>
        <marker id="dot_3" markerHeight="3.0" markerWidth="3.0" refX="1.5" refY="1.5">
            <circle cx="1.5" cy="1.5" fill="#61a09c" r="1.5"/>
        </marker>
        <marker id="dot_4" markerHeight="3.0" markerWidth="3.0" refX="1.5" refY="1.5">
            <circle cx="1.5" cy="1.5" fill="#5ad2f4" r="1.5"/>
        </marker>
        <marker id="dot_5" markerHeight="3.0" markerWidth="3.0" refX="1.5" refY="1.5">
            <circle cx="1.5" cy="1.5" fill="#0f6460" r="1.5"/>
        </marker>
        <marker id="dot_6" markerHeight="3.0" markerWidth="3.0" refX="1.5" refY="1.5">
            <circle cx="1.5" cy="1.5" fill="#0f4668" r="1.5"/>
        </marker>
        <marker id="dot_7" markerHeight="3.0" markerWidth="3.0" refX="1.5" refY="1.5">
            <circle cx="1.5" cy="1.5" fill="#543156" r="1.5"/>
        </marker>
        <marker id="dot_8" markerHeight="3.0" markerWidth="3.0" refX="1.5" refY="1.5">
            <circle cx="1.5" cy="1.5" fill="#487673" r="1.5"/>
        </marker>
        <marker id="dot_9" markerHeight="3.0" markerWidth="3.0" refX="1.5" refY="1.5">
            <circle cx="1.5" cy="1.5" fill="#0c8baf" r="1.5"/>
        </marker>
        <marker id="dot_10" markerHeight="3.0" markerWidth="3.0" refX="1.5" refY="1.5">
            <circle cx="1.5" cy="1.5" fill="#148983" r="1.5"/>
        </marker>
        <marker id="dot_11" markerHeight="3.0" markerWidth="3.0" refX="1.5" refY="1.5">
            <circle cx="1.5" cy="1.5" fill="#1873ac" r="1.5"/>
        </marker>
        <marker id="dot_12" markerHeight="3.0" markerWidth="3.0" refX="1.5" refY="1.5">
            <circle cx="1.5" cy="1.5" fill="#8c5290" r="1.5"/>
        </marker>
        <marker id="dot_13" markerHeight="3.0" markerWidth="3.0" refX="1.5" refY="1.5">
            <circle cx="1.5" cy="1.5" fill="#61a09c" r="1.5"/>
        </marker>
    </defs>
    <g>
        <path class="stitch_line color_0 dot_0" d="M 12.933, 90.771  L 14.600, 87.135  L 12.872, 90.743  L 14.540, 87.107  L 18.846, 89.761  L 20.260, 86.019  L 18.908, 89.784  L 20.323, 86.042  L 15.297, 85.351  L 16.329, 81.486  L 15.233, 85.333  L 16.265, 81.468  L 20.912, 83.535  L 21.695, 79.612  L 20.977, 83.548  L 21.761, 79.625  L 16.670, 79.858  L 17.089, 75.880  L 16.604, 79.851  L 17.023, 75.873  L 21.922, 77.292  L 22.132, 73.297  L 21.988, 77.295  L 22.199, 73.300  L 17.186, 74.264  L 17.083, 70.266  L 17.119, 74.266  L 17.016, 70.267  L 22.054, 71.080  L 21.802, 67.088  L 22.120, 71.075  L 21.869, 67.083  L 16.986, 68.569  L 16.485, 64.600  L 16.920, 68.577  L 16.419, 64.608  L 21.507, 64.931  L 20.923, 60.974  L 21.573, 64.921  L 20.988, 60.964  L 16.227, 62.787  L 15.458, 58.861  L 16.161, 62.799  L 15.393, 58.873  L 20.486, 58.860  L 19.695, 54.939  L 20.551, 58.847  L 19.760, 54.926  L 15.079, 56.935  L 14.166, 53.040  L 15.014, 56.949  L 14.101, 53.055  L 19.187, 52.872  L 18.310, 48.969  L 19.252, 52.857  L 18.375, 48.954  L 13.722, 51.023  L 12.780, 47.135  L 13.657, 51.038  L 12.715, 47.150  L 17.801, 46.967  L 16.953, 43.058  L 17.866, 46.952  L 17.018, 43.043  L 12.337, 45.054  L 11.482, 41.146  L 12.272, 45.068  L 11.416, 41.160  L 16.509, 41.145  L 15.806, 37.207  L 16.574, 41.133  L 15.871, 37.195  L 11.110, 39.021  L 10.460, 35.074  L 11.044, 39.031  L 10.394, 35.084  L 15.481, 35.404  L 15.047, 31.427  L 15.548, 35.396  L 15.113, 31.419  L 10.231, 32.910  L 9.913, 28.923  L 10.165, 32.915  L 9.847, 28.927  L 14.884, 29.735  L 14.847, 25.735  L 14.950, 29.734  L 14.914, 25.734  L 9.901, 26.704  L 10.045, 22.707  L 9.834, 26.701  L 9.978, 22.704  L 14.878, 24.116  L 15.363, 20.146  L 14.944, 24.124  L 15.430, 20.153  L 10.338, 20.394  L 11.055, 16.459  L 10.272, 20.381  L 10.990, 16.446  L 15.639, 18.505  L 16.735, 14.658  L 15.703, 18.523  L 16.799, 14.676  L 11.771, 13.993  L 13.123, 10.228  L 11.709, 13.970  L 13.060, 10.205  L 17.370, 12.851  L 19.097, 9.243  L 17.430, 12.879  L 19.158, 9.271 "/>
        <path class="stitch_line color_1 dot_1" d="M 29.415, 92.872  L 28.000, 90.000  L 24.887, 90.750  L 26.201, 88.049  L 29.238, 87.037  L 30.893, 89.778  L 32.069, 86.667  L 30.191, 84.074  L 27.249, 85.337  L 28.050, 82.607  L 30.881, 81.111  L 32.961, 83.545  L 33.588, 80.418  L 31.330, 78.148  L 28.620, 79.853  L 28.977, 77.072  L 31.563, 75.185  L 33.972, 77.294  L 34.135, 74.179  L 31.601, 72.222  L 29.136, 74.265  L 29.116, 71.432  L 31.467, 69.259  L 34.104, 71.076  L 33.902, 67.990  L 31.185, 66.296  L 28.936, 68.575  L 28.617, 65.695  L 30.778, 63.333  L 33.557, 64.923  L 33.092, 61.876  L 30.267, 60.370  L 28.178, 62.796  L 27.642, 59.879  L 29.677, 57.407  L 32.535, 58.850  L 31.908, 55.845  L 29.029, 54.444  L 27.030, 56.946  L 26.367, 53.997  L 28.347, 51.481  L 31.236, 52.861  L 30.542, 49.898  L 27.653, 48.519  L 25.673, 51.034  L 24.973, 48.057  L 26.971, 45.556  L 29.850, 46.956  L 29.181, 44.035  L 26.323, 42.593  L 24.288, 45.064  L 23.643, 42.055  L 25.733, 39.630  L 28.558, 41.136  L 28.001, 38.257  L 25.222, 36.667  L 23.061, 39.029  L 22.565, 35.982  L 24.815, 33.704  L 27.531, 35.398  L 27.169, 32.558  L 24.533, 30.741  L 22.181, 32.914  L 21.934, 29.821  L 24.399, 27.778  L 26.934, 29.734  L 26.846, 26.924  L 24.437, 24.815  L 21.851, 26.702  L 21.960, 23.556  L 24.670, 21.852  L 26.928, 24.122  L 27.200, 21.322  L 25.119, 18.889  L 22.289, 20.384  L 22.867, 17.189  L 25.809, 15.926  L 27.687, 18.519  L 28.416, 15.704  L 26.762, 12.963  L 23.724, 13.975  L 24.887, 10.750  L 28.000, 10.000  L 29.415, 12.872 "/>
        <path class="stitch_line color_2 dot_2" d="M 37.736, 88.939  L 37.145, 90.318  L 38.400, 87.593  L 37.109, 90.301  L 38.364, 87.576  L 37.073, 90.284  L 38.328, 87.560  L 37.736, 88.939  L 43.584, 87.901  L 43.019, 89.292  L 44.075, 86.483  L 43.056, 89.305  L 44.112, 86.497  L 43.094, 89.319  L 44.150, 86.511  L 43.584, 87.901  L 39.781, 83.409  L 39.430, 84.869  L 40.209, 81.971  L 39.392, 84.858  L 40.170, 81.961  L 39.353, 84.847  L 40.132, 81.950  L 39.781, 83.409  L 45.336, 81.580  L 45.006, 83.044  L 45.588, 80.101  L 45.045, 83.052  L 45.627, 80.109  L 45.084, 83.059  L 45.667, 80.116  L 45.336, 81.580  L 40.846, 77.865  L 40.726, 79.361  L 41.046, 76.378  L 40.687, 79.357  L 41.006, 76.374  L 40.647, 79.352  L 40.966, 76.369  L 40.846, 77.865  L 46.060, 75.296  L 45.944, 76.792  L 46.097, 73.796  L 45.984, 76.794  L 46.137, 73.798  L 46.024, 76.796  L 46.177, 73.800  L 46.060, 75.296  L 41.101, 72.266  L 41.177, 73.765  L 41.105, 70.765  L 41.137, 73.765  L 41.065, 70.766  L 41.097, 73.766  L 41.025, 70.767  L 41.101, 72.266  L 45.961, 69.081  L 46.018, 70.581  L 45.824, 67.587  L 46.058, 70.578  L 45.864, 67.584  L 46.098, 70.575  L 45.904, 67.582  L 45.961, 69.081  L 40.703, 66.588  L 40.928, 68.072  L 40.557, 65.095  L 40.888, 68.077  L 40.517, 65.100  L 40.848, 68.082  L 40.478, 65.105  L 40.703, 66.588  L 45.248, 62.947  L 45.430, 64.437  L 44.987, 61.470  L 45.469, 64.431  L 45.026, 61.464  L 45.509, 64.425  L 45.066, 61.458  L 45.248, 62.947  L 39.810, 60.830  L 40.135, 62.295  L 39.563, 59.350  L 40.096, 62.303  L 39.524, 59.358  L 40.056, 62.310  L 39.485, 59.365  L 39.810, 60.830  L 44.123, 56.893  L 44.383, 58.371  L 43.785, 55.431  L 44.422, 58.363  L 43.824, 55.423  L 44.461, 58.355  L 43.863, 55.415  L 44.123, 56.893  L 38.590, 54.995  L 38.969, 56.447  L 38.289, 53.525  L 38.930, 56.456  L 38.250, 53.534  L 38.891, 56.465  L 38.211, 53.543  L 38.590, 54.995  L 42.781, 50.913  L 43.074, 52.385  L 42.411, 49.459  L 43.113, 52.376  L 42.450, 49.450  L 43.151, 52.367  L 42.489, 49.441  L 42.781, 50.913  L 37.219, 49.087  L 37.608, 50.536  L 36.907, 47.619  L 37.569, 50.545  L 36.868, 47.628  L 37.530, 50.554  L 36.829, 47.637  L 37.219, 49.087  L 41.410, 45.005  L 41.691, 46.479  L 41.050, 43.549  L 41.730, 46.471  L 41.089, 43.540  L 41.769, 46.462  L 41.128, 43.531  L 41.410, 45.005  L 35.877, 43.107  L 36.234, 44.565  L 35.598, 41.633  L 36.195, 44.573  L 35.558, 41.641  L 36.156, 44.581  L 35.519, 41.649  L 35.877, 43.107  L 40.190, 39.170  L 40.417, 40.653  L 39.885, 37.701  L 40.456, 40.646  L 39.924, 37.694  L 40.496, 40.639  L 39.963, 37.686  L 40.190, 39.170  L 34.752, 37.053  L 35.033, 38.527  L 34.550, 35.566  L 34.994, 38.533  L 34.511, 35.572  L 34.954, 38.539  L 34.471, 35.578  L 34.752, 37.053  L 39.297, 33.412  L 39.423, 34.907  L 39.092, 31.925  L 39.463, 34.902  L 39.132, 31.921  L 39.502, 34.898  L 39.172, 31.916  L 39.297, 33.412  L 34.039, 30.919  L 34.196, 32.411  L 33.962, 29.420  L 34.156, 32.414  L 33.922, 29.423  L 34.116, 32.417  L 33.882, 29.426  L 34.039, 30.919  L 38.899, 27.734  L 38.875, 29.235  L 38.843, 26.235  L 38.915, 29.234  L 38.883, 26.234  L 38.955, 29.234  L 38.923, 26.234  L 38.899, 27.734  L 33.940, 24.704  L 33.923, 26.205  L 34.036, 23.207  L 33.883, 26.203  L 33.996, 23.205  L 33.843, 26.201  L 33.956, 23.203  L 33.940, 24.704  L 39.154, 22.135  L 38.934, 23.619  L 39.293, 20.641  L 38.974, 23.624  L 39.333, 20.645  L 39.014, 23.628  L 39.373, 20.650  L 39.154, 22.135  L 34.664, 18.420  L 34.431, 19.903  L 34.975, 16.952  L 34.392, 19.895  L 34.935, 16.945  L 34.353, 19.888  L 34.896, 16.937  L 34.664, 18.420  L 40.219, 16.591  L 39.772, 18.023  L 40.589, 15.137  L 39.810, 18.034  L 40.628, 15.147  L 39.849, 18.045  L 40.666, 15.158  L 40.219, 16.591  L 36.416, 12.099  L 35.944, 13.523  L 36.963, 10.702  L 35.907, 13.510  L 36.925, 10.688  L 35.869, 13.496  L 36.887, 10.674  L 36.416, 12.099  L 42.264, 11.061  L 41.582, 12.398  L 42.873, 9.690  L 41.618, 12.415  L 42.909, 9.707  L 41.654, 12.432  L 42.946, 9.724  L 42.264, 11.061 "/>
        <path class="stitch_line color_3 dot_3" d="M 51.073, 89.621  L 48.368, 88.325  L 51.095, 89.576  L 48.389, 88.280  L 51.116, 89.530  L 54.159, 87.430  L 56.983, 88.443  L 54.177, 87.383  L 57.000, 88.396  L 54.194, 87.336  L 53.214, 83.856  L 50.328, 83.035  L 53.227, 83.808  L 50.342, 82.986  L 53.240, 83.760  L 55.854, 81.348  L 58.805, 81.886  L 55.863, 81.299  L 58.814, 81.837  L 55.872, 81.250  L 54.331, 78.085  L 51.353, 77.721  L 54.337, 78.035  L 51.359, 77.671  L 54.342, 77.985  L 56.560, 75.279  L 59.558, 75.387  L 56.562, 75.230  L 59.560, 75.338  L 56.564, 75.180  L 54.602, 72.290  L 51.602, 72.317  L 54.601, 72.240  L 51.601, 72.267  L 54.600, 72.190  L 56.468, 69.238  L 59.459, 68.999  L 56.465, 69.188  L 59.456, 68.950  L 56.461, 69.138  L 54.198, 66.463  L 51.216, 66.789  L 54.192, 66.413  L 51.210, 66.739  L 54.186, 66.364  L 55.774, 63.228  L 58.734, 62.741  L 55.766, 63.179  L 58.726, 62.691  L 55.758, 63.130  L 53.293, 60.603  L 50.340, 61.131  L 53.284, 60.554  L 50.331, 61.081  L 53.275, 60.505  L 54.665, 57.251  L 57.596, 56.609  L 54.655, 57.202  L 57.586, 56.560  L 54.645, 57.153  L 52.064, 54.713  L 49.132, 55.349  L 52.053, 54.665  L 49.121, 55.301  L 52.042, 54.616  L 53.332, 51.303  L 56.248, 50.597  L 53.321, 51.254  L 56.236, 50.548  L 53.309, 51.205  L 50.691, 48.795  L 47.764, 49.452  L 50.679, 48.746  L 47.752, 49.403  L 50.668, 48.697  L 51.958, 45.384  L 54.879, 44.699  L 51.947, 45.335  L 54.868, 44.651  L 51.936, 45.287  L 49.355, 42.847  L 46.414, 43.440  L 49.345, 42.798  L 46.404, 43.391  L 49.335, 42.749  L 50.725, 39.495  L 53.669, 38.919  L 50.716, 39.446  L 53.660, 38.869  L 50.707, 39.397  L 48.242, 36.870  L 45.274, 37.309  L 48.234, 36.821  L 45.266, 37.259  L 48.226, 36.772  L 49.814, 33.636  L 52.790, 33.261  L 49.808, 33.587  L 52.784, 33.211  L 49.802, 33.537  L 47.539, 30.862  L 44.544, 31.050  L 47.535, 30.812  L 44.541, 31.001  L 47.532, 30.762  L 49.400, 27.810  L 52.399, 27.733  L 49.399, 27.760  L 52.398, 27.683  L 49.398, 27.710  L 47.436, 24.820  L 44.440, 24.662  L 47.438, 24.770  L 44.442, 24.613  L 47.440, 24.721  L 49.658, 22.015  L 52.641, 22.329  L 49.663, 21.965  L 52.647, 22.279  L 49.669, 21.915  L 48.128, 18.750  L 45.186, 18.163  L 48.137, 18.701  L 45.195, 18.114  L 48.146, 18.652  L 50.760, 16.240  L 53.658, 17.014  L 50.773, 16.192  L 53.672, 16.965  L 50.786, 16.144  L 49.806, 12.664  L 47.000, 11.604  L 49.823, 12.617  L 47.017, 11.557  L 49.841, 12.570  L 52.884, 10.470  L 55.611, 11.720  L 52.905, 10.424  L 55.632, 11.675  L 52.927, 10.379 "/>
        <path class="stitch_line color_4 dot_4" d="M 63.979, 90.045  L 60.820, 88.537  L 64.000, 90.000  L 60.842, 88.492  L 64.021, 89.955  L 65.221, 87.084  L 68.514, 88.271  L 65.238, 87.037  L 68.531, 88.224  L 65.256, 86.990  L 66.178, 84.122  L 62.810, 83.167  L 66.191, 84.074  L 62.824, 83.119  L 66.204, 84.026  L 66.871, 81.160  L 70.314, 81.792  L 66.881, 81.111  L 70.323, 81.743  L 66.890, 81.062  L 67.325, 78.198  L 63.850, 77.777  L 67.330, 78.148  L 63.856, 77.728  L 67.336, 78.098  L 67.561, 75.235  L 71.058, 75.365  L 67.563, 75.185  L 71.060, 75.315  L 67.565, 75.135  L 67.602, 72.272  L 64.102, 72.308  L 67.601, 72.222  L 64.101, 72.258  L 67.600, 72.172  L 67.471, 69.309  L 70.960, 69.035  L 67.467, 69.259  L 70.957, 68.985  L 67.464, 69.209  L 67.191, 66.346  L 63.712, 66.730  L 67.185, 66.296  L 63.707, 66.680  L 67.180, 66.247  L 66.785, 63.383  L 70.240, 62.818  L 66.778, 63.333  L 70.232, 62.768  L 66.770, 63.284  L 66.276, 60.420  L 62.831, 61.039  L 66.267, 60.370  L 62.822, 60.990  L 66.258, 60.321  L 65.687, 57.456  L 69.107, 56.712  L 65.677, 57.407  L 69.097, 56.663  L 65.666, 57.358  L 65.040, 54.493  L 61.620, 55.239  L 65.029, 54.444  L 61.609, 55.191  L 65.018, 54.396  L 64.358, 51.530  L 67.761, 50.710  L 64.347, 51.481  L 67.749, 50.662  L 64.335, 51.433  L 63.665, 48.567  L 60.251, 49.338  L 63.653, 48.519  L 60.239, 49.290  L 63.642, 48.470  L 62.982, 45.604  L 66.391, 44.809  L 62.971, 45.556  L 66.380, 44.761  L 62.960, 45.507  L 62.334, 42.642  L 58.903, 43.337  L 62.323, 42.593  L 58.893, 43.288  L 62.313, 42.544  L 61.742, 39.679  L 65.178, 39.010  L 61.733, 39.630  L 65.169, 38.961  L 61.724, 39.580  L 61.230, 36.716  L 57.768, 37.232  L 61.222, 36.667  L 57.760, 37.182  L 61.215, 36.617  L 60.820, 33.753  L 64.293, 33.320  L 60.815, 33.704  L 64.288, 33.270  L 60.809, 33.654  L 60.536, 30.791  L 57.043, 31.015  L 60.533, 30.741  L 57.040, 30.965  L 60.529, 30.691  L 60.400, 27.828  L 63.899, 27.742  L 60.399, 27.778  L 63.898, 27.692  L 60.398, 27.728  L 60.435, 24.865  L 56.940, 24.685  L 60.437, 24.815  L 56.942, 24.635  L 60.439, 24.765  L 60.664, 21.902  L 64.144, 22.272  L 60.670, 21.852  L 64.150, 22.223  L 60.675, 21.802  L 61.110, 18.938  L 57.677, 18.257  L 61.119, 18.889  L 57.686, 18.208  L 61.129, 18.840  L 61.796, 15.974  L 65.176, 16.881  L 61.809, 15.926  L 65.190, 16.833  L 61.822, 15.878  L 62.744, 13.010  L 59.469, 11.776  L 62.762, 12.963  L 59.486, 11.729  L 62.779, 12.916  L 63.979, 10.045  L 67.158, 11.508  L 64.000, 10.000  L 67.180, 11.463  L 64.021, 9.955 "/>
        <path class="stitch_line color_5 dot_5" d="M 76.000, 90.000  L 72.378, 88.302  L 76.000, 90.000  L 77.238, 87.037  L 73.485, 85.654  L 77.238, 87.037  L 78.191, 84.074  L 74.335, 83.010  L 78.191, 84.074  L 78.881, 81.111  L 74.952, 80.361  L 78.881, 81.111  L 79.330, 78.148  L 75.356, 77.696  L 79.330, 78.148  L 79.563, 75.185  L 75.567, 75.008  L 79.563, 75.185  L 79.601, 72.222  L 75.601, 72.292  L 79.601, 72.222  L 79.467, 69.259  L 75.478, 69.544  L 79.467, 69.259  L 79.185, 66.296  L 75.213, 66.764  L 79.185, 66.296  L 78.778, 63.333  L 74.826, 63.951  L 78.778, 63.333  L 78.267, 60.370  L 74.335, 61.106  L 78.267, 60.370  L 77.677, 57.407  L 73.762, 58.230  L 77.677, 57.407  L 77.029, 54.444  L 73.127, 55.325  L 77.029, 54.444  L 76.347, 51.481  L 72.451, 52.391  L 76.347, 51.481  L 75.653, 48.519  L 71.758, 49.428  L 75.653, 48.519  L 74.971, 45.556  L 71.069, 46.436  L 74.971, 45.556  L 74.323, 42.593  L 70.409, 43.416  L 74.323, 42.593  L 73.733, 39.630  L 69.801, 40.365  L 73.733, 39.630  L 73.222, 36.667  L 69.270, 37.284  L 73.222, 36.667  L 72.815, 33.704  L 68.842, 34.171  L 72.815, 33.704  L 72.533, 30.741  L 68.543, 31.026  L 72.533, 30.741  L 72.399, 27.778  L 68.400, 27.847  L 72.399, 27.778  L 72.437, 24.815  L 68.441, 24.638  L 72.437, 24.815  L 72.670, 21.852  L 68.695, 21.400  L 72.670, 21.852  L 73.119, 18.889  L 69.190, 18.139  L 73.119, 18.889  L 73.809, 15.926  L 69.953, 14.862  L 73.809, 15.926  L 74.762, 12.963  L 71.008, 11.580  L 74.762, 12.963  L 76.000, 10.000  L 72.378, 8.302  L 76.000, 10.000 "/>
        <path class="stitch_line color_6 dot_6" d="M 88.000, 90.000  L 86.639, 86.238  L 88.000, 90.000  L 89.238, 87.037  L 87.562, 83.405  L 89.238, 87.037  L 90.191, 84.074  L 88.217, 80.595  L 90.191, 84.074  L 90.881, 81.111  L 88.633, 77.802  L 90.881, 81.111  L 91.330, 78.148  L 88.840, 75.018  L 91.330, 78.148  L 91.563, 75.185  L 88.862, 72.234  L 91.563, 75.185  L 91.601, 72.222  L 88.724, 69.443  L 91.601, 72.222  L 91.467, 69.259  L 88.445, 66.639  L 91.467, 69.259  L 91.185, 66.296  L 88.046, 63.818  L 91.185, 66.296  L 90.778, 63.333  L 87.547, 60.975  L 90.778, 63.333  L 90.267, 60.370  L 86.967, 58.110  L 90.267, 60.370  L 89.677, 57.407  L 86.327, 55.221  L 89.677, 57.407  L 89.029, 54.444  L 85.647, 52.308  L 89.029, 54.444  L 88.347, 51.481  L 84.949, 49.370  L 88.347, 51.481  L 87.653, 48.519  L 84.256, 46.407  L 87.653, 48.519  L 86.971, 45.556  L 83.589, 43.419  L 86.971, 45.556  L 86.323, 42.593  L 82.974, 40.407  L 86.323, 42.593  L 85.733, 39.630  L 82.432, 37.370  L 85.733, 39.630  L 85.222, 36.667  L 81.991, 34.309  L 85.222, 36.667  L 84.815, 33.704  L 81.675, 31.225  L 84.815, 33.704  L 84.533, 30.741  L 81.510, 28.121  L 84.533, 30.741  L 84.399, 27.778  L 81.522, 24.999  L 84.399, 27.778  L 84.437, 24.815  L 81.737, 21.864  L 84.437, 24.815  L 84.670, 21.852  L 82.179, 18.722  L 84.670, 21.852  L 85.119, 18.889  L 82.872, 15.580  L 85.119, 18.889  L 85.809, 15.926  L 83.835, 12.447  L 85.809, 15.926  L 86.762, 12.963  L 85.085, 9.331  L 86.762, 12.963  L 88.000, 10.000  L 86.639, 6.238  L 88.000, 10.000 "/>
        <path class="stitch_line color_7 dot_7" d="M 99.095, 89.576  L 97.904, 86.284  L 99.095, 89.576  L 102.177, 87.383  L 105.355, 85.916  L 102.177, 87.383  L 101.227, 83.808  L 99.499, 80.764  L 101.227, 83.808  L 103.863, 81.299  L 106.758, 79.332  L 103.863, 81.299  L 102.337, 78.035  L 100.158, 75.296  L 102.337, 78.035  L 104.562, 75.230  L 107.144, 72.867  L 104.562, 75.230  L 102.601, 72.240  L 100.084, 69.808  L 102.601, 72.240  L 104.465, 69.188  L 106.757, 66.543  L 104.465, 69.188  L 102.192, 66.413  L 99.445, 64.244  L 102.192, 66.413  L 103.766, 63.179  L 105.829, 60.352  L 103.766, 63.179  L 101.284, 60.554  L 98.396, 58.577  L 101.284, 60.554  L 102.655, 57.202  L 104.568, 54.270  L 102.655, 57.202  L 100.053, 54.665  L 97.094, 52.795  L 100.053, 54.665  L 101.321, 51.254  L 103.168, 48.282  L 101.321, 51.254  L 98.679, 48.746  L 95.707, 46.898  L 98.679, 48.746  L 99.947, 45.335  L 101.816, 42.376  L 99.947, 45.335  L 97.345, 42.798  L 94.414, 40.886  L 97.345, 42.798  L 98.716, 39.446  L 100.693, 36.558  L 98.716, 39.446  L 96.234, 36.821  L 93.407, 34.758  L 96.234, 36.821  L 97.808, 33.587  L 99.976, 30.840  L 97.808, 33.587  L 95.535, 30.812  L 92.890, 28.520  L 95.535, 30.812  L 97.399, 27.760  L 99.831, 25.243  L 97.399, 27.760  L 95.438, 24.770  L 93.076, 22.188  L 95.438, 24.770  L 97.663, 21.965  L 100.402, 19.786  L 97.663, 21.965  L 96.137, 18.701  L 94.170, 15.806  L 96.137, 18.701  L 98.773, 16.192  L 101.817, 14.464  L 98.773, 16.192  L 97.823, 12.617  L 96.357, 9.439  L 97.823, 12.617  L 100.905, 10.424  L 104.197, 9.234  L 100.905, 10.424 "/>
        <path class="stitch_line color_8 dot_8" d="M 114.264, 91.061  L 109.736, 88.939  L 110.893, 86.173  L 112.592, 89.912  L 114.264, 91.061  L 115.584, 87.901  L 110.893, 86.173  L 111.781, 83.409  L 113.817, 86.910  L 115.584, 87.901  L 116.601, 84.739  L 111.781, 83.409  L 112.425, 80.642  L 114.754, 83.907  L 116.601, 84.739  L 117.336, 81.580  L 112.425, 80.642  L 112.846, 77.865  L 115.428, 80.905  L 117.336, 81.580  L 117.814, 78.431  L 112.846, 77.865  L 113.065, 75.074  L 115.860, 77.905  L 117.814, 78.431  L 118.060, 75.296  L 113.065, 75.074  L 113.101, 72.266  L 116.075, 74.908  L 118.060, 75.296  L 118.100, 72.179  L 113.101, 72.266  L 112.974, 69.437  L 116.095, 71.914  L 118.100, 72.179  L 117.961, 69.081  L 112.974, 69.437  L 112.703, 66.588  L 115.944, 68.925  L 117.961, 69.081  L 117.668, 66.004  L 112.703, 66.588  L 112.308, 63.719  L 115.646, 65.940  L 117.668, 66.004  L 117.248, 62.947  L 112.308, 63.719  L 111.810, 60.830  L 115.225, 62.958  L 117.248, 62.947  L 116.725, 59.911  L 111.810, 60.830  L 111.230, 57.922  L 114.703, 59.981  L 116.725, 59.911  L 116.123, 56.893  L 111.230, 57.922  L 110.590, 54.995  L 114.103, 57.007  L 116.123, 56.893  L 115.467, 53.894  L 110.590, 54.995  L 109.912, 52.050  L 113.449, 54.038  L 115.467, 53.894  L 114.781, 50.913  L 109.912, 52.050  L 109.219, 49.087  L 112.764, 51.071  L 114.781, 50.913  L 114.088, 47.950  L 109.219, 49.087  L 108.533, 46.106  L 112.071, 48.109  L 114.088, 47.950  L 113.410, 45.005  L 108.533, 46.106  L 107.877, 43.107  L 111.392, 45.150  L 113.410, 45.005  L 112.770, 42.078  L 107.877, 43.107  L 107.275, 40.089  L 110.751, 42.194  L 112.770, 42.078  L 112.190, 39.170  L 107.275, 40.089  L 106.752, 37.053  L 110.169, 39.243  L 112.190, 39.170  L 111.692, 36.281  L 106.752, 37.053  L 106.332, 33.996  L 109.671, 36.295  L 111.692, 36.281  L 111.297, 33.412  L 106.332, 33.996  L 106.039, 30.919  L 109.277, 33.351  L 111.297, 33.412  L 111.026, 30.563  L 106.039, 30.919  L 105.900, 27.821  L 109.011, 30.411  L 111.026, 30.563  L 110.899, 27.734  L 105.900, 27.821  L 105.940, 24.704  L 108.895, 27.476  L 110.899, 27.734  L 110.935, 24.926  L 105.940, 24.704  L 106.186, 21.569  L 108.951, 24.544  L 110.935, 24.926  L 111.154, 22.135  L 106.186, 21.569  L 106.664, 18.420  L 109.201, 21.616  L 111.154, 22.135  L 111.575, 19.358  L 106.664, 18.420  L 107.399, 15.261  L 109.668, 18.690  L 111.575, 19.358  L 112.219, 16.591  L 107.399, 15.261  L 108.416, 12.099  L 110.373, 15.767  L 112.219, 16.591  L 113.107, 13.827  L 108.416, 12.099  L 109.736, 8.939  L 111.340, 12.844  L 113.107, 13.827  L 114.264, 11.061  L 109.736, 8.939  L 112.453, 10.212  L 111.810, 11.661  L 110.731, 14.584  L 109.923, 17.508  L 109.362, 20.432  L 109.027, 23.359  L 108.895, 26.290  L 108.945, 29.224  L 109.153, 32.162  L 109.498, 35.104  L 109.957, 38.050  L 110.507, 41.000  L 111.127, 43.954  L 111.794, 46.912  L 112.484, 49.873  L 113.175, 52.838  L 113.844, 55.806  L 114.468, 58.778  L 115.024, 61.754  L 115.489, 64.733  L 115.840, 67.717  L 116.053, 70.705  L 116.105, 73.697  L 115.972, 76.692  L 115.630, 79.691  L 115.057, 82.693  L 114.229, 85.695  L 113.123, 88.698  L 112.453, 90.212  L 113.123, 88.698  L 114.229, 85.695  L 115.057, 82.693  L 115.630, 79.691  L 115.972, 76.692  L 116.105, 73.697  L 116.053, 70.705  L 115.840, 67.717  L 115.489, 64.733  L 115.024, 61.754  L 114.468, 58.778  L 113.844, 55.806  L 113.175, 52.838  L 112.484, 49.873  L 111.794, 46.912  L 111.127, 43.954  L 110.507, 41.000  L 109.957, 38.050  L 109.498, 35.104  L 109.153, 32.162  L 108.945, 29.224  L 108.895, 26.290  L 109.027, 23.359  L 109.362, 20.432  L 109.923, 17.508  L 110.731, 14.584  L 111.810, 11.661  L 112.453, 10.212 "/>
        <path class="stitch_line color_9 dot_9" d="M 125.061, 87.736  L 126.716, 91.273  L 122.939, 92.264  L 121.284, 88.727  L 125.061, 87.736  L 126.103, 84.691  L 128.053, 88.074  L 124.374, 89.383  L 122.423, 86.000  L 126.103, 84.691  L 126.856, 81.664  L 129.083, 84.872  L 125.526, 86.484  L 123.299, 83.276  L 126.856, 81.664  L 127.350, 78.655  L 129.827, 81.674  L 126.412, 83.567  L 123.934, 80.548  L 127.350, 78.655  L 127.613, 75.664  L 130.311, 78.487  L 127.048, 80.632  L 124.350, 77.809  L 127.613, 75.664  L 127.674, 72.688  L 130.560, 75.318  L 127.452, 77.683  L 124.566, 75.052  L 127.674, 72.688  L 127.557, 69.723  L 130.600, 72.170  L 127.644, 74.722  L 124.601, 72.274  L 127.557, 69.723  L 127.289, 66.766  L 130.460, 69.046  L 127.645, 71.753  L 124.475, 69.473  L 127.289, 66.766  L 126.893, 63.813  L 130.165, 65.946  L 127.478, 68.779  L 124.206, 66.647  L 126.893, 63.813  L 126.392, 60.863  L 129.742, 62.870  L 127.164, 65.803  L 123.814, 63.796  L 126.392, 60.863  L 125.807, 57.913  L 129.216, 59.819  L 126.727, 62.828  L 123.318, 60.922  L 125.807, 57.913  L 125.162, 54.961  L 128.612, 56.790  L 126.191, 59.854  L 122.741, 58.025  L 125.162, 54.961  L 124.478, 52.006  L 127.955, 53.784  L 125.579, 56.883  L 122.102, 55.105  L 124.478, 52.006  L 123.778, 49.047  L 127.268, 50.800  L 124.915, 53.916  L 121.425, 52.163  L 123.778, 49.047  L 123.085, 46.084  L 126.575, 47.837  L 124.222, 50.953  L 120.732, 49.200  L 123.085, 46.084  L 122.421, 43.117  L 125.898, 44.895  L 123.522, 47.994  L 120.045, 46.216  L 122.421, 43.117  L 121.809, 40.146  L 125.259, 41.975  L 122.838, 45.039  L 119.388, 43.210  L 121.809, 40.146  L 121.273, 37.172  L 124.682, 39.078  L 122.193, 42.087  L 118.784, 40.181  L 121.273, 37.172  L 120.836, 34.197  L 124.186, 36.204  L 121.608, 39.137  L 118.258, 37.130  L 120.836, 34.197  L 120.522, 31.221  L 123.794, 33.353  L 121.107, 36.187  L 117.835, 34.054  L 120.522, 31.221  L 120.355, 28.247  L 123.525, 30.527  L 120.711, 33.234  L 117.540, 30.954  L 120.355, 28.247  L 120.356, 25.278  L 123.399, 27.726  L 120.443, 30.277  L 117.400, 27.830  L 120.356, 25.278  L 120.548, 22.317  L 123.434, 24.948  L 120.326, 27.312  L 117.440, 24.682  L 120.548, 22.317  L 120.952, 19.368  L 123.650, 22.191  L 120.387, 24.336  L 117.689, 21.513  L 120.952, 19.368  L 121.588, 16.433  L 124.066, 19.452  L 120.650, 21.345  L 118.173, 18.326  L 121.588, 16.433  L 122.474, 13.516  L 124.701, 16.724  L 121.144, 18.336  L 118.917, 15.128  L 122.474, 13.516  L 123.626, 10.617  L 125.577, 14.000  L 121.897, 15.309  L 119.947, 11.926  L 123.626, 10.617  L 125.061, 7.736  L 126.716, 11.273  L 122.939, 12.264  L 121.284, 8.727  L 125.061, 7.736 "/>
        <path class="stitch_line color_10 dot_10" d="M 135.004, 90.436  L 138.621, 86.982  L 134.843, 90.259  L 138.459, 86.804  L 134.681, 90.081  L 138.298, 86.627  L 136.265, 87.606  L 139.576, 83.857  L 136.089, 87.443  L 139.400, 83.694  L 135.913, 87.280  L 139.224, 83.531  L 137.257, 84.758  L 140.249, 80.750  L 137.069, 84.610  L 140.060, 80.601  L 136.880, 84.462  L 139.871, 80.453  L 137.997, 81.890  L 140.667, 77.661  L 137.797, 81.757  L 140.467, 77.528  L 137.598, 81.625  L 140.267, 77.395  L 138.502, 79.004  L 140.858, 74.592  L 138.293, 78.885  L 140.649, 74.474  L 138.084, 78.767  L 140.441, 74.356  L 138.789, 76.099  L 140.852, 71.543  L 138.573, 75.995  L 140.636, 71.439  L 138.357, 75.891  L 140.420, 71.334  L 138.879, 73.179  L 140.675, 68.511  L 138.657, 73.088  L 140.453, 68.420  L 138.435, 72.996  L 140.231, 68.328  L 138.791, 70.247  L 140.351, 65.495  L 138.565, 70.167  L 140.125, 65.415  L 138.338, 70.086  L 139.899, 65.335  L 138.547, 67.305  L 139.907, 62.492  L 138.318, 67.234  L 139.678, 62.421  L 138.088, 67.163  L 139.449, 62.351  L 138.170, 64.356  L 139.366, 59.500  L 137.938, 64.293  L 139.134, 59.437  L 137.706, 64.230  L 138.903, 59.374  L 137.682, 61.402  L 138.751, 56.516  L 137.449, 61.345  L 138.517, 56.459  L 137.215, 61.288  L 138.284, 56.402  L 137.106, 58.444  L 138.085, 53.539  L 136.872, 58.391  L 137.850, 53.487  L 136.638, 58.339  L 137.616, 53.434  L 136.466, 55.484  L 137.390, 50.568  L 136.232, 55.434  L 137.156, 50.518  L 135.997, 55.384  L 136.921, 50.468  L 135.785, 52.522  L 136.691, 47.603  L 135.550, 52.472  L 136.456, 47.554  L 135.315, 52.423  L 136.221, 47.505  L 135.085, 49.558  L 136.009, 44.642  L 134.851, 49.508  L 135.774, 44.592  L 134.616, 49.458  L 135.539, 44.542  L 134.390, 46.592  L 135.367, 41.687  L 134.156, 46.540  L 135.133, 41.635  L 133.921, 46.487  L 134.899, 41.582  L 133.721, 43.624  L 134.789, 38.738  L 133.488, 43.567  L 134.556, 38.681  L 133.255, 43.510  L 134.323, 38.624  L 133.102, 40.652  L 134.297, 35.796  L 132.871, 40.589  L 134.066, 35.733  L 132.639, 40.527  L 133.834, 35.670  L 132.556, 37.676  L 133.915, 32.862  L 132.327, 37.605  L 133.685, 32.792  L 132.097, 37.534  L 133.456, 32.721  L 132.104, 34.692  L 133.663, 29.939  L 131.878, 34.611  L 133.437, 29.859  L 131.652, 34.531  L 133.211, 29.779  L 131.772, 31.698  L 133.565, 27.029  L 131.550, 31.607  L 133.343, 26.938  L 131.328, 31.515  L 133.121, 26.846  L 131.581, 28.692  L 133.642, 24.135  L 131.365, 28.588  L 133.425, 24.031  L 131.149, 28.484  L 133.209, 23.927  L 131.559, 25.671  L 133.913, 21.258  L 131.350, 25.553  L 133.704, 21.140  L 131.141, 25.435  L 133.495, 21.022  L 131.731, 22.632  L 134.397, 18.400  L 131.531, 22.499  L 134.197, 18.268  L 131.331, 22.366  L 133.997, 18.135  L 132.125, 19.574  L 135.113, 15.563  L 131.936, 19.426  L 134.924, 15.415  L 131.747, 19.278  L 134.735, 15.267  L 132.769, 16.496  L 136.077, 12.745  L 132.593, 16.333  L 135.901, 12.582  L 132.417, 16.170  L 135.725, 12.419  L 133.693, 13.400  L 137.307, 9.943  L 133.531, 13.223  L 137.145, 9.766  L 133.369, 13.046  L 136.984, 9.589 "/>
        <path class="stitch_line color_11 dot_11" d="M 150.186, 91.341  L 150.806, 87.265  L 148.341, 90.570  L 148.961, 86.493  L 146.496, 89.798  L 147.116, 85.722  L 151.512, 88.238  L 151.785, 84.124  L 149.608, 87.626  L 149.881, 83.512  L 147.705, 87.013  L 147.977, 82.899  L 152.546, 85.120  L 152.479, 80.998  L 150.598, 84.667  L 150.531, 80.544  L 148.650, 84.213  L 148.583, 80.091  L 153.304, 81.995  L 152.915, 77.890  L 151.326, 81.695  L 150.938, 77.590  L 149.349, 81.395  L 148.960, 77.290  L 153.807, 78.869  L 153.123, 74.803  L 151.813, 78.713  L 151.129, 74.647  L 149.819, 78.556  L 149.135, 74.490  L 154.079, 75.749  L 153.130, 71.736  L 152.079, 75.723  L 151.130, 71.710  L 150.079, 75.697  L 149.130, 71.685  L 154.142, 72.639  L 152.963, 68.688  L 152.144, 72.729  L 150.965, 68.778  L 150.146, 72.819  L 148.967, 68.868  L 154.023, 69.545  L 152.648, 65.658  L 152.032, 69.734  L 150.657, 65.847  L 150.041, 69.924  L 148.666, 66.037  L 153.747, 66.468  L 152.211, 62.642  L 151.766, 66.741  L 150.229, 62.915  L 149.785, 67.014  L 148.248, 63.188  L 153.340, 63.411  L 151.674, 59.639  L 151.369, 63.751  L 149.703, 59.979  L 149.398, 64.091  L 147.733, 60.319  L 152.826, 60.374  L 151.063, 56.647  L 150.865, 60.765  L 149.101, 57.038  L 148.903, 61.157  L 147.140, 57.430  L 152.231, 57.358  L 150.399, 53.664  L 150.277, 57.786  L 148.445, 54.092  L 148.324, 58.213  L 146.491, 54.520  L 151.579, 54.363  L 149.706, 50.690  L 149.630, 54.813  L 147.757, 51.139  L 147.681, 55.262  L 145.808, 51.589  L 150.893, 51.390  L 149.007, 47.724  L 148.946, 51.846  L 147.060, 48.180  L 146.999, 52.303  L 145.113, 48.636  L 150.198, 48.437  L 148.325, 44.764  L 148.249, 48.887  L 146.376, 45.214  L 146.300, 49.336  L 144.427, 45.663  L 149.514, 45.506  L 147.682, 41.812  L 147.561, 45.934  L 145.728, 42.240  L 145.607, 46.362  L 143.774, 42.668  L 148.865, 42.596  L 147.101, 38.869  L 146.904, 42.987  L 145.140, 39.261  L 144.943, 43.379  L 143.179, 39.653  L 148.272, 39.706  L 146.606, 35.935  L 146.302, 40.047  L 144.635, 36.275  L 144.331, 40.387  L 142.664, 36.616  L 147.756, 36.837  L 146.218, 33.012  L 145.775, 37.111  L 144.237, 33.285  L 143.794, 37.385  L 142.256, 33.559  L 147.337, 33.988  L 145.960, 30.101  L 145.346, 34.179  L 143.969, 30.292  L 143.355, 34.369  L 141.978, 30.482  L 147.035, 31.156  L 145.854, 27.206  L 145.037, 31.247  L 143.856, 27.297  L 143.039, 31.338  L 141.858, 27.388  L 146.870, 28.340  L 145.920, 24.328  L 144.871, 28.315  L 143.920, 24.303  L 142.871, 28.291  L 141.920, 24.279  L 146.864, 25.534  L 146.177, 21.469  L 144.870, 25.379  L 144.183, 21.314  L 142.876, 25.224  L 142.189, 21.158  L 147.037, 22.734  L 146.646, 18.630  L 145.060, 22.436  L 144.668, 18.331  L 143.082, 22.137  L 142.691, 18.032  L 147.413, 19.934  L 147.343, 15.811  L 145.465, 19.482  L 145.395, 15.359  L 143.516, 19.030  L 143.447, 14.907  L 148.016, 17.125  L 148.286, 13.011  L 146.112, 16.515  L 146.382, 12.400  L 144.208, 15.904  L 144.477, 11.789  L 148.875, 14.303  L 149.493, 10.226  L 147.030, 13.533  L 147.647, 9.456  L 145.184, 12.763  L 145.801, 8.686 "/>
        <path class="stitch_line color_12 dot_12" d="M 160.000, 90.000  L 161.284, 86.911  L 162.259, 83.823  L 162.951, 80.734  L 163.384, 77.646  L 163.586, 74.557  L 163.582, 71.468  L 161.508, 73.800  L 163.582, 71.468  L 165.913, 73.543  L 163.582, 71.468  L 163.497, 70.000  L 161.422, 72.331  L 163.497, 70.000  L 165.828, 72.074  L 163.497, 70.000  L 163.411, 68.532  L 161.337, 70.863  L 163.411, 68.532  L 165.742, 70.606  L 163.411, 68.532  L 163.111, 65.688  L 162.700, 62.844  L 162.197, 60.000  L 161.624, 57.156  L 160.999, 54.312  L 160.344, 51.468  L 158.657, 54.187  L 160.344, 51.468  L 163.062, 53.156  L 160.344, 51.468  L 160.000, 50.000  L 158.313, 52.718  L 160.000, 50.000  L 162.718, 51.687  L 160.000, 50.000  L 159.656, 48.532  L 157.969, 51.250  L 159.656, 48.532  L 162.375, 50.219  L 159.656, 48.532  L 159.001, 45.688  L 158.376, 42.844  L 157.803, 40.000  L 157.300, 37.156  L 156.889, 34.312  L 156.589, 31.468  L 154.515, 33.800  L 156.589, 31.468  L 158.920, 33.543  L 156.589, 31.468  L 156.503, 30.000  L 154.429, 32.331  L 156.503, 30.000  L 158.834, 32.074  L 156.503, 30.000  L 156.418, 28.532  L 154.343, 30.863  L 156.418, 28.532  L 158.749, 30.606  L 156.418, 28.532  L 156.414, 25.443  L 156.616, 22.354  L 157.049, 19.266  L 157.741, 16.177  L 158.716, 13.089  L 160.000, 10.000 "/>
        <path class="stitch_line color_13 dot_13" d="M 172.000, 90.000  L 175.777, 89.010  L 172.000, 90.000  L 170.345, 86.463  L 172.000, 90.000  L 168.223, 90.990  L 172.000, 90.000  L 173.655, 93.537  L 172.000, 90.000  L 173.238, 87.037  L 176.918, 85.728  L 173.238, 87.037  L 171.288, 83.654  L 173.238, 87.037  L 169.559, 88.346  L 173.238, 87.037  L 175.189, 90.420  L 173.238, 87.037  L 174.191, 84.074  L 177.748, 82.462  L 174.191, 84.074  L 171.964, 80.866  L 174.191, 84.074  L 170.634, 85.686  L 174.191, 84.074  L 176.418, 87.282  L 174.191, 84.074  L 174.881, 81.111  L 178.296, 79.218  L 174.881, 81.111  L 172.403, 78.093  L 174.881, 81.111  L 171.465, 83.004  L 174.881, 81.111  L 177.358, 84.129  L 174.881, 81.111  L 175.330, 78.148  L 178.594, 76.003  L 175.330, 78.148  L 172.632, 75.325  L 175.330, 78.148  L 172.067, 80.293  L 175.330, 78.148  L 178.028, 80.971  L 175.330, 78.148  L 175.563, 75.185  L 178.671, 72.821  L 175.563, 75.185  L 172.676, 72.555  L 175.563, 75.185  L 172.455, 77.550  L 175.563, 75.185  L 178.449, 77.816  L 175.563, 75.185  L 175.601, 72.222  L 178.557, 69.671  L 175.601, 72.222  L 172.558, 69.775  L 175.601, 72.222  L 172.645, 74.774  L 175.601, 72.222  L 178.644, 74.670  L 175.601, 72.222  L 175.467, 69.259  L 178.282, 66.552  L 175.467, 69.259  L 172.297, 66.979  L 175.467, 69.259  L 172.653, 71.966  L 175.467, 69.259  L 178.638, 71.539  L 175.467, 69.259  L 175.185, 66.296  L 177.873, 63.463  L 175.185, 66.296  L 171.914, 64.164  L 175.185, 66.296  L 172.498, 69.130  L 175.185, 66.296  L 178.457, 68.429  L 175.185, 66.296  L 174.778, 63.333  L 177.356, 60.400  L 174.778, 63.333  L 171.428, 61.326  L 174.778, 63.333  L 172.200, 66.266  L 174.778, 63.333  L 178.128, 65.340  L 174.778, 63.333  L 174.267, 60.370  L 176.756, 57.361  L 174.267, 60.370  L 170.859, 58.465  L 174.267, 60.370  L 171.778, 63.379  L 174.267, 60.370  L 177.676, 62.276  L 174.267, 60.370  L 173.677, 57.407  L 176.098, 54.344  L 173.677, 57.407  L 170.226, 55.578  L 173.677, 57.407  L 171.255, 60.471  L 173.677, 57.407  L 177.127, 59.237  L 173.677, 57.407  L 173.029, 54.444  L 175.405, 51.345  L 173.029, 54.444  L 169.552, 52.666  L 173.029, 54.444  L 170.653, 57.544  L 173.029, 54.444  L 176.506, 56.223  L 173.029, 54.444  L 172.347, 51.481  L 174.700, 48.365  L 172.347, 51.481  L 168.857, 49.729  L 172.347, 51.481  L 169.994, 54.598  L 172.347, 51.481  L 175.836, 53.234  L 172.347, 51.481  L 171.653, 48.519  L 174.006, 45.402  L 171.653, 48.519  L 168.164, 46.766  L 171.653, 48.519  L 169.300, 51.635  L 171.653, 48.519  L 175.143, 50.271  L 171.653, 48.519  L 170.971, 45.556  L 173.347, 42.456  L 170.971, 45.556  L 167.494, 43.777  L 170.971, 45.556  L 168.595, 48.655  L 170.971, 45.556  L 174.448, 47.334  L 170.971, 45.556  L 170.323, 42.593  L 172.745, 39.529  L 170.323, 42.593  L 166.873, 40.763  L 170.323, 42.593  L 167.902, 45.656  L 170.323, 42.593  L 173.774, 44.422  L 170.323, 42.593  L 169.733, 39.630  L 172.222, 36.621  L 169.733, 39.630  L 166.324, 37.724  L 169.733, 39.630  L 167.244, 42.639  L 169.733, 39.630  L 173.141, 41.535  L 169.733, 39.630  L 169.222, 36.667  L 171.800, 33.734  L 169.222, 36.667  L 165.872, 34.660  L 169.222, 36.667  L 166.644, 39.600  L 169.222, 36.667  L 172.572, 38.674  L 169.222, 36.667  L 168.815, 33.704  L 171.502, 30.870  L 168.815, 33.704  L 165.543, 31.571  L 168.815, 33.704  L 166.127, 36.537  L 168.815, 33.704  L 172.086, 35.836  L 168.815, 33.704  L 168.533, 30.741  L 171.347, 28.034  L 168.533, 30.741  L 165.362, 28.461  L 168.533, 30.741  L 165.718, 33.448  L 168.533, 30.741  L 171.703, 33.021  L 168.533, 30.741  L 168.399, 27.778  L 171.355, 25.226  L 168.399, 27.778  L 165.356, 25.330  L 168.399, 27.778  L 165.443, 30.329  L 168.399, 27.778  L 171.442, 30.225  L 168.399, 27.778  L 168.437, 24.815  L 171.545, 22.450  L 168.437, 24.815  L 165.551, 22.184  L 168.437, 24.815  L 165.329, 27.179  L 168.437, 24.815  L 171.324, 27.445  L 168.437, 24.815  L 168.670, 21.852  L 171.933, 19.707  L 168.670, 21.852  L 165.972, 19.029  L 168.670, 21.852  L 165.406, 23.997  L 168.670, 21.852  L 171.368, 24.675  L 168.670, 21.852  L 169.119, 18.889  L 172.535, 16.996  L 169.119, 18.889  L 166.642, 15.871  L 169.119, 18.889  L 165.704, 20.782  L 169.119, 18.889  L 171.597, 21.907  L 169.119, 18.889  L 169.809, 15.926  L 173.366, 14.314  L 169.809, 15.926  L 167.582, 12.718  L 169.809, 15.926  L 166.252, 17.538  L 169.809, 15.926  L 172.036, 19.134  L 169.809, 15.926  L 170.762, 12.963  L 174.441, 11.654  L 170.762, 12.963  L 168.811, 9.580  L 170.762, 12.963  L 167.082, 14.272  L 170.762, 12.963  L 172.712, 16.346  L 170.762, 12.963  L 172.000, 10.000  L 175.777, 9.010  L 172.000, 10.000  L 170.345, 6.463  L 172.000, 10.000  L 168.223, 10.990  L 172.000, 10.000  L 173.655, 13.537  L 172.000, 10.000 "/>
    </g>
</svg>
