<?xml version="1.0" encoding="utf-8" ?>
<svg xmlns="http://www.w3.org/2000/svg" xmlns:ev="http://www.w3.org/2001/xml-events" xmlns:xlink="http://www.w3.org/1999/xlink" baseProfile="full" height="100mm" version="1.1" viewBox="0,0,188,100" width="188mm">
    <defs>
        <style type="text/css"><![CDATA[
.stitch_line {
    stroke-width: 0.3;
    stroke-linejoin: round;
    stroke-linecap: round;
    fill: none;
}
.path_center_line {
    fill: none;
    stroke:#808080;
    stroke-width: 0.2;
    stroke-linejoin: round;
    stroke-linecap: round;
}
.path_contour {
    fill: #808080;
    fill-opacity: 0.3;
    stroke: #808080;
    stroke-opacity: 1;
    stroke-width: 0.3;
}
.text{
    text-anchor: middle;
    dominant-baseline: middle;
    font-family: sans-serif;
    font-size: 1.5mm;
}
.smalltext{
    text-anchor: middle;
    dominant-baseline: middle;
    font-family: sans-serif;
    font-size: 1mm;
}
.color_0 {
    stroke:#3bb2d0;
}
.dot_0 {
    marker-start:url(#dot_0);
    marker-mid:url(#dot_0);
    marker-end:url(#dot_0);
}
.color_1 {
    stroke:#3887be;
}
.dot_1 {
    marker-start:url(#dot_1);
    marker-mid:url(#dot_1);
    marker-end:url(#dot_1);
}
.color_2 {
    stroke:#8a8acb;
}
.dot_2 {
    marker-start:url(#dot_2);
    marker-mid:url(#dot_2);
    marker-end:url(#dot_2);
}
.color_3 {
    stroke:#56b881;
}
.dot_3 {
    marker-start:url(#dot_3);
    marker-mid:url(#dot_3);
    marker-end:url(#dot_3);
}
.color_4 {
    stroke:#50667f;
}
.dot_4 {
    marker-start:url(#dot_4);
    marker-mid:url(#dot_4);
    marker-end:url(#dot_4);
}
.color_5 {
    stroke:#41afa5;
}
.dot_5 {
    marker-start:url(#dot_5);
    marker-mid:url(#dot_5);
    marker-end:url(#dot_5);
}
.color_6 {
    stroke:#f9886c;
}
.dot_6 {
    marker-start:url(#dot_6);
    marker-mid:url(#dot_6);
    marker-end:url(#dot_6);
}
.color_7 {
    stroke:#e55e5e;
}
.dot_7 {
    marker-start:url(#dot_7);
    marker-mid:url(#dot_7);
    marker-end:url(#dot_7);
}
.color_8 {
    stroke:#ed6498;
}
.dot_8 {
    marker-start:url(#dot_8);
    marker-mid:url(#dot_8);
    marker-end:url(#dot_8);
}
.color_9 {
    stroke:#fbb03b;
}
.dot_9 {
    marker-start:url(#dot_9);
    marker-mid:url(#dot_9);
    marker-end:url(#dot_9);
}
.color_10 {
    stroke:#3bb2d0;
}
.dot_10 {
    marker-start:url(#dot_10);
    marker-mid:url(#dot_10);
    marker-end:url(#dot_10);
}
.color_11 {
    stroke:#3887be;
}
.dot_11 {
    marker-start:url(#dot_11);
    marker-mid:url(#dot_11);
    marker-end:url(#dot_11);
}
.color_12 {
    stroke:#8a8acb;
}
.dot_12 {
    marker-start:url(#dot_12);
    marker-mid:url(#dot_12);
    marker-end:url(#dot_12);
}
.color_13 {
    stroke:#56b881;
}
.dot_13 {
    marker-start:url(#dot_13);
    marker-mid:url(#dot_13);
    marker-end:url(#dot_13);
}
]]></style>
        <marker id="dot_0" markerHeight="3.0" markerWidth="3.0" refX="1.5" refY="1.5">
            <circle cx="1.5" cy="1.5" fill="#3bb2d0" r="1.5"/>
        </marker>
        <marker id="dot_1" markerHeight="3.0" markerWidth="3.0" refX="1.5" refY="1.5">
            <circle cx="1.5" cy="1.5" fill="#3887be" r="1.5"/>
        </marker>
        <marker id="dot_2" markerHeight="3.0" markerWidth="3.0" refX="1.5" refY="1.5">
            <circle cx="1.5" cy="1.5" fill="#8a8acb" r="1.5"/>
        </marker>
        <marker id="dot_3" markerHeight="3.0" markerWidth="3.0" refX="1.5" refY="1.5">
            <circle cx="1.5" cy="1.5" fill="#56b881" r="1.5"/>
        </marker>
        <marker id="dot_4" markerHeight="3.0" markerWidth="3.0" refX="1.5" refY="1.5">
            <circle cx="1.5" cy="1.5" fill="#50667f" r="1.5"/>
        </marker>
        <marker id="dot_5" markerHeight="3.0" markerWidth="3.0" refX="1.5" refY="1.5">
            <circle cx="1.5" cy="1.5" fill="#41afa5" r="1.5"/>
        </marker>
        <marker id="dot_6" markerHeight="3.0" markerWidth="3.0" refX="1.5" refY="1.5">
            <circle cx="1.5" cy="1.5" fill="#f9886c" r="1.5"/>
        </marker>
        <marker id="dot_7" markerHeight="3.0" markerWidth="3.0" refX="1.5" refY="1.5">
            <circle cx="1.5" cy="1.5" fill="#e55e5e" r="1.5"/>
        </marker>
        <marker id="dot_8" markerHeight="3.0" markerWidth="3.0" refX="1.5" refY="1.5">
            <circle cx="1.5" cy="1.5" fill="#ed6498" r="1.5"/>
        </marker>
        <marker id="dot_9" markerHeight="3.0" markerWidth="3.0" refX="1.5" refY="1.5">
            <circle cx="1.5" cy="1.5" fill="#fbb03b" r="1.5"/>
        </marker>
        <marker id="dot_10" markerHeight="3.0" markerWidth="3.0" refX="1.5" refY="1.5">
            <circle cx="1.5" cy="1.5" fill="#3bb2d0" r="1.5"/>
        </marker>
        <marker id="dot_11" markerHeight="3.0" markerWidth="3.0" refX="1.5" refY="1.5">
            <circle cx="1.5" cy="1.5" fill="#3887be" r="1.5"/>
        </marker>
        <marker id="dot_12" markerHeight="3.0" markerWidth="3.0" refX="1.5" refY="1.5">
            <circle cx="1.5" cy="1.5" fill="#8a8acb" r="1.5"/>
        </marker>
        <marker id="dot_13" markerHeight="3.0" markerWidth="3.0" refX="1.5" refY="1.5">
            <circle cx="1.5" cy="1.5" fill="#56b881" r="1.5"/>
        </marker>
    </defs>
    <g>
        <path class="stitch_line color_0 dot_0" d="M 12.933, 90.771  L 14.600, 87.135  L 12.872, 90.743  L 14.540, 87.107  L 18.768, 89.943  L 20.200, 86.208  L 18.830, 89.966  L 20.263, 86.231  L 15.215, 85.592  L 16.274, 81.734  L 15.151, 85.573  L 16.210, 81.716  L 20.839, 83.834  L 21.651, 79.917  L 20.904, 83.847  L 21.716, 79.930  L 16.629, 80.099  L 17.073, 76.124  L 16.563, 80.091  L 17.007, 76.116  L 21.902, 77.508  L 22.131, 73.514  L 21.969, 77.511  L 22.198, 73.518  L 17.182, 74.400  L 17.091, 70.401  L 17.116, 74.401  L 17.024, 70.402  L 22.057, 71.166  L 21.811, 67.173  L 22.123, 71.161  L 21.877, 67.168  L 16.989, 68.600  L 16.490, 64.631  L 16.923, 68.608  L 16.424, 64.639  L 21.507, 64.928  L 20.922, 60.971  L 21.573, 64.918  L 20.988, 60.960  L 16.223, 62.765  L 15.454, 58.839  L 16.158, 62.777  L 15.388, 58.851  L 20.480, 58.832  L 19.689, 54.911  L 20.545, 58.819  L 19.754, 54.897  L 15.075, 56.913  L 14.161, 53.019  L 15.010, 56.928  L 14.096, 53.034  L 19.185, 52.864  L 18.309, 48.961  L 19.250, 52.849  L 18.374, 48.946  L 13.724, 51.031  L 12.782, 47.143  L 13.659, 51.046  L 12.717, 47.159  L 17.806, 46.988  L 16.958, 43.079  L 17.871, 46.974  L 17.023, 43.065  L 12.344, 45.082  L 11.487, 41.175  L 12.278, 45.096  L 11.422, 41.188  L 16.513, 41.167  L 15.810, 37.229  L 16.579, 41.155  L 15.875, 37.217  L 11.111, 39.024  L 10.460, 35.077  L 11.045, 39.034  L 10.394, 35.088  L 15.477, 35.373  L 15.044, 31.396  L 15.543, 35.365  L 15.111, 31.388  L 10.222, 32.825  L 9.910, 28.837  L 10.156, 32.829  L 9.843, 28.841  L 14.876, 29.599  L 14.851, 25.599  L 14.942, 29.598  L 14.918, 25.598  L 9.902, 26.487  L 10.064, 22.490  L 9.835, 26.484  L 9.998, 22.487  L 14.894, 23.872  L 15.404, 19.905  L 14.960, 23.880  L 15.470, 19.913  L 10.382, 20.090  L 11.129, 16.160  L 10.316, 20.077  L 11.063, 16.147  L 15.693, 18.256  L 16.817, 14.417  L 15.758, 18.275  L 16.881, 14.436  L 11.831, 13.804  L 13.201, 10.046  L 11.768, 13.780  L 13.139, 10.022  L 17.370, 12.851  L 19.097, 9.243  L 17.430, 12.879  L 19.158, 9.271 "/>
        <path class="stitch_line color_1 dot_1" d="M 29.415, 92.872  L 28.000, 90.000  L 24.887, 90.750  L 26.131, 88.208  L 29.174, 87.211  L 30.814, 89.960  L 31.977, 86.943  L 30.118, 84.336  L 27.167, 85.578  L 27.984, 82.869  L 30.825, 81.394  L 32.888, 83.843  L 33.544, 80.690  L 31.300, 78.406  L 28.579, 80.093  L 28.958, 77.266  L 31.553, 75.391  L 33.952, 77.510  L 34.132, 74.328  L 31.603, 72.365  L 29.132, 74.401  L 29.119, 71.511  L 31.473, 69.341  L 34.107, 71.162  L 33.905, 68.024  L 31.189, 66.328  L 28.939, 68.606  L 28.616, 65.692  L 30.777, 63.330  L 33.556, 64.920  L 33.088, 61.853  L 30.263, 60.348  L 28.174, 62.774  L 27.636, 59.852  L 29.671, 57.380  L 32.529, 58.822  L 31.903, 55.823  L 29.024, 54.423  L 27.026, 56.924  L 26.365, 53.989  L 28.345, 51.473  L 31.234, 52.853  L 30.544, 49.906  L 27.655, 48.527  L 25.675, 51.042  L 24.978, 48.079  L 26.976, 45.577  L 29.855, 46.977  L 29.188, 44.063  L 26.329, 42.620  L 24.295, 45.092  L 23.648, 42.078  L 25.737, 39.652  L 28.563, 41.158  L 28.002, 38.260  L 25.223, 36.670  L 23.062, 39.032  L 22.561, 35.949  L 24.811, 33.672  L 27.527, 35.367  L 27.160, 32.479  L 24.527, 30.659  L 22.172, 32.828  L 21.926, 29.671  L 24.397, 27.635  L 26.926, 29.598  L 26.846, 26.729  L 24.447, 24.609  L 21.852, 26.485  L 21.979, 23.281  L 24.700, 21.594  L 26.943, 23.878  L 27.237, 21.055  L 25.175, 18.606  L 22.333, 20.080  L 22.931, 16.905  L 25.882, 15.664  L 27.742, 18.270  L 28.467, 15.538  L 26.826, 12.789  L 23.784, 13.786  L 24.887, 10.750  L 28.000, 10.000  L 29.415, 12.872 "/>
        <path class="stitch_line color_2 dot_2" d="M 37.736, 88.939  L 37.145, 90.318  L 38.400, 87.593  L 37.109, 90.301  L 38.364, 87.576  L 37.073, 90.284  L 38.328, 87.560  L 37.736, 88.939  L 43.515, 88.087  L 42.943, 89.474  L 44.013, 86.672  L 42.980, 89.489  L 44.050, 86.686  L 43.018, 89.503  L 44.088, 86.700  L 43.515, 88.087  L 39.713, 83.654  L 39.351, 85.111  L 40.151, 82.219  L 39.313, 85.100  L 40.112, 82.208  L 39.274, 85.089  L 40.074, 82.197  L 39.713, 83.654  L 45.277, 81.882  L 44.936, 83.343  L 45.540, 80.405  L 44.975, 83.351  L 45.580, 80.413  L 45.014, 83.359  L 45.619, 80.420  L 45.277, 81.882  L 40.818, 78.108  L 40.689, 79.603  L 41.027, 76.622  L 40.649, 79.598  L 40.987, 76.617  L 40.609, 79.593  L 40.947, 76.612  L 40.818, 78.108  L 46.050, 75.513  L 45.927, 77.009  L 46.093, 74.013  L 45.967, 77.011  L 46.133, 74.015  L 46.007, 77.012  L 46.173, 74.017  L 46.050, 75.513  L 41.103, 72.401  L 41.175, 73.900  L 41.112, 70.901  L 41.135, 73.901  L 41.072, 70.902  L 41.095, 73.902  L 41.032, 70.902  L 41.103, 72.401  L 45.967, 69.167  L 46.022, 70.667  L 45.833, 67.673  L 46.062, 70.664  L 45.872, 67.670  L 46.102, 70.661  L 45.912, 67.667  L 45.967, 69.167  L 40.706, 66.619  L 40.931, 68.103  L 40.561, 65.126  L 40.891, 68.108  L 40.522, 65.131  L 40.851, 68.113  L 40.482, 65.136  L 40.706, 66.619  L 45.247, 62.944  L 45.430, 64.434  L 44.986, 61.467  L 45.469, 64.428  L 45.026, 61.461  L 45.509, 64.422  L 45.065, 61.454  L 45.247, 62.944  L 39.806, 60.808  L 40.131, 62.273  L 39.559, 59.328  L 40.092, 62.281  L 39.520, 59.335  L 40.052, 62.288  L 39.480, 59.343  L 39.806, 60.808  L 44.117, 56.865  L 44.377, 58.343  L 43.779, 55.403  L 44.416, 58.335  L 43.818, 55.395  L 44.455, 58.326  L 43.857, 55.387  L 44.117, 56.865  L 38.585, 54.974  L 38.964, 56.426  L 38.284, 53.504  L 38.925, 56.435  L 38.245, 53.513  L 38.886, 56.443  L 38.206, 53.521  L 38.585, 54.974  L 42.779, 50.905  L 43.072, 52.377  L 42.409, 49.451  L 43.111, 52.368  L 42.448, 49.442  L 43.150, 52.359  L 42.487, 49.433  L 42.779, 50.905  L 37.221, 49.095  L 37.610, 50.544  L 36.909, 47.627  L 37.571, 50.553  L 36.870, 47.636  L 37.532, 50.562  L 36.831, 47.645  L 37.221, 49.095  L 41.415, 45.026  L 41.696, 46.501  L 41.055, 43.570  L 41.735, 46.492  L 41.094, 43.561  L 41.774, 46.483  L 41.133, 43.552  L 41.415, 45.026  L 35.883, 43.135  L 36.241, 44.593  L 35.603, 41.661  L 36.202, 44.601  L 35.564, 41.669  L 36.162, 44.609  L 35.525, 41.678  L 35.883, 43.135  L 40.194, 39.192  L 40.421, 40.676  L 39.889, 37.723  L 40.461, 40.668  L 39.928, 37.716  L 40.500, 40.661  L 39.967, 37.708  L 40.194, 39.192  L 34.753, 37.056  L 35.034, 38.530  L 34.551, 35.569  L 34.994, 38.536  L 34.511, 35.575  L 34.955, 38.542  L 34.472, 35.582  L 34.753, 37.056  L 39.294, 33.381  L 39.419, 34.876  L 39.089, 31.894  L 39.458, 34.871  L 39.129, 31.890  L 39.498, 34.867  L 39.169, 31.885  L 39.294, 33.381  L 34.033, 30.833  L 34.187, 32.326  L 33.958, 29.335  L 34.148, 32.329  L 33.918, 29.337  L 34.108, 32.332  L 33.878, 29.340  L 34.033, 30.833  L 38.897, 27.599  L 38.868, 29.099  L 38.845, 26.099  L 38.908, 29.099  L 38.885, 26.099  L 38.948, 29.098  L 38.925, 26.098  L 38.897, 27.599  L 33.950, 24.487  L 33.926, 25.988  L 34.053, 22.990  L 33.887, 25.986  L 34.013, 22.988  L 33.847, 25.984  L 33.973, 22.987  L 33.950, 24.487  L 39.182, 21.892  L 38.953, 23.376  L 39.331, 20.400  L 38.993, 23.380  L 39.371, 20.404  L 39.033, 23.385  L 39.411, 20.409  L 39.182, 21.892  L 34.723, 18.118  L 34.479, 19.599  L 35.044, 16.653  L 34.440, 19.591  L 35.005, 16.645  L 34.401, 19.584  L 34.966, 16.637  L 34.723, 18.118  L 40.287, 16.346  L 39.830, 17.775  L 40.668, 14.895  L 39.868, 17.786  L 40.707, 14.906  L 39.907, 17.797  L 40.745, 14.917  L 40.287, 16.346  L 36.485, 11.913  L 36.006, 13.335  L 37.038, 10.518  L 35.969, 13.321  L 37.001, 10.504  L 35.931, 13.307  L 36.964, 10.490  L 36.485, 11.913  L 42.264, 11.061  L 41.582, 12.398  L 42.873, 9.690  L 41.618, 12.415  L 42.909, 9.707  L 41.654, 12.432  L 42.946, 9.724  L 42.264, 11.061 "/>
        <path class="stitch_line color_3 dot_3" d="M 51.073, 89.621  L 48.368, 88.325  L 51.095, 89.576  L 48.389, 88.280  L 51.116, 89.530  L 54.093, 87.608  L 56.911, 88.636  L 54.110, 87.562  L 56.929, 88.589  L 54.128, 87.515  L 53.142, 84.111  L 50.263, 83.269  L 53.156, 84.063  L 50.276, 83.220  L 53.169, 84.015  L 55.797, 81.638  L 58.744, 82.199  L 55.806, 81.589  L 58.754, 82.150  L 55.816, 81.540  L 54.301, 78.336  L 51.326, 77.953  L 54.307, 78.287  L 51.332, 77.904  L 54.313, 78.237  L 56.549, 75.489  L 59.547, 75.611  L 56.552, 75.439  L 59.550, 75.561  L 56.554, 75.390  L 54.604, 72.429  L 51.604, 72.448  L 54.603, 72.379  L 51.603, 72.398  L 54.602, 72.329  L 56.474, 69.322  L 59.465, 69.087  L 56.471, 69.272  L 59.462, 69.037  L 56.467, 69.222  L 54.202, 66.495  L 51.219, 66.819  L 54.196, 66.445  L 51.214, 66.769  L 54.190, 66.395  L 55.773, 63.225  L 58.733, 62.737  L 55.765, 63.176  L 58.725, 62.688  L 55.758, 63.126  L 53.289, 60.581  L 50.336, 61.109  L 53.280, 60.532  L 50.327, 61.060  L 53.271, 60.483  L 54.660, 57.223  L 57.590, 56.580  L 54.649, 57.174  L 57.580, 56.531  L 54.639, 57.125  L 52.060, 54.692  L 49.128, 55.328  L 52.049, 54.643  L 49.117, 55.280  L 52.037, 54.594  L 53.330, 51.295  L 56.246, 50.589  L 53.319, 51.246  L 56.234, 50.540  L 53.307, 51.197  L 50.693, 48.803  L 47.766, 49.460  L 50.681, 48.754  L 47.754, 49.411  L 50.670, 48.705  L 51.963, 45.406  L 54.883, 44.720  L 51.951, 45.357  L 54.872, 44.672  L 51.940, 45.308  L 49.361, 42.875  L 46.420, 43.469  L 49.351, 42.826  L 46.410, 43.420  L 49.340, 42.777  L 50.729, 39.517  L 53.673, 38.940  L 50.720, 39.468  L 53.664, 38.891  L 50.711, 39.419  L 48.242, 36.874  L 45.275, 37.312  L 48.235, 36.824  L 45.267, 37.263  L 48.227, 36.775  L 49.810, 33.605  L 52.786, 33.231  L 49.804, 33.555  L 52.781, 33.181  L 49.798, 33.505  L 47.533, 30.778  L 44.538, 30.963  L 47.529, 30.728  L 44.535, 30.913  L 47.526, 30.678  L 49.398, 27.671  L 52.397, 27.602  L 49.397, 27.621  L 52.396, 27.552  L 49.396, 27.571  L 47.446, 24.610  L 44.450, 24.439  L 47.448, 24.561  L 44.453, 24.389  L 47.451, 24.511  L 49.687, 21.763  L 52.668, 22.096  L 49.693, 21.713  L 52.674, 22.047  L 49.699, 21.664  L 48.184, 18.460  L 45.246, 17.850  L 48.194, 18.411  L 45.256, 17.801  L 48.203, 18.362  L 50.831, 15.985  L 53.724, 16.780  L 50.844, 15.937  L 53.737, 16.731  L 50.858, 15.889  L 49.872, 12.485  L 47.071, 11.411  L 49.890, 12.438  L 47.089, 11.364  L 49.907, 12.392  L 52.884, 10.470  L 55.611, 11.720  L 52.905, 10.424  L 55.632, 11.675  L 52.927, 10.379 "/>
        <path class="stitch_line color_4 dot_4" d="M 63.979, 90.045  L 60.820, 88.537  L 64.000, 90.000  L 60.842, 88.492  L 64.021, 89.955  L 65.156, 87.258  L 68.443, 88.461  L 65.174, 87.211  L 68.461, 88.414  L 65.191, 87.164  L 66.104, 84.384  L 62.744, 83.405  L 66.118, 84.336  L 62.757, 83.357  L 66.131, 84.288  L 66.816, 81.443  L 70.253, 82.101  L 66.825, 81.394  L 70.263, 82.052  L 66.835, 81.345  L 67.294, 78.456  L 63.822, 78.013  L 67.300, 78.406  L 63.828, 77.963  L 67.306, 78.356  L 67.551, 75.441  L 71.048, 75.587  L 67.553, 75.391  L 71.050, 75.537  L 67.556, 75.341  L 67.604, 72.415  L 64.104, 72.441  L 67.603, 72.365  L 64.103, 72.391  L 67.602, 72.315  L 67.477, 69.391  L 70.966, 69.122  L 67.473, 69.341  L 70.963, 69.072  L 67.470, 69.292  L 67.195, 66.378  L 63.716, 66.761  L 67.189, 66.328  L 63.710, 66.711  L 67.183, 66.279  L 66.785, 63.380  L 70.239, 62.814  L 66.777, 63.330  L 70.231, 62.765  L 66.770, 63.281  L 66.272, 60.397  L 62.827, 61.017  L 66.263, 60.348  L 62.818, 60.968  L 66.254, 60.299  L 65.681, 57.429  L 69.101, 56.683  L 65.671, 57.380  L 69.091, 56.634  L 65.660, 57.331  L 65.035, 54.472  L 61.615, 55.218  L 65.024, 54.423  L 61.604, 55.169  L 65.013, 54.374  L 64.356, 51.522  L 67.759, 50.702  L 64.345, 51.473  L 67.748, 50.654  L 64.334, 51.425  L 63.666, 48.575  L 60.252, 49.346  L 63.655, 48.527  L 60.241, 49.298  L 63.644, 48.478  L 62.987, 45.626  L 66.396, 44.831  L 62.976, 45.577  L 66.385, 44.782  L 62.965, 45.528  L 62.340, 42.669  L 58.909, 43.366  L 62.329, 42.620  L 58.899, 43.317  L 62.319, 42.571  L 61.746, 39.701  L 65.182, 39.032  L 61.737, 39.652  L 65.173, 38.983  L 61.728, 39.603  L 61.230, 36.719  L 57.769, 37.235  L 61.223, 36.670  L 57.761, 37.186  L 61.215, 36.620  L 60.817, 33.721  L 64.290, 33.289  L 60.811, 33.672  L 64.284, 33.239  L 60.805, 33.622  L 60.530, 30.708  L 57.037, 30.928  L 60.527, 30.659  L 57.034, 30.878  L 60.523, 30.609  L 60.398, 27.685  L 63.897, 27.609  L 60.397, 27.635  L 63.896, 27.559  L 60.396, 27.585  L 60.444, 24.659  L 56.950, 24.463  L 60.447, 24.609  L 56.952, 24.413  L 60.449, 24.559  L 60.694, 21.644  L 64.172, 22.037  L 60.700, 21.594  L 64.178, 21.987  L 60.706, 21.544  L 61.165, 18.655  L 57.737, 17.948  L 61.175, 18.606  L 57.747, 17.899  L 61.184, 18.557  L 61.869, 15.712  L 65.243, 16.643  L 61.882, 15.664  L 65.256, 16.595  L 61.896, 15.616  L 62.809, 12.836  L 59.539, 11.586  L 62.826, 12.789  L 59.557, 11.539  L 62.844, 12.742  L 63.979, 10.045  L 67.158, 11.508  L 64.000, 10.000  L 67.180, 11.463  L 64.021, 9.955 "/>
        <path class="stitch_line color_5 dot_5" d="M 76.000, 90.000  L 72.378, 88.302  L 76.000, 90.000  L 77.174, 87.211  L 73.427, 85.810  L 77.174, 87.211  L 78.118, 84.336  L 74.270, 83.244  L 78.118, 84.336  L 78.825, 81.394  L 74.902, 80.615  L 78.825, 81.394  L 79.300, 78.406  L 75.329, 77.929  L 79.300, 78.406  L 79.553, 75.391  L 75.558, 75.195  L 79.553, 75.391  L 79.603, 72.365  L 75.604, 72.423  L 79.603, 72.365  L 79.473, 69.341  L 75.483, 69.621  L 79.473, 69.341  L 79.189, 66.328  L 75.216, 66.794  L 79.189, 66.328  L 78.777, 63.330  L 74.825, 63.948  L 78.777, 63.330  L 78.263, 60.348  L 74.331, 61.084  L 78.263, 60.348  L 77.671, 57.380  L 73.756, 58.203  L 77.671, 57.380  L 77.024, 54.423  L 73.122, 55.304  L 77.024, 54.423  L 76.345, 51.473  L 72.450, 52.383  L 76.345, 51.473  L 75.655, 48.527  L 71.760, 49.436  L 75.655, 48.527  L 74.976, 45.577  L 71.074, 46.458  L 74.976, 45.577  L 74.329, 42.620  L 70.415, 43.444  L 74.329, 42.620  L 73.737, 39.652  L 69.805, 40.389  L 73.737, 39.652  L 73.223, 36.670  L 69.271, 37.287  L 73.223, 36.670  L 72.811, 33.672  L 68.838, 34.137  L 72.811, 33.672  L 72.527, 30.659  L 68.536, 30.938  L 72.527, 30.659  L 72.397, 27.635  L 68.397, 27.693  L 72.397, 27.635  L 72.447, 24.609  L 68.452, 24.414  L 72.447, 24.609  L 72.700, 21.594  L 68.728, 21.117  L 72.700, 21.594  L 73.175, 18.606  L 69.251, 17.826  L 73.175, 18.606  L 73.882, 15.664  L 70.034, 14.572  L 73.882, 15.664  L 74.826, 12.789  L 71.080, 11.387  L 74.826, 12.789  L 76.000, 10.000  L 72.378, 8.302  L 76.000, 10.000 "/>
        <path class="stitch_line color_6 dot_6" d="M 88.000, 90.000  L 86.639, 86.238  L 88.000, 90.000  L 89.174, 87.211  L 87.516, 83.571  L 89.174, 87.211  L 90.118, 84.336  L 88.169, 80.843  L 90.118, 84.336  L 90.825, 81.394  L 88.603, 78.069  L 90.825, 81.394  L 91.300, 78.406  L 88.830, 75.260  L 91.300, 78.406  L 91.553, 75.391  L 88.866, 72.427  L 91.553, 75.391  L 91.603, 72.365  L 88.734, 69.578  L 91.603, 72.365  L 91.473, 69.341  L 88.454, 66.717  L 91.473, 69.341  L 91.189, 66.328  L 88.051, 63.849  L 91.189, 66.328  L 90.777, 63.330  L 87.546, 60.972  L 90.777, 63.330  L 90.263, 60.348  L 86.962, 58.088  L 90.263, 60.348  L 89.671, 57.380  L 86.320, 55.194  L 89.671, 57.380  L 89.024, 54.423  L 85.642, 52.287  L 89.024, 54.423  L 88.345, 51.473  L 84.948, 49.362  L 88.345, 51.473  L 87.655, 48.527  L 84.258, 46.415  L 87.655, 48.527  L 86.976, 45.577  L 83.594, 43.441  L 86.976, 45.577  L 86.329, 42.620  L 82.979, 40.435  L 86.329, 42.620  L 85.737, 39.652  L 82.436, 37.393  L 85.737, 39.652  L 85.223, 36.670  L 81.991, 34.312  L 85.223, 36.670  L 84.811, 33.672  L 81.672, 31.192  L 84.811, 33.672  L 84.527, 30.659  L 81.508, 28.034  L 84.527, 30.659  L 84.397, 27.635  L 81.528, 24.848  L 84.397, 27.635  L 84.447, 24.609  L 81.760, 21.646  L 84.447, 24.609  L 84.700, 21.594  L 82.229, 18.448  L 84.700, 21.594  L 85.175, 18.606  L 82.952, 15.280  L 85.175, 18.606  L 85.882, 15.664  L 83.933, 12.171  L 85.882, 15.664  L 86.826, 12.789  L 85.168, 9.149  L 86.826, 12.789  L 88.000, 10.000  L 86.639, 6.238  L 88.000, 10.000 "/>
        <path class="stitch_line color_7 dot_7" d="M 99.095, 89.576  L 97.904, 86.284  L 99.095, 89.576  L 102.110, 87.562  L 105.296, 86.111  L 102.110, 87.562  L 101.156, 84.063  L 99.450, 81.007  L 101.156, 84.063  L 103.806, 81.589  L 106.716, 79.644  L 103.806, 81.589  L 102.307, 78.287  L 100.145, 75.534  L 102.307, 78.287  L 104.552, 75.439  L 107.145, 73.089  L 104.552, 75.439  L 102.603, 72.379  L 100.093, 69.941  L 102.603, 72.379  L 104.471, 69.272  L 106.767, 66.630  L 104.471, 69.272  L 102.196, 66.445  L 99.450, 64.275  L 102.196, 66.445  L 103.765, 63.176  L 105.828, 60.348  L 103.765, 63.176  L 101.280, 60.532  L 98.392, 58.555  L 101.280, 60.532  L 102.649, 57.174  L 104.561, 54.242  L 102.649, 57.174  L 100.049, 54.643  L 97.089, 52.774  L 100.049, 54.643  L 101.319, 51.246  L 103.166, 48.274  L 101.319, 51.246  L 98.681, 48.754  L 95.709, 46.906  L 98.681, 48.754  L 99.951, 45.357  L 101.821, 42.398  L 99.951, 45.357  L 97.351, 42.826  L 94.419, 40.914  L 97.351, 42.826  L 98.720, 39.468  L 100.697, 36.580  L 98.720, 39.468  L 96.235, 36.824  L 93.407, 34.761  L 96.235, 36.824  L 97.804, 33.555  L 99.974, 30.809  L 97.804, 33.555  L 95.529, 30.728  L 92.888, 28.432  L 95.529, 30.728  L 97.397, 27.621  L 99.835, 25.110  L 97.397, 27.621  L 95.448, 24.561  L 93.097, 21.968  L 95.448, 24.561  L 97.693, 21.713  L 100.445, 19.552  L 97.693, 21.713  L 96.194, 18.411  L 94.249, 15.501  L 96.194, 18.411  L 98.844, 15.937  L 101.901, 14.231  L 98.844, 15.937  L 97.890, 12.438  L 96.439, 9.253  L 97.890, 12.438  L 100.905, 10.424  L 104.197, 9.234  L 100.905, 10.424 "/>
        <path class="stitch_line color_8 dot_8" d="M 114.264, 91.061  L 109.736, 88.939  L 110.832, 86.335  L 112.582, 89.934  L 114.264, 91.061  L 115.515, 88.087  L 110.832, 86.335  L 111.713, 83.654  L 113.748, 87.099  L 115.515, 88.087  L 116.523, 85.019  L 111.713, 83.654  L 112.373, 80.907  L 114.681, 84.177  L 116.523, 85.019  L 117.277, 81.882  L 112.373, 80.907  L 112.818, 78.108  L 115.374, 81.191  L 117.277, 81.882  L 117.782, 78.704  L 112.818, 78.108  L 113.056, 75.268  L 115.832, 78.161  L 117.782, 78.704  L 118.050, 75.513  L 113.056, 75.268  L 113.103, 72.401  L 116.066, 75.109  L 118.050, 75.513  L 118.103, 72.329  L 113.103, 72.401  L 112.979, 69.516  L 116.098, 72.052  L 118.103, 72.329  L 117.967, 69.167  L 112.979, 69.516  L 112.706, 66.619  L 115.950, 69.002  L 117.967, 69.167  L 117.672, 66.037  L 112.706, 66.619  L 112.307, 63.716  L 115.650, 65.968  L 117.672, 66.037  L 117.247, 62.944  L 112.307, 63.716  L 111.806, 60.808  L 115.224, 62.952  L 117.247, 62.944  L 116.720, 59.887  L 111.806, 60.808  L 111.224, 57.894  L 114.698, 59.957  L 116.720, 59.887  L 116.117, 56.865  L 111.224, 57.894  L 110.585, 54.974  L 114.097, 56.980  L 116.117, 56.865  L 115.463, 53.872  L 110.585, 54.974  L 109.910, 52.042  L 113.445, 54.017  L 115.463, 53.872  L 114.779, 50.905  L 109.910, 52.042  L 109.221, 49.095  L 112.763, 51.065  L 114.779, 50.905  L 114.090, 47.958  L 109.221, 49.095  L 108.537, 46.128  L 112.073, 48.118  L 114.090, 47.958  L 113.415, 45.026  L 108.537, 46.128  L 107.883, 43.135  L 111.397, 45.172  L 113.415, 45.026  L 112.776, 42.106  L 107.883, 43.135  L 107.280, 40.113  L 110.757, 42.222  L 112.776, 42.106  L 112.194, 39.192  L 107.280, 40.113  L 106.753, 37.056  L 110.173, 39.264  L 112.194, 39.192  L 111.693, 36.284  L 106.753, 37.056  L 106.328, 33.963  L 109.671, 36.295  L 111.693, 36.284  L 111.294, 33.381  L 106.328, 33.963  L 106.033, 30.833  L 109.273, 33.315  L 111.294, 33.381  L 111.021, 30.484  L 106.033, 30.833  L 105.897, 27.671  L 109.005, 30.324  L 111.021, 30.484  L 110.897, 27.599  L 105.897, 27.671  L 105.950, 24.487  L 108.893, 27.328  L 110.897, 27.599  L 110.944, 24.732  L 105.950, 24.487  L 106.218, 21.296  L 108.962, 24.335  L 110.944, 24.732  L 111.182, 21.892  L 106.218, 21.296  L 106.723, 18.118  L 109.233, 21.357  L 111.182, 21.892  L 111.627, 19.093  L 106.723, 18.118  L 107.477, 14.981  L 109.724, 18.410  L 111.627, 19.093  L 112.287, 16.346  L 107.477, 14.981  L 108.485, 11.913  L 110.446, 15.513  L 112.287, 16.346  L 113.168, 13.665  L 108.485, 11.913  L 109.736, 8.939  L 111.400, 12.685  L 113.168, 13.665  L 114.264, 11.061  L 109.736, 8.939  L 112.453, 10.212  L 111.851, 11.565  L 110.804, 14.360  L 109.988, 17.232  L 109.404, 20.161  L 109.046, 23.128  L 108.898, 26.117  L 108.940, 29.113  L 109.148, 32.106  L 109.496, 35.091  L 109.959, 38.065  L 110.513, 41.027  L 111.133, 43.980  L 111.797, 46.927  L 112.484, 49.873  L 113.171, 52.822  L 113.838, 55.780  L 114.463, 58.751  L 115.022, 61.739  L 115.491, 64.746  L 115.845, 67.773  L 116.058, 70.817  L 116.102, 73.873  L 115.953, 76.929  L 115.587, 79.970  L 114.990, 82.976  L 114.154, 85.926  L 113.081, 88.799  L 112.453, 90.212  L 113.081, 88.799  L 114.154, 85.926  L 114.990, 82.976  L 115.587, 79.970  L 115.953, 76.929  L 116.102, 73.873  L 116.058, 70.817  L 115.845, 67.773  L 115.491, 64.746  L 115.022, 61.739  L 114.463, 58.751  L 113.838, 55.780  L 113.171, 52.822  L 112.484, 49.873  L 111.797, 46.927  L 111.133, 43.980  L 110.513, 41.027  L 109.959, 38.065  L 109.496, 35.091  L 109.148, 32.106  L 108.940, 29.113  L 108.898, 26.117  L 109.046, 23.128  L 109.404, 20.161  L 109.988, 17.232  L 110.804, 14.360  L 111.851, 11.565  L 112.453, 10.212 "/>
        <path class="stitch_line color_9 dot_9" d="M 125.061, 87.736  L 126.716, 91.273  L 122.939, 92.264  L 121.284, 88.727  L 125.061, 87.736  L 126.050, 84.870  L 127.984, 88.262  L 124.298, 89.553  L 122.364, 86.160  L 126.050, 84.870  L 126.800, 81.931  L 129.004, 85.155  L 125.435, 86.741  L 123.232, 83.517  L 126.800, 81.931  L 127.313, 78.942  L 129.768, 81.979  L 126.338, 83.846  L 123.883, 80.810  L 127.313, 78.942  L 127.599, 75.924  L 130.279, 78.764  L 127.002, 80.888  L 124.322, 78.048  L 127.599, 75.924  L 127.675, 72.894  L 130.550, 75.537  L 127.431, 77.888  L 124.557, 75.244  L 127.675, 72.894  L 127.567, 69.865  L 130.603, 72.321  L 127.640, 74.865  L 124.603, 72.409  L 127.567, 69.865  L 127.299, 66.848  L 130.466, 69.132  L 127.648, 71.835  L 124.481, 69.551  L 127.299, 66.848  L 126.898, 63.845  L 130.169, 65.979  L 127.480, 68.811  L 124.210, 66.678  L 126.898, 63.845  L 126.391, 60.860  L 129.741, 62.867  L 127.163, 65.800  L 123.813, 63.793  L 126.391, 60.860  L 125.803, 57.890  L 129.212, 59.795  L 126.723, 62.805  L 123.314, 60.900  L 125.803, 57.890  L 125.156, 54.933  L 128.606, 56.762  L 126.186, 59.826  L 122.735, 57.997  L 125.156, 54.933  L 124.473, 51.984  L 127.950, 53.762  L 125.575, 56.862  L 122.098, 55.084  L 124.473, 51.984  L 123.777, 49.039  L 127.266, 50.792  L 124.913, 53.908  L 121.423, 52.155  L 123.777, 49.039  L 123.087, 46.092  L 126.577, 47.845  L 124.223, 50.961  L 120.734, 49.208  L 123.087, 46.092  L 122.425, 43.138  L 125.902, 44.916  L 123.527, 48.016  L 120.050, 46.238  L 122.425, 43.138  L 121.814, 40.174  L 125.265, 42.003  L 122.844, 45.067  L 119.394, 43.238  L 121.814, 40.174  L 121.277, 37.195  L 124.686, 39.100  L 122.197, 42.110  L 118.788, 40.205  L 121.277, 37.195  L 120.837, 34.200  L 124.187, 36.207  L 121.609, 39.140  L 118.259, 37.133  L 120.837, 34.200  L 120.520, 31.189  L 123.790, 33.322  L 121.102, 36.155  L 117.831, 34.021  L 120.520, 31.189  L 120.352, 28.165  L 123.519, 30.449  L 120.701, 33.152  L 117.534, 30.868  L 120.352, 28.165  L 120.360, 25.135  L 123.397, 27.591  L 120.433, 30.135  L 117.397, 27.679  L 120.360, 25.135  L 120.569, 22.112  L 123.443, 24.756  L 120.325, 27.106  L 117.450, 24.463  L 120.569, 22.112  L 120.998, 19.112  L 123.678, 21.952  L 120.401, 24.076  L 117.721, 21.236  L 120.998, 19.112  L 121.662, 16.154  L 124.117, 19.190  L 120.687, 21.058  L 118.232, 18.021  L 121.662, 16.154  L 122.565, 13.259  L 124.768, 16.483  L 121.200, 18.069  L 118.996, 14.845  L 122.565, 13.259  L 123.702, 10.447  L 125.636, 13.840  L 121.950, 15.130  L 120.016, 11.738  L 123.702, 10.447  L 125.061, 7.736  L 126.716, 11.273  L 122.939, 12.264  L 121.284, 8.727  L 125.061, 7.736 "/>
        <path class="stitch_line color_10 dot_10" d="M 134.958, 90.530  L 138.584, 87.085  L 134.797, 90.352  L 138.423, 86.907  L 134.635, 90.174  L 138.262, 86.730  L 136.178, 87.824  L 139.513, 84.097  L 136.003, 87.660  L 139.338, 83.932  L 135.828, 87.495  L 139.163, 83.768  L 137.175, 85.028  L 140.196, 81.042  L 136.987, 84.878  L 140.009, 80.893  L 136.799, 84.729  L 139.821, 80.743  L 137.939, 82.158  L 140.638, 77.947  L 137.740, 82.023  L 140.439, 77.813  L 137.541, 81.889  L 140.240, 77.678  L 138.470, 79.232  L 140.851, 74.834  L 138.262, 79.113  L 140.643, 74.715  L 138.054, 78.994  L 140.434, 74.595  L 138.778, 76.271  L 140.857, 71.722  L 138.562, 76.166  L 140.642, 71.617  L 138.346, 76.061  L 140.426, 71.512  L 138.879, 73.290  L 140.684, 68.625  L 138.657, 73.198  L 140.462, 68.533  L 138.435, 73.106  L 140.241, 68.441  L 138.794, 70.302  L 140.359, 65.552  L 138.568, 70.222  L 140.133, 65.471  L 138.342, 70.141  L 139.906, 65.391  L 138.548, 67.318  L 139.909, 62.505  L 138.319, 67.247  L 139.680, 62.434  L 138.090, 67.176  L 139.451, 62.363  L 138.167, 64.341  L 139.363, 59.485  L 137.936, 64.278  L 139.131, 59.422  L 137.704, 64.215  L 138.900, 59.359  L 137.677, 61.375  L 138.745, 56.489  L 137.444, 61.318  L 138.512, 56.432  L 137.211, 61.261  L 138.278, 56.375  L 137.101, 58.418  L 138.079, 53.513  L 136.867, 58.366  L 137.844, 53.461  L 136.633, 58.313  L 137.610, 53.408  L 136.463, 55.468  L 137.387, 50.553  L 136.228, 55.418  L 137.152, 50.503  L 135.993, 55.368  L 136.917, 50.453  L 135.785, 52.521  L 136.691, 47.603  L 135.550, 52.472  L 136.456, 47.554  L 135.315, 52.423  L 136.221, 47.504  L 135.089, 49.573  L 136.012, 44.658  L 134.854, 49.523  L 135.778, 44.608  L 134.619, 49.473  L 135.543, 44.558  L 134.396, 46.618  L 135.373, 41.713  L 134.162, 46.565  L 135.139, 41.660  L 133.927, 46.513  L 134.904, 41.608  L 133.727, 43.651  L 134.794, 38.765  L 133.494, 43.594  L 134.561, 38.708  L 133.261, 43.537  L 134.328, 38.651  L 133.105, 40.667  L 134.300, 35.811  L 132.874, 40.604  L 134.068, 35.748  L 132.642, 40.542  L 133.836, 35.685  L 132.554, 37.663  L 133.913, 32.850  L 132.324, 37.592  L 133.684, 32.779  L 132.095, 37.522  L 133.455, 32.708  L 132.097, 34.636  L 133.660, 29.885  L 131.871, 34.555  L 133.434, 29.804  L 131.645, 34.475  L 133.208, 29.724  L 131.762, 31.585  L 133.565, 26.920  L 131.540, 31.494  L 133.343, 26.828  L 131.318, 31.402  L 133.121, 26.737  L 131.575, 28.515  L 133.652, 23.965  L 131.359, 28.410  L 133.436, 23.860  L 131.143, 28.305  L 133.220, 23.755  L 131.565, 25.432  L 133.943, 21.032  L 131.357, 25.313  L 133.735, 20.913  L 131.148, 25.194  L 133.526, 20.794  L 131.757, 22.349  L 134.454, 18.136  L 131.558, 22.215  L 134.255, 18.002  L 131.360, 22.080  L 134.056, 17.868  L 132.174, 19.284  L 135.193, 15.296  L 131.986, 19.134  L 135.005, 15.147  L 131.799, 18.985  L 134.817, 14.997  L 132.830, 16.258  L 136.162, 12.529  L 132.655, 16.094  L 135.987, 12.365  L 132.480, 15.930  L 135.812, 12.200  L 133.729, 13.296  L 137.353, 9.849  L 133.568, 13.118  L 137.192, 9.671  L 133.407, 12.941  L 137.031, 9.494 "/>
        <path class="stitch_line color_11 dot_11" d="M 150.137, 91.443  L 150.769, 87.369  L 148.294, 90.667  L 148.926, 86.592  L 146.451, 89.890  L 147.083, 85.816  L 151.421, 88.477  L 151.720, 84.364  L 149.521, 87.852  L 149.820, 83.740  L 147.621, 87.228  L 147.920, 83.115  L 152.460, 85.415  L 152.425, 81.292  L 150.516, 84.947  L 150.480, 80.824  L 148.571, 84.479  L 148.536, 80.356  L 153.244, 82.286  L 152.885, 78.178  L 151.269, 81.972  L 150.910, 77.864  L 149.294, 81.658  L 148.934, 77.550  L 153.776, 79.116  L 153.114, 75.046  L 151.783, 78.949  L 151.121, 74.879  L 149.790, 78.781  L 149.128, 74.712  L 154.069, 75.932  L 153.135, 71.916  L 152.069, 75.899  L 151.135, 71.884  L 150.069, 75.866  L 149.135, 71.851  L 154.143, 72.756  L 152.972, 68.803  L 152.145, 72.842  L 150.974, 68.889  L 150.147, 72.928  L 148.976, 68.975  L 154.027, 69.603  L 152.656, 65.714  L 152.036, 69.791  L 150.664, 65.902  L 150.045, 69.979  L 148.673, 66.090  L 153.749, 66.481  L 152.213, 62.655  L 151.767, 66.754  L 150.232, 62.927  L 149.786, 67.026  L 148.250, 63.200  L 153.337, 63.396  L 151.671, 59.624  L 151.367, 63.736  L 149.701, 59.964  L 149.396, 64.076  L 147.730, 60.305  L 152.821, 60.347  L 151.057, 56.620  L 150.860, 60.738  L 149.096, 57.012  L 148.899, 61.130  L 147.134, 57.404  L 152.226, 57.332  L 150.393, 53.639  L 150.272, 57.760  L 148.439, 54.066  L 148.318, 58.188  L 146.486, 54.494  L 151.575, 54.348  L 149.702, 50.675  L 149.627, 54.797  L 147.754, 51.124  L 147.678, 55.246  L 145.805, 51.573  L 150.893, 51.390  L 149.007, 47.723  L 148.946, 51.846  L 147.060, 48.180  L 146.999, 52.302  L 145.113, 48.636  L 150.201, 48.452  L 148.328, 44.779  L 148.252, 48.902  L 146.379, 45.229  L 146.304, 49.351  L 144.430, 45.678  L 149.520, 45.531  L 147.687, 41.838  L 147.567, 45.959  L 145.734, 42.266  L 145.613, 46.388  L 143.780, 42.694  L 148.871, 42.622  L 147.106, 38.896  L 146.910, 43.014  L 145.145, 39.288  L 144.949, 43.406  L 143.184, 39.680  L 148.275, 39.721  L 146.608, 35.950  L 146.304, 40.062  L 144.637, 36.291  L 144.334, 40.402  L 142.667, 36.631  L 147.754, 36.825  L 146.217, 33.000  L 145.773, 37.099  L 144.236, 33.273  L 143.792, 37.372  L 142.254, 33.546  L 147.330, 33.935  L 145.957, 30.047  L 145.339, 34.124  L 143.966, 30.236  L 143.348, 34.313  L 141.975, 30.425  L 147.026, 31.050  L 145.853, 27.098  L 145.028, 31.137  L 143.855, 27.185  L 143.030, 31.224  L 141.857, 27.272  L 146.866, 28.175  L 145.929, 24.159  L 144.866, 28.143  L 143.930, 24.127  L 142.866, 28.111  L 141.930, 24.096  L 146.871, 25.313  L 146.206, 21.244  L 144.878, 25.147  L 144.213, 21.078  L 142.885, 24.981  L 142.220, 20.912  L 147.063, 22.475  L 146.701, 18.367  L 145.088, 22.162  L 144.725, 18.055  L 143.112, 21.849  L 142.750, 17.742  L 147.460, 19.669  L 147.421, 15.546  L 145.515, 19.202  L 145.477, 15.079  L 143.570, 18.735  L 143.532, 14.612  L 148.073, 16.909  L 148.369, 12.796  L 146.173, 16.286  L 146.469, 12.173  L 144.272, 15.662  L 144.569, 11.550  L 148.909, 14.208  L 149.538, 10.133  L 147.065, 13.432  L 147.694, 9.357  L 145.222, 12.657  L 145.851, 8.582 "/>
        <path class="stitch_line color_12 dot_12" d="M 160.000, 90.000  L 161.219, 87.091  L 162.187, 84.089  L 162.899, 81.016  L 163.358, 77.896  L 163.580, 74.750  L 163.586, 71.595  L 161.467, 73.968  L 163.586, 71.595  L 165.959, 73.714  L 163.586, 71.595  L 163.501, 70.098  L 161.382, 72.471  L 163.501, 70.098  L 165.875, 72.217  L 163.501, 70.098  L 163.417, 68.600  L 161.298, 70.973  L 163.417, 68.600  L 165.790, 70.719  L 163.417, 68.600  L 163.114, 65.711  L 162.699, 62.836  L 162.193, 59.976  L 161.618, 57.129  L 160.994, 54.291  L 160.342, 51.461  L 158.664, 54.164  L 160.342, 51.461  L 163.045, 53.139  L 160.342, 51.461  L 160.000, 50.000  L 158.322, 52.704  L 160.000, 50.000  L 162.704, 51.678  L 160.000, 50.000  L 159.658, 48.539  L 157.980, 51.243  L 159.658, 48.539  L 162.362, 50.217  L 159.658, 48.539  L 159.006, 45.709  L 158.382, 42.871  L 157.807, 40.024  L 157.301, 37.164  L 156.886, 34.289  L 156.583, 31.400  L 154.464, 33.773  L 156.583, 31.400  L 158.956, 33.519  L 156.583, 31.400  L 156.499, 29.902  L 154.379, 32.275  L 156.499, 29.902  L 158.872, 32.021  L 156.499, 29.902  L 156.414, 28.405  L 154.295, 30.778  L 156.414, 28.405  L 158.787, 30.524  L 156.414, 28.405  L 156.420, 25.250  L 156.642, 22.104  L 157.101, 18.984  L 157.813, 15.911  L 158.781, 12.909  L 160.000, 10.000 "/>
        <path class="stitch_line color_13 dot_13" d="M 172.000, 90.000  L 175.777, 89.010  L 172.000, 90.000  L 170.345, 86.463  L 172.000, 90.000  L 168.223, 90.990  L 172.000, 90.000  L 173.655, 93.537  L 172.000, 90.000  L 173.174, 87.211  L 176.860, 85.921  L 173.174, 87.211  L 171.240, 83.818  L 173.174, 87.211  L 169.488, 88.501  L 173.174, 87.211  L 175.108, 90.604  L 173.174, 87.211  L 174.118, 84.336  L 177.686, 82.750  L 174.118, 84.336  L 171.914, 81.112  L 174.118, 84.336  L 170.549, 85.922  L 174.118, 84.336  L 176.321, 87.560  L 174.118, 84.336  L 174.825, 81.394  L 178.255, 79.527  L 174.825, 81.394  L 172.370, 78.358  L 174.825, 81.394  L 171.396, 83.262  L 174.825, 81.394  L 177.281, 84.431  L 174.825, 81.394  L 175.300, 78.406  L 178.577, 76.282  L 175.300, 78.406  L 172.620, 75.566  L 175.300, 78.406  L 172.023, 80.530  L 175.300, 78.406  L 177.980, 81.246  L 175.300, 78.406  L 175.553, 75.391  L 178.672, 73.040  L 175.553, 75.391  L 172.679, 72.747  L 175.553, 75.391  L 172.435, 77.741  L 175.553, 75.391  L 178.427, 78.034  L 175.553, 75.391  L 175.603, 72.365  L 178.566, 69.821  L 175.603, 72.365  L 172.567, 69.909  L 175.603, 72.365  L 172.640, 74.908  L 175.603, 72.365  L 178.639, 74.821  L 175.603, 72.365  L 175.473, 69.341  L 178.291, 66.638  L 175.473, 69.341  L 172.306, 67.057  L 175.473, 69.341  L 172.655, 72.045  L 175.473, 69.341  L 178.640, 71.626  L 175.473, 69.341  L 175.189, 66.328  L 177.878, 63.496  L 175.189, 66.328  L 171.919, 64.195  L 175.189, 66.328  L 172.501, 69.161  L 175.189, 66.328  L 178.460, 68.462  L 175.189, 66.328  L 174.777, 63.330  L 177.355, 60.397  L 174.777, 63.330  L 171.427, 61.323  L 174.777, 63.330  L 172.199, 66.263  L 174.777, 63.330  L 178.127, 65.337  L 174.777, 63.330  L 174.263, 60.348  L 176.751, 57.338  L 174.263, 60.348  L 170.854, 58.443  L 174.263, 60.348  L 171.775, 63.357  L 174.263, 60.348  L 177.672, 62.253  L 174.263, 60.348  L 173.671, 57.380  L 176.092, 54.315  L 173.671, 57.380  L 170.220, 55.551  L 173.671, 57.380  L 171.250, 60.444  L 173.671, 57.380  L 177.121, 59.208  L 173.671, 57.380  L 173.024, 54.423  L 175.400, 51.324  L 173.024, 54.423  L 169.547, 52.645  L 173.024, 54.423  L 170.648, 57.522  L 173.024, 54.423  L 176.501, 56.201  L 173.024, 54.423  L 172.345, 51.473  L 174.698, 48.357  L 172.345, 51.473  L 168.855, 49.721  L 172.345, 51.473  L 169.992, 54.590  L 172.345, 51.473  L 175.835, 53.226  L 172.345, 51.473  L 171.655, 48.527  L 174.008, 45.410  L 171.655, 48.527  L 168.165, 46.774  L 171.655, 48.527  L 169.302, 51.643  L 171.655, 48.527  L 175.145, 50.279  L 171.655, 48.527  L 170.976, 45.577  L 173.352, 42.478  L 170.976, 45.577  L 167.499, 43.799  L 170.976, 45.577  L 168.600, 48.676  L 170.976, 45.577  L 174.453, 47.355  L 170.976, 45.577  L 170.329, 42.620  L 172.750, 39.556  L 170.329, 42.620  L 166.879, 40.792  L 170.329, 42.620  L 167.908, 45.685  L 170.329, 42.620  L 173.780, 44.449  L 170.329, 42.620  L 169.737, 39.652  L 172.225, 36.643  L 169.737, 39.652  L 166.328, 37.747  L 169.737, 39.652  L 167.249, 42.662  L 169.737, 39.652  L 173.146, 41.557  L 169.737, 39.652  L 169.223, 36.670  L 171.801, 33.737  L 169.223, 36.670  L 165.873, 34.663  L 169.223, 36.670  L 166.645, 39.603  L 169.223, 36.670  L 172.573, 38.677  L 169.223, 36.670  L 168.811, 33.672  L 171.499, 30.839  L 168.811, 33.672  L 165.540, 31.538  L 168.811, 33.672  L 166.122, 36.504  L 168.811, 33.672  L 172.081, 35.805  L 168.811, 33.672  L 168.527, 30.659  L 171.345, 27.955  L 168.527, 30.659  L 165.360, 28.374  L 168.527, 30.659  L 165.709, 33.362  L 168.527, 30.659  L 171.694, 32.943  L 168.527, 30.659  L 168.397, 27.635  L 171.360, 25.092  L 168.397, 27.635  L 165.361, 25.179  L 168.397, 27.635  L 165.434, 30.179  L 168.397, 27.635  L 171.433, 30.091  L 168.397, 27.635  L 168.447, 24.609  L 171.565, 22.259  L 168.447, 24.609  L 165.573, 21.966  L 168.447, 24.609  L 165.328, 26.960  L 168.447, 24.609  L 171.321, 27.253  L 168.447, 24.609  L 168.700, 21.594  L 171.977, 19.470  L 168.700, 21.594  L 166.020, 18.754  L 168.700, 21.594  L 165.423, 23.718  L 168.700, 21.594  L 171.380, 24.434  L 168.700, 21.594  L 169.175, 18.606  L 172.604, 16.738  L 169.175, 18.606  L 166.719, 15.569  L 169.175, 18.606  L 165.745, 20.473  L 169.175, 18.606  L 171.630, 21.642  L 169.175, 18.606  L 169.882, 15.664  L 173.451, 14.078  L 169.882, 15.664  L 167.679, 12.440  L 169.882, 15.664  L 166.314, 17.250  L 169.882, 15.664  L 172.086, 18.888  L 169.882, 15.664  L 170.826, 12.789  L 174.512, 11.499  L 170.826, 12.789  L 168.892, 9.396  L 170.826, 12.789  L 167.140, 14.079  L 170.826, 12.789  L 172.760, 16.182  L 170.826, 12.789  L 172.000, 10.000  L 175.777, 9.010  L 172.000, 10.000  L 170.345, 6.463  L 172.000, 10.000  L 168.223, 10.990  L 172.000, 10.000  L 173.655, 13.537  L 172.000, 10.000 "/>
    </g>
</svg>
