<?xml version="1.0" encoding="utf-8" ?>
<svg xmlns="http://www.w3.org/2000/svg" xmlns:ev="http://www.w3.org/2001/xml-events" xmlns:xlink="http://www.w3.org/1999/xlink" baseProfile="full" height="60mm" version="1.1" viewBox="0,0,205,60" width="205mm">
    <defs>
        <style type="text/css"><![CDATA[
.stitch_line {
    stroke-width: 0.3;
    stroke-linejoin: round;
    stroke-linecap: round;
    fill: none;
}
.path_center_line {
    fill: none;
    stroke:#808080;
    stroke-width: 0.2;
    stroke-linejoin: round;
    stroke-linecap: round;
}
.path_contour {
    fill: #808080;
    fill-opacity: 0.3;
    stroke: #808080;
    stroke-opacity: 1;
    stroke-width: 0.3;
}
.text{
    text-anchor: middle;
    dominant-baseline: middle;
    font-family: sans-serif;
    font-size: 1.5mm;
}
.smalltext{
    text-anchor: middle;
    dominant-baseline: middle;
    font-family: sans-serif;
    font-size: 1mm;
}
.color_0 {
    stroke:#3bb2d0;
}
.dot_0 {
    marker-start:url(#dot_0);
    marker-mid:url(#dot_0);
    marker-end:url(#dot_0);
}
.color_1 {
    stroke:#3887be;
}
.dot_1 {
    marker-start:url(#dot_1);
    marker-mid:url(#dot_1);
    marker-end:url(#dot_1);
}
.color_2 {
    stroke:#8a8acb;
}
.dot_2 {
    marker-start:url(#dot_2);
    marker-mid:url(#dot_2);
    marker-end:url(#dot_2);
}
.color_3 {
    stroke:#56b881;
}
.dot_3 {
    marker-start:url(#dot_3);
    marker-mid:url(#dot_3);
    marker-end:url(#dot_3);
}
.color_4 {
    stroke:#50667f;
}
.dot_4 {
    marker-start:url(#dot_4);
    marker-mid:url(#dot_4);
    marker-end:url(#dot_4);
}
.color_5 {
    stroke:#41afa5;
}
.dot_5 {
    marker-start:url(#dot_5);
    marker-mid:url(#dot_5);
    marker-end:url(#dot_5);
}
.color_6 {
    stroke:#f9886c;
}
.dot_6 {
    marker-start:url(#dot_6);
    marker-mid:url(#dot_6);
    marker-end:url(#dot_6);
}
.color_7 {
    stroke:#e55e5e;
}
.dot_7 {
    marker-start:url(#dot_7);
    marker-mid:url(#dot_7);
    marker-end:url(#dot_7);
}
]]></style>
        <marker id="dot_0" markerHeight="3.0" markerWidth="3.0" refX="1.5" refY="1.5">
            <circle cx="1.5" cy="1.5" fill="#3bb2d0" r="1.5"/>
        </marker>
        <marker id="dot_1" markerHeight="3.0" markerWidth="3.0" refX="1.5" refY="1.5">
            <circle cx="1.5" cy="1.5" fill="#3887be" r="1.5"/>
        </marker>
        <marker id="dot_2" markerHeight="3.0" markerWidth="3.0" refX="1.5" refY="1.5">
            <circle cx="1.5" cy="1.5" fill="#8a8acb" r="1.5"/>
        </marker>
        <marker id="dot_3" markerHeight="3.0" markerWidth="3.0" refX="1.5" refY="1.5">
            <circle cx="1.5" cy="1.5" fill="#56b881" r="1.5"/>
        </marker>
        <marker id="dot_4" markerHeight="3.0" markerWidth="3.0" refX="1.5" refY="1.5">
            <circle cx="1.5" cy="1.5" fill="#50667f" r="1.5"/>
        </marker>
        <marker id="dot_5" markerHeight="3.0" markerWidth="3.0" refX="1.5" refY="1.5">
            <circle cx="1.5" cy="1.5" fill="#41afa5" r="1.5"/>
        </marker>
        <marker id="dot_6" markerHeight="3.0" markerWidth="3.0" refX="1.5" refY="1.5">
            <circle cx="1.5" cy="1.5" fill="#f9886c" r="1.5"/>
        </marker>
        <marker id="dot_7" markerHeight="3.0" markerWidth="3.0" refX="1.5" refY="1.5">
            <circle cx="1.5" cy="1.5" fill="#e55e5e" r="1.5"/>
        </marker>
    </defs>
    <g>
        <path class="stitch_line color_0 dot_0" d="M 25.000, 5.000  L 21.000, 5.000  L 17.000, 5.000  L 13.000, 5.000  L 9.000, 5.000  L 5.000, 5.500  L 9.000, 6.000  L 13.000, 6.000  L 17.000, 6.000  L 21.000, 6.000  L 25.000, 6.500  L 21.000, 7.000  L 17.000, 7.000  L 13.000, 7.000  L 9.000, 7.000  L 5.000, 7.500  L 9.000, 8.000  L 13.000, 8.000  L 17.000, 8.000  L 21.000, 8.000  L 25.000, 8.500  L 21.000, 9.000  L 17.000, 9.000  L 13.000, 9.000  L 9.000, 9.000  L 5.000, 9.500  L 9.000, 10.000  L 13.000, 10.000  L 17.000, 10.000  L 21.000, 10.000  L 25.000, 10.500  L 21.000, 11.000  L 17.000, 11.000  L 13.000, 11.000  L 9.000, 11.000  L 5.000, 11.500  L 9.000, 12.000  L 13.000, 12.000  L 17.000, 12.000  L 21.000, 12.000  L 25.000, 12.500  L 21.000, 13.000  L 17.000, 13.000  L 13.000, 13.000  L 9.000, 13.000  L 5.000, 13.500  L 9.000, 14.000  L 13.000, 14.000  L 17.000, 14.000  L 21.000, 14.000  L 25.000, 14.500  L 21.000, 15.000  L 17.000, 15.000  L 13.000, 15.000  L 9.000, 15.000  L 5.000, 15.500  L 9.000, 16.000  L 13.000, 16.000  L 17.000, 16.000  L 21.000, 16.000  L 25.000, 16.500  L 21.000, 17.000  L 17.000, 17.000  L 13.000, 17.000  L 9.000, 17.000  L 5.000, 17.500  L 9.000, 18.000  L 13.000, 18.000  L 17.000, 18.000  L 21.000, 18.000  L 25.000, 18.500  L 21.000, 19.000  L 17.000, 19.000  L 13.000, 19.000  L 9.000, 19.000  L 5.000, 19.500  L 9.000, 20.000  L 13.000, 20.000  L 17.000, 20.000  L 21.000, 20.000  L 25.000, 20.500  L 21.000, 21.000  L 17.000, 21.000  L 13.000, 21.000  L 9.000, 21.000  L 5.000, 21.500  L 9.000, 22.000  L 13.000, 22.000  L 17.000, 22.000  L 21.000, 22.000  L 25.000, 22.500  L 21.000, 23.000  L 17.000, 23.000  L 13.000, 23.000  L 9.000, 23.000  L 5.000, 23.500  L 9.000, 24.000  L 13.000, 24.000  L 17.000, 24.000  L 21.000, 24.000  L 25.000, 24.500  L 21.000, 25.000  L 17.000, 25.000  L 13.000, 25.000  L 9.000, 25.000  L 5.000, 25.500  L 9.000, 26.000  L 13.000, 26.000  L 17.000, 26.000  L 21.000, 26.000  L 25.000, 26.500  L 21.000, 27.000  L 17.000, 27.000  L 13.000, 27.000  L 9.000, 27.000  L 5.000, 27.500  L 9.000, 28.000  L 13.000, 28.000  L 17.000, 28.000  L 21.000, 28.000  L 25.000, 28.500  L 21.000, 29.000  L 17.000, 29.000  L 13.000, 29.000  L 9.000, 29.000  L 5.000, 29.500  L 9.000, 30.000  L 13.000, 30.000  L 17.000, 30.000  L 21.000, 30.000  L 25.000, 30.500  L 21.000, 31.000  L 17.000, 31.000  L 13.000, 31.000  L 9.000, 31.000  L 5.000, 31.500  L 9.000, 32.000  L 13.000, 32.000  L 17.000, 32.000  L 21.000, 32.000  L 25.000, 32.500  L 21.000, 33.000  L 17.000, 33.000  L 13.000, 33.000  L 9.000, 33.000  L 5.000, 33.500  L 9.000, 34.000  L 13.000, 34.000  L 17.000, 34.000  L 21.000, 34.000  L 25.000, 34.500  L 21.000, 35.000  L 17.000, 35.000  L 13.000, 35.000  L 9.000, 35.000  L 5.000, 35.500  L 9.000, 36.000  L 13.000, 36.000  L 17.000, 36.000  L 21.000, 36.000  L 25.000, 36.500  L 21.000, 37.000  L 17.000, 37.000  L 13.000, 37.000  L 9.000, 37.000  L 5.000, 37.500  L 9.000, 38.000  L 13.000, 38.000  L 17.000, 38.000  L 21.000, 38.000  L 25.000, 38.500  L 21.000, 39.000  L 17.000, 39.000  L 13.000, 39.000  L 9.000, 39.000  L 5.000, 39.500  L 9.000, 40.000  L 13.000, 40.000  L 17.000, 40.000  L 21.000, 40.000  L 25.000, 40.500  L 21.000, 41.000  L 17.000, 41.000  L 13.000, 41.000  L 9.000, 41.000  L 5.000, 41.500  L 9.000, 42.000  L 13.000, 42.000  L 17.000, 42.000  L 21.000, 42.000  L 25.000, 42.500  L 21.000, 43.000  L 17.000, 43.000  L 13.000, 43.000  L 9.000, 43.000  L 5.000, 43.500  L 9.000, 44.000  L 13.000, 44.000  L 17.000, 44.000  L 21.000, 44.000  L 25.000, 44.500  L 21.000, 45.000  L 17.000, 45.000  L 13.000, 45.000  L 9.000, 45.000  L 5.000, 45.500  L 9.000, 46.000  L 13.000, 46.000  L 17.000, 46.000  L 21.000, 46.000  L 25.000, 46.500  L 21.000, 47.000  L 17.000, 47.000  L 13.000, 47.000  L 9.000, 47.000  L 5.000, 47.500  L 9.000, 48.000  L 13.000, 48.000  L 17.000, 48.000  L 21.000, 48.000  L 25.000, 48.500  L 21.000, 49.000  L 17.000, 49.000  L 13.000, 49.000  L 9.000, 49.000  L 5.000, 49.500  L 9.000, 50.000  L 13.000, 50.000  L 17.000, 50.000  L 21.000, 50.000  L 25.000, 50.500  L 21.000, 51.000  L 17.000, 51.000  L 13.000, 51.000  L 9.000, 51.000  L 5.000, 51.500  L 9.000, 52.000  L 13.000, 52.000  L 17.000, 52.000  L 21.000, 52.000  L 25.000, 52.500  L 21.000, 53.000  L 17.000, 53.000  L 13.000, 53.000  L 9.000, 53.000  L 5.000, 53.500  L 9.000, 54.000  L 13.000, 54.000  L 17.000, 54.000  L 21.000, 54.000  L 25.000, 54.500  L 21.000, 55.000  L 17.000, 55.000  L 13.000, 55.000  L 9.000, 55.000  L 5.000, 55.000 "/>
        <path class="stitch_line color_1 dot_1" d="M 50.000, 5.000  L 48.000, 5.000  L 44.000, 5.000  L 40.000, 5.000  L 36.000, 5.000  L 32.000, 5.000  L 30.000, 5.500  L 34.667, 6.000  L 38.667, 6.000  L 42.667, 6.000  L 46.667, 6.000  L 50.000, 6.500  L 45.333, 7.000  L 41.333, 7.000  L 37.333, 7.000  L 33.333, 7.000  L 30.000, 7.500  L 32.000, 8.000  L 36.000, 8.000  L 40.000, 8.000  L 44.000, 8.000  L 48.000, 8.000  L 50.000, 8.500  L 46.667, 9.000  L 42.667, 9.000  L 38.667, 9.000  L 34.667, 9.000  L 30.000, 9.500  L 33.333, 10.000  L 37.333, 10.000  L 41.333, 10.000  L 45.333, 10.000  L 50.000, 10.500  L 48.000, 11.000  L 44.000, 11.000  L 40.000, 11.000  L 36.000, 11.000  L 32.000, 11.000  L 30.000, 11.500  L 34.667, 12.000  L 38.667, 12.000  L 42.667, 12.000  L 46.667, 12.000  L 50.000, 12.500  L 45.333, 13.000  L 41.333, 13.000  L 37.333, 13.000  L 33.333, 13.000  L 30.000, 13.500  L 32.000, 14.000  L 36.000, 14.000  L 40.000, 14.000  L 44.000, 14.000  L 48.000, 14.000  L 50.000, 14.500  L 46.667, 15.000  L 42.667, 15.000  L 38.667, 15.000  L 34.667, 15.000  L 30.000, 15.500  L 33.333, 16.000  L 37.333, 16.000  L 41.333, 16.000  L 45.333, 16.000  L 50.000, 16.500  L 48.000, 17.000  L 44.000, 17.000  L 40.000, 17.000  L 36.000, 17.000  L 32.000, 17.000  L 30.000, 17.500  L 34.667, 18.000  L 38.667, 18.000  L 42.667, 18.000  L 46.667, 18.000  L 50.000, 18.500  L 45.333, 19.000  L 41.333, 19.000  L 37.333, 19.000  L 33.333, 19.000  L 30.000, 19.500  L 32.000, 20.000  L 36.000, 20.000  L 40.000, 20.000  L 44.000, 20.000  L 48.000, 20.000  L 50.000, 20.500  L 46.667, 21.000  L 42.667, 21.000  L 38.667, 21.000  L 34.667, 21.000  L 30.000, 21.500  L 33.333, 22.000  L 37.333, 22.000  L 41.333, 22.000  L 45.333, 22.000  L 50.000, 22.500  L 48.000, 23.000  L 44.000, 23.000  L 40.000, 23.000  L 36.000, 23.000  L 32.000, 23.000  L 30.000, 23.500  L 34.667, 24.000  L 38.667, 24.000  L 42.667, 24.000  L 46.667, 24.000  L 50.000, 24.500  L 45.333, 25.000  L 41.333, 25.000  L 37.333, 25.000  L 33.333, 25.000  L 30.000, 25.500  L 32.000, 26.000  L 36.000, 26.000  L 40.000, 26.000  L 44.000, 26.000  L 48.000, 26.000  L 50.000, 26.500  L 46.667, 27.000  L 42.667, 27.000  L 38.667, 27.000  L 34.667, 27.000  L 30.000, 27.500  L 33.333, 28.000  L 37.333, 28.000  L 41.333, 28.000  L 45.333, 28.000  L 50.000, 28.500  L 48.000, 29.000  L 44.000, 29.000  L 40.000, 29.000  L 36.000, 29.000  L 32.000, 29.000  L 30.000, 29.500  L 34.667, 30.000  L 38.667, 30.000  L 42.667, 30.000  L 46.667, 30.000  L 50.000, 30.500  L 45.333, 31.000  L 41.333, 31.000  L 37.333, 31.000  L 33.333, 31.000  L 30.000, 31.500  L 32.000, 32.000  L 36.000, 32.000  L 40.000, 32.000  L 44.000, 32.000  L 48.000, 32.000  L 50.000, 32.500  L 46.667, 33.000  L 42.667, 33.000  L 38.667, 33.000  L 34.667, 33.000  L 30.000, 33.500  L 33.333, 34.000  L 37.333, 34.000  L 41.333, 34.000  L 45.333, 34.000  L 50.000, 34.500  L 48.000, 35.000  L 44.000, 35.000  L 40.000, 35.000  L 36.000, 35.000  L 32.000, 35.000  L 30.000, 35.500  L 34.667, 36.000  L 38.667, 36.000  L 42.667, 36.000  L 46.667, 36.000  L 50.000, 36.500  L 45.333, 37.000  L 41.333, 37.000  L 37.333, 37.000  L 33.333, 37.000  L 30.000, 37.500  L 32.000, 38.000  L 36.000, 38.000  L 40.000, 38.000  L 44.000, 38.000  L 48.000, 38.000  L 50.000, 38.500  L 46.667, 39.000  L 42.667, 39.000  L 38.667, 39.000  L 34.667, 39.000  L 30.000, 39.500  L 33.333, 40.000  L 37.333, 40.000  L 41.333, 40.000  L 45.333, 40.000  L 50.000, 40.500  L 48.000, 41.000  L 44.000, 41.000  L 40.000, 41.000  L 36.000, 41.000  L 32.000, 41.000  L 30.000, 41.500  L 34.667, 42.000  L 38.667, 42.000  L 42.667, 42.000  L 46.667, 42.000  L 50.000, 42.500  L 45.333, 43.000  L 41.333, 43.000  L 37.333, 43.000  L 33.333, 43.000  L 30.000, 43.500  L 32.000, 44.000  L 36.000, 44.000  L 40.000, 44.000  L 44.000, 44.000  L 48.000, 44.000  L 50.000, 44.500  L 46.667, 45.000  L 42.667, 45.000  L 38.667, 45.000  L 34.667, 45.000  L 30.000, 45.500  L 33.333, 46.000  L 37.333, 46.000  L 41.333, 46.000  L 45.333, 46.000  L 50.000, 46.500  L 48.000, 47.000  L 44.000, 47.000  L 40.000, 47.000  L 36.000, 47.000  L 32.000, 47.000  L 30.000, 47.500  L 34.667, 48.000  L 38.667, 48.000  L 42.667, 48.000  L 46.667, 48.000  L 50.000, 48.500  L 45.333, 49.000  L 41.333, 49.000  L 37.333, 49.000  L 33.333, 49.000  L 30.000, 49.500  L 32.000, 50.000  L 36.000, 50.000  L 40.000, 50.000  L 44.000, 50.000  L 48.000, 50.000  L 50.000, 50.500  L 46.667, 51.000  L 42.667, 51.000  L 38.667, 51.000  L 34.667, 51.000  L 30.000, 51.500  L 33.333, 52.000  L 37.333, 52.000  L 41.333, 52.000  L 45.333, 52.000  L 50.000, 52.500  L 48.000, 53.000  L 44.000, 53.000  L 40.000, 53.000  L 36.000, 53.000  L 32.000, 53.000  L 30.000, 53.500  L 34.667, 54.000  L 38.667, 54.000  L 42.667, 54.000  L 46.667, 54.000  L 50.000, 54.500  L 45.333, 55.000  L 41.333, 55.000  L 37.333, 55.000  L 33.333, 55.000  L 30.000, 55.000 "/>
        <path class="stitch_line color_2 dot_2" d="M 75.000, 5.000  L 73.000, 5.000  L 69.000, 5.000  L 65.000, 5.000  L 61.000, 5.000  L 57.000, 5.000  L 55.000, 5.500  L 57.000, 6.000  L 61.000, 6.000  L 65.000, 6.000  L 69.000, 6.000  L 73.000, 6.000  L 75.000, 6.500  L 73.000, 7.000  L 69.000, 7.000  L 65.000, 7.000  L 61.000, 7.000  L 57.000, 7.000  L 55.000, 7.500  L 59.667, 8.000  L 63.667, 8.000  L 67.667, 8.000  L 71.667, 8.000  L 75.000, 8.500  L 71.667, 9.000  L 67.667, 9.000  L 63.667, 9.000  L 59.667, 9.000  L 55.000, 9.500  L 59.667, 10.000  L 63.667, 10.000  L 67.667, 10.000  L 71.667, 10.000  L 75.000, 10.500  L 70.333, 11.000  L 66.333, 11.000  L 62.333, 11.000  L 58.333, 11.000  L 55.000, 11.500  L 58.333, 12.000  L 62.333, 12.000  L 66.333, 12.000  L 70.333, 12.000  L 75.000, 12.500  L 70.333, 13.000  L 66.333, 13.000  L 62.333, 13.000  L 58.333, 13.000  L 55.000, 13.500  L 57.000, 14.000  L 61.000, 14.000  L 65.000, 14.000  L 69.000, 14.000  L 73.000, 14.000  L 75.000, 14.500  L 73.000, 15.000  L 69.000, 15.000  L 65.000, 15.000  L 61.000, 15.000  L 57.000, 15.000  L 55.000, 15.500  L 57.000, 16.000  L 61.000, 16.000  L 65.000, 16.000  L 69.000, 16.000  L 73.000, 16.000  L 75.000, 16.500  L 71.667, 17.000  L 67.667, 17.000  L 63.667, 17.000  L 59.667, 17.000  L 55.000, 17.500  L 59.667, 18.000  L 63.667, 18.000  L 67.667, 18.000  L 71.667, 18.000  L 75.000, 18.500  L 71.667, 19.000  L 67.667, 19.000  L 63.667, 19.000  L 59.667, 19.000  L 55.000, 19.500  L 58.333, 20.000  L 62.333, 20.000  L 66.333, 20.000  L 70.333, 20.000  L 75.000, 20.500  L 70.333, 21.000  L 66.333, 21.000  L 62.333, 21.000  L 58.333, 21.000  L 55.000, 21.500  L 58.333, 22.000  L 62.333, 22.000  L 66.333, 22.000  L 70.333, 22.000  L 75.000, 22.500  L 73.000, 23.000  L 69.000, 23.000  L 65.000, 23.000  L 61.000, 23.000  L 57.000, 23.000  L 55.000, 23.500  L 57.000, 24.000  L 61.000, 24.000  L 65.000, 24.000  L 69.000, 24.000  L 73.000, 24.000  L 75.000, 24.500  L 73.000, 25.000  L 69.000, 25.000  L 65.000, 25.000  L 61.000, 25.000  L 57.000, 25.000  L 55.000, 25.500  L 59.667, 26.000  L 63.667, 26.000  L 67.667, 26.000  L 71.667, 26.000  L 75.000, 26.500  L 71.667, 27.000  L 67.667, 27.000  L 63.667, 27.000  L 59.667, 27.000  L 55.000, 27.500  L 59.667, 28.000  L 63.667, 28.000  L 67.667, 28.000  L 71.667, 28.000  L 75.000, 28.500  L 70.333, 29.000  L 66.333, 29.000  L 62.333, 29.000  L 58.333, 29.000  L 55.000, 29.500  L 58.333, 30.000  L 62.333, 30.000  L 66.333, 30.000  L 70.333, 30.000  L 75.000, 30.500  L 70.333, 31.000  L 66.333, 31.000  L 62.333, 31.000  L 58.333, 31.000  L 55.000, 31.500  L 57.000, 32.000  L 61.000, 32.000  L 65.000, 32.000  L 69.000, 32.000  L 73.000, 32.000  L 75.000, 32.500  L 73.000, 33.000  L 69.000, 33.000  L 65.000, 33.000  L 61.000, 33.000  L 57.000, 33.000  L 55.000, 33.500  L 57.000, 34.000  L 61.000, 34.000  L 65.000, 34.000  L 69.000, 34.000  L 73.000, 34.000  L 75.000, 34.500  L 71.667, 35.000  L 67.667, 35.000  L 63.667, 35.000  L 59.667, 35.000  L 55.000, 35.500  L 59.667, 36.000  L 63.667, 36.000  L 67.667, 36.000  L 71.667, 36.000  L 75.000, 36.500  L 71.667, 37.000  L 67.667, 37.000  L 63.667, 37.000  L 59.667, 37.000  L 55.000, 37.500  L 58.333, 38.000  L 62.333, 38.000  L 66.333, 38.000  L 70.333, 38.000  L 75.000, 38.500  L 70.333, 39.000  L 66.333, 39.000  L 62.333, 39.000  L 58.333, 39.000  L 55.000, 39.500  L 58.333, 40.000  L 62.333, 40.000  L 66.333, 40.000  L 70.333, 40.000  L 75.000, 40.500  L 73.000, 41.000  L 69.000, 41.000  L 65.000, 41.000  L 61.000, 41.000  L 57.000, 41.000  L 55.000, 41.500  L 57.000, 42.000  L 61.000, 42.000  L 65.000, 42.000  L 69.000, 42.000  L 73.000, 42.000  L 75.000, 42.500  L 73.000, 43.000  L 69.000, 43.000  L 65.000, 43.000  L 61.000, 43.000  L 57.000, 43.000  L 55.000, 43.500  L 59.667, 44.000  L 63.667, 44.000  L 67.667, 44.000  L 71.667, 44.000  L 75.000, 44.500  L 71.667, 45.000  L 67.667, 45.000  L 63.667, 45.000  L 59.667, 45.000  L 55.000, 45.500  L 59.667, 46.000  L 63.667, 46.000  L 67.667, 46.000  L 71.667, 46.000  L 75.000, 46.500  L 70.333, 47.000  L 66.333, 47.000  L 62.333, 47.000  L 58.333, 47.000  L 55.000, 47.500  L 58.333, 48.000  L 62.333, 48.000  L 66.333, 48.000  L 70.333, 48.000  L 75.000, 48.500  L 70.333, 49.000  L 66.333, 49.000  L 62.333, 49.000  L 58.333, 49.000  L 55.000, 49.500  L 57.000, 50.000  L 61.000, 50.000  L 65.000, 50.000  L 69.000, 50.000  L 73.000, 50.000  L 75.000, 50.500  L 73.000, 51.000  L 69.000, 51.000  L 65.000, 51.000  L 61.000, 51.000  L 57.000, 51.000  L 55.000, 51.500  L 57.000, 52.000  L 61.000, 52.000  L 65.000, 52.000  L 69.000, 52.000  L 73.000, 52.000  L 75.000, 52.500  L 71.667, 53.000  L 67.667, 53.000  L 63.667, 53.000  L 59.667, 53.000  L 55.000, 53.500  L 59.667, 54.000  L 63.667, 54.000  L 67.667, 54.000  L 71.667, 54.000  L 75.000, 54.500  L 71.667, 55.000  L 67.667, 55.000  L 63.667, 55.000  L 59.667, 55.000  L 55.000, 55.000 "/>
        <path class="stitch_line color_3 dot_3" d="M 100.000, 5.000  L 98.000, 5.000  L 94.000, 5.000  L 90.000, 5.000  L 86.000, 5.000  L 82.000, 5.000  L 80.000, 5.500  L 81.200, 6.000  L 85.200, 6.000  L 89.200, 6.000  L 93.200, 6.000  L 97.200, 6.000  L 100.000, 6.500  L 96.400, 7.000  L 92.400, 7.000  L 88.400, 7.000  L 84.400, 7.000  L 80.000, 7.500  L 83.600, 8.000  L 87.600, 8.000  L 91.600, 8.000  L 95.600, 8.000  L 100.000, 8.500  L 98.800, 9.000  L 94.800, 9.000  L 90.800, 9.000  L 86.800, 9.000  L 82.800, 9.000  L 80.000, 9.500  L 82.000, 10.000  L 86.000, 10.000  L 90.000, 10.000  L 94.000, 10.000  L 98.000, 10.000  L 100.000, 10.500  L 97.200, 11.000  L 93.200, 11.000  L 89.200, 11.000  L 85.200, 11.000  L 81.200, 11.000  L 80.000, 11.500  L 84.400, 12.000  L 88.400, 12.000  L 92.400, 12.000  L 96.400, 12.000  L 100.000, 12.500  L 95.600, 13.000  L 91.600, 13.000  L 87.600, 13.000  L 83.600, 13.000  L 80.000, 13.500  L 82.800, 14.000  L 86.800, 14.000  L 90.800, 14.000  L 94.800, 14.000  L 98.800, 14.000  L 100.000, 14.500  L 98.000, 15.000  L 94.000, 15.000  L 90.000, 15.000  L 86.000, 15.000  L 82.000, 15.000  L 80.000, 15.500  L 81.200, 16.000  L 85.200, 16.000  L 89.200, 16.000  L 93.200, 16.000  L 97.200, 16.000  L 100.000, 16.500  L 96.400, 17.000  L 92.400, 17.000  L 88.400, 17.000  L 84.400, 17.000  L 80.000, 17.500  L 83.600, 18.000  L 87.600, 18.000  L 91.600, 18.000  L 95.600, 18.000  L 100.000, 18.500  L 98.800, 19.000  L 94.800, 19.000  L 90.800, 19.000  L 86.800, 19.000  L 82.800, 19.000  L 80.000, 19.500  L 82.000, 20.000  L 86.000, 20.000  L 90.000, 20.000  L 94.000, 20.000  L 98.000, 20.000  L 100.000, 20.500  L 97.200, 21.000  L 93.200, 21.000  L 89.200, 21.000  L 85.200, 21.000  L 81.200, 21.000  L 80.000, 21.500  L 84.400, 22.000  L 88.400, 22.000  L 92.400, 22.000  L 96.400, 22.000  L 100.000, 22.500  L 95.600, 23.000  L 91.600, 23.000  L 87.600, 23.000  L 83.600, 23.000  L 80.000, 23.500  L 82.800, 24.000  L 86.800, 24.000  L 90.800, 24.000  L 94.800, 24.000  L 98.800, 24.000  L 100.000, 24.500  L 98.000, 25.000  L 94.000, 25.000  L 90.000, 25.000  L 86.000, 25.000  L 82.000, 25.000  L 80.000, 25.500  L 81.200, 26.000  L 85.200, 26.000  L 89.200, 26.000  L 93.200, 26.000  L 97.200, 26.000  L 100.000, 26.500  L 96.400, 27.000  L 92.400, 27.000  L 88.400, 27.000  L 84.400, 27.000  L 80.000, 27.500  L 83.600, 28.000  L 87.600, 28.000  L 91.600, 28.000  L 95.600, 28.000  L 100.000, 28.500  L 98.800, 29.000  L 94.800, 29.000  L 90.800, 29.000  L 86.800, 29.000  L 82.800, 29.000  L 80.000, 29.500  L 82.000, 30.000  L 86.000, 30.000  L 90.000, 30.000  L 94.000, 30.000  L 98.000, 30.000  L 100.000, 30.500  L 97.200, 31.000  L 93.200, 31.000  L 89.200, 31.000  L 85.200, 31.000  L 81.200, 31.000  L 80.000, 31.500  L 84.400, 32.000  L 88.400, 32.000  L 92.400, 32.000  L 96.400, 32.000  L 100.000, 32.500  L 95.600, 33.000  L 91.600, 33.000  L 87.600, 33.000  L 83.600, 33.000  L 80.000, 33.500  L 82.800, 34.000  L 86.800, 34.000  L 90.800, 34.000  L 94.800, 34.000  L 98.800, 34.000  L 100.000, 34.500  L 98.000, 35.000  L 94.000, 35.000  L 90.000, 35.000  L 86.000, 35.000  L 82.000, 35.000  L 80.000, 35.500  L 81.200, 36.000  L 85.200, 36.000  L 89.200, 36.000  L 93.200, 36.000  L 97.200, 36.000  L 100.000, 36.500  L 96.400, 37.000  L 92.400, 37.000  L 88.400, 37.000  L 84.400, 37.000  L 80.000, 37.500  L 83.600, 38.000  L 87.600, 38.000  L 91.600, 38.000  L 95.600, 38.000  L 100.000, 38.500  L 98.800, 39.000  L 94.800, 39.000  L 90.800, 39.000  L 86.800, 39.000  L 82.800, 39.000  L 80.000, 39.500  L 82.000, 40.000  L 86.000, 40.000  L 90.000, 40.000  L 94.000, 40.000  L 98.000, 40.000  L 100.000, 40.500  L 97.200, 41.000  L 93.200, 41.000  L 89.200, 41.000  L 85.200, 41.000  L 81.200, 41.000  L 80.000, 41.500  L 84.400, 42.000  L 88.400, 42.000  L 92.400, 42.000  L 96.400, 42.000  L 100.000, 42.500  L 95.600, 43.000  L 91.600, 43.000  L 87.600, 43.000  L 83.600, 43.000  L 80.000, 43.500  L 82.800, 44.000  L 86.800, 44.000  L 90.800, 44.000  L 94.800, 44.000  L 98.800, 44.000  L 100.000, 44.500  L 98.000, 45.000  L 94.000, 45.000  L 90.000, 45.000  L 86.000, 45.000  L 82.000, 45.000  L 80.000, 45.500  L 81.200, 46.000  L 85.200, 46.000  L 89.200, 46.000  L 93.200, 46.000  L 97.200, 46.000  L 100.000, 46.500  L 96.400, 47.000  L 92.400, 47.000  L 88.400, 47.000  L 84.400, 47.000  L 80.000, 47.500  L 83.600, 48.000  L 87.600, 48.000  L 91.600, 48.000  L 95.600, 48.000  L 100.000, 48.500  L 98.800, 49.000  L 94.800, 49.000  L 90.800, 49.000  L 86.800, 49.000  L 82.800, 49.000  L 80.000, 49.500  L 82.000, 50.000  L 86.000, 50.000  L 90.000, 50.000  L 94.000, 50.000  L 98.000, 50.000  L 100.000, 50.500  L 97.200, 51.000  L 93.200, 51.000  L 89.200, 51.000  L 85.200, 51.000  L 81.200, 51.000  L 80.000, 51.500  L 84.400, 52.000  L 88.400, 52.000  L 92.400, 52.000  L 96.400, 52.000  L 100.000, 52.500  L 95.600, 53.000  L 91.600, 53.000  L 87.600, 53.000  L 83.600, 53.000  L 80.000, 53.500  L 82.800, 54.000  L 86.800, 54.000  L 90.800, 54.000  L 94.800, 54.000  L 98.800, 54.000  L 100.000, 54.500  L 98.000, 55.000  L 94.000, 55.000  L 90.000, 55.000  L 86.000, 55.000  L 82.000, 55.000  L 80.000, 55.000 "/>
        <path class="stitch_line color_4 dot_4" d="M 125.000, 5.000  L 120.000, 5.000  L 115.000, 5.000  L 110.000, 5.000  L 105.000, 5.500  L 110.000, 6.000  L 115.000, 6.000  L 120.000, 6.000  L 125.000, 6.500  L 120.000, 7.000  L 115.000, 7.000  L 110.000, 7.000  L 105.000, 7.500  L 110.000, 8.000  L 115.000, 8.000  L 120.000, 8.000  L 125.000, 8.500  L 120.000, 9.000  L 115.000, 9.000  L 110.000, 9.000  L 105.000, 9.500  L 110.000, 10.000  L 115.000, 10.000  L 120.000, 10.000  L 125.000, 10.500  L 120.000, 11.000  L 115.000, 11.000  L 110.000, 11.000  L 105.000, 11.500  L 110.000, 12.000  L 115.000, 12.000  L 120.000, 12.000  L 125.000, 12.500  L 122.500, 13.000  L 117.500, 13.000  L 112.500, 13.000  L 107.500, 13.000  L 105.000, 13.500  L 107.500, 14.000  L 112.500, 14.000  L 117.500, 14.000  L 122.500, 14.000  L 125.000, 14.500  L 122.500, 15.000  L 117.500, 15.000  L 112.500, 15.000  L 107.500, 15.000  L 105.000, 15.500  L 107.500, 16.000  L 112.500, 16.000  L 117.500, 16.000  L 122.500, 16.000  L 125.000, 16.500  L 122.500, 17.000  L 117.500, 17.000  L 112.500, 17.000  L 107.500, 17.000  L 105.000, 17.500  L 107.500, 18.000  L 112.500, 18.000  L 117.500, 18.000  L 122.500, 18.000  L 125.000, 18.500  L 122.500, 19.000  L 117.500, 19.000  L 112.500, 19.000  L 107.500, 19.000  L 105.000, 19.500  L 107.500, 20.000  L 112.500, 20.000  L 117.500, 20.000  L 122.500, 20.000  L 125.000, 20.500  L 120.000, 21.000  L 115.000, 21.000  L 110.000, 21.000  L 105.000, 21.500  L 110.000, 22.000  L 115.000, 22.000  L 120.000, 22.000  L 125.000, 22.500  L 120.000, 23.000  L 115.000, 23.000  L 110.000, 23.000  L 105.000, 23.500  L 110.000, 24.000  L 115.000, 24.000  L 120.000, 24.000  L 125.000, 24.500  L 120.000, 25.000  L 115.000, 25.000  L 110.000, 25.000  L 105.000, 25.500  L 110.000, 26.000  L 115.000, 26.000  L 120.000, 26.000  L 125.000, 26.500  L 120.000, 27.000  L 115.000, 27.000  L 110.000, 27.000  L 105.000, 27.500  L 110.000, 28.000  L 115.000, 28.000  L 120.000, 28.000  L 125.000, 28.500  L 122.500, 29.000  L 117.500, 29.000  L 112.500, 29.000  L 107.500, 29.000  L 105.000, 29.500  L 107.500, 30.000  L 112.500, 30.000  L 117.500, 30.000  L 122.500, 30.000  L 125.000, 30.500  L 122.500, 31.000  L 117.500, 31.000  L 112.500, 31.000  L 107.500, 31.000  L 105.000, 31.500  L 107.500, 32.000  L 112.500, 32.000  L 117.500, 32.000  L 122.500, 32.000  L 125.000, 32.500  L 122.500, 33.000  L 117.500, 33.000  L 112.500, 33.000  L 107.500, 33.000  L 105.000, 33.500  L 107.500, 34.000  L 112.500, 34.000  L 117.500, 34.000  L 122.500, 34.000  L 125.000, 34.500  L 122.500, 35.000  L 117.500, 35.000  L 112.500, 35.000  L 107.500, 35.000  L 105.000, 35.500  L 107.500, 36.000  L 112.500, 36.000  L 117.500, 36.000  L 122.500, 36.000  L 125.000, 36.500  L 120.000, 37.000  L 115.000, 37.000  L 110.000, 37.000  L 105.000, 37.500  L 110.000, 38.000  L 115.000, 38.000  L 120.000, 38.000  L 125.000, 38.500  L 120.000, 39.000  L 115.000, 39.000  L 110.000, 39.000  L 105.000, 39.500  L 110.000, 40.000  L 115.000, 40.000  L 120.000, 40.000  L 125.000, 40.500  L 120.000, 41.000  L 115.000, 41.000  L 110.000, 41.000  L 105.000, 41.500  L 110.000, 42.000  L 115.000, 42.000  L 120.000, 42.000  L 125.000, 42.500  L 120.000, 43.000  L 115.000, 43.000  L 110.000, 43.000  L 105.000, 43.500  L 110.000, 44.000  L 115.000, 44.000  L 120.000, 44.000  L 125.000, 44.500  L 122.500, 45.000  L 117.500, 45.000  L 112.500, 45.000  L 107.500, 45.000  L 105.000, 45.500  L 107.500, 46.000  L 112.500, 46.000  L 117.500, 46.000  L 122.500, 46.000  L 125.000, 46.500  L 122.500, 47.000  L 117.500, 47.000  L 112.500, 47.000  L 107.500, 47.000  L 105.000, 47.500  L 107.500, 48.000  L 112.500, 48.000  L 117.500, 48.000  L 122.500, 48.000  L 125.000, 48.500  L 122.500, 49.000  L 117.500, 49.000  L 112.500, 49.000  L 107.500, 49.000  L 105.000, 49.500  L 107.500, 50.000  L 112.500, 50.000  L 117.500, 50.000  L 122.500, 50.000  L 125.000, 50.500  L 122.500, 51.000  L 117.500, 51.000  L 112.500, 51.000  L 107.500, 51.000  L 105.000, 51.500  L 107.500, 52.000  L 112.500, 52.000  L 117.500, 52.000  L 122.500, 52.000  L 125.000, 52.500  L 120.000, 53.000  L 115.000, 53.000  L 110.000, 53.000  L 105.000, 53.500  L 110.000, 54.000  L 115.000, 54.000  L 120.000, 54.000  L 125.000, 54.500  L 120.000, 55.000  L 115.000, 55.000  L 110.000, 55.000  L 105.000, 55.000 "/>
        <path class="stitch_line color_5 dot_5" d="M 150.000, 5.000  L 145.000, 5.000  L 140.000, 5.000  L 135.000, 5.000  L 130.000, 5.500  L 133.200, 6.000  L 138.200, 6.000  L 143.200, 6.000  L 148.200, 6.000  L 150.000, 6.500  L 146.800, 7.000  L 141.800, 7.000  L 136.800, 7.000  L 131.800, 7.000  L 130.000, 7.500  L 135.800, 8.000  L 140.800, 8.000  L 145.800, 8.000  L 150.000, 8.500  L 145.200, 9.000  L 140.200, 9.000  L 135.200, 9.000  L 130.000, 9.500  L 135.000, 10.000  L 140.000, 10.000  L 145.000, 10.000  L 150.000, 10.500  L 145.200, 11.000  L 140.200, 11.000  L 135.200, 11.000  L 130.000, 11.500  L 135.800, 12.000  L 140.800, 12.000  L 145.800, 12.000  L 150.000, 12.500  L 146.800, 13.000  L 141.800, 13.000  L 136.800, 13.000  L 131.800, 13.000  L 130.000, 13.500  L 133.200, 14.000  L 138.200, 14.000  L 143.200, 14.000  L 148.200, 14.000  L 150.000, 14.500  L 145.000, 15.000  L 140.000, 15.000  L 135.000, 15.000  L 130.000, 15.500  L 133.200, 16.000  L 138.200, 16.000  L 143.200, 16.000  L 148.200, 16.000  L 150.000, 16.500  L 146.800, 17.000  L 141.800, 17.000  L 136.800, 17.000  L 131.800, 17.000  L 130.000, 17.500  L 135.800, 18.000  L 140.800, 18.000  L 145.800, 18.000  L 150.000, 18.500  L 145.200, 19.000  L 140.200, 19.000  L 135.200, 19.000  L 130.000, 19.500  L 135.000, 20.000  L 140.000, 20.000  L 145.000, 20.000  L 150.000, 20.500  L 145.200, 21.000  L 140.200, 21.000  L 135.200, 21.000  L 130.000, 21.500  L 135.800, 22.000  L 140.800, 22.000  L 145.800, 22.000  L 150.000, 22.500  L 146.800, 23.000  L 141.800, 23.000  L 136.800, 23.000  L 131.800, 23.000  L 130.000, 23.500  L 133.200, 24.000  L 138.200, 24.000  L 143.200, 24.000  L 148.200, 24.000  L 150.000, 24.500  L 145.000, 25.000  L 140.000, 25.000  L 135.000, 25.000  L 130.000, 25.500  L 133.200, 26.000  L 138.200, 26.000  L 143.200, 26.000  L 148.200, 26.000  L 150.000, 26.500  L 146.800, 27.000  L 141.800, 27.000  L 136.800, 27.000  L 131.800, 27.000  L 130.000, 27.500  L 135.800, 28.000  L 140.800, 28.000  L 145.800, 28.000  L 150.000, 28.500  L 145.200, 29.000  L 140.200, 29.000  L 135.200, 29.000  L 130.000, 29.500  L 135.000, 30.000  L 140.000, 30.000  L 145.000, 30.000  L 150.000, 30.500  L 145.200, 31.000  L 140.200, 31.000  L 135.200, 31.000  L 130.000, 31.500  L 135.800, 32.000  L 140.800, 32.000  L 145.800, 32.000  L 150.000, 32.500  L 146.800, 33.000  L 141.800, 33.000  L 136.800, 33.000  L 131.800, 33.000  L 130.000, 33.500  L 133.200, 34.000  L 138.200, 34.000  L 143.200, 34.000  L 148.200, 34.000  L 150.000, 34.500  L 145.000, 35.000  L 140.000, 35.000  L 135.000, 35.000  L 130.000, 35.500  L 133.200, 36.000  L 138.200, 36.000  L 143.200, 36.000  L 148.200, 36.000  L 150.000, 36.500  L 146.800, 37.000  L 141.800, 37.000  L 136.800, 37.000  L 131.800, 37.000  L 130.000, 37.500  L 135.800, 38.000  L 140.800, 38.000  L 145.800, 38.000  L 150.000, 38.500  L 145.200, 39.000  L 140.200, 39.000  L 135.200, 39.000  L 130.000, 39.500  L 135.000, 40.000  L 140.000, 40.000  L 145.000, 40.000  L 150.000, 40.500  L 145.200, 41.000  L 140.200, 41.000  L 135.200, 41.000  L 130.000, 41.500  L 135.800, 42.000  L 140.800, 42.000  L 145.800, 42.000  L 150.000, 42.500  L 146.800, 43.000  L 141.800, 43.000  L 136.800, 43.000  L 131.800, 43.000  L 130.000, 43.500  L 133.200, 44.000  L 138.200, 44.000  L 143.200, 44.000  L 148.200, 44.000  L 150.000, 44.500  L 145.000, 45.000  L 140.000, 45.000  L 135.000, 45.000  L 130.000, 45.500  L 133.200, 46.000  L 138.200, 46.000  L 143.200, 46.000  L 148.200, 46.000  L 150.000, 46.500  L 146.800, 47.000  L 141.800, 47.000  L 136.800, 47.000  L 131.800, 47.000  L 130.000, 47.500  L 135.800, 48.000  L 140.800, 48.000  L 145.800, 48.000  L 150.000, 48.500  L 145.200, 49.000  L 140.200, 49.000  L 135.200, 49.000  L 130.000, 49.500  L 135.000, 50.000  L 140.000, 50.000  L 145.000, 50.000  L 150.000, 50.500  L 145.200, 51.000  L 140.200, 51.000  L 135.200, 51.000  L 130.000, 51.500  L 135.800, 52.000  L 140.800, 52.000  L 145.800, 52.000  L 150.000, 52.500  L 146.800, 53.000  L 141.800, 53.000  L 136.800, 53.000  L 131.800, 53.000  L 130.000, 53.500  L 133.200, 54.000  L 138.200, 54.000  L 143.200, 54.000  L 148.200, 54.000  L 150.000, 54.500  L 145.000, 55.000  L 140.000, 55.000  L 135.000, 55.000  L 130.000, 55.000 "/>
        <path class="stitch_line color_6 dot_6" d="M 175.000, 5.000  L 170.000, 5.000  L 165.000, 5.000  L 160.000, 5.000  L 155.000, 5.500  L 159.000, 6.000  L 164.000, 6.000  L 169.000, 6.000  L 174.000, 6.000  L 175.000, 6.500  L 173.000, 7.000  L 168.000, 7.000  L 163.000, 7.000  L 158.000, 7.000  L 155.000, 7.500  L 157.000, 8.000  L 162.000, 8.000  L 167.000, 8.000  L 172.000, 8.000  L 175.000, 8.500  L 171.000, 9.000  L 166.000, 9.000  L 161.000, 9.000  L 156.000, 9.000  L 155.000, 9.500  L 160.000, 10.000  L 165.000, 10.000  L 170.000, 10.000  L 175.000, 10.500  L 171.000, 11.000  L 166.000, 11.000  L 161.000, 11.000  L 156.000, 11.000  L 155.000, 11.500  L 157.000, 12.000  L 162.000, 12.000  L 167.000, 12.000  L 172.000, 12.000  L 175.000, 12.500  L 173.000, 13.000  L 168.000, 13.000  L 163.000, 13.000  L 158.000, 13.000  L 155.000, 13.500  L 159.000, 14.000  L 164.000, 14.000  L 169.000, 14.000  L 174.000, 14.000  L 175.000, 14.500  L 170.000, 15.000  L 165.000, 15.000  L 160.000, 15.000  L 155.000, 15.500  L 159.000, 16.000  L 164.000, 16.000  L 169.000, 16.000  L 174.000, 16.000  L 175.000, 16.500  L 173.000, 17.000  L 168.000, 17.000  L 163.000, 17.000  L 158.000, 17.000  L 155.000, 17.500  L 157.000, 18.000  L 162.000, 18.000  L 167.000, 18.000  L 172.000, 18.000  L 175.000, 18.500  L 171.000, 19.000  L 166.000, 19.000  L 161.000, 19.000  L 156.000, 19.000  L 155.000, 19.500  L 160.000, 20.000  L 165.000, 20.000  L 170.000, 20.000  L 175.000, 20.500  L 171.000, 21.000  L 166.000, 21.000  L 161.000, 21.000  L 156.000, 21.000  L 155.000, 21.500  L 157.000, 22.000  L 162.000, 22.000  L 167.000, 22.000  L 172.000, 22.000  L 175.000, 22.500  L 173.000, 23.000  L 168.000, 23.000  L 163.000, 23.000  L 158.000, 23.000  L 155.000, 23.500  L 159.000, 24.000  L 164.000, 24.000  L 169.000, 24.000  L 174.000, 24.000  L 175.000, 24.500  L 170.000, 25.000  L 165.000, 25.000  L 160.000, 25.000  L 155.000, 25.500  L 159.000, 26.000  L 164.000, 26.000  L 169.000, 26.000  L 174.000, 26.000  L 175.000, 26.500  L 173.000, 27.000  L 168.000, 27.000  L 163.000, 27.000  L 158.000, 27.000  L 155.000, 27.500  L 157.000, 28.000  L 162.000, 28.000  L 167.000, 28.000  L 172.000, 28.000  L 175.000, 28.500  L 171.000, 29.000  L 166.000, 29.000  L 161.000, 29.000  L 156.000, 29.000  L 155.000, 29.500  L 160.000, 30.000  L 165.000, 30.000  L 170.000, 30.000  L 175.000, 30.500  L 171.000, 31.000  L 166.000, 31.000  L 161.000, 31.000  L 156.000, 31.000  L 155.000, 31.500  L 157.000, 32.000  L 162.000, 32.000  L 167.000, 32.000  L 172.000, 32.000  L 175.000, 32.500  L 173.000, 33.000  L 168.000, 33.000  L 163.000, 33.000  L 158.000, 33.000  L 155.000, 33.500  L 159.000, 34.000  L 164.000, 34.000  L 169.000, 34.000  L 174.000, 34.000  L 175.000, 34.500  L 170.000, 35.000  L 165.000, 35.000  L 160.000, 35.000  L 155.000, 35.500  L 159.000, 36.000  L 164.000, 36.000  L 169.000, 36.000  L 174.000, 36.000  L 175.000, 36.500  L 173.000, 37.000  L 168.000, 37.000  L 163.000, 37.000  L 158.000, 37.000  L 155.000, 37.500  L 157.000, 38.000  L 162.000, 38.000  L 167.000, 38.000  L 172.000, 38.000  L 175.000, 38.500  L 171.000, 39.000  L 166.000, 39.000  L 161.000, 39.000  L 156.000, 39.000  L 155.000, 39.500  L 160.000, 40.000  L 165.000, 40.000  L 170.000, 40.000  L 175.000, 40.500  L 171.000, 41.000  L 166.000, 41.000  L 161.000, 41.000  L 156.000, 41.000  L 155.000, 41.500  L 157.000, 42.000  L 162.000, 42.000  L 167.000, 42.000  L 172.000, 42.000  L 175.000, 42.500  L 173.000, 43.000  L 168.000, 43.000  L 163.000, 43.000  L 158.000, 43.000  L 155.000, 43.500  L 159.000, 44.000  L 164.000, 44.000  L 169.000, 44.000  L 174.000, 44.000  L 175.000, 44.500  L 170.000, 45.000  L 165.000, 45.000  L 160.000, 45.000  L 155.000, 45.500  L 159.000, 46.000  L 164.000, 46.000  L 169.000, 46.000  L 174.000, 46.000  L 175.000, 46.500  L 173.000, 47.000  L 168.000, 47.000  L 163.000, 47.000  L 158.000, 47.000  L 155.000, 47.500  L 157.000, 48.000  L 162.000, 48.000  L 167.000, 48.000  L 172.000, 48.000  L 175.000, 48.500  L 171.000, 49.000  L 166.000, 49.000  L 161.000, 49.000  L 156.000, 49.000  L 155.000, 49.500  L 160.000, 50.000  L 165.000, 50.000  L 170.000, 50.000  L 175.000, 50.500  L 171.000, 51.000  L 166.000, 51.000  L 161.000, 51.000  L 156.000, 51.000  L 155.000, 51.500  L 157.000, 52.000  L 162.000, 52.000  L 167.000, 52.000  L 172.000, 52.000  L 175.000, 52.500  L 173.000, 53.000  L 168.000, 53.000  L 163.000, 53.000  L 158.000, 53.000  L 155.000, 53.500  L 159.000, 54.000  L 164.000, 54.000  L 169.000, 54.000  L 174.000, 54.000  L 175.000, 54.500  L 170.000, 55.000  L 165.000, 55.000  L 160.000, 55.000  L 155.000, 55.000 "/>
        <path class="stitch_line color_7 dot_7" d="M 200.000, 5.000  L 199.000, 5.000  L 194.000, 5.000  L 189.000, 5.000  L 184.000, 5.000  L 180.000, 5.500  L 183.073, 6.000  L 188.073, 6.000  L 193.073, 6.000  L 198.073, 6.000  L 200.000, 6.500  L 197.237, 7.000  L 192.237, 7.000  L 187.237, 7.000  L 182.237, 7.000  L 180.000, 7.500  L 181.573, 8.000  L 186.573, 8.000  L 191.573, 8.000  L 196.573, 8.000  L 200.000, 8.500  L 196.147, 9.000  L 191.147, 9.000  L 186.147, 9.000  L 181.147, 9.000  L 180.000, 9.500  L 181.000, 10.000  L 186.000, 10.000  L 191.000, 10.000  L 196.000, 10.000  L 200.000, 10.500  L 196.147, 11.000  L 191.147, 11.000  L 186.147, 11.000  L 181.147, 11.000  L 180.000, 11.500  L 181.573, 12.000  L 186.573, 12.000  L 191.573, 12.000  L 196.573, 12.000  L 200.000, 12.500  L 197.237, 13.000  L 192.237, 13.000  L 187.237, 13.000  L 182.237, 13.000  L 180.000, 13.500  L 183.073, 14.000  L 188.073, 14.000  L 193.073, 14.000  L 198.073, 14.000  L 200.000, 14.500  L 199.000, 15.000  L 194.000, 15.000  L 189.000, 15.000  L 184.000, 15.000  L 180.000, 15.500  L 184.927, 16.000  L 189.927, 16.000  L 194.927, 16.000  L 200.000, 16.500  L 195.763, 17.000  L 190.763, 17.000  L 185.763, 17.000  L 180.000, 17.500  L 181.427, 18.000  L 186.427, 18.000  L 191.427, 18.000  L 196.427, 18.000  L 200.000, 18.500  L 196.853, 19.000  L 191.853, 19.000  L 186.853, 19.000  L 181.853, 19.000  L 180.000, 19.500  L 182.000, 20.000  L 187.000, 20.000  L 192.000, 20.000  L 197.000, 20.000  L 200.000, 20.500  L 196.853, 21.000  L 191.853, 21.000  L 186.853, 21.000  L 181.853, 21.000  L 180.000, 21.500  L 181.427, 22.000  L 186.427, 22.000  L 191.427, 22.000  L 196.427, 22.000  L 200.000, 22.500  L 195.763, 23.000  L 190.763, 23.000  L 185.763, 23.000  L 180.000, 23.500  L 184.927, 24.000  L 189.927, 24.000  L 194.927, 24.000  L 200.000, 24.500  L 199.000, 25.000  L 194.000, 25.000  L 189.000, 25.000  L 184.000, 25.000  L 180.000, 25.500  L 183.073, 26.000  L 188.073, 26.000  L 193.073, 26.000  L 198.073, 26.000  L 200.000, 26.500  L 197.237, 27.000  L 192.237, 27.000  L 187.237, 27.000  L 182.237, 27.000  L 180.000, 27.500  L 181.573, 28.000  L 186.573, 28.000  L 191.573, 28.000  L 196.573, 28.000  L 200.000, 28.500  L 196.147, 29.000  L 191.147, 29.000  L 186.147, 29.000  L 181.147, 29.000  L 180.000, 29.500  L 181.000, 30.000  L 186.000, 30.000  L 191.000, 30.000  L 196.000, 30.000  L 200.000, 30.500  L 196.147, 31.000  L 191.147, 31.000  L 186.147, 31.000  L 181.147, 31.000  L 180.000, 31.500  L 181.573, 32.000  L 186.573, 32.000  L 191.573, 32.000  L 196.573, 32.000  L 200.000, 32.500  L 197.237, 33.000  L 192.237, 33.000  L 187.237, 33.000  L 182.237, 33.000  L 180.000, 33.500  L 183.073, 34.000  L 188.073, 34.000  L 193.073, 34.000  L 198.073, 34.000  L 200.000, 34.500  L 199.000, 35.000  L 194.000, 35.000  L 189.000, 35.000  L 184.000, 35.000  L 180.000, 35.500  L 184.927, 36.000  L 189.927, 36.000  L 194.927, 36.000  L 200.000, 36.500  L 195.763, 37.000  L 190.763, 37.000  L 185.763, 37.000  L 180.000, 37.500  L 181.427, 38.000  L 186.427, 38.000  L 191.427, 38.000  L 196.427, 38.000  L 200.000, 38.500  L 196.853, 39.000  L 191.853, 39.000  L 186.853, 39.000  L 181.853, 39.000  L 180.000, 39.500  L 182.000, 40.000  L 187.000, 40.000  L 192.000, 40.000  L 197.000, 40.000  L 200.000, 40.500  L 196.853, 41.000  L 191.853, 41.000  L 186.853, 41.000  L 181.853, 41.000  L 180.000, 41.500  L 181.427, 42.000  L 186.427, 42.000  L 191.427, 42.000  L 196.427, 42.000  L 200.000, 42.500  L 195.763, 43.000  L 190.763, 43.000  L 185.763, 43.000  L 180.000, 43.500  L 184.927, 44.000  L 189.927, 44.000  L 194.927, 44.000  L 200.000, 44.500  L 199.000, 45.000  L 194.000, 45.000  L 189.000, 45.000  L 184.000, 45.000  L 180.000, 45.500  L 183.073, 46.000  L 188.073, 46.000  L 193.073, 46.000  L 198.073, 46.000  L 200.000, 46.500  L 197.237, 47.000  L 192.237, 47.000  L 187.237, 47.000  L 182.237, 47.000  L 180.000, 47.500  L 181.573, 48.000  L 186.573, 48.000  L 191.573, 48.000  L 196.573, 48.000  L 200.000, 48.500  L 196.147, 49.000  L 191.147, 49.000  L 186.147, 49.000  L 181.147, 49.000  L 180.000, 49.500  L 181.000, 50.000  L 186.000, 50.000  L 191.000, 50.000  L 196.000, 50.000  L 200.000, 50.500  L 196.147, 51.000  L 191.147, 51.000  L 186.147, 51.000  L 181.147, 51.000  L 180.000, 51.500  L 181.573, 52.000  L 186.573, 52.000  L 191.573, 52.000  L 196.573, 52.000  L 200.000, 52.500  L 197.237, 53.000  L 192.237, 53.000  L 187.237, 53.000  L 182.237, 53.000  L 180.000, 53.500  L 183.073, 54.000  L 188.073, 54.000  L 193.073, 54.000  L 198.073, 54.000  L 200.000, 54.500  L 199.000, 55.000  L 194.000, 55.000  L 189.000, 55.000  L 184.000, 55.000  L 180.000, 55.000 "/>
    </g>
</svg>
