<?xml version="1.0" encoding="utf-8" ?>
<svg xmlns="http://www.w3.org/2000/svg" xmlns:ev="http://www.w3.org/2001/xml-events" xmlns:xlink="http://www.w3.org/1999/xlink" baseProfile="full" height="40mm" version="1.1" viewBox="0,0,140,40" width="140mm">
    <defs>
        <style type="text/css"><![CDATA[
.stitch_line {
    stroke-width: 0.3;
    stroke-linejoin: round;
    stroke-linecap: round;
    fill: none;
}
.path_center_line {
    fill: none;
    stroke:#808080;
    stroke-width: 0.2;
    stroke-linejoin: round;
    stroke-linecap: round;
}
.path_contour {
    fill: #808080;
    fill-opacity: 0.3;
    stroke: #808080;
    stroke-opacity: 1;
    stroke-width: 0.3;
}
.text{
    text-anchor: middle;
    dominant-baseline: middle;
    font-family: sans-serif;
    font-size: 1.5mm;
}
.smalltext{
    text-anchor: middle;
    dominant-baseline: middle;
    font-family: sans-serif;
    font-size: 1mm;
}
.line_0 {
    fill: none;
    stroke:#3bb2d0;
    stroke-width:0.8;
    marker-end:url(#triangle_line_0);
}
]]></style>
        <marker id="triangle_line_0" markerHeight="4" markerWidth="4" orient="auto" refX="3.0" refY="2.0">
            <path d="M 0,0 L 4,2.0 L 0,4 z" fill="#3bb2d0"/>
        </marker>
    </defs>
    <g>
        <g transform="translate(70.0,20.0)">
            <g>
                <path class="path_contour" d="M -60.000, -7.500  L -59.552, -7.279  L -59.102, -7.061  L -58.650, -6.848  L -58.197, -6.639  L -57.741, -6.433  L -57.283, -6.233  L -56.824, -6.036  L -56.363, -5.843  L -55.900, -5.655  L -55.435, -5.471  L -54.969, -5.292  L -54.501, -5.117  L -54.031, -4.946  L -53.560, -4.780  L -53.087, -4.618  L -52.613, -4.461  L -52.137, -4.308  L -51.660, -4.159  L -51.182, -4.015  L -50.702, -3.876  L -50.221, -3.741  L -49.738, -3.610  L -49.255, -3.484  L -48.770, -3.363  L -48.284, -3.246  L -47.797, -3.134  L -47.309, -3.026  L -46.821, -2.923  L -46.331, -2.824  L -45.840, -2.729  L -45.349, -2.639  L -44.856, -2.554  L -44.363, -2.472  L -43.869, -2.396  L -43.375, -2.323  L -42.880, -2.255  L -42.384, -2.191  L -41.888, -2.132  L -41.392, -2.077  L -40.894, -2.026  L -40.397, -1.979  L -39.899, -1.936  L -39.401, -1.897  L -38.902, -1.863  L -38.404, -1.832  L -37.905, -1.806  L -37.405, -1.783  L -36.906, -1.764  L -36.407, -1.749  L -35.907, -1.738  L -35.407, -1.731  L -34.908, -1.727  L -34.408, -1.727  L -33.908, -1.730  L -33.409, -1.737  L -32.909, -1.748  L -32.410, -1.762  L -31.910, -1.779  L -31.411, -1.799  L -30.912, -1.823  L -30.413, -1.850  L -29.914, -1.880  L -29.416, -1.914  L -28.917, -1.950  L -28.419, -1.989  L -27.921, -2.031  L -27.423, -2.076  L -26.926, -2.124  L -26.429, -2.175  L -25.932, -2.228  L -25.435, -2.284  L -24.939, -2.342  L -24.443, -2.403  L -23.948, -2.467  L -23.452, -2.533  L -22.957, -2.601  L -22.463, -2.671  L -21.968, -2.744  L -21.474, -2.819  L -20.980, -2.896  L -20.487, -2.975  L -19.994, -3.057  L -19.501, -3.140  L -19.009, -3.225  L -18.517, -3.312  L -18.025, -3.400  L -17.534, -3.491  L -17.042, -3.583  L -16.552, -3.677  L -16.061, -3.772  L -15.571, -3.869  L -15.081, -3.968  L -14.591, -4.068  L -14.102, -4.169  L -13.613, -4.272  L -13.124, -4.376  L -12.636, -4.481  L -12.148, -4.588  L -11.660, -4.695  L -11.172, -4.804  L -10.684, -4.914  L -10.197, -5.024  L -9.710, -5.136  L -9.223, -5.249  L -8.737, -5.362  L -8.250, -5.476  L -7.764, -5.592  L -7.278, -5.707  L -6.792, -5.824  L -6.306, -5.941  L -5.821, -6.059  L -5.335, -6.177  L -4.850, -6.296  L -4.364, -6.415  L -3.879, -6.534  L -3.394, -6.654  L -2.909, -6.774  L -2.424, -6.895  L -1.939, -7.016  L -1.454, -7.137  L -0.970, -7.258  L -0.485, -7.379  L 0.000, -7.500  L 0.485, -7.621  L 0.970, -7.742  L 1.454, -7.863  L 1.939, -7.984  L 2.424, -8.105  L 2.909, -8.226  L 3.394, -8.346  L 3.879, -8.466  L 4.364, -8.585  L 4.850, -8.704  L 5.335, -8.823  L 5.821, -8.941  L 6.306, -9.059  L 6.792, -9.176  L 7.278, -9.293  L 7.764, -9.408  L 8.250, -9.524  L 8.737, -9.638  L 9.223, -9.751  L 9.710, -9.864  L 10.197, -9.976  L 10.684, -10.086  L 11.172, -10.196  L 11.660, -10.305  L 12.148, -10.412  L 12.636, -10.519  L 13.124, -10.624  L 13.613, -10.728  L 14.102, -10.831  L 14.591, -10.932  L 15.081, -11.032  L 15.571, -11.131  L 16.061, -11.228  L 16.552, -11.323  L 17.042, -11.417  L 17.534, -11.509  L 18.025, -11.600  L 18.517, -11.688  L 19.009, -11.775  L 19.501, -11.860  L 19.994, -11.943  L 20.487, -12.025  L 20.980, -12.104  L 21.474, -12.181  L 21.968, -12.256  L 22.463, -12.329  L 22.957, -12.399  L 23.452, -12.467  L 23.948, -12.533  L 24.443, -12.597  L 24.939, -12.658  L 25.435, -12.716  L 25.932, -12.772  L 26.429, -12.825  L 26.926, -12.876  L 27.423, -12.924  L 27.921, -12.969  L 28.419, -13.011  L 28.917, -13.050  L 29.416, -13.086  L 29.914, -13.120  L 30.413, -13.150  L 30.912, -13.177  L 31.411, -13.201  L 31.910, -13.221  L 32.410, -13.238  L 32.909, -13.252  L 33.409, -13.263  L 33.908, -13.270  L 34.408, -13.273  L 34.908, -13.273  L 35.407, -13.269  L 35.907, -13.262  L 36.407, -13.251  L 36.906, -13.236  L 37.405, -13.217  L 37.905, -13.194  L 38.404, -13.168  L 38.902, -13.137  L 39.401, -13.103  L 39.899, -13.064  L 40.397, -13.021  L 40.894, -12.974  L 41.392, -12.923  L 41.888, -12.868  L 42.384, -12.809  L 42.880, -12.745  L 43.375, -12.677  L 43.869, -12.604  L 44.363, -12.528  L 44.856, -12.446  L 45.349, -12.361  L 45.840, -12.271  L 46.331, -12.176  L 46.821, -12.077  L 47.309, -11.974  L 47.797, -11.866  L 48.284, -11.754  L 48.770, -11.637  L 49.255, -11.516  L 49.738, -11.390  L 50.221, -11.259  L 50.702, -11.124  L 51.182, -10.985  L 51.660, -10.841  L 52.137, -10.692  L 52.613, -10.539  L 53.087, -10.382  L 53.560, -10.220  L 54.031, -10.054  L 54.501, -9.883  L 54.969, -9.708  L 55.435, -9.529  L 55.900, -9.345  L 56.363, -9.157  L 56.824, -8.964  L 57.283, -8.767  L 57.741, -8.567  L 58.197, -8.361  L 58.650, -8.152  L 59.102, -7.939  L 59.552, -7.721  L 60.000, -7.500  L 60.000, -7.000  L 60.000, -6.500  L 60.000, -6.000  L 60.000, -5.500  L 60.000, -5.000  L 60.000, -4.500  L 60.000, -4.000  L 60.000, -3.500  L 60.000, -3.000  L 60.000, -2.500  L 60.000, -2.000  L 60.000, -1.500  L 60.000, -1.000  L 60.000, -0.500  L 60.000, 0.000  L 60.000, 0.500  L 60.000, 1.000  L 60.000, 1.500  L 60.000, 2.000  L 60.000, 2.500  L 60.000, 3.000  L 60.000, 3.500  L 60.000, 4.000  L 60.000, 4.500  L 60.000, 5.000  L 60.000, 5.500  L 60.000, 6.000  L 60.000, 6.500  L 60.000, 7.000  L 60.000, 7.500  L 59.552, 7.279  L 59.102, 7.061  L 58.650, 6.848  L 58.197, 6.639  L 57.741, 6.433  L 57.283, 6.233  L 56.824, 6.036  L 56.363, 5.843  L 55.900, 5.655  L 55.435, 5.471  L 54.969, 5.292  L 54.501, 5.117  L 54.031, 4.946  L 53.560, 4.780  L 53.087, 4.618  L 52.613, 4.461  L 52.137, 4.308  L 51.660, 4.159  L 51.182, 4.015  L 50.702, 3.876  L 50.221, 3.741  L 49.738, 3.610  L 49.255, 3.484  L 48.770, 3.363  L 48.284, 3.246  L 47.797, 3.134  L 47.309, 3.026  L 46.821, 2.923  L 46.331, 2.824  L 45.840, 2.729  L 45.349, 2.639  L 44.856, 2.554  L 44.363, 2.472  L 43.869, 2.396  L 43.375, 2.323  L 42.880, 2.255  L 42.384, 2.191  L 41.888, 2.132  L 41.392, 2.077  L 40.894, 2.026  L 40.397, 1.979  L 39.899, 1.936  L 39.401, 1.897  L 38.902, 1.863  L 38.404, 1.832  L 37.905, 1.806  L 37.405, 1.783  L 36.906, 1.764  L 36.407, 1.749  L 35.907, 1.738  L 35.407, 1.731  L 34.908, 1.727  L 34.408, 1.727  L 33.908, 1.730  L 33.409, 1.737  L 32.909, 1.748  L 32.410, 1.762  L 31.910, 1.779  L 31.411, 1.799  L 30.912, 1.823  L 30.413, 1.850  L 29.914, 1.880  L 29.416, 1.914  L 28.917, 1.950  L 28.419, 1.989  L 27.921, 2.031  L 27.423, 2.076  L 26.926, 2.124  L 26.429, 2.175  L 25.932, 2.228  L 25.435, 2.284  L 24.939, 2.342  L 24.443, 2.403  L 23.948, 2.467  L 23.452, 2.533  L 22.957, 2.601  L 22.463, 2.671  L 21.968, 2.744  L 21.474, 2.819  L 20.980, 2.896  L 20.487, 2.975  L 19.994, 3.057  L 19.501, 3.140  L 19.009, 3.225  L 18.517, 3.312  L 18.025, 3.400  L 17.534, 3.491  L 17.042, 3.583  L 16.552, 3.677  L 16.061, 3.772  L 15.571, 3.869  L 15.081, 3.968  L 14.591, 4.068  L 14.102, 4.169  L 13.613, 4.272  L 13.124, 4.376  L 12.636, 4.481  L 12.148, 4.588  L 11.660, 4.695  L 11.172, 4.804  L 10.684, 4.914  L 10.197, 5.024  L 9.710, 5.136  L 9.223, 5.249  L 8.737, 5.362  L 8.250, 5.476  L 7.764, 5.592  L 7.278, 5.707  L 6.792, 5.824  L 6.306, 5.941  L 5.821, 6.059  L 5.335, 6.177  L 4.850, 6.296  L 4.364, 6.415  L 3.879, 6.534  L 3.394, 6.654  L 2.909, 6.774  L 2.424, 6.895  L 1.939, 7.016  L 1.454, 7.137  L 0.970, 7.258  L 0.485, 7.379  L 0.000, 7.500  L -0.485, 7.621  L -0.970, 7.742  L -1.454, 7.863  L -1.939, 7.984  L -2.424, 8.105  L -2.909, 8.226  L -3.394, 8.346  L -3.879, 8.466  L -4.364, 8.585  L -4.850, 8.704  L -5.335, 8.823  L -5.821, 8.941  L -6.306, 9.059  L -6.792, 9.176  L -7.278, 9.293  L -7.764, 9.408  L -8.250, 9.524  L -8.737, 9.638  L -9.223, 9.751  L -9.710, 9.864  L -10.197, 9.976  L -10.684, 10.086  L -11.172, 10.196  L -11.660, 10.305  L -12.148, 10.412  L -12.636, 10.519  L -13.124, 10.624  L -13.613, 10.728  L -14.102, 10.831  L -14.591, 10.932  L -15.081, 11.032  L -15.571, 11.131  L -16.061, 11.228  L -16.552, 11.323  L -17.042, 11.417  L -17.534, 11.509  L -18.025, 11.600  L -18.517, 11.688  L -19.009, 11.775  L -19.501, 11.860  L -19.994, 11.943  L -20.487, 12.025  L -20.980, 12.104  L -21.474, 12.181  L -21.968, 12.256  L -22.463, 12.329  L -22.957, 12.399  L -23.452, 12.467  L -23.948, 12.533  L -24.443, 12.597  L -24.939, 12.658  L -25.435, 12.716  L -25.932, 12.772  L -26.429, 12.825  L -26.926, 12.876  L -27.423, 12.924  L -27.921, 12.969  L -28.419, 13.011  L -28.917, 13.050  L -29.416, 13.086  L -29.914, 13.120  L -30.413, 13.150  L -30.912, 13.177  L -31.411, 13.201  L -31.910, 13.221  L -32.410, 13.238  L -32.909, 13.252  L -33.409, 13.263  L -33.908, 13.270  L -34.408, 13.273  L -34.908, 13.273  L -35.407, 13.269  L -35.907, 13.262  L -36.407, 13.251  L -36.906, 13.236  L -37.405, 13.217  L -37.905, 13.194  L -38.404, 13.168  L -38.902, 13.137  L -39.401, 13.103  L -39.899, 13.064  L -40.397, 13.021  L -40.894, 12.974  L -41.392, 12.923  L -41.888, 12.868  L -42.384, 12.809  L -42.880, 12.745  L -43.375, 12.677  L -43.869, 12.604  L -44.363, 12.528  L -44.856, 12.446  L -45.349, 12.361  L -45.840, 12.271  L -46.331, 12.176  L -46.821, 12.077  L -47.309, 11.974  L -47.797, 11.866  L -48.284, 11.754  L -48.770, 11.637  L -49.255, 11.516  L -49.738, 11.390  L -50.221, 11.259  L -50.702, 11.124  L -51.182, 10.985  L -51.660, 10.841  L -52.137, 10.692  L -52.613, 10.539  L -53.087, 10.382  L -53.560, 10.220  L -54.031, 10.054  L -54.501, 9.883  L -54.969, 9.708  L -55.435, 9.529  L -55.900, 9.345  L -56.363, 9.157  L -56.824, 8.964  L -57.283, 8.767  L -57.741, 8.567  L -58.197, 8.361  L -58.650, 8.152  L -59.102, 7.939  L -59.552, 7.721  L -60.000, 7.500  L -60.000, 7.000  L -60.000, 6.500  L -60.000, 6.000  L -60.000, 5.500  L -60.000, 5.000  L -60.000, 4.500  L -60.000, 4.000  L -60.000, 3.500  L -60.000, 3.000  L -60.000, 2.500  L -60.000, 2.000  L -60.000, 1.500  L -60.000, 1.000  L -60.000, 0.500  L -60.000, 0.000  L -60.000, -0.500  L -60.000, -1.000  L -60.000, -1.500  L -60.000, -2.000  L -60.000, -2.500  L -60.000, -3.000  L -60.000, -3.500  L -60.000, -4.000  L -60.000, -4.500  L -60.000, -5.000  L -60.000, -5.500  L -60.000, -6.000  L -60.000, -6.500  L -60.000, -7.000  L -60.000, -7.500  Z"/>
                <path class="path_center_line" d="M -60.000, 0.000  L -59.552, 0.221  L -59.102, 0.439  L -58.650, 0.652  L -58.197, 0.861  L -57.741, 1.067  L -57.283, 1.267  L -56.824, 1.464  L -56.363, 1.657  L -55.900, 1.845  L -55.435, 2.029  L -54.969, 2.208  L -54.501, 2.383  L -54.031, 2.554  L -53.560, 2.720  L -53.087, 2.882  L -52.613, 3.039  L -52.137, 3.192  L -51.660, 3.341  L -51.182, 3.485  L -50.702, 3.624  L -50.221, 3.759  L -49.738, 3.890  L -49.255, 4.016  L -48.770, 4.137  L -48.284, 4.254  L -47.797, 4.366  L -47.309, 4.474  L -46.821, 4.577  L -46.331, 4.676  L -45.840, 4.771  L -45.349, 4.861  L -44.856, 4.946  L -44.363, 5.028  L -43.869, 5.104  L -43.375, 5.177  L -42.880, 5.245  L -42.384, 5.309  L -41.888, 5.368  L -41.392, 5.423  L -40.894, 5.474  L -40.397, 5.521  L -39.899, 5.564  L -39.401, 5.603  L -38.902, 5.637  L -38.404, 5.668  L -37.905, 5.694  L -37.405, 5.717  L -36.906, 5.736  L -36.407, 5.751  L -35.907, 5.762  L -35.407, 5.769  L -34.908, 5.773  L -34.408, 5.773  L -33.908, 5.770  L -33.409, 5.763  L -32.909, 5.752  L -32.410, 5.738  L -31.910, 5.721  L -31.411, 5.701  L -30.912, 5.677  L -30.413, 5.650  L -29.914, 5.620  L -29.416, 5.586  L -28.917, 5.550  L -28.419, 5.511  L -27.921, 5.469  L -27.423, 5.424  L -26.926, 5.376  L -26.429, 5.325  L -25.932, 5.272  L -25.435, 5.216  L -24.939, 5.158  L -24.443, 5.097  L -23.948, 5.033  L -23.452, 4.967  L -22.957, 4.899  L -22.463, 4.829  L -21.968, 4.756  L -21.474, 4.681  L -20.980, 4.604  L -20.487, 4.525  L -19.994, 4.443  L -19.501, 4.360  L -19.009, 4.275  L -18.517, 4.188  L -18.025, 4.100  L -17.534, 4.009  L -17.042, 3.917  L -16.552, 3.823  L -16.061, 3.728  L -15.571, 3.631  L -15.081, 3.532  L -14.591, 3.432  L -14.102, 3.331  L -13.613, 3.228  L -13.124, 3.124  L -12.636, 3.019  L -12.148, 2.912  L -11.660, 2.805  L -11.172, 2.696  L -10.684, 2.586  L -10.197, 2.476  L -9.710, 2.364  L -9.223, 2.251  L -8.737, 2.138  L -8.250, 2.024  L -7.764, 1.908  L -7.278, 1.793  L -6.792, 1.676  L -6.306, 1.559  L -5.821, 1.441  L -5.335, 1.323  L -4.850, 1.204  L -4.364, 1.085  L -3.879, 0.966  L -3.394, 0.846  L -2.909, 0.726  L -2.424, 0.605  L -1.939, 0.484  L -1.454, 0.363  L -0.970, 0.242  L -0.485, 0.121  L 0.000, 0.000  L 0.485, -0.121  L 0.970, -0.242  L 1.454, -0.363  L 1.939, -0.484  L 2.424, -0.605  L 2.909, -0.726  L 3.394, -0.846  L 3.879, -0.966  L 4.364, -1.085  L 4.850, -1.204  L 5.335, -1.323  L 5.821, -1.441  L 6.306, -1.559  L 6.792, -1.676  L 7.278, -1.793  L 7.764, -1.908  L 8.250, -2.024  L 8.737, -2.138  L 9.223, -2.251  L 9.710, -2.364  L 10.197, -2.476  L 10.684, -2.586  L 11.172, -2.696  L 11.660, -2.805  L 12.148, -2.912  L 12.636, -3.019  L 13.124, -3.124  L 13.613, -3.228  L 14.102, -3.331  L 14.591, -3.432  L 15.081, -3.532  L 15.571, -3.631  L 16.061, -3.728  L 16.552, -3.823  L 17.042, -3.917  L 17.534, -4.009  L 18.025, -4.100  L 18.517, -4.188  L 19.009, -4.275  L 19.501, -4.360  L 19.994, -4.443  L 20.487, -4.525  L 20.980, -4.604  L 21.474, -4.681  L 21.968, -4.756  L 22.463, -4.829  L 22.957, -4.899  L 23.452, -4.967  L 23.948, -5.033  L 24.443, -5.097  L 24.939, -5.158  L 25.435, -5.216  L 25.932, -5.272  L 26.429, -5.325  L 26.926, -5.376  L 27.423, -5.424  L 27.921, -5.469  L 28.419, -5.511  L 28.917, -5.550  L 29.416, -5.586  L 29.914, -5.620  L 30.413, -5.650  L 30.912, -5.677  L 31.411, -5.701  L 31.910, -5.721  L 32.410, -5.738  L 32.909, -5.752  L 33.409, -5.763  L 33.908, -5.770  L 34.408, -5.773  L 34.908, -5.773  L 35.407, -5.769  L 35.907, -5.762  L 36.407, -5.751  L 36.906, -5.736  L 37.405, -5.717  L 37.905, -5.694  L 38.404, -5.668  L 38.902, -5.637  L 39.401, -5.603  L 39.899, -5.564  L 40.397, -5.521  L 40.894, -5.474  L 41.392, -5.423  L 41.888, -5.368  L 42.384, -5.309  L 42.880, -5.245  L 43.375, -5.177  L 43.869, -5.104  L 44.363, -5.028  L 44.856, -4.946  L 45.349, -4.861  L 45.840, -4.771  L 46.331, -4.676  L 46.821, -4.577  L 47.309, -4.474  L 47.797, -4.366  L 48.284, -4.254  L 48.770, -4.137  L 49.255, -4.016  L 49.738, -3.890  L 50.221, -3.759  L 50.702, -3.624  L 51.182, -3.485  L 51.660, -3.341  L 52.137, -3.192  L 52.613, -3.039  L 53.087, -2.882  L 53.560, -2.720  L 54.031, -2.554  L 54.501, -2.383  L 54.969, -2.208  L 55.435, -2.029  L 55.900, -1.845  L 56.363, -1.657  L 56.824, -1.464  L 57.283, -1.267  L 57.741, -1.067  L 58.197, -0.861  L 58.650, -0.652  L 59.102, -0.439  L 59.552, -0.221  L 60.000, 0.000 "/>
            </g>
            <path class="line_0" d="M -60.000, 0.000  L -60.000, -7.500 "/>
            <path class="line_0" d="M -48.479, 4.208  L -48.479, -3.292 "/>
            <path class="line_0" d="M -36.307, 5.753  L -36.307, -1.747 "/>
            <path class="line_0" d="M -24.047, 5.046  L -24.047, -2.454 "/>
            <path class="line_0" d="M -11.952, 2.870  L -11.952, -4.630 "/>
            <path class="line_0" d="M 0.000, 0.000  L 0.000, -7.500 "/>
            <path class="line_0" d="M 11.952, -2.870  L 11.952, -10.370 "/>
            <path class="line_0" d="M 24.047, -5.046  L 24.047, -12.546 "/>
            <path class="line_0" d="M 36.307, -5.753  L 36.307, -13.253 "/>
            <path class="line_0" d="M 48.479, -4.208  L 48.479, -11.708 "/>
            <path class="line_0" d="M 60.000, 0.000  L 60.000, -7.500 "/>
        </g>
    </g>
</svg>
