<?xml version="1.0" encoding="utf-8" ?>
<svg xmlns="http://www.w3.org/2000/svg" xmlns:ev="http://www.w3.org/2001/xml-events" xmlns:xlink="http://www.w3.org/1999/xlink" baseProfile="full" height="40mm" version="1.1" viewBox="0,0,140,40" width="140mm">
    <defs>
        <style type="text/css"><![CDATA[
.stitch_line {
    stroke-width: 0.3;
    stroke-linejoin: round;
    stroke-linecap: round;
    fill: none;
}
.path_center_line {
    fill: none;
    stroke:#808080;
    stroke-width: 0.2;
    stroke-linejoin: round;
    stroke-linecap: round;
}
.path_contour {
    fill: #808080;
    fill-opacity: 0.3;
    stroke: #808080;
    stroke-opacity: 1;
    stroke-width: 0.3;
}
.text{
    text-anchor: middle;
    dominant-baseline: middle;
    font-family: sans-serif;
    font-size: 1.5mm;
}
.smalltext{
    text-anchor: middle;
    dominant-baseline: middle;
    font-family: sans-serif;
    font-size: 1mm;
}
.line_0 {
    fill: none;
    stroke:#3bb2d0;
    stroke-width:0.8;
}
]]></style>
    </defs>
    <g>
        <g transform="translate(70.0,20.0)">
            <g>
                <path class="path_contour" d="M -56.646, -6.708  L -56.258, -6.517  L -55.869, -6.329  L -55.479, -6.144  L -55.087, -5.964  L -54.694, -5.787  L -54.300, -5.613  L -53.904, -5.444  L -53.507, -5.278  L -53.108, -5.116  L -52.709, -4.958  L -52.308, -4.804  L -51.906, -4.654  L -51.502, -4.507  L -51.097, -4.364  L -50.691, -4.225  L -50.284, -4.090  L -49.875, -3.958  L -49.466, -3.831  L -49.055, -3.707  L -48.642, -3.588  L -48.229, -3.472  L -47.814, -3.359  L -47.399, -3.251  L -46.982, -3.147  L -46.564, -3.046  L -46.144, -2.949  L -45.724, -2.856  L -45.302, -2.767  L -44.880, -2.682  L -44.456, -2.600  L -44.031, -2.523  L -43.605, -2.449  L -43.178, -2.378  L -42.750, -2.312  L -42.321, -2.249  L -41.891, -2.190  L -41.459, -2.134  L -41.027, -2.082  L -40.594, -2.034  L -40.160, -1.990  L -39.725, -1.949  L -39.289, -1.911  L -38.852, -1.877  L -38.414, -1.847  L -37.975, -1.820  L -37.535, -1.797  L -37.095, -1.777  L -36.653, -1.760  L -36.211, -1.747  L -35.768, -1.737  L -35.324, -1.730  L -34.879, -1.727  L -34.433, -1.727  L -33.987, -1.730  L -33.540, -1.736  L -33.092, -1.746  L -32.643, -1.758  L -32.194, -1.774  L -31.744, -1.792  L -31.293, -1.814  L -30.842, -1.838  L -30.390, -1.865  L -29.937, -1.895  L -29.484, -1.928  L -29.030, -1.964  L -28.575, -2.003  L -28.120, -2.044  L -27.665, -2.088  L -27.208, -2.134  L -26.751, -2.183  L -26.294, -2.235  L -25.836, -2.289  L -25.377, -2.345  L -24.918, -2.404  L -24.459, -2.465  L -23.999, -2.528  L -23.538, -2.594  L -23.077, -2.662  L -22.615, -2.732  L -22.153, -2.804  L -21.690, -2.878  L -21.227, -2.954  L -20.764, -3.033  L -20.300, -3.113  L -19.835, -3.195  L -19.370, -3.279  L -18.905, -3.365  L -18.439, -3.452  L -17.972, -3.541  L -17.506, -3.632  L -17.038, -3.725  L -16.570, -3.819  L -16.102, -3.914  L -15.633, -4.011  L -15.164, -4.110  L -14.695, -4.210  L -14.225, -4.311  L -13.754, -4.414  L -13.283, -4.517  L -12.811, -4.622  L -12.339, -4.729  L -11.867, -4.836  L -11.394, -4.945  L -10.920, -5.054  L -10.446, -5.165  L -9.972, -5.276  L -9.497, -5.389  L -9.021, -5.502  L -8.545, -5.616  L -8.068, -5.731  L -7.591, -5.847  L -7.113, -5.963  L -6.635, -6.080  L -6.156, -6.198  L -5.677, -6.316  L -5.197, -6.434  L -4.716, -6.554  L -4.235, -6.673  L -3.753, -6.793  L -3.270, -6.913  L -2.787, -7.034  L -2.303, -7.155  L -1.819, -7.276  L -1.334, -7.397  L -0.848, -7.519  L -0.362, -7.640  L 0.126, -7.762  L 0.613, -7.883  L 1.102, -8.005  L 1.592, -8.126  L 2.082, -8.247  L 2.573, -8.368  L 3.064, -8.489  L 3.557, -8.609  L 4.050, -8.729  L 4.544, -8.849  L 5.039, -8.968  L 5.535, -9.087  L 6.031, -9.206  L 6.529, -9.323  L 7.027, -9.440  L 7.526, -9.557  L 8.027, -9.673  L 8.528, -9.787  L 9.030, -9.902  L 9.533, -10.015  L 10.037, -10.127  L 10.541, -10.238  L 11.047, -10.349  L 11.554, -10.458  L 12.062, -10.566  L 12.571, -10.673  L 13.081, -10.778  L 13.592, -10.883  L 14.104, -10.986  L 14.617, -11.087  L 15.131, -11.187  L 15.646, -11.286  L 16.162, -11.383  L 16.680, -11.478  L 17.198, -11.572  L 17.718, -11.663  L 18.239, -11.753  L 18.761, -11.841  L 19.284, -11.927  L 19.808, -12.012  L 20.333, -12.094  L 20.860, -12.173  L 21.387, -12.251  L 21.916, -12.326  L 22.446, -12.399  L 22.977, -12.470  L 23.509, -12.538  L 24.043, -12.604  L 24.577, -12.667  L 25.113, -12.727  L 25.650, -12.785  L 26.187, -12.839  L 26.727, -12.891  L 27.267, -12.940  L 27.808, -12.986  L 28.350, -13.029  L 28.894, -13.068  L 29.438, -13.104  L 29.984, -13.137  L 30.530, -13.167  L 31.078, -13.193  L 31.626, -13.216  L 32.176, -13.235  L 32.726, -13.250  L 33.278, -13.262  L 33.830, -13.269  L 34.383, -13.273  L 34.937, -13.273  L 35.491, -13.269  L 36.047, -13.260  L 36.603, -13.248  L 37.159, -13.231  L 37.716, -13.210  L 38.274, -13.185  L 38.832, -13.155  L 39.391, -13.121  L 39.950, -13.082  L 40.509, -13.039  L 41.069, -12.991  L 41.629, -12.938  L 42.189, -12.881  L 42.749, -12.818  L 43.309, -12.751  L 43.869, -12.679  L 44.429, -12.602  L 44.989, -12.520  L 45.548, -12.433  L 46.107, -12.341  L 46.666, -12.244  L 47.224, -12.142  L 47.782, -12.035  L 48.339, -11.922  L 48.895, -11.805  L 49.450, -11.682  L 50.005, -11.554  L 50.558, -11.421  L 51.111, -11.282  L 51.662, -11.139  L 52.212, -10.990  L 52.761, -10.836  L 53.309, -10.677  L 53.855, -10.513  L 54.399, -10.343  L 54.942, -10.169  L 55.483, -9.989  L 56.023, -9.804  L 56.560, -9.615  L 57.096, -9.420  L 57.630, -9.220  L 58.162, -9.015  L 58.691, -8.806  L 59.219, -8.592  L 59.744, -8.372  L 60.267, -8.148  L 60.788, -7.920  L 61.306, -7.687  L 61.822, -7.449  L 62.335, -7.206  L 62.846, -6.959  L 63.354, -6.708  L 63.130, -6.261  L 62.907, -5.814  L 62.683, -5.367  L 62.460, -4.919  L 62.236, -4.472  L 62.012, -4.025  L 61.789, -3.578  L 61.565, -3.130  L 61.342, -2.683  L 61.118, -2.236  L 60.894, -1.789  L 60.671, -1.342  L 60.447, -0.894  L 60.224, -0.447  L 60.000, 0.000  L 59.776, 0.447  L 59.553, 0.894  L 59.329, 1.342  L 59.106, 1.789  L 58.882, 2.236  L 58.658, 2.683  L 58.435, 3.130  L 58.211, 3.578  L 57.988, 4.025  L 57.764, 4.472  L 57.540, 4.919  L 57.317, 5.367  L 57.093, 5.814  L 56.870, 6.261  L 56.646, 6.708  L 56.258, 6.517  L 55.869, 6.329  L 55.479, 6.144  L 55.087, 5.964  L 54.694, 5.787  L 54.300, 5.613  L 53.904, 5.444  L 53.507, 5.278  L 53.108, 5.116  L 52.709, 4.958  L 52.308, 4.804  L 51.906, 4.654  L 51.502, 4.507  L 51.097, 4.364  L 50.691, 4.225  L 50.284, 4.090  L 49.875, 3.958  L 49.466, 3.831  L 49.055, 3.707  L 48.642, 3.588  L 48.229, 3.472  L 47.814, 3.359  L 47.399, 3.251  L 46.982, 3.147  L 46.564, 3.046  L 46.144, 2.949  L 45.724, 2.856  L 45.302, 2.767  L 44.880, 2.682  L 44.456, 2.600  L 44.031, 2.523  L 43.605, 2.449  L 43.178, 2.378  L 42.750, 2.312  L 42.321, 2.249  L 41.891, 2.190  L 41.459, 2.134  L 41.027, 2.082  L 40.594, 2.034  L 40.160, 1.990  L 39.725, 1.949  L 39.289, 1.911  L 38.852, 1.877  L 38.414, 1.847  L 37.975, 1.820  L 37.535, 1.797  L 37.095, 1.777  L 36.653, 1.760  L 36.211, 1.747  L 35.768, 1.737  L 35.324, 1.730  L 34.879, 1.727  L 34.433, 1.727  L 33.987, 1.730  L 33.540, 1.736  L 33.092, 1.746  L 32.643, 1.758  L 32.194, 1.774  L 31.744, 1.792  L 31.293, 1.814  L 30.842, 1.838  L 30.390, 1.865  L 29.937, 1.895  L 29.484, 1.928  L 29.030, 1.964  L 28.575, 2.003  L 28.120, 2.044  L 27.665, 2.088  L 27.208, 2.134  L 26.751, 2.183  L 26.294, 2.235  L 25.836, 2.289  L 25.377, 2.345  L 24.918, 2.404  L 24.459, 2.465  L 23.999, 2.528  L 23.538, 2.594  L 23.077, 2.662  L 22.615, 2.732  L 22.153, 2.804  L 21.690, 2.878  L 21.227, 2.954  L 20.764, 3.033  L 20.300, 3.113  L 19.835, 3.195  L 19.370, 3.279  L 18.905, 3.365  L 18.439, 3.452  L 17.972, 3.541  L 17.506, 3.632  L 17.038, 3.725  L 16.570, 3.819  L 16.102, 3.914  L 15.633, 4.011  L 15.164, 4.110  L 14.695, 4.210  L 14.225, 4.311  L 13.754, 4.414  L 13.283, 4.517  L 12.811, 4.622  L 12.339, 4.729  L 11.867, 4.836  L 11.394, 4.945  L 10.920, 5.054  L 10.446, 5.165  L 9.972, 5.276  L 9.497, 5.389  L 9.021, 5.502  L 8.545, 5.616  L 8.068, 5.731  L 7.591, 5.847  L 7.113, 5.963  L 6.635, 6.080  L 6.156, 6.198  L 5.677, 6.316  L 5.197, 6.434  L 4.716, 6.554  L 4.235, 6.673  L 3.753, 6.793  L 3.270, 6.913  L 2.787, 7.034  L 2.303, 7.155  L 1.819, 7.276  L 1.334, 7.397  L 0.848, 7.519  L 0.362, 7.640  L -0.126, 7.762  L -0.613, 7.883  L -1.102, 8.005  L -1.592, 8.126  L -2.082, 8.247  L -2.573, 8.368  L -3.064, 8.489  L -3.557, 8.609  L -4.050, 8.729  L -4.544, 8.849  L -5.039, 8.968  L -5.535, 9.087  L -6.031, 9.206  L -6.529, 9.323  L -7.027, 9.440  L -7.526, 9.557  L -8.027, 9.673  L -8.528, 9.787  L -9.030, 9.902  L -9.533, 10.015  L -10.037, 10.127  L -10.541, 10.238  L -11.047, 10.349  L -11.554, 10.458  L -12.062, 10.566  L -12.571, 10.673  L -13.081, 10.778  L -13.592, 10.883  L -14.104, 10.986  L -14.617, 11.087  L -15.131, 11.187  L -15.646, 11.286  L -16.162, 11.383  L -16.680, 11.478  L -17.198, 11.572  L -17.718, 11.663  L -18.239, 11.753  L -18.761, 11.841  L -19.284, 11.927  L -19.808, 12.012  L -20.333, 12.094  L -20.860, 12.173  L -21.387, 12.251  L -21.916, 12.326  L -22.446, 12.399  L -22.977, 12.470  L -23.509, 12.538  L -24.043, 12.604  L -24.577, 12.667  L -25.113, 12.727  L -25.650, 12.785  L -26.187, 12.839  L -26.727, 12.891  L -27.267, 12.940  L -27.808, 12.986  L -28.350, 13.029  L -28.894, 13.068  L -29.438, 13.104  L -29.984, 13.137  L -30.530, 13.167  L -31.078, 13.193  L -31.626, 13.216  L -32.176, 13.235  L -32.726, 13.250  L -33.278, 13.262  L -33.830, 13.269  L -34.383, 13.273  L -34.937, 13.273  L -35.491, 13.269  L -36.047, 13.260  L -36.603, 13.248  L -37.159, 13.231  L -37.716, 13.210  L -38.274, 13.185  L -38.832, 13.155  L -39.391, 13.121  L -39.950, 13.082  L -40.509, 13.039  L -41.069, 12.991  L -41.629, 12.938  L -42.189, 12.881  L -42.749, 12.818  L -43.309, 12.751  L -43.869, 12.679  L -44.429, 12.602  L -44.989, 12.520  L -45.548, 12.433  L -46.107, 12.341  L -46.666, 12.244  L -47.224, 12.142  L -47.782, 12.035  L -48.339, 11.922  L -48.895, 11.805  L -49.450, 11.682  L -50.005, 11.554  L -50.558, 11.421  L -51.111, 11.282  L -51.662, 11.139  L -52.212, 10.990  L -52.761, 10.836  L -53.309, 10.677  L -53.855, 10.513  L -54.399, 10.343  L -54.942, 10.169  L -55.483, 9.989  L -56.023, 9.804  L -56.560, 9.615  L -57.096, 9.420  L -57.630, 9.220  L -58.162, 9.015  L -58.691, 8.806  L -59.219, 8.592  L -59.744, 8.372  L -60.267, 8.148  L -60.788, 7.920  L -61.306, 7.687  L -61.822, 7.449  L -62.335, 7.206  L -62.846, 6.959  L -63.354, 6.708  L -63.130, 6.261  L -62.907, 5.814  L -62.683, 5.367  L -62.460, 4.919  L -62.236, 4.472  L -62.012, 4.025  L -61.789, 3.578  L -61.565, 3.130  L -61.342, 2.683  L -61.118, 2.236  L -60.894, 1.789  L -60.671, 1.342  L -60.447, 0.894  L -60.224, 0.447  L -60.000, 0.000  L -59.776, -0.447  L -59.553, -0.894  L -59.329, -1.342  L -59.106, -1.789  L -58.882, -2.236  L -58.658, -2.683  L -58.435, -3.130  L -58.211, -3.578  L -57.988, -4.025  L -57.764, -4.472  L -57.540, -4.919  L -57.317, -5.367  L -57.093, -5.814  L -56.870, -6.261  L -56.646, -6.708  Z"/>
                <path class="path_center_line" d="M -60.000, 0.000  L -59.552, 0.221  L -59.102, 0.439  L -58.650, 0.652  L -58.197, 0.861  L -57.741, 1.067  L -57.283, 1.267  L -56.824, 1.464  L -56.363, 1.657  L -55.900, 1.845  L -55.435, 2.029  L -54.969, 2.208  L -54.501, 2.383  L -54.031, 2.554  L -53.560, 2.720  L -53.087, 2.882  L -52.613, 3.039  L -52.137, 3.192  L -51.660, 3.341  L -51.182, 3.485  L -50.702, 3.624  L -50.221, 3.759  L -49.738, 3.890  L -49.255, 4.016  L -48.770, 4.137  L -48.284, 4.254  L -47.797, 4.366  L -47.309, 4.474  L -46.821, 4.577  L -46.331, 4.676  L -45.840, 4.771  L -45.349, 4.861  L -44.856, 4.946  L -44.363, 5.028  L -43.869, 5.104  L -43.375, 5.177  L -42.880, 5.245  L -42.384, 5.309  L -41.888, 5.368  L -41.392, 5.423  L -40.894, 5.474  L -40.397, 5.521  L -39.899, 5.564  L -39.401, 5.603  L -38.902, 5.637  L -38.404, 5.668  L -37.905, 5.694  L -37.405, 5.717  L -36.906, 5.736  L -36.407, 5.751  L -35.907, 5.762  L -35.407, 5.769  L -34.908, 5.773  L -34.408, 5.773  L -33.908, 5.770  L -33.409, 5.763  L -32.909, 5.752  L -32.410, 5.738  L -31.910, 5.721  L -31.411, 5.701  L -30.912, 5.677  L -30.413, 5.650  L -29.914, 5.620  L -29.416, 5.586  L -28.917, 5.550  L -28.419, 5.511  L -27.921, 5.469  L -27.423, 5.424  L -26.926, 5.376  L -26.429, 5.325  L -25.932, 5.272  L -25.435, 5.216  L -24.939, 5.158  L -24.443, 5.097  L -23.948, 5.033  L -23.452, 4.967  L -22.957, 4.899  L -22.463, 4.829  L -21.968, 4.756  L -21.474, 4.681  L -20.980, 4.604  L -20.487, 4.525  L -19.994, 4.443  L -19.501, 4.360  L -19.009, 4.275  L -18.517, 4.188  L -18.025, 4.100  L -17.534, 4.009  L -17.042, 3.917  L -16.552, 3.823  L -16.061, 3.728  L -15.571, 3.631  L -15.081, 3.532  L -14.591, 3.432  L -14.102, 3.331  L -13.613, 3.228  L -13.124, 3.124  L -12.636, 3.019  L -12.148, 2.912  L -11.660, 2.805  L -11.172, 2.696  L -10.684, 2.586  L -10.197, 2.476  L -9.710, 2.364  L -9.223, 2.251  L -8.737, 2.138  L -8.250, 2.024  L -7.764, 1.908  L -7.278, 1.793  L -6.792, 1.676  L -6.306, 1.559  L -5.821, 1.441  L -5.335, 1.323  L -4.850, 1.204  L -4.364, 1.085  L -3.879, 0.966  L -3.394, 0.846  L -2.909, 0.726  L -2.424, 0.605  L -1.939, 0.484  L -1.454, 0.363  L -0.970, 0.242  L -0.485, 0.121  L 0.000, 0.000  L 0.485, -0.121  L 0.970, -0.242  L 1.454, -0.363  L 1.939, -0.484  L 2.424, -0.605  L 2.909, -0.726  L 3.394, -0.846  L 3.879, -0.966  L 4.364, -1.085  L 4.850, -1.204  L 5.335, -1.323  L 5.821, -1.441  L 6.306, -1.559  L 6.792, -1.676  L 7.278, -1.793  L 7.764, -1.908  L 8.250, -2.024  L 8.737, -2.138  L 9.223, -2.251  L 9.710, -2.364  L 10.197, -2.476  L 10.684, -2.586  L 11.172, -2.696  L 11.660, -2.805  L 12.148, -2.912  L 12.636, -3.019  L 13.124, -3.124  L 13.613, -3.228  L 14.102, -3.331  L 14.591, -3.432  L 15.081, -3.532  L 15.571, -3.631  L 16.061, -3.728  L 16.552, -3.823  L 17.042, -3.917  L 17.534, -4.009  L 18.025, -4.100  L 18.517, -4.188  L 19.009, -4.275  L 19.501, -4.360  L 19.994, -4.443  L 20.487, -4.525  L 20.980, -4.604  L 21.474, -4.681  L 21.968, -4.756  L 22.463, -4.829  L 22.957, -4.899  L 23.452, -4.967  L 23.948, -5.033  L 24.443, -5.097  L 24.939, -5.158  L 25.435, -5.216  L 25.932, -5.272  L 26.429, -5.325  L 26.926, -5.376  L 27.423, -5.424  L 27.921, -5.469  L 28.419, -5.511  L 28.917, -5.550  L 29.416, -5.586  L 29.914, -5.620  L 30.413, -5.650  L 30.912, -5.677  L 31.411, -5.701  L 31.910, -5.721  L 32.410, -5.738  L 32.909, -5.752  L 33.409, -5.763  L 33.908, -5.770  L 34.408, -5.773  L 34.908, -5.773  L 35.407, -5.769  L 35.907, -5.762  L 36.407, -5.751  L 36.906, -5.736  L 37.405, -5.717  L 37.905, -5.694  L 38.404, -5.668  L 38.902, -5.637  L 39.401, -5.603  L 39.899, -5.564  L 40.397, -5.521  L 40.894, -5.474  L 41.392, -5.423  L 41.888, -5.368  L 42.384, -5.309  L 42.880, -5.245  L 43.375, -5.177  L 43.869, -5.104  L 44.363, -5.028  L 44.856, -4.946  L 45.349, -4.861  L 45.840, -4.771  L 46.331, -4.676  L 46.821, -4.577  L 47.309, -4.474  L 47.797, -4.366  L 48.284, -4.254  L 48.770, -4.137  L 49.255, -4.016  L 49.738, -3.890  L 50.221, -3.759  L 50.702, -3.624  L 51.182, -3.485  L 51.660, -3.341  L 52.137, -3.192  L 52.613, -3.039  L 53.087, -2.882  L 53.560, -2.720  L 54.031, -2.554  L 54.501, -2.383  L 54.969, -2.208  L 55.435, -2.029  L 55.900, -1.845  L 56.363, -1.657  L 56.824, -1.464  L 57.283, -1.267  L 57.741, -1.067  L 58.197, -0.861  L 58.650, -0.652  L 59.102, -0.439  L 59.552, -0.221  L 60.000, 0.000 "/>
            </g>
            <path class="line_0" d="M -56.646, -6.708  L -63.354, 6.708 "/>
            <path class="line_0" d="M -46.731, -3.086  L -50.226, 11.501 "/>
            <path class="line_0" d="M -36.122, -1.745  L -36.491, 13.251 "/>
            <path class="line_0" d="M -25.010, -2.392  L -23.083, 12.484 "/>
            <path class="line_0" d="M -13.566, -4.455  L -10.339, 10.194 "/>
            <path class="line_0" d="M -1.819, -7.276  L 1.819, 7.276 "/>
            <path class="line_0" d="M 10.339, -10.194  L 13.566, 4.455 "/>
            <path class="line_0" d="M 23.083, -12.484  L 25.010, 2.392 "/>
            <path class="line_0" d="M 36.491, -13.251  L 36.122, 1.745 "/>
            <path class="line_0" d="M 50.226, -11.501  L 46.731, 3.086 "/>
            <path class="line_0" d="M 63.354, -6.708  L 56.646, 6.708 "/>
        </g>
    </g>
</svg>
