<?xml version="1.0" encoding="utf-8" ?>
<svg xmlns="http://www.w3.org/2000/svg" xmlns:ev="http://www.w3.org/2001/xml-events" xmlns:xlink="http://www.w3.org/1999/xlink" baseProfile="full" height="40mm" version="1.1" viewBox="0,0,140,40" width="140mm">
    <defs>
        <style type="text/css"><![CDATA[
.stitch_line {
    stroke-width: 0.3;
    stroke-linejoin: round;
    stroke-linecap: round;
    fill: none;
}
.path_center_line {
    fill: none;
    stroke:#808080;
    stroke-width: 0.2;
    stroke-linejoin: round;
    stroke-linecap: round;
}
.path_contour {
    fill: #808080;
    fill-opacity: 0.3;
    stroke: #808080;
    stroke-opacity: 1;
    stroke-width: 0.3;
}
.text{
    text-anchor: middle;
    dominant-baseline: middle;
    font-family: sans-serif;
    font-size: 1.5mm;
}
.smalltext{
    text-anchor: middle;
    dominant-baseline: middle;
    font-family: sans-serif;
    font-size: 1mm;
}
.line_0 {
    fill: none;
    stroke:#3bb2d0;
    stroke-width:0.8;
}
.line_1 {
    fill: none;
    stroke:#3887be;
    stroke-width:0.2;
}
]]></style>
    </defs>
    <g>
        <g transform="translate(70.0,20.0)">
            <g>
                <path class="path_contour" d="M -60.000, -11.250  L -59.500, -11.250  L -59.000, -11.250  L -58.500, -11.250  L -58.000, -11.250  L -57.500, -11.250  L -57.000, -11.250  L -56.500, -11.250  L -56.000, -11.250  L -55.500, -11.250  L -55.000, -11.250  L -54.500, -11.250  L -54.000, -11.250  L -53.500, -11.250  L -53.000, -11.250  L -52.500, -11.250  L -52.000, -11.250  L -51.500, -11.250  L -51.000, -11.250  L -50.500, -11.250  L -50.000, -11.250  L -49.500, -11.250  L -49.000, -11.250  L -48.500, -11.250  L -48.000, -11.250  L -47.500, -11.250  L -47.000, -11.250  L -46.500, -11.250  L -46.000, -11.250  L -45.500, -11.250  L -45.000, -11.250  L -44.500, -11.250  L -44.000, -11.250  L -43.500, -11.250  L -43.000, -11.250  L -42.500, -11.250  L -42.000, -11.250  L -41.500, -11.250  L -41.000, -11.250  L -40.500, -11.250  L -40.000, -11.250  L -39.500, -11.250  L -39.000, -11.250  L -38.500, -11.250  L -38.000, -11.250  L -37.500, -11.250  L -37.000, -11.250  L -36.500, -11.250  L -36.000, -11.250  L -35.500, -11.250  L -35.000, -11.250  L -34.500, -11.250  L -34.000, -11.250  L -33.500, -11.250  L -33.000, -11.250  L -32.500, -11.250  L -32.000, -11.250  L -31.500, -11.250  L -31.000, -11.250  L -30.500, -11.250  L -30.000, -11.250  L -29.500, -11.250  L -29.000, -11.250  L -28.500, -11.250  L -28.000, -11.250  L -27.500, -11.250  L -27.000, -11.250  L -26.500, -11.250  L -26.000, -11.250  L -25.500, -11.250  L -25.000, -11.250  L -24.500, -11.250  L -24.000, -11.250  L -23.500, -11.250  L -23.000, -11.250  L -22.500, -11.250  L -22.000, -11.250  L -21.500, -11.250  L -21.000, -11.250  L -20.500, -11.250  L -20.000, -11.250  L -19.500, -11.250  L -19.000, -11.250  L -18.500, -11.250  L -18.000, -11.250  L -17.500, -11.250  L -17.000, -11.250  L -16.500, -11.250  L -16.000, -11.250  L -15.500, -11.250  L -15.000, -11.250  L -14.500, -11.250  L -14.000, -11.250  L -13.500, -11.250  L -13.000, -11.250  L -12.500, -11.250  L -12.000, -11.250  L -11.500, -11.250  L -11.000, -11.250  L -10.500, -11.250  L -10.000, -11.250  L -9.500, -11.250  L -9.000, -11.250  L -8.500, -11.250  L -8.000, -11.250  L -7.500, -11.250  L -7.000, -11.250  L -6.500, -11.250  L -6.000, -11.250  L -5.500, -11.250  L -5.000, -11.250  L -4.500, -11.250  L -4.000, -11.250  L -3.500, -11.250  L -3.000, -11.250  L -2.500, -11.250  L -2.000, -11.250  L -1.500, -11.250  L -1.000, -11.250  L -0.500, -11.250  L 0.000, -11.250  L 0.500, -11.250  L 1.000, -11.250  L 1.500, -11.250  L 2.000, -11.250  L 2.500, -11.250  L 3.000, -11.250  L 3.500, -11.250  L 4.000, -11.250  L 4.500, -11.250  L 5.000, -11.250  L 5.500, -11.250  L 6.000, -11.250  L 6.500, -11.250  L 7.000, -11.250  L 7.500, -11.250  L 8.000, -11.250  L 8.500, -11.250  L 9.000, -11.250  L 9.500, -11.250  L 10.000, -11.250  L 10.500, -11.250  L 11.000, -11.250  L 11.500, -11.250  L 12.000, -11.250  L 12.500, -11.250  L 13.000, -11.250  L 13.500, -11.250  L 14.000, -11.250  L 14.500, -11.250  L 15.000, -11.250  L 15.500, -11.250  L 16.000, -11.250  L 16.500, -11.250  L 17.000, -11.250  L 17.500, -11.250  L 18.000, -11.250  L 18.500, -11.250  L 19.000, -11.250  L 19.500, -11.250  L 20.000, -11.250  L 20.500, -11.250  L 21.000, -11.250  L 21.500, -11.250  L 22.000, -11.250  L 22.500, -11.250  L 23.000, -11.250  L 23.500, -11.250  L 24.000, -11.250  L 24.500, -11.250  L 25.000, -11.250  L 25.500, -11.250  L 26.000, -11.250  L 26.500, -11.250  L 27.000, -11.250  L 27.500, -11.250  L 28.000, -11.250  L 28.500, -11.250  L 29.000, -11.250  L 29.500, -11.250  L 30.000, -11.250  L 30.500, -11.250  L 31.000, -11.250  L 31.500, -11.250  L 32.000, -11.250  L 32.500, -11.250  L 33.000, -11.250  L 33.500, -11.250  L 34.000, -11.250  L 34.500, -11.250  L 35.000, -11.250  L 35.500, -11.250  L 36.000, -11.250  L 36.500, -11.250  L 37.000, -11.250  L 37.500, -11.250  L 38.000, -11.250  L 38.500, -11.250  L 39.000, -11.250  L 39.500, -11.250  L 40.000, -11.250  L 40.500, -11.250  L 41.000, -11.250  L 41.500, -11.250  L 42.000, -11.250  L 42.500, -11.250  L 43.000, -11.250  L 43.500, -11.250  L 44.000, -11.250  L 44.500, -11.250  L 45.000, -11.250  L 45.500, -11.250  L 46.000, -11.250  L 46.500, -11.250  L 47.000, -11.250  L 47.500, -11.250  L 48.000, -11.250  L 48.500, -11.250  L 49.000, -11.250  L 49.500, -11.250  L 50.000, -11.250  L 50.500, -11.250  L 51.000, -11.250  L 51.500, -11.250  L 52.000, -11.250  L 52.500, -11.250  L 53.000, -11.250  L 53.500, -11.250  L 54.000, -11.250  L 54.500, -11.250  L 55.000, -11.250  L 55.500, -11.250  L 56.000, -11.250  L 56.500, -11.250  L 57.000, -11.250  L 57.500, -11.250  L 58.000, -11.250  L 58.500, -11.250  L 59.000, -11.250  L 59.500, -11.250  L 60.000, -11.250  L 60.000, -10.750  L 60.000, -10.250  L 60.000, -9.750  L 60.000, -9.250  L 60.000, -8.750  L 60.000, -8.250  L 60.000, -7.750  L 60.000, -7.250  L 60.000, -6.750  L 60.000, -6.250  L 60.000, -5.750  L 60.000, -5.250  L 60.000, -4.750  L 60.000, -4.250  L 60.000, -3.750  L 60.000, -3.250  L 60.000, -2.750  L 60.000, -2.250  L 60.000, -1.750  L 60.000, -1.250  L 60.000, -0.750  L 60.000, -0.250  L 60.000, 0.250  L 60.000, 0.750  L 60.000, 1.250  L 60.000, 1.750  L 60.000, 2.250  L 60.000, 2.750  L 60.000, 3.250  L 60.000, 3.750  L 59.500, 3.750  L 59.000, 3.750  L 58.500, 3.750  L 58.000, 3.750  L 57.500, 3.750  L 57.000, 3.750  L 56.500, 3.750  L 56.000, 3.750  L 55.500, 3.750  L 55.000, 3.750  L 54.500, 3.750  L 54.000, 3.750  L 53.500, 3.750  L 53.000, 3.750  L 52.500, 3.750  L 52.000, 3.750  L 51.500, 3.750  L 51.000, 3.750  L 50.500, 3.750  L 50.000, 3.750  L 49.500, 3.750  L 49.000, 3.750  L 48.500, 3.750  L 48.000, 3.750  L 47.500, 3.750  L 47.000, 3.750  L 46.500, 3.750  L 46.000, 3.750  L 45.500, 3.750  L 45.000, 3.750  L 44.500, 3.750  L 44.000, 3.750  L 43.500, 3.750  L 43.000, 3.750  L 42.500, 3.750  L 42.000, 3.750  L 41.500, 3.750  L 41.000, 3.750  L 40.500, 3.750  L 40.000, 3.750  L 39.500, 3.750  L 39.000, 3.750  L 38.500, 3.750  L 38.000, 3.750  L 37.500, 3.750  L 37.000, 3.750  L 36.500, 3.750  L 36.000, 3.750  L 35.500, 3.750  L 35.000, 3.750  L 34.500, 3.750  L 34.000, 3.750  L 33.500, 3.750  L 33.000, 3.750  L 32.500, 3.750  L 32.000, 3.750  L 31.500, 3.750  L 31.000, 3.750  L 30.500, 3.750  L 30.000, 3.750  L 29.500, 3.750  L 29.000, 3.750  L 28.500, 3.750  L 28.000, 3.750  L 27.500, 3.750  L 27.000, 3.750  L 26.500, 3.750  L 26.000, 3.750  L 25.500, 3.750  L 25.000, 3.750  L 24.500, 3.750  L 24.000, 3.750  L 23.500, 3.750  L 23.000, 3.750  L 22.500, 3.750  L 22.000, 3.750  L 21.500, 3.750  L 21.000, 3.750  L 20.500, 3.750  L 20.000, 3.750  L 19.500, 3.750  L 19.000, 3.750  L 18.500, 3.750  L 18.000, 3.750  L 17.500, 3.750  L 17.000, 3.750  L 16.500, 3.750  L 16.000, 3.750  L 15.500, 3.750  L 15.000, 3.750  L 14.500, 3.750  L 14.000, 3.750  L 13.500, 3.750  L 13.000, 3.750  L 12.500, 3.750  L 12.000, 3.750  L 11.500, 3.750  L 11.000, 3.750  L 10.500, 3.750  L 10.000, 3.750  L 9.500, 3.750  L 9.000, 3.750  L 8.500, 3.750  L 8.000, 3.750  L 7.500, 3.750  L 7.000, 3.750  L 6.500, 3.750  L 6.000, 3.750  L 5.500, 3.750  L 5.000, 3.750  L 4.500, 3.750  L 4.000, 3.750  L 3.500, 3.750  L 3.000, 3.750  L 2.500, 3.750  L 2.000, 3.750  L 1.500, 3.750  L 1.000, 3.750  L 0.500, 3.750  L 0.000, 3.750  L -0.500, 3.750  L -1.000, 3.750  L -1.500, 3.750  L -2.000, 3.750  L -2.500, 3.750  L -3.000, 3.750  L -3.500, 3.750  L -4.000, 3.750  L -4.500, 3.750  L -5.000, 3.750  L -5.500, 3.750  L -6.000, 3.750  L -6.500, 3.750  L -7.000, 3.750  L -7.500, 3.750  L -8.000, 3.750  L -8.500, 3.750  L -9.000, 3.750  L -9.500, 3.750  L -10.000, 3.750  L -10.500, 3.750  L -11.000, 3.750  L -11.500, 3.750  L -12.000, 3.750  L -12.500, 3.750  L -13.000, 3.750  L -13.500, 3.750  L -14.000, 3.750  L -14.500, 3.750  L -15.000, 3.750  L -15.500, 3.750  L -16.000, 3.750  L -16.500, 3.750  L -17.000, 3.750  L -17.500, 3.750  L -18.000, 3.750  L -18.500, 3.750  L -19.000, 3.750  L -19.500, 3.750  L -20.000, 3.750  L -20.500, 3.750  L -21.000, 3.750  L -21.500, 3.750  L -22.000, 3.750  L -22.500, 3.750  L -23.000, 3.750  L -23.500, 3.750  L -24.000, 3.750  L -24.500, 3.750  L -25.000, 3.750  L -25.500, 3.750  L -26.000, 3.750  L -26.500, 3.750  L -27.000, 3.750  L -27.500, 3.750  L -28.000, 3.750  L -28.500, 3.750  L -29.000, 3.750  L -29.500, 3.750  L -30.000, 3.750  L -30.500, 3.750  L -31.000, 3.750  L -31.500, 3.750  L -32.000, 3.750  L -32.500, 3.750  L -33.000, 3.750  L -33.500, 3.750  L -34.000, 3.750  L -34.500, 3.750  L -35.000, 3.750  L -35.500, 3.750  L -36.000, 3.750  L -36.500, 3.750  L -37.000, 3.750  L -37.500, 3.750  L -38.000, 3.750  L -38.500, 3.750  L -39.000, 3.750  L -39.500, 3.750  L -40.000, 3.750  L -40.500, 3.750  L -41.000, 3.750  L -41.500, 3.750  L -42.000, 3.750  L -42.500, 3.750  L -43.000, 3.750  L -43.500, 3.750  L -44.000, 3.750  L -44.500, 3.750  L -45.000, 3.750  L -45.500, 3.750  L -46.000, 3.750  L -46.500, 3.750  L -47.000, 3.750  L -47.500, 3.750  L -48.000, 3.750  L -48.500, 3.750  L -49.000, 3.750  L -49.500, 3.750  L -50.000, 3.750  L -50.500, 3.750  L -51.000, 3.750  L -51.500, 3.750  L -52.000, 3.750  L -52.500, 3.750  L -53.000, 3.750  L -53.500, 3.750  L -54.000, 3.750  L -54.500, 3.750  L -55.000, 3.750  L -55.500, 3.750  L -56.000, 3.750  L -56.500, 3.750  L -57.000, 3.750  L -57.500, 3.750  L -58.000, 3.750  L -58.500, 3.750  L -59.000, 3.750  L -59.500, 3.750  L -60.000, 3.750  L -60.000, 3.250  L -60.000, 2.750  L -60.000, 2.250  L -60.000, 1.750  L -60.000, 1.250  L -60.000, 0.750  L -60.000, 0.250  L -60.000, -0.250  L -60.000, -0.750  L -60.000, -1.250  L -60.000, -1.750  L -60.000, -2.250  L -60.000, -2.750  L -60.000, -3.250  L -60.000, -3.750  L -60.000, -4.250  L -60.000, -4.750  L -60.000, -5.250  L -60.000, -5.750  L -60.000, -6.250  L -60.000, -6.750  L -60.000, -7.250  L -60.000, -7.750  L -60.000, -8.250  L -60.000, -8.750  L -60.000, -9.250  L -60.000, -9.750  L -60.000, -10.250  L -60.000, -10.750  L -60.000, -11.250  Z"/>
                <path class="path_center_line" d="M -60.000, 0.000  L -59.500, 0.000  L -59.000, 0.000  L -58.500, 0.000  L -58.000, 0.000  L -57.500, 0.000  L -57.000, 0.000  L -56.500, 0.000  L -56.000, 0.000  L -55.500, 0.000  L -55.000, 0.000  L -54.500, 0.000  L -54.000, 0.000  L -53.500, 0.000  L -53.000, 0.000  L -52.500, 0.000  L -52.000, 0.000  L -51.500, 0.000  L -51.000, 0.000  L -50.500, 0.000  L -50.000, 0.000  L -49.500, 0.000  L -49.000, 0.000  L -48.500, 0.000  L -48.000, 0.000  L -47.500, 0.000  L -47.000, 0.000  L -46.500, 0.000  L -46.000, 0.000  L -45.500, 0.000  L -45.000, 0.000  L -44.500, 0.000  L -44.000, 0.000  L -43.500, 0.000  L -43.000, 0.000  L -42.500, 0.000  L -42.000, 0.000  L -41.500, 0.000  L -41.000, 0.000  L -40.500, 0.000  L -40.000, 0.000  L -39.500, 0.000  L -39.000, 0.000  L -38.500, 0.000  L -38.000, 0.000  L -37.500, 0.000  L -37.000, 0.000  L -36.500, 0.000  L -36.000, 0.000  L -35.500, 0.000  L -35.000, 0.000  L -34.500, 0.000  L -34.000, 0.000  L -33.500, 0.000  L -33.000, 0.000  L -32.500, 0.000  L -32.000, 0.000  L -31.500, 0.000  L -31.000, 0.000  L -30.500, 0.000  L -30.000, 0.000  L -29.500, 0.000  L -29.000, 0.000  L -28.500, 0.000  L -28.000, 0.000  L -27.500, 0.000  L -27.000, 0.000  L -26.500, 0.000  L -26.000, 0.000  L -25.500, 0.000  L -25.000, 0.000  L -24.500, 0.000  L -24.000, 0.000  L -23.500, 0.000  L -23.000, 0.000  L -22.500, 0.000  L -22.000, 0.000  L -21.500, 0.000  L -21.000, 0.000  L -20.500, 0.000  L -20.000, 0.000  L -19.500, 0.000  L -19.000, 0.000  L -18.500, 0.000  L -18.000, 0.000  L -17.500, 0.000  L -17.000, 0.000  L -16.500, 0.000  L -16.000, 0.000  L -15.500, 0.000  L -15.000, 0.000  L -14.500, 0.000  L -14.000, 0.000  L -13.500, 0.000  L -13.000, 0.000  L -12.500, 0.000  L -12.000, 0.000  L -11.500, 0.000  L -11.000, 0.000  L -10.500, 0.000  L -10.000, 0.000  L -9.500, 0.000  L -9.000, 0.000  L -8.500, 0.000  L -8.000, 0.000  L -7.500, 0.000  L -7.000, 0.000  L -6.500, 0.000  L -6.000, 0.000  L -5.500, 0.000  L -5.000, 0.000  L -4.500, 0.000  L -4.000, 0.000  L -3.500, 0.000  L -3.000, 0.000  L -2.500, 0.000  L -2.000, 0.000  L -1.500, 0.000  L -1.000, 0.000  L -0.500, 0.000  L 0.000, 0.000  L 0.500, 0.000  L 1.000, 0.000  L 1.500, 0.000  L 2.000, 0.000  L 2.500, 0.000  L 3.000, 0.000  L 3.500, 0.000  L 4.000, 0.000  L 4.500, 0.000  L 5.000, 0.000  L 5.500, 0.000  L 6.000, 0.000  L 6.500, 0.000  L 7.000, 0.000  L 7.500, 0.000  L 8.000, 0.000  L 8.500, 0.000  L 9.000, 0.000  L 9.500, 0.000  L 10.000, 0.000  L 10.500, 0.000  L 11.000, 0.000  L 11.500, 0.000  L 12.000, 0.000  L 12.500, 0.000  L 13.000, 0.000  L 13.500, 0.000  L 14.000, 0.000  L 14.500, 0.000  L 15.000, 0.000  L 15.500, 0.000  L 16.000, 0.000  L 16.500, 0.000  L 17.000, 0.000  L 17.500, 0.000  L 18.000, 0.000  L 18.500, 0.000  L 19.000, 0.000  L 19.500, 0.000  L 20.000, 0.000  L 20.500, 0.000  L 21.000, 0.000  L 21.500, 0.000  L 22.000, 0.000  L 22.500, 0.000  L 23.000, 0.000  L 23.500, 0.000  L 24.000, 0.000  L 24.500, 0.000  L 25.000, 0.000  L 25.500, 0.000  L 26.000, 0.000  L 26.500, 0.000  L 27.000, 0.000  L 27.500, 0.000  L 28.000, 0.000  L 28.500, 0.000  L 29.000, 0.000  L 29.500, 0.000  L 30.000, 0.000  L 30.500, 0.000  L 31.000, 0.000  L 31.500, 0.000  L 32.000, 0.000  L 32.500, 0.000  L 33.000, 0.000  L 33.500, 0.000  L 34.000, 0.000  L 34.500, 0.000  L 35.000, 0.000  L 35.500, 0.000  L 36.000, 0.000  L 36.500, 0.000  L 37.000, 0.000  L 37.500, 0.000  L 38.000, 0.000  L 38.500, 0.000  L 39.000, 0.000  L 39.500, 0.000  L 40.000, 0.000  L 40.500, 0.000  L 41.000, 0.000  L 41.500, 0.000  L 42.000, 0.000  L 42.500, 0.000  L 43.000, 0.000  L 43.500, 0.000  L 44.000, 0.000  L 44.500, 0.000  L 45.000, 0.000  L 45.500, 0.000  L 46.000, 0.000  L 46.500, 0.000  L 47.000, 0.000  L 47.500, 0.000  L 48.000, 0.000  L 48.500, 0.000  L 49.000, 0.000  L 49.500, 0.000  L 50.000, 0.000  L 50.500, 0.000  L 51.000, 0.000  L 51.500, 0.000  L 52.000, 0.000  L 52.500, 0.000  L 53.000, 0.000  L 53.500, 0.000  L 54.000, 0.000  L 54.500, 0.000  L 55.000, 0.000  L 55.500, 0.000  L 56.000, 0.000  L 56.500, 0.000  L 57.000, 0.000  L 57.500, 0.000  L 58.000, 0.000  L 58.500, 0.000  L 59.000, 0.000  L 59.500, 0.000  L 60.000, 0.000 "/>
            </g>
            <path class="line_0" d="M -60.000, -11.250  L -60.000, 0.000 "/>
            <path class="line_0" d="M -48.000, -11.250  L -48.000, 0.000 "/>
            <path class="line_0" d="M -36.000, -11.250  L -36.000, 0.000 "/>
            <path class="line_0" d="M -24.000, -11.250  L -24.000, 0.000 "/>
            <path class="line_0" d="M -12.000, -11.250  L -12.000, 0.000 "/>
            <path class="line_0" d="M 0.000, -11.250  L 0.000, 0.000 "/>
            <path class="line_0" d="M 12.000, -11.250  L 12.000, 0.000 "/>
            <path class="line_0" d="M 24.000, -11.250  L 24.000, 0.000 "/>
            <path class="line_0" d="M 36.000, -11.250  L 36.000, 0.000 "/>
            <path class="line_0" d="M 48.000, -11.250  L 48.000, 0.000 "/>
            <path class="line_0" d="M 60.000, -11.250  L 60.000, 0.000 "/>
            <path class="line_1" d="M -60.000, 0.000  L -60.000, 3.750 "/>
            <path class="line_1" d="M -48.000, 0.000  L -48.000, 3.750 "/>
            <path class="line_1" d="M -36.000, 0.000  L -36.000, 3.750 "/>
            <path class="line_1" d="M -24.000, 0.000  L -24.000, 3.750 "/>
            <path class="line_1" d="M -12.000, 0.000  L -12.000, 3.750 "/>
            <path class="line_1" d="M 0.000, 0.000  L 0.000, 3.750 "/>
            <path class="line_1" d="M 12.000, 0.000  L 12.000, 3.750 "/>
            <path class="line_1" d="M 24.000, 0.000  L 24.000, 3.750 "/>
            <path class="line_1" d="M 36.000, 0.000  L 36.000, 3.750 "/>
            <path class="line_1" d="M 48.000, 0.000  L 48.000, 3.750 "/>
            <path class="line_1" d="M 60.000, 0.000  L 60.000, 3.750 "/>
        </g>
    </g>
</svg>
