<?xml version="1.0" encoding="utf-8" ?>
<svg xmlns="http://www.w3.org/2000/svg" xmlns:ev="http://www.w3.org/2001/xml-events" xmlns:xlink="http://www.w3.org/1999/xlink" baseProfile="full" height="110mm" version="1.1" viewBox="0,0,180,110" width="180mm">
    <defs>
        <style type="text/css"><![CDATA[
.stitch_line {
    stroke-width: 0.3;
    stroke-linejoin: round;
    stroke-linecap: round;
    fill: none;
}
.path_handle {
    stroke-width: 0.5;
    stroke-linejoin: round;
    stroke-linecap: round;
    fill:none;
    stroke: #808080;
    marker-start: url(#handles);
    marker-mid: url(#handles);
    marker-end: url(#handles);
}
.path_center_line {
    stroke-width: 0.5;
    stroke-linejoin: round;
    stroke-linecap: round;
    fill: none;
    stroke:#148983;
    stroke-dasharray: 2,1.5;
    stroke-dashoffset: 1;
}
.path_contour {
    stroke: #85c4c1;
    fill-opacity: 0;
    stroke-width: 0.3;
}
.path_direction_line {
    stroke-width: 0.05;
    fill: none;
    stroke: #85c4c1;
}
.text{
    text-anchor: middle;
    dominant-baseline: middle;
    font-family: sans-serif;
    font-size: 1.5mm;
}
.color_0 {
    stroke:#148983;
    marker-start:url(#dot_0);
    marker-mid:url(#dot_0);
    marker-end:url(#dot_0);
}
.color_1 {
    stroke:#1873ac;
    marker-start:url(#dot_1);
    marker-mid:url(#dot_1);
    marker-end:url(#dot_1);
}
.color_2 {
    stroke:#8c5290;
    marker-start:url(#dot_2);
    marker-mid:url(#dot_2);
    marker-end:url(#dot_2);
}
.color_3 {
    stroke:#61a09c;
    marker-start:url(#dot_3);
    marker-mid:url(#dot_3);
    marker-end:url(#dot_3);
}
.color_4 {
    stroke:#5ad2f4;
    marker-start:url(#dot_4);
    marker-mid:url(#dot_4);
    marker-end:url(#dot_4);
}
.color_5 {
    stroke:#0f6460;
    marker-start:url(#dot_5);
    marker-mid:url(#dot_5);
    marker-end:url(#dot_5);
}
.color_6 {
    stroke:#0f4668;
    marker-start:url(#dot_6);
    marker-mid:url(#dot_6);
    marker-end:url(#dot_6);
}
.color_7 {
    stroke:#543156;
    marker-start:url(#dot_7);
    marker-mid:url(#dot_7);
    marker-end:url(#dot_7);
}
.color_8 {
    stroke:#487673;
    marker-start:url(#dot_8);
    marker-mid:url(#dot_8);
    marker-end:url(#dot_8);
}
.color_9 {
    stroke:#0c8baf;
    marker-start:url(#dot_9);
    marker-mid:url(#dot_9);
    marker-end:url(#dot_9);
}
]]></style>
        <marker id="dot_0" markerHeight="3.0" markerWidth="3.0" refX="1.5" refY="1.5">
            <circle cx="1.5" cy="1.5" fill="#148983" r="1.5"/>
        </marker>
        <marker id="dot_1" markerHeight="3.0" markerWidth="3.0" refX="1.5" refY="1.5">
            <circle cx="1.5" cy="1.5" fill="#1873ac" r="1.5"/>
        </marker>
        <marker id="dot_2" markerHeight="3.0" markerWidth="3.0" refX="1.5" refY="1.5">
            <circle cx="1.5" cy="1.5" fill="#8c5290" r="1.5"/>
        </marker>
        <marker id="dot_3" markerHeight="3.0" markerWidth="3.0" refX="1.5" refY="1.5">
            <circle cx="1.5" cy="1.5" fill="#61a09c" r="1.5"/>
        </marker>
        <marker id="dot_4" markerHeight="3.0" markerWidth="3.0" refX="1.5" refY="1.5">
            <circle cx="1.5" cy="1.5" fill="#5ad2f4" r="1.5"/>
        </marker>
        <marker id="dot_5" markerHeight="3.0" markerWidth="3.0" refX="1.5" refY="1.5">
            <circle cx="1.5" cy="1.5" fill="#0f6460" r="1.5"/>
        </marker>
        <marker id="dot_6" markerHeight="3.0" markerWidth="3.0" refX="1.5" refY="1.5">
            <circle cx="1.5" cy="1.5" fill="#0f4668" r="1.5"/>
        </marker>
        <marker id="dot_7" markerHeight="3.0" markerWidth="3.0" refX="1.5" refY="1.5">
            <circle cx="1.5" cy="1.5" fill="#543156" r="1.5"/>
        </marker>
        <marker id="dot_8" markerHeight="3.0" markerWidth="3.0" refX="1.5" refY="1.5">
            <circle cx="1.5" cy="1.5" fill="#487673" r="1.5"/>
        </marker>
        <marker id="dot_9" markerHeight="3.0" markerWidth="3.0" refX="1.5" refY="1.5">
            <circle cx="1.5" cy="1.5" fill="#0c8baf" r="1.5"/>
        </marker>
    </defs>
    <g>
        <g>
            <path class="path_contour" d="M 15.840, 87.226  L 16.150, 86.754  L 16.448, 86.284  L 16.734, 85.819  L 17.008, 85.356  L 17.271, 84.898  L 17.522, 84.443  L 17.762, 83.991  L 17.990, 83.543  L 18.209, 83.098  L 18.416, 82.656  L 18.614, 82.217  L 18.801, 81.781  L 18.978, 81.349  L 19.146, 80.919  L 19.305, 80.492  L 19.454, 80.067  L 19.594, 79.645  L 19.725, 79.225  L 19.848, 78.808  L 19.962, 78.393  L 20.068, 77.980  L 20.166, 77.569  L 20.256, 77.159  L 20.338, 76.751  L 20.413, 76.345  L 20.480, 75.940  L 20.540, 75.536  L 20.593, 75.133  L 20.638, 74.731  L 20.677, 74.330  L 20.709, 73.930  L 20.735, 73.530  L 20.754, 73.130  L 20.766, 72.731  L 20.773, 72.332  L 20.773, 71.933  L 20.767, 71.534  L 20.755, 71.135  L 20.736, 70.736  L 20.713, 70.337  L 20.683, 69.937  L 20.648, 69.537  L 20.607, 69.136  L 20.560, 68.734  L 20.508, 68.332  L 20.451, 67.929  L 20.389, 67.526  L 20.321, 67.122  L 20.249, 66.717  L 20.171, 66.311  L 20.089, 65.904  L 20.001, 65.496  L 19.909, 65.087  L 19.813, 64.677  L 19.712, 64.266  L 19.606, 63.855  L 19.497, 63.442  L 19.383, 63.028  L 19.265, 62.613  L 19.143, 62.197  L 19.017, 61.780  L 18.888, 61.362  L 18.755, 60.942  L 18.618, 60.522  L 18.478, 60.100  L 18.335, 59.677  L 18.189, 59.253  L 18.040, 58.828  L 17.888, 58.402  L 17.733, 57.974  L 17.576, 57.546  L 17.416, 57.116  L 17.254, 56.685  L 17.089, 56.252  L 16.923, 55.819  L 16.755, 55.384  L 16.585, 54.948  L 16.413, 54.510  L 16.240, 54.071  L 16.066, 53.631  L 15.890, 53.190  L 15.713, 52.747  L 15.536, 52.303  L 15.358, 51.857  L 15.179, 51.410  L 15.000, 50.961  L 14.820, 50.511  L 14.640, 50.059  L 14.461, 49.606  L 14.281, 49.151  L 14.102, 48.695  L 13.924, 48.237  L 13.746, 47.777  L 13.569, 47.315  L 13.393, 46.852  L 13.218, 46.387  L 13.044, 45.920  L 12.872, 45.451  L 12.702, 44.981  L 12.533, 44.508  L 12.366, 44.033  L 12.202, 43.557  L 12.040, 43.078  L 11.880, 42.597  L 11.724, 42.114  L 11.570, 41.629  L 11.419, 41.141  L 11.271, 40.652  L 11.127, 40.160  L 10.987, 39.665  L 10.850, 39.169  L 10.717, 38.670  L 10.589, 38.168  L 10.465, 37.664  L 10.346, 37.157  L 10.231, 36.648  L 10.122, 36.136  L 10.018, 35.622  L 9.919, 35.105  L 9.826, 34.585  L 9.738, 34.063  L 9.657, 33.538  L 9.582, 33.010  L 9.514, 32.480  L 9.452, 31.947  L 9.398, 31.412  L 9.350, 30.873  L 9.310, 30.332  L 9.277, 29.789  L 9.253, 29.243  L 9.236, 28.694  L 9.228, 28.143  L 9.228, 27.590  L 9.236, 27.034  L 9.254, 26.476  L 9.280, 25.915  L 9.316, 25.352  L 9.362, 24.787  L 9.417, 24.220  L 9.482, 23.652  L 9.556, 23.081  L 9.641, 22.508  L 9.737, 21.934  L 9.842, 21.358  L 9.959, 20.780  L 10.086, 20.201  L 10.224, 19.620  L 10.373, 19.039  L 10.534, 18.456  L 10.705, 17.872  L 10.889, 17.286  L 11.083, 16.700  L 11.289, 16.113  L 11.507, 15.525  L 11.737, 14.936  L 11.979, 14.347  L 12.233, 13.757  L 12.498, 13.166  L 12.776, 12.574  L 13.067, 11.982  L 13.369, 11.390  L 13.684, 10.797  L 14.012, 10.203  L 14.352, 9.609  L 14.705, 9.014  L 15.070, 8.419  L 15.448, 7.823  L 15.840, 7.226  L 16.256, 7.504  L 16.672, 7.781  L 17.088, 8.059  L 17.504, 8.336  L 17.920, 8.613  L 18.336, 8.891  L 18.752, 9.168  L 19.168, 9.445  L 19.584, 9.723  L 20.000, 10.000  L 20.416, 10.277  L 20.832, 10.555  L 21.248, 10.832  L 21.664, 11.109  L 22.080, 11.387  L 22.496, 11.664  L 22.912, 11.941  L 23.328, 12.219  L 23.744, 12.496  L 24.160, 12.774  L 23.850, 13.246  L 23.552, 13.716  L 23.266, 14.181  L 22.992, 14.644  L 22.729, 15.102  L 22.478, 15.557  L 22.238, 16.009  L 22.010, 16.457  L 21.791, 16.902  L 21.584, 17.344  L 21.386, 17.783  L 21.199, 18.219  L 21.022, 18.651  L 20.854, 19.081  L 20.695, 19.508  L 20.546, 19.933  L 20.406, 20.355  L 20.275, 20.775  L 20.152, 21.192  L 20.038, 21.607  L 19.932, 22.020  L 19.834, 22.431  L 19.744, 22.841  L 19.662, 23.249  L 19.587, 23.655  L 19.520, 24.060  L 19.460, 24.464  L 19.407, 24.867  L 19.362, 25.269  L 19.323, 25.670  L 19.291, 26.070  L 19.265, 26.470  L 19.246, 26.870  L 19.234, 27.269  L 19.227, 27.668  L 19.227, 28.067  L 19.233, 28.466  L 19.245, 28.865  L 19.264, 29.264  L 19.287, 29.663  L 19.317, 30.063  L 19.352, 30.463  L 19.393, 30.864  L 19.440, 31.266  L 19.492, 31.668  L 19.549, 32.071  L 19.611, 32.474  L 19.679, 32.878  L 19.751, 33.283  L 19.829, 33.689  L 19.911, 34.096  L 19.999, 34.504  L 20.091, 34.913  L 20.187, 35.323  L 20.288, 35.734  L 20.394, 36.145  L 20.503, 36.558  L 20.617, 36.972  L 20.735, 37.387  L 20.857, 37.803  L 20.983, 38.220  L 21.112, 38.638  L 21.245, 39.058  L 21.382, 39.478  L 21.522, 39.900  L 21.665, 40.323  L 21.811, 40.747  L 21.960, 41.172  L 22.112, 41.598  L 22.267, 42.026  L 22.424, 42.454  L 22.584, 42.884  L 22.746, 43.315  L 22.911, 43.748  L 23.077, 44.181  L 23.245, 44.616  L 23.415, 45.052  L 23.587, 45.490  L 23.760, 45.929  L 23.934, 46.369  L 24.110, 46.810  L 24.287, 47.253  L 24.464, 47.697  L 24.642, 48.143  L 24.821, 48.590  L 25.000, 49.039  L 25.180, 49.489  L 25.360, 49.941  L 25.539, 50.394  L 25.719, 50.849  L 25.898, 51.305  L 26.076, 51.763  L 26.254, 52.223  L 26.431, 52.685  L 26.607, 53.148  L 26.782, 53.613  L 26.956, 54.080  L 27.128, 54.549  L 27.298, 55.019  L 27.467, 55.492  L 27.634, 55.967  L 27.798, 56.443  L 27.960, 56.922  L 28.120, 57.403  L 28.276, 57.886  L 28.430, 58.371  L 28.581, 58.859  L 28.729, 59.348  L 28.873, 59.840  L 29.013, 60.335  L 29.150, 60.831  L 29.283, 61.330  L 29.411, 61.832  L 29.535, 62.336  L 29.654, 62.843  L 29.769, 63.352  L 29.878, 63.864  L 29.982, 64.378  L 30.081, 64.895  L 30.174, 65.415  L 30.262, 65.937  L 30.343, 66.462  L 30.418, 66.990  L 30.486, 67.520  L 30.548, 68.053  L 30.602, 68.588  L 30.650, 69.127  L 30.690, 69.668  L 30.723, 70.211  L 30.747, 70.757  L 30.764, 71.306  L 30.772, 71.857  L 30.772, 72.410  L 30.764, 72.966  L 30.746, 73.524  L 30.720, 74.085  L 30.684, 74.648  L 30.638, 75.213  L 30.583, 75.780  L 30.518, 76.348  L 30.444, 76.919  L 30.359, 77.492  L 30.263, 78.066  L 30.158, 78.642  L 30.041, 79.220  L 29.914, 79.799  L 29.776, 80.380  L 29.627, 80.961  L 29.466, 81.544  L 29.295, 82.128  L 29.111, 82.714  L 28.917, 83.300  L 28.711, 83.887  L 28.493, 84.475  L 28.263, 85.064  L 28.021, 85.653  L 27.767, 86.243  L 27.502, 86.834  L 27.224, 87.426  L 26.933, 88.018  L 26.631, 88.610  L 26.316, 89.203  L 25.988, 89.797  L 25.648, 90.391  L 25.295, 90.986  L 24.930, 91.581  L 24.552, 92.177  L 24.160, 92.774  L 23.744, 92.496  L 23.328, 92.219  L 22.912, 91.941  L 22.496, 91.664  L 22.080, 91.387  L 21.664, 91.109  L 21.248, 90.832  L 20.832, 90.555  L 20.416, 90.277  L 20.000, 90.000  L 19.584, 89.723  L 19.168, 89.445  L 18.752, 89.168  L 18.336, 88.891  L 17.920, 88.613  L 17.504, 88.336  L 17.088, 88.059  L 16.672, 87.781  L 16.256, 87.504  L 15.840, 87.226  Z"/>
            <path class="path_direction_line" d="M 17.522, 84.443 L 26.316, 89.203 M 18.801, 81.781 L 28.021, 85.653 M 19.725, 79.225 L 29.295, 82.128 M 20.338, 76.751 L 30.158, 78.642 M 20.677, 74.330 L 30.638, 75.213 M 20.773, 71.933 L 30.772, 71.857 M 20.648, 69.537 L 30.602, 68.588 M 20.321, 67.122 L 30.174, 65.415 M 19.813, 64.677 L 29.535, 62.336 M 19.143, 62.197 L 28.729, 59.348 M 18.335, 59.677 L 27.798, 56.443 M 17.416, 57.116 L 26.782, 53.613 M 16.413, 54.510 L 25.719, 50.849 M 15.358, 51.857 L 24.642, 48.143 M 14.281, 49.151 L 23.587, 45.490 M 13.218, 46.387 L 22.584, 42.884 M 12.202, 43.557 L 21.665, 40.323 M 11.271, 40.652 L 20.857, 37.803 M 10.465, 37.664 L 20.187, 35.323 M 9.826, 34.585 L 19.679, 32.878 M 9.398, 31.412 L 19.352, 30.463 M 9.228, 28.143 L 19.227, 28.067 M 9.362, 24.787 L 19.323, 25.670 M 9.842, 21.358 L 19.662, 23.249 M 10.705, 17.872 L 20.275, 20.775 M 11.979, 14.347 L 21.199, 18.219 M 13.684, 10.797 L 22.478, 15.557"/>
            <path class="path_center_line" d="M 20.000, 90.000  L 20.351, 89.465  L 20.689, 88.933  L 21.015, 88.402  L 21.328, 87.874  L 21.629, 87.347  L 21.919, 86.823  L 22.196, 86.301  L 22.462, 85.780  L 22.716, 85.262  L 22.959, 84.745  L 23.191, 84.230  L 23.411, 83.717  L 23.621, 83.206  L 23.819, 82.697  L 24.008, 82.189  L 24.185, 81.683  L 24.353, 81.179  L 24.510, 80.677  L 24.657, 80.176  L 24.794, 79.677  L 24.922, 79.180  L 25.040, 78.684  L 25.148, 78.190  L 25.248, 77.697  L 25.338, 77.206  L 25.419, 76.716  L 25.492, 76.228  L 25.556, 75.741  L 25.611, 75.255  L 25.658, 74.771  L 25.697, 74.289  L 25.727, 73.807  L 25.750, 73.327  L 25.765, 72.849  L 25.773, 72.371  L 25.773, 71.895  L 25.765, 71.420  L 25.751, 70.946  L 25.730, 70.474  L 25.701, 70.002  L 25.666, 69.532  L 25.625, 69.062  L 25.577, 68.594  L 25.523, 68.127  L 25.463, 67.661  L 25.397, 67.196  L 25.325, 66.732  L 25.248, 66.268  L 25.165, 65.806  L 25.077, 65.344  L 24.983, 64.884  L 24.885, 64.424  L 24.782, 63.965  L 24.674, 63.507  L 24.561, 63.049  L 24.444, 62.593  L 24.323, 62.137  L 24.198, 61.681  L 24.069, 61.227  L 23.936, 60.773  L 23.799, 60.319  L 23.659, 59.866  L 23.516, 59.414  L 23.369, 58.962  L 23.219, 58.511  L 23.067, 58.060  L 22.911, 57.610  L 22.753, 57.160  L 22.593, 56.711  L 22.431, 56.262  L 22.266, 55.813  L 22.099, 55.364  L 21.931, 54.916  L 21.760, 54.469  L 21.589, 54.021  L 21.416, 53.574  L 21.241, 53.126  L 21.066, 52.679  L 20.890, 52.233  L 20.713, 51.786  L 20.535, 51.339  L 20.357, 50.893  L 20.179, 50.446  L 20.000, 50.000  L 19.821, 49.554  L 19.643, 49.107  L 19.465, 48.661  L 19.287, 48.214  L 19.110, 47.767  L 18.934, 47.321  L 18.759, 46.874  L 18.584, 46.426  L 18.411, 45.979  L 18.240, 45.531  L 18.069, 45.084  L 17.901, 44.636  L 17.734, 44.187  L 17.569, 43.738  L 17.407, 43.289  L 17.247, 42.840  L 17.089, 42.390  L 16.933, 41.940  L 16.781, 41.489  L 16.631, 41.038  L 16.484, 40.586  L 16.341, 40.134  L 16.201, 39.681  L 16.064, 39.227  L 15.931, 38.773  L 15.802, 38.319  L 15.677, 37.863  L 15.556, 37.407  L 15.439, 36.951  L 15.326, 36.493  L 15.218, 36.035  L 15.115, 35.576  L 15.017, 35.116  L 14.923, 34.656  L 14.835, 34.194  L 14.752, 33.732  L 14.675, 33.268  L 14.603, 32.804  L 14.537, 32.339  L 14.477, 31.873  L 14.423, 31.406  L 14.375, 30.938  L 14.334, 30.468  L 14.299, 29.998  L 14.270, 29.526  L 14.249, 29.054  L 14.235, 28.580  L 14.227, 28.105  L 14.227, 27.629  L 14.235, 27.151  L 14.250, 26.673  L 14.273, 26.193  L 14.303, 25.711  L 14.342, 25.229  L 14.389, 24.745  L 14.444, 24.259  L 14.508, 23.772  L 14.581, 23.284  L 14.662, 22.794  L 14.752, 22.303  L 14.852, 21.810  L 14.960, 21.316  L 15.078, 20.820  L 15.206, 20.323  L 15.343, 19.824  L 15.490, 19.323  L 15.647, 18.821  L 15.815, 18.317  L 15.992, 17.811  L 16.181, 17.303  L 16.379, 16.794  L 16.589, 16.283  L 16.809, 15.770  L 17.041, 15.255  L 17.284, 14.738  L 17.538, 14.220  L 17.804, 13.699  L 18.081, 13.177  L 18.371, 12.653  L 18.672, 12.126  L 18.985, 11.598  L 19.311, 11.067  L 19.649, 10.535  L 20.000, 10.000 "/>
        </g>
        <text class="text" x="20" y="105">Path</text>
        <path class="stitch_line color_0" d="M 74.930, 91.581  L 67.008, 85.356  L 76.316, 89.203  L 67.990, 83.543  L 77.502, 86.834  L 68.801, 81.781  L 78.493, 84.475  L 69.454, 80.067  L 79.295, 82.128  L 69.962, 78.393  L 79.914, 79.799  L 70.338, 76.751  L 80.359, 77.492  L 70.593, 75.133  L 80.638, 75.213  L 70.735, 73.530  L 80.764, 72.966  L 70.773, 71.933  L 80.747, 70.757  L 70.713, 70.337  L 80.602, 68.588  L 70.560, 68.734  L 80.343, 66.462  L 70.321, 67.122  L 79.982, 64.378  L 70.001, 65.496  L 79.535, 62.336  L 69.606, 63.855  L 79.013, 60.335  L 69.143, 62.197  L 78.430, 58.371  L 68.618, 60.522  L 77.798, 56.443  L 68.040, 58.828  L 77.128, 54.549  L 67.416, 57.116  L 76.431, 52.685  L 66.755, 55.384  L 75.719, 50.849  L 66.066, 53.631  L 75.000, 49.039  L 65.358, 51.857  L 74.287, 47.253  L 64.640, 50.059  L 73.587, 45.490  L 63.924, 48.237  L 72.911, 43.748  L 63.218, 46.387  L 72.267, 42.026  L 62.533, 44.508  L 71.665, 40.323  L 61.880, 42.597  L 71.112, 38.638  L 61.271, 40.652  L 70.617, 36.972  L 60.717, 38.670  L 70.187, 35.323  L 60.231, 36.648  L 69.829, 33.689  L 59.826, 34.585  L 69.549, 32.071  L 59.514, 32.480  L 69.352, 30.463  L 59.310, 30.332  L 69.245, 28.865  L 59.228, 28.143  L 69.234, 27.269  L 59.280, 25.915  L 69.323, 25.670  L 59.482, 23.652  L 69.520, 24.060  L 59.842, 21.358  L 69.834, 22.431  L 60.373, 19.039  L 70.275, 20.775  L 61.083, 16.700  L 70.854, 19.081  L 61.979, 14.347  L 71.584, 17.344  L 63.067, 11.982  L 72.478, 15.557  L 64.352, 9.609  L 73.552, 13.716  L 65.840, 7.226 "/>
        <text class="text" x="70" y="105">Satin</text>
        <path class="stitch_line color_1" d="M 95.840, 87.226  L 98.613, 89.075  L 101.387, 90.925  L 104.160, 92.774  L 106.316, 89.203  L 103.384, 87.617  L 100.453, 86.030  L 97.522, 84.443  L 98.801, 81.781  L 101.874, 83.072  L 104.948, 84.362  L 108.021, 85.653  L 109.295, 82.128  L 106.105, 81.161  L 102.915, 80.193  L 99.725, 79.225  L 100.338, 76.751  L 103.611, 77.382  L 106.884, 78.012  L 110.158, 78.642  L 110.638, 75.213  L 107.318, 74.918  L 103.998, 74.624  L 100.677, 74.330  L 100.773, 71.933  L 104.106, 71.908  L 107.439, 71.882  L 110.772, 71.857  L 110.602, 68.588  L 107.284, 68.904  L 103.966, 69.221  L 100.648, 69.537  L 100.321, 67.122  L 103.606, 66.553  L 106.890, 65.984  L 110.174, 65.415  L 109.535, 62.336  L 106.294, 63.117  L 103.053, 63.897  L 99.813, 64.677  L 99.143, 62.197  L 102.338, 61.247  L 105.533, 60.298  L 108.729, 59.348  L 107.798, 56.443  L 104.644, 57.521  L 101.490, 58.599  L 98.335, 59.677  L 97.416, 57.116  L 100.538, 55.948  L 103.660, 54.781  L 106.782, 53.613  L 105.719, 50.849  L 102.617, 52.069  L 99.515, 53.290  L 96.413, 54.510  L 95.358, 51.857  L 98.453, 50.619  L 101.547, 49.381  L 104.642, 48.143  L 103.587, 45.490  L 100.485, 46.710  L 97.383, 47.931  L 94.281, 49.151  L 93.218, 46.387  L 96.340, 45.219  L 99.462, 44.052  L 102.584, 42.884  L 101.665, 40.323  L 98.510, 41.401  L 95.356, 42.479  L 92.202, 43.557  L 91.271, 40.652  L 94.467, 39.702  L 97.662, 38.753  L 100.857, 37.803  L 100.187, 35.323  L 96.947, 36.103  L 93.706, 36.883  L 90.465, 37.664  L 89.826, 34.585  L 93.110, 34.016  L 96.394, 33.447  L 99.679, 32.878  L 99.352, 30.463  L 96.034, 30.779  L 92.716, 31.096  L 89.398, 31.412  L 89.228, 28.143  L 92.561, 28.118  L 95.894, 28.092  L 99.227, 28.067  L 99.323, 25.670  L 96.002, 25.376  L 92.682, 25.082  L 89.362, 24.787  L 89.842, 21.358  L 93.116, 21.988  L 96.389, 22.618  L 99.662, 23.249  L 100.275, 20.775  L 97.085, 19.807  L 93.895, 18.839  L 90.705, 17.872  L 91.979, 14.347  L 95.052, 15.638  L 98.126, 16.928  L 101.199, 18.219  L 102.478, 15.557  L 99.547, 13.970  L 96.616, 12.383  L 93.684, 10.797  L 95.840, 7.226  L 98.613, 9.075  L 101.387, 10.925  L 104.160, 12.774 "/>
        <text class="text" x="100" y="105">Meander</text>
        <path class="stitch_line color_2" d="M 125.840, 87.226  L 127.560, 84.372  L 128.827, 81.719  L 129.742, 79.170  L 130.347, 76.702  L 130.681, 74.287  L 130.772, 71.895  L 130.644, 69.503  L 130.316, 67.093  L 129.807, 64.653  L 129.137, 62.177  L 128.330, 59.662  L 127.412, 57.106  L 126.411, 54.505  L 125.358, 51.857  L 124.283, 49.157  L 123.222, 46.398  L 122.208, 43.574  L 121.278, 40.675  L 120.472, 37.694  L 119.832, 34.623  L 119.402, 31.457  L 119.228, 28.196  L 119.356, 24.848  L 119.829, 21.427  L 120.682, 17.949  L 121.983, 14.448  L 123.962, 11.065  L 126.672, 7.781  L 125.547, 10.428  L 124.175, 14.038  L 122.950, 17.422  L 122.020, 20.715  L 121.459, 23.955  L 121.235, 27.133  L 121.308, 30.244  L 121.641, 33.283  L 122.192, 36.251  L 122.920, 39.152  L 123.787, 41.992  L 124.756, 44.779  L 125.791, 47.520  L 126.858, 50.221  L 127.923, 52.890  L 128.954, 55.530  L 129.920, 58.147  L 130.790, 60.744  L 131.535, 63.326  L 132.128, 65.895  L 132.541, 68.457  L 132.752, 71.020  L 132.734, 73.596  L 132.464, 76.199  L 131.910, 78.849  L 131.048, 81.569  L 130.015, 84.465  L 128.336, 88.891  L 130.032, 87.010  L 131.982, 84.206  L 133.261, 81.294  L 134.079, 78.402  L 134.569, 75.567  L 134.766, 72.779  L 134.701, 70.029  L 134.403, 67.308  L 133.902, 64.610  L 133.229, 61.927  L 132.413, 59.256  L 131.487, 56.592  L 130.481, 53.929  L 129.428, 51.262  L 128.359, 48.587  L 127.309, 45.897  L 126.309, 43.188  L 125.393, 40.453  L 124.595, 37.686  L 123.948, 34.881  L 123.489, 32.033  L 123.252, 29.136  L 123.271, 26.189  L 123.584, 23.188  L 124.222, 20.132  L 125.226, 17.024  L 126.803, 13.953  L 130.000, 10.000  L 128.590, 13.556  L 127.442, 16.725  L 126.428, 19.677  L 125.723, 22.549  L 125.334, 25.367  L 125.228, 28.141  L 125.374, 30.881  L 125.743, 33.594  L 126.305, 36.286  L 127.029, 38.964  L 127.885, 41.632  L 128.842, 44.296  L 129.867, 46.960  L 130.928, 49.629  L 131.994, 52.308  L 133.032, 55.003  L 134.007, 57.721  L 134.888, 60.466  L 135.639, 63.245  L 136.227, 66.063  L 136.617, 68.927  L 136.772, 71.840  L 136.659, 74.806  L 136.241, 77.825  L 135.487, 80.899  L 134.404, 84.045  L 133.171, 87.392  L 131.664, 91.109  L 134.988, 86.938  L 136.645, 83.683  L 137.712, 80.378  L 138.393, 77.119  L 138.726, 73.919  L 138.747, 70.785  L 138.496, 67.722  L 138.014, 64.731  L 137.340, 61.808  L 136.515, 58.948  L 135.576, 56.144  L 134.559, 53.389  L 133.499, 50.675  L 132.430, 47.996  L 131.384, 45.347  L 130.392, 42.723  L 129.487, 40.119  L 128.697, 37.533  L 128.051, 34.960  L 127.575, 32.396  L 127.294, 29.835  L 127.233, 27.265  L 127.416, 24.673  L 127.872, 22.040  L 128.633, 19.348  L 129.837, 16.625  L 131.698, 13.992  L 133.328, 12.219  L 131.776, 16.426  L 130.823, 19.138  L 130.024, 21.660  L 129.513, 24.107  L 129.263, 26.512  L 129.247, 28.901  L 129.444, 31.298  L 129.834, 33.717  L 130.400, 36.168  L 131.118, 38.657  L 131.965, 41.185  L 132.914, 43.756  L 133.936, 46.372  L 135.000, 49.037  L 136.074, 51.756  L 137.123, 54.536  L 138.113, 57.384  L 139.006, 60.309  L 139.762, 63.319  L 140.337, 66.422  L 140.687, 69.620  L 140.765, 72.911  L 140.526, 76.285  L 139.930, 79.727  L 138.944, 83.220  L 137.542, 86.747  L 135.703, 90.296  L 134.160, 92.774 "/>
        <text class="text" x="130" y="105">Stripes</text>
        <path class="stitch_line color_3" d="M 164.160, 92.774  L 164.995, 88.642  L 165.291, 84.773  L 165.095, 81.203  L 164.467, 77.959  L 163.478, 75.046  L 162.200, 72.445  L 160.697, 70.116  L 161.842, 67.575  L 162.779, 64.823  L 163.519, 61.905  L 164.089, 58.865  L 164.524, 55.749  L 164.867, 52.595  L 165.161, 49.442  L 162.801, 47.385  L 160.464, 45.346  L 158.162, 43.278  L 155.911, 41.135  L 153.729, 38.863  L 151.642, 36.410  L 149.684, 33.719  L 150.756, 30.524  L 152.086, 27.489  L 153.681, 24.653  L 155.533, 22.041  L 157.630, 19.656  L 159.962, 17.476  L 162.529, 15.463  L 162.972, 11.981  L 160.021, 14.095  L 157.335, 16.352  L 154.905, 18.797  L 152.736, 21.460  L 150.839, 24.351  L 149.229, 27.456  L 150.756, 30.524  L 152.509, 33.288  L 154.431, 35.794  L 156.481, 38.095  L 158.627, 40.248  L 160.849, 42.305  L 163.129, 44.316  L 162.801, 47.385  L 162.507, 50.500  L 162.201, 53.625  L 161.838, 56.722  L 161.373, 59.752  L 160.767, 62.673  L 159.989, 65.439  L 161.842, 67.575  L 163.546, 69.903  L 165.057, 72.478  L 166.319, 75.347  L 167.264, 78.540  L 167.820, 82.062  L 167.918, 85.897  L 164.995, 88.642  L 161.783, 91.189  L 162.487, 87.274  L 162.665, 83.648  L 162.370, 80.344  L 161.669, 77.379  L 160.637, 74.745  L 162.200, 72.445  L 163.546, 69.903  L 164.667, 67.143  L 165.569, 64.206  L 166.271, 61.137  L 166.805, 57.979  L 167.210, 54.776  L 164.867, 52.595  L 162.507, 50.500  L 160.147, 48.442  L 157.799, 46.375  L 155.476, 44.251  L 153.195, 42.021  L 150.977, 39.631  L 151.642, 36.410  L 152.509, 33.288  L 153.605, 30.311  L 154.943, 27.522  L 156.522, 24.954  L 158.331, 22.621  L 160.355, 20.514  L 159.962, 17.476  L 160.021, 14.095  L 160.594, 10.396  L 157.513, 12.726  L 154.709, 15.227  L 152.180, 17.938  L 149.938, 20.880  L 150.839, 24.351  L 152.086, 27.489  L 153.605, 30.311  L 155.333, 32.857  L 157.221, 35.177  L 159.233, 37.327  L 161.344, 39.362  L 160.849, 42.305  L 160.464, 45.346  L 160.147, 48.442  L 159.853, 51.558  L 159.536, 54.654  L 159.151, 57.695  L 158.656, 60.638  L 160.767, 62.673  L 162.779, 64.823  L 164.667, 67.143  L 166.395, 69.689  L 167.914, 72.511  L 169.161, 75.649  L 170.062, 79.120  L 167.820, 82.062  L 165.291, 84.773  L 162.487, 87.274  L 159.406, 89.604  L 159.979, 85.905  L 160.038, 82.524  L 159.645, 79.486  L 161.669, 77.379  L 163.478, 75.046  L 165.057, 72.478  L 166.395, 69.689  L 167.491, 66.712  L 168.358, 63.590  L 169.023, 60.369  L 166.805, 57.979  L 164.524, 55.749  L 162.201, 53.625  L 159.853, 51.558  L 157.493, 49.500  L 155.133, 47.405  L 152.790, 45.224  L 153.195, 42.021  L 153.729, 38.863  L 154.431, 35.794  L 155.333, 32.857  L 156.454, 30.097  L 157.800, 27.555  L 159.363, 25.255  L 158.331, 22.621  L 157.630, 19.656  L 157.335, 16.352  L 157.513, 12.726  L 158.217, 8.811  L 155.005, 11.358  L 152.082, 14.103  L 152.180, 17.938  L 152.736, 21.460  L 153.681, 24.653  L 154.943, 27.522  L 156.454, 30.097  L 158.158, 32.425  L 160.011, 34.561  L 159.233, 37.327  L 158.627, 40.248  L 158.162, 43.278  L 157.799, 46.375  L 157.493, 49.500  L 157.199, 52.615  L 156.871, 55.684  L 159.151, 57.695  L 161.373, 59.752  L 163.519, 61.905  L 165.569, 64.206  L 167.491, 66.712  L 169.244, 69.476  L 170.771, 72.544  L 169.161, 75.649  L 167.264, 78.540  L 165.095, 81.203  L 162.665, 83.648  L 159.979, 85.905  L 157.028, 88.019  L 157.471, 84.537  L 160.038, 82.524  L 162.370, 80.344  L 164.467, 77.959  L 166.319, 75.347  L 167.914, 72.511  L 169.244, 69.476  L 170.316, 66.281  L 168.358, 63.590  L 166.271, 61.137  L 164.089, 58.865  L 161.838, 56.722  L 159.536, 54.654  L 157.199, 52.615  L 154.839, 50.558  L 155.133, 47.405  L 155.476, 44.251  L 155.911, 41.135  L 156.481, 38.095  L 157.221, 35.177  L 158.158, 32.425  L 159.303, 29.884  L 157.800, 27.555  L 156.522, 24.954  L 155.533, 22.041  L 154.905, 18.797  L 154.709, 15.227  L 155.005, 11.358  L 155.840, 7.226 "/>
        <text class="text" x="160" y="105">Lattice</text>
    </g>
</svg>
