<?xml version="1.0" encoding="utf-8" ?>
<svg xmlns="http://www.w3.org/2000/svg" xmlns:ev="http://www.w3.org/2001/xml-events" xmlns:xlink="http://www.w3.org/1999/xlink" baseProfile="full" height="40mm" version="1.1" viewBox="0,0,140,40" width="140mm">
    <defs>
        <style type="text/css"><![CDATA[
.stitch_line {
    stroke-width: 0.3;
    stroke-linejoin: round;
    stroke-linecap: round;
    fill: none;
}
.path_center_line {
    fill: none;
    stroke:#808080;
    stroke-width: 0.2;
    stroke-linejoin: round;
    stroke-linecap: round;
}
.path_contour {
    fill: #808080;
    fill-opacity: 0.3;
    stroke: #808080;
    stroke-opacity: 1;
    stroke-width: 0.3;
}
.text{
    text-anchor: middle;
    dominant-baseline: middle;
    font-family: sans-serif;
    font-size: 1.5mm;
}
.smalltext{
    text-anchor: middle;
    dominant-baseline: middle;
    font-family: sans-serif;
    font-size: 1mm;
}
.line_0 {
    fill: none;
    stroke:#3bb2d0;
    stroke-width:0.8;
}
.line_1 {
    fill: none;
    stroke:#3887be;
    stroke-width:0.2;
}
]]></style>
    </defs>
    <g>
        <g transform="translate(70.0,20.0)">
            <g>
                <path class="path_contour" d="M -60.000, 0.000  L -59.502, -0.041  L -59.004, -0.083  L -58.506, -0.124  L -58.008, -0.166  L -57.510, -0.207  L -57.012, -0.249  L -56.515, -0.290  L -56.017, -0.332  L -55.519, -0.373  L -55.021, -0.415  L -54.523, -0.456  L -54.025, -0.498  L -53.527, -0.539  L -53.029, -0.581  L -52.531, -0.622  L -52.033, -0.664  L -51.535, -0.705  L -51.037, -0.747  L -50.539, -0.788  L -50.041, -0.830  L -49.544, -0.871  L -49.046, -0.913  L -48.548, -0.954  L -48.050, -0.996  L -47.552, -1.037  L -47.054, -1.079  L -46.556, -1.120  L -46.058, -1.162  L -45.560, -1.203  L -45.062, -1.245  L -44.564, -1.286  L -44.066, -1.328  L -43.568, -1.369  L -43.071, -1.411  L -42.573, -1.452  L -42.075, -1.494  L -41.577, -1.535  L -41.079, -1.577  L -40.581, -1.618  L -40.083, -1.660  L -39.585, -1.701  L -39.087, -1.743  L -38.589, -1.784  L -38.091, -1.826  L -37.593, -1.867  L -37.095, -1.909  L -36.598, -1.950  L -36.100, -1.992  L -35.602, -2.033  L -35.104, -2.075  L -34.606, -2.116  L -34.108, -2.158  L -33.610, -2.199  L -33.112, -2.241  L -32.614, -2.282  L -32.116, -2.324  L -31.618, -2.365  L -31.120, -2.407  L -30.622, -2.448  L -30.124, -2.490  L -29.627, -2.531  L -29.129, -2.573  L -28.631, -2.614  L -28.133, -2.656  L -27.635, -2.697  L -27.137, -2.739  L -26.639, -2.780  L -26.141, -2.822  L -25.643, -2.863  L -25.145, -2.905  L -24.647, -2.946  L -24.149, -2.988  L -23.651, -3.029  L -23.154, -3.071  L -22.656, -3.112  L -22.158, -3.154  L -21.660, -3.195  L -21.162, -3.237  L -20.664, -3.278  L -20.166, -3.320  L -19.668, -3.361  L -19.170, -3.402  L -18.672, -3.444  L -18.174, -3.485  L -17.676, -3.527  L -17.178, -3.568  L -16.680, -3.610  L -16.183, -3.651  L -15.685, -3.693  L -15.187, -3.734  L -14.689, -3.776  L -14.191, -3.817  L -13.693, -3.859  L -13.195, -3.900  L -12.697, -3.942  L -12.199, -3.983  L -11.701, -4.025  L -11.203, -4.066  L -10.705, -4.108  L -10.207, -4.149  L -9.710, -4.191  L -9.212, -4.232  L -8.714, -4.274  L -8.216, -4.315  L -7.718, -4.357  L -7.220, -4.398  L -6.722, -4.440  L -6.224, -4.481  L -5.726, -4.523  L -5.228, -4.564  L -4.730, -4.606  L -4.232, -4.647  L -3.734, -4.689  L -3.237, -4.730  L -2.739, -4.772  L -2.241, -4.813  L -1.743, -4.855  L -1.245, -4.896  L -0.747, -4.938  L -0.249, -4.979  L 0.249, -5.021  L 0.747, -5.062  L 1.245, -5.104  L 1.743, -5.145  L 2.241, -5.187  L 2.739, -5.228  L 3.237, -5.270  L 3.734, -5.311  L 4.232, -5.353  L 4.730, -5.394  L 5.228, -5.436  L 5.726, -5.477  L 6.224, -5.519  L 6.722, -5.560  L 7.220, -5.602  L 7.718, -5.643  L 8.216, -5.685  L 8.714, -5.726  L 9.212, -5.768  L 9.710, -5.809  L 10.207, -5.851  L 10.705, -5.892  L 11.203, -5.934  L 11.701, -5.975  L 12.199, -6.017  L 12.697, -6.058  L 13.195, -6.100  L 13.693, -6.141  L 14.191, -6.183  L 14.689, -6.224  L 15.187, -6.266  L 15.685, -6.307  L 16.183, -6.349  L 16.680, -6.390  L 17.178, -6.432  L 17.676, -6.473  L 18.174, -6.515  L 18.672, -6.556  L 19.170, -6.598  L 19.668, -6.639  L 20.166, -6.680  L 20.664, -6.722  L 21.162, -6.763  L 21.660, -6.805  L 22.158, -6.846  L 22.656, -6.888  L 23.154, -6.929  L 23.651, -6.971  L 24.149, -7.012  L 24.647, -7.054  L 25.145, -7.095  L 25.643, -7.137  L 26.141, -7.178  L 26.639, -7.220  L 27.137, -7.261  L 27.635, -7.303  L 28.133, -7.344  L 28.631, -7.386  L 29.129, -7.427  L 29.627, -7.469  L 30.124, -7.510  L 30.622, -7.552  L 31.120, -7.593  L 31.618, -7.635  L 32.116, -7.676  L 32.614, -7.718  L 33.112, -7.759  L 33.610, -7.801  L 34.108, -7.842  L 34.606, -7.884  L 35.104, -7.925  L 35.602, -7.967  L 36.100, -8.008  L 36.598, -8.050  L 37.095, -8.091  L 37.593, -8.133  L 38.091, -8.174  L 38.589, -8.216  L 39.087, -8.257  L 39.585, -8.299  L 40.083, -8.340  L 40.581, -8.382  L 41.079, -8.423  L 41.577, -8.465  L 42.075, -8.506  L 42.573, -8.548  L 43.071, -8.589  L 43.568, -8.631  L 44.066, -8.672  L 44.564, -8.714  L 45.062, -8.755  L 45.560, -8.797  L 46.058, -8.838  L 46.556, -8.880  L 47.054, -8.921  L 47.552, -8.963  L 48.050, -9.004  L 48.548, -9.046  L 49.046, -9.087  L 49.544, -9.129  L 50.041, -9.170  L 50.539, -9.212  L 51.037, -9.253  L 51.535, -9.295  L 52.033, -9.336  L 52.531, -9.378  L 53.029, -9.419  L 53.527, -9.461  L 54.025, -9.502  L 54.523, -9.544  L 55.021, -9.585  L 55.519, -9.627  L 56.017, -9.668  L 56.515, -9.710  L 57.012, -9.751  L 57.510, -9.793  L 58.008, -9.834  L 58.506, -9.876  L 59.004, -9.917  L 59.502, -9.959  L 60.000, -10.000  L 60.000, -9.500  L 60.000, -9.000  L 60.000, -8.500  L 60.000, -8.000  L 60.000, -7.500  L 60.000, -7.000  L 60.000, -6.500  L 60.000, -6.000  L 60.000, -5.500  L 60.000, -5.000  L 60.000, -4.500  L 60.000, -4.000  L 60.000, -3.500  L 60.000, -3.000  L 60.000, -2.500  L 60.000, -2.000  L 60.000, -1.500  L 60.000, -1.000  L 60.000, -0.500  L 60.000, 0.000  L 59.502, 0.041  L 59.004, 0.083  L 58.506, 0.124  L 58.008, 0.166  L 57.510, 0.207  L 57.012, 0.249  L 56.515, 0.290  L 56.017, 0.332  L 55.519, 0.373  L 55.021, 0.415  L 54.523, 0.456  L 54.025, 0.498  L 53.527, 0.539  L 53.029, 0.581  L 52.531, 0.622  L 52.033, 0.664  L 51.535, 0.705  L 51.037, 0.747  L 50.539, 0.788  L 50.041, 0.830  L 49.544, 0.871  L 49.046, 0.913  L 48.548, 0.954  L 48.050, 0.996  L 47.552, 1.037  L 47.054, 1.079  L 46.556, 1.120  L 46.058, 1.162  L 45.560, 1.203  L 45.062, 1.245  L 44.564, 1.286  L 44.066, 1.328  L 43.568, 1.369  L 43.071, 1.411  L 42.573, 1.452  L 42.075, 1.494  L 41.577, 1.535  L 41.079, 1.577  L 40.581, 1.618  L 40.083, 1.660  L 39.585, 1.701  L 39.087, 1.743  L 38.589, 1.784  L 38.091, 1.826  L 37.593, 1.867  L 37.095, 1.909  L 36.598, 1.950  L 36.100, 1.992  L 35.602, 2.033  L 35.104, 2.075  L 34.606, 2.116  L 34.108, 2.158  L 33.610, 2.199  L 33.112, 2.241  L 32.614, 2.282  L 32.116, 2.324  L 31.618, 2.365  L 31.120, 2.407  L 30.622, 2.448  L 30.124, 2.490  L 29.627, 2.531  L 29.129, 2.573  L 28.631, 2.614  L 28.133, 2.656  L 27.635, 2.697  L 27.137, 2.739  L 26.639, 2.780  L 26.141, 2.822  L 25.643, 2.863  L 25.145, 2.905  L 24.647, 2.946  L 24.149, 2.988  L 23.651, 3.029  L 23.154, 3.071  L 22.656, 3.112  L 22.158, 3.154  L 21.660, 3.195  L 21.162, 3.237  L 20.664, 3.278  L 20.166, 3.320  L 19.668, 3.361  L 19.170, 3.402  L 18.672, 3.444  L 18.174, 3.485  L 17.676, 3.527  L 17.178, 3.568  L 16.680, 3.610  L 16.183, 3.651  L 15.685, 3.693  L 15.187, 3.734  L 14.689, 3.776  L 14.191, 3.817  L 13.693, 3.859  L 13.195, 3.900  L 12.697, 3.942  L 12.199, 3.983  L 11.701, 4.025  L 11.203, 4.066  L 10.705, 4.108  L 10.207, 4.149  L 9.710, 4.191  L 9.212, 4.232  L 8.714, 4.274  L 8.216, 4.315  L 7.718, 4.357  L 7.220, 4.398  L 6.722, 4.440  L 6.224, 4.481  L 5.726, 4.523  L 5.228, 4.564  L 4.730, 4.606  L 4.232, 4.647  L 3.734, 4.689  L 3.237, 4.730  L 2.739, 4.772  L 2.241, 4.813  L 1.743, 4.855  L 1.245, 4.896  L 0.747, 4.938  L 0.249, 4.979  L -0.249, 5.021  L -0.747, 5.062  L -1.245, 5.104  L -1.743, 5.145  L -2.241, 5.187  L -2.739, 5.228  L -3.237, 5.270  L -3.734, 5.311  L -4.232, 5.353  L -4.730, 5.394  L -5.228, 5.436  L -5.726, 5.477  L -6.224, 5.519  L -6.722, 5.560  L -7.220, 5.602  L -7.718, 5.643  L -8.216, 5.685  L -8.714, 5.726  L -9.212, 5.768  L -9.710, 5.809  L -10.207, 5.851  L -10.705, 5.892  L -11.203, 5.934  L -11.701, 5.975  L -12.199, 6.017  L -12.697, 6.058  L -13.195, 6.100  L -13.693, 6.141  L -14.191, 6.183  L -14.689, 6.224  L -15.187, 6.266  L -15.685, 6.307  L -16.183, 6.349  L -16.680, 6.390  L -17.178, 6.432  L -17.676, 6.473  L -18.174, 6.515  L -18.672, 6.556  L -19.170, 6.598  L -19.668, 6.639  L -20.166, 6.680  L -20.664, 6.722  L -21.162, 6.763  L -21.660, 6.805  L -22.158, 6.846  L -22.656, 6.888  L -23.154, 6.929  L -23.651, 6.971  L -24.149, 7.012  L -24.647, 7.054  L -25.145, 7.095  L -25.643, 7.137  L -26.141, 7.178  L -26.639, 7.220  L -27.137, 7.261  L -27.635, 7.303  L -28.133, 7.344  L -28.631, 7.386  L -29.129, 7.427  L -29.627, 7.469  L -30.124, 7.510  L -30.622, 7.552  L -31.120, 7.593  L -31.618, 7.635  L -32.116, 7.676  L -32.614, 7.718  L -33.112, 7.759  L -33.610, 7.801  L -34.108, 7.842  L -34.606, 7.884  L -35.104, 7.925  L -35.602, 7.967  L -36.100, 8.008  L -36.598, 8.050  L -37.095, 8.091  L -37.593, 8.133  L -38.091, 8.174  L -38.589, 8.216  L -39.087, 8.257  L -39.585, 8.299  L -40.083, 8.340  L -40.581, 8.382  L -41.079, 8.423  L -41.577, 8.465  L -42.075, 8.506  L -42.573, 8.548  L -43.071, 8.589  L -43.568, 8.631  L -44.066, 8.672  L -44.564, 8.714  L -45.062, 8.755  L -45.560, 8.797  L -46.058, 8.838  L -46.556, 8.880  L -47.054, 8.921  L -47.552, 8.963  L -48.050, 9.004  L -48.548, 9.046  L -49.046, 9.087  L -49.544, 9.129  L -50.041, 9.170  L -50.539, 9.212  L -51.037, 9.253  L -51.535, 9.295  L -52.033, 9.336  L -52.531, 9.378  L -53.029, 9.419  L -53.527, 9.461  L -54.025, 9.502  L -54.523, 9.544  L -55.021, 9.585  L -55.519, 9.627  L -56.017, 9.668  L -56.515, 9.710  L -57.012, 9.751  L -57.510, 9.793  L -58.008, 9.834  L -58.506, 9.876  L -59.004, 9.917  L -59.502, 9.959  L -60.000, 10.000  L -60.000, 9.500  L -60.000, 9.000  L -60.000, 8.500  L -60.000, 8.000  L -60.000, 7.500  L -60.000, 7.000  L -60.000, 6.500  L -60.000, 6.000  L -60.000, 5.500  L -60.000, 5.000  L -60.000, 4.500  L -60.000, 4.000  L -60.000, 3.500  L -60.000, 3.000  L -60.000, 2.500  L -60.000, 2.000  L -60.000, 1.500  L -60.000, 1.000  L -60.000, 0.500  L -60.000, 0.000  Z"/>
                <path class="path_center_line" d="M -60.000, 0.000  L -59.500, 0.000  L -59.000, 0.000  L -58.500, 0.000  L -58.000, 0.000  L -57.500, 0.000  L -57.000, 0.000  L -56.500, 0.000  L -56.000, 0.000  L -55.500, 0.000  L -55.000, 0.000  L -54.500, 0.000  L -54.000, 0.000  L -53.500, 0.000  L -53.000, 0.000  L -52.500, 0.000  L -52.000, 0.000  L -51.500, 0.000  L -51.000, 0.000  L -50.500, 0.000  L -50.000, 0.000  L -49.500, 0.000  L -49.000, 0.000  L -48.500, 0.000  L -48.000, 0.000  L -47.500, 0.000  L -47.000, 0.000  L -46.500, 0.000  L -46.000, 0.000  L -45.500, 0.000  L -45.000, 0.000  L -44.500, 0.000  L -44.000, 0.000  L -43.500, 0.000  L -43.000, 0.000  L -42.500, 0.000  L -42.000, 0.000  L -41.500, 0.000  L -41.000, 0.000  L -40.500, 0.000  L -40.000, 0.000  L -39.500, 0.000  L -39.000, 0.000  L -38.500, 0.000  L -38.000, 0.000  L -37.500, 0.000  L -37.000, 0.000  L -36.500, 0.000  L -36.000, 0.000  L -35.500, 0.000  L -35.000, 0.000  L -34.500, 0.000  L -34.000, 0.000  L -33.500, 0.000  L -33.000, 0.000  L -32.500, 0.000  L -32.000, 0.000  L -31.500, 0.000  L -31.000, 0.000  L -30.500, 0.000  L -30.000, 0.000  L -29.500, 0.000  L -29.000, 0.000  L -28.500, 0.000  L -28.000, 0.000  L -27.500, 0.000  L -27.000, 0.000  L -26.500, 0.000  L -26.000, 0.000  L -25.500, 0.000  L -25.000, 0.000  L -24.500, 0.000  L -24.000, 0.000  L -23.500, 0.000  L -23.000, 0.000  L -22.500, 0.000  L -22.000, 0.000  L -21.500, 0.000  L -21.000, 0.000  L -20.500, 0.000  L -20.000, 0.000  L -19.500, 0.000  L -19.000, 0.000  L -18.500, 0.000  L -18.000, 0.000  L -17.500, 0.000  L -17.000, 0.000  L -16.500, 0.000  L -16.000, 0.000  L -15.500, 0.000  L -15.000, 0.000  L -14.500, 0.000  L -14.000, 0.000  L -13.500, 0.000  L -13.000, 0.000  L -12.500, 0.000  L -12.000, 0.000  L -11.500, 0.000  L -11.000, 0.000  L -10.500, 0.000  L -10.000, 0.000  L -9.500, 0.000  L -9.000, 0.000  L -8.500, 0.000  L -8.000, 0.000  L -7.500, 0.000  L -7.000, 0.000  L -6.500, 0.000  L -6.000, 0.000  L -5.500, 0.000  L -5.000, 0.000  L -4.500, 0.000  L -4.000, 0.000  L -3.500, 0.000  L -3.000, 0.000  L -2.500, 0.000  L -2.000, 0.000  L -1.500, 0.000  L -1.000, 0.000  L -0.500, 0.000  L 0.000, 0.000  L 0.500, 0.000  L 1.000, 0.000  L 1.500, 0.000  L 2.000, 0.000  L 2.500, 0.000  L 3.000, 0.000  L 3.500, 0.000  L 4.000, 0.000  L 4.500, 0.000  L 5.000, 0.000  L 5.500, 0.000  L 6.000, 0.000  L 6.500, 0.000  L 7.000, 0.000  L 7.500, 0.000  L 8.000, 0.000  L 8.500, 0.000  L 9.000, 0.000  L 9.500, 0.000  L 10.000, 0.000  L 10.500, 0.000  L 11.000, 0.000  L 11.500, 0.000  L 12.000, 0.000  L 12.500, 0.000  L 13.000, 0.000  L 13.500, 0.000  L 14.000, 0.000  L 14.500, 0.000  L 15.000, 0.000  L 15.500, 0.000  L 16.000, 0.000  L 16.500, 0.000  L 17.000, 0.000  L 17.500, 0.000  L 18.000, 0.000  L 18.500, 0.000  L 19.000, 0.000  L 19.500, 0.000  L 20.000, 0.000  L 20.500, 0.000  L 21.000, 0.000  L 21.500, 0.000  L 22.000, 0.000  L 22.500, 0.000  L 23.000, 0.000  L 23.500, 0.000  L 24.000, 0.000  L 24.500, 0.000  L 25.000, 0.000  L 25.500, 0.000  L 26.000, 0.000  L 26.500, 0.000  L 27.000, 0.000  L 27.500, 0.000  L 28.000, 0.000  L 28.500, 0.000  L 29.000, 0.000  L 29.500, 0.000  L 30.000, 0.000  L 30.500, 0.000  L 31.000, 0.000  L 31.500, 0.000  L 32.000, 0.000  L 32.500, 0.000  L 33.000, 0.000  L 33.500, 0.000  L 34.000, 0.000  L 34.500, 0.000  L 35.000, 0.000  L 35.500, 0.000  L 36.000, 0.000  L 36.500, 0.000  L 37.000, 0.000  L 37.500, 0.000  L 38.000, 0.000  L 38.500, 0.000  L 39.000, 0.000  L 39.500, 0.000  L 40.000, 0.000  L 40.500, 0.000  L 41.000, 0.000  L 41.500, 0.000  L 42.000, 0.000  L 42.500, 0.000  L 43.000, 0.000  L 43.500, 0.000  L 44.000, 0.000  L 44.500, 0.000  L 45.000, 0.000  L 45.500, 0.000  L 46.000, 0.000  L 46.500, 0.000  L 47.000, 0.000  L 47.500, 0.000  L 48.000, 0.000  L 48.500, 0.000  L 49.000, 0.000  L 49.500, 0.000  L 50.000, 0.000  L 50.500, 0.000  L 51.000, 0.000  L 51.500, 0.000  L 52.000, 0.000  L 52.500, 0.000  L 53.000, 0.000  L 53.500, 0.000  L 54.000, 0.000  L 54.500, 0.000  L 55.000, 0.000  L 55.500, 0.000  L 56.000, 0.000  L 56.500, 0.000  L 57.000, 0.000  L 57.500, 0.000  L 58.000, 0.000  L 58.500, 0.000  L 59.000, 0.000  L 59.500, 0.000  L 60.000, 0.000 "/>
            </g>
            <path class="line_0" d="M -60.000, 0.000  L -60.000, 0.000 "/>
            <path class="line_0" d="M -48.000, -1.000  L -48.000, 0.000 "/>
            <path class="line_0" d="M -36.000, -2.000  L -36.000, 0.000 "/>
            <path class="line_0" d="M -24.000, -3.000  L -24.000, 0.000 "/>
            <path class="line_0" d="M -12.000, -4.000  L -12.000, 0.000 "/>
            <path class="line_0" d="M 0.000, -5.000  L 0.000, 0.000 "/>
            <path class="line_0" d="M 12.000, -6.000  L 12.000, 0.000 "/>
            <path class="line_0" d="M 24.000, -7.000  L 24.000, 0.000 "/>
            <path class="line_0" d="M 36.000, -8.000  L 36.000, 0.000 "/>
            <path class="line_0" d="M 48.000, -9.000  L 48.000, 0.000 "/>
            <path class="line_0" d="M 60.000, -10.000  L 60.000, 0.000 "/>
            <path class="line_1" d="M -60.000, 0.000  L -60.000, 10.000 "/>
            <path class="line_1" d="M -48.000, 0.000  L -48.000, 9.000 "/>
            <path class="line_1" d="M -36.000, 0.000  L -36.000, 8.000 "/>
            <path class="line_1" d="M -24.000, 0.000  L -24.000, 7.000 "/>
            <path class="line_1" d="M -12.000, 0.000  L -12.000, 6.000 "/>
            <path class="line_1" d="M 0.000, 0.000  L 0.000, 5.000 "/>
            <path class="line_1" d="M 12.000, 0.000  L 12.000, 4.000 "/>
            <path class="line_1" d="M 24.000, 0.000  L 24.000, 3.000 "/>
            <path class="line_1" d="M 36.000, 0.000  L 36.000, 2.000 "/>
            <path class="line_1" d="M 48.000, 0.000  L 48.000, 1.000 "/>
            <path class="line_1" d="M 60.000, 0.000  L 60.000, 0.000 "/>
        </g>
    </g>
</svg>
