<?xml version="1.0" encoding="utf-8" ?>
<svg xmlns="http://www.w3.org/2000/svg" xmlns:ev="http://www.w3.org/2001/xml-events" xmlns:xlink="http://www.w3.org/1999/xlink" baseProfile="full" height="40mm" version="1.1" viewBox="0,0,140,40" width="140mm">
    <defs>
        <style type="text/css"><![CDATA[
.stitch_line {
    stroke-width: 0.3;
    stroke-linejoin: round;
    stroke-linecap: round;
    fill: none;
}
.path_center_line {
    fill: none;
    stroke:#808080;
    stroke-width: 0.2;
    stroke-linejoin: round;
    stroke-linecap: round;
}
.path_contour {
    fill: #808080;
    fill-opacity: 0.3;
    stroke: #808080;
    stroke-opacity: 1;
    stroke-width: 0.3;
}
.text{
    text-anchor: middle;
    dominant-baseline: middle;
    font-family: sans-serif;
    font-size: 1.5mm;
}
.smalltext{
    text-anchor: middle;
    dominant-baseline: middle;
    font-family: sans-serif;
    font-size: 1mm;
}
.line_0 {
    fill: none;
    stroke:#3bb2d0;
    stroke-width:0.8;
}
]]></style>
    </defs>
    <g>
        <g transform="translate(70.0,20.0)">
            <g>
                <path class="path_contour" d="M -60.000, 0.000  L -59.552, 0.178  L -59.104, 0.352  L -58.654, 0.521  L -58.203, 0.687  L -57.750, 0.849  L -57.297, 1.006  L -56.843, 1.159  L -56.387, 1.308  L -55.931, 1.453  L -55.474, 1.594  L -55.015, 1.730  L -54.556, 1.863  L -54.096, 1.990  L -53.636, 2.114  L -53.174, 2.233  L -52.712, 2.349  L -52.249, 2.459  L -51.786, 2.566  L -51.321, 2.668  L -50.857, 2.766  L -50.392, 2.860  L -49.926, 2.949  L -49.460, 3.034  L -48.993, 3.115  L -48.526, 3.191  L -48.059, 3.264  L -47.591, 3.332  L -47.123, 3.395  L -46.655, 3.455  L -46.186, 3.510  L -45.718, 3.562  L -45.249, 3.609  L -44.780, 3.652  L -44.311, 3.691  L -43.842, 3.725  L -43.373, 3.756  L -42.904, 3.783  L -42.435, 3.806  L -41.966, 3.825  L -41.497, 3.840  L -41.029, 3.851  L -40.560, 3.858  L -40.091, 3.862  L -39.623, 3.862  L -39.155, 3.858  L -38.687, 3.850  L -38.219, 3.839  L -37.752, 3.824  L -37.284, 3.806  L -36.818, 3.784  L -36.351, 3.759  L -35.884, 3.731  L -35.418, 3.699  L -34.953, 3.663  L -34.487, 3.625  L -34.022, 3.583  L -33.557, 3.538  L -33.093, 3.490  L -32.629, 3.439  L -32.165, 3.385  L -31.702, 3.328  L -31.239, 3.268  L -30.776, 3.205  L -30.314, 3.140  L -29.853, 3.071  L -29.391, 3.000  L -28.930, 2.926  L -28.470, 2.850  L -28.009, 2.771  L -27.549, 2.689  L -27.090, 2.605  L -26.631, 2.519  L -26.172, 2.430  L -25.714, 2.338  L -25.256, 2.245  L -24.798, 2.149  L -24.341, 2.051  L -23.884, 1.951  L -23.427, 1.849  L -22.971, 1.745  L -22.515, 1.638  L -22.059, 1.530  L -21.604, 1.420  L -21.149, 1.308  L -20.694, 1.194  L -20.239, 1.078  L -19.785, 0.961  L -19.331, 0.842  L -18.877, 0.721  L -18.423, 0.598  L -17.970, 0.474  L -17.517, 0.349  L -17.064, 0.222  L -16.611, 0.094  L -16.159, -0.036  L -15.706, -0.168  L -15.254, -0.300  L -14.801, -0.434  L -14.349, -0.569  L -13.897, -0.705  L -13.445, -0.843  L -12.994, -0.981  L -12.542, -1.121  L -12.090, -1.261  L -11.638, -1.403  L -11.186, -1.546  L -10.735, -1.689  L -10.283, -1.834  L -9.831, -1.979  L -9.379, -2.125  L -8.927, -2.272  L -8.475, -2.420  L -8.022, -2.568  L -7.570, -2.717  L -7.118, -2.866  L -6.665, -3.017  L -6.212, -3.167  L -5.759, -3.318  L -5.306, -3.470  L -4.852, -3.622  L -4.398, -3.775  L -3.944, -3.928  L -3.490, -4.081  L -3.035, -4.235  L -2.580, -4.388  L -2.125, -4.542  L -1.669, -4.696  L -1.213, -4.851  L -0.756, -5.005  L -0.299, -5.160  L 0.158, -5.314  L 0.616, -5.469  L 1.075, -5.623  L 1.534, -5.777  L 1.993, -5.932  L 2.453, -6.086  L 2.914, -6.240  L 3.375, -6.393  L 3.837, -6.547  L 4.299, -6.700  L 4.762, -6.852  L 5.226, -7.005  L 5.690, -7.156  L 6.156, -7.308  L 6.622, -7.459  L 7.088, -7.609  L 7.556, -7.759  L 8.024, -7.908  L 8.493, -8.056  L 8.963, -8.204  L 9.434, -8.351  L 9.905, -8.497  L 10.378, -8.642  L 10.851, -8.787  L 11.326, -8.930  L 11.801, -9.073  L 12.278, -9.214  L 12.755, -9.354  L 13.234, -9.494  L 13.713, -9.632  L 14.194, -9.769  L 14.675, -9.904  L 15.158, -10.039  L 15.642, -10.172  L 16.127, -10.303  L 16.613, -10.433  L 17.100, -10.562  L 17.589, -10.689  L 18.079, -10.814  L 18.570, -10.938  L 19.062, -11.060  L 19.555, -11.180  L 20.050, -11.298  L 20.546, -11.415  L 21.044, -11.529  L 21.542, -11.642  L 22.043, -11.753  L 22.544, -11.861  L 23.047, -11.967  L 23.551, -12.071  L 24.056, -12.173  L 24.563, -12.272  L 25.072, -12.369  L 25.582, -12.463  L 26.093, -12.555  L 26.605, -12.644  L 27.119, -12.731  L 27.635, -12.815  L 28.152, -12.896  L 28.670, -12.974  L 29.190, -13.049  L 29.711, -13.121  L 30.234, -13.191  L 30.758, -13.257  L 31.283, -13.319  L 31.810, -13.379  L 32.338, -13.435  L 32.867, -13.488  L 33.398, -13.537  L 33.931, -13.583  L 34.464, -13.625  L 34.999, -13.663  L 35.535, -13.698  L 36.073, -13.729  L 36.611, -13.756  L 37.151, -13.779  L 37.692, -13.798  L 38.235, -13.813  L 38.778, -13.824  L 39.322, -13.830  L 39.868, -13.832  L 40.414, -13.830  L 40.961, -13.824  L 41.509, -13.813  L 42.058, -13.798  L 42.608, -13.778  L 43.159, -13.754  L 43.710, -13.724  L 44.262, -13.691  L 44.814, -13.652  L 45.367, -13.609  L 45.920, -13.560  L 46.474, -13.507  L 47.028, -13.449  L 47.582, -13.386  L 48.136, -13.318  L 48.691, -13.245  L 49.245, -13.168  L 49.800, -13.085  L 50.354, -12.996  L 50.908, -12.903  L 51.462, -12.805  L 52.016, -12.702  L 52.569, -12.593  L 53.121, -12.480  L 53.673, -12.361  L 54.224, -12.238  L 54.775, -12.109  L 55.324, -11.975  L 55.873, -11.836  L 56.421, -11.692  L 56.968, -11.543  L 57.513, -11.389  L 58.058, -11.229  L 58.601, -11.065  L 59.143, -10.896  L 59.683, -10.723  L 60.222, -10.544  L 60.759, -10.360  L 61.295, -10.172  L 61.829, -9.979  L 62.361, -9.781  L 62.892, -9.579  L 63.421, -9.372  L 63.947, -9.160  L 64.472, -8.944  L 64.249, -8.497  L 64.025, -8.050  L 63.801, -7.603  L 63.578, -7.155  L 63.354, -6.708  L 63.130, -6.261  L 62.907, -5.814  L 62.683, -5.367  L 62.460, -4.919  L 62.236, -4.472  L 62.012, -4.025  L 61.789, -3.578  L 61.565, -3.130  L 61.342, -2.683  L 61.118, -2.236  L 60.894, -1.789  L 60.671, -1.342  L 60.447, -0.894  L 60.224, -0.447  L 60.000, 0.000  L 59.776, 0.447  L 59.553, 0.894  L 59.329, 1.342  L 59.106, 1.789  L 58.882, 2.236  L 58.658, 2.683  L 58.435, 3.130  L 58.211, 3.578  L 57.988, 4.025  L 57.764, 4.472  L 57.540, 4.919  L 57.317, 5.367  L 57.093, 5.814  L 56.870, 6.261  L 56.646, 6.708  L 56.422, 7.155  L 56.199, 7.603  L 55.975, 8.050  L 55.751, 8.497  L 55.528, 8.944  L 55.165, 8.718  L 54.800, 8.495  L 54.433, 8.275  L 54.064, 8.059  L 53.693, 7.847  L 53.320, 7.638  L 52.945, 7.432  L 52.568, 7.231  L 52.189, 7.032  L 51.808, 6.838  L 51.425, 6.647  L 51.040, 6.460  L 50.653, 6.276  L 50.264, 6.096  L 49.872, 5.920  L 49.479, 5.747  L 49.084, 5.579  L 48.686, 5.414  L 48.287, 5.252  L 47.885, 5.095  L 47.482, 4.941  L 47.076, 4.791  L 46.668, 4.645  L 46.258, 4.502  L 45.846, 4.364  L 45.432, 4.229  L 45.017, 4.098  L 44.599, 3.970  L 44.179, 3.847  L 43.757, 3.727  L 43.333, 3.611  L 42.907, 3.499  L 42.479, 3.391  L 42.049, 3.286  L 41.617, 3.186  L 41.183, 3.089  L 40.747, 2.995  L 40.310, 2.906  L 39.870, 2.820  L 39.429, 2.738  L 38.986, 2.660  L 38.541, 2.585  L 38.095, 2.514  L 37.647, 2.447  L 37.197, 2.383  L 36.745, 2.323  L 36.292, 2.266  L 35.837, 2.213  L 35.380, 2.163  L 34.922, 2.117  L 34.462, 2.075  L 34.001, 2.036  L 33.539, 2.000  L 33.075, 1.968  L 32.609, 1.939  L 32.142, 1.913  L 31.674, 1.890  L 31.205, 1.871  L 30.734, 1.855  L 30.262, 1.842  L 29.789, 1.832  L 29.314, 1.825  L 28.838, 1.821  L 28.362, 1.820  L 27.884, 1.823  L 27.405, 1.828  L 26.925, 1.835  L 26.444, 1.846  L 25.962, 1.859  L 25.478, 1.875  L 24.994, 1.894  L 24.509, 1.915  L 24.024, 1.939  L 23.537, 1.965  L 23.049, 1.994  L 22.561, 2.025  L 22.071, 2.059  L 21.581, 2.094  L 21.090, 2.132  L 20.599, 2.173  L 20.106, 2.215  L 19.613, 2.259  L 19.119, 2.306  L 18.625, 2.354  L 18.129, 2.405  L 17.634, 2.457  L 17.137, 2.511  L 16.640, 2.567  L 16.142, 2.625  L 15.644, 2.684  L 15.145, 2.745  L 14.645, 2.807  L 14.145, 2.871  L 13.644, 2.937  L 13.143, 3.004  L 12.641, 3.072  L 12.138, 3.141  L 11.635, 3.212  L 11.132, 3.284  L 10.628, 3.357  L 10.123, 3.431  L 9.618, 3.506  L 9.112, 3.583  L 8.606, 3.660  L 8.100, 3.738  L 7.593, 3.817  L 7.085, 3.896  L 6.577, 3.976  L 6.068, 4.057  L 5.559, 4.139  L 5.050, 4.221  L 4.540, 4.304  L 4.029, 4.387  L 3.518, 4.471  L 3.007, 4.555  L 2.495, 4.639  L 1.982, 4.724  L 1.469, 4.808  L 0.956, 4.893  L 0.442, 4.978  L -0.072, 5.063  L -0.587, 5.148  L -1.103, 5.233  L -1.618, 5.318  L -2.135, 5.402  L -2.652, 5.487  L -3.169, 5.571  L -3.687, 5.655  L -4.205, 5.738  L -4.724, 5.821  L -5.243, 5.903  L -5.763, 5.985  L -6.283, 6.067  L -6.804, 6.147  L -7.325, 6.227  L -7.847, 6.306  L -8.369, 6.385  L -8.891, 6.462  L -9.415, 6.538  L -9.938, 6.614  L -10.462, 6.688  L -10.987, 6.761  L -11.512, 6.833  L -12.038, 6.904  L -12.564, 6.974  L -13.091, 7.042  L -13.618, 7.109  L -14.145, 7.174  L -14.673, 7.238  L -15.202, 7.300  L -15.731, 7.360  L -16.260, 7.419  L -16.790, 7.476  L -17.320, 7.531  L -17.851, 7.584  L -18.382, 7.635  L -18.914, 7.684  L -19.446, 7.731  L -19.978, 7.776  L -20.511, 7.819  L -21.044, 7.859  L -21.578, 7.897  L -22.111, 7.933  L -22.646, 7.966  L -23.180, 7.996  L -23.715, 8.024  L -24.250, 8.049  L -24.785, 8.071  L -25.321, 8.091  L -25.856, 8.107  L -26.392, 8.121  L -26.928, 8.132  L -27.465, 8.139  L -28.001, 8.144  L -28.537, 8.145  L -29.074, 8.142  L -29.610, 8.137  L -30.147, 8.128  L -30.683, 8.115  L -31.219, 8.099  L -31.756, 8.080  L -32.292, 8.056  L -32.828, 8.029  L -33.363, 7.999  L -33.898, 7.964  L -34.433, 7.925  L -34.968, 7.882  L -35.502, 7.836  L -36.036, 7.785  L -36.569, 7.730  L -37.102, 7.671  L -37.634, 7.608  L -38.165, 7.540  L -38.696, 7.468  L -39.226, 7.392  L -39.755, 7.311  L -40.283, 7.225  L -40.810, 7.136  L -41.336, 7.041  L -41.861, 6.942  L -42.385, 6.839  L -42.907, 6.731  L -43.429, 6.618  L -43.949, 6.500  L -44.468, 6.378  L -44.985, 6.251  L -45.501, 6.119  L -46.015, 5.983  L -46.528, 5.842  L -47.038, 5.696  L -47.548, 5.545  L -48.055, 5.389  L -48.560, 5.229  L -49.064, 5.064  L -49.566, 4.894  L -50.065, 4.720  L -50.562, 4.540  L -51.058, 4.356  L -51.551, 4.167  L -52.042, 3.974  L -52.530, 3.776  L -53.016, 3.573  L -53.500, 3.366  L -53.981, 3.154  L -54.460, 2.937  L -54.937, 2.716  L -55.410, 2.491  L -55.881, 2.261  L -56.350, 2.027  L -56.816, 1.788  L -57.279, 1.545  L -57.739, 1.298  L -58.197, 1.047  L -58.652, 0.791  L -59.104, 0.531  L -59.554, 0.268  L -60.000, 0.000  Z"/>
                <path class="path_center_line" d="M -60.000, 0.000  L -59.552, 0.221  L -59.102, 0.439  L -58.650, 0.652  L -58.197, 0.861  L -57.741, 1.067  L -57.283, 1.267  L -56.824, 1.464  L -56.363, 1.657  L -55.900, 1.845  L -55.435, 2.029  L -54.969, 2.208  L -54.501, 2.383  L -54.031, 2.554  L -53.560, 2.720  L -53.087, 2.882  L -52.613, 3.039  L -52.137, 3.192  L -51.660, 3.341  L -51.182, 3.485  L -50.702, 3.624  L -50.221, 3.759  L -49.738, 3.890  L -49.255, 4.016  L -48.770, 4.137  L -48.284, 4.254  L -47.797, 4.366  L -47.309, 4.474  L -46.821, 4.577  L -46.331, 4.676  L -45.840, 4.771  L -45.349, 4.861  L -44.856, 4.946  L -44.363, 5.028  L -43.869, 5.104  L -43.375, 5.177  L -42.880, 5.245  L -42.384, 5.309  L -41.888, 5.368  L -41.392, 5.423  L -40.894, 5.474  L -40.397, 5.521  L -39.899, 5.564  L -39.401, 5.603  L -38.902, 5.637  L -38.404, 5.668  L -37.905, 5.694  L -37.405, 5.717  L -36.906, 5.736  L -36.407, 5.751  L -35.907, 5.762  L -35.407, 5.769  L -34.908, 5.773  L -34.408, 5.773  L -33.908, 5.770  L -33.409, 5.763  L -32.909, 5.752  L -32.410, 5.738  L -31.910, 5.721  L -31.411, 5.701  L -30.912, 5.677  L -30.413, 5.650  L -29.914, 5.620  L -29.416, 5.586  L -28.917, 5.550  L -28.419, 5.511  L -27.921, 5.469  L -27.423, 5.424  L -26.926, 5.376  L -26.429, 5.325  L -25.932, 5.272  L -25.435, 5.216  L -24.939, 5.158  L -24.443, 5.097  L -23.948, 5.033  L -23.452, 4.967  L -22.957, 4.899  L -22.463, 4.829  L -21.968, 4.756  L -21.474, 4.681  L -20.980, 4.604  L -20.487, 4.525  L -19.994, 4.443  L -19.501, 4.360  L -19.009, 4.275  L -18.517, 4.188  L -18.025, 4.100  L -17.534, 4.009  L -17.042, 3.917  L -16.552, 3.823  L -16.061, 3.728  L -15.571, 3.631  L -15.081, 3.532  L -14.591, 3.432  L -14.102, 3.331  L -13.613, 3.228  L -13.124, 3.124  L -12.636, 3.019  L -12.148, 2.912  L -11.660, 2.805  L -11.172, 2.696  L -10.684, 2.586  L -10.197, 2.476  L -9.710, 2.364  L -9.223, 2.251  L -8.737, 2.138  L -8.250, 2.024  L -7.764, 1.908  L -7.278, 1.793  L -6.792, 1.676  L -6.306, 1.559  L -5.821, 1.441  L -5.335, 1.323  L -4.850, 1.204  L -4.364, 1.085  L -3.879, 0.966  L -3.394, 0.846  L -2.909, 0.726  L -2.424, 0.605  L -1.939, 0.484  L -1.454, 0.363  L -0.970, 0.242  L -0.485, 0.121  L 0.000, 0.000  L 0.485, -0.121  L 0.970, -0.242  L 1.454, -0.363  L 1.939, -0.484  L 2.424, -0.605  L 2.909, -0.726  L 3.394, -0.846  L 3.879, -0.966  L 4.364, -1.085  L 4.850, -1.204  L 5.335, -1.323  L 5.821, -1.441  L 6.306, -1.559  L 6.792, -1.676  L 7.278, -1.793  L 7.764, -1.908  L 8.250, -2.024  L 8.737, -2.138  L 9.223, -2.251  L 9.710, -2.364  L 10.197, -2.476  L 10.684, -2.586  L 11.172, -2.696  L 11.660, -2.805  L 12.148, -2.912  L 12.636, -3.019  L 13.124, -3.124  L 13.613, -3.228  L 14.102, -3.331  L 14.591, -3.432  L 15.081, -3.532  L 15.571, -3.631  L 16.061, -3.728  L 16.552, -3.823  L 17.042, -3.917  L 17.534, -4.009  L 18.025, -4.100  L 18.517, -4.188  L 19.009, -4.275  L 19.501, -4.360  L 19.994, -4.443  L 20.487, -4.525  L 20.980, -4.604  L 21.474, -4.681  L 21.968, -4.756  L 22.463, -4.829  L 22.957, -4.899  L 23.452, -4.967  L 23.948, -5.033  L 24.443, -5.097  L 24.939, -5.158  L 25.435, -5.216  L 25.932, -5.272  L 26.429, -5.325  L 26.926, -5.376  L 27.423, -5.424  L 27.921, -5.469  L 28.419, -5.511  L 28.917, -5.550  L 29.416, -5.586  L 29.914, -5.620  L 30.413, -5.650  L 30.912, -5.677  L 31.411, -5.701  L 31.910, -5.721  L 32.410, -5.738  L 32.909, -5.752  L 33.409, -5.763  L 33.908, -5.770  L 34.408, -5.773  L 34.908, -5.773  L 35.407, -5.769  L 35.907, -5.762  L 36.407, -5.751  L 36.906, -5.736  L 37.405, -5.717  L 37.905, -5.694  L 38.404, -5.668  L 38.902, -5.637  L 39.401, -5.603  L 39.899, -5.564  L 40.397, -5.521  L 40.894, -5.474  L 41.392, -5.423  L 41.888, -5.368  L 42.384, -5.309  L 42.880, -5.245  L 43.375, -5.177  L 43.869, -5.104  L 44.363, -5.028  L 44.856, -4.946  L 45.349, -4.861  L 45.840, -4.771  L 46.331, -4.676  L 46.821, -4.577  L 47.309, -4.474  L 47.797, -4.366  L 48.284, -4.254  L 48.770, -4.137  L 49.255, -4.016  L 49.738, -3.890  L 50.221, -3.759  L 50.702, -3.624  L 51.182, -3.485  L 51.660, -3.341  L 52.137, -3.192  L 52.613, -3.039  L 53.087, -2.882  L 53.560, -2.720  L 54.031, -2.554  L 54.501, -2.383  L 54.969, -2.208  L 55.435, -2.029  L 55.900, -1.845  L 56.363, -1.657  L 56.824, -1.464  L 57.283, -1.267  L 57.741, -1.067  L 58.197, -0.861  L 58.650, -0.652  L 59.102, -0.439  L 59.552, -0.221  L 60.000, 0.000 "/>
            </g>
            <path class="line_0" d="M -60.000, 0.000  L -60.000, 0.000 "/>
            <path class="line_0" d="M -48.246, 3.235  L -48.712, 5.180 "/>
            <path class="line_0" d="M -36.258, 3.754  L -36.356, 7.753 "/>
            <path class="line_0" d="M -24.432, 2.071  L -23.661, 8.021 "/>
            <path class="line_0" d="M -12.813, -1.037  L -11.092, 6.776 "/>
            <path class="line_0" d="M -1.213, -4.851  L 1.213, 4.851 "/>
            <path class="line_0" d="M 10.662, -8.729  L 13.243, 2.990 "/>
            <path class="line_0" d="M 23.147, -11.988  L 24.946, 1.896 "/>
            <path class="line_0" d="M 36.504, -13.751  L 36.110, 2.244 "/>
            <path class="line_0" d="M 50.576, -12.960  L 46.381, 4.545 "/>
            <path class="line_0" d="M 64.472, -8.944  L 55.528, 8.944 "/>
        </g>
    </g>
</svg>
