<?xml version="1.0" encoding="utf-8" ?>
<svg xmlns="http://www.w3.org/2000/svg" xmlns:ev="http://www.w3.org/2001/xml-events" xmlns:xlink="http://www.w3.org/1999/xlink" baseProfile="full" height="110mm" version="1.1" viewBox="0,0,210,110" width="210mm">
    <defs>
        <style type="text/css"><![CDATA[
.stitch_line {
    stroke-width: 0.3;
    stroke-linejoin: round;
    stroke-linecap: round;
    fill: none;
}
.path_center_line {
    fill: none;
    stroke:#808080;
    stroke-width: 0.2;
    stroke-linejoin: round;
    stroke-linecap: round;
}
.path_contour {
    fill: #808080;
    fill-opacity: 0.3;
    stroke: #808080;
    stroke-opacity: 1;
    stroke-width: 0.3;
}
.text{
    text-anchor: middle;
    dominant-baseline: middle;
    font-family: sans-serif;
    font-size: 1.5mm;
}
.smalltext{
    text-anchor: middle;
    dominant-baseline: middle;
    font-family: sans-serif;
    font-size: 1mm;
}
.color_0 {
    stroke:#3bb2d0;
}
.dot_0 {
    marker-start:url(#dot_0);
    marker-mid:url(#dot_0);
    marker-end:url(#dot_0);
}
.color_1 {
    stroke:#3887be;
}
.dot_1 {
    marker-start:url(#dot_1);
    marker-mid:url(#dot_1);
    marker-end:url(#dot_1);
}
.color_2 {
    stroke:#8a8acb;
}
.dot_2 {
    marker-start:url(#dot_2);
    marker-mid:url(#dot_2);
    marker-end:url(#dot_2);
}
.color_3 {
    stroke:#56b881;
}
.dot_3 {
    marker-start:url(#dot_3);
    marker-mid:url(#dot_3);
    marker-end:url(#dot_3);
}
.color_4 {
    stroke:#50667f;
}
.dot_4 {
    marker-start:url(#dot_4);
    marker-mid:url(#dot_4);
    marker-end:url(#dot_4);
}
]]></style>
        <marker id="dot_0" markerHeight="3.0" markerWidth="3.0" refX="1.5" refY="1.5">
            <circle cx="1.5" cy="1.5" fill="#3bb2d0" r="1.5"/>
        </marker>
        <marker id="dot_1" markerHeight="3.0" markerWidth="3.0" refX="1.5" refY="1.5">
            <circle cx="1.5" cy="1.5" fill="#3887be" r="1.5"/>
        </marker>
        <marker id="dot_2" markerHeight="3.0" markerWidth="3.0" refX="1.5" refY="1.5">
            <circle cx="1.5" cy="1.5" fill="#8a8acb" r="1.5"/>
        </marker>
        <marker id="dot_3" markerHeight="3.0" markerWidth="3.0" refX="1.5" refY="1.5">
            <circle cx="1.5" cy="1.5" fill="#56b881" r="1.5"/>
        </marker>
        <marker id="dot_4" markerHeight="3.0" markerWidth="3.0" refX="1.5" refY="1.5">
            <circle cx="1.5" cy="1.5" fill="#50667f" r="1.5"/>
        </marker>
    </defs>
    <g>
        <g>
            <path class="path_contour" d="M 15.840, 87.226  L 16.084, 86.856  L 16.322, 86.484  L 16.556, 86.110  L 16.784, 85.735  L 17.007, 85.358  L 17.225, 84.979  L 17.437, 84.599  L 17.643, 84.217  L 17.843, 83.834  L 18.037, 83.449  L 18.225, 83.063  L 18.408, 82.675  L 18.583, 82.286  L 18.753, 81.895  L 18.916, 81.503  L 19.073, 81.110  L 19.223, 80.715  L 19.366, 80.319  L 19.503, 79.922  L 19.633, 79.523  L 19.756, 79.124  L 19.872, 78.723  L 19.981, 78.321  L 20.083, 77.918  L 20.178, 77.513  L 20.267, 77.107  L 20.348, 76.701  L 20.422, 76.293  L 20.489, 75.884  L 20.548, 75.474  L 20.601, 75.063  L 20.647, 74.651  L 20.685, 74.237  L 20.717, 73.822  L 20.741, 73.407  L 20.759, 72.990  L 20.770, 72.572  L 20.773, 72.153  L 20.770, 71.733  L 20.761, 71.312  L 20.744, 70.889  L 20.721, 70.466  L 20.691, 70.041  L 20.655, 69.616  L 20.612, 69.189  L 20.564, 68.762  L 20.508, 68.333  L 20.447, 67.904  L 20.380, 67.473  L 20.307, 67.042  L 20.229, 66.610  L 20.144, 66.177  L 20.055, 65.743  L 19.959, 65.308  L 19.859, 64.872  L 19.754, 64.435  L 19.644, 63.998  L 19.528, 63.560  L 19.409, 63.121  L 19.285, 62.681  L 19.156, 62.241  L 19.023, 61.800  L 18.887, 61.358  L 18.746, 60.915  L 18.602, 60.471  L 18.454, 60.027  L 18.303, 59.581  L 18.148, 59.135  L 17.990, 58.688  L 17.830, 58.240  L 17.666, 57.792  L 17.500, 57.342  L 17.332, 56.891  L 17.161, 56.440  L 16.988, 55.987  L 16.813, 55.533  L 16.636, 55.078  L 16.457, 54.622  L 16.277, 54.164  L 16.095, 53.706  L 15.912, 53.246  L 15.728, 52.784  L 15.543, 52.321  L 15.358, 51.857  L 15.171, 51.391  L 14.984, 50.923  L 14.797, 50.454  L 14.610, 49.983  L 14.423, 49.510  L 14.236, 49.035  L 14.049, 48.558  L 13.863, 48.079  L 13.677, 47.598  L 13.492, 47.115  L 13.309, 46.630  L 13.126, 46.142  L 12.945, 45.652  L 12.766, 45.159  L 12.588, 44.663  L 12.412, 44.165  L 12.239, 43.665  L 12.068, 43.161  L 11.899, 42.655  L 11.734, 42.146  L 11.571, 41.634  L 11.412, 41.118  L 11.256, 40.600  L 11.104, 40.079  L 10.956, 39.554  L 10.812, 39.026  L 10.672, 38.495  L 10.538, 37.961  L 10.408, 37.423  L 10.283, 36.883  L 10.164, 36.339  L 10.051, 35.792  L 9.944, 35.241  L 9.843, 34.688  L 9.749, 34.131  L 9.662, 33.571  L 9.582, 33.009  L 9.509, 32.444  L 9.444, 31.876  L 9.388, 31.305  L 9.339, 30.732  L 9.299, 30.157  L 9.267, 29.580  L 9.244, 29.001  L 9.231, 28.421  L 9.227, 27.839  L 9.232, 27.256  L 9.247, 26.672  L 9.271, 26.088  L 9.306, 25.503  L 9.350, 24.919  L 9.405, 24.335  L 9.469, 23.751  L 9.544, 23.168  L 9.629, 22.587  L 9.724, 22.007  L 9.829, 21.429  L 9.944, 20.853  L 10.068, 20.279  L 10.203, 19.708  L 10.347, 19.140  L 10.500, 18.575  L 10.663, 18.014  L 10.834, 17.456  L 11.015, 16.902  L 11.204, 16.352  L 11.402, 15.805  L 11.608, 15.263  L 11.822, 14.726  L 12.044, 14.192  L 12.274, 13.664  L 12.510, 13.140  L 12.754, 12.621  L 13.005, 12.107  L 13.262, 11.597  L 13.526, 11.092  L 13.795, 10.593  L 14.071, 10.097  L 14.353, 9.607  L 14.640, 9.122  L 14.932, 8.641  L 15.230, 8.165  L 15.532, 7.693  L 15.840, 7.226  L 16.256, 7.504  L 16.672, 7.781  L 17.088, 8.059  L 17.504, 8.336  L 17.920, 8.613  L 18.336, 8.891  L 18.752, 9.168  L 19.168, 9.445  L 19.584, 9.723  L 20.000, 10.000  L 20.416, 10.277  L 20.832, 10.555  L 21.248, 10.832  L 21.664, 11.109  L 22.080, 11.387  L 22.496, 11.664  L 22.912, 11.941  L 23.328, 12.219  L 23.744, 12.496  L 24.160, 12.774  L 23.916, 13.144  L 23.678, 13.516  L 23.444, 13.890  L 23.216, 14.265  L 22.993, 14.642  L 22.775, 15.021  L 22.563, 15.401  L 22.357, 15.783  L 22.157, 16.166  L 21.963, 16.551  L 21.775, 16.937  L 21.592, 17.325  L 21.417, 17.714  L 21.247, 18.105  L 21.084, 18.497  L 20.927, 18.890  L 20.777, 19.285  L 20.634, 19.681  L 20.497, 20.078  L 20.367, 20.477  L 20.244, 20.876  L 20.128, 21.277  L 20.019, 21.679  L 19.917, 22.082  L 19.822, 22.487  L 19.733, 22.893  L 19.652, 23.299  L 19.578, 23.707  L 19.511, 24.116  L 19.452, 24.526  L 19.399, 24.937  L 19.353, 25.349  L 19.315, 25.763  L 19.283, 26.178  L 19.259, 26.593  L 19.241, 27.010  L 19.230, 27.428  L 19.227, 27.847  L 19.230, 28.267  L 19.239, 28.688  L 19.256, 29.111  L 19.279, 29.534  L 19.309, 29.959  L 19.345, 30.384  L 19.388, 30.811  L 19.436, 31.238  L 19.492, 31.667  L 19.553, 32.096  L 19.620, 32.527  L 19.693, 32.958  L 19.771, 33.390  L 19.856, 33.823  L 19.945, 34.257  L 20.041, 34.692  L 20.141, 35.128  L 20.246, 35.565  L 20.356, 36.002  L 20.472, 36.440  L 20.591, 36.879  L 20.715, 37.319  L 20.844, 37.759  L 20.977, 38.200  L 21.113, 38.642  L 21.254, 39.085  L 21.398, 39.529  L 21.546, 39.973  L 21.697, 40.419  L 21.852, 40.865  L 22.010, 41.312  L 22.170, 41.760  L 22.334, 42.208  L 22.500, 42.658  L 22.668, 43.109  L 22.839, 43.560  L 23.012, 44.013  L 23.187, 44.467  L 23.364, 44.922  L 23.543, 45.378  L 23.723, 45.836  L 23.905, 46.294  L 24.088, 46.754  L 24.272, 47.216  L 24.457, 47.679  L 24.642, 48.143  L 24.829, 48.609  L 25.016, 49.077  L 25.203, 49.546  L 25.390, 50.017  L 25.577, 50.490  L 25.764, 50.965  L 25.951, 51.442  L 26.137, 51.921  L 26.323, 52.402  L 26.508, 52.885  L 26.691, 53.370  L 26.874, 53.858  L 27.055, 54.348  L 27.234, 54.841  L 27.412, 55.337  L 27.588, 55.835  L 27.761, 56.335  L 27.932, 56.839  L 28.101, 57.345  L 28.266, 57.854  L 28.429, 58.366  L 28.588, 58.882  L 28.744, 59.400  L 28.896, 59.921  L 29.044, 60.446  L 29.188, 60.974  L 29.328, 61.505  L 29.462, 62.039  L 29.592, 62.577  L 29.717, 63.117  L 29.836, 63.661  L 29.949, 64.208  L 30.056, 64.759  L 30.157, 65.312  L 30.251, 65.869  L 30.338, 66.429  L 30.418, 66.991  L 30.491, 67.556  L 30.556, 68.124  L 30.612, 68.695  L 30.661, 69.268  L 30.701, 69.843  L 30.733, 70.420  L 30.756, 70.999  L 30.769, 71.579  L 30.773, 72.161  L 30.768, 72.744  L 30.753, 73.328  L 30.729, 73.912  L 30.694, 74.497  L 30.650, 75.081  L 30.595, 75.665  L 30.531, 76.249  L 30.456, 76.832  L 30.371, 77.413  L 30.276, 77.993  L 30.171, 78.571  L 30.056, 79.147  L 29.932, 79.721  L 29.797, 80.292  L 29.653, 80.860  L 29.500, 81.425  L 29.337, 81.986  L 29.166, 82.544  L 28.985, 83.098  L 28.796, 83.648  L 28.598, 84.195  L 28.392, 84.737  L 28.178, 85.274  L 27.956, 85.808  L 27.726, 86.336  L 27.490, 86.860  L 27.246, 87.379  L 26.995, 87.893  L 26.738, 88.403  L 26.474, 88.908  L 26.205, 89.407  L 25.929, 89.903  L 25.647, 90.393  L 25.360, 90.878  L 25.068, 91.359  L 24.770, 91.835  L 24.468, 92.307  L 24.160, 92.774  L 23.744, 92.496  L 23.328, 92.219  L 22.912, 91.941  L 22.496, 91.664  L 22.080, 91.387  L 21.664, 91.109  L 21.248, 90.832  L 20.832, 90.555  L 20.416, 90.277  L 20.000, 90.000  L 19.584, 89.723  L 19.168, 89.445  L 18.752, 89.168  L 18.336, 88.891  L 17.920, 88.613  L 17.504, 88.336  L 17.088, 88.059  L 16.672, 87.781  L 16.256, 87.504  L 15.840, 87.226  Z"/>
            <path class="path_center_line" d="M 20.000, 90.000  L 20.276, 89.581  L 20.546, 89.160  L 20.812, 88.735  L 21.072, 88.307  L 21.327, 87.875  L 21.577, 87.441  L 21.821, 87.003  L 22.059, 86.562  L 22.291, 86.118  L 22.516, 85.671  L 22.736, 85.221  L 22.949, 84.767  L 23.155, 84.311  L 23.354, 83.851  L 23.547, 83.389  L 23.732, 82.923  L 23.910, 82.455  L 24.081, 81.984  L 24.244, 81.510  L 24.399, 81.034  L 24.547, 80.555  L 24.686, 80.074  L 24.817, 79.590  L 24.940, 79.105  L 25.055, 78.617  L 25.162, 78.127  L 25.259, 77.636  L 25.349, 77.143  L 25.430, 76.649  L 25.502, 76.153  L 25.566, 75.656  L 25.621, 75.158  L 25.668, 74.659  L 25.706, 74.160  L 25.735, 73.659  L 25.756, 73.159  L 25.769, 72.658  L 25.773, 72.157  L 25.770, 71.656  L 25.758, 71.155  L 25.739, 70.655  L 25.711, 70.154  L 25.676, 69.655  L 25.634, 69.155  L 25.584, 68.657  L 25.527, 68.159  L 25.463, 67.662  L 25.393, 67.166  L 25.315, 66.671  L 25.232, 66.177  L 25.142, 65.684  L 25.047, 65.193  L 24.945, 64.702  L 24.838, 64.212  L 24.726, 63.724  L 24.608, 63.237  L 24.486, 62.751  L 24.358, 62.267  L 24.227, 61.784  L 24.090, 61.301  L 23.950, 60.820  L 23.806, 60.341  L 23.658, 59.862  L 23.506, 59.384  L 23.351, 58.908  L 23.193, 58.433  L 23.032, 57.958  L 22.868, 57.485  L 22.701, 57.012  L 22.532, 56.541  L 22.361, 56.070  L 22.187, 55.600  L 22.011, 55.131  L 21.834, 54.662  L 21.655, 54.194  L 21.475, 53.727  L 21.293, 53.260  L 21.111, 52.793  L 20.927, 52.327  L 20.743, 51.861  L 20.558, 51.396  L 20.372, 50.930  L 20.186, 50.465  L 20.000, 50.000  L 19.814, 49.535  L 19.628, 49.070  L 19.442, 48.604  L 19.257, 48.139  L 19.073, 47.673  L 18.889, 47.207  L 18.707, 46.740  L 18.525, 46.273  L 18.345, 45.806  L 18.166, 45.338  L 17.989, 44.869  L 17.813, 44.400  L 17.639, 43.930  L 17.468, 43.459  L 17.299, 42.988  L 17.132, 42.515  L 16.968, 42.042  L 16.807, 41.567  L 16.649, 41.092  L 16.494, 40.616  L 16.342, 40.138  L 16.194, 39.659  L 16.050, 39.180  L 15.910, 38.699  L 15.773, 38.216  L 15.642, 37.733  L 15.514, 37.249  L 15.392, 36.763  L 15.274, 36.276  L 15.162, 35.788  L 15.055, 35.298  L 14.953, 34.807  L 14.858, 34.316  L 14.768, 33.823  L 14.685, 33.329  L 14.607, 32.834  L 14.537, 32.338  L 14.473, 31.841  L 14.416, 31.343  L 14.366, 30.845  L 14.324, 30.345  L 14.289, 29.846  L 14.261, 29.345  L 14.242, 28.845  L 14.230, 28.344  L 14.227, 27.843  L 14.231, 27.342  L 14.244, 26.841  L 14.265, 26.341  L 14.294, 25.840  L 14.332, 25.341  L 14.379, 24.842  L 14.434, 24.344  L 14.498, 23.847  L 14.570, 23.351  L 14.651, 22.857  L 14.741, 22.364  L 14.838, 21.873  L 14.945, 21.383  L 15.060, 20.895  L 15.183, 20.410  L 15.314, 19.926  L 15.453, 19.445  L 15.601, 18.966  L 15.756, 18.490  L 15.919, 18.016  L 16.090, 17.545  L 16.268, 17.077  L 16.453, 16.611  L 16.646, 16.149  L 16.845, 15.689  L 17.051, 15.233  L 17.264, 14.779  L 17.484, 14.329  L 17.709, 13.882  L 17.941, 13.438  L 18.179, 12.997  L 18.423, 12.559  L 18.673, 12.125  L 18.928, 11.693  L 19.188, 11.265  L 19.454, 10.840  L 19.724, 10.419  L 20.000, 10.000 "/>
        </g>
        <text class="text" x="20" y="105">Path</text>
        <path class="stitch_line color_0 dot_0" d="M 65.840, 87.226  L 67.504, 88.336  L 70.000, 90.000  L 72.496, 91.664  L 74.160, 92.774  L 75.360, 90.878  L 71.930, 88.821  L 69.357, 87.278  L 66.784, 85.735  L 67.643, 84.217  L 68.526, 84.686  L 71.175, 86.093  L 73.825, 87.500  L 76.474, 88.908  L 77.490, 86.860  L 75.673, 86.023  L 72.949, 84.767  L 70.224, 83.512  L 68.408, 82.675  L 69.073, 81.110  L 71.868, 82.198  L 74.664, 83.286  L 77.460, 84.374  L 78.392, 84.737  L 79.166, 82.544  L 76.306, 81.638  L 73.446, 80.732  L 70.586, 79.825  L 69.633, 79.523  L 70.083, 77.918  L 72.026, 78.392  L 74.940, 79.105  L 77.855, 79.817  L 79.797, 80.292  L 80.276, 77.993  L 79.291, 77.823  L 76.334, 77.313  L 73.378, 76.803  L 70.422, 76.293  L 70.647, 74.651  L 71.642, 74.752  L 74.626, 75.056  L 77.611, 75.361  L 80.595, 75.665  L 80.753, 73.328  L 78.755, 73.260  L 75.756, 73.159  L 72.758, 73.058  L 70.759, 72.990  L 70.761, 71.312  L 73.759, 71.218  L 76.758, 71.124  L 79.756, 71.030  L 80.756, 70.999  L 80.612, 68.695  L 77.625, 68.971  L 74.638, 69.248  L 70.655, 69.616  L 70.447, 67.904  L 72.425, 67.609  L 75.393, 67.166  L 78.360, 66.724  L 80.338, 66.429  L 79.949, 64.208  L 76.027, 64.996  L 73.086, 65.586  L 70.144, 66.177  L 69.754, 64.435  L 70.725, 64.196  L 73.637, 63.477  L 76.550, 62.758  L 79.462, 62.039  L 78.896, 59.921  L 76.974, 60.473  L 74.090, 61.301  L 71.207, 62.129  L 69.285, 62.681  L 68.746, 60.915  L 71.602, 59.997  L 74.458, 59.078  L 77.314, 58.160  L 78.266, 57.854  L 77.588, 55.835  L 74.756, 56.825  L 71.924, 57.815  L 69.092, 58.805  L 68.148, 59.135  L 67.500, 57.342  L 69.375, 56.645  L 72.187, 55.600  L 74.999, 54.555  L 76.874, 53.858  L 76.137, 51.921  L 72.408, 53.366  L 69.610, 54.449  L 66.813, 55.533  L 66.095, 53.706  L 67.025, 53.337  L 69.813, 52.230  L 72.602, 51.124  L 75.390, 50.017  L 74.642, 48.143  L 72.785, 48.886  L 70.000, 50.000  L 67.215, 51.114  L 65.358, 51.857  L 64.610, 49.983  L 67.398, 48.876  L 70.187, 47.770  L 72.975, 46.663  L 73.905, 46.294  L 73.187, 44.467  L 70.390, 45.551  L 67.592, 46.634  L 63.863, 48.079  L 63.126, 46.142  L 65.001, 45.445  L 67.813, 44.400  L 70.625, 43.355  L 72.500, 42.658  L 71.852, 40.865  L 70.908, 41.195  L 68.076, 42.185  L 65.244, 43.175  L 62.412, 44.165  L 61.734, 42.146  L 65.542, 40.922  L 68.398, 40.003  L 71.254, 39.085  L 70.715, 37.319  L 68.793, 37.871  L 65.910, 38.699  L 63.026, 39.527  L 61.104, 40.079  L 60.538, 37.961  L 63.450, 37.242  L 66.363, 36.523  L 70.246, 35.565  L 69.856, 33.823  L 66.914, 34.414  L 63.973, 35.004  L 61.032, 35.595  L 60.051, 35.792  L 59.662, 33.571  L 61.640, 33.276  L 64.607, 32.834  L 67.575, 32.391  L 69.553, 32.096  L 69.345, 30.384  L 68.349, 30.476  L 65.362, 30.752  L 62.375, 31.029  L 59.388, 31.305  L 59.244, 29.001  L 63.242, 28.876  L 66.241, 28.782  L 69.239, 28.688  L 69.241, 27.010  L 67.242, 26.942  L 64.244, 26.841  L 61.245, 26.740  L 59.247, 26.672  L 59.405, 24.335  L 62.389, 24.639  L 65.374, 24.944  L 68.358, 25.248  L 69.353, 25.349  L 69.578, 23.707  L 66.622, 23.197  L 63.666, 22.687  L 60.709, 22.177  L 59.724, 22.007  L 60.203, 19.708  L 62.145, 20.183  L 65.060, 20.895  L 67.974, 21.608  L 69.917, 22.082  L 70.367, 20.477  L 69.414, 20.175  L 66.554, 19.268  L 63.694, 18.362  L 60.834, 17.456  L 61.608, 15.263  L 65.336, 16.714  L 68.132, 17.802  L 70.927, 18.890  L 71.592, 17.325  L 69.776, 16.488  L 67.051, 15.233  L 64.327, 13.977  L 62.510, 13.140  L 63.526, 11.092  L 66.175, 12.500  L 68.825, 13.907  L 71.474, 15.314  L 72.357, 15.783  L 73.216, 14.265  L 70.643, 12.722  L 68.070, 11.179  L 65.497, 9.636  L 64.640, 9.122  L 65.840, 7.226  L 67.504, 8.336  L 70.000, 10.000  L 72.496, 11.664  L 74.160, 12.774 "/>
        <text class="text" x="70" y="105">Meander</text>
        <path class="stitch_line color_1 dot_1" d="M 95.840, 87.226  L 97.225, 84.979  L 98.408, 82.675  L 99.366, 80.319  L 100.083, 77.918  L 100.548, 75.474  L 100.759, 72.990  L 100.721, 70.466  L 100.447, 67.904  L 99.959, 65.308  L 99.285, 62.681  L 98.454, 60.027  L 97.500, 57.342  L 96.457, 54.622  L 95.358, 51.857  L 94.236, 49.035  L 93.126, 46.142  L 92.068, 43.161  L 91.104, 40.079  L 90.283, 36.883  L 89.662, 33.571  L 89.299, 30.157  L 89.247, 26.672  L 89.544, 23.168  L 90.203, 19.708  L 91.204, 16.352  L 92.510, 13.140  L 94.071, 10.097  L 95.840, 7.226  L 97.028, 8.019  L 95.315, 10.801  L 93.808, 13.738  L 92.551, 16.827  L 91.590, 20.048  L 90.960, 23.362  L 90.674, 26.720  L 90.724, 30.068  L 91.075, 33.361  L 91.677, 36.570  L 92.477, 39.684  L 93.422, 42.706  L 94.465, 45.644  L 95.565, 48.513  L 96.684, 51.326  L 97.787, 54.099  L 98.839, 56.844  L 99.808, 59.571  L 100.658, 62.287  L 101.353, 64.995  L 101.860, 67.693  L 102.147, 70.377  L 102.187, 73.038  L 101.964, 75.668  L 101.471, 78.257  L 100.713, 80.795  L 99.705, 83.273  L 98.468, 85.682  L 97.028, 88.019  L 99.406, 89.604  L 100.955, 87.089  L 102.300, 84.468  L 103.407, 81.746  L 104.246, 78.935  L 104.794, 76.056  L 105.042, 73.135  L 104.998, 70.199  L 104.686, 67.272  L 104.141, 64.369  L 103.404, 61.498  L 102.516, 58.660  L 101.517, 55.849  L 100.446, 53.055  L 99.337, 50.265  L 98.224, 47.468  L 97.143, 44.649  L 96.130, 41.795  L 95.223, 38.896  L 94.465, 35.944  L 93.901, 32.939  L 93.576, 29.890  L 93.530, 26.817  L 93.790, 23.750  L 94.366, 20.726  L 95.245, 17.778  L 96.403, 14.934  L 97.801, 12.207  L 99.406, 9.604  L 100.594, 10.396  L 99.045, 12.911  L 97.700, 15.532  L 96.593, 18.254  L 95.754, 21.065  L 95.206, 23.944  L 94.958, 26.865  L 95.002, 29.801  L 95.314, 32.728  L 95.859, 35.631  L 96.596, 38.502  L 97.484, 41.340  L 98.483, 44.151  L 99.554, 46.945  L 100.663, 49.735  L 101.776, 52.532  L 102.857, 55.351  L 103.870, 58.205  L 104.777, 61.104  L 105.535, 64.056  L 106.099, 67.061  L 106.424, 70.110  L 106.470, 73.183  L 106.210, 76.250  L 105.634, 79.274  L 104.755, 82.222  L 103.597, 85.066  L 102.199, 87.793  L 100.594, 90.396  L 102.972, 91.981  L 104.685, 89.199  L 106.192, 86.262  L 107.449, 83.173  L 108.410, 79.952  L 109.040, 76.638  L 109.326, 73.280  L 109.276, 69.932  L 108.925, 66.639  L 108.323, 63.430  L 107.523, 60.316  L 106.578, 57.294  L 105.535, 54.356  L 104.435, 51.487  L 103.316, 48.674  L 102.213, 45.901  L 101.161, 43.156  L 100.192, 40.429  L 99.342, 37.713  L 98.647, 35.005  L 98.140, 32.307  L 97.853, 29.623  L 97.813, 26.962  L 98.036, 24.332  L 98.529, 21.743  L 99.287, 19.205  L 100.295, 16.727  L 101.532, 14.318  L 102.972, 11.981  L 104.160, 12.774  L 102.775, 15.021  L 101.592, 17.325  L 100.634, 19.681  L 99.917, 22.082  L 99.452, 24.526  L 99.241, 27.010  L 99.279, 29.534  L 99.553, 32.096  L 100.041, 34.692  L 100.715, 37.319  L 101.546, 39.973  L 102.500, 42.658  L 103.543, 45.378  L 104.642, 48.143  L 105.764, 50.965  L 106.874, 53.858  L 107.932, 56.839  L 108.896, 59.921  L 109.717, 63.117  L 110.338, 66.429  L 110.701, 69.843  L 110.753, 73.328  L 110.456, 76.832  L 109.797, 80.292  L 108.796, 83.648  L 107.490, 86.860  L 105.929, 89.903  L 104.160, 92.774 "/>
        <text class="text" x="100" y="105">Stripes</text>
        <path class="stitch_line color_2 dot_2" d="M 134.160, 92.774  L 134.109, 90.187  L 133.905, 87.654  L 133.538, 85.195  L 133.000, 82.834  L 132.290, 80.593  L 131.412, 78.495  L 130.374, 76.559  L 132.033, 75.121  L 133.599, 73.476  L 135.055, 71.633  L 136.389, 69.611  L 137.595, 67.436  L 138.673, 65.135  L 139.630, 62.740  L 137.724, 61.031  L 135.778, 59.462  L 133.802, 58.004  L 131.805, 56.631  L 129.790, 55.317  L 127.761, 54.035  L 125.720, 52.763  L 126.320, 50.415  L 126.921, 48.056  L 127.540, 45.701  L 128.195, 43.369  L 128.903, 41.078  L 129.681, 38.849  L 130.543, 36.705  L 128.718, 35.320  L 126.945, 33.821  L 125.237, 32.185  L 123.611, 30.389  L 122.088, 28.414  L 120.694, 26.251  L 119.452, 23.900  L 121.196, 21.889  L 123.051, 20.096  L 124.993, 18.523  L 127.000, 17.166  L 129.053, 16.011  L 131.135, 15.039  L 133.237, 14.230  L 132.972, 11.981  L 130.788, 12.758  L 128.615, 13.692  L 126.462, 14.805  L 124.343, 16.115  L 122.276, 17.639  L 120.282, 19.391  L 121.196, 21.889  L 122.290, 24.227  L 123.547, 26.388  L 124.945, 28.367  L 126.459, 30.169  L 128.069, 31.806  L 129.754, 33.300  L 128.718, 35.320  L 127.788, 37.460  L 126.952, 39.693  L 126.198, 41.996  L 125.510, 44.344  L 124.870, 46.719  L 124.262, 49.102  L 126.320, 50.415  L 128.373, 51.703  L 130.420, 52.990  L 132.460, 54.299  L 134.490, 55.656  L 136.508, 57.087  L 138.507, 58.618  L 137.724, 61.031  L 136.847, 63.387  L 135.864, 65.657  L 134.763, 67.815  L 133.541, 69.831  L 132.198, 71.680  L 130.745, 73.339  L 132.033, 75.121  L 133.184, 77.076  L 134.180, 79.200  L 135.007, 81.477  L 135.657, 83.885  L 136.128, 86.402  L 136.425, 89.001  L 134.109, 90.187  L 131.783, 91.189  L 131.660, 88.715  L 131.385, 86.308  L 130.947, 83.989  L 130.344, 81.782  L 129.573, 79.709  L 131.412, 78.495  L 133.184, 77.076  L 134.871, 75.447  L 136.453, 73.612  L 137.912, 71.586  L 139.238, 69.391  L 140.427, 67.057  L 138.673, 65.135  L 136.847, 63.387  L 134.968, 61.786  L 133.048, 60.307  L 131.097, 58.922  L 129.120, 57.607  L 127.121, 56.334  L 127.761, 54.035  L 128.373, 51.703  L 128.973, 49.356  L 129.580, 47.010  L 130.210, 44.683  L 130.880, 42.393  L 131.609, 40.160  L 129.681, 38.849  L 127.788, 37.460  L 125.936, 35.967  L 124.136, 34.343  L 122.405, 32.564  L 120.762, 30.609  L 119.231, 28.461  L 120.694, 26.251  L 122.290, 24.227  L 124.006, 22.406  L 125.820, 20.800  L 127.710, 19.407  L 129.656, 18.218  L 131.643, 17.217  L 131.135, 15.039  L 130.788, 12.758  L 130.594, 10.396  L 128.340, 11.285  L 126.095, 12.346  L 123.872, 13.598  L 121.687, 15.063  L 122.276, 17.639  L 123.051, 20.096  L 124.006, 22.406  L 125.129, 24.553  L 126.401, 26.524  L 127.802, 28.320  L 129.308, 29.949  L 128.069, 31.806  L 126.945, 33.821  L 125.936, 35.967  L 125.032, 38.214  L 124.222, 40.538  L 123.492, 42.913  L 122.824, 45.320  L 124.870, 46.719  L 126.921, 48.056  L 128.973, 49.356  L 131.027, 50.644  L 133.079, 51.944  L 135.130, 53.281  L 137.176, 54.680  L 136.508, 57.087  L 135.778, 59.462  L 134.968, 61.786  L 134.064, 64.033  L 133.055, 66.179  L 131.931, 68.194  L 130.692, 70.051  L 132.198, 71.680  L 133.599, 73.476  L 134.871, 75.447  L 135.994, 77.594  L 136.949, 79.904  L 137.724, 82.361  L 138.313, 84.937  L 136.128, 86.402  L 133.905, 87.654  L 131.660, 88.715  L 129.406, 89.604  L 129.212, 87.242  L 128.865, 84.961  L 128.357, 82.783  L 130.344, 81.782  L 132.290, 80.593  L 134.180, 79.200  L 135.994, 77.594  L 137.710, 75.773  L 139.306, 73.749  L 140.769, 71.539  L 139.238, 69.391  L 137.595, 67.436  L 135.864, 65.657  L 134.064, 64.033  L 132.212, 62.540  L 130.319, 61.151  L 128.391, 59.840  L 129.120, 57.607  L 129.790, 55.317  L 130.420, 52.990  L 131.027, 50.644  L 131.627, 48.297  L 132.239, 45.965  L 132.879, 43.666  L 130.880, 42.393  L 128.903, 41.078  L 126.952, 39.693  L 125.032, 38.214  L 123.153, 36.613  L 121.327, 34.865  L 119.573, 32.943  L 120.762, 30.609  L 122.088, 28.414  L 123.547, 26.388  L 125.129, 24.553  L 126.816, 22.924  L 128.588, 21.505  L 130.427, 20.291  L 129.656, 18.218  L 129.053, 16.011  L 128.615, 13.692  L 128.340, 11.285  L 128.217, 8.811  L 125.891, 9.813  L 123.575, 10.999  L 123.872, 13.598  L 124.343, 16.115  L 124.993, 18.523  L 125.820, 20.800  L 126.816, 22.924  L 127.967, 24.879  L 129.255, 26.661  L 127.802, 28.320  L 126.459, 30.169  L 125.237, 32.185  L 124.136, 34.343  L 123.153, 36.613  L 122.276, 38.969  L 121.493, 41.382  L 123.492, 42.913  L 125.510, 44.344  L 127.540, 45.701  L 129.580, 47.010  L 131.627, 48.297  L 133.680, 49.585  L 135.738, 50.898  L 135.130, 53.281  L 134.490, 55.656  L 133.802, 58.004  L 133.048, 60.307  L 132.212, 62.540  L 131.282, 64.680  L 130.246, 66.700  L 131.931, 68.194  L 133.541, 69.831  L 135.055, 71.633  L 136.453, 73.612  L 137.710, 75.773  L 138.804, 78.111  L 139.718, 80.609  L 137.724, 82.361  L 135.657, 83.885  L 133.538, 85.195  L 131.385, 86.308  L 129.212, 87.242  L 127.028, 88.019  L 126.763, 85.770  L 128.865, 84.961  L 130.947, 83.989  L 133.000, 82.834  L 135.007, 81.477  L 136.949, 79.904  L 138.804, 78.111  L 140.548, 76.100  L 139.306, 73.749  L 137.912, 71.586  L 136.389, 69.611  L 134.763, 67.815  L 133.055, 66.179  L 131.282, 64.680  L 129.457, 63.295  L 130.319, 61.151  L 131.097, 58.922  L 131.805, 56.631  L 132.460, 54.299  L 133.079, 51.944  L 133.680, 49.585  L 134.280, 47.237  L 132.239, 45.965  L 130.210, 44.683  L 128.195, 43.369  L 126.198, 41.996  L 124.222, 40.538  L 122.276, 38.969  L 120.370, 37.260  L 121.327, 34.865  L 122.405, 32.564  L 123.611, 30.389  L 124.945, 28.367  L 126.401, 26.524  L 127.967, 24.879  L 129.626, 23.441  L 128.588, 21.505  L 127.710, 19.407  L 127.000, 17.166  L 126.462, 14.805  L 126.095, 12.346  L 125.891, 9.813  L 125.840, 7.226 "/>
        <text class="text" x="130" y="105">Lattice</text>
        <path class="stitch_line color_3 dot_3" d="M 164.160, 92.774  L 162.080, 91.387  L 160.000, 90.000  L 157.920, 88.613  L 155.840, 87.226  L 157.139, 85.131  L 158.262, 82.985  L 159.193, 80.794  L 159.916, 78.562  L 162.328, 79.221  L 164.739, 79.880  L 167.151, 80.540  L 166.216, 83.426  L 165.037, 86.203  L 162.779, 85.131  L 163.875, 82.549  L 161.534, 81.672  L 160.520, 84.058  L 159.308, 86.373  L 161.478, 87.615  L 163.647, 88.857  L 165.817, 90.099  L 167.295, 87.276  L 168.557, 84.304  L 169.563, 81.199  L 170.276, 77.993  L 167.812, 77.568  L 165.349, 77.143  L 162.885, 76.718  L 160.422, 76.293  L 160.705, 73.988  L 160.769, 71.649  L 160.621, 69.275  L 160.277, 66.869  L 162.737, 66.425  L 165.197, 65.980  L 167.657, 65.535  L 168.081, 68.497  L 168.268, 71.510  L 165.768, 71.556  L 165.594, 68.757  L 163.108, 69.016  L 163.269, 71.602  L 163.198, 74.174  L 165.691, 74.359  L 168.184, 74.545  L 170.678, 74.731  L 170.767, 71.463  L 170.568, 68.238  L 170.117, 65.091  L 169.462, 62.039  L 167.035, 62.638  L 164.608, 63.237  L 162.181, 63.836  L 159.754, 64.435  L 159.077, 61.976  L 158.272, 59.492  L 157.366, 56.981  L 156.385, 54.439  L 158.711, 53.523  L 161.037, 52.607  L 163.363, 51.691  L 164.387, 54.346  L 165.363, 57.049  L 162.999, 57.864  L 162.047, 55.225  L 159.706, 56.103  L 160.636, 58.678  L 161.470, 61.254  L 163.864, 60.532  L 166.257, 59.810  L 168.651, 59.089  L 167.726, 56.235  L 166.728, 53.468  L 165.690, 50.775  L 164.642, 48.143  L 162.321, 49.072  L 160.000, 50.000  L 157.679, 50.928  L 155.358, 51.857  L 154.310, 49.225  L 153.272, 46.532  L 152.274, 43.765  L 151.349, 40.911  L 153.743, 40.190  L 156.136, 39.468  L 158.530, 38.746  L 159.364, 41.322  L 160.294, 43.897  L 157.953, 44.775  L 157.001, 42.136  L 154.637, 42.951  L 155.613, 45.654  L 156.637, 48.309  L 158.963, 47.393  L 161.289, 46.477  L 163.615, 45.561  L 162.634, 43.019  L 161.728, 40.508  L 160.923, 38.024  L 160.246, 35.565  L 157.819, 36.164  L 155.392, 36.763  L 152.965, 37.362  L 150.538, 37.961  L 149.883, 34.909  L 149.432, 31.762  L 149.233, 28.537  L 149.322, 25.269  L 151.816, 25.455  L 154.309, 25.641  L 156.802, 25.826  L 156.731, 28.398  L 156.892, 30.984  L 154.406, 31.243  L 154.232, 28.444  L 151.732, 28.490  L 151.919, 31.503  L 152.343, 34.465  L 154.803, 34.020  L 157.263, 33.575  L 159.723, 33.131  L 159.379, 30.725  L 159.231, 28.351  L 159.295, 26.012  L 159.578, 23.707  L 157.115, 23.282  L 154.651, 22.857  L 152.188, 22.432  L 149.724, 22.007  L 150.437, 18.801  L 151.443, 15.696  L 152.705, 12.724  L 154.183, 9.901  L 156.353, 11.143  L 158.522, 12.385  L 160.692, 13.627  L 159.480, 15.942  L 158.466, 18.328  L 156.125, 17.451  L 157.221, 14.869  L 154.963, 13.797  L 153.784, 16.574  L 152.849, 19.460  L 155.261, 20.120  L 157.672, 20.779  L 160.084, 21.438  L 160.807, 19.206  L 161.738, 17.015  L 162.861, 14.869  L 164.160, 12.774 "/>
        <text class="text" x="160" y="105">Tile Motif</text>
        <path class="stitch_line color_4 dot_4" d="M 185.840, 87.226  L 187.799, 87.978  L 190.600, 89.052  L 193.401, 90.127  L 195.360, 90.878  L 191.956, 87.940  L 189.685, 85.980  L 187.643, 84.217  L 190.828, 85.072  L 193.725, 85.849  L 197.490, 86.860  L 194.768, 85.000  L 192.290, 83.308  L 189.073, 81.110  L 193.525, 81.742  L 196.495, 82.164  L 199.166, 82.544  L 197.298, 81.592  L 194.624, 80.231  L 191.951, 78.869  L 190.083, 77.918  L 192.780, 77.938  L 195.780, 77.960  L 200.276, 77.993  L 196.595, 76.715  L 193.761, 75.732  L 190.647, 74.651  L 194.510, 74.145  L 197.485, 73.756  L 200.753, 73.328  L 198.110, 72.794  L 195.169, 72.201  L 190.761, 71.312  L 192.787, 70.773  L 195.687, 70.003  L 198.586, 69.233  L 200.612, 68.695  L 196.128, 68.346  L 193.137, 68.113  L 190.447, 67.904  L 193.520, 66.709  L 196.316, 65.621  L 199.949, 64.208  L 196.651, 64.282  L 193.652, 64.349  L 189.754, 64.435  L 193.787, 62.444  L 196.477, 61.116  L 198.896, 59.921  L 196.807, 60.126  L 193.821, 60.418  L 190.835, 60.710  L 188.746, 60.915  L 191.086, 59.570  L 193.687, 58.076  L 197.588, 55.835  L 193.731, 56.411  L 190.764, 56.854  L 187.500, 57.342  L 190.802, 55.269  L 193.343, 53.674  L 196.137, 51.921  L 193.479, 52.393  L 190.526, 52.918  L 186.095, 53.706  L 187.854, 52.561  L 190.369, 50.924  L 192.883, 49.288  L 194.642, 48.143  L 190.216, 48.955  L 187.266, 49.496  L 184.610, 49.983  L 187.385, 48.199  L 189.908, 46.576  L 193.187, 44.467  L 189.932, 45.009  L 186.973, 45.501  L 183.126, 46.142  L 186.976, 43.814  L 189.543, 42.261  L 191.852, 40.865  L 189.769, 41.128  L 186.793, 41.505  L 183.817, 41.882  L 181.734, 42.146  L 184.111, 40.868  L 186.753, 39.448  L 190.715, 37.319  L 186.824, 37.564  L 183.830, 37.753  L 180.538, 37.961  L 184.100, 36.379  L 186.842, 35.162  L 189.856, 33.823  L 187.158, 33.757  L 184.159, 33.683  L 179.662, 33.571  L 181.654, 32.916  L 184.504, 31.978  L 187.353, 31.040  L 189.345, 30.384  L 184.889, 29.774  L 181.917, 29.367  L 179.244, 29.001  L 182.477, 28.357  L 185.419, 27.771  L 189.241, 27.010  L 186.060, 26.145  L 183.165, 25.357  L 179.405, 24.335  L 183.893, 24.058  L 186.887, 23.873  L 189.578, 23.707  L 187.650, 22.884  L 184.890, 21.708  L 182.131, 20.531  L 180.203, 19.708  L 182.892, 19.912  L 185.883, 20.138  L 190.367, 20.477  L 187.019, 18.484  L 184.441, 16.949  L 181.608, 15.263  L 185.425, 16.051  L 188.363, 16.658  L 191.592, 17.325  L 189.458, 15.676  L 187.084, 13.842  L 183.526, 11.092  L 185.520, 11.745  L 188.371, 12.679  L 191.222, 13.612  L 193.216, 14.265  L 189.962, 11.160  L 187.791, 9.089  L 185.840, 7.226 "/>
        <text class="text" x="190" y="105">Satin</text>
    </g>
</svg>
