<?xml version="1.0" encoding="utf-8" ?>
<svg xmlns="http://www.w3.org/2000/svg" xmlns:ev="http://www.w3.org/2001/xml-events" xmlns:xlink="http://www.w3.org/1999/xlink" baseProfile="full" height="40mm" version="1.1" viewBox="0,0,140,40" width="140mm">
    <defs>
        <style type="text/css"><![CDATA[
.stitch_line {
    stroke-width: 0.3;
    stroke-linejoin: round;
    stroke-linecap: round;
    fill: none;
}
.path_center_line {
    fill: none;
    stroke:#808080;
    stroke-width: 0.2;
    stroke-linejoin: round;
    stroke-linecap: round;
}
.path_contour {
    fill: #808080;
    fill-opacity: 0.3;
    stroke: #808080;
    stroke-opacity: 1;
    stroke-width: 0.3;
}
.text{
    text-anchor: middle;
    dominant-baseline: middle;
    font-family: sans-serif;
    font-size: 1.5mm;
}
.smalltext{
    text-anchor: middle;
    dominant-baseline: middle;
    font-family: sans-serif;
    font-size: 1mm;
}
.line_0 {
    fill: none;
    stroke:#3bb2d0;
    stroke-width:0.8;
}
.line_1 {
    fill: none;
    stroke:#3887be;
    stroke-width:0.2;
}
]]></style>
    </defs>
    <g>
        <g transform="translate(70.0,20.0)">
            <g>
                <path class="path_contour" d="M -60.000, -5.000  L -59.512, -5.153  L -59.024, -5.306  L -58.537, -5.458  L -58.049, -5.609  L -57.561, -5.758  L -57.073, -5.905  L -56.585, -6.050  L -56.098, -6.192  L -55.610, -6.331  L -55.122, -6.467  L -54.634, -6.598  L -54.146, -6.726  L -53.659, -6.849  L -53.171, -6.967  L -52.683, -7.080  L -52.195, -7.188  L -51.707, -7.290  L -51.220, -7.386  L -50.732, -7.476  L -50.244, -7.559  L -49.756, -7.636  L -49.268, -7.705  L -48.780, -7.768  L -48.293, -7.823  L -47.805, -7.872  L -47.317, -7.912  L -46.829, -7.945  L -46.341, -7.970  L -45.854, -7.988  L -45.366, -7.998  L -44.878, -8.000  L -44.390, -7.994  L -43.902, -7.980  L -43.415, -7.959  L -42.927, -7.930  L -42.439, -7.893  L -41.951, -7.848  L -41.463, -7.797  L -40.976, -7.738  L -40.488, -7.671  L -40.000, -7.598  L -39.512, -7.518  L -39.024, -7.432  L -38.537, -7.339  L -38.049, -7.240  L -37.561, -7.135  L -37.073, -7.024  L -36.585, -6.909  L -36.098, -6.788  L -35.610, -6.663  L -35.122, -6.533  L -34.634, -6.399  L -34.146, -6.262  L -33.659, -6.121  L -33.171, -5.978  L -32.683, -5.832  L -32.195, -5.684  L -31.707, -5.534  L -31.220, -5.382  L -30.732, -5.230  L -30.244, -5.077  L -29.756, -4.923  L -29.268, -4.770  L -28.780, -4.618  L -28.293, -4.466  L -27.805, -4.316  L -27.317, -4.168  L -26.829, -4.022  L -26.341, -3.879  L -25.854, -3.738  L -25.366, -3.601  L -24.878, -3.467  L -24.390, -3.337  L -23.902, -3.212  L -23.415, -3.091  L -22.927, -2.976  L -22.439, -2.865  L -21.951, -2.760  L -21.463, -2.661  L -20.976, -2.568  L -20.488, -2.482  L -20.000, -2.402  L -19.512, -2.329  L -19.024, -2.262  L -18.537, -2.203  L -18.049, -2.152  L -17.561, -2.107  L -17.073, -2.070  L -16.585, -2.041  L -16.098, -2.020  L -15.610, -2.006  L -15.122, -2.000  L -14.634, -2.002  L -14.146, -2.012  L -13.659, -2.030  L -13.171, -2.055  L -12.683, -2.088  L -12.195, -2.128  L -11.707, -2.177  L -11.220, -2.232  L -10.732, -2.295  L -10.244, -2.364  L -9.756, -2.441  L -9.268, -2.524  L -8.780, -2.614  L -8.293, -2.710  L -7.805, -2.812  L -7.317, -2.920  L -6.829, -3.033  L -6.341, -3.151  L -5.854, -3.274  L -5.366, -3.402  L -4.878, -3.533  L -4.390, -3.669  L -3.902, -3.808  L -3.415, -3.950  L -2.927, -4.095  L -2.439, -4.242  L -1.951, -4.391  L -1.463, -4.542  L -0.976, -4.694  L -0.488, -4.847  L 0.000, -5.000  L 0.488, -5.153  L 0.976, -5.306  L 1.463, -5.458  L 1.951, -5.609  L 2.439, -5.758  L 2.927, -5.905  L 3.415, -6.050  L 3.902, -6.192  L 4.390, -6.331  L 4.878, -6.467  L 5.366, -6.598  L 5.854, -6.726  L 6.341, -6.849  L 6.829, -6.967  L 7.317, -7.080  L 7.805, -7.188  L 8.293, -7.290  L 8.780, -7.386  L 9.268, -7.476  L 9.756, -7.559  L 10.244, -7.636  L 10.732, -7.705  L 11.220, -7.768  L 11.707, -7.823  L 12.195, -7.872  L 12.683, -7.912  L 13.171, -7.945  L 13.659, -7.970  L 14.146, -7.988  L 14.634, -7.998  L 15.122, -8.000  L 15.610, -7.994  L 16.098, -7.980  L 16.585, -7.959  L 17.073, -7.930  L 17.561, -7.893  L 18.049, -7.848  L 18.537, -7.797  L 19.024, -7.738  L 19.512, -7.671  L 20.000, -7.598  L 20.488, -7.518  L 20.976, -7.432  L 21.463, -7.339  L 21.951, -7.240  L 22.439, -7.135  L 22.927, -7.024  L 23.415, -6.909  L 23.902, -6.788  L 24.390, -6.663  L 24.878, -6.533  L 25.366, -6.399  L 25.854, -6.262  L 26.341, -6.121  L 26.829, -5.978  L 27.317, -5.832  L 27.805, -5.684  L 28.293, -5.534  L 28.780, -5.382  L 29.268, -5.230  L 29.756, -5.077  L 30.244, -4.923  L 30.732, -4.770  L 31.220, -4.618  L 31.707, -4.466  L 32.195, -4.316  L 32.683, -4.168  L 33.171, -4.022  L 33.659, -3.879  L 34.146, -3.738  L 34.634, -3.601  L 35.122, -3.467  L 35.610, -3.337  L 36.098, -3.212  L 36.585, -3.091  L 37.073, -2.976  L 37.561, -2.865  L 38.049, -2.760  L 38.537, -2.661  L 39.024, -2.568  L 39.512, -2.482  L 40.000, -2.402  L 40.488, -2.329  L 40.976, -2.262  L 41.463, -2.203  L 41.951, -2.152  L 42.439, -2.107  L 42.927, -2.070  L 43.415, -2.041  L 43.902, -2.020  L 44.390, -2.006  L 44.878, -2.000  L 45.366, -2.002  L 45.854, -2.012  L 46.341, -2.030  L 46.829, -2.055  L 47.317, -2.088  L 47.805, -2.128  L 48.293, -2.177  L 48.780, -2.232  L 49.268, -2.295  L 49.756, -2.364  L 50.244, -2.441  L 50.732, -2.524  L 51.220, -2.614  L 51.707, -2.710  L 52.195, -2.812  L 52.683, -2.920  L 53.171, -3.033  L 53.659, -3.151  L 54.146, -3.274  L 54.634, -3.402  L 55.122, -3.533  L 55.610, -3.669  L 56.098, -3.808  L 56.585, -3.950  L 57.073, -4.095  L 57.561, -4.242  L 58.049, -4.391  L 58.537, -4.542  L 59.024, -4.694  L 59.512, -4.847  L 60.000, -5.000  L 60.000, -4.500  L 60.000, -4.000  L 60.000, -3.500  L 60.000, -3.000  L 60.000, -2.500  L 60.000, -2.000  L 60.000, -1.500  L 60.000, -1.000  L 60.000, -0.500  L 60.000, 0.000  L 60.000, 0.500  L 60.000, 1.000  L 60.000, 1.500  L 60.000, 2.000  L 60.000, 2.500  L 60.000, 3.000  L 60.000, 3.500  L 60.000, 4.000  L 60.000, 4.500  L 60.000, 5.000  L 59.512, 5.153  L 59.024, 5.306  L 58.537, 5.458  L 58.049, 5.609  L 57.561, 5.758  L 57.073, 5.905  L 56.585, 6.050  L 56.098, 6.192  L 55.610, 6.331  L 55.122, 6.467  L 54.634, 6.598  L 54.146, 6.726  L 53.659, 6.849  L 53.171, 6.967  L 52.683, 7.080  L 52.195, 7.188  L 51.707, 7.290  L 51.220, 7.386  L 50.732, 7.476  L 50.244, 7.559  L 49.756, 7.636  L 49.268, 7.705  L 48.780, 7.768  L 48.293, 7.823  L 47.805, 7.872  L 47.317, 7.912  L 46.829, 7.945  L 46.341, 7.970  L 45.854, 7.988  L 45.366, 7.998  L 44.878, 8.000  L 44.390, 7.994  L 43.902, 7.980  L 43.415, 7.959  L 42.927, 7.930  L 42.439, 7.893  L 41.951, 7.848  L 41.463, 7.797  L 40.976, 7.738  L 40.488, 7.671  L 40.000, 7.598  L 39.512, 7.518  L 39.024, 7.432  L 38.537, 7.339  L 38.049, 7.240  L 37.561, 7.135  L 37.073, 7.024  L 36.585, 6.909  L 36.098, 6.788  L 35.610, 6.663  L 35.122, 6.533  L 34.634, 6.399  L 34.146, 6.262  L 33.659, 6.121  L 33.171, 5.978  L 32.683, 5.832  L 32.195, 5.684  L 31.707, 5.534  L 31.220, 5.382  L 30.732, 5.230  L 30.244, 5.077  L 29.756, 4.923  L 29.268, 4.770  L 28.780, 4.618  L 28.293, 4.466  L 27.805, 4.316  L 27.317, 4.168  L 26.829, 4.022  L 26.341, 3.879  L 25.854, 3.738  L 25.366, 3.601  L 24.878, 3.467  L 24.390, 3.337  L 23.902, 3.212  L 23.415, 3.091  L 22.927, 2.976  L 22.439, 2.865  L 21.951, 2.760  L 21.463, 2.661  L 20.976, 2.568  L 20.488, 2.482  L 20.000, 2.402  L 19.512, 2.329  L 19.024, 2.262  L 18.537, 2.203  L 18.049, 2.152  L 17.561, 2.107  L 17.073, 2.070  L 16.585, 2.041  L 16.098, 2.020  L 15.610, 2.006  L 15.122, 2.000  L 14.634, 2.002  L 14.146, 2.012  L 13.659, 2.030  L 13.171, 2.055  L 12.683, 2.088  L 12.195, 2.128  L 11.707, 2.177  L 11.220, 2.232  L 10.732, 2.295  L 10.244, 2.364  L 9.756, 2.441  L 9.268, 2.524  L 8.780, 2.614  L 8.293, 2.710  L 7.805, 2.812  L 7.317, 2.920  L 6.829, 3.033  L 6.341, 3.151  L 5.854, 3.274  L 5.366, 3.402  L 4.878, 3.533  L 4.390, 3.669  L 3.902, 3.808  L 3.415, 3.950  L 2.927, 4.095  L 2.439, 4.242  L 1.951, 4.391  L 1.463, 4.542  L 0.976, 4.694  L 0.488, 4.847  L 0.000, 5.000  L -0.488, 5.153  L -0.976, 5.306  L -1.463, 5.458  L -1.951, 5.609  L -2.439, 5.758  L -2.927, 5.905  L -3.415, 6.050  L -3.902, 6.192  L -4.390, 6.331  L -4.878, 6.467  L -5.366, 6.598  L -5.854, 6.726  L -6.341, 6.849  L -6.829, 6.967  L -7.317, 7.080  L -7.805, 7.188  L -8.293, 7.290  L -8.780, 7.386  L -9.268, 7.476  L -9.756, 7.559  L -10.244, 7.636  L -10.732, 7.705  L -11.220, 7.768  L -11.707, 7.823  L -12.195, 7.872  L -12.683, 7.912  L -13.171, 7.945  L -13.659, 7.970  L -14.146, 7.988  L -14.634, 7.998  L -15.122, 8.000  L -15.610, 7.994  L -16.098, 7.980  L -16.585, 7.959  L -17.073, 7.930  L -17.561, 7.893  L -18.049, 7.848  L -18.537, 7.797  L -19.024, 7.738  L -19.512, 7.671  L -20.000, 7.598  L -20.488, 7.518  L -20.976, 7.432  L -21.463, 7.339  L -21.951, 7.240  L -22.439, 7.135  L -22.927, 7.024  L -23.415, 6.909  L -23.902, 6.788  L -24.390, 6.663  L -24.878, 6.533  L -25.366, 6.399  L -25.854, 6.262  L -26.341, 6.121  L -26.829, 5.978  L -27.317, 5.832  L -27.805, 5.684  L -28.293, 5.534  L -28.780, 5.382  L -29.268, 5.230  L -29.756, 5.077  L -30.244, 4.923  L -30.732, 4.770  L -31.220, 4.618  L -31.707, 4.466  L -32.195, 4.316  L -32.683, 4.168  L -33.171, 4.022  L -33.659, 3.879  L -34.146, 3.738  L -34.634, 3.601  L -35.122, 3.467  L -35.610, 3.337  L -36.098, 3.212  L -36.585, 3.091  L -37.073, 2.976  L -37.561, 2.865  L -38.049, 2.760  L -38.537, 2.661  L -39.024, 2.568  L -39.512, 2.482  L -40.000, 2.402  L -40.488, 2.329  L -40.976, 2.262  L -41.463, 2.203  L -41.951, 2.152  L -42.439, 2.107  L -42.927, 2.070  L -43.415, 2.041  L -43.902, 2.020  L -44.390, 2.006  L -44.878, 2.000  L -45.366, 2.002  L -45.854, 2.012  L -46.341, 2.030  L -46.829, 2.055  L -47.317, 2.088  L -47.805, 2.128  L -48.293, 2.177  L -48.780, 2.232  L -49.268, 2.295  L -49.756, 2.364  L -50.244, 2.441  L -50.732, 2.524  L -51.220, 2.614  L -51.707, 2.710  L -52.195, 2.812  L -52.683, 2.920  L -53.171, 3.033  L -53.659, 3.151  L -54.146, 3.274  L -54.634, 3.402  L -55.122, 3.533  L -55.610, 3.669  L -56.098, 3.808  L -56.585, 3.950  L -57.073, 4.095  L -57.561, 4.242  L -58.049, 4.391  L -58.537, 4.542  L -59.024, 4.694  L -59.512, 4.847  L -60.000, 5.000  L -60.000, 4.500  L -60.000, 4.000  L -60.000, 3.500  L -60.000, 3.000  L -60.000, 2.500  L -60.000, 2.000  L -60.000, 1.500  L -60.000, 1.000  L -60.000, 0.500  L -60.000, 0.000  L -60.000, -0.500  L -60.000, -1.000  L -60.000, -1.500  L -60.000, -2.000  L -60.000, -2.500  L -60.000, -3.000  L -60.000, -3.500  L -60.000, -4.000  L -60.000, -4.500  L -60.000, -5.000  Z"/>
                <path class="path_center_line" d="M -60.000, 0.000  L -59.500, 0.000  L -59.000, 0.000  L -58.500, 0.000  L -58.000, 0.000  L -57.500, 0.000  L -57.000, 0.000  L -56.500, 0.000  L -56.000, 0.000  L -55.500, 0.000  L -55.000, 0.000  L -54.500, 0.000  L -54.000, 0.000  L -53.500, 0.000  L -53.000, 0.000  L -52.500, 0.000  L -52.000, 0.000  L -51.500, 0.000  L -51.000, 0.000  L -50.500, 0.000  L -50.000, 0.000  L -49.500, 0.000  L -49.000, 0.000  L -48.500, 0.000  L -48.000, 0.000  L -47.500, 0.000  L -47.000, 0.000  L -46.500, 0.000  L -46.000, 0.000  L -45.500, 0.000  L -45.000, 0.000  L -44.500, 0.000  L -44.000, 0.000  L -43.500, 0.000  L -43.000, 0.000  L -42.500, 0.000  L -42.000, 0.000  L -41.500, 0.000  L -41.000, 0.000  L -40.500, 0.000  L -40.000, 0.000  L -39.500, 0.000  L -39.000, 0.000  L -38.500, 0.000  L -38.000, 0.000  L -37.500, 0.000  L -37.000, 0.000  L -36.500, 0.000  L -36.000, 0.000  L -35.500, 0.000  L -35.000, 0.000  L -34.500, 0.000  L -34.000, 0.000  L -33.500, 0.000  L -33.000, 0.000  L -32.500, 0.000  L -32.000, 0.000  L -31.500, 0.000  L -31.000, 0.000  L -30.500, 0.000  L -30.000, 0.000  L -29.500, 0.000  L -29.000, 0.000  L -28.500, 0.000  L -28.000, 0.000  L -27.500, 0.000  L -27.000, 0.000  L -26.500, 0.000  L -26.000, 0.000  L -25.500, 0.000  L -25.000, 0.000  L -24.500, 0.000  L -24.000, 0.000  L -23.500, 0.000  L -23.000, 0.000  L -22.500, 0.000  L -22.000, 0.000  L -21.500, 0.000  L -21.000, 0.000  L -20.500, 0.000  L -20.000, 0.000  L -19.500, 0.000  L -19.000, 0.000  L -18.500, 0.000  L -18.000, 0.000  L -17.500, 0.000  L -17.000, 0.000  L -16.500, 0.000  L -16.000, 0.000  L -15.500, 0.000  L -15.000, 0.000  L -14.500, 0.000  L -14.000, 0.000  L -13.500, 0.000  L -13.000, 0.000  L -12.500, 0.000  L -12.000, 0.000  L -11.500, 0.000  L -11.000, 0.000  L -10.500, 0.000  L -10.000, 0.000  L -9.500, 0.000  L -9.000, 0.000  L -8.500, 0.000  L -8.000, 0.000  L -7.500, 0.000  L -7.000, 0.000  L -6.500, 0.000  L -6.000, 0.000  L -5.500, 0.000  L -5.000, 0.000  L -4.500, 0.000  L -4.000, 0.000  L -3.500, 0.000  L -3.000, 0.000  L -2.500, 0.000  L -2.000, 0.000  L -1.500, 0.000  L -1.000, 0.000  L -0.500, 0.000  L 0.000, 0.000  L 0.500, 0.000  L 1.000, 0.000  L 1.500, 0.000  L 2.000, 0.000  L 2.500, 0.000  L 3.000, 0.000  L 3.500, 0.000  L 4.000, 0.000  L 4.500, 0.000  L 5.000, 0.000  L 5.500, 0.000  L 6.000, 0.000  L 6.500, 0.000  L 7.000, 0.000  L 7.500, 0.000  L 8.000, 0.000  L 8.500, 0.000  L 9.000, 0.000  L 9.500, 0.000  L 10.000, 0.000  L 10.500, 0.000  L 11.000, 0.000  L 11.500, 0.000  L 12.000, 0.000  L 12.500, 0.000  L 13.000, 0.000  L 13.500, 0.000  L 14.000, 0.000  L 14.500, 0.000  L 15.000, 0.000  L 15.500, 0.000  L 16.000, 0.000  L 16.500, 0.000  L 17.000, 0.000  L 17.500, 0.000  L 18.000, 0.000  L 18.500, 0.000  L 19.000, 0.000  L 19.500, 0.000  L 20.000, 0.000  L 20.500, 0.000  L 21.000, 0.000  L 21.500, 0.000  L 22.000, 0.000  L 22.500, 0.000  L 23.000, 0.000  L 23.500, 0.000  L 24.000, 0.000  L 24.500, 0.000  L 25.000, 0.000  L 25.500, 0.000  L 26.000, 0.000  L 26.500, 0.000  L 27.000, 0.000  L 27.500, 0.000  L 28.000, 0.000  L 28.500, 0.000  L 29.000, 0.000  L 29.500, 0.000  L 30.000, 0.000  L 30.500, 0.000  L 31.000, 0.000  L 31.500, 0.000  L 32.000, 0.000  L 32.500, 0.000  L 33.000, 0.000  L 33.500, 0.000  L 34.000, 0.000  L 34.500, 0.000  L 35.000, 0.000  L 35.500, 0.000  L 36.000, 0.000  L 36.500, 0.000  L 37.000, 0.000  L 37.500, 0.000  L 38.000, 0.000  L 38.500, 0.000  L 39.000, 0.000  L 39.500, 0.000  L 40.000, 0.000  L 40.500, 0.000  L 41.000, 0.000  L 41.500, 0.000  L 42.000, 0.000  L 42.500, 0.000  L 43.000, 0.000  L 43.500, 0.000  L 44.000, 0.000  L 44.500, 0.000  L 45.000, 0.000  L 45.500, 0.000  L 46.000, 0.000  L 46.500, 0.000  L 47.000, 0.000  L 47.500, 0.000  L 48.000, 0.000  L 48.500, 0.000  L 49.000, 0.000  L 49.500, 0.000  L 50.000, 0.000  L 50.500, 0.000  L 51.000, 0.000  L 51.500, 0.000  L 52.000, 0.000  L 52.500, 0.000  L 53.000, 0.000  L 53.500, 0.000  L 54.000, 0.000  L 54.500, 0.000  L 55.000, 0.000  L 55.500, 0.000  L 56.000, 0.000  L 56.500, 0.000  L 57.000, 0.000  L 57.500, 0.000  L 58.000, 0.000  L 58.500, 0.000  L 59.000, 0.000  L 59.500, 0.000  L 60.000, 0.000 "/>
            </g>
            <path class="line_0" d="M -60.000, -5.000  L -60.000, 0.000 "/>
            <path class="line_0" d="M -48.000, -7.853  L -48.000, 0.000 "/>
            <path class="line_0" d="M -36.000, -6.763  L -36.000, 0.000 "/>
            <path class="line_0" d="M -24.000, -3.237  L -24.000, 0.000 "/>
            <path class="line_0" d="M -12.000, -2.147  L -12.000, 0.000 "/>
            <path class="line_0" d="M 0.000, -5.000  L 0.000, 0.000 "/>
            <path class="line_0" d="M 12.000, -7.853  L 12.000, 0.000 "/>
            <path class="line_0" d="M 24.000, -6.763  L 24.000, 0.000 "/>
            <path class="line_0" d="M 36.000, -3.237  L 36.000, 0.000 "/>
            <path class="line_0" d="M 48.000, -2.147  L 48.000, 0.000 "/>
            <path class="line_0" d="M 60.000, -5.000  L 60.000, 0.000 "/>
            <path class="line_1" d="M -60.000, 0.000  L -60.000, 5.000 "/>
            <path class="line_1" d="M -48.000, 0.000  L -48.000, 2.147 "/>
            <path class="line_1" d="M -36.000, 0.000  L -36.000, 3.237 "/>
            <path class="line_1" d="M -24.000, 0.000  L -24.000, 6.763 "/>
            <path class="line_1" d="M -12.000, 0.000  L -12.000, 7.853 "/>
            <path class="line_1" d="M 0.000, 0.000  L 0.000, 5.000 "/>
            <path class="line_1" d="M 12.000, 0.000  L 12.000, 2.147 "/>
            <path class="line_1" d="M 24.000, 0.000  L 24.000, 3.237 "/>
            <path class="line_1" d="M 36.000, 0.000  L 36.000, 6.763 "/>
            <path class="line_1" d="M 48.000, 0.000  L 48.000, 7.853 "/>
            <path class="line_1" d="M 60.000, 0.000  L 60.000, 5.000 "/>
        </g>
    </g>
</svg>
