<?xml version="1.0" encoding="utf-8" ?>
<svg xmlns="http://www.w3.org/2000/svg" xmlns:ev="http://www.w3.org/2001/xml-events" xmlns:xlink="http://www.w3.org/1999/xlink" baseProfile="full" height="100mm" version="1.1" viewBox="0,0,100,100" width="100mm">
    <defs>
        <style type="text/css"><![CDATA[
.stitch_line {
    stroke-width: 0.3;
    stroke-linejoin: round;
    stroke-linecap: round;
    fill: none;
}
.path_handle {
    stroke-width: 0.5;
    stroke-linejoin: round;
    stroke-linecap: round;
    fill:none;
    stroke: #808080;
    marker-start: url(#handles);
    marker-mid: url(#handles);
    marker-end: url(#handles);
}
.path_center_line {
    stroke-width: 0.5;
    stroke-linejoin: round;
    stroke-linecap: round;
    fill: none;
    stroke:#148983;
    stroke-dasharray: 2,1.5;
    stroke-dashoffset: 1;
}
.path_contour {
    stroke: #85c4c1;
    fill-opacity: 0;
    stroke-width: 0.3;
}
.path_direction_line {
    stroke-width: 0.05;
    fill: none;
    stroke: #85c4c1;
}
.color_0 {
    stroke:#148983;
    marker-start:url(#dot_0);
    marker-mid:url(#dot_0);
    marker-end:url(#dot_0);
}
.color_1 {
    stroke:#1873ac;
    marker-start:url(#dot_1);
    marker-mid:url(#dot_1);
    marker-end:url(#dot_1);
}
.color_2 {
    stroke:#8c5290;
    marker-start:url(#dot_2);
    marker-mid:url(#dot_2);
    marker-end:url(#dot_2);
}
.color_3 {
    stroke:#61a09c;
    marker-start:url(#dot_3);
    marker-mid:url(#dot_3);
    marker-end:url(#dot_3);
}
.color_4 {
    stroke:#5ad2f4;
    marker-start:url(#dot_4);
    marker-mid:url(#dot_4);
    marker-end:url(#dot_4);
}
.color_5 {
    stroke:#0f6460;
    marker-start:url(#dot_5);
    marker-mid:url(#dot_5);
    marker-end:url(#dot_5);
}
.color_6 {
    stroke:#0f4668;
    marker-start:url(#dot_6);
    marker-mid:url(#dot_6);
    marker-end:url(#dot_6);
}
.color_7 {
    stroke:#543156;
    marker-start:url(#dot_7);
    marker-mid:url(#dot_7);
    marker-end:url(#dot_7);
}
.color_8 {
    stroke:#487673;
    marker-start:url(#dot_8);
    marker-mid:url(#dot_8);
    marker-end:url(#dot_8);
}
.color_9 {
    stroke:#0c8baf;
    marker-start:url(#dot_9);
    marker-mid:url(#dot_9);
    marker-end:url(#dot_9);
}
]]></style>
        <marker id="dot_0" markerHeight="3.0" markerWidth="3.0" refX="1.5" refY="1.5">
            <circle cx="1.5" cy="1.5" fill="#148983" r="1.5"/>
        </marker>
        <marker id="dot_1" markerHeight="3.0" markerWidth="3.0" refX="1.5" refY="1.5">
            <circle cx="1.5" cy="1.5" fill="#1873ac" r="1.5"/>
        </marker>
        <marker id="dot_2" markerHeight="3.0" markerWidth="3.0" refX="1.5" refY="1.5">
            <circle cx="1.5" cy="1.5" fill="#8c5290" r="1.5"/>
        </marker>
        <marker id="dot_3" markerHeight="3.0" markerWidth="3.0" refX="1.5" refY="1.5">
            <circle cx="1.5" cy="1.5" fill="#61a09c" r="1.5"/>
        </marker>
        <marker id="dot_4" markerHeight="3.0" markerWidth="3.0" refX="1.5" refY="1.5">
            <circle cx="1.5" cy="1.5" fill="#5ad2f4" r="1.5"/>
        </marker>
        <marker id="dot_5" markerHeight="3.0" markerWidth="3.0" refX="1.5" refY="1.5">
            <circle cx="1.5" cy="1.5" fill="#0f6460" r="1.5"/>
        </marker>
        <marker id="dot_6" markerHeight="3.0" markerWidth="3.0" refX="1.5" refY="1.5">
            <circle cx="1.5" cy="1.5" fill="#0f4668" r="1.5"/>
        </marker>
        <marker id="dot_7" markerHeight="3.0" markerWidth="3.0" refX="1.5" refY="1.5">
            <circle cx="1.5" cy="1.5" fill="#543156" r="1.5"/>
        </marker>
        <marker id="dot_8" markerHeight="3.0" markerWidth="3.0" refX="1.5" refY="1.5">
            <circle cx="1.5" cy="1.5" fill="#487673" r="1.5"/>
        </marker>
        <marker id="dot_9" markerHeight="3.0" markerWidth="3.0" refX="1.5" refY="1.5">
            <circle cx="1.5" cy="1.5" fill="#0c8baf" r="1.5"/>
        </marker>
    </defs>
    <g>
        <g>
            <path class="path_contour" d="M 12.500, 4.000  L 12.064, 4.430  L 11.656, 4.861  L 11.275, 5.295  L 10.921, 5.731  L 10.594, 6.169  L 10.292, 6.609  L 10.015, 7.051  L 9.762, 7.494  L 9.534, 7.939  L 9.328, 8.386  L 9.145, 8.835  L 8.984, 9.286  L 8.844, 9.738  L 8.725, 10.191  L 8.626, 10.646  L 8.546, 11.103  L 8.485, 11.561  L 8.442, 12.020  L 8.417, 12.481  L 8.409, 12.942  L 8.417, 13.406  L 8.441, 13.870  L 8.480, 14.335  L 8.533, 14.802  L 8.600, 15.269  L 8.681, 15.738  L 8.774, 16.207  L 8.879, 16.677  L 8.995, 17.148  L 9.122, 17.620  L 9.259, 18.093  L 9.406, 18.566  L 9.561, 19.040  L 9.725, 19.515  L 9.896, 19.990  L 10.075, 20.466  L 10.260, 20.942  L 10.450, 21.418  L 10.646, 21.895  L 10.846, 22.372  L 11.050, 22.850  L 11.257, 23.327  L 11.467, 23.805  L 11.679, 24.283  L 11.893, 24.761  L 12.107, 25.239  L 12.322, 25.717  L 12.536, 26.195  L 12.749, 26.673  L 12.960, 27.150  L 13.169, 27.628  L 13.375, 28.105  L 13.577, 28.582  L 13.775, 29.058  L 13.969, 29.534  L 14.157, 30.010  L 14.339, 30.485  L 14.514, 30.960  L 14.682, 31.434  L 14.842, 31.907  L 14.994, 32.380  L 15.137, 32.852  L 15.269, 33.323  L 15.392, 33.793  L 15.503, 34.262  L 15.603, 34.731  L 15.690, 35.198  L 15.765, 35.665  L 15.826, 36.130  L 15.873, 36.594  L 15.905, 37.058  L 15.922, 37.519  L 15.923, 37.980  L 15.907, 38.439  L 15.874, 38.897  L 15.824, 39.354  L 15.754, 39.809  L 15.666, 40.262  L 15.558, 40.714  L 15.430, 41.165  L 15.281, 41.614  L 15.110, 42.061  L 14.917, 42.506  L 14.701, 42.949  L 14.462, 43.391  L 14.199, 43.831  L 13.911, 44.269  L 13.598, 44.705  L 13.258, 45.139  L 12.893, 45.570  L 12.500, 46.000  L 13.000, 46.000  L 13.500, 46.000  L 14.000, 46.000  L 14.500, 46.000  L 15.000, 46.000  L 15.500, 46.000  L 16.000, 46.000  L 16.500, 46.000  L 17.000, 46.000  L 17.500, 46.000  L 17.936, 45.570  L 18.344, 45.139  L 18.725, 44.705  L 19.079, 44.269  L 19.406, 43.831  L 19.708, 43.391  L 19.985, 42.949  L 20.238, 42.506  L 20.466, 42.061  L 20.672, 41.614  L 20.855, 41.165  L 21.016, 40.714  L 21.156, 40.262  L 21.275, 39.809  L 21.374, 39.354  L 21.454, 38.897  L 21.515, 38.439  L 21.558, 37.980  L 21.583, 37.519  L 21.591, 37.058  L 21.583, 36.594  L 21.559, 36.130  L 21.520, 35.665  L 21.467, 35.198  L 21.400, 34.731  L 21.319, 34.262  L 21.226, 33.793  L 21.121, 33.323  L 21.005, 32.852  L 20.878, 32.380  L 20.741, 31.907  L 20.594, 31.434  L 20.439, 30.960  L 20.275, 30.485  L 20.104, 30.010  L 19.925, 29.534  L 19.740, 29.058  L 19.550, 28.582  L 19.354, 28.105  L 19.154, 27.628  L 18.950, 27.150  L 18.743, 26.673  L 18.533, 26.195  L 18.321, 25.717  L 18.107, 25.239  L 17.893, 24.761  L 17.678, 24.283  L 17.464, 23.805  L 17.251, 23.327  L 17.040, 22.850  L 16.831, 22.372  L 16.625, 21.895  L 16.423, 21.418  L 16.225, 20.942  L 16.031, 20.466  L 15.843, 19.990  L 15.661, 19.515  L 15.486, 19.040  L 15.318, 18.566  L 15.158, 18.093  L 15.006, 17.620  L 14.863, 17.148  L 14.731, 16.677  L 14.608, 16.207  L 14.497, 15.738  L 14.397, 15.269  L 14.310, 14.802  L 14.235, 14.335  L 14.174, 13.870  L 14.127, 13.406  L 14.095, 12.942  L 14.078, 12.481  L 14.077, 12.020  L 14.093, 11.561  L 14.126, 11.103  L 14.176, 10.646  L 14.246, 10.191  L 14.334, 9.738  L 14.442, 9.286  L 14.570, 8.835  L 14.719, 8.386  L 14.890, 7.939  L 15.083, 7.494  L 15.299, 7.051  L 15.538, 6.609  L 15.801, 6.169  L 16.089, 5.731  L 16.402, 5.295  L 16.742, 4.861  L 17.107, 4.430  L 17.500, 4.000  L 17.000, 4.000  L 16.500, 4.000  L 16.000, 4.000  L 15.500, 4.000  L 15.000, 4.000  L 14.500, 4.000  L 14.000, 4.000  L 13.500, 4.000  L 13.000, 4.000  L 12.500, 4.000  Z"/>
            <path class="path_direction_line" d="M 10.936, 5.712 L 16.102, 5.712 M 9.783, 7.455 L 15.101, 7.455 M 9.004, 9.227 L 14.457, 9.227 M 8.559, 11.023 L 14.133, 11.023 M 8.409, 12.842 L 14.090, 12.842 M 8.518, 14.680 L 14.289, 14.680 M 8.846, 16.534 L 14.692, 16.534 M 9.354, 18.402 L 15.261, 18.402 M 10.004, 20.279 L 15.957, 20.279 M 10.758, 22.165 L 16.741, 22.165 M 11.578, 24.054 L 17.576, 24.054 M 12.424, 25.946 L 18.422, 25.946 M 13.259, 27.835 L 19.242, 27.835 M 14.043, 29.721 L 19.996, 29.721 M 14.739, 31.598 L 20.646, 31.598 M 15.308, 33.466 L 21.154, 33.466 M 15.711, 35.320 L 21.482, 35.320 M 15.910, 37.158 L 21.591, 37.158 M 15.867, 38.977 L 21.441, 38.977 M 15.543, 40.773 L 20.996, 40.773 M 14.899, 42.545 L 20.217, 42.545 M 13.898, 44.288 L 19.064, 44.288"/>
            <path class="path_center_line" d="M 15.000, 4.000  L 14.585, 4.430  L 14.199, 4.861  L 13.839, 5.295  L 13.505, 5.731  L 13.197, 6.169  L 12.915, 6.609  L 12.657, 7.051  L 12.423, 7.494  L 12.212, 7.939  L 12.024, 8.386  L 11.858, 8.835  L 11.713, 9.286  L 11.589, 9.738  L 11.485, 10.191  L 11.401, 10.646  L 11.336, 11.103  L 11.289, 11.561  L 11.260, 12.020  L 11.248, 12.481  L 11.252, 12.942  L 11.272, 13.406  L 11.308, 13.870  L 11.358, 14.335  L 11.422, 14.802  L 11.499, 15.269  L 11.589, 15.738  L 11.691, 16.207  L 11.805, 16.677  L 11.929, 17.148  L 12.064, 17.620  L 12.208, 18.093  L 12.362, 18.566  L 12.524, 19.040  L 12.693, 19.515  L 12.870, 19.990  L 13.053, 20.466  L 13.242, 20.942  L 13.437, 21.418  L 13.636, 21.895  L 13.839, 22.372  L 14.045, 22.850  L 14.254, 23.327  L 14.466, 23.805  L 14.679, 24.283  L 14.893, 24.761  L 15.107, 25.239  L 15.321, 25.717  L 15.534, 26.195  L 15.746, 26.673  L 15.955, 27.150  L 16.161, 27.628  L 16.364, 28.105  L 16.563, 28.582  L 16.758, 29.058  L 16.947, 29.534  L 17.130, 30.010  L 17.307, 30.485  L 17.476, 30.960  L 17.638, 31.434  L 17.792, 31.907  L 17.936, 32.380  L 18.071, 32.852  L 18.195, 33.323  L 18.309, 33.793  L 18.411, 34.262  L 18.501, 34.731  L 18.578, 35.198  L 18.642, 35.665  L 18.692, 36.130  L 18.728, 36.594  L 18.748, 37.058  L 18.752, 37.519  L 18.740, 37.980  L 18.711, 38.439  L 18.664, 38.897  L 18.599, 39.354  L 18.515, 39.809  L 18.411, 40.262  L 18.287, 40.714  L 18.142, 41.165  L 17.976, 41.614  L 17.788, 42.061  L 17.577, 42.506  L 17.343, 42.949  L 17.085, 43.391  L 16.803, 43.831  L 16.495, 44.269  L 16.161, 44.705  L 15.801, 45.139  L 15.415, 45.570  L 15.000, 46.000 "/>
        </g>
        <g>
            <path class="path_contour" d="M 26.545, 14.985  L 26.852, 14.478  L 27.176, 13.985  L 27.515, 13.504  L 27.868, 13.037  L 28.236, 12.582  L 28.618, 12.141  L 29.012, 11.713  L 29.418, 11.299  L 29.837, 10.897  L 30.266, 10.508  L 30.706, 10.132  L 31.156, 9.769  L 31.616, 9.419  L 32.085, 9.081  L 32.563, 8.755  L 33.049, 8.441  L 33.543, 8.139  L 34.044, 7.849  L 34.553, 7.570  L 35.069, 7.303  L 35.592, 7.047  L 36.120, 6.802  L 36.655, 6.568  L 37.195, 6.345  L 37.741, 6.133  L 38.292, 5.932  L 38.848, 5.740  L 39.408, 5.560  L 39.973, 5.389  L 40.542, 5.229  L 41.114, 5.079  L 41.691, 4.939  L 42.270, 4.809  L 42.853, 4.688  L 43.438, 4.578  L 44.027, 4.477  L 44.617, 4.386  L 45.210, 4.305  L 45.805, 4.233  L 46.401, 4.171  L 46.999, 4.119  L 47.597, 4.076  L 48.197, 4.043  L 48.798, 4.019  L 49.399, 4.005  L 50.000, 4.000  L 50.601, 4.005  L 51.202, 4.019  L 51.803, 4.043  L 52.403, 4.076  L 53.001, 4.119  L 53.599, 4.171  L 54.195, 4.233  L 54.790, 4.305  L 55.383, 4.386  L 55.973, 4.477  L 56.562, 4.578  L 57.147, 4.688  L 57.730, 4.809  L 58.309, 4.939  L 58.886, 5.079  L 59.458, 5.229  L 60.027, 5.389  L 60.592, 5.560  L 61.152, 5.740  L 61.708, 5.932  L 62.259, 6.133  L 62.805, 6.345  L 63.345, 6.568  L 63.880, 6.802  L 64.408, 7.047  L 64.931, 7.303  L 65.447, 7.570  L 65.956, 7.849  L 66.457, 8.139  L 66.951, 8.441  L 67.437, 8.755  L 67.915, 9.081  L 68.384, 9.419  L 68.844, 9.769  L 69.294, 10.132  L 69.734, 10.508  L 70.163, 10.897  L 70.582, 11.299  L 70.988, 11.713  L 71.382, 12.141  L 71.764, 12.582  L 72.132, 13.037  L 72.485, 13.504  L 72.824, 13.985  L 73.148, 14.478  L 73.455, 14.985  L 73.023, 15.236  L 72.591, 15.488  L 72.159, 15.740  L 71.728, 15.992  L 71.296, 16.244  L 70.864, 16.496  L 70.432, 16.748  L 70.000, 17.000  L 69.568, 17.252  L 69.136, 17.504  L 68.919, 17.147  L 68.690, 16.797  L 68.449, 16.454  L 68.195, 16.119  L 67.930, 15.792  L 67.653, 15.471  L 67.364, 15.158  L 67.064, 14.853  L 66.754, 14.554  L 66.432, 14.263  L 66.101, 13.980  L 65.758, 13.704  L 65.406, 13.435  L 65.044, 13.174  L 64.673, 12.921  L 64.292, 12.675  L 63.902, 12.437  L 63.504, 12.206  L 63.097, 11.983  L 62.682, 11.768  L 62.259, 11.561  L 61.828, 11.362  L 61.390, 11.170  L 60.945, 10.987  L 60.494, 10.811  L 60.036, 10.644  L 59.572, 10.484  L 59.102, 10.333  L 58.627, 10.189  L 58.146, 10.054  L 57.661, 9.927  L 57.171, 9.807  L 56.677, 9.696  L 56.178, 9.594  L 55.677, 9.499  L 55.171, 9.412  L 54.663, 9.334  L 54.152, 9.264  L 53.638, 9.202  L 53.122, 9.149  L 52.605, 9.103  L 52.086, 9.066  L 51.565, 9.037  L 51.044, 9.017  L 50.522, 9.004  L 50.000, 9.000  L 49.478, 9.004  L 48.956, 9.017  L 48.435, 9.037  L 47.914, 9.066  L 47.395, 9.103  L 46.878, 9.149  L 46.362, 9.202  L 45.848, 9.264  L 45.337, 9.334  L 44.829, 9.412  L 44.323, 9.499  L 43.822, 9.594  L 43.323, 9.696  L 42.829, 9.807  L 42.339, 9.927  L 41.854, 10.054  L 41.373, 10.189  L 40.898, 10.333  L 40.428, 10.484  L 39.964, 10.644  L 39.506, 10.811  L 39.055, 10.987  L 38.610, 11.170  L 38.172, 11.362  L 37.741, 11.561  L 37.318, 11.768  L 36.903, 11.983  L 36.496, 12.206  L 36.098, 12.437  L 35.708, 12.675  L 35.327, 12.921  L 34.956, 13.174  L 34.594, 13.435  L 34.242, 13.704  L 33.899, 13.980  L 33.568, 14.263  L 33.246, 14.554  L 32.936, 14.853  L 32.636, 15.158  L 32.347, 15.471  L 32.070, 15.792  L 31.805, 16.119  L 31.551, 16.454  L 31.310, 16.797  L 31.081, 17.147  L 30.864, 17.504  L 30.432, 17.252  L 30.000, 17.000  L 29.568, 16.748  L 29.136, 16.496  L 28.704, 16.244  L 28.272, 15.992  L 27.841, 15.740  L 27.409, 15.488  L 26.977, 15.236  L 26.545, 14.985  Z"/>
            <path class="path_direction_line" d="M 27.868, 13.037 L 31.805, 16.119 M 29.418, 11.299 L 32.936, 14.853 M 31.156, 9.769 L 34.242, 13.704 M 33.049, 8.441 L 35.708, 12.675 M 35.069, 7.303 L 37.318, 11.768 M 37.195, 6.345 L 39.055, 10.987 M 39.408, 5.560 L 40.898, 10.333 M 41.691, 4.939 L 42.829, 9.807 M 44.027, 4.477 L 44.829, 9.412 M 46.401, 4.171 L 46.878, 9.149 M 48.798, 4.019 L 48.956, 9.017 M 51.202, 4.019 L 51.044, 9.017 M 53.599, 4.171 L 53.122, 9.149 M 55.973, 4.477 L 55.171, 9.412 M 58.309, 4.939 L 57.171, 9.807 M 60.592, 5.560 L 59.102, 10.333 M 62.805, 6.345 L 60.945, 10.987 M 64.931, 7.303 L 62.682, 11.768 M 66.951, 8.441 L 64.292, 12.675 M 68.844, 9.769 L 65.758, 13.704 M 70.582, 11.299 L 67.064, 14.853 M 72.132, 13.037 L 68.195, 16.119"/>
            <path class="path_center_line" d="M 30.000, 17.000  L 30.235, 16.613  L 30.483, 16.234  L 30.744, 15.864  L 31.018, 15.503  L 31.304, 15.150  L 31.601, 14.805  L 31.911, 14.469  L 32.232, 14.142  L 32.564, 13.823  L 32.907, 13.512  L 33.261, 13.210  L 33.625, 12.917  L 33.998, 12.632  L 34.382, 12.355  L 34.774, 12.087  L 35.176, 11.828  L 35.587, 11.577  L 36.006, 11.335  L 36.433, 11.101  L 36.869, 10.875  L 37.311, 10.658  L 37.762, 10.450  L 38.219, 10.250  L 38.683, 10.059  L 39.153, 9.876  L 39.630, 9.701  L 40.112, 9.535  L 40.600, 9.378  L 41.093, 9.229  L 41.591, 9.089  L 42.094, 8.957  L 42.601, 8.834  L 43.113, 8.719  L 43.628, 8.612  L 44.146, 8.515  L 44.668, 8.425  L 45.193, 8.345  L 45.721, 8.272  L 46.250, 8.208  L 46.782, 8.153  L 47.316, 8.106  L 47.851, 8.068  L 48.387, 8.038  L 48.924, 8.017  L 49.462, 8.004  L 50.000, 8.000  L 50.538, 8.004  L 51.076, 8.017  L 51.613, 8.038  L 52.149, 8.068  L 52.684, 8.106  L 53.218, 8.153  L 53.750, 8.208  L 54.279, 8.272  L 54.807, 8.345  L 55.332, 8.425  L 55.854, 8.515  L 56.372, 8.612  L 56.887, 8.719  L 57.399, 8.834  L 57.906, 8.957  L 58.409, 9.089  L 58.907, 9.229  L 59.400, 9.378  L 59.888, 9.535  L 60.370, 9.701  L 60.847, 9.876  L 61.317, 10.059  L 61.781, 10.250  L 62.238, 10.450  L 62.689, 10.658  L 63.131, 10.875  L 63.567, 11.101  L 63.994, 11.335  L 64.413, 11.577  L 64.824, 11.828  L 65.226, 12.087  L 65.618, 12.355  L 66.002, 12.632  L 66.375, 12.917  L 66.739, 13.210  L 67.093, 13.512  L 67.436, 13.823  L 67.768, 14.142  L 68.089, 14.469  L 68.399, 14.805  L 68.696, 15.150  L 68.982, 15.503  L 69.256, 15.864  L 69.517, 16.234  L 69.765, 16.613  L 70.000, 17.000 "/>
        </g>
        <g>
            <path class="path_contour" d="M 60.000, 34.000  L 59.988, 34.498  L 59.950, 34.996  L 59.888, 35.490  L 59.802, 35.981  L 59.691, 36.468  L 59.556, 36.948  L 59.397, 37.420  L 59.215, 37.884  L 59.010, 38.339  L 58.782, 38.783  L 58.533, 39.214  L 58.262, 39.633  L 57.971, 40.038  L 57.660, 40.428  L 57.331, 40.802  L 56.982, 41.159  L 56.617, 41.498  L 56.235, 41.818  L 55.837, 42.119  L 55.425, 42.400  L 55.000, 42.660  L 54.562, 42.899  L 54.113, 43.115  L 53.653, 43.309  L 53.185, 43.479  L 52.708, 43.626  L 52.225, 43.749  L 51.736, 43.848  L 51.243, 43.922  L 50.747, 43.972  L 50.249, 43.997  L 49.751, 43.997  L 49.253, 43.972  L 48.757, 43.922  L 48.264, 43.848  L 47.775, 43.749  L 47.292, 43.626  L 46.815, 43.479  L 46.347, 43.309  L 45.887, 43.115  L 45.438, 42.899  L 45.000, 42.660  L 44.575, 42.400  L 44.163, 42.119  L 43.765, 41.818  L 43.383, 41.498  L 43.018, 41.159  L 42.669, 40.802  L 42.340, 40.428  L 42.029, 40.038  L 41.738, 39.633  L 41.467, 39.214  L 41.218, 38.783  L 40.990, 38.339  L 40.785, 37.884  L 40.603, 37.420  L 40.444, 36.948  L 40.309, 36.468  L 40.198, 35.981  L 40.112, 35.490  L 40.050, 34.996  L 40.012, 34.498  L 40.000, 34.000  L 40.012, 33.502  L 40.050, 33.004  L 40.112, 32.510  L 40.198, 32.019  L 40.309, 31.532  L 40.444, 31.052  L 40.603, 30.580  L 40.785, 30.116  L 40.990, 29.661  L 41.218, 29.217  L 41.467, 28.786  L 41.738, 28.367  L 42.029, 27.962  L 42.340, 27.572  L 42.669, 27.198  L 43.018, 26.841  L 43.383, 26.502  L 43.765, 26.182  L 44.163, 25.881  L 44.575, 25.600  L 45.000, 25.340  L 45.438, 25.101  L 45.887, 24.885  L 46.347, 24.691  L 46.815, 24.521  L 47.292, 24.374  L 47.775, 24.251  L 48.264, 24.152  L 48.757, 24.078  L 49.253, 24.028  L 49.751, 24.003  L 50.249, 24.003  L 50.747, 24.028  L 51.243, 24.078  L 51.736, 24.152  L 52.225, 24.251  L 52.708, 24.374  L 53.185, 24.521  L 53.653, 24.691  L 54.113, 24.885  L 54.562, 25.101  L 55.000, 25.340  L 55.425, 25.600  L 55.837, 25.881  L 56.235, 26.182  L 56.617, 26.502  L 56.982, 26.841  L 57.331, 27.198  L 57.660, 27.572  L 57.971, 27.962  L 58.262, 28.367  L 58.533, 28.786  L 58.782, 29.217  L 59.010, 29.661  L 59.215, 30.116  L 59.397, 30.580  L 59.556, 31.052  L 59.691, 31.532  L 59.802, 32.019  L 59.888, 32.510  L 59.950, 33.004  L 59.988, 33.502  L 60.000, 34.000  L 59.500, 34.000  L 59.000, 34.000  L 58.500, 34.000  L 58.000, 34.000  L 57.500, 34.000  L 57.000, 34.000  L 56.500, 34.000  L 56.000, 34.000  L 55.500, 34.000  L 55.000, 34.000  L 54.994, 33.751  L 54.975, 33.502  L 54.944, 33.255  L 54.901, 33.009  L 54.845, 32.766  L 54.778, 32.526  L 54.698, 32.290  L 54.607, 32.058  L 54.505, 31.831  L 54.391, 31.609  L 54.266, 31.393  L 54.131, 31.183  L 53.986, 30.981  L 53.830, 30.786  L 53.665, 30.599  L 53.491, 30.421  L 53.308, 30.251  L 53.117, 30.091  L 52.919, 29.940  L 52.713, 29.800  L 52.500, 29.670  L 52.281, 29.551  L 52.056, 29.442  L 51.827, 29.346  L 51.592, 29.260  L 51.354, 29.187  L 51.113, 29.125  L 50.868, 29.076  L 50.622, 29.039  L 50.374, 29.014  L 50.125, 29.002  L 49.875, 29.002  L 49.626, 29.014  L 49.378, 29.039  L 49.132, 29.076  L 48.887, 29.125  L 48.646, 29.187  L 48.408, 29.260  L 48.173, 29.346  L 47.944, 29.442  L 47.719, 29.551  L 47.500, 29.670  L 47.287, 29.800  L 47.081, 29.940  L 46.883, 30.091  L 46.692, 30.251  L 46.509, 30.421  L 46.335, 30.599  L 46.170, 30.786  L 46.014, 30.981  L 45.869, 31.183  L 45.734, 31.393  L 45.609, 31.609  L 45.495, 31.831  L 45.393, 32.058  L 45.302, 32.290  L 45.222, 32.526  L 45.155, 32.766  L 45.099, 33.009  L 45.056, 33.255  L 45.025, 33.502  L 45.006, 33.751  L 45.000, 34.000  L 45.006, 34.249  L 45.025, 34.498  L 45.056, 34.745  L 45.099, 34.991  L 45.155, 35.234  L 45.222, 35.474  L 45.302, 35.710  L 45.393, 35.942  L 45.495, 36.169  L 45.609, 36.391  L 45.734, 36.607  L 45.869, 36.817  L 46.014, 37.019  L 46.170, 37.214  L 46.335, 37.401  L 46.509, 37.579  L 46.692, 37.749  L 46.883, 37.909  L 47.081, 38.060  L 47.287, 38.200  L 47.500, 38.330  L 47.719, 38.449  L 47.944, 38.558  L 48.173, 38.654  L 48.408, 38.740  L 48.646, 38.813  L 48.887, 38.875  L 49.132, 38.924  L 49.378, 38.961  L 49.626, 38.986  L 49.875, 38.998  L 50.125, 38.998  L 50.374, 38.986  L 50.622, 38.961  L 50.868, 38.924  L 51.113, 38.875  L 51.354, 38.813  L 51.592, 38.740  L 51.827, 38.654  L 52.056, 38.558  L 52.281, 38.449  L 52.500, 38.330  L 52.713, 38.200  L 52.919, 38.060  L 53.117, 37.909  L 53.308, 37.749  L 53.491, 37.579  L 53.665, 37.401  L 53.830, 37.214  L 53.986, 37.019  L 54.131, 36.817  L 54.266, 36.607  L 54.391, 36.391  L 54.505, 36.169  L 54.607, 35.942  L 54.698, 35.710  L 54.778, 35.474  L 54.845, 35.234  L 54.901, 34.991  L 54.944, 34.745  L 54.975, 34.498  L 54.994, 34.249  L 55.000, 34.000  L 55.500, 34.000  L 56.000, 34.000  L 56.500, 34.000  L 57.000, 34.000  L 57.500, 34.000  L 58.000, 34.000  L 58.500, 34.000  L 59.000, 34.000  L 59.500, 34.000  L 60.000, 34.000  Z"/>
            <path class="path_direction_line" d="M 59.795, 36.013 L 54.898, 35.006 M 59.190, 37.944 L 54.595, 35.972 M 58.208, 39.713 L 54.104, 36.856 M 56.890, 41.248 L 53.445, 37.624 M 55.290, 42.486 L 52.645, 38.243 M 53.473, 43.378 L 51.737, 38.689 M 51.514, 43.885 L 50.757, 38.942 M 49.494, 43.987 L 49.747, 38.994 M 47.493, 43.681 L 48.747, 38.840 M 45.596, 42.978 L 47.798, 38.489 M 43.879, 41.908 L 46.939, 37.954 M 42.412, 40.514 L 46.206, 37.257 M 41.257, 38.853 L 45.628, 36.427 M 40.459, 36.994 L 45.229, 35.497 M 40.051, 35.012 L 45.026, 34.506 M 40.051, 32.988 L 45.026, 33.494 M 40.459, 31.006 L 45.229, 32.503 M 41.257, 29.147 L 45.628, 31.573 M 42.412, 27.486 L 46.206, 30.743 M 43.879, 26.092 L 46.939, 30.046 M 45.596, 25.022 L 47.798, 29.511 M 47.493, 24.319 L 48.747, 29.160 M 49.494, 24.013 L 49.747, 29.006 M 51.514, 24.115 L 50.757, 29.058 M 53.473, 24.622 L 51.737, 29.311 M 55.290, 25.514 L 52.645, 29.757 M 56.890, 26.752 L 53.445, 30.376 M 58.208, 28.287 L 54.104, 31.144 M 59.190, 30.056 L 54.595, 32.028 M 59.795, 31.987 L 54.898, 32.994"/>
            <path class="path_center_line" d="M 60.000, 34.000  L 59.988, 34.498  L 59.950, 34.996  L 59.888, 35.490  L 59.802, 35.981  L 59.691, 36.468  L 59.556, 36.948  L 59.397, 37.420  L 59.215, 37.884  L 59.010, 38.339  L 58.782, 38.783  L 58.533, 39.214  L 58.262, 39.633  L 57.971, 40.038  L 57.660, 40.428  L 57.331, 40.802  L 56.982, 41.159  L 56.617, 41.498  L 56.235, 41.818  L 55.837, 42.119  L 55.425, 42.400  L 55.000, 42.660  L 54.562, 42.899  L 54.113, 43.115  L 53.653, 43.309  L 53.185, 43.479  L 52.708, 43.626  L 52.225, 43.749  L 51.736, 43.848  L 51.243, 43.922  L 50.747, 43.972  L 50.249, 43.997  L 49.751, 43.997  L 49.253, 43.972  L 48.757, 43.922  L 48.264, 43.848  L 47.775, 43.749  L 47.292, 43.626  L 46.815, 43.479  L 46.347, 43.309  L 45.887, 43.115  L 45.438, 42.899  L 45.000, 42.660  L 44.575, 42.400  L 44.163, 42.119  L 43.765, 41.818  L 43.383, 41.498  L 43.018, 41.159  L 42.669, 40.802  L 42.340, 40.428  L 42.029, 40.038  L 41.738, 39.633  L 41.467, 39.214  L 41.218, 38.783  L 40.990, 38.339  L 40.785, 37.884  L 40.603, 37.420  L 40.444, 36.948  L 40.309, 36.468  L 40.198, 35.981  L 40.112, 35.490  L 40.050, 34.996  L 40.012, 34.498  L 40.000, 34.000  L 40.012, 33.502  L 40.050, 33.004  L 40.112, 32.510  L 40.198, 32.019  L 40.309, 31.532  L 40.444, 31.052  L 40.603, 30.580  L 40.785, 30.116  L 40.990, 29.661  L 41.218, 29.217  L 41.467, 28.786  L 41.738, 28.367  L 42.029, 27.962  L 42.340, 27.572  L 42.669, 27.198  L 43.018, 26.841  L 43.383, 26.502  L 43.765, 26.182  L 44.163, 25.881  L 44.575, 25.600  L 45.000, 25.340  L 45.438, 25.101  L 45.887, 24.885  L 46.347, 24.691  L 46.815, 24.521  L 47.292, 24.374  L 47.775, 24.251  L 48.264, 24.152  L 48.757, 24.078  L 49.253, 24.028  L 49.751, 24.003  L 50.249, 24.003  L 50.747, 24.028  L 51.243, 24.078  L 51.736, 24.152  L 52.225, 24.251  L 52.708, 24.374  L 53.185, 24.521  L 53.653, 24.691  L 54.113, 24.885  L 54.562, 25.101  L 55.000, 25.340  L 55.425, 25.600  L 55.837, 25.881  L 56.235, 26.182  L 56.617, 26.502  L 56.982, 26.841  L 57.331, 27.198  L 57.660, 27.572  L 57.971, 27.962  L 58.262, 28.367  L 58.533, 28.786  L 58.782, 29.217  L 59.010, 29.661  L 59.215, 30.116  L 59.397, 30.580  L 59.556, 31.052  L 59.691, 31.532  L 59.802, 32.019  L 59.888, 32.510  L 59.950, 33.004  L 59.988, 33.502  L 60.000, 34.000 "/>
        </g>
    </g>
</svg>
