<?xml version="1.0" encoding="utf-8" ?>
<svg xmlns="http://www.w3.org/2000/svg" xmlns:ev="http://www.w3.org/2001/xml-events" xmlns:xlink="http://www.w3.org/1999/xlink" baseProfile="full" height="110mm" version="1.1" viewBox="0,0,210,110" width="210mm">
    <defs>
        <style type="text/css"><![CDATA[
.stitch_line {
    stroke-width: 0.3;
    stroke-linejoin: round;
    stroke-linecap: round;
    fill: none;
}
.sampling_line {
    stroke:#148983;
    stroke-width: 0.5;
    fill: none;
}
.path_handle {
    stroke-width: 0.5;
    stroke-linejoin: round;
    stroke-linecap: round;
    fill:none;
    stroke: #808080;
    marker-start: url(#handles);
    marker-mid: url(#handles);
    marker-end: url(#handles);
}
.path_center_line {
    stroke-width: 0.2;
    stroke-linejoin: round;
    stroke-linecap: round;
    fill: none;
    stroke:#148983;
    stroke-dasharray: 2,1.5;
    stroke-dashoffset: 1;
}
.path_contour {
    stroke: #85c4c1;
    fill-opacity: 0;
    stroke-width: 0.3;
}
.path_direction_line {
    stroke-width: 0.05;
    fill: none;
    stroke: #85c4c1;
}
.text{
    text-anchor: middle;
    dominant-baseline: middle;
    font-family: sans-serif;
    font-size: 1.5mm;
}
.smalltext{
    text-anchor: middle;
    dominant-baseline: middle;
    font-family: sans-serif;
    font-size: 1mm;
}
.color_0 {
    stroke:#148983;
    marker-start:url(#dot_0);
    marker-mid:url(#dot_0);
    marker-end:url(#dot_0);
}
.color_1 {
    stroke:#1873ac;
    marker-start:url(#dot_1);
    marker-mid:url(#dot_1);
    marker-end:url(#dot_1);
}
.color_2 {
    stroke:#8c5290;
    marker-start:url(#dot_2);
    marker-mid:url(#dot_2);
    marker-end:url(#dot_2);
}
.color_3 {
    stroke:#61a09c;
    marker-start:url(#dot_3);
    marker-mid:url(#dot_3);
    marker-end:url(#dot_3);
}
.color_4 {
    stroke:#5ad2f4;
    marker-start:url(#dot_4);
    marker-mid:url(#dot_4);
    marker-end:url(#dot_4);
}
.color_5 {
    stroke:#0f6460;
    marker-start:url(#dot_5);
    marker-mid:url(#dot_5);
    marker-end:url(#dot_5);
}
.color_6 {
    stroke:#0f4668;
    marker-start:url(#dot_6);
    marker-mid:url(#dot_6);
    marker-end:url(#dot_6);
}
.color_7 {
    stroke:#543156;
    marker-start:url(#dot_7);
    marker-mid:url(#dot_7);
    marker-end:url(#dot_7);
}
.color_8 {
    stroke:#487673;
    marker-start:url(#dot_8);
    marker-mid:url(#dot_8);
    marker-end:url(#dot_8);
}
.color_9 {
    stroke:#0c8baf;
    marker-start:url(#dot_9);
    marker-mid:url(#dot_9);
    marker-end:url(#dot_9);
}
]]></style>
        <marker id="dot_0" markerHeight="3.0" markerWidth="3.0" refX="1.5" refY="1.5">
            <circle cx="1.5" cy="1.5" fill="#148983" r="1.5"/>
        </marker>
        <marker id="dot_1" markerHeight="3.0" markerWidth="3.0" refX="1.5" refY="1.5">
            <circle cx="1.5" cy="1.5" fill="#1873ac" r="1.5"/>
        </marker>
        <marker id="dot_2" markerHeight="3.0" markerWidth="3.0" refX="1.5" refY="1.5">
            <circle cx="1.5" cy="1.5" fill="#8c5290" r="1.5"/>
        </marker>
        <marker id="dot_3" markerHeight="3.0" markerWidth="3.0" refX="1.5" refY="1.5">
            <circle cx="1.5" cy="1.5" fill="#61a09c" r="1.5"/>
        </marker>
        <marker id="dot_4" markerHeight="3.0" markerWidth="3.0" refX="1.5" refY="1.5">
            <circle cx="1.5" cy="1.5" fill="#5ad2f4" r="1.5"/>
        </marker>
        <marker id="dot_5" markerHeight="3.0" markerWidth="3.0" refX="1.5" refY="1.5">
            <circle cx="1.5" cy="1.5" fill="#0f6460" r="1.5"/>
        </marker>
        <marker id="dot_6" markerHeight="3.0" markerWidth="3.0" refX="1.5" refY="1.5">
            <circle cx="1.5" cy="1.5" fill="#0f4668" r="1.5"/>
        </marker>
        <marker id="dot_7" markerHeight="3.0" markerWidth="3.0" refX="1.5" refY="1.5">
            <circle cx="1.5" cy="1.5" fill="#543156" r="1.5"/>
        </marker>
        <marker id="dot_8" markerHeight="3.0" markerWidth="3.0" refX="1.5" refY="1.5">
            <circle cx="1.5" cy="1.5" fill="#487673" r="1.5"/>
        </marker>
        <marker id="dot_9" markerHeight="3.0" markerWidth="3.0" refX="1.5" refY="1.5">
            <circle cx="1.5" cy="1.5" fill="#0c8baf" r="1.5"/>
        </marker>
    </defs>
    <g>
        <g>
            <path class="path_contour" d="M 15.840, 87.226  L 16.150, 86.754  L 16.448, 86.284  L 16.734, 85.819  L 17.008, 85.356  L 17.271, 84.898  L 17.522, 84.443  L 17.762, 83.991  L 17.990, 83.543  L 18.209, 83.098  L 18.416, 82.656  L 18.614, 82.217  L 18.801, 81.781  L 18.978, 81.349  L 19.146, 80.919  L 19.305, 80.492  L 19.454, 80.067  L 19.594, 79.645  L 19.725, 79.225  L 19.848, 78.808  L 19.962, 78.393  L 20.068, 77.980  L 20.166, 77.569  L 20.256, 77.159  L 20.338, 76.751  L 20.413, 76.345  L 20.480, 75.940  L 20.540, 75.536  L 20.593, 75.133  L 20.638, 74.731  L 20.677, 74.330  L 20.709, 73.930  L 20.735, 73.530  L 20.754, 73.130  L 20.766, 72.731  L 20.773, 72.332  L 20.773, 71.933  L 20.767, 71.534  L 20.755, 71.135  L 20.736, 70.736  L 20.713, 70.337  L 20.683, 69.937  L 20.648, 69.537  L 20.607, 69.136  L 20.560, 68.734  L 20.508, 68.332  L 20.451, 67.929  L 20.389, 67.526  L 20.321, 67.122  L 20.249, 66.717  L 20.171, 66.311  L 20.089, 65.904  L 20.001, 65.496  L 19.909, 65.087  L 19.813, 64.677  L 19.712, 64.266  L 19.606, 63.855  L 19.497, 63.442  L 19.383, 63.028  L 19.265, 62.613  L 19.143, 62.197  L 19.017, 61.780  L 18.888, 61.362  L 18.755, 60.942  L 18.618, 60.522  L 18.478, 60.100  L 18.335, 59.677  L 18.189, 59.253  L 18.040, 58.828  L 17.888, 58.402  L 17.733, 57.974  L 17.576, 57.546  L 17.416, 57.116  L 17.254, 56.685  L 17.089, 56.252  L 16.923, 55.819  L 16.755, 55.384  L 16.585, 54.948  L 16.413, 54.510  L 16.240, 54.071  L 16.066, 53.631  L 15.890, 53.190  L 15.713, 52.747  L 15.536, 52.303  L 15.358, 51.857  L 15.179, 51.410  L 15.000, 50.961  L 14.820, 50.511  L 14.640, 50.059  L 14.461, 49.606  L 14.281, 49.151  L 14.102, 48.695  L 13.924, 48.237  L 13.746, 47.777  L 13.569, 47.315  L 13.393, 46.852  L 13.218, 46.387  L 13.044, 45.920  L 12.872, 45.451  L 12.702, 44.981  L 12.533, 44.508  L 12.366, 44.033  L 12.202, 43.557  L 12.040, 43.078  L 11.880, 42.597  L 11.724, 42.114  L 11.570, 41.629  L 11.419, 41.141  L 11.271, 40.652  L 11.127, 40.160  L 10.987, 39.665  L 10.850, 39.169  L 10.717, 38.670  L 10.589, 38.168  L 10.465, 37.664  L 10.346, 37.157  L 10.231, 36.648  L 10.122, 36.136  L 10.018, 35.622  L 9.919, 35.105  L 9.826, 34.585  L 9.738, 34.063  L 9.657, 33.538  L 9.582, 33.010  L 9.514, 32.480  L 9.452, 31.947  L 9.398, 31.412  L 9.350, 30.873  L 9.310, 30.332  L 9.277, 29.789  L 9.253, 29.243  L 9.236, 28.694  L 9.228, 28.143  L 9.228, 27.590  L 9.236, 27.034  L 9.254, 26.476  L 9.280, 25.915  L 9.316, 25.352  L 9.362, 24.787  L 9.417, 24.220  L 9.482, 23.652  L 9.556, 23.081  L 9.641, 22.508  L 9.737, 21.934  L 9.842, 21.358  L 9.959, 20.780  L 10.086, 20.201  L 10.224, 19.620  L 10.373, 19.039  L 10.534, 18.456  L 10.705, 17.872  L 10.889, 17.286  L 11.083, 16.700  L 11.289, 16.113  L 11.507, 15.525  L 11.737, 14.936  L 11.979, 14.347  L 12.233, 13.757  L 12.498, 13.166  L 12.776, 12.574  L 13.067, 11.982  L 13.369, 11.390  L 13.684, 10.797  L 14.012, 10.203  L 14.352, 9.609  L 14.705, 9.014  L 15.070, 8.419  L 15.448, 7.823  L 15.840, 7.226  L 16.256, 7.504  L 16.672, 7.781  L 17.088, 8.059  L 17.504, 8.336  L 17.920, 8.613  L 18.336, 8.891  L 18.752, 9.168  L 19.168, 9.445  L 19.584, 9.723  L 20.000, 10.000  L 20.416, 10.277  L 20.832, 10.555  L 21.248, 10.832  L 21.664, 11.109  L 22.080, 11.387  L 22.496, 11.664  L 22.912, 11.941  L 23.328, 12.219  L 23.744, 12.496  L 24.160, 12.774  L 23.850, 13.246  L 23.552, 13.716  L 23.266, 14.181  L 22.992, 14.644  L 22.729, 15.102  L 22.478, 15.557  L 22.238, 16.009  L 22.010, 16.457  L 21.791, 16.902  L 21.584, 17.344  L 21.386, 17.783  L 21.199, 18.219  L 21.022, 18.651  L 20.854, 19.081  L 20.695, 19.508  L 20.546, 19.933  L 20.406, 20.355  L 20.275, 20.775  L 20.152, 21.192  L 20.038, 21.607  L 19.932, 22.020  L 19.834, 22.431  L 19.744, 22.841  L 19.662, 23.249  L 19.587, 23.655  L 19.520, 24.060  L 19.460, 24.464  L 19.407, 24.867  L 19.362, 25.269  L 19.323, 25.670  L 19.291, 26.070  L 19.265, 26.470  L 19.246, 26.870  L 19.234, 27.269  L 19.227, 27.668  L 19.227, 28.067  L 19.233, 28.466  L 19.245, 28.865  L 19.264, 29.264  L 19.287, 29.663  L 19.317, 30.063  L 19.352, 30.463  L 19.393, 30.864  L 19.440, 31.266  L 19.492, 31.668  L 19.549, 32.071  L 19.611, 32.474  L 19.679, 32.878  L 19.751, 33.283  L 19.829, 33.689  L 19.911, 34.096  L 19.999, 34.504  L 20.091, 34.913  L 20.187, 35.323  L 20.288, 35.734  L 20.394, 36.145  L 20.503, 36.558  L 20.617, 36.972  L 20.735, 37.387  L 20.857, 37.803  L 20.983, 38.220  L 21.112, 38.638  L 21.245, 39.058  L 21.382, 39.478  L 21.522, 39.900  L 21.665, 40.323  L 21.811, 40.747  L 21.960, 41.172  L 22.112, 41.598  L 22.267, 42.026  L 22.424, 42.454  L 22.584, 42.884  L 22.746, 43.315  L 22.911, 43.748  L 23.077, 44.181  L 23.245, 44.616  L 23.415, 45.052  L 23.587, 45.490  L 23.760, 45.929  L 23.934, 46.369  L 24.110, 46.810  L 24.287, 47.253  L 24.464, 47.697  L 24.642, 48.143  L 24.821, 48.590  L 25.000, 49.039  L 25.180, 49.489  L 25.360, 49.941  L 25.539, 50.394  L 25.719, 50.849  L 25.898, 51.305  L 26.076, 51.763  L 26.254, 52.223  L 26.431, 52.685  L 26.607, 53.148  L 26.782, 53.613  L 26.956, 54.080  L 27.128, 54.549  L 27.298, 55.019  L 27.467, 55.492  L 27.634, 55.967  L 27.798, 56.443  L 27.960, 56.922  L 28.120, 57.403  L 28.276, 57.886  L 28.430, 58.371  L 28.581, 58.859  L 28.729, 59.348  L 28.873, 59.840  L 29.013, 60.335  L 29.150, 60.831  L 29.283, 61.330  L 29.411, 61.832  L 29.535, 62.336  L 29.654, 62.843  L 29.769, 63.352  L 29.878, 63.864  L 29.982, 64.378  L 30.081, 64.895  L 30.174, 65.415  L 30.262, 65.937  L 30.343, 66.462  L 30.418, 66.990  L 30.486, 67.520  L 30.548, 68.053  L 30.602, 68.588  L 30.650, 69.127  L 30.690, 69.668  L 30.723, 70.211  L 30.747, 70.757  L 30.764, 71.306  L 30.772, 71.857  L 30.772, 72.410  L 30.764, 72.966  L 30.746, 73.524  L 30.720, 74.085  L 30.684, 74.648  L 30.638, 75.213  L 30.583, 75.780  L 30.518, 76.348  L 30.444, 76.919  L 30.359, 77.492  L 30.263, 78.066  L 30.158, 78.642  L 30.041, 79.220  L 29.914, 79.799  L 29.776, 80.380  L 29.627, 80.961  L 29.466, 81.544  L 29.295, 82.128  L 29.111, 82.714  L 28.917, 83.300  L 28.711, 83.887  L 28.493, 84.475  L 28.263, 85.064  L 28.021, 85.653  L 27.767, 86.243  L 27.502, 86.834  L 27.224, 87.426  L 26.933, 88.018  L 26.631, 88.610  L 26.316, 89.203  L 25.988, 89.797  L 25.648, 90.391  L 25.295, 90.986  L 24.930, 91.581  L 24.552, 92.177  L 24.160, 92.774  L 23.744, 92.496  L 23.328, 92.219  L 22.912, 91.941  L 22.496, 91.664  L 22.080, 91.387  L 21.664, 91.109  L 21.248, 90.832  L 20.832, 90.555  L 20.416, 90.277  L 20.000, 90.000  L 19.584, 89.723  L 19.168, 89.445  L 18.752, 89.168  L 18.336, 88.891  L 17.920, 88.613  L 17.504, 88.336  L 17.088, 88.059  L 16.672, 87.781  L 16.256, 87.504  L 15.840, 87.226  Z"/>
            <path class="path_center_line" d="M 20.000, 90.000  L 20.351, 89.465  L 20.689, 88.933  L 21.015, 88.402  L 21.328, 87.874  L 21.629, 87.347  L 21.919, 86.823  L 22.196, 86.301  L 22.462, 85.780  L 22.716, 85.262  L 22.959, 84.745  L 23.191, 84.230  L 23.411, 83.717  L 23.621, 83.206  L 23.819, 82.697  L 24.008, 82.189  L 24.185, 81.683  L 24.353, 81.179  L 24.510, 80.677  L 24.657, 80.176  L 24.794, 79.677  L 24.922, 79.180  L 25.040, 78.684  L 25.148, 78.190  L 25.248, 77.697  L 25.338, 77.206  L 25.419, 76.716  L 25.492, 76.228  L 25.556, 75.741  L 25.611, 75.255  L 25.658, 74.771  L 25.697, 74.289  L 25.727, 73.807  L 25.750, 73.327  L 25.765, 72.849  L 25.773, 72.371  L 25.773, 71.895  L 25.765, 71.420  L 25.751, 70.946  L 25.730, 70.474  L 25.701, 70.002  L 25.666, 69.532  L 25.625, 69.062  L 25.577, 68.594  L 25.523, 68.127  L 25.463, 67.661  L 25.397, 67.196  L 25.325, 66.732  L 25.248, 66.268  L 25.165, 65.806  L 25.077, 65.344  L 24.983, 64.884  L 24.885, 64.424  L 24.782, 63.965  L 24.674, 63.507  L 24.561, 63.049  L 24.444, 62.593  L 24.323, 62.137  L 24.198, 61.681  L 24.069, 61.227  L 23.936, 60.773  L 23.799, 60.319  L 23.659, 59.866  L 23.516, 59.414  L 23.369, 58.962  L 23.219, 58.511  L 23.067, 58.060  L 22.911, 57.610  L 22.753, 57.160  L 22.593, 56.711  L 22.431, 56.262  L 22.266, 55.813  L 22.099, 55.364  L 21.931, 54.916  L 21.760, 54.469  L 21.589, 54.021  L 21.416, 53.574  L 21.241, 53.126  L 21.066, 52.679  L 20.890, 52.233  L 20.713, 51.786  L 20.535, 51.339  L 20.357, 50.893  L 20.179, 50.446  L 20.000, 50.000  L 19.821, 49.554  L 19.643, 49.107  L 19.465, 48.661  L 19.287, 48.214  L 19.110, 47.767  L 18.934, 47.321  L 18.759, 46.874  L 18.584, 46.426  L 18.411, 45.979  L 18.240, 45.531  L 18.069, 45.084  L 17.901, 44.636  L 17.734, 44.187  L 17.569, 43.738  L 17.407, 43.289  L 17.247, 42.840  L 17.089, 42.390  L 16.933, 41.940  L 16.781, 41.489  L 16.631, 41.038  L 16.484, 40.586  L 16.341, 40.134  L 16.201, 39.681  L 16.064, 39.227  L 15.931, 38.773  L 15.802, 38.319  L 15.677, 37.863  L 15.556, 37.407  L 15.439, 36.951  L 15.326, 36.493  L 15.218, 36.035  L 15.115, 35.576  L 15.017, 35.116  L 14.923, 34.656  L 14.835, 34.194  L 14.752, 33.732  L 14.675, 33.268  L 14.603, 32.804  L 14.537, 32.339  L 14.477, 31.873  L 14.423, 31.406  L 14.375, 30.938  L 14.334, 30.468  L 14.299, 29.998  L 14.270, 29.526  L 14.249, 29.054  L 14.235, 28.580  L 14.227, 28.105  L 14.227, 27.629  L 14.235, 27.151  L 14.250, 26.673  L 14.273, 26.193  L 14.303, 25.711  L 14.342, 25.229  L 14.389, 24.745  L 14.444, 24.259  L 14.508, 23.772  L 14.581, 23.284  L 14.662, 22.794  L 14.752, 22.303  L 14.852, 21.810  L 14.960, 21.316  L 15.078, 20.820  L 15.206, 20.323  L 15.343, 19.824  L 15.490, 19.323  L 15.647, 18.821  L 15.815, 18.317  L 15.992, 17.811  L 16.181, 17.303  L 16.379, 16.794  L 16.589, 16.283  L 16.809, 15.770  L 17.041, 15.255  L 17.284, 14.738  L 17.538, 14.220  L 17.804, 13.699  L 18.081, 13.177  L 18.371, 12.653  L 18.672, 12.126  L 18.985, 11.598  L 19.311, 11.067  L 19.649, 10.535  L 20.000, 10.000 "/>
        </g>
        <text class="text" x="20" y="105">Path</text>
        <path class="stitch_line color_0" d="M 65.840, 87.226  L 67.504, 88.336  L 70.000, 90.000  L 72.496, 91.664  L 74.160, 92.774  L 75.648, 90.391  L 74.784, 89.888  L 72.192, 88.377  L 69.600, 86.867  L 67.008, 85.356  L 67.990, 83.543  L 71.568, 85.333  L 74.251, 86.675  L 76.933, 88.018  L 78.021, 85.653  L 76.177, 84.879  L 73.411, 83.717  L 70.645, 82.556  L 68.801, 81.781  L 69.454, 80.067  L 72.293, 81.037  L 75.132, 82.007  L 77.971, 82.977  L 78.917, 83.300  L 79.627, 80.961  L 76.727, 80.191  L 73.828, 79.420  L 69.962, 78.393  L 70.338, 76.751  L 72.302, 77.129  L 75.248, 77.697  L 78.194, 78.264  L 80.158, 78.642  L 80.518, 76.348  L 79.526, 76.227  L 76.548, 75.862  L 73.570, 75.498  L 70.593, 75.133  L 70.735, 73.530  L 71.733, 73.585  L 74.729, 73.752  L 77.724, 73.918  L 80.720, 74.085  L 80.772, 71.857  L 78.773, 71.872  L 75.773, 71.895  L 72.773, 71.918  L 70.773, 71.933  L 70.713, 70.337  L 73.706, 70.136  L 76.699, 69.935  L 79.692, 69.734  L 80.690, 69.668  L 80.486, 67.520  L 77.508, 67.884  L 74.531, 68.249  L 71.553, 68.613  L 70.560, 68.734  L 70.321, 67.122  L 72.292, 66.780  L 75.248, 66.268  L 78.204, 65.756  L 80.174, 65.415  L 79.769, 63.352  L 78.792, 63.566  L 75.862, 64.210  L 72.931, 64.853  L 70.001, 65.496  L 69.606, 63.855  L 73.477, 62.845  L 76.380, 62.088  L 79.283, 61.330  L 78.729, 59.348  L 76.812, 59.918  L 73.936, 60.773  L 71.060, 61.627  L 69.143, 62.197  L 68.618, 60.522  L 71.469, 59.586  L 74.319, 58.650  L 77.169, 57.715  L 78.120, 57.403  L 77.467, 55.492  L 74.639, 56.493  L 71.811, 57.494  L 68.983, 58.495  L 68.040, 58.828  L 67.416, 57.116  L 69.289, 56.415  L 72.099, 55.364  L 74.909, 54.314  L 76.782, 53.613  L 76.076, 51.763  L 75.144, 52.125  L 72.348, 53.212  L 69.551, 54.298  L 66.755, 55.384  L 66.066, 53.631  L 66.995, 53.262  L 69.783, 52.155  L 72.571, 51.048  L 75.360, 49.941  L 74.642, 48.143  L 72.785, 48.886  L 70.000, 50.000  L 67.215, 51.114  L 65.358, 51.857  L 64.640, 50.059  L 67.429, 48.952  L 70.217, 47.845  L 73.005, 46.738  L 73.934, 46.369  L 73.245, 44.616  L 70.449, 45.702  L 67.652, 46.788  L 63.924, 48.237  L 63.218, 46.387  L 65.091, 45.686  L 67.901, 44.636  L 70.711, 43.585  L 72.584, 42.884  L 71.960, 41.172  L 71.017, 41.505  L 68.189, 42.506  L 65.361, 43.507  L 62.533, 44.508  L 61.880, 42.597  L 62.831, 42.285  L 65.681, 41.350  L 68.531, 40.414  L 71.382, 39.478  L 70.857, 37.803  L 68.940, 38.373  L 66.064, 39.227  L 63.188, 40.082  L 61.271, 40.652  L 60.717, 38.670  L 63.620, 37.912  L 66.523, 37.155  L 70.394, 36.145  L 69.999, 34.504  L 67.069, 35.147  L 64.138, 35.790  L 61.208, 36.434  L 60.231, 36.648  L 59.826, 34.585  L 61.796, 34.244  L 64.752, 33.732  L 67.708, 33.220  L 69.679, 32.878  L 69.440, 31.266  L 68.447, 31.387  L 65.469, 31.751  L 62.492, 32.116  L 59.514, 32.480  L 59.310, 30.332  L 60.308, 30.266  L 63.301, 30.065  L 66.294, 29.864  L 69.287, 29.663  L 69.227, 28.067  L 67.227, 28.082  L 64.227, 28.105  L 61.227, 28.128  L 59.228, 28.143  L 59.280, 25.915  L 62.276, 26.082  L 65.271, 26.248  L 68.267, 26.415  L 69.265, 26.470  L 69.407, 24.867  L 66.430, 24.502  L 63.452, 24.138  L 60.474, 23.773  L 59.482, 23.652  L 59.842, 21.358  L 61.806, 21.736  L 64.752, 22.303  L 67.698, 22.871  L 69.662, 23.249  L 70.038, 21.607  L 66.172, 20.580  L 63.273, 19.809  L 60.373, 19.039  L 61.083, 16.700  L 62.029, 17.023  L 64.868, 17.993  L 67.707, 18.963  L 70.546, 19.933  L 71.199, 18.219  L 69.355, 17.444  L 66.589, 16.283  L 63.823, 15.121  L 61.979, 14.347  L 63.067, 11.982  L 65.749, 13.325  L 68.432, 14.667  L 71.115, 16.010  L 72.010, 16.457  L 72.992, 14.644  L 70.400, 13.133  L 67.808, 11.623  L 64.352, 9.609  L 65.840, 7.226  L 67.504, 8.336  L 70.000, 10.000  L 72.496, 11.664  L 74.160, 12.774 "/>
        <text class="text" x="70" y="105">Meander</text>
        <path class="stitch_line color_1" d="M 95.840, 87.226  L 97.522, 84.443  L 98.801, 81.781  L 99.725, 79.225  L 100.338, 76.751  L 100.677, 74.330  L 100.773, 71.933  L 100.648, 69.537  L 100.321, 67.122  L 99.813, 64.677  L 99.143, 62.197  L 98.335, 59.677  L 97.416, 57.116  L 96.413, 54.510  L 95.358, 51.857  L 94.281, 49.151  L 93.218, 46.387  L 92.202, 43.557  L 91.271, 40.652  L 90.465, 37.664  L 89.826, 34.585  L 89.398, 31.412  L 89.228, 28.143  L 89.362, 24.787  L 89.842, 21.358  L 90.705, 17.872  L 91.979, 14.347  L 93.684, 10.797  L 95.840, 7.226  L 97.028, 8.019  L 94.941, 11.477  L 93.296, 14.900  L 92.073, 18.286  L 91.245, 21.628  L 90.785, 24.914  L 90.656, 28.132  L 90.820, 31.276  L 91.233, 34.341  L 91.854, 37.329  L 92.641, 40.245  L 93.554, 43.095  L 94.556, 45.887  L 95.611, 48.628  L 96.684, 51.326  L 97.743, 53.987  L 98.754, 56.615  L 99.687, 59.215  L 100.512, 61.790  L 101.202, 64.343  L 101.729, 66.878  L 102.070, 69.401  L 102.201, 71.922  L 102.100, 74.456  L 101.741, 77.021  L 101.092, 79.640  L 100.118, 82.334  L 98.778, 85.123  L 97.028, 88.019  L 99.406, 89.604  L 101.291, 86.483  L 102.753, 83.441  L 103.826, 80.470  L 104.546, 77.562  L 104.946, 74.708  L 105.058, 71.901  L 104.914, 69.130  L 104.544, 66.390  L 103.979, 63.674  L 103.251, 60.976  L 102.391, 58.291  L 101.430, 55.615  L 100.401, 52.941  L 99.337, 50.265  L 98.269, 47.582  L 97.232, 44.886  L 96.257, 42.171  L 95.379, 39.431  L 94.632, 36.660  L 94.048, 33.854  L 93.664, 31.005  L 93.513, 28.110  L 93.631, 25.166  L 94.051, 22.168  L 94.807, 19.116  L 95.930, 16.006  L 97.453, 12.837  L 99.406, 9.604  L 100.594, 10.396  L 98.709, 13.517  L 97.247, 16.559  L 96.174, 19.530  L 95.454, 22.438  L 95.054, 25.292  L 94.942, 28.099  L 95.086, 30.870  L 95.456, 33.610  L 96.021, 36.326  L 96.749, 39.024  L 97.609, 41.709  L 98.570, 44.385  L 99.599, 47.059  L 100.663, 49.735  L 101.731, 52.418  L 102.768, 55.114  L 103.743, 57.829  L 104.621, 60.569  L 105.368, 63.340  L 105.952, 66.146  L 106.336, 68.995  L 106.487, 71.890  L 106.369, 74.834  L 105.949, 77.832  L 105.193, 80.884  L 104.070, 83.994  L 102.547, 87.163  L 100.594, 90.396  L 102.972, 91.981  L 105.059, 88.523  L 106.704, 85.100  L 107.927, 81.714  L 108.755, 78.372  L 109.215, 75.086  L 109.344, 71.868  L 109.180, 68.724  L 108.767, 65.659  L 108.146, 62.671  L 107.359, 59.755  L 106.446, 56.905  L 105.444, 54.113  L 104.389, 51.372  L 103.316, 48.674  L 102.257, 46.013  L 101.246, 43.385  L 100.313, 40.785  L 99.488, 38.210  L 98.798, 35.657  L 98.271, 33.122  L 97.930, 30.599  L 97.799, 28.078  L 97.900, 25.544  L 98.259, 22.979  L 98.908, 20.360  L 99.882, 17.666  L 101.222, 14.877  L 102.972, 11.981  L 104.160, 12.774  L 102.478, 15.557  L 101.199, 18.219  L 100.275, 20.775  L 99.662, 23.249  L 99.323, 25.670  L 99.227, 28.067  L 99.352, 30.463  L 99.679, 32.878  L 100.187, 35.323  L 100.857, 37.803  L 101.665, 40.323  L 102.584, 42.884  L 103.587, 45.490  L 104.642, 48.143  L 105.719, 50.849  L 106.782, 53.613  L 107.798, 56.443  L 108.729, 59.348  L 109.535, 62.336  L 110.174, 65.415  L 110.602, 68.588  L 110.772, 71.857  L 110.638, 75.213  L 110.158, 78.642  L 109.295, 82.128  L 108.021, 85.653  L 106.316, 89.203  L 104.160, 92.774 "/>
        <text class="text" x="100" y="105">Stripes</text>
        <path class="stitch_line color_2" d="M 134.160, 92.774  L 134.383, 89.726  L 134.327, 86.842  L 134.008, 84.140  L 133.446, 81.636  L 132.665, 79.342  L 131.693, 77.262  L 130.559, 75.395  L 132.142, 73.924  L 133.630, 72.282  L 135.015, 70.479  L 136.288, 68.528  L 137.450, 66.448  L 138.501, 64.259  L 139.449, 61.984  L 137.555, 60.427  L 135.629, 58.987  L 133.677, 57.639  L 131.706, 56.361  L 129.719, 55.130  L 127.718, 53.926  L 125.705, 52.726  L 126.335, 50.452  L 126.965, 48.168  L 127.612, 45.891  L 128.294, 43.639  L 129.024, 41.430  L 129.818, 39.285  L 130.688, 37.223  L 128.871, 35.953  L 127.095, 34.588  L 125.372, 33.102  L 123.712, 31.472  L 122.132, 29.674  L 120.656, 27.688  L 119.306, 25.496  L 120.945, 23.469  L 122.706, 21.603  L 124.580, 19.902  L 126.554, 18.364  L 128.621, 16.979  L 130.776, 15.731  L 133.017, 14.601  L 132.972, 11.981  L 130.550, 13.159  L 128.224, 14.445  L 125.992, 15.860  L 123.856, 17.423  L 121.824, 19.146  L 119.906, 21.035  L 120.945, 23.469  L 122.157, 25.690  L 123.513, 27.703  L 124.985, 29.521  L 126.552, 31.163  L 128.193, 32.652  L 129.894, 34.011  L 128.871, 35.953  L 127.940, 38.006  L 127.095, 40.149  L 126.323, 42.361  L 125.611, 44.622  L 124.944, 46.912  L 124.306, 49.215  L 126.335, 50.452  L 128.359, 51.667  L 130.377, 52.879  L 132.388, 54.109  L 134.389, 55.378  L 136.379, 56.709  L 138.352, 58.123  L 137.555, 60.427  L 136.676, 62.672  L 135.703, 64.836  L 134.628, 66.898  L 133.448, 68.837  L 132.161, 70.632  L 130.773, 72.267  L 132.142, 73.924  L 133.391, 75.774  L 134.493, 77.830  L 135.420, 80.098  L 136.144, 82.577  L 136.637, 85.258  L 136.878, 88.128  L 134.383, 89.726  L 131.783, 91.189  L 131.916, 88.283  L 131.776, 85.555  L 131.379, 83.021  L 130.748, 80.695  L 129.910, 78.586  L 131.693, 77.262  L 133.391, 75.774  L 134.993, 74.117  L 136.487, 72.297  L 137.868, 70.326  L 139.129, 68.220  L 140.271, 65.998  L 138.501, 64.259  L 136.676, 62.672  L 134.807, 61.210  L 132.905, 59.851  L 130.976, 58.570  L 129.024, 57.344  L 127.051, 56.152  L 127.718, 53.926  L 128.359, 51.667  L 128.988, 49.393  L 129.623, 47.121  L 130.281, 44.870  L 130.976, 42.656  L 131.725, 40.500  L 129.818, 39.285  L 127.940, 38.006  L 126.097, 36.641  L 124.297, 35.164  L 122.550, 33.552  L 120.871, 31.780  L 119.279, 29.827  L 120.656, 27.688  L 122.157, 25.690  L 123.777, 23.848  L 125.507, 22.170  L 127.335, 20.658  L 129.252, 19.305  L 131.250, 18.097  L 130.776, 15.731  L 130.550, 13.159  L 130.594, 10.396  L 128.084, 11.717  L 125.673, 13.158  L 123.363, 14.742  L 121.159, 16.482  L 121.824, 19.146  L 122.706, 21.603  L 123.777, 23.848  L 125.007, 25.883  L 126.370, 27.718  L 127.839, 29.368  L 129.392, 30.855  L 128.193, 32.652  L 127.095, 34.588  L 126.097, 36.641  L 125.193, 38.790  L 124.371, 41.013  L 123.621, 43.291  L 122.928, 45.604  L 124.944, 46.912  L 126.965, 48.168  L 128.988, 49.393  L 131.012, 50.607  L 133.035, 51.832  L 135.056, 53.088  L 137.072, 54.396  L 136.379, 56.709  L 135.629, 58.987  L 134.807, 61.210  L 133.903, 63.359  L 132.905, 65.412  L 131.807, 67.348  L 130.608, 69.145  L 132.161, 70.632  L 133.630, 72.282  L 134.993, 74.117  L 136.223, 76.152  L 137.294, 78.397  L 138.176, 80.854  L 138.841, 83.518  L 136.637, 85.258  L 134.327, 86.842  L 131.916, 88.283  L 129.406, 89.604  L 129.450, 86.841  L 129.224, 84.269  L 128.750, 81.903  L 130.748, 80.695  L 132.665, 79.342  L 134.493, 77.830  L 136.223, 76.152  L 137.843, 74.310  L 139.344, 72.312  L 140.721, 70.173  L 139.129, 68.220  L 137.450, 66.448  L 135.703, 64.836  L 133.903, 63.359  L 132.060, 61.994  L 130.182, 60.715  L 128.275, 59.500  L 129.024, 57.344  L 129.719, 55.130  L 130.377, 52.879  L 131.012, 50.607  L 131.641, 48.333  L 132.282, 46.074  L 132.949, 43.848  L 130.976, 42.656  L 129.024, 41.430  L 127.095, 40.149  L 125.193, 38.790  L 123.324, 37.328  L 121.499, 35.741  L 119.729, 34.002  L 120.871, 31.780  L 122.132, 29.674  L 123.513, 27.703  L 125.007, 25.883  L 126.609, 24.226  L 128.307, 22.738  L 130.090, 21.414  L 129.252, 19.305  L 128.621, 16.979  L 128.224, 14.445  L 128.084, 11.717  L 128.217, 8.811  L 125.617, 10.274  L 123.122, 11.872  L 123.363, 14.742  L 123.856, 17.423  L 124.580, 19.902  L 125.507, 22.170  L 126.609, 24.226  L 127.858, 26.076  L 129.227, 27.733  L 127.839, 29.368  L 126.552, 31.163  L 125.372, 33.102  L 124.297, 35.164  L 123.324, 37.328  L 122.445, 39.573  L 121.648, 41.877  L 123.621, 43.291  L 125.611, 44.622  L 127.612, 45.891  L 129.623, 47.121  L 131.641, 48.333  L 133.665, 49.548  L 135.694, 50.785  L 135.056, 53.088  L 134.389, 55.378  L 133.677, 57.639  L 132.905, 59.851  L 132.060, 61.994  L 131.129, 64.047  L 130.106, 65.989  L 131.807, 67.348  L 133.448, 68.837  L 135.015, 70.479  L 136.487, 72.297  L 137.843, 74.310  L 139.055, 76.531  L 140.094, 78.965  L 138.176, 80.854  L 136.144, 82.577  L 134.008, 84.140  L 131.776, 85.555  L 129.450, 86.841  L 127.028, 88.019  L 126.983, 85.399  L 129.224, 84.269  L 131.379, 83.021  L 133.446, 81.636  L 135.420, 80.098  L 137.294, 78.397  L 139.055, 76.531  L 140.694, 74.504  L 139.344, 72.312  L 137.868, 70.326  L 136.288, 68.528  L 134.628, 66.898  L 132.905, 65.412  L 131.129, 64.047  L 129.312, 62.777  L 130.182, 60.715  L 130.976, 58.570  L 131.706, 56.361  L 132.388, 54.109  L 133.035, 51.832  L 133.665, 49.548  L 134.295, 47.274  L 132.282, 46.074  L 130.281, 44.870  L 128.294, 43.639  L 126.323, 42.361  L 124.371, 41.013  L 122.445, 39.573  L 120.551, 38.016  L 121.499, 35.741  L 122.550, 33.552  L 123.712, 31.472  L 124.985, 29.521  L 126.370, 27.718  L 127.858, 26.076  L 129.441, 24.605  L 128.307, 22.738  L 127.335, 20.658  L 126.554, 18.364  L 125.992, 15.860  L 125.673, 13.158  L 125.617, 10.274  L 125.840, 7.226 "/>
        <text class="text" x="130" y="105">Lattice</text>
        <path class="stitch_line color_3" d="M 164.160, 92.774  L 162.080, 91.387  L 160.000, 90.000  L 157.920, 88.613  L 155.840, 87.226  L 157.423, 84.624  L 158.652, 82.130  L 159.567, 79.729  L 160.203, 77.405  L 162.644, 77.945  L 165.084, 78.486  L 167.525, 79.027  L 166.697, 82.055  L 165.527, 85.126  L 163.236, 84.127  L 164.320, 81.280  L 161.943, 80.505  L 160.944, 83.129  L 159.614, 85.828  L 161.804, 87.033  L 163.995, 88.237  L 166.186, 89.441  L 167.819, 86.125  L 169.073, 82.831  L 169.966, 79.567  L 170.518, 76.348  L 168.037, 76.045  L 165.556, 75.741  L 163.074, 75.437  L 160.593, 75.133  L 160.762, 72.891  L 160.732, 70.656  L 160.519, 68.413  L 160.139, 66.148  L 162.589, 65.654  L 165.040, 65.160  L 167.491, 64.666  L 167.954, 67.425  L 168.221, 70.241  L 165.724, 70.379  L 165.476, 67.754  L 162.997, 68.083  L 163.228, 70.518  L 163.261, 72.965  L 165.760, 73.040  L 168.259, 73.115  L 170.758, 73.189  L 170.717, 70.102  L 170.432, 67.095  L 169.941, 64.172  L 169.283, 61.330  L 166.863, 61.962  L 164.444, 62.593  L 162.025, 63.224  L 159.606, 63.855  L 158.940, 61.529  L 158.160, 59.168  L 157.286, 56.771  L 156.344, 54.335  L 158.670, 53.418  L 160.996, 52.501  L 163.321, 51.584  L 164.303, 54.123  L 165.240, 56.696  L 162.880, 57.520  L 161.964, 55.006  L 159.625, 55.889  L 160.520, 58.344  L 161.328, 60.788  L 163.716, 60.047  L 166.103, 59.307  L 168.491, 58.566  L 167.600, 55.872  L 166.643, 53.241  L 165.647, 50.667  L 164.642, 48.143  L 162.321, 49.072  L 160.000, 50.000  L 157.679, 50.928  L 155.358, 51.857  L 154.353, 49.333  L 153.357, 46.759  L 152.400, 44.128  L 151.509, 41.434  L 153.897, 40.693  L 156.284, 39.953  L 158.672, 39.212  L 159.480, 41.656  L 160.375, 44.111  L 158.036, 44.994  L 157.120, 42.480  L 154.760, 43.304  L 155.697, 45.877  L 156.679, 48.416  L 159.004, 47.499  L 161.330, 46.582  L 163.656, 45.665  L 162.714, 43.229  L 161.840, 40.832  L 161.060, 38.471  L 160.394, 36.145  L 157.975, 36.776  L 155.556, 37.407  L 153.137, 38.038  L 150.717, 38.670  L 150.059, 35.828  L 149.568, 32.905  L 149.283, 29.898  L 149.242, 26.811  L 151.741, 26.885  L 154.240, 26.960  L 156.739, 27.035  L 156.772, 29.482  L 157.003, 31.917  L 154.524, 32.246  L 154.276, 29.621  L 151.779, 29.759  L 152.046, 32.575  L 152.509, 35.334  L 154.960, 34.840  L 157.411, 34.346  L 159.861, 33.852  L 159.481, 31.587  L 159.268, 29.344  L 159.238, 27.109  L 159.407, 24.867  L 156.926, 24.563  L 154.444, 24.259  L 151.963, 23.955  L 149.482, 23.652  L 150.034, 20.433  L 150.927, 17.169  L 152.181, 13.875  L 153.814, 10.559  L 156.005, 11.763  L 158.196, 12.967  L 160.386, 14.172  L 159.056, 16.871  L 158.057, 19.495  L 155.680, 18.720  L 156.764, 15.873  L 154.473, 14.874  L 153.303, 17.945  L 152.475, 20.973  L 154.916, 21.514  L 157.356, 22.055  L 159.797, 22.595  L 160.433, 20.271  L 161.348, 17.870  L 162.577, 15.376  L 164.160, 12.774 "/>
        <text class="text" x="160" y="105">Tile Motif</text>
        <path class="stitch_line color_4" d="M 185.840, 87.226  L 187.889, 87.888  L 190.744, 88.809  L 193.599, 89.730  L 195.648, 90.391  L 192.267, 87.367  L 190.030, 85.367  L 187.990, 83.543  L 191.244, 84.227  L 194.180, 84.845  L 198.021, 85.653  L 195.245, 83.843  L 192.732, 82.205  L 189.454, 80.067  L 193.942, 80.462  L 196.931, 80.724  L 199.627, 80.961  L 197.715, 80.095  L 194.982, 78.856  L 192.250, 77.618  L 190.338, 76.751  L 193.030, 76.645  L 196.028, 76.526  L 200.518, 76.348  L 196.780, 75.271  L 193.897, 74.441  L 190.735, 73.530  L 194.570, 72.891  L 197.529, 72.397  L 200.772, 71.857  L 198.116, 71.455  L 195.149, 71.007  L 190.713, 70.337  L 192.717, 69.759  L 195.599, 68.928  L 198.482, 68.098  L 200.486, 67.520  L 196.003, 67.344  L 193.006, 67.227  L 190.321, 67.122  L 193.373, 65.904  L 196.160, 64.792  L 199.769, 63.352  L 196.485, 63.514  L 193.489, 63.663  L 189.606, 63.855  L 193.630, 61.867  L 196.319, 60.538  L 198.729, 59.348  L 196.654, 59.589  L 193.674, 59.935  L 190.694, 60.281  L 188.618, 60.522  L 190.956, 59.193  L 193.564, 57.710  L 197.467, 55.492  L 193.626, 56.113  L 190.665, 56.591  L 187.416, 57.116  L 190.725, 55.070  L 193.277, 53.493  L 196.076, 51.763  L 193.430, 52.257  L 190.481, 52.807  L 186.066, 53.631  L 187.827, 52.504  L 190.354, 50.887  L 192.881, 49.270  L 194.642, 48.143  L 190.231, 48.988  L 187.284, 49.553  L 184.640, 50.059  L 187.422, 48.300  L 189.957, 46.696  L 193.245, 44.616  L 190.004, 45.189  L 187.050, 45.710  L 183.218, 46.387  L 187.074, 44.087  L 189.650, 42.550  L 191.960, 41.172  L 189.891, 41.464  L 186.920, 41.884  L 183.950, 42.304  L 181.880, 42.597  L 184.252, 41.331  L 186.898, 39.917  L 190.857, 37.803  L 186.983, 38.134  L 183.994, 38.390  L 180.717, 38.670  L 184.263, 37.078  L 187.000, 35.850  L 189.999, 34.504  L 187.312, 34.526  L 184.312, 34.549  L 179.826, 34.585  L 181.797, 33.905  L 184.633, 32.925  L 187.468, 31.946  L 189.440, 31.266  L 184.972, 30.854  L 181.985, 30.579  L 179.310, 30.332  L 182.514, 29.600  L 185.438, 28.932  L 189.227, 28.067  L 186.013, 27.371  L 183.081, 26.737  L 179.280, 25.915  L 183.747, 25.453  L 186.731, 25.144  L 189.407, 24.867  L 187.441, 24.146  L 184.625, 23.112  L 181.808, 22.079  L 179.842, 21.358  L 182.541, 21.424  L 185.540, 21.497  L 190.038, 21.607  L 186.613, 19.730  L 183.982, 18.289  L 181.083, 16.700  L 184.954, 17.281  L 187.921, 17.727  L 191.199, 18.219  L 189.037, 16.561  L 186.657, 14.735  L 183.067, 11.982  L 185.132, 12.536  L 188.029, 13.313  L 190.927, 14.090  L 192.992, 14.644  L 189.832, 11.367  L 187.750, 9.207  L 185.840, 7.226 "/>
        <text class="text" x="190" y="105">Satin</text>
    </g>
</svg>
