<?xml version="1.0" encoding="utf-8" ?>
<svg xmlns="http://www.w3.org/2000/svg" xmlns:ev="http://www.w3.org/2001/xml-events" xmlns:xlink="http://www.w3.org/1999/xlink" baseProfile="full" height="40mm" version="1.1" viewBox="0,0,140,40" width="140mm">
    <defs>
        <style type="text/css"><![CDATA[
.stitch_line {
    stroke-width: 0.3;
    stroke-linejoin: round;
    stroke-linecap: round;
    fill: none;
}
.path_center_line {
    fill: none;
    stroke:#808080;
    stroke-width: 0.2;
    stroke-linejoin: round;
    stroke-linecap: round;
}
.path_contour {
    fill: #808080;
    fill-opacity: 0.3;
    stroke: #808080;
    stroke-opacity: 1;
    stroke-width: 0.3;
}
.text{
    text-anchor: middle;
    dominant-baseline: middle;
    font-family: sans-serif;
    font-size: 1.5mm;
}
.smalltext{
    text-anchor: middle;
    dominant-baseline: middle;
    font-family: sans-serif;
    font-size: 1mm;
}
.line_0 {
    fill: none;
    stroke:#3bb2d0;
    stroke-width:0.8;
}
]]></style>
    </defs>
    <g>
        <g transform="translate(70.0,20.0)">
            <g>
                <path class="path_contour" d="M -58.882, -2.236  L -58.420, -2.098  L -57.959, -1.964  L -57.497, -1.833  L -57.035, -1.707  L -56.573, -1.584  L -56.111, -1.466  L -55.648, -1.351  L -55.186, -1.240  L -54.724, -1.134  L -54.262, -1.031  L -53.799, -0.932  L -53.337, -0.838  L -52.875, -0.747  L -52.413, -0.660  L -51.951, -0.577  L -51.489, -0.498  L -51.027, -0.423  L -50.566, -0.352  L -50.104, -0.285  L -49.643, -0.221  L -49.181, -0.161  L -48.720, -0.106  L -48.260, -0.054  L -47.799, -0.006  L -47.339, 0.039  L -46.878, 0.080  L -46.418, 0.117  L -45.958, 0.150  L -45.499, 0.180  L -45.039, 0.206  L -44.580, 0.229  L -44.121, 0.248  L -43.663, 0.263  L -43.204, 0.275  L -42.746, 0.284  L -42.288, 0.289  L -41.830, 0.291  L -41.372, 0.290  L -40.915, 0.286  L -40.457, 0.278  L -40.000, 0.267  L -39.543, 0.253  L -39.086, 0.235  L -38.630, 0.215  L -38.173, 0.192  L -37.717, 0.166  L -37.261, 0.137  L -36.805, 0.104  L -36.349, 0.070  L -35.893, 0.032  L -35.437, -0.008  L -34.982, -0.052  L -34.526, -0.097  L -34.070, -0.146  L -33.615, -0.196  L -33.159, -0.250  L -32.704, -0.306  L -32.249, -0.364  L -31.793, -0.425  L -31.338, -0.488  L -30.882, -0.553  L -30.427, -0.621  L -29.971, -0.690  L -29.516, -0.762  L -29.060, -0.836  L -28.604, -0.912  L -28.148, -0.990  L -27.692, -1.070  L -27.236, -1.152  L -26.780, -1.236  L -26.323, -1.322  L -25.867, -1.409  L -25.410, -1.498  L -24.953, -1.589  L -24.496, -1.682  L -24.039, -1.776  L -23.581, -1.872  L -23.123, -1.969  L -22.665, -2.067  L -22.207, -2.168  L -21.748, -2.269  L -21.289, -2.372  L -20.830, -2.476  L -20.370, -2.581  L -19.910, -2.688  L -19.450, -2.796  L -18.989, -2.905  L -18.528, -3.015  L -18.067, -3.126  L -17.605, -3.238  L -17.143, -3.351  L -16.680, -3.464  L -16.217, -3.579  L -15.754, -3.695  L -15.290, -3.811  L -14.826, -3.928  L -14.361, -4.046  L -13.895, -4.164  L -13.429, -4.283  L -12.963, -4.403  L -12.496, -4.523  L -12.028, -4.644  L -11.560, -4.765  L -11.092, -4.886  L -10.622, -5.008  L -10.152, -5.131  L -9.682, -5.253  L -9.211, -5.376  L -8.739, -5.499  L -8.267, -5.622  L -7.794, -5.745  L -7.320, -5.868  L -6.845, -5.991  L -6.370, -6.114  L -5.894, -6.238  L -5.418, -6.361  L -4.940, -6.484  L -4.462, -6.606  L -3.984, -6.729  L -3.504, -6.851  L -3.024, -6.973  L -2.542, -7.095  L -2.060, -7.216  L -1.578, -7.336  L -1.094, -7.457  L -0.609, -7.576  L -0.124, -7.695  L 0.362, -7.814  L 0.849, -7.932  L 1.337, -8.049  L 1.826, -8.165  L 2.316, -8.281  L 2.806, -8.395  L 3.298, -8.509  L 3.791, -8.622  L 4.284, -8.734  L 4.778, -8.844  L 5.274, -8.954  L 5.770, -9.062  L 6.267, -9.170  L 6.766, -9.276  L 7.265, -9.381  L 7.765, -9.484  L 8.266, -9.586  L 8.768, -9.687  L 9.272, -9.786  L 9.776, -9.884  L 10.281, -9.980  L 10.787, -10.074  L 11.295, -10.167  L 11.803, -10.258  L 12.312, -10.347  L 12.823, -10.434  L 13.334, -10.519  L 13.847, -10.602  L 14.360, -10.684  L 14.874, -10.763  L 15.390, -10.840  L 15.906, -10.914  L 16.424, -10.987  L 16.942, -11.057  L 17.462, -11.125  L 17.982, -11.190  L 18.504, -11.253  L 19.026, -11.313  L 19.550, -11.371  L 20.074, -11.426  L 20.599, -11.478  L 21.125, -11.527  L 21.653, -11.573  L 22.180, -11.617  L 22.709, -11.657  L 23.239, -11.694  L 23.770, -11.728  L 24.301, -11.759  L 24.833, -11.787  L 25.366, -11.811  L 25.899, -11.832  L 26.434, -11.849  L 26.969, -11.863  L 27.504, -11.873  L 28.040, -11.879  L 28.577, -11.882  L 29.114, -11.881  L 29.652, -11.876  L 30.190, -11.867  L 30.728, -11.853  L 31.267, -11.836  L 31.806, -11.815  L 32.346, -11.789  L 32.885, -11.760  L 33.425, -11.726  L 33.965, -11.687  L 34.505, -11.644  L 35.044, -11.597  L 35.584, -11.544  L 36.123, -11.488  L 36.663, -11.426  L 37.202, -11.360  L 37.740, -11.289  L 38.278, -11.213  L 38.816, -11.133  L 39.353, -11.047  L 39.889, -10.957  L 40.424, -10.861  L 40.959, -10.761  L 41.493, -10.655  L 42.025, -10.544  L 42.557, -10.428  L 43.087, -10.307  L 43.617, -10.181  L 44.144, -10.049  L 44.671, -9.913  L 45.196, -9.771  L 45.719, -9.623  L 46.240, -9.471  L 46.760, -9.313  L 47.278, -9.150  L 47.794, -8.982  L 48.307, -8.808  L 48.819, -8.630  L 49.328, -8.445  L 49.835, -8.256  L 50.340, -8.062  L 50.842, -7.862  L 51.342, -7.657  L 51.839, -7.447  L 52.333, -7.232  L 52.824, -7.012  L 53.313, -6.787  L 53.799, -6.557  L 54.281, -6.322  L 54.761, -6.082  L 55.237, -5.837  L 55.710, -5.587  L 56.180, -5.333  L 56.646, -5.073  L 57.110, -4.810  L 57.569, -4.541  L 58.026, -4.268  L 58.478, -3.991  L 58.927, -3.709  L 59.373, -3.423  L 59.815, -3.132  L 60.253, -2.838  L 60.687, -2.539  L 61.118, -2.236  L 60.894, -1.789  L 60.671, -1.342  L 60.447, -0.894  L 60.224, -0.447  L 60.000, 0.000  L 59.776, 0.447  L 59.553, 0.894  L 59.329, 1.342  L 59.106, 1.789  L 58.882, 2.236  L 58.420, 2.098  L 57.959, 1.964  L 57.497, 1.833  L 57.035, 1.707  L 56.573, 1.584  L 56.111, 1.466  L 55.648, 1.351  L 55.186, 1.240  L 54.724, 1.134  L 54.262, 1.031  L 53.799, 0.932  L 53.337, 0.838  L 52.875, 0.747  L 52.413, 0.660  L 51.951, 0.577  L 51.489, 0.498  L 51.027, 0.423  L 50.566, 0.352  L 50.104, 0.285  L 49.643, 0.221  L 49.181, 0.161  L 48.720, 0.106  L 48.260, 0.054  L 47.799, 0.006  L 47.339, -0.039  L 46.878, -0.080  L 46.418, -0.117  L 45.958, -0.150  L 45.499, -0.180  L 45.039, -0.206  L 44.580, -0.229  L 44.121, -0.248  L 43.663, -0.263  L 43.204, -0.275  L 42.746, -0.284  L 42.288, -0.289  L 41.830, -0.291  L 41.372, -0.290  L 40.915, -0.286  L 40.457, -0.278  L 40.000, -0.267  L 39.543, -0.253  L 39.086, -0.235  L 38.630, -0.215  L 38.173, -0.192  L 37.717, -0.166  L 37.261, -0.137  L 36.805, -0.104  L 36.349, -0.070  L 35.893, -0.032  L 35.437, 0.008  L 34.982, 0.052  L 34.526, 0.097  L 34.070, 0.146  L 33.615, 0.196  L 33.159, 0.250  L 32.704, 0.306  L 32.249, 0.364  L 31.793, 0.425  L 31.338, 0.488  L 30.882, 0.553  L 30.427, 0.621  L 29.971, 0.690  L 29.516, 0.762  L 29.060, 0.836  L 28.604, 0.912  L 28.148, 0.990  L 27.692, 1.070  L 27.236, 1.152  L 26.780, 1.236  L 26.323, 1.322  L 25.867, 1.409  L 25.410, 1.498  L 24.953, 1.589  L 24.496, 1.682  L 24.039, 1.776  L 23.581, 1.872  L 23.123, 1.969  L 22.665, 2.067  L 22.207, 2.168  L 21.748, 2.269  L 21.289, 2.372  L 20.830, 2.476  L 20.370, 2.581  L 19.910, 2.688  L 19.450, 2.796  L 18.989, 2.905  L 18.528, 3.015  L 18.067, 3.126  L 17.605, 3.238  L 17.143, 3.351  L 16.680, 3.464  L 16.217, 3.579  L 15.754, 3.695  L 15.290, 3.811  L 14.826, 3.928  L 14.361, 4.046  L 13.895, 4.164  L 13.429, 4.283  L 12.963, 4.403  L 12.496, 4.523  L 12.028, 4.644  L 11.560, 4.765  L 11.092, 4.886  L 10.622, 5.008  L 10.152, 5.131  L 9.682, 5.253  L 9.211, 5.376  L 8.739, 5.499  L 8.267, 5.622  L 7.794, 5.745  L 7.320, 5.868  L 6.845, 5.991  L 6.370, 6.114  L 5.894, 6.238  L 5.418, 6.361  L 4.940, 6.484  L 4.462, 6.606  L 3.984, 6.729  L 3.504, 6.851  L 3.024, 6.973  L 2.542, 7.095  L 2.060, 7.216  L 1.578, 7.336  L 1.094, 7.457  L 0.609, 7.576  L 0.124, 7.695  L -0.362, 7.814  L -0.849, 7.932  L -1.337, 8.049  L -1.826, 8.165  L -2.316, 8.281  L -2.806, 8.395  L -3.298, 8.509  L -3.791, 8.622  L -4.284, 8.734  L -4.778, 8.844  L -5.274, 8.954  L -5.770, 9.062  L -6.267, 9.170  L -6.766, 9.276  L -7.265, 9.381  L -7.765, 9.484  L -8.266, 9.586  L -8.768, 9.687  L -9.272, 9.786  L -9.776, 9.884  L -10.281, 9.980  L -10.787, 10.074  L -11.295, 10.167  L -11.803, 10.258  L -12.312, 10.347  L -12.823, 10.434  L -13.334, 10.519  L -13.847, 10.602  L -14.360, 10.684  L -14.874, 10.763  L -15.390, 10.840  L -15.906, 10.914  L -16.424, 10.987  L -16.942, 11.057  L -17.462, 11.125  L -17.982, 11.190  L -18.504, 11.253  L -19.026, 11.313  L -19.550, 11.371  L -20.074, 11.426  L -20.599, 11.478  L -21.125, 11.527  L -21.653, 11.573  L -22.180, 11.617  L -22.709, 11.657  L -23.239, 11.694  L -23.770, 11.728  L -24.301, 11.759  L -24.833, 11.787  L -25.366, 11.811  L -25.899, 11.832  L -26.434, 11.849  L -26.969, 11.863  L -27.504, 11.873  L -28.040, 11.879  L -28.577, 11.882  L -29.114, 11.881  L -29.652, 11.876  L -30.190, 11.867  L -30.728, 11.853  L -31.267, 11.836  L -31.806, 11.815  L -32.346, 11.789  L -32.885, 11.760  L -33.425, 11.726  L -33.965, 11.687  L -34.505, 11.644  L -35.044, 11.597  L -35.584, 11.544  L -36.123, 11.488  L -36.663, 11.426  L -37.202, 11.360  L -37.740, 11.289  L -38.278, 11.213  L -38.816, 11.133  L -39.353, 11.047  L -39.889, 10.957  L -40.424, 10.861  L -40.959, 10.761  L -41.493, 10.655  L -42.025, 10.544  L -42.557, 10.428  L -43.087, 10.307  L -43.617, 10.181  L -44.144, 10.049  L -44.671, 9.913  L -45.196, 9.771  L -45.719, 9.623  L -46.240, 9.471  L -46.760, 9.313  L -47.278, 9.150  L -47.794, 8.982  L -48.307, 8.808  L -48.819, 8.630  L -49.328, 8.445  L -49.835, 8.256  L -50.340, 8.062  L -50.842, 7.862  L -51.342, 7.657  L -51.839, 7.447  L -52.333, 7.232  L -52.824, 7.012  L -53.313, 6.787  L -53.799, 6.557  L -54.281, 6.322  L -54.761, 6.082  L -55.237, 5.837  L -55.710, 5.587  L -56.180, 5.333  L -56.646, 5.073  L -57.110, 4.810  L -57.569, 4.541  L -58.026, 4.268  L -58.478, 3.991  L -58.927, 3.709  L -59.373, 3.423  L -59.815, 3.132  L -60.253, 2.838  L -60.687, 2.539  L -61.118, 2.236  L -60.894, 1.789  L -60.671, 1.342  L -60.447, 0.894  L -60.224, 0.447  L -60.000, 0.000  L -59.776, -0.447  L -59.553, -0.894  L -59.329, -1.342  L -59.106, -1.789  L -58.882, -2.236  Z"/>
                <path class="path_center_line" d="M -60.000, 0.000  L -59.552, 0.221  L -59.102, 0.439  L -58.650, 0.652  L -58.197, 0.861  L -57.741, 1.067  L -57.283, 1.267  L -56.824, 1.464  L -56.363, 1.657  L -55.900, 1.845  L -55.435, 2.029  L -54.969, 2.208  L -54.501, 2.383  L -54.031, 2.554  L -53.560, 2.720  L -53.087, 2.882  L -52.613, 3.039  L -52.137, 3.192  L -51.660, 3.341  L -51.182, 3.485  L -50.702, 3.624  L -50.221, 3.759  L -49.738, 3.890  L -49.255, 4.016  L -48.770, 4.137  L -48.284, 4.254  L -47.797, 4.366  L -47.309, 4.474  L -46.821, 4.577  L -46.331, 4.676  L -45.840, 4.771  L -45.349, 4.861  L -44.856, 4.946  L -44.363, 5.028  L -43.869, 5.104  L -43.375, 5.177  L -42.880, 5.245  L -42.384, 5.309  L -41.888, 5.368  L -41.392, 5.423  L -40.894, 5.474  L -40.397, 5.521  L -39.899, 5.564  L -39.401, 5.603  L -38.902, 5.637  L -38.404, 5.668  L -37.905, 5.694  L -37.405, 5.717  L -36.906, 5.736  L -36.407, 5.751  L -35.907, 5.762  L -35.407, 5.769  L -34.908, 5.773  L -34.408, 5.773  L -33.908, 5.770  L -33.409, 5.763  L -32.909, 5.752  L -32.410, 5.738  L -31.910, 5.721  L -31.411, 5.701  L -30.912, 5.677  L -30.413, 5.650  L -29.914, 5.620  L -29.416, 5.586  L -28.917, 5.550  L -28.419, 5.511  L -27.921, 5.469  L -27.423, 5.424  L -26.926, 5.376  L -26.429, 5.325  L -25.932, 5.272  L -25.435, 5.216  L -24.939, 5.158  L -24.443, 5.097  L -23.948, 5.033  L -23.452, 4.967  L -22.957, 4.899  L -22.463, 4.829  L -21.968, 4.756  L -21.474, 4.681  L -20.980, 4.604  L -20.487, 4.525  L -19.994, 4.443  L -19.501, 4.360  L -19.009, 4.275  L -18.517, 4.188  L -18.025, 4.100  L -17.534, 4.009  L -17.042, 3.917  L -16.552, 3.823  L -16.061, 3.728  L -15.571, 3.631  L -15.081, 3.532  L -14.591, 3.432  L -14.102, 3.331  L -13.613, 3.228  L -13.124, 3.124  L -12.636, 3.019  L -12.148, 2.912  L -11.660, 2.805  L -11.172, 2.696  L -10.684, 2.586  L -10.197, 2.476  L -9.710, 2.364  L -9.223, 2.251  L -8.737, 2.138  L -8.250, 2.024  L -7.764, 1.908  L -7.278, 1.793  L -6.792, 1.676  L -6.306, 1.559  L -5.821, 1.441  L -5.335, 1.323  L -4.850, 1.204  L -4.364, 1.085  L -3.879, 0.966  L -3.394, 0.846  L -2.909, 0.726  L -2.424, 0.605  L -1.939, 0.484  L -1.454, 0.363  L -0.970, 0.242  L -0.485, 0.121  L 0.000, 0.000  L 0.485, -0.121  L 0.970, -0.242  L 1.454, -0.363  L 1.939, -0.484  L 2.424, -0.605  L 2.909, -0.726  L 3.394, -0.846  L 3.879, -0.966  L 4.364, -1.085  L 4.850, -1.204  L 5.335, -1.323  L 5.821, -1.441  L 6.306, -1.559  L 6.792, -1.676  L 7.278, -1.793  L 7.764, -1.908  L 8.250, -2.024  L 8.737, -2.138  L 9.223, -2.251  L 9.710, -2.364  L 10.197, -2.476  L 10.684, -2.586  L 11.172, -2.696  L 11.660, -2.805  L 12.148, -2.912  L 12.636, -3.019  L 13.124, -3.124  L 13.613, -3.228  L 14.102, -3.331  L 14.591, -3.432  L 15.081, -3.532  L 15.571, -3.631  L 16.061, -3.728  L 16.552, -3.823  L 17.042, -3.917  L 17.534, -4.009  L 18.025, -4.100  L 18.517, -4.188  L 19.009, -4.275  L 19.501, -4.360  L 19.994, -4.443  L 20.487, -4.525  L 20.980, -4.604  L 21.474, -4.681  L 21.968, -4.756  L 22.463, -4.829  L 22.957, -4.899  L 23.452, -4.967  L 23.948, -5.033  L 24.443, -5.097  L 24.939, -5.158  L 25.435, -5.216  L 25.932, -5.272  L 26.429, -5.325  L 26.926, -5.376  L 27.423, -5.424  L 27.921, -5.469  L 28.419, -5.511  L 28.917, -5.550  L 29.416, -5.586  L 29.914, -5.620  L 30.413, -5.650  L 30.912, -5.677  L 31.411, -5.701  L 31.910, -5.721  L 32.410, -5.738  L 32.909, -5.752  L 33.409, -5.763  L 33.908, -5.770  L 34.408, -5.773  L 34.908, -5.773  L 35.407, -5.769  L 35.907, -5.762  L 36.407, -5.751  L 36.906, -5.736  L 37.405, -5.717  L 37.905, -5.694  L 38.404, -5.668  L 38.902, -5.637  L 39.401, -5.603  L 39.899, -5.564  L 40.397, -5.521  L 40.894, -5.474  L 41.392, -5.423  L 41.888, -5.368  L 42.384, -5.309  L 42.880, -5.245  L 43.375, -5.177  L 43.869, -5.104  L 44.363, -5.028  L 44.856, -4.946  L 45.349, -4.861  L 45.840, -4.771  L 46.331, -4.676  L 46.821, -4.577  L 47.309, -4.474  L 47.797, -4.366  L 48.284, -4.254  L 48.770, -4.137  L 49.255, -4.016  L 49.738, -3.890  L 50.221, -3.759  L 50.702, -3.624  L 51.182, -3.485  L 51.660, -3.341  L 52.137, -3.192  L 52.613, -3.039  L 53.087, -2.882  L 53.560, -2.720  L 54.031, -2.554  L 54.501, -2.383  L 54.969, -2.208  L 55.435, -2.029  L 55.900, -1.845  L 56.363, -1.657  L 56.824, -1.464  L 57.283, -1.267  L 57.741, -1.067  L 58.197, -0.861  L 58.650, -0.652  L 59.102, -0.439  L 59.552, -0.221  L 60.000, 0.000 "/>
            </g>
            <path class="line_0" d="M -58.882, -2.236  L -61.118, 2.236 "/>
            <path class="line_0" d="M -47.477, 0.026  L -49.481, 8.389 "/>
            <path class="line_0" d="M -36.166, 0.055  L -36.447, 11.451 "/>
            <path class="line_0" d="M -24.907, -1.598  L -23.186, 11.691 "/>
            <path class="line_0" d="M -13.523, -4.260  L -10.382, 9.999 "/>
            <path class="line_0" d="M -1.819, -7.276  L 1.819, 7.276 "/>
            <path class="line_0" d="M 10.382, -9.999  L 13.523, 4.260 "/>
            <path class="line_0" d="M 23.186, -11.691  L 24.907, 1.598 "/>
            <path class="line_0" d="M 36.447, -11.451  L 36.166, -0.055 "/>
            <path class="line_0" d="M 49.481, -8.389  L 47.477, -0.026 "/>
            <path class="line_0" d="M 61.118, -2.236  L 58.882, 2.236 "/>
        </g>
    </g>
</svg>
