<?xml version="1.0" encoding="utf-8" ?>
<svg xmlns="http://www.w3.org/2000/svg" xmlns:ev="http://www.w3.org/2001/xml-events" xmlns:xlink="http://www.w3.org/1999/xlink" baseProfile="full" height="40mm" version="1.1" viewBox="0,0,140,40" width="140mm">
    <defs>
        <style type="text/css"><![CDATA[
.stitch_line {
    stroke-width: 0.3;
    stroke-linejoin: round;
    stroke-linecap: round;
    fill: none;
}
.path_center_line {
    fill: none;
    stroke:#808080;
    stroke-width: 0.2;
    stroke-linejoin: round;
    stroke-linecap: round;
}
.path_contour {
    fill: #808080;
    fill-opacity: 0.3;
    stroke: #808080;
    stroke-opacity: 1;
    stroke-width: 0.3;
}
.text{
    text-anchor: middle;
    dominant-baseline: middle;
    font-family: sans-serif;
    font-size: 1.5mm;
}
.smalltext{
    text-anchor: middle;
    dominant-baseline: middle;
    font-family: sans-serif;
    font-size: 1mm;
}
.line_0 {
    fill: none;
    stroke:#3bb2d0;
    stroke-width:0.8;
    marker-end:url(#triangle_line_0);
}
]]></style>
        <marker id="triangle_line_0" markerHeight="4" markerWidth="4" orient="auto" refX="3.0" refY="2.0">
            <path d="M 0,0 L 4,2.0 L 0,4 z" fill="#3bb2d0"/>
        </marker>
    </defs>
    <g>
        <g transform="translate(70.0,20.0)">
            <g>
                <path class="path_contour" d="M -62.372, -7.115  L -61.987, -6.872  L -61.601, -6.632  L -61.214, -6.396  L -60.824, -6.163  L -60.432, -5.934  L -60.039, -5.708  L -59.644, -5.485  L -59.247, -5.267  L -58.848, -5.051  L -58.448, -4.840  L -58.045, -4.632  L -57.641, -4.428  L -57.235, -4.227  L -56.828, -4.031  L -56.418, -3.838  L -56.007, -3.649  L -55.594, -3.463  L -55.180, -3.282  L -54.763, -3.105  L -54.345, -2.931  L -53.925, -2.762  L -53.504, -2.597  L -53.081, -2.435  L -52.656, -2.278  L -52.229, -2.125  L -51.801, -1.976  L -51.372, -1.830  L -50.941, -1.690  L -50.508, -1.553  L -50.074, -1.420  L -49.638, -1.292  L -49.201, -1.167  L -48.762, -1.047  L -48.322, -0.931  L -47.880, -0.819  L -47.437, -0.712  L -46.993, -0.608  L -46.548, -0.509  L -46.101, -0.414  L -45.653, -0.323  L -45.204, -0.236  L -44.753, -0.153  L -44.302, -0.075  L -43.849, -0.000  L -43.395, 0.070  L -42.940, 0.136  L -42.484, 0.198  L -42.027, 0.256  L -41.570, 0.311  L -41.111, 0.361  L -40.651, 0.407  L -40.191, 0.449  L -39.729, 0.488  L -39.267, 0.522  L -38.804, 0.553  L -38.340, 0.580  L -37.876, 0.603  L -37.410, 0.622  L -36.945, 0.638  L -36.478, 0.650  L -36.011, 0.659  L -35.543, 0.663  L -35.075, 0.665  L -34.606, 0.663  L -34.137, 0.657  L -33.667, 0.648  L -33.197, 0.636  L -32.726, 0.621  L -32.255, 0.602  L -31.783, 0.580  L -31.311, 0.555  L -30.839, 0.526  L -30.366, 0.495  L -29.893, 0.461  L -29.419, 0.424  L -28.946, 0.383  L -28.471, 0.340  L -27.997, 0.295  L -27.523, 0.246  L -27.048, 0.195  L -26.573, 0.141  L -26.097, 0.084  L -25.622, 0.025  L -25.146, -0.036  L -24.670, -0.100  L -24.194, -0.167  L -23.717, -0.235  L -23.240, -0.306  L -22.764, -0.380  L -22.287, -0.455  L -21.809, -0.533  L -21.332, -0.612  L -20.854, -0.694  L -20.377, -0.778  L -19.899, -0.864  L -19.421, -0.951  L -18.942, -1.041  L -18.464, -1.132  L -17.985, -1.225  L -17.506, -1.320  L -17.027, -1.416  L -16.548, -1.514  L -16.069, -1.614  L -15.589, -1.715  L -15.109, -1.817  L -14.629, -1.921  L -14.149, -2.026  L -13.669, -2.133  L -13.188, -2.241  L -12.707, -2.350  L -12.226, -2.460  L -11.745, -2.571  L -11.263, -2.684  L -10.781, -2.797  L -10.299, -2.912  L -9.817, -3.027  L -9.334, -3.144  L -8.851, -3.261  L -8.368, -3.379  L -7.884, -3.498  L -7.400, -3.618  L -6.916, -3.738  L -6.431, -3.859  L -5.946, -3.980  L -5.461, -4.102  L -4.975, -4.225  L -4.489, -4.348  L -4.003, -4.471  L -3.516, -4.595  L -3.028, -4.719  L -2.541, -4.843  L -2.052, -4.968  L -1.564, -5.093  L -1.075, -5.218  L -0.585, -5.343  L -0.095, -5.468  L 0.396, -5.593  L 0.887, -5.718  L 1.379, -5.843  L 1.871, -5.968  L 2.364, -6.093  L 2.858, -6.217  L 3.352, -6.341  L 3.846, -6.465  L 4.342, -6.589  L 4.838, -6.712  L 5.334, -6.835  L 5.832, -6.957  L 6.330, -7.078  L 6.828, -7.200  L 7.328, -7.320  L 7.828, -7.440  L 8.329, -7.558  L 8.830, -7.677  L 9.333, -7.794  L 9.836, -7.910  L 10.340, -8.026  L 10.845, -8.140  L 11.350, -8.253  L 11.857, -8.366  L 12.364, -8.477  L 12.872, -8.587  L 13.381, -8.695  L 13.891, -8.802  L 14.402, -8.908  L 14.913, -9.013  L 15.426, -9.116  L 15.939, -9.217  L 16.454, -9.317  L 16.969, -9.415  L 17.485, -9.511  L 18.003, -9.605  L 18.521, -9.698  L 19.040, -9.789  L 19.560, -9.878  L 20.081, -9.964  L 20.603, -10.049  L 21.126, -10.131  L 21.650, -10.211  L 22.175, -10.289  L 22.701, -10.364  L 23.228, -10.437  L 23.756, -10.508  L 24.285, -10.576  L 24.815, -10.641  L 25.346, -10.703  L 25.877, -10.763  L 26.410, -10.820  L 26.944, -10.874  L 27.478, -10.925  L 28.014, -10.973  L 28.550, -11.017  L 29.087, -11.059  L 29.625, -11.097  L 30.164, -11.132  L 30.703, -11.163  L 31.244, -11.191  L 31.785, -11.215  L 32.327, -11.235  L 32.869, -11.252  L 33.412, -11.265  L 33.956, -11.275  L 34.500, -11.280  L 35.045, -11.281  L 35.590, -11.278  L 36.136, -11.271  L 36.682, -11.260  L 37.229, -11.245  L 37.775, -11.225  L 38.322, -11.201  L 38.870, -11.173  L 39.417, -11.140  L 39.964, -11.102  L 40.512, -11.060  L 41.059, -11.013  L 41.607, -10.962  L 42.154, -10.906  L 42.701, -10.844  L 43.247, -10.779  L 43.793, -10.708  L 44.339, -10.632  L 44.884, -10.552  L 45.429, -10.466  L 45.973, -10.376  L 46.516, -10.280  L 47.059, -10.180  L 47.600, -10.074  L 48.141, -9.964  L 48.680, -9.848  L 49.219, -9.727  L 49.756, -9.602  L 50.292, -9.471  L 50.827, -9.335  L 51.360, -9.194  L 51.892, -9.048  L 52.423, -8.897  L 52.951, -8.741  L 53.479, -8.580  L 54.004, -8.414  L 54.528, -8.243  L 55.049, -8.067  L 55.569, -7.886  L 56.087, -7.701  L 56.603, -7.510  L 57.117, -7.315  L 57.628, -7.115  L 57.786, -6.641  L 57.945, -6.166  L 58.103, -5.692  L 58.261, -5.218  L 58.419, -4.743  L 58.577, -4.269  L 58.735, -3.795  L 58.893, -3.320  L 59.051, -2.846  L 59.209, -2.372  L 59.368, -1.897  L 59.526, -1.423  L 59.684, -0.949  L 59.842, -0.474  L 60.000, 0.000  L 60.158, 0.474  L 60.316, 0.949  L 60.474, 1.423  L 60.632, 1.897  L 60.791, 2.372  L 60.949, 2.846  L 61.107, 3.320  L 61.265, 3.795  L 61.423, 4.269  L 61.581, 4.743  L 61.739, 5.218  L 61.897, 5.692  L 62.055, 6.166  L 62.214, 6.641  L 62.372, 7.115  L 61.987, 6.872  L 61.601, 6.632  L 61.214, 6.396  L 60.824, 6.163  L 60.432, 5.934  L 60.039, 5.708  L 59.644, 5.485  L 59.247, 5.267  L 58.848, 5.051  L 58.448, 4.840  L 58.045, 4.632  L 57.641, 4.428  L 57.235, 4.227  L 56.828, 4.031  L 56.418, 3.838  L 56.007, 3.649  L 55.594, 3.463  L 55.180, 3.282  L 54.763, 3.105  L 54.345, 2.931  L 53.925, 2.762  L 53.504, 2.597  L 53.081, 2.435  L 52.656, 2.278  L 52.229, 2.125  L 51.801, 1.976  L 51.372, 1.830  L 50.941, 1.690  L 50.508, 1.553  L 50.074, 1.420  L 49.638, 1.292  L 49.201, 1.167  L 48.762, 1.047  L 48.322, 0.931  L 47.880, 0.819  L 47.437, 0.712  L 46.993, 0.608  L 46.548, 0.509  L 46.101, 0.414  L 45.653, 0.323  L 45.204, 0.236  L 44.753, 0.153  L 44.302, 0.075  L 43.849, 0.000  L 43.395, -0.070  L 42.940, -0.136  L 42.484, -0.198  L 42.027, -0.256  L 41.570, -0.311  L 41.111, -0.361  L 40.651, -0.407  L 40.191, -0.449  L 39.729, -0.488  L 39.267, -0.522  L 38.804, -0.553  L 38.340, -0.580  L 37.876, -0.603  L 37.410, -0.622  L 36.945, -0.638  L 36.478, -0.650  L 36.011, -0.659  L 35.543, -0.663  L 35.075, -0.665  L 34.606, -0.663  L 34.137, -0.657  L 33.667, -0.648  L 33.197, -0.636  L 32.726, -0.621  L 32.255, -0.602  L 31.783, -0.580  L 31.311, -0.555  L 30.839, -0.526  L 30.366, -0.495  L 29.893, -0.461  L 29.419, -0.424  L 28.946, -0.383  L 28.471, -0.340  L 27.997, -0.295  L 27.523, -0.246  L 27.048, -0.195  L 26.573, -0.141  L 26.097, -0.084  L 25.622, -0.025  L 25.146, 0.036  L 24.670, 0.100  L 24.194, 0.167  L 23.717, 0.235  L 23.240, 0.306  L 22.764, 0.380  L 22.287, 0.455  L 21.809, 0.533  L 21.332, 0.612  L 20.854, 0.694  L 20.377, 0.778  L 19.899, 0.864  L 19.421, 0.951  L 18.942, 1.041  L 18.464, 1.132  L 17.985, 1.225  L 17.506, 1.320  L 17.027, 1.416  L 16.548, 1.514  L 16.069, 1.614  L 15.589, 1.715  L 15.109, 1.817  L 14.629, 1.921  L 14.149, 2.026  L 13.669, 2.133  L 13.188, 2.241  L 12.707, 2.350  L 12.226, 2.460  L 11.745, 2.571  L 11.263, 2.684  L 10.781, 2.797  L 10.299, 2.912  L 9.817, 3.027  L 9.334, 3.144  L 8.851, 3.261  L 8.368, 3.379  L 7.884, 3.498  L 7.400, 3.618  L 6.916, 3.738  L 6.431, 3.859  L 5.946, 3.980  L 5.461, 4.102  L 4.975, 4.225  L 4.489, 4.348  L 4.003, 4.471  L 3.516, 4.595  L 3.028, 4.719  L 2.541, 4.843  L 2.052, 4.968  L 1.564, 5.093  L 1.075, 5.218  L 0.585, 5.343  L 0.095, 5.468  L -0.396, 5.593  L -0.887, 5.718  L -1.379, 5.843  L -1.871, 5.968  L -2.364, 6.093  L -2.858, 6.217  L -3.352, 6.341  L -3.846, 6.465  L -4.342, 6.589  L -4.838, 6.712  L -5.334, 6.835  L -5.832, 6.957  L -6.330, 7.078  L -6.828, 7.200  L -7.328, 7.320  L -7.828, 7.440  L -8.329, 7.558  L -8.830, 7.677  L -9.333, 7.794  L -9.836, 7.910  L -10.340, 8.026  L -10.845, 8.140  L -11.350, 8.253  L -11.857, 8.366  L -12.364, 8.477  L -12.872, 8.587  L -13.381, 8.695  L -13.891, 8.802  L -14.402, 8.908  L -14.913, 9.013  L -15.426, 9.116  L -15.939, 9.217  L -16.454, 9.317  L -16.969, 9.415  L -17.485, 9.511  L -18.003, 9.605  L -18.521, 9.698  L -19.040, 9.789  L -19.560, 9.878  L -20.081, 9.964  L -20.603, 10.049  L -21.126, 10.131  L -21.650, 10.211  L -22.175, 10.289  L -22.701, 10.364  L -23.228, 10.437  L -23.756, 10.508  L -24.285, 10.576  L -24.815, 10.641  L -25.346, 10.703  L -25.877, 10.763  L -26.410, 10.820  L -26.944, 10.874  L -27.478, 10.925  L -28.014, 10.973  L -28.550, 11.017  L -29.087, 11.059  L -29.625, 11.097  L -30.164, 11.132  L -30.703, 11.163  L -31.244, 11.191  L -31.785, 11.215  L -32.327, 11.235  L -32.869, 11.252  L -33.412, 11.265  L -33.956, 11.275  L -34.500, 11.280  L -35.045, 11.281  L -35.590, 11.278  L -36.136, 11.271  L -36.682, 11.260  L -37.229, 11.245  L -37.775, 11.225  L -38.322, 11.201  L -38.870, 11.173  L -39.417, 11.140  L -39.964, 11.102  L -40.512, 11.060  L -41.059, 11.013  L -41.607, 10.962  L -42.154, 10.906  L -42.701, 10.844  L -43.247, 10.779  L -43.793, 10.708  L -44.339, 10.632  L -44.884, 10.552  L -45.429, 10.466  L -45.973, 10.376  L -46.516, 10.280  L -47.059, 10.180  L -47.600, 10.074  L -48.141, 9.964  L -48.680, 9.848  L -49.219, 9.727  L -49.756, 9.602  L -50.292, 9.471  L -50.827, 9.335  L -51.360, 9.194  L -51.892, 9.048  L -52.423, 8.897  L -52.951, 8.741  L -53.479, 8.580  L -54.004, 8.414  L -54.528, 8.243  L -55.049, 8.067  L -55.569, 7.886  L -56.087, 7.701  L -56.603, 7.510  L -57.117, 7.315  L -57.628, 7.115  L -57.786, 6.641  L -57.945, 6.166  L -58.103, 5.692  L -58.261, 5.218  L -58.419, 4.743  L -58.577, 4.269  L -58.735, 3.795  L -58.893, 3.320  L -59.051, 2.846  L -59.209, 2.372  L -59.368, 1.897  L -59.526, 1.423  L -59.684, 0.949  L -59.842, 0.474  L -60.000, 0.000  L -60.158, -0.474  L -60.316, -0.949  L -60.474, -1.423  L -60.632, -1.897  L -60.791, -2.372  L -60.949, -2.846  L -61.107, -3.320  L -61.265, -3.795  L -61.423, -4.269  L -61.581, -4.743  L -61.739, -5.218  L -61.897, -5.692  L -62.055, -6.166  L -62.214, -6.641  L -62.372, -7.115  Z"/>
                <path class="path_center_line" d="M -60.000, 0.000  L -59.552, 0.221  L -59.102, 0.439  L -58.650, 0.652  L -58.197, 0.861  L -57.741, 1.067  L -57.283, 1.267  L -56.824, 1.464  L -56.363, 1.657  L -55.900, 1.845  L -55.435, 2.029  L -54.969, 2.208  L -54.501, 2.383  L -54.031, 2.554  L -53.560, 2.720  L -53.087, 2.882  L -52.613, 3.039  L -52.137, 3.192  L -51.660, 3.341  L -51.182, 3.485  L -50.702, 3.624  L -50.221, 3.759  L -49.738, 3.890  L -49.255, 4.016  L -48.770, 4.137  L -48.284, 4.254  L -47.797, 4.366  L -47.309, 4.474  L -46.821, 4.577  L -46.331, 4.676  L -45.840, 4.771  L -45.349, 4.861  L -44.856, 4.946  L -44.363, 5.028  L -43.869, 5.104  L -43.375, 5.177  L -42.880, 5.245  L -42.384, 5.309  L -41.888, 5.368  L -41.392, 5.423  L -40.894, 5.474  L -40.397, 5.521  L -39.899, 5.564  L -39.401, 5.603  L -38.902, 5.637  L -38.404, 5.668  L -37.905, 5.694  L -37.405, 5.717  L -36.906, 5.736  L -36.407, 5.751  L -35.907, 5.762  L -35.407, 5.769  L -34.908, 5.773  L -34.408, 5.773  L -33.908, 5.770  L -33.409, 5.763  L -32.909, 5.752  L -32.410, 5.738  L -31.910, 5.721  L -31.411, 5.701  L -30.912, 5.677  L -30.413, 5.650  L -29.914, 5.620  L -29.416, 5.586  L -28.917, 5.550  L -28.419, 5.511  L -27.921, 5.469  L -27.423, 5.424  L -26.926, 5.376  L -26.429, 5.325  L -25.932, 5.272  L -25.435, 5.216  L -24.939, 5.158  L -24.443, 5.097  L -23.948, 5.033  L -23.452, 4.967  L -22.957, 4.899  L -22.463, 4.829  L -21.968, 4.756  L -21.474, 4.681  L -20.980, 4.604  L -20.487, 4.525  L -19.994, 4.443  L -19.501, 4.360  L -19.009, 4.275  L -18.517, 4.188  L -18.025, 4.100  L -17.534, 4.009  L -17.042, 3.917  L -16.552, 3.823  L -16.061, 3.728  L -15.571, 3.631  L -15.081, 3.532  L -14.591, 3.432  L -14.102, 3.331  L -13.613, 3.228  L -13.124, 3.124  L -12.636, 3.019  L -12.148, 2.912  L -11.660, 2.805  L -11.172, 2.696  L -10.684, 2.586  L -10.197, 2.476  L -9.710, 2.364  L -9.223, 2.251  L -8.737, 2.138  L -8.250, 2.024  L -7.764, 1.908  L -7.278, 1.793  L -6.792, 1.676  L -6.306, 1.559  L -5.821, 1.441  L -5.335, 1.323  L -4.850, 1.204  L -4.364, 1.085  L -3.879, 0.966  L -3.394, 0.846  L -2.909, 0.726  L -2.424, 0.605  L -1.939, 0.484  L -1.454, 0.363  L -0.970, 0.242  L -0.485, 0.121  L 0.000, 0.000  L 0.485, -0.121  L 0.970, -0.242  L 1.454, -0.363  L 1.939, -0.484  L 2.424, -0.605  L 2.909, -0.726  L 3.394, -0.846  L 3.879, -0.966  L 4.364, -1.085  L 4.850, -1.204  L 5.335, -1.323  L 5.821, -1.441  L 6.306, -1.559  L 6.792, -1.676  L 7.278, -1.793  L 7.764, -1.908  L 8.250, -2.024  L 8.737, -2.138  L 9.223, -2.251  L 9.710, -2.364  L 10.197, -2.476  L 10.684, -2.586  L 11.172, -2.696  L 11.660, -2.805  L 12.148, -2.912  L 12.636, -3.019  L 13.124, -3.124  L 13.613, -3.228  L 14.102, -3.331  L 14.591, -3.432  L 15.081, -3.532  L 15.571, -3.631  L 16.061, -3.728  L 16.552, -3.823  L 17.042, -3.917  L 17.534, -4.009  L 18.025, -4.100  L 18.517, -4.188  L 19.009, -4.275  L 19.501, -4.360  L 19.994, -4.443  L 20.487, -4.525  L 20.980, -4.604  L 21.474, -4.681  L 21.968, -4.756  L 22.463, -4.829  L 22.957, -4.899  L 23.452, -4.967  L 23.948, -5.033  L 24.443, -5.097  L 24.939, -5.158  L 25.435, -5.216  L 25.932, -5.272  L 26.429, -5.325  L 26.926, -5.376  L 27.423, -5.424  L 27.921, -5.469  L 28.419, -5.511  L 28.917, -5.550  L 29.416, -5.586  L 29.914, -5.620  L 30.413, -5.650  L 30.912, -5.677  L 31.411, -5.701  L 31.910, -5.721  L 32.410, -5.738  L 32.909, -5.752  L 33.409, -5.763  L 33.908, -5.770  L 34.408, -5.773  L 34.908, -5.773  L 35.407, -5.769  L 35.907, -5.762  L 36.407, -5.751  L 36.906, -5.736  L 37.405, -5.717  L 37.905, -5.694  L 38.404, -5.668  L 38.902, -5.637  L 39.401, -5.603  L 39.899, -5.564  L 40.397, -5.521  L 40.894, -5.474  L 41.392, -5.423  L 41.888, -5.368  L 42.384, -5.309  L 42.880, -5.245  L 43.375, -5.177  L 43.869, -5.104  L 44.363, -5.028  L 44.856, -4.946  L 45.349, -4.861  L 45.840, -4.771  L 46.331, -4.676  L 46.821, -4.577  L 47.309, -4.474  L 47.797, -4.366  L 48.284, -4.254  L 48.770, -4.137  L 49.255, -4.016  L 49.738, -3.890  L 50.221, -3.759  L 50.702, -3.624  L 51.182, -3.485  L 51.660, -3.341  L 52.137, -3.192  L 52.613, -3.039  L 53.087, -2.882  L 53.560, -2.720  L 54.031, -2.554  L 54.501, -2.383  L 54.969, -2.208  L 55.435, -2.029  L 55.900, -1.845  L 56.363, -1.657  L 56.824, -1.464  L 57.283, -1.267  L 57.741, -1.067  L 58.197, -0.861  L 58.650, -0.652  L 59.102, -0.439  L 59.552, -0.221  L 60.000, 0.000 "/>
            </g>
            <path class="line_0" d="M -60.000, 0.000  L -62.372, -7.115 "/>
            <path class="line_0" d="M -48.479, 4.208  L -52.400, -2.185 "/>
            <path class="line_0" d="M -36.307, 5.753  L -41.478, 0.321 "/>
            <path class="line_0" d="M -24.047, 5.046  L -29.987, 0.468 "/>
            <path class="line_0" d="M -11.952, 2.870  L -18.272, -1.169 "/>
            <path class="line_0" d="M 0.000, 0.000  L -6.431, -3.859 "/>
            <path class="line_0" d="M 11.952, -2.870  L 5.633, -6.908 "/>
            <path class="line_0" d="M 24.047, -5.046  L 18.106, -9.624 "/>
            <path class="line_0" d="M 36.307, -5.753  L 31.136, -11.185 "/>
            <path class="line_0" d="M 48.479, -4.208  L 44.557, -10.601 "/>
            <path class="line_0" d="M 60.000, 0.000  L 57.628, -7.115 "/>
        </g>
    </g>
</svg>
