<?xml version="1.0" encoding="utf-8" ?>
<svg xmlns="http://www.w3.org/2000/svg" xmlns:ev="http://www.w3.org/2001/xml-events" xmlns:xlink="http://www.w3.org/1999/xlink" baseProfile="full" height="15mm" version="1.1" viewBox="0,0,100,15" width="100mm">
    <defs>
        <style type="text/css"><![CDATA[
.stitch_line {
    stroke-width: 0.3;
    stroke-linejoin: round;
    stroke-linecap: round;
    fill: none;
}
.path_center_line {
    stroke-width: 0.2;
    stroke-linejoin: round;
    stroke-linecap: round;
    fill: none;
    stroke:#333;
}
.path_contour {
    stroke: #ddd;
    fill-opacity: 1;
    fill: #eee;
    stroke-width: 0.3;
}
.text{
    text-anchor: middle;
    dominant-baseline: middle;
    font-family: sans-serif;
    font-size: 1.5mm;
}
.smalltext{
    text-anchor: middle;
    dominant-baseline: middle;
    font-family: sans-serif;
    font-size: 1mm;
}
.color_0 {
    stroke:#148983;
}]]></style>
    </defs>
    <g>
        <g transform="translate(0,5)">
            <path class="stitch_line color_0" d="M 0.000, 0.000 L 60.000, 0.000 M 0.000, 1.000 L 0.000, -1.000 M 8.231, 1.000 L 8.231, -1.000 M 11.839, 1.000 L 11.839, -1.000 M 14.741, 1.000 L 14.741, -1.000 M 17.292, 1.000 L 17.292, -1.000 M 19.633, 1.000 L 19.633, -1.000 M 21.837, 1.000 L 21.837, -1.000 M 23.947, 1.000 L 23.947, -1.000 M 25.996, 1.000 L 25.996, -1.000 M 28.007, 1.000 L 28.007, -1.000 M 30.000, 1.000 L 30.000, -1.000 M 31.993, 1.000 L 31.993, -1.000 M 34.004, 1.000 L 34.004, -1.000 M 36.053, 1.000 L 36.053, -1.000 M 38.163, 1.000 L 38.163, -1.000 M 40.367, 1.000 L 40.367, -1.000 M 42.708, 1.000 L 42.708, -1.000 M 45.259, 1.000 L 45.259, -1.000 M 48.161, 1.000 L 48.161, -1.000 M 51.769, 1.000 L 51.769, -1.000 M 60.000, 1.000 L 60.000, -1.000" transform="translate(15,0)"/>
            <text class="smalltext" x="7" y="0">60</text>
        </g>
        <g transform="translate(0,10)">
            <path class="stitch_line color_0" d="M 0.000, 0.000 L 80.000, 0.000 M 0.000, 1.000 L 0.000, -1.000 M 9.407, 1.000 L 9.407, -1.000 M 13.467, 1.000 L 13.467, -1.000 M 16.702, 1.000 L 16.702, -1.000 M 19.522, 1.000 L 19.522, -1.000 M 22.084, 1.000 L 22.084, -1.000 M 24.472, 1.000 L 24.472, -1.000 M 26.734, 1.000 L 26.734, -1.000 M 28.903, 1.000 L 28.903, -1.000 M 31.002, 1.000 L 31.002, -1.000 M 33.050, 1.000 L 33.050, -1.000 M 35.061, 1.000 L 35.061, -1.000 M 37.046, 1.000 L 37.046, -1.000 M 39.017, 1.000 L 39.017, -1.000 M 40.983, 1.000 L 40.983, -1.000 M 42.954, 1.000 L 42.954, -1.000 M 44.939, 1.000 L 44.939, -1.000 M 46.950, 1.000 L 46.950, -1.000 M 48.998, 1.000 L 48.998, -1.000 M 51.097, 1.000 L 51.097, -1.000 M 53.266, 1.000 L 53.266, -1.000 M 55.528, 1.000 L 55.528, -1.000 M 57.916, 1.000 L 57.916, -1.000 M 60.478, 1.000 L 60.478, -1.000 M 63.298, 1.000 L 63.298, -1.000 M 66.533, 1.000 L 66.533, -1.000 M 70.593, 1.000 L 70.593, -1.000 M 80.000, 1.000 L 80.000, -1.000" transform="translate(15,0)"/>
            <text class="smalltext" x="7" y="0">80</text>
        </g>
    </g>
</svg>
