<?xml version="1.0" encoding="utf-8" ?>
<svg xmlns="http://www.w3.org/2000/svg" xmlns:ev="http://www.w3.org/2001/xml-events" xmlns:xlink="http://www.w3.org/1999/xlink" baseProfile="full" height="15mm" version="1.1" viewBox="0,0,80,15" width="80mm">
    <defs>
        <style type="text/css"><![CDATA[
.stitch_line {
    stroke-width: 0.3;
    stroke-linejoin: round;
    stroke-linecap: round;
    fill: none;
}
.path_center_line {
    fill: none;
    stroke:#808080;
    stroke-width: 0.2;
    stroke-linejoin: round;
    stroke-linecap: round;
}
.path_contour {
    fill: #808080;
    fill-opacity: 0.3;
    stroke: #808080;
    stroke-opacity: 1;
    stroke-width: 0.3;
}
.text{
    text-anchor: middle;
    dominant-baseline: middle;
    font-family: sans-serif;
    font-size: 1.5mm;
}
.smalltext{
    text-anchor: middle;
    dominant-baseline: middle;
    font-family: sans-serif;
    font-size: 1mm;
}
.color_0 {
    stroke:#3bb2d0;
}
.dot_0 {
    marker-start:url(#dot_0);
    marker-mid:url(#dot_0);
    marker-end:url(#dot_0);
}
]]></style>
        <marker id="dot_0" markerHeight="3.0" markerWidth="3.0" refX="1.5" refY="1.5">
            <circle cx="1.5" cy="1.5" fill="#3bb2d0" r="1.5"/>
        </marker>
    </defs>
    <g>
        <path class="stitch_line color_0 dot_0" d="M 5.000, 7.500  L 8.267, 7.500  L 11.533, 7.500  L 14.800, 7.500  L 18.067, 7.500  L 21.333, 7.500  L 21.866, 4.821  L 23.384, 2.550  L 25.655, 1.033  L 28.333, 0.500  L 31.012, 1.033  L 33.283, 2.550  L 34.800, 4.821  L 35.333, 7.500  L 38.444, 7.500  L 41.556, 7.500  L 44.667, 7.500  L 45.200, 4.821  L 46.717, 2.550  L 48.988, 1.033  L 51.667, 0.500  L 54.345, 1.033  L 56.616, 2.550  L 58.134, 4.821  L 58.667, 7.500  L 61.933, 7.500  L 65.200, 7.500  L 68.467, 7.500  L 71.733, 7.500  L 75.000, 7.500 "/>
    </g>
</svg>
