<?xml version="1.0" encoding="utf-8" ?>
<svg xmlns="http://www.w3.org/2000/svg" xmlns:ev="http://www.w3.org/2001/xml-events" xmlns:xlink="http://www.w3.org/1999/xlink" baseProfile="full" height="15mm" version="1.1" viewBox="0,0,80,15" width="80mm">
    <defs>
        <style type="text/css"><![CDATA[
.stitch_line {
    stroke-width: 0.3;
    stroke-linejoin: round;
    stroke-linecap: round;
    fill: none;
}
.path_center_line {
    fill: none;
    stroke:#808080;
    stroke-width: 0.2;
    stroke-linejoin: round;
    stroke-linecap: round;
}
.path_contour {
    fill: #808080;
    fill-opacity: 0.3;
    stroke: #808080;
    stroke-opacity: 1;
    stroke-width: 0.3;
}
.text{
    text-anchor: middle;
    dominant-baseline: middle;
    font-family: sans-serif;
    font-size: 1.5mm;
}
.smalltext{
    text-anchor: middle;
    dominant-baseline: middle;
    font-family: sans-serif;
    font-size: 1mm;
}
.color_0 {
    stroke:#3bb2d0;
}
.dot_0 {
    marker-start:url(#dot_0);
    marker-mid:url(#dot_0);
    marker-end:url(#dot_0);
}
]]></style>
        <marker id="dot_0" markerHeight="3.0" markerWidth="3.0" refX="1.5" refY="1.5">
            <circle cx="1.5" cy="1.5" fill="#3bb2d0" r="1.5"/>
        </marker>
    </defs>
    <g>
        <path class="stitch_line color_0 dot_0" d="M 5.000, 1.500  L 5.000, 4.500  L 5.000, 7.500  L 5.000, 10.500  L 6.000, 13.500  L 7.000, 10.500  L 7.000, 7.500  L 7.000, 4.500  L 8.000, 1.500  L 9.000, 4.500  L 9.000, 7.500  L 9.000, 10.500  L 10.000, 13.500  L 11.000, 10.500  L 11.000, 7.500  L 11.000, 4.500  L 12.000, 1.500  L 13.000, 4.500  L 13.000, 7.500  L 13.000, 10.500  L 14.000, 13.500  L 15.000, 10.500  L 15.000, 7.500  L 15.000, 4.500  L 16.000, 1.500  L 17.000, 4.500  L 17.000, 7.500  L 17.000, 10.500  L 18.000, 13.500  L 19.000, 10.500  L 19.000, 7.500  L 19.000, 4.500  L 20.000, 1.500  L 21.000, 4.500  L 21.000, 7.500  L 21.000, 10.500  L 22.000, 13.500  L 23.000, 10.500  L 23.000, 7.500  L 23.000, 4.500  L 24.000, 1.500  L 25.000, 4.500  L 25.000, 7.500  L 25.000, 10.500  L 26.000, 13.500  L 27.000, 10.500  L 27.000, 7.500  L 27.000, 4.500  L 28.000, 1.500  L 29.000, 4.500  L 29.000, 7.500  L 29.000, 10.500  L 30.000, 13.500  L 31.000, 10.500  L 31.000, 7.500  L 31.000, 4.500  L 32.000, 1.500  L 33.000, 4.500  L 33.000, 7.500  L 33.000, 10.500  L 34.000, 13.500  L 35.000, 10.500  L 35.000, 7.500  L 35.000, 4.500  L 36.000, 1.500  L 37.000, 4.500  L 37.000, 7.500  L 37.000, 10.500  L 38.000, 13.500  L 39.000, 10.500  L 39.000, 7.500  L 39.000, 4.500  L 40.000, 1.500  L 41.000, 4.500  L 41.000, 7.500  L 41.000, 10.500  L 42.000, 13.500  L 43.000, 10.500  L 43.000, 7.500  L 43.000, 4.500  L 44.000, 1.500  L 45.000, 4.500  L 45.000, 7.500  L 45.000, 10.500  L 46.000, 13.500  L 47.000, 10.500  L 47.000, 7.500  L 47.000, 4.500  L 48.000, 1.500  L 49.000, 4.500  L 49.000, 7.500  L 49.000, 10.500  L 50.000, 13.500  L 51.000, 10.500  L 51.000, 7.500  L 51.000, 4.500  L 52.000, 1.500  L 53.000, 4.500  L 53.000, 7.500  L 53.000, 10.500  L 54.000, 13.500  L 55.000, 10.500  L 55.000, 7.500  L 55.000, 4.500  L 56.000, 1.500  L 57.000, 4.500  L 57.000, 7.500  L 57.000, 10.500  L 58.000, 13.500  L 59.000, 10.500  L 59.000, 7.500  L 59.000, 4.500  L 60.000, 1.500  L 61.000, 4.500  L 61.000, 7.500  L 61.000, 10.500  L 62.000, 13.500  L 63.000, 10.500  L 63.000, 7.500  L 63.000, 4.500  L 64.000, 1.500  L 65.000, 4.500  L 65.000, 7.500  L 65.000, 10.500  L 66.000, 13.500  L 67.000, 10.500  L 67.000, 7.500  L 67.000, 4.500  L 68.000, 1.500  L 69.000, 4.500  L 69.000, 7.500  L 69.000, 10.500  L 70.000, 13.500  L 71.000, 10.500  L 71.000, 7.500  L 71.000, 4.500  L 72.000, 1.500  L 73.000, 4.500  L 73.000, 7.500  L 73.000, 10.500  L 74.000, 13.500  L 75.000, 10.500  L 75.000, 7.500  L 75.000, 4.500  L 75.000, 1.500 "/>
    </g>
</svg>
