<?xml version="1.0" encoding="utf-8" ?>
<svg xmlns="http://www.w3.org/2000/svg" xmlns:ev="http://www.w3.org/2001/xml-events" xmlns:xlink="http://www.w3.org/1999/xlink" baseProfile="full" height="15mm" version="1.1" viewBox="0,0,80,15" width="80mm">
    <defs>
        <style type="text/css"><![CDATA[
.stitch_line {
    stroke-width: 0.3;
    stroke-linejoin: round;
    stroke-linecap: round;
    fill: none;
}
.path_center_line {
    fill: none;
    stroke:#808080;
    stroke-width: 0.2;
    stroke-linejoin: round;
    stroke-linecap: round;
}
.path_contour {
    fill: #808080;
    fill-opacity: 0.3;
    stroke: #808080;
    stroke-opacity: 1;
    stroke-width: 0.3;
}
.text{
    text-anchor: middle;
    dominant-baseline: middle;
    font-family: sans-serif;
    font-size: 1.5mm;
}
.smalltext{
    text-anchor: middle;
    dominant-baseline: middle;
    font-family: sans-serif;
    font-size: 1mm;
}
.color_0 {
    stroke:#3bb2d0;
}
.dot_0 {
    marker-start:url(#dot_0);
    marker-mid:url(#dot_0);
    marker-end:url(#dot_0);
}
]]></style>
        <marker id="dot_0" markerHeight="3.0" markerWidth="3.0" refX="1.5" refY="1.5">
            <circle cx="1.5" cy="1.5" fill="#3bb2d0" r="1.5"/>
        </marker>
    </defs>
    <g>
        <path class="stitch_line color_0 dot_0" d="M 5.000, 13.500  L 6.250, 10.500  L 7.500, 7.500  L 8.750, 4.500  L 10.000, 1.500  L 5.000, 3.000  L 10.000, 4.500  L 5.000, 6.000  L 10.000, 7.500  L 5.000, 9.000  L 10.000, 10.500  L 5.000, 12.000  L 10.000, 13.500  L 11.250, 10.500  L 12.500, 7.500  L 13.750, 4.500  L 15.000, 1.500  L 10.000, 3.000  L 15.000, 4.500  L 10.000, 6.000  L 15.000, 7.500  L 10.000, 9.000  L 15.000, 10.500  L 10.000, 12.000  L 15.000, 13.500  L 16.250, 10.500  L 17.500, 7.500  L 18.750, 4.500  L 20.000, 1.500  L 15.000, 3.000  L 20.000, 4.500  L 15.000, 6.000  L 20.000, 7.500  L 15.000, 9.000  L 20.000, 10.500  L 15.000, 12.000  L 20.000, 13.500  L 21.250, 10.500  L 22.500, 7.500  L 23.750, 4.500  L 25.000, 1.500  L 20.000, 3.000  L 25.000, 4.500  L 20.000, 6.000  L 25.000, 7.500  L 20.000, 9.000  L 25.000, 10.500  L 20.000, 12.000  L 25.000, 13.500  L 26.250, 10.500  L 27.500, 7.500  L 28.750, 4.500  L 30.000, 1.500  L 25.000, 3.000  L 30.000, 4.500  L 25.000, 6.000  L 30.000, 7.500  L 25.000, 9.000  L 30.000, 10.500  L 25.000, 12.000  L 30.000, 13.500  L 31.250, 10.500  L 32.500, 7.500  L 33.750, 4.500  L 35.000, 1.500  L 30.000, 3.000  L 35.000, 4.500  L 30.000, 6.000  L 35.000, 7.500  L 30.000, 9.000  L 35.000, 10.500  L 30.000, 12.000  L 35.000, 13.500  L 36.250, 10.500  L 37.500, 7.500  L 38.750, 4.500  L 40.000, 1.500  L 35.000, 3.000  L 40.000, 4.500  L 35.000, 6.000  L 40.000, 7.500  L 35.000, 9.000  L 40.000, 10.500  L 35.000, 12.000  L 40.000, 13.500  L 41.250, 10.500  L 42.500, 7.500  L 43.750, 4.500  L 45.000, 1.500  L 40.000, 3.000  L 45.000, 4.500  L 40.000, 6.000  L 45.000, 7.500  L 40.000, 9.000  L 45.000, 10.500  L 40.000, 12.000  L 45.000, 13.500  L 46.250, 10.500  L 47.500, 7.500  L 48.750, 4.500  L 50.000, 1.500  L 45.000, 3.000  L 50.000, 4.500  L 45.000, 6.000  L 50.000, 7.500  L 45.000, 9.000  L 50.000, 10.500  L 45.000, 12.000  L 50.000, 13.500  L 51.250, 10.500  L 52.500, 7.500  L 53.750, 4.500  L 55.000, 1.500  L 50.000, 3.000  L 55.000, 4.500  L 50.000, 6.000  L 55.000, 7.500  L 50.000, 9.000  L 55.000, 10.500  L 50.000, 12.000  L 55.000, 13.500  L 56.250, 10.500  L 57.500, 7.500  L 58.750, 4.500  L 60.000, 1.500  L 55.000, 3.000  L 60.000, 4.500  L 55.000, 6.000  L 60.000, 7.500  L 55.000, 9.000  L 60.000, 10.500  L 55.000, 12.000  L 60.000, 13.500  L 61.250, 10.500  L 62.500, 7.500  L 63.750, 4.500  L 65.000, 1.500  L 60.000, 3.000  L 65.000, 4.500  L 60.000, 6.000  L 65.000, 7.500  L 60.000, 9.000  L 65.000, 10.500  L 60.000, 12.000  L 65.000, 13.500  L 66.250, 10.500  L 67.500, 7.500  L 68.750, 4.500  L 70.000, 1.500  L 65.000, 3.000  L 70.000, 4.500  L 65.000, 6.000  L 70.000, 7.500  L 65.000, 9.000  L 70.000, 10.500  L 65.000, 12.000  L 70.000, 13.500  L 71.250, 10.500  L 72.500, 7.500  L 73.750, 4.500  L 75.000, 1.500  L 70.000, 3.000  L 75.000, 4.500  L 70.000, 6.000  L 75.000, 7.500  L 70.000, 9.000  L 75.000, 10.500  L 70.000, 12.000  L 75.000, 13.500 "/>
    </g>
</svg>
