<?xml version="1.0" encoding="utf-8" ?>
<svg xmlns="http://www.w3.org/2000/svg" xmlns:ev="http://www.w3.org/2001/xml-events" xmlns:xlink="http://www.w3.org/1999/xlink" baseProfile="full" height="15mm" version="1.1" viewBox="0,0,80,15" width="80mm">
    <defs>
        <style type="text/css"><![CDATA[
.stitch_line {
    stroke-width: 0.3;
    stroke-linejoin: round;
    stroke-linecap: round;
    fill: none;
}
.path_center_line {
    fill: none;
    stroke:#808080;
    stroke-width: 0.2;
    stroke-linejoin: round;
    stroke-linecap: round;
}
.path_contour {
    fill: #808080;
    fill-opacity: 0.3;
    stroke: #808080;
    stroke-opacity: 1;
    stroke-width: 0.3;
}
.text{
    text-anchor: middle;
    dominant-baseline: middle;
    font-family: sans-serif;
    font-size: 1.5mm;
}
.smalltext{
    text-anchor: middle;
    dominant-baseline: middle;
    font-family: sans-serif;
    font-size: 1mm;
}
.color_0 {
    stroke:#3bb2d0;
}
.dot_0 {
    marker-start:url(#dot_0);
    marker-mid:url(#dot_0);
    marker-end:url(#dot_0);
}
]]></style>
        <marker id="dot_0" markerHeight="3.0" markerWidth="3.0" refX="1.5" refY="1.5">
            <circle cx="1.5" cy="1.5" fill="#3bb2d0" r="1.5"/>
        </marker>
    </defs>
    <g>
        <path class="stitch_line color_0 dot_0" d="M 5.000, 13.500  L 6.944, 11.786  L 8.889, 10.071  L 10.833, 8.357  L 12.778, 6.643  L 14.722, 4.929  L 16.667, 3.214  L 18.611, 1.500  L 20.556, 3.214  L 22.500, 4.929  L 24.444, 6.643  L 26.389, 8.357  L 28.333, 10.071  L 30.278, 11.786  L 32.222, 13.500  L 34.167, 11.786  L 36.111, 10.071  L 38.056, 8.357  L 40.000, 6.643  L 41.944, 4.929  L 43.889, 3.214  L 45.833, 1.500  L 47.778, 3.214  L 49.722, 4.929  L 51.667, 6.643  L 53.611, 8.357  L 55.556, 10.071  L 57.500, 11.786  L 59.444, 13.500  L 61.389, 11.786  L 63.333, 10.071  L 65.278, 8.357  L 67.222, 6.643  L 69.167, 4.929  L 71.111, 3.214  L 73.056, 1.500  L 75.000, 3.214  L 73.056, 4.929  L 71.111, 6.643  L 69.167, 8.357  L 67.222, 10.071  L 65.278, 11.786  L 63.333, 13.500  L 61.389, 11.786  L 59.444, 10.071  L 57.500, 8.357  L 55.556, 6.643  L 53.611, 4.929  L 51.667, 3.214  L 49.722, 1.500  L 47.778, 3.214  L 45.833, 4.929  L 43.889, 6.643  L 41.944, 8.357  L 40.000, 10.071  L 38.056, 11.786  L 36.111, 13.500  L 34.167, 11.786  L 32.222, 10.071  L 30.278, 8.357  L 28.333, 6.643  L 26.389, 4.929  L 24.444, 3.214  L 22.500, 1.500  L 20.556, 3.214  L 18.611, 4.929  L 16.667, 6.643  L 14.722, 8.357  L 12.778, 10.071  L 10.833, 11.786  L 8.889, 13.500  L 6.944, 11.786  L 5.000, 10.071  L 6.944, 8.357  L 8.889, 6.643  L 10.833, 4.929  L 12.778, 3.214  L 14.722, 1.500  L 16.667, 3.214  L 18.611, 4.929  L 20.556, 6.643  L 22.500, 8.357  L 24.444, 10.071  L 26.389, 11.786  L 28.333, 13.500  L 30.278, 11.786  L 32.222, 10.071  L 34.167, 8.357  L 36.111, 6.643  L 38.056, 4.929  L 40.000, 3.214  L 41.944, 1.500  L 43.889, 3.214  L 45.833, 4.929  L 47.778, 6.643  L 49.722, 8.357  L 51.667, 10.071  L 53.611, 11.786  L 55.556, 13.500  L 57.500, 11.786  L 59.444, 10.071  L 61.389, 8.357  L 63.333, 6.643  L 65.278, 4.929  L 67.222, 3.214  L 69.167, 1.500  L 71.111, 3.214  L 73.056, 4.929  L 75.000, 6.643  L 73.056, 8.357  L 71.111, 10.071  L 69.167, 11.786  L 67.222, 13.500  L 65.278, 11.786  L 63.333, 10.071  L 61.389, 8.357  L 59.444, 6.643  L 57.500, 4.929  L 55.556, 3.214  L 53.611, 1.500  L 51.667, 3.214  L 49.722, 4.929  L 47.778, 6.643  L 45.833, 8.357  L 43.889, 10.071  L 41.944, 11.786  L 40.000, 13.500  L 38.056, 11.786  L 36.111, 10.071  L 34.167, 8.357  L 32.222, 6.643  L 30.278, 4.929  L 28.333, 3.214  L 26.389, 1.500  L 24.444, 3.214  L 22.500, 4.929  L 20.556, 6.643  L 18.611, 8.357  L 16.667, 10.071  L 14.722, 11.786  L 12.778, 13.500  L 10.833, 11.786  L 8.889, 10.071  L 6.944, 8.357  L 5.000, 6.643  L 6.944, 4.929  L 8.889, 3.214  L 10.833, 1.500  L 12.778, 3.214  L 14.722, 4.929  L 16.667, 6.643  L 18.611, 8.357  L 20.556, 10.071  L 22.500, 11.786  L 24.444, 13.500  L 26.389, 11.786  L 28.333, 10.071  L 30.278, 8.357  L 32.222, 6.643  L 34.167, 4.929  L 36.111, 3.214  L 38.056, 1.500  L 40.000, 3.214  L 41.944, 4.929  L 43.889, 6.643  L 45.833, 8.357  L 47.778, 10.071  L 49.722, 11.786  L 51.667, 13.500  L 53.611, 11.786  L 55.556, 10.071  L 57.500, 8.357  L 59.444, 6.643  L 61.389, 4.929  L 63.333, 3.214  L 65.278, 1.500  L 67.222, 3.214  L 69.167, 4.929  L 71.111, 6.643  L 73.056, 8.357  L 75.000, 10.071  L 73.056, 11.786  L 71.111, 13.500  L 69.167, 11.786  L 67.222, 10.071  L 65.278, 8.357  L 63.333, 6.643  L 61.389, 4.929  L 59.444, 3.214  L 57.500, 1.500  L 55.556, 3.214  L 53.611, 4.929  L 51.667, 6.643  L 49.722, 8.357  L 47.778, 10.071  L 45.833, 11.786  L 43.889, 13.500  L 41.944, 11.786  L 40.000, 10.071  L 38.056, 8.357  L 36.111, 6.643  L 34.167, 4.929  L 32.222, 3.214  L 30.278, 1.500  L 28.333, 3.214  L 26.389, 4.929  L 24.444, 6.643  L 22.500, 8.357  L 20.556, 10.071  L 18.611, 11.786  L 16.667, 13.500  L 14.722, 11.786  L 12.778, 10.071  L 10.833, 8.357  L 8.889, 6.643  L 6.944, 4.929  L 5.000, 3.214  L 6.944, 1.500  L 8.889, 3.214  L 10.833, 4.929  L 12.778, 6.643  L 14.722, 8.357  L 16.667, 10.071  L 18.611, 11.786  L 20.556, 13.500  L 22.500, 11.786  L 24.444, 10.071  L 26.389, 8.357  L 28.333, 6.643  L 30.278, 4.929  L 32.222, 3.214  L 34.167, 1.500  L 36.111, 3.214  L 38.056, 4.929  L 40.000, 6.643  L 41.944, 8.357  L 43.889, 10.071  L 45.833, 11.786  L 47.778, 13.500  L 49.722, 11.786  L 51.667, 10.071  L 53.611, 8.357  L 55.556, 6.643  L 57.500, 4.929  L 59.444, 3.214  L 61.389, 1.500  L 63.333, 3.214  L 65.278, 4.929  L 67.222, 6.643  L 69.167, 8.357  L 71.111, 10.071  L 73.056, 11.786  L 75.000, 13.500 "/>
    </g>
</svg>
