<?xml version="1.0" encoding="utf-8" ?>
<svg xmlns="http://www.w3.org/2000/svg" xmlns:ev="http://www.w3.org/2001/xml-events" xmlns:xlink="http://www.w3.org/1999/xlink" baseProfile="full" height="15mm" version="1.1" viewBox="0,0,80,15" width="80mm">
    <defs>
        <style type="text/css"><![CDATA[
.stitch_line {
    stroke-width: 0.3;
    stroke-linejoin: round;
    stroke-linecap: round;
    fill: none;
}
.path_center_line {
    fill: none;
    stroke:#808080;
    stroke-width: 0.2;
    stroke-linejoin: round;
    stroke-linecap: round;
}
.path_contour {
    fill: #808080;
    fill-opacity: 0.3;
    stroke: #808080;
    stroke-opacity: 1;
    stroke-width: 0.3;
}
.text{
    text-anchor: middle;
    dominant-baseline: middle;
    font-family: sans-serif;
    font-size: 1.5mm;
}
.smalltext{
    text-anchor: middle;
    dominant-baseline: middle;
    font-family: sans-serif;
    font-size: 1mm;
}
.color_0 {
    stroke:#3bb2d0;
}
.dot_0 {
    marker-start:url(#dot_0);
    marker-mid:url(#dot_0);
    marker-end:url(#dot_0);
}
]]></style>
        <marker id="dot_0" markerHeight="3.0" markerWidth="3.0" refX="1.5" refY="1.5">
            <circle cx="1.5" cy="1.5" fill="#3bb2d0" r="1.5"/>
        </marker>
    </defs>
    <g>
        <path class="stitch_line color_0 dot_0" d="M 5.000, 1.500  L 8.043, 1.500  L 11.087, 1.500  L 14.130, 1.500  L 17.174, 1.500  L 20.217, 1.500  L 23.261, 1.500  L 26.304, 1.500  L 29.348, 1.500  L 32.391, 1.500  L 35.435, 1.500  L 38.478, 1.500  L 41.522, 1.500  L 44.565, 1.500  L 47.609, 1.500  L 50.652, 1.500  L 53.696, 1.500  L 56.739, 1.500  L 59.783, 1.500  L 62.826, 1.500  L 65.870, 1.500  L 68.913, 1.505  L 71.957, 1.782  L 75.000, 2.500  L 71.957, 3.218  L 68.913, 3.495  L 65.870, 3.500  L 62.826, 3.500  L 59.783, 3.500  L 56.739, 3.500  L 53.696, 3.500  L 50.652, 3.500  L 47.609, 3.500  L 44.565, 3.500  L 41.522, 3.500  L 38.478, 3.500  L 35.435, 3.500  L 32.391, 3.500  L 29.348, 3.500  L 26.304, 3.500  L 23.261, 3.500  L 20.217, 3.500  L 17.174, 3.500  L 14.130, 3.500  L 11.087, 3.505  L 8.043, 3.782  L 5.000, 4.500  L 8.043, 5.218  L 11.087, 5.495  L 14.130, 5.500  L 17.174, 5.500  L 20.217, 5.500  L 23.261, 5.500  L 26.304, 5.500  L 29.348, 5.500  L 32.391, 5.500  L 35.435, 5.500  L 38.478, 5.500  L 41.522, 5.500  L 44.565, 5.500  L 47.609, 5.500  L 50.652, 5.500  L 53.696, 5.500  L 56.739, 5.500  L 59.783, 5.500  L 62.826, 5.500  L 65.870, 5.500  L 68.913, 5.505  L 71.957, 5.782  L 75.000, 6.500  L 71.957, 7.218  L 68.913, 7.495  L 65.870, 7.500  L 62.826, 7.500  L 59.783, 7.500  L 56.739, 7.500  L 53.696, 7.500  L 50.652, 7.500  L 47.609, 7.500  L 44.565, 7.500  L 41.522, 7.500  L 38.478, 7.500  L 35.435, 7.500  L 32.391, 7.500  L 29.348, 7.500  L 26.304, 7.500  L 23.261, 7.500  L 20.217, 7.500  L 17.174, 7.500  L 14.130, 7.500  L 11.087, 7.505  L 8.043, 7.782  L 5.000, 8.500  L 8.043, 9.218  L 11.087, 9.495  L 14.130, 9.500  L 17.174, 9.500  L 20.217, 9.500  L 23.261, 9.500  L 26.304, 9.500  L 29.348, 9.500  L 32.391, 9.500  L 35.435, 9.500  L 38.478, 9.500  L 41.522, 9.500  L 44.565, 9.500  L 47.609, 9.500  L 50.652, 9.500  L 53.696, 9.500  L 56.739, 9.500  L 59.783, 9.500  L 62.826, 9.500  L 65.870, 9.500  L 68.913, 9.505  L 71.957, 9.782  L 75.000, 10.500  L 71.957, 11.218  L 68.913, 11.495  L 65.870, 11.500  L 62.826, 11.500  L 59.783, 11.500  L 56.739, 11.500  L 53.696, 11.500  L 50.652, 11.500  L 47.609, 11.500  L 44.565, 11.500  L 41.522, 11.500  L 38.478, 11.500  L 35.435, 11.500  L 32.391, 11.500  L 29.348, 11.500  L 26.304, 11.500  L 23.261, 11.500  L 20.217, 11.500  L 17.174, 11.500  L 14.130, 11.500  L 11.087, 11.505  L 8.043, 11.782  L 5.000, 12.500  L 8.043, 13.218  L 11.087, 13.495  L 14.130, 13.500  L 17.174, 13.500  L 20.217, 13.500  L 23.261, 13.500  L 26.304, 13.500  L 29.348, 13.500  L 32.391, 13.500  L 35.435, 13.500  L 38.478, 13.500  L 41.522, 13.500  L 44.565, 13.500  L 47.609, 13.500  L 50.652, 13.500  L 53.696, 13.500  L 56.739, 13.500  L 59.783, 13.500  L 62.826, 13.500  L 65.870, 13.500  L 68.913, 13.500  L 71.957, 13.500  L 75.000, 13.500 "/>
    </g>
</svg>
