<?xml version="1.0" encoding="utf-8" ?>
<svg xmlns="http://www.w3.org/2000/svg" xmlns:ev="http://www.w3.org/2001/xml-events" xmlns:xlink="http://www.w3.org/1999/xlink" baseProfile="full" height="15mm" version="1.1" viewBox="0,0,80,15" width="80mm">
    <defs>
        <style type="text/css"><![CDATA[
.stitch_line {
    stroke-width: 0.3;
    stroke-linejoin: round;
    stroke-linecap: round;
    fill: none;
}
.path_center_line {
    fill: none;
    stroke:#808080;
    stroke-width: 0.2;
    stroke-linejoin: round;
    stroke-linecap: round;
}
.path_contour {
    fill: #808080;
    fill-opacity: 0.3;
    stroke: #808080;
    stroke-opacity: 1;
    stroke-width: 0.3;
}
.text{
    text-anchor: middle;
    dominant-baseline: middle;
    font-family: sans-serif;
    font-size: 1.5mm;
}
.smalltext{
    text-anchor: middle;
    dominant-baseline: middle;
    font-family: sans-serif;
    font-size: 1mm;
}
.color_0 {
    stroke:#3bb2d0;
}
.dot_0 {
    marker-start:url(#dot_0);
    marker-mid:url(#dot_0);
    marker-end:url(#dot_0);
}
]]></style>
        <marker id="dot_0" markerHeight="3.0" markerWidth="3.0" refX="1.5" refY="1.5">
            <circle cx="1.5" cy="1.5" fill="#3bb2d0" r="1.5"/>
        </marker>
    </defs>
    <g>
        <path class="stitch_line color_0 dot_0" d="M 5.000, 7.500  L 8.043, 7.425  L 11.087, 7.357  L 14.130, 7.312  L 17.174, 7.273  L 20.217, 7.241  L 23.261, 7.216  L 26.304, 7.198  L 29.348, 7.186  L 32.391, 7.182  L 35.435, 7.184  L 38.478, 7.193  L 41.522, 7.209  L 44.565, 7.231  L 47.609, 7.261  L 50.652, 7.297  L 53.696, 7.340  L 56.739, 7.390  L 59.783, 7.446  L 62.826, 7.510  L 65.870, 7.580  L 68.913, 7.657  L 65.870, 7.596  L 62.826, 7.541  L 59.783, 7.514  L 56.739, 7.493  L 53.696, 7.479  L 50.652, 7.472  L 47.609, 7.471  L 44.565, 7.478  L 41.522, 7.491  L 38.478, 7.511  L 35.435, 7.538  L 32.391, 7.571  L 29.348, 7.612  L 26.304, 7.659  L 23.261, 7.713  L 20.217, 7.774  L 17.174, 7.841  L 20.217, 7.794  L 23.261, 7.753  L 26.304, 7.746  L 29.348, 7.746  L 32.391, 7.753  L 35.435, 7.767  L 38.478, 7.787  L 41.522, 7.814  L 44.565, 7.849  L 47.609, 7.889  L 50.652, 7.937  L 53.696, 7.992  L 56.739, 8.053  L 53.696, 8.019  L 50.652, 7.992  L 47.609, 7.971  L 44.565, 7.958  L 41.522, 7.951  L 38.478, 7.951  L 35.435, 7.958  L 32.391, 7.971  L 29.348, 7.992  L 26.304, 8.019  L 23.261, 8.053  L 26.304, 7.992  L 29.348, 7.937  L 32.391, 7.889  L 35.435, 7.849  L 38.478, 7.814  L 41.522, 7.787  L 44.565, 7.767  L 47.609, 7.753  L 50.652, 7.746  L 53.696, 7.746  L 56.739, 7.753  L 59.783, 7.794  L 62.826, 7.841  L 59.783, 7.774  L 56.739, 7.713  L 53.696, 7.659  L 50.652, 7.612  L 47.609, 7.571  L 44.565, 7.538  L 41.522, 7.511  L 38.478, 7.491  L 35.435, 7.478  L 32.391, 7.471  L 29.348, 7.472  L 26.304, 7.479  L 23.261, 7.493  L 20.217, 7.514  L 17.174, 7.541  L 14.130, 7.596  L 11.087, 7.657  L 14.130, 7.580  L 17.174, 7.510  L 20.217, 7.446  L 23.261, 7.390  L 26.304, 7.340  L 29.348, 7.297  L 32.391, 7.261  L 35.435, 7.231  L 38.478, 7.209  L 41.522, 7.193  L 44.565, 7.184  L 47.609, 7.182  L 50.652, 7.186  L 53.696, 7.198  L 56.739, 7.216  L 59.783, 7.241  L 62.826, 7.273  L 65.870, 7.312  L 68.913, 7.357  L 71.957, 7.425  L 75.000, 7.500 "/>
    </g>
</svg>
