<?xml version="1.0" encoding="utf-8" ?>
<svg xmlns="http://www.w3.org/2000/svg" xmlns:ev="http://www.w3.org/2001/xml-events" xmlns:xlink="http://www.w3.org/1999/xlink" baseProfile="full" height="15mm" version="1.1" viewBox="0,0,80,15" width="80mm">
    <defs>
        <style type="text/css"><![CDATA[
.stitch_line {
    stroke-width: 0.3;
    stroke-linejoin: round;
    stroke-linecap: round;
    fill: none;
}
.path_center_line {
    fill: none;
    stroke:#808080;
    stroke-width: 0.2;
    stroke-linejoin: round;
    stroke-linecap: round;
}
.path_contour {
    fill: #808080;
    fill-opacity: 0.3;
    stroke: #808080;
    stroke-opacity: 1;
    stroke-width: 0.3;
}
.text{
    text-anchor: middle;
    dominant-baseline: middle;
    font-family: sans-serif;
    font-size: 1.5mm;
}
.smalltext{
    text-anchor: middle;
    dominant-baseline: middle;
    font-family: sans-serif;
    font-size: 1mm;
}
.color_0 {
    stroke:#2e9a69;
}
.dot_0 {
    marker-start:url(#dot_0);
    marker-mid:url(#dot_0);
    marker-end:url(#dot_0);
}
]]></style>
        <marker id="dot_0" markerHeight="3.0" markerWidth="3.0" refX="1.5" refY="1.5">
            <circle cx="1.5" cy="1.5" fill="#2e9a69" r="1.5"/>
        </marker>
    </defs>
    <g>
        <path class="stitch_line color_0 dot_0" d="M 7.000, 8.700  L 10.000, 9.764  L 13.000, 10.007  L 16.000, 10.003  L 19.000, 10.108  L 22.000, 10.072  L 25.000, 9.583  L 28.000, 8.799  L 31.000, 8.436  L 34.000, 8.426  L 37.000, 8.404  L 40.000, 8.188  L 43.000, 7.683  L 46.000, 6.922  L 49.000, 5.942  L 52.000, 4.820  L 55.000, 3.963  L 58.000, 3.684  L 61.000, 3.706  L 64.000, 3.821  L 67.000, 4.015  L 70.000, 4.360  L 73.000, 4.794  L 71.000, 4.473  L 68.000, 4.035  L 65.000, 3.906  L 62.000, 3.636  L 59.000, 2.992  L 56.000, 2.411  L 53.000, 2.081  L 50.000, 1.866  L 47.000, 1.701  L 44.000, 1.646  L 41.000, 1.694  L 38.000, 1.834  L 35.000, 2.053  L 32.000, 2.370  L 29.000, 2.760  L 26.000, 3.197  L 23.000, 3.661  L 20.000, 4.093  L 17.000, 4.583  L 14.000, 5.382  L 11.000, 6.532  L 8.000, 7.940  L 9.000, 8.715  L 12.000, 8.011  L 15.000, 7.471  L 18.000, 7.324  L 21.000, 7.253  L 24.000, 7.085  L 27.000, 7.085  L 30.000, 7.644  L 33.000, 7.898  L 36.000, 6.899  L 39.000, 5.260  L 42.000, 3.937  L 45.000, 3.275  L 48.000, 2.916  L 51.000, 2.437  L 54.000, 2.032  L 57.000, 1.887  L 60.000, 1.808  L 63.000, 1.653  L 66.000, 1.538  L 69.000, 1.501  L 72.000, 1.500  L 73.000, 1.501  L 70.000, 1.508  L 67.000, 1.530  L 64.000, 1.575  L 61.000, 1.652  L 58.000, 1.767  L 55.000, 1.885  L 52.000, 1.925  L 49.000, 1.902  L 46.000, 1.909  L 43.000, 1.974  L 40.000, 2.192  L 37.000, 2.486  L 34.000, 2.582  L 31.000, 2.467  L 28.000, 2.347  L 25.000, 2.531  L 22.000, 3.324  L 19.000, 4.547  L 16.000, 5.864  L 13.000, 7.010  L 10.000, 8.025  L 7.000, 8.824  L 8.000, 8.813  L 11.000, 8.261  L 14.000, 7.950  L 17.000, 7.638  L 20.000, 7.182  L 23.000, 6.875  L 26.000, 6.794  L 29.000, 6.792  L 32.000, 6.757  L 35.000, 6.659  L 38.000, 6.790  L 41.000, 7.159  L 44.000, 7.290  L 47.000, 7.221  L 50.000, 7.438  L 53.000, 8.608  L 56.000, 10.242  L 59.000, 11.362  L 62.000, 11.847  L 65.000, 11.346  L 68.000, 9.871  L 71.000, 8.255  L 72.000, 5.424  L 69.000, 5.170  L 66.000, 5.419  L 63.000, 5.810  L 60.000, 5.725  L 57.000, 5.212  L 54.000, 4.789  L 51.000, 4.620  L 48.000, 4.598  L 45.000, 4.286  L 42.000, 3.641  L 39.000, 3.201  L 36.000, 2.845  L 33.000, 2.517  L 30.000, 2.369  L 27.000, 2.293  L 24.000, 2.177  L 21.000, 1.937  L 18.000, 1.605  L 15.000, 1.502  L 12.000, 1.500  L 9.000, 1.500  L 7.000, 1.500  L 10.000, 1.500  L 13.000, 1.504  L 16.000, 1.551  L 19.000, 1.659  L 22.000, 1.693  L 25.000, 1.674  L 28.000, 1.721  L 31.000, 1.912  L 34.000, 2.150  L 37.000, 2.280  L 40.000, 2.427  L 43.000, 2.617  L 46.000, 2.683  L 49.000, 2.484  L 52.000, 2.200  L 55.000, 1.876  L 58.000, 1.737  L 61.000, 1.794  L 64.000, 1.914  L 67.000, 1.965  L 70.000, 1.887  L 73.000, 1.850  L 71.000, 2.208  L 68.000, 2.416  L 65.000, 2.555  L 62.000, 2.508  L 59.000, 2.277  L 56.000, 1.961  L 53.000, 1.700  L 50.000, 1.638  L 47.000, 1.738  L 44.000, 2.090  L 41.000, 2.960  L 38.000, 4.073  L 35.000, 5.051  L 32.000, 6.041  L 29.000, 7.227  L 26.000, 8.333  L 23.000, 8.989  L 20.000, 9.349  L 17.000, 9.684  L 14.000, 10.253  L 11.000, 11.137  L 8.000, 11.832  L 9.000, 11.790  L 12.000, 11.113  L 15.000, 10.337  L 18.000, 9.902  L 21.000, 9.450  L 24.000, 8.647  L 27.000, 7.890  L 30.000, 7.563  L 33.000, 7.464  L 36.000, 7.298  L 39.000, 6.562  L 42.000, 5.676  L 45.000, 5.218  L 48.000, 5.301  L 51.000, 5.811  L 54.000, 5.831  L 57.000, 5.206  L 60.000, 4.283  L 63.000, 3.488  L 66.000, 3.415  L 69.000, 3.818  L 72.000, 4.271  L 73.000, 4.996  L 70.000, 5.116  L 67.000, 4.890  L 64.000, 4.464  L 61.000, 4.197  L 58.000, 4.339  L 55.000, 4.621  L 52.000, 4.913  L 49.000, 5.893  L 46.000, 7.754  L 43.000, 9.606  L 40.000, 10.636  L 37.000, 11.228  L 34.000, 11.650  L 31.000, 11.913  L 28.000, 11.774  L 25.000, 11.098  L 22.000, 9.968  L 19.000, 8.485  L 16.000, 6.761  L 13.000, 5.096  L 10.000, 3.860  L 7.000, 3.179  L 5.000, 2.845 "/>
    </g>
</svg>
