<?xml version="1.0" encoding="utf-8" ?>
<svg xmlns="http://www.w3.org/2000/svg" xmlns:ev="http://www.w3.org/2001/xml-events" xmlns:xlink="http://www.w3.org/1999/xlink" baseProfile="full" height="10mm" version="1.1" viewBox="0,0,60,10" width="60mm">
    <defs>
        <style type="text/css"><![CDATA[
.stitch_line {
    stroke-width: 0.3;
    stroke-linejoin: round;
    stroke-linecap: round;
    fill: none;
}
.path_center_line {
    fill: none;
    stroke:#808080;
    stroke-width: 0.2;
    stroke-linejoin: round;
    stroke-linecap: round;
}
.path_contour {
    fill: #808080;
    fill-opacity: 0.3;
    stroke: #808080;
    stroke-opacity: 1;
    stroke-width: 0.3;
}
.text{
    text-anchor: middle;
    dominant-baseline: middle;
    font-family: sans-serif;
    font-size: 1.5mm;
}
.smalltext{
    text-anchor: middle;
    dominant-baseline: middle;
    font-family: sans-serif;
    font-size: 1mm;
}
.color_0 {
    stroke:#3bb2d0;
}
.dot_0 {
    marker-start:url(#dot_0);
    marker-mid:url(#dot_0);
    marker-end:url(#dot_0);
}
]]></style>
        <marker id="dot_0" markerHeight="3.0" markerWidth="3.0" refX="1.5" refY="1.5">
            <circle cx="1.5" cy="1.5" fill="#3bb2d0" r="1.5"/>
        </marker>
    </defs>
    <g>
        <path class="stitch_line color_0 dot_0" d="M 3.000, 2.550  L 7.000, 2.517  L 3.000, 2.483  L 7.000, 2.450  L 5.941, 7.450  L 9.941, 7.483  L 5.941, 7.517  L 9.941, 7.550  L 8.882, 2.550  L 12.882, 2.517  L 8.882, 2.483  L 12.882, 2.450  L 11.824, 7.450  L 15.824, 7.483  L 11.824, 7.517  L 15.824, 7.550  L 14.765, 2.550  L 18.765, 2.517  L 14.765, 2.483  L 18.765, 2.450  L 17.706, 7.450  L 21.706, 7.483  L 17.706, 7.517  L 21.706, 7.550  L 20.647, 2.550  L 24.647, 2.517  L 20.647, 2.483  L 24.647, 2.450  L 23.588, 7.450  L 27.588, 7.483  L 23.588, 7.517  L 27.588, 7.550  L 26.529, 2.550  L 30.529, 2.517  L 26.529, 2.483  L 30.529, 2.450  L 29.471, 7.450  L 33.471, 7.483  L 29.471, 7.517  L 33.471, 7.550  L 32.412, 2.550  L 36.412, 2.517  L 32.412, 2.483  L 36.412, 2.450  L 35.353, 7.450  L 39.353, 7.483  L 35.353, 7.517  L 39.353, 7.550  L 38.294, 2.550  L 42.294, 2.517  L 38.294, 2.483  L 42.294, 2.450  L 41.235, 7.450  L 45.235, 7.483  L 41.235, 7.517  L 45.235, 7.550  L 44.176, 2.550  L 48.176, 2.517  L 44.176, 2.483  L 48.176, 2.450  L 47.118, 7.450  L 51.118, 7.483  L 47.118, 7.517  L 51.118, 7.550  L 50.059, 2.550  L 54.059, 2.517  L 50.059, 2.483  L 54.059, 2.450  L 53.000, 7.450  L 57.000, 7.483  L 53.000, 7.517  L 57.000, 7.550 "/>
    </g>
</svg>
