<?xml version="1.0" encoding="utf-8" ?>
<svg xmlns="http://www.w3.org/2000/svg" xmlns:ev="http://www.w3.org/2001/xml-events" xmlns:xlink="http://www.w3.org/1999/xlink" baseProfile="full" height="15mm" version="1.1" viewBox="0,0,80,15" width="80mm">
    <defs>
        <style type="text/css"><![CDATA[
.stitch_line {
    stroke-width: 0.3;
    stroke-linejoin: round;
    stroke-linecap: round;
    fill: none;
}
.path_center_line {
    fill: none;
    stroke:#808080;
    stroke-width: 0.2;
    stroke-linejoin: round;
    stroke-linecap: round;
}
.path_contour {
    fill: #808080;
    fill-opacity: 0.3;
    stroke: #808080;
    stroke-opacity: 1;
    stroke-width: 0.3;
}
.text{
    text-anchor: middle;
    dominant-baseline: middle;
    font-family: sans-serif;
    font-size: 1.5mm;
}
.smalltext{
    text-anchor: middle;
    dominant-baseline: middle;
    font-family: sans-serif;
    font-size: 1mm;
}
.color_0 {
    stroke:#3bb2d0;
}
.dot_0 {
    marker-start:url(#dot_0);
    marker-mid:url(#dot_0);
    marker-end:url(#dot_0);
}
]]></style>
        <marker id="dot_0" markerHeight="3.0" markerWidth="3.0" refX="1.5" refY="1.5">
            <circle cx="1.5" cy="1.5" fill="#3bb2d0" r="1.5"/>
        </marker>
    </defs>
    <g>
        <path class="stitch_line color_0 dot_0" d="M 3.000, 10.500  L 5.000, 7.500  L 3.000, 4.500  L 6.043, 4.500  L 8.043, 7.500  L 6.043, 10.500  L 9.087, 10.500  L 11.087, 7.500  L 9.087, 4.500  L 12.130, 4.500  L 14.130, 7.500  L 12.130, 10.500  L 15.174, 10.500  L 17.174, 7.500  L 15.174, 4.500  L 18.217, 4.500  L 20.217, 7.500  L 18.217, 10.500  L 21.261, 10.500  L 23.261, 7.500  L 21.261, 4.500  L 24.304, 4.500  L 26.304, 7.500  L 24.304, 10.500  L 27.348, 10.500  L 29.348, 7.500  L 27.348, 4.500  L 30.391, 4.500  L 32.391, 7.500  L 30.391, 10.500  L 33.435, 10.500  L 35.435, 7.500  L 33.435, 4.500  L 36.478, 4.500  L 38.478, 7.500  L 36.478, 10.500  L 39.522, 10.500  L 41.522, 7.500  L 39.522, 4.500  L 42.565, 4.500  L 44.565, 7.500  L 42.565, 10.500  L 45.609, 10.500  L 47.609, 7.500  L 45.609, 4.500  L 48.652, 4.500  L 50.652, 7.500  L 48.652, 10.500  L 51.696, 10.500  L 53.696, 7.500  L 51.696, 4.500  L 54.739, 4.500  L 56.739, 7.500  L 54.739, 10.500  L 57.783, 10.500  L 59.783, 7.500  L 57.783, 4.500  L 60.826, 4.500  L 62.826, 7.500  L 60.826, 10.500  L 63.870, 10.500  L 65.870, 7.500  L 63.870, 4.500  L 66.913, 4.500  L 68.913, 7.500  L 66.913, 10.500  L 69.957, 10.500  L 71.957, 7.500  L 69.957, 4.500  L 73.000, 4.500  L 75.000, 7.500  L 73.000, 10.500 "/>
    </g>
</svg>
