<?xml version="1.0" encoding="utf-8" ?>
<svg xmlns="http://www.w3.org/2000/svg" xmlns:ev="http://www.w3.org/2001/xml-events" xmlns:xlink="http://www.w3.org/1999/xlink" baseProfile="full" height="10mm" version="1.1" viewBox="0,0,60,10" width="60mm">
    <defs>
        <style type="text/css"><![CDATA[
.stitch_line {
    stroke-width: 0.3;
    stroke-linejoin: round;
    stroke-linecap: round;
    fill: none;
}
.path_center_line {
    fill: none;
    stroke:#808080;
    stroke-width: 0.2;
    stroke-linejoin: round;
    stroke-linecap: round;
}
.path_contour {
    fill: #808080;
    fill-opacity: 0.3;
    stroke: #808080;
    stroke-opacity: 1;
    stroke-width: 0.3;
}
.text{
    text-anchor: middle;
    dominant-baseline: middle;
    font-family: sans-serif;
    font-size: 1.5mm;
}
.smalltext{
    text-anchor: middle;
    dominant-baseline: middle;
    font-family: sans-serif;
    font-size: 1mm;
}
.color_0 {
    stroke:#3bb2d0;
}
.dot_0 {
    marker-start:url(#dot_0);
    marker-mid:url(#dot_0);
    marker-end:url(#dot_0);
}
]]></style>
        <marker id="dot_0" markerHeight="3.0" markerWidth="3.0" refX="1.5" refY="1.5">
            <circle cx="1.5" cy="1.5" fill="#3bb2d0" r="1.5"/>
        </marker>
    </defs>
    <g>
        <path class="stitch_line color_0 dot_0" d="M 5.000, 5.000  L 7.500, 8.000  L 5.000, 5.000  L 7.500, 2.000  L 5.000, 5.000  L 2.500, 2.000  L 5.000, 5.000  L 2.500, 8.000  L 5.000, 5.000  L 7.941, 5.000  L 10.441, 8.000  L 7.941, 5.000  L 10.441, 2.000  L 7.941, 5.000  L 5.441, 2.000  L 7.941, 5.000  L 5.441, 8.000  L 7.941, 5.000  L 10.882, 5.000  L 13.382, 8.000  L 10.882, 5.000  L 13.382, 2.000  L 10.882, 5.000  L 8.382, 2.000  L 10.882, 5.000  L 8.382, 8.000  L 10.882, 5.000  L 13.824, 5.000  L 16.324, 8.000  L 13.824, 5.000  L 16.324, 2.000  L 13.824, 5.000  L 11.324, 2.000  L 13.824, 5.000  L 11.324, 8.000  L 13.824, 5.000  L 16.765, 5.000  L 19.265, 8.000  L 16.765, 5.000  L 19.265, 2.000  L 16.765, 5.000  L 14.265, 2.000  L 16.765, 5.000  L 14.265, 8.000  L 16.765, 5.000  L 19.706, 5.000  L 22.206, 8.000  L 19.706, 5.000  L 22.206, 2.000  L 19.706, 5.000  L 17.206, 2.000  L 19.706, 5.000  L 17.206, 8.000  L 19.706, 5.000  L 22.647, 5.000  L 25.147, 8.000  L 22.647, 5.000  L 25.147, 2.000  L 22.647, 5.000  L 20.147, 2.000  L 22.647, 5.000  L 20.147, 8.000  L 22.647, 5.000  L 25.588, 5.000  L 28.088, 8.000  L 25.588, 5.000  L 28.088, 2.000  L 25.588, 5.000  L 23.088, 2.000  L 25.588, 5.000  L 23.088, 8.000  L 25.588, 5.000  L 28.529, 5.000  L 31.029, 8.000  L 28.529, 5.000  L 31.029, 2.000  L 28.529, 5.000  L 26.029, 2.000  L 28.529, 5.000  L 26.029, 8.000  L 28.529, 5.000  L 31.471, 5.000  L 33.971, 8.000  L 31.471, 5.000  L 33.971, 2.000  L 31.471, 5.000  L 28.971, 2.000  L 31.471, 5.000  L 28.971, 8.000  L 31.471, 5.000  L 34.412, 5.000  L 36.912, 8.000  L 34.412, 5.000  L 36.912, 2.000  L 34.412, 5.000  L 31.912, 2.000  L 34.412, 5.000  L 31.912, 8.000  L 34.412, 5.000  L 37.353, 5.000  L 39.853, 8.000  L 37.353, 5.000  L 39.853, 2.000  L 37.353, 5.000  L 34.853, 2.000  L 37.353, 5.000  L 34.853, 8.000  L 37.353, 5.000  L 40.294, 5.000  L 42.794, 8.000  L 40.294, 5.000  L 42.794, 2.000  L 40.294, 5.000  L 37.794, 2.000  L 40.294, 5.000  L 37.794, 8.000  L 40.294, 5.000  L 43.235, 5.000  L 45.735, 8.000  L 43.235, 5.000  L 45.735, 2.000  L 43.235, 5.000  L 40.735, 2.000  L 43.235, 5.000  L 40.735, 8.000  L 43.235, 5.000  L 46.176, 5.000  L 48.676, 8.000  L 46.176, 5.000  L 48.676, 2.000  L 46.176, 5.000  L 43.676, 2.000  L 46.176, 5.000  L 43.676, 8.000  L 46.176, 5.000  L 49.118, 5.000  L 51.618, 8.000  L 49.118, 5.000  L 51.618, 2.000  L 49.118, 5.000  L 46.618, 2.000  L 49.118, 5.000  L 46.618, 8.000  L 49.118, 5.000  L 52.059, 5.000  L 54.559, 8.000  L 52.059, 5.000  L 54.559, 2.000  L 52.059, 5.000  L 49.559, 2.000  L 52.059, 5.000  L 49.559, 8.000  L 52.059, 5.000  L 55.000, 5.000  L 57.500, 8.000  L 55.000, 5.000  L 57.500, 2.000  L 55.000, 5.000  L 52.500, 2.000  L 55.000, 5.000  L 52.500, 8.000  L 55.000, 5.000 "/>
    </g>
</svg>
