<?xml version="1.0" encoding="utf-8" ?>
<svg xmlns="http://www.w3.org/2000/svg" xmlns:ev="http://www.w3.org/2001/xml-events" xmlns:xlink="http://www.w3.org/1999/xlink" baseProfile="full" height="15mm" version="1.1" viewBox="0,0,80,15" width="80mm">
    <defs>
        <style type="text/css"><![CDATA[
.stitch_line {
    stroke-width: 0.3;
    stroke-linejoin: round;
    stroke-linecap: round;
    fill: none;
}
.path_center_line {
    fill: none;
    stroke:#808080;
    stroke-width: 0.2;
    stroke-linejoin: round;
    stroke-linecap: round;
}
.path_contour {
    fill: #808080;
    fill-opacity: 0.3;
    stroke: #808080;
    stroke-opacity: 1;
    stroke-width: 0.3;
}
.text{
    text-anchor: middle;
    dominant-baseline: middle;
    font-family: sans-serif;
    font-size: 1.5mm;
}
.smalltext{
    text-anchor: middle;
    dominant-baseline: middle;
    font-family: sans-serif;
    font-size: 1mm;
}
.color_0 {
    stroke:#2e9a69;
}
.dot_0 {
    marker-start:url(#dot_0);
    marker-mid:url(#dot_0);
    marker-end:url(#dot_0);
}
]]></style>
        <marker id="dot_0" markerHeight="3.0" markerWidth="3.0" refX="1.5" refY="1.5">
            <circle cx="1.5" cy="1.5" fill="#2e9a69" r="1.5"/>
        </marker>
    </defs>
    <g>
        <path class="stitch_line color_0 dot_0" d="M 5.000, 7.500  L 7.000, 7.821  L 10.000, 8.282  L 13.000, 8.700  L 16.000, 9.061  L 19.000, 9.358  L 22.000, 9.591  L 25.000, 9.764  L 28.000, 9.883  L 31.000, 9.956  L 34.000, 9.994  L 37.000, 10.007  L 40.000, 10.005  L 43.000, 9.999  L 46.000, 9.996  L 49.000, 10.003  L 52.000, 10.023  L 55.000, 10.053  L 58.000, 10.086  L 61.000, 10.108  L 64.000, 10.122  L 67.000, 10.125  L 70.000, 10.111  L 73.000, 10.072  L 75.000, 10.029  L 71.000, 9.896  L 68.000, 9.755  L 65.000, 9.583  L 62.000, 9.389  L 59.000, 9.184  L 56.000, 8.982  L 53.000, 8.799  L 50.000, 8.647  L 47.000, 8.535  L 44.000, 8.467  L 41.000, 8.436  L 38.000, 8.428  L 35.000, 8.425  L 32.000, 8.424  L 29.000, 8.426  L 26.000, 8.428  L 23.000, 8.427  L 20.000, 8.421  L 17.000, 8.404  L 14.000, 8.375  L 11.000, 8.331  L 8.000, 8.268  L 5.000, 8.188  L 9.000, 8.051  L 12.000, 7.927  L 15.000, 7.786  L 18.000, 7.628  L 21.000, 7.454  L 24.000, 7.264  L 27.000, 7.063  L 30.000, 6.850  L 33.000, 6.622  L 36.000, 6.379  L 39.000, 6.121  L 42.000, 5.850  L 45.000, 5.569  L 48.000, 5.284  L 51.000, 5.002  L 54.000, 4.731  L 57.000, 4.481  L 60.000, 4.258  L 63.000, 4.068  L 66.000, 3.917  L 69.000, 3.805  L 72.000, 3.733  L 75.000, 3.695  L 73.000, 3.684  L 70.000, 3.677  L 67.000, 3.679  L 64.000, 3.689  L 61.000, 3.706  L 58.000, 3.729  L 55.000, 3.756  L 52.000, 3.787  L 49.000, 3.821  L 46.000, 3.860  L 43.000, 3.904  L 40.000, 3.955  L 37.000, 4.015  L 34.000, 4.086  L 31.000, 4.167  L 28.000, 4.259  L 25.000, 4.360  L 22.000, 4.468  L 19.000, 4.580  L 16.000, 4.693  L 13.000, 4.794  L 10.000, 4.871  L 7.000, 4.914  L 5.000, 4.922 "/>
    </g>
</svg>
