<?xml version="1.0" encoding="utf-8" ?>
<svg xmlns="http://www.w3.org/2000/svg" xmlns:ev="http://www.w3.org/2001/xml-events" xmlns:xlink="http://www.w3.org/1999/xlink" baseProfile="full" height="15mm" version="1.1" viewBox="0,0,80,15" width="80mm">
    <defs>
        <style type="text/css"><![CDATA[
.stitch_line {
    stroke-width: 0.3;
    stroke-linejoin: round;
    stroke-linecap: round;
    fill: none;
}
.path_center_line {
    fill: none;
    stroke:#808080;
    stroke-width: 0.2;
    stroke-linejoin: round;
    stroke-linecap: round;
}
.path_contour {
    fill: #808080;
    fill-opacity: 0.3;
    stroke: #808080;
    stroke-opacity: 1;
    stroke-width: 0.3;
}
.text{
    text-anchor: middle;
    dominant-baseline: middle;
    font-family: sans-serif;
    font-size: 1.5mm;
}
.smalltext{
    text-anchor: middle;
    dominant-baseline: middle;
    font-family: sans-serif;
    font-size: 1mm;
}
.color_0 {
    stroke:#3bb2d0;
}
.dot_0 {
    marker-start:url(#dot_0);
    marker-mid:url(#dot_0);
    marker-end:url(#dot_0);
}
]]></style>
        <marker id="dot_0" markerHeight="3.0" markerWidth="3.0" refX="1.5" refY="1.5">
            <circle cx="1.5" cy="1.5" fill="#3bb2d0" r="1.5"/>
        </marker>
    </defs>
    <g>
        <path class="stitch_line color_0 dot_0" d="M 7.000, 8.294  L 10.000, 9.187  L 13.000, 9.651  L 16.000, 10.033  L 19.000, 10.275  L 22.000, 10.069  L 25.000, 10.259  L 28.000, 10.904  L 31.000, 10.963  L 34.000, 10.053  L 37.000, 9.259  L 40.000, 9.433  L 43.000, 9.755  L 46.000, 9.916  L 49.000, 10.671  L 52.000, 11.214  L 55.000, 11.081  L 58.000, 10.166  L 61.000, 8.483  L 64.000, 7.776  L 67.000, 7.213  L 70.000, 6.324  L 73.000, 6.472  L 71.000, 7.274  L 68.000, 7.657  L 65.000, 8.351  L 62.000, 8.549  L 59.000, 9.244  L 56.000, 10.755  L 53.000, 11.739  L 50.000, 12.080  L 47.000, 11.800  L 44.000, 11.346  L 41.000, 11.091  L 38.000, 9.681  L 35.000, 7.358  L 32.000, 6.431  L 29.000, 6.598  L 26.000, 5.881  L 23.000, 4.888  L 20.000, 4.640  L 17.000, 4.313  L 14.000, 4.335  L 11.000, 4.216  L 8.000, 4.577  L 9.000, 6.673  L 12.000, 5.806  L 15.000, 5.223  L 18.000, 6.303  L 21.000, 7.881  L 24.000, 8.710  L 27.000, 8.184  L 30.000, 8.193  L 33.000, 8.982  L 36.000, 9.827  L 39.000, 10.900  L 42.000, 11.927  L 45.000, 12.378  L 48.000, 12.815  L 51.000, 13.219  L 54.000, 13.411  L 57.000, 13.375  L 60.000, 13.060  L 63.000, 12.511  L 66.000, 12.234  L 69.000, 11.868  L 72.000, 11.305  L 73.000, 9.764  L 70.000, 7.700  L 67.000, 5.605  L 64.000, 3.867  L 61.000, 3.041  L 58.000, 3.336  L 55.000, 4.202  L 52.000, 4.025  L 49.000, 3.437  L 46.000, 3.077  L 43.000, 2.425  L 40.000, 2.200  L 37.000, 2.573  L 34.000, 2.904  L 31.000, 2.725  L 28.000, 2.493  L 25.000, 2.713  L 22.000, 3.288  L 19.000, 3.520  L 16.000, 3.335  L 13.000, 3.824  L 10.000, 4.976  L 7.000, 6.405  L 8.000, 9.814  L 11.000, 10.429  L 14.000, 9.656  L 17.000, 8.426  L 20.000, 7.360  L 23.000, 7.098  L 26.000, 7.277  L 29.000, 8.159  L 32.000, 9.599  L 35.000, 10.251  L 38.000, 10.784  L 41.000, 11.392  L 44.000, 11.164  L 47.000, 9.851  L 50.000, 8.553  L 53.000, 8.842  L 56.000, 9.357  L 59.000, 9.202  L 62.000, 8.993  L 65.000, 9.812  L 68.000, 10.627  L 71.000, 10.733  L 72.000, 12.233  L 69.000, 12.716  L 66.000, 12.380  L 63.000, 11.832  L 60.000, 11.881  L 57.000, 12.756  L 54.000, 13.096  L 51.000, 13.270  L 48.000, 13.387  L 45.000, 13.325  L 42.000, 13.016  L 39.000, 12.432  L 36.000, 11.616  L 33.000, 10.824  L 30.000, 10.368  L 27.000, 9.052  L 24.000, 7.921  L 21.000, 7.446  L 18.000, 7.948  L 15.000, 7.806  L 12.000, 7.478  L 9.000, 7.746  L 7.000, 6.511  L 10.000, 5.933  L 13.000, 4.858  L 16.000, 3.771  L 19.000, 2.825  L 22.000, 2.164  L 25.000, 1.952  L 28.000, 1.741  L 31.000, 1.570  L 34.000, 1.566  L 37.000, 1.733  L 40.000, 2.745  L 43.000, 4.228  L 46.000, 5.029  L 49.000, 5.820  L 52.000, 6.194  L 55.000, 5.938  L 58.000, 5.317  L 61.000, 5.190  L 64.000, 5.855  L 67.000, 5.857  L 70.000, 5.023  L 73.000, 4.669  L 71.000, 5.954  L 68.000, 7.432  L 65.000, 8.357  L 62.000, 8.752  L 59.000, 8.245  L 56.000, 7.376  L 53.000, 6.756  L 50.000, 6.792  L 47.000, 6.880  L 44.000, 7.371  L 41.000, 8.008  L 38.000, 8.147  L 35.000, 7.893  L 32.000, 6.990  L 29.000, 5.693  L 26.000, 5.081  L 23.000, 5.518  L 20.000, 5.615  L 17.000, 5.619  L 14.000, 6.566  L 11.000, 7.845  L 8.000, 8.708  L 9.000, 11.499  L 12.000, 11.753  L 15.000, 11.977  L 18.000, 11.810  L 21.000, 10.408  L 24.000, 8.450  L 27.000, 7.144  L 30.000, 5.555  L 33.000, 3.981  L 36.000, 3.207  L 39.000, 2.995  L 42.000, 3.099  L 45.000, 3.489  L 48.000, 3.472  L 51.000, 3.486  L 54.000, 3.981  L 57.000, 5.870  L 60.000, 7.803  L 63.000, 8.185  L 66.000, 8.530  L 69.000, 9.945  L 72.000, 11.387  L 73.000, 12.060  L 70.000, 11.866  L 67.000, 11.566  L 64.000, 11.123  L 61.000, 9.786  L 58.000, 8.240  L 55.000, 7.304  L 52.000, 6.763  L 49.000, 6.800  L 46.000, 6.991  L 43.000, 7.202  L 40.000, 7.555  L 37.000, 7.887  L 34.000, 7.188  L 31.000, 6.425  L 28.000, 6.512  L 25.000, 7.000  L 22.000, 8.097  L 19.000, 9.105  L 16.000, 8.728  L 13.000, 8.151  L 10.000, 8.088  L 7.000, 8.670  L 5.000, 9.365 "/>
    </g>
</svg>
