<?xml version="1.0" encoding="utf-8" ?>
<svg xmlns="http://www.w3.org/2000/svg" xmlns:ev="http://www.w3.org/2001/xml-events" xmlns:xlink="http://www.w3.org/1999/xlink" baseProfile="full" height="10mm" version="1.1" viewBox="0,0,60,10" width="60mm">
    <defs>
        <style type="text/css"><![CDATA[
.stitch_line {
    stroke-width: 0.3;
    stroke-linejoin: round;
    stroke-linecap: round;
    fill: none;
}
.path_center_line {
    fill: none;
    stroke:#808080;
    stroke-width: 0.2;
    stroke-linejoin: round;
    stroke-linecap: round;
}
.path_contour {
    fill: #808080;
    fill-opacity: 0.3;
    stroke: #808080;
    stroke-opacity: 1;
    stroke-width: 0.3;
}
.text{
    text-anchor: middle;
    dominant-baseline: middle;
    font-family: sans-serif;
    font-size: 1.5mm;
}
.smalltext{
    text-anchor: middle;
    dominant-baseline: middle;
    font-family: sans-serif;
    font-size: 1mm;
}
.color_0 {
    stroke:#3bb2d0;
}
.dot_0 {
    marker-start:url(#dot_0);
    marker-mid:url(#dot_0);
    marker-end:url(#dot_0);
}
]]></style>
        <marker id="dot_0" markerHeight="3.0" markerWidth="3.0" refX="1.5" refY="1.5">
            <circle cx="1.5" cy="1.5" fill="#3bb2d0" r="1.5"/>
        </marker>
    </defs>
    <g>
        <path class="stitch_line color_0 dot_0" d="M 5.000, 2.500  L 3.500, 2.550  L 6.500, 2.530  L 3.500, 2.510  L 6.500, 2.490  L 3.500, 2.470  L 6.500, 2.450  L 5.000, 2.500  L 7.941, 7.500  L 6.441, 7.450  L 9.441, 7.470  L 6.441, 7.490  L 9.441, 7.510  L 6.441, 7.530  L 9.441, 7.550  L 7.941, 7.500  L 10.882, 2.500  L 9.382, 2.550  L 12.382, 2.530  L 9.382, 2.510  L 12.382, 2.490  L 9.382, 2.470  L 12.382, 2.450  L 10.882, 2.500  L 13.824, 7.500  L 12.324, 7.450  L 15.324, 7.470  L 12.324, 7.490  L 15.324, 7.510  L 12.324, 7.530  L 15.324, 7.550  L 13.824, 7.500  L 16.765, 2.500  L 15.265, 2.550  L 18.265, 2.530  L 15.265, 2.510  L 18.265, 2.490  L 15.265, 2.470  L 18.265, 2.450  L 16.765, 2.500  L 19.706, 7.500  L 18.206, 7.450  L 21.206, 7.470  L 18.206, 7.490  L 21.206, 7.510  L 18.206, 7.530  L 21.206, 7.550  L 19.706, 7.500  L 22.647, 2.500  L 21.147, 2.550  L 24.147, 2.530  L 21.147, 2.510  L 24.147, 2.490  L 21.147, 2.470  L 24.147, 2.450  L 22.647, 2.500  L 25.588, 7.500  L 24.088, 7.450  L 27.088, 7.470  L 24.088, 7.490  L 27.088, 7.510  L 24.088, 7.530  L 27.088, 7.550  L 25.588, 7.500  L 28.529, 2.500  L 27.029, 2.550  L 30.029, 2.530  L 27.029, 2.510  L 30.029, 2.490  L 27.029, 2.470  L 30.029, 2.450  L 28.529, 2.500  L 31.471, 7.500  L 29.971, 7.450  L 32.971, 7.470  L 29.971, 7.490  L 32.971, 7.510  L 29.971, 7.530  L 32.971, 7.550  L 31.471, 7.500  L 34.412, 2.500  L 32.912, 2.550  L 35.912, 2.530  L 32.912, 2.510  L 35.912, 2.490  L 32.912, 2.470  L 35.912, 2.450  L 34.412, 2.500  L 37.353, 7.500  L 35.853, 7.450  L 38.853, 7.470  L 35.853, 7.490  L 38.853, 7.510  L 35.853, 7.530  L 38.853, 7.550  L 37.353, 7.500  L 40.294, 2.500  L 38.794, 2.550  L 41.794, 2.530  L 38.794, 2.510  L 41.794, 2.490  L 38.794, 2.470  L 41.794, 2.450  L 40.294, 2.500  L 43.235, 7.500  L 41.735, 7.450  L 44.735, 7.470  L 41.735, 7.490  L 44.735, 7.510  L 41.735, 7.530  L 44.735, 7.550  L 43.235, 7.500  L 46.176, 2.500  L 44.676, 2.550  L 47.676, 2.530  L 44.676, 2.510  L 47.676, 2.490  L 44.676, 2.470  L 47.676, 2.450  L 46.176, 2.500  L 49.118, 7.500  L 47.618, 7.450  L 50.618, 7.470  L 47.618, 7.490  L 50.618, 7.510  L 47.618, 7.530  L 50.618, 7.550  L 49.118, 7.500  L 52.059, 2.500  L 50.559, 2.550  L 53.559, 2.530  L 50.559, 2.510  L 53.559, 2.490  L 50.559, 2.470  L 53.559, 2.450  L 52.059, 2.500  L 55.000, 7.500  L 53.500, 7.450  L 56.500, 7.470  L 53.500, 7.490  L 56.500, 7.510  L 53.500, 7.530  L 56.500, 7.550  L 55.000, 7.500 "/>
    </g>
</svg>
