<?xml version="1.0" encoding="utf-8" ?>
<svg xmlns="http://www.w3.org/2000/svg" xmlns:ev="http://www.w3.org/2001/xml-events" xmlns:xlink="http://www.w3.org/1999/xlink" baseProfile="full" height="15mm" version="1.1" viewBox="0,0,80,15" width="80mm">
    <defs>
        <style type="text/css"><![CDATA[
.stitch_line {
    stroke-width: 0.3;
    stroke-linejoin: round;
    stroke-linecap: round;
    fill: none;
}
.path_center_line {
    fill: none;
    stroke:#808080;
    stroke-width: 0.2;
    stroke-linejoin: round;
    stroke-linecap: round;
}
.path_contour {
    fill: #808080;
    fill-opacity: 0.3;
    stroke: #808080;
    stroke-opacity: 1;
    stroke-width: 0.3;
}
.text{
    text-anchor: middle;
    dominant-baseline: middle;
    font-family: sans-serif;
    font-size: 1.5mm;
}
.smalltext{
    text-anchor: middle;
    dominant-baseline: middle;
    font-family: sans-serif;
    font-size: 1mm;
}
.color_0 {
    stroke:#3bb2d0;
}
.dot_0 {
    marker-start:url(#dot_0);
    marker-mid:url(#dot_0);
    marker-end:url(#dot_0);
}
]]></style>
        <marker id="dot_0" markerHeight="3.0" markerWidth="3.0" refX="1.5" refY="1.5">
            <circle cx="1.5" cy="1.5" fill="#3bb2d0" r="1.5"/>
        </marker>
    </defs>
    <g>
        <path class="stitch_line color_0 dot_0" d="M 5.000, 1.500  L 5.761, 4.500  L 6.522, 7.500  L 7.283, 10.500  L 8.043, 13.500  L 8.043, 13.500  L 8.804, 10.500  L 9.565, 7.500  L 10.326, 4.500  L 11.087, 1.500  L 11.087, 1.500  L 11.848, 4.500  L 12.609, 7.500  L 13.370, 10.500  L 14.130, 13.500  L 14.130, 13.500  L 14.891, 10.500  L 15.652, 7.500  L 16.413, 4.500  L 17.174, 1.500  L 17.174, 1.500  L 17.935, 4.500  L 18.696, 7.500  L 19.457, 10.500  L 20.217, 13.500  L 20.217, 13.500  L 20.978, 10.500  L 21.739, 7.500  L 22.500, 4.500  L 23.261, 1.500  L 23.261, 1.500  L 24.022, 4.500  L 24.783, 7.500  L 25.543, 10.500  L 26.304, 13.500  L 26.304, 13.500  L 27.065, 10.500  L 27.826, 7.500  L 28.587, 4.500  L 29.348, 1.500  L 29.348, 1.500  L 30.109, 4.500  L 30.870, 7.500  L 31.630, 10.500  L 32.391, 13.500  L 32.391, 13.500  L 33.152, 10.500  L 33.913, 7.500  L 34.674, 4.500  L 35.435, 1.500  L 35.435, 1.500  L 36.196, 4.500  L 36.957, 7.500  L 37.717, 10.500  L 38.478, 13.500  L 38.478, 13.500  L 39.239, 10.500  L 40.000, 7.500  L 40.761, 4.500  L 41.522, 1.500  L 41.522, 1.500  L 42.283, 4.500  L 43.043, 7.500  L 43.804, 10.500  L 44.565, 13.500  L 44.565, 13.500  L 45.326, 10.500  L 46.087, 7.500  L 46.848, 4.500  L 47.609, 1.500  L 47.609, 1.500  L 48.370, 4.500  L 49.130, 7.500  L 49.891, 10.500  L 50.652, 13.500  L 50.652, 13.500  L 51.413, 10.500  L 52.174, 7.500  L 52.935, 4.500  L 53.696, 1.500  L 53.696, 1.500  L 54.457, 4.500  L 55.217, 7.500  L 55.978, 10.500  L 56.739, 13.500  L 56.739, 13.500  L 57.500, 10.500  L 58.261, 7.500  L 59.022, 4.500  L 59.783, 1.500  L 59.783, 1.500  L 60.543, 4.500  L 61.304, 7.500  L 62.065, 10.500  L 62.826, 13.500  L 62.826, 13.500  L 63.587, 10.500  L 64.348, 7.500  L 65.109, 4.500  L 65.870, 1.500  L 65.870, 1.500  L 66.630, 4.500  L 67.391, 7.500  L 68.152, 10.500  L 68.913, 13.500  L 68.913, 13.500  L 69.674, 10.500  L 70.435, 7.500  L 71.196, 4.500  L 71.957, 1.500  L 71.957, 1.500  L 72.717, 4.500  L 73.478, 7.500  L 74.239, 10.500  L 75.000, 13.500  L 75.000, 13.500  L 75.000, 10.500  L 75.000, 7.500  L 75.000, 4.500  L 75.000, 1.500  L 75.000, 1.500  L 74.239, 4.500  L 73.478, 7.500  L 72.717, 10.500  L 71.957, 13.500  L 71.957, 13.500  L 71.196, 10.500  L 70.435, 7.500  L 69.674, 4.500  L 68.913, 1.500  L 68.913, 1.500  L 68.152, 4.500  L 67.391, 7.500  L 66.630, 10.500  L 65.870, 13.500  L 65.870, 13.500  L 65.109, 10.500  L 64.348, 7.500  L 63.587, 4.500  L 62.826, 1.500  L 62.826, 1.500  L 62.065, 4.500  L 61.304, 7.500  L 60.543, 10.500  L 59.783, 13.500  L 59.783, 13.500  L 59.022, 10.500  L 58.261, 7.500  L 57.500, 4.500  L 56.739, 1.500  L 56.739, 1.500  L 55.978, 4.500  L 55.217, 7.500  L 54.457, 10.500  L 53.696, 13.500  L 53.696, 13.500  L 52.935, 10.500  L 52.174, 7.500  L 51.413, 4.500  L 50.652, 1.500  L 50.652, 1.500  L 49.891, 4.500  L 49.130, 7.500  L 48.370, 10.500  L 47.609, 13.500  L 47.609, 13.500  L 46.848, 10.500  L 46.087, 7.500  L 45.326, 4.500  L 44.565, 1.500  L 44.565, 1.500  L 43.804, 4.500  L 43.043, 7.500  L 42.283, 10.500  L 41.522, 13.500  L 41.522, 13.500  L 40.761, 10.500  L 40.000, 7.500  L 39.239, 4.500  L 38.478, 1.500  L 38.478, 1.500  L 37.717, 4.500  L 36.957, 7.500  L 36.196, 10.500  L 35.435, 13.500  L 35.435, 13.500  L 34.674, 10.500  L 33.913, 7.500  L 33.152, 4.500  L 32.391, 1.500  L 32.391, 1.500  L 31.630, 4.500  L 30.870, 7.500  L 30.109, 10.500  L 29.348, 13.500  L 29.348, 13.500  L 28.587, 10.500  L 27.826, 7.500  L 27.065, 4.500  L 26.304, 1.500  L 26.304, 1.500  L 25.543, 4.500  L 24.783, 7.500  L 24.022, 10.500  L 23.261, 13.500  L 23.261, 13.500  L 22.500, 10.500  L 21.739, 7.500  L 20.978, 4.500  L 20.217, 1.500  L 20.217, 1.500  L 19.457, 4.500  L 18.696, 7.500  L 17.935, 10.500  L 17.174, 13.500  L 17.174, 13.500  L 16.413, 10.500  L 15.652, 7.500  L 14.891, 4.500  L 14.130, 1.500  L 14.130, 1.500  L 13.370, 4.500  L 12.609, 7.500  L 11.848, 10.500  L 11.087, 13.500  L 11.087, 13.500  L 10.326, 10.500  L 9.565, 7.500  L 8.804, 4.500  L 8.043, 1.500  L 8.043, 1.500  L 7.283, 4.500  L 6.522, 7.500  L 5.761, 10.500  L 5.000, 13.500  L 5.000, 13.500  L 5.000, 10.500  L 5.000, 7.500  L 5.000, 4.500  L 5.000, 1.500  L 5.000, 1.500  L 5.000, 1.500 "/>
    </g>
</svg>
