<?xml version="1.0" encoding="utf-8" ?>
<svg xmlns="http://www.w3.org/2000/svg" xmlns:ev="http://www.w3.org/2001/xml-events" xmlns:xlink="http://www.w3.org/1999/xlink" baseProfile="full" height="15mm" version="1.1" viewBox="0,0,80,15" width="80mm">
    <defs>
        <style type="text/css"><![CDATA[
.stitch_line {
    stroke-width: 0.3;
    stroke-linejoin: round;
    stroke-linecap: round;
    fill: none;
}
.path_center_line {
    fill: none;
    stroke:#808080;
    stroke-width: 0.2;
    stroke-linejoin: round;
    stroke-linecap: round;
}
.path_contour {
    fill: #808080;
    fill-opacity: 0.3;
    stroke: #808080;
    stroke-opacity: 1;
    stroke-width: 0.3;
}
.text{
    text-anchor: middle;
    dominant-baseline: middle;
    font-family: sans-serif;
    font-size: 1.5mm;
}
.smalltext{
    text-anchor: middle;
    dominant-baseline: middle;
    font-family: sans-serif;
    font-size: 1mm;
}
.color_0 {
    stroke:#3bb2d0;
}
.dot_0 {
    marker-start:url(#dot_0);
    marker-mid:url(#dot_0);
    marker-end:url(#dot_0);
}
]]></style>
        <marker id="dot_0" markerHeight="3.0" markerWidth="3.0" refX="1.5" refY="1.5">
            <circle cx="1.5" cy="1.5" fill="#3bb2d0" r="1.5"/>
        </marker>
    </defs>
    <g>
        <path class="stitch_line color_0 dot_0" d="M 5.000, 1.500  L 5.507, 4.541  L 6.000, 7.500  L 6.493, 10.459  L 7.000, 13.500  L 7.408, 11.051  L 7.901, 8.092  L 8.395, 5.133  L 9.000, 1.500  L 9.704, 5.724  L 10.197, 8.684  L 11.000, 13.500  L 11.704, 9.276  L 12.197, 6.316  L 13.000, 1.500  L 13.408, 3.949  L 13.901, 6.908  L 14.395, 9.867  L 15.000, 13.500  L 15.507, 10.459  L 16.000, 7.500  L 16.493, 4.541  L 17.000, 1.500  L 17.605, 5.133  L 18.099, 8.092  L 18.592, 11.051  L 19.000, 13.500  L 19.803, 8.684  L 20.296, 5.724  L 21.000, 1.500  L 21.803, 6.316  L 22.296, 9.276  L 23.000, 13.500  L 23.605, 9.867  L 24.099, 6.908  L 24.592, 3.949  L 25.000, 1.500  L 25.507, 4.541  L 26.000, 7.500  L 26.493, 10.459  L 27.000, 13.500  L 27.408, 11.051  L 27.901, 8.092  L 28.395, 5.133  L 29.000, 1.500  L 29.704, 5.724  L 30.197, 8.684  L 31.000, 13.500  L 31.704, 9.276  L 32.197, 6.316  L 33.000, 1.500  L 33.408, 3.949  L 33.901, 6.908  L 34.395, 9.867  L 35.000, 13.500  L 35.507, 10.459  L 36.000, 7.500  L 36.493, 4.541  L 37.000, 1.500  L 37.605, 5.133  L 38.099, 8.092  L 38.592, 11.051  L 39.000, 13.500  L 39.803, 8.684  L 40.296, 5.724  L 41.000, 1.500  L 41.803, 6.316  L 42.296, 9.276  L 43.000, 13.500  L 43.605, 9.867  L 44.099, 6.908  L 44.592, 3.949  L 45.000, 1.500  L 45.507, 4.541  L 46.000, 7.500  L 46.493, 10.459  L 47.000, 13.500  L 47.408, 11.051  L 47.901, 8.092  L 48.395, 5.133  L 49.000, 1.500  L 49.704, 5.724  L 50.197, 8.684  L 51.000, 13.500  L 51.704, 9.276  L 52.197, 6.316  L 53.000, 1.500  L 53.408, 3.949  L 53.901, 6.908  L 54.395, 9.867  L 55.000, 13.500  L 55.507, 10.459  L 56.000, 7.500  L 56.493, 4.541  L 57.000, 1.500  L 57.605, 5.133  L 58.099, 8.092  L 58.592, 11.051  L 59.000, 13.500  L 59.803, 8.684  L 60.296, 5.724  L 61.000, 1.500  L 61.803, 6.316  L 62.296, 9.276  L 63.000, 13.500  L 63.605, 9.867  L 64.099, 6.908  L 64.592, 3.949  L 65.000, 1.500  L 65.507, 4.541  L 66.000, 7.500  L 66.493, 10.459  L 67.000, 13.500  L 67.408, 11.051  L 67.901, 8.092  L 68.395, 5.133  L 69.000, 1.500  L 69.704, 5.724  L 70.197, 8.684  L 71.000, 13.500  L 71.704, 9.276  L 72.197, 6.316  L 73.000, 1.500  L 73.408, 3.949  L 73.901, 6.908  L 74.395, 9.867  L 75.000, 13.500 "/>
    </g>
</svg>
