<?xml version="1.0" encoding="utf-8" ?>
<svg xmlns="http://www.w3.org/2000/svg" xmlns:ev="http://www.w3.org/2001/xml-events" xmlns:xlink="http://www.w3.org/1999/xlink" baseProfile="full" height="10mm" version="1.1" viewBox="0,0,60,10" width="60mm">
    <defs>
        <style type="text/css"><![CDATA[
.stitch_line {
    stroke-width: 0.3;
    stroke-linejoin: round;
    stroke-linecap: round;
    fill: none;
}
.path_center_line {
    fill: none;
    stroke:#808080;
    stroke-width: 0.2;
    stroke-linejoin: round;
    stroke-linecap: round;
}
.path_contour {
    fill: #808080;
    fill-opacity: 0.3;
    stroke: #808080;
    stroke-opacity: 1;
    stroke-width: 0.3;
}
.text{
    text-anchor: middle;
    dominant-baseline: middle;
    font-family: sans-serif;
    font-size: 1.5mm;
}
.smalltext{
    text-anchor: middle;
    dominant-baseline: middle;
    font-family: sans-serif;
    font-size: 1mm;
}
.color_0 {
    stroke:#3bb2d0;
}
.dot_0 {
    marker-start:url(#dot_0);
    marker-mid:url(#dot_0);
    marker-end:url(#dot_0);
}
]]></style>
        <marker id="dot_0" markerHeight="3.0" markerWidth="3.0" refX="1.5" refY="1.5">
            <circle cx="1.5" cy="1.5" fill="#3bb2d0" r="1.5"/>
        </marker>
    </defs>
    <g>
        <path class="stitch_line color_0 dot_0" d="M 5.000, 7.500  L 5.000, 2.500  L 7.941, 2.500  L 5.294, 5.500  L 5.000, 7.500  L 7.941, 7.500  L 7.941, 2.500  L 10.882, 2.500  L 8.235, 5.500  L 7.941, 7.500  L 10.882, 7.500  L 10.882, 2.500  L 13.824, 2.500  L 11.176, 5.500  L 10.882, 7.500  L 13.824, 7.500  L 13.824, 2.500  L 16.765, 2.500  L 14.118, 5.500  L 13.824, 7.500  L 16.765, 7.500  L 16.765, 2.500  L 19.706, 2.500  L 17.059, 5.500  L 16.765, 7.500  L 19.706, 7.500  L 19.706, 2.500  L 22.647, 2.500  L 20.000, 5.500  L 19.706, 7.500  L 22.647, 7.500  L 22.647, 2.500  L 25.588, 2.500  L 22.941, 5.500  L 22.647, 7.500  L 25.588, 7.500  L 25.588, 2.500  L 28.529, 2.500  L 25.882, 5.500  L 25.588, 7.500  L 28.529, 7.500  L 28.529, 2.500  L 31.471, 2.500  L 28.824, 5.500  L 28.529, 7.500  L 31.471, 7.500  L 31.471, 2.500  L 34.412, 2.500  L 31.765, 5.500  L 31.471, 7.500  L 34.412, 7.500  L 34.412, 2.500  L 37.353, 2.500  L 34.706, 5.500  L 34.412, 7.500  L 37.353, 7.500  L 37.353, 2.500  L 40.294, 2.500  L 37.647, 5.500  L 37.353, 7.500  L 40.294, 7.500  L 40.294, 2.500  L 43.235, 2.500  L 40.588, 5.500  L 40.294, 7.500  L 43.235, 7.500  L 43.235, 2.500  L 46.176, 2.500  L 43.529, 5.500  L 43.235, 7.500  L 46.176, 7.500  L 46.176, 2.500  L 49.118, 2.500  L 46.471, 5.500  L 46.176, 7.500  L 49.118, 7.500  L 49.118, 2.500  L 52.059, 2.500  L 49.412, 5.500  L 49.118, 7.500  L 52.059, 7.500  L 52.059, 2.500  L 55.000, 2.500  L 52.353, 5.500  L 52.059, 7.500  L 55.000, 7.500  L 55.000, 2.500  L 55.000, 5.500  L 53.500, 5.500  L 50.559, 5.500  L 47.618, 5.500  L 44.676, 5.500  L 41.735, 5.500  L 38.794, 5.500  L 35.853, 5.500  L 32.912, 5.500  L 29.971, 5.500  L 27.029, 5.500  L 24.088, 5.500  L 21.147, 5.500  L 18.206, 5.500  L 15.265, 5.500  L 12.324, 5.500  L 9.382, 5.500  L 6.441, 5.500  L 5.000, 5.500  L 6.441, 5.500  L 9.382, 5.500  L 12.324, 5.500  L 15.265, 5.500  L 18.206, 5.500  L 21.147, 5.500  L 24.088, 5.500  L 27.029, 5.500  L 29.971, 5.500  L 32.912, 5.500  L 35.853, 5.500  L 38.794, 5.500  L 41.735, 5.500  L 44.676, 5.500  L 47.618, 5.500  L 50.559, 5.500  L 53.500, 5.500  L 55.000, 5.500 "/>
    </g>
</svg>
