<?xml version="1.0" encoding="utf-8" ?>
<svg xmlns="http://www.w3.org/2000/svg" xmlns:ev="http://www.w3.org/2001/xml-events" xmlns:xlink="http://www.w3.org/1999/xlink" baseProfile="full" height="10mm" version="1.1" viewBox="0,0,60,10" width="60mm">
    <defs>
        <style type="text/css"><![CDATA[
.stitch_line {
    stroke-width: 0.3;
    stroke-linejoin: round;
    stroke-linecap: round;
    fill: none;
}
.path_center_line {
    fill: none;
    stroke:#808080;
    stroke-width: 0.2;
    stroke-linejoin: round;
    stroke-linecap: round;
}
.path_contour {
    fill: #808080;
    fill-opacity: 0.3;
    stroke: #808080;
    stroke-opacity: 1;
    stroke-width: 0.3;
}
.text{
    text-anchor: middle;
    dominant-baseline: middle;
    font-family: sans-serif;
    font-size: 1.5mm;
}
.smalltext{
    text-anchor: middle;
    dominant-baseline: middle;
    font-family: sans-serif;
    font-size: 1mm;
}
.color_0 {
    stroke:#3bb2d0;
}
.dot_0 {
    marker-start:url(#dot_0);
    marker-mid:url(#dot_0);
    marker-end:url(#dot_0);
}
]]></style>
        <marker id="dot_0" markerHeight="3.0" markerWidth="3.0" refX="1.5" refY="1.5">
            <circle cx="1.5" cy="1.5" fill="#3bb2d0" r="1.5"/>
        </marker>
    </defs>
    <g>
        <path class="stitch_line color_0 dot_0" d="M 5.000, 4.000  L 7.475, 1.525  L 5.000, 4.000  L 7.941, 6.000  L 10.416, 8.475  L 7.941, 6.000  L 10.882, 4.000  L 13.357, 1.525  L 10.882, 4.000  L 13.824, 6.000  L 16.298, 8.475  L 13.824, 6.000  L 16.765, 4.000  L 19.240, 1.525  L 16.765, 4.000  L 19.706, 6.000  L 22.181, 8.475  L 19.706, 6.000  L 22.647, 4.000  L 25.122, 1.525  L 22.647, 4.000  L 25.588, 6.000  L 28.063, 8.475  L 25.588, 6.000  L 28.529, 4.000  L 31.004, 1.525  L 28.529, 4.000  L 31.471, 6.000  L 33.945, 8.475  L 31.471, 6.000  L 34.412, 4.000  L 36.887, 1.525  L 34.412, 4.000  L 37.353, 6.000  L 39.828, 8.475  L 37.353, 6.000  L 40.294, 4.000  L 42.769, 1.525  L 40.294, 4.000  L 43.235, 6.000  L 45.710, 8.475  L 43.235, 6.000  L 46.176, 4.000  L 48.651, 1.525  L 46.176, 4.000  L 49.118, 6.000  L 51.593, 8.475  L 49.118, 6.000  L 52.059, 4.000  L 54.534, 1.525  L 52.059, 4.000  L 55.000, 6.000  L 57.475, 8.475  L 55.000, 6.000 "/>
    </g>
</svg>
