<?xml version="1.0" encoding="utf-8" ?>
<svg xmlns="http://www.w3.org/2000/svg" xmlns:ev="http://www.w3.org/2001/xml-events" xmlns:xlink="http://www.w3.org/1999/xlink" baseProfile="full" height="15mm" version="1.1" viewBox="0,0,80,15" width="80mm">
    <defs>
        <style type="text/css"><![CDATA[
.stitch_line {
    stroke-width: 0.3;
    stroke-linejoin: round;
    stroke-linecap: round;
    fill: none;
}
.path_center_line {
    fill: none;
    stroke:#808080;
    stroke-width: 0.2;
    stroke-linejoin: round;
    stroke-linecap: round;
}
.path_contour {
    fill: #808080;
    fill-opacity: 0.3;
    stroke: #808080;
    stroke-opacity: 1;
    stroke-width: 0.3;
}
.text{
    text-anchor: middle;
    dominant-baseline: middle;
    font-family: sans-serif;
    font-size: 1.5mm;
}
.smalltext{
    text-anchor: middle;
    dominant-baseline: middle;
    font-family: sans-serif;
    font-size: 1mm;
}
.color_0 {
    stroke:#3bb2d0;
}
.dot_0 {
    marker-start:url(#dot_0);
    marker-mid:url(#dot_0);
    marker-end:url(#dot_0);
}
]]></style>
        <marker id="dot_0" markerHeight="3.0" markerWidth="3.0" refX="1.5" refY="1.5">
            <circle cx="1.5" cy="1.5" fill="#3bb2d0" r="1.5"/>
        </marker>
    </defs>
    <g>
        <path class="stitch_line color_0 dot_0" d="M 5.000, 13.500  L 7.000, 13.447  L 9.000, 13.287  L 11.000, 13.020  L 13.000, 12.647  L 15.000, 12.167  L 17.000, 11.580  L 19.000, 10.887  L 21.000, 10.087  L 23.000, 9.180  L 25.000, 8.167  L 27.000, 7.047  L 29.000, 5.820  L 31.000, 4.487  L 33.000, 3.047  L 35.000, 1.500  L 37.000, 3.047  L 39.000, 4.487  L 41.000, 5.820  L 43.000, 7.047  L 45.000, 8.167  L 47.000, 9.180  L 49.000, 10.087  L 51.000, 10.887  L 53.000, 11.580  L 55.000, 12.167  L 57.000, 12.647  L 59.000, 13.020  L 61.000, 13.287  L 63.000, 13.447  L 65.000, 13.500  L 67.000, 13.447  L 69.000, 13.287  L 71.000, 13.020  L 73.000, 12.647  L 75.000, 12.167  L 73.000, 11.580  L 71.000, 10.887  L 69.000, 10.087  L 67.000, 9.180  L 65.000, 8.167  L 63.000, 7.047  L 61.000, 5.820  L 59.000, 4.487  L 57.000, 3.047  L 55.000, 1.500  L 53.000, 3.047  L 51.000, 4.487  L 49.000, 5.820  L 47.000, 7.047  L 45.000, 8.167  L 43.000, 9.180  L 41.000, 10.087  L 39.000, 10.887  L 37.000, 11.580  L 35.000, 12.167  L 33.000, 12.647  L 31.000, 13.020  L 29.000, 13.287  L 27.000, 13.447  L 25.000, 13.500  L 23.000, 13.447  L 21.000, 13.287  L 19.000, 13.020  L 17.000, 12.647  L 15.000, 12.167  L 13.000, 11.580  L 11.000, 10.887  L 9.000, 10.087  L 7.000, 9.180  L 5.000, 8.167  L 7.000, 7.047  L 9.000, 5.820  L 11.000, 4.487  L 13.000, 3.047  L 15.000, 1.500  L 17.000, 3.047  L 19.000, 4.487  L 21.000, 5.820  L 23.000, 7.047  L 25.000, 8.167  L 27.000, 9.180  L 29.000, 10.087  L 31.000, 10.887  L 33.000, 11.580  L 35.000, 12.167  L 37.000, 12.647  L 39.000, 13.020  L 41.000, 13.287  L 43.000, 13.447  L 45.000, 13.500  L 47.000, 13.447  L 49.000, 13.287  L 51.000, 13.020  L 53.000, 12.647  L 55.000, 12.167  L 57.000, 11.580  L 59.000, 10.887  L 61.000, 10.087  L 63.000, 9.180  L 65.000, 8.167  L 67.000, 7.047  L 69.000, 5.820  L 71.000, 4.487  L 73.000, 3.047  L 75.000, 1.500 "/>
    </g>
</svg>
