<?xml version="1.0" encoding="utf-8" ?>
<svg xmlns="http://www.w3.org/2000/svg" xmlns:ev="http://www.w3.org/2001/xml-events" xmlns:xlink="http://www.w3.org/1999/xlink" baseProfile="full" height="15mm" version="1.1" viewBox="0,0,80,15" width="80mm">
    <defs>
        <style type="text/css"><![CDATA[
.stitch_line {
    stroke-width: 0.3;
    stroke-linejoin: round;
    stroke-linecap: round;
    fill: none;
}
.path_center_line {
    fill: none;
    stroke:#808080;
    stroke-width: 0.2;
    stroke-linejoin: round;
    stroke-linecap: round;
}
.path_contour {
    fill: #808080;
    fill-opacity: 0.3;
    stroke: #808080;
    stroke-opacity: 1;
    stroke-width: 0.3;
}
.text{
    text-anchor: middle;
    dominant-baseline: middle;
    font-family: sans-serif;
    font-size: 1.5mm;
}
.smalltext{
    text-anchor: middle;
    dominant-baseline: middle;
    font-family: sans-serif;
    font-size: 1mm;
}
.color_0 {
    stroke:#3bb2d0;
}
.dot_0 {
    marker-start:url(#dot_0);
    marker-mid:url(#dot_0);
    marker-end:url(#dot_0);
}
]]></style>
        <marker id="dot_0" markerHeight="3.0" markerWidth="3.0" refX="1.5" refY="1.5">
            <circle cx="1.5" cy="1.5" fill="#3bb2d0" r="1.5"/>
        </marker>
    </defs>
    <g>
        <path class="stitch_line color_0 dot_0" d="M 6.000, 7.500  L 8.957, 7.370  L 11.913, 7.239  L 14.870, 7.109  L 17.826, 6.978  L 20.783, 6.848  L 23.739, 6.717  L 26.696, 6.587  L 29.652, 6.457  L 32.609, 6.326  L 35.565, 6.196  L 38.522, 6.065  L 41.478, 5.935  L 44.435, 5.804  L 47.391, 5.674  L 50.348, 5.543  L 53.304, 5.413  L 56.261, 5.283  L 59.217, 5.152  L 62.174, 5.022  L 65.130, 4.891  L 68.087, 4.761  L 71.043, 4.630  L 74.000, 4.500  L 71.043, 4.500  L 68.087, 4.500  L 65.130, 4.500  L 62.174, 4.500  L 59.217, 4.500  L 56.261, 4.500  L 53.304, 4.500  L 50.348, 4.500  L 47.391, 4.500  L 44.435, 4.500  L 41.478, 4.500  L 38.522, 4.500  L 35.565, 4.500  L 32.609, 4.500  L 29.652, 4.500  L 26.696, 4.500  L 23.739, 4.500  L 20.783, 4.500  L 17.826, 4.500  L 14.870, 4.500  L 11.913, 4.500  L 8.957, 4.500  L 6.000, 4.500  L 8.957, 4.630  L 11.913, 4.761  L 14.870, 4.891  L 17.826, 5.022  L 20.783, 5.152  L 23.739, 5.283  L 26.696, 5.413  L 29.652, 5.543  L 32.609, 5.674  L 35.565, 5.804  L 38.522, 5.935  L 41.478, 6.065  L 44.435, 6.196  L 47.391, 6.326  L 50.348, 6.457  L 53.304, 6.587  L 56.261, 6.717  L 59.217, 6.848  L 62.174, 6.978  L 65.130, 7.109  L 68.087, 7.239  L 71.043, 7.370  L 74.000, 7.500  L 71.043, 7.630  L 68.087, 7.761  L 65.130, 7.891  L 62.174, 8.022  L 59.217, 8.152  L 56.261, 8.283  L 53.304, 8.413  L 50.348, 8.543  L 47.391, 8.674  L 44.435, 8.804  L 41.478, 8.935  L 38.522, 9.065  L 35.565, 9.196  L 32.609, 9.326  L 29.652, 9.457  L 26.696, 9.587  L 23.739, 9.717  L 20.783, 9.848  L 17.826, 9.978  L 14.870, 10.109  L 11.913, 10.239  L 8.957, 10.370  L 6.000, 10.500  L 8.957, 10.500  L 11.913, 10.500  L 14.870, 10.500  L 17.826, 10.500  L 20.783, 10.500  L 23.739, 10.500  L 26.696, 10.500  L 29.652, 10.500  L 32.609, 10.500  L 35.565, 10.500  L 38.522, 10.500  L 41.478, 10.500  L 44.435, 10.500  L 47.391, 10.500  L 50.348, 10.500  L 53.304, 10.500  L 56.261, 10.500  L 59.217, 10.500  L 62.174, 10.500  L 65.130, 10.500  L 68.087, 10.500  L 71.043, 10.500  L 74.000, 10.500  L 71.043, 10.370  L 68.087, 10.239  L 65.130, 10.109  L 62.174, 9.978  L 59.217, 9.848  L 56.261, 9.717  L 53.304, 9.587  L 50.348, 9.457  L 47.391, 9.326  L 44.435, 9.196  L 41.478, 9.065  L 38.522, 8.935  L 35.565, 8.804  L 32.609, 8.674  L 29.652, 8.543  L 26.696, 8.413  L 23.739, 8.283  L 20.783, 8.152  L 17.826, 8.022  L 14.870, 7.891  L 11.913, 7.761  L 8.957, 7.630  L 6.000, 7.500 "/>
    </g>
</svg>
