<?xml version="1.0" encoding="utf-8" ?>
<svg xmlns="http://www.w3.org/2000/svg" xmlns:ev="http://www.w3.org/2001/xml-events" xmlns:xlink="http://www.w3.org/1999/xlink" baseProfile="full" height="15mm" version="1.1" viewBox="0,0,80,15" width="80mm">
    <defs>
        <style type="text/css"><![CDATA[
.stitch_line {
    stroke-width: 0.3;
    stroke-linejoin: round;
    stroke-linecap: round;
    fill: none;
}
.path_center_line {
    fill: none;
    stroke:#808080;
    stroke-width: 0.2;
    stroke-linejoin: round;
    stroke-linecap: round;
}
.path_contour {
    fill: #808080;
    fill-opacity: 0.3;
    stroke: #808080;
    stroke-opacity: 1;
    stroke-width: 0.3;
}
.text{
    text-anchor: middle;
    dominant-baseline: middle;
    font-family: sans-serif;
    font-size: 1.5mm;
}
.smalltext{
    text-anchor: middle;
    dominant-baseline: middle;
    font-family: sans-serif;
    font-size: 1mm;
}
.color_0 {
    stroke:#3bb2d0;
}
.dot_0 {
    marker-start:url(#dot_0);
    marker-mid:url(#dot_0);
    marker-end:url(#dot_0);
}
]]></style>
        <marker id="dot_0" markerHeight="3.0" markerWidth="3.0" refX="1.5" refY="1.5">
            <circle cx="1.5" cy="1.5" fill="#3bb2d0" r="1.5"/>
        </marker>
    </defs>
    <g>
        <path class="stitch_line color_0 dot_0" d="M 5.000, 13.500  L 5.000, 10.500  L 5.000, 7.500  L 5.000, 4.500  L 5.000, 1.500  L 7.800, 1.500  L 10.600, 1.500  L 13.400, 1.500  L 16.200, 1.500  L 16.200, 4.500  L 16.200, 7.500  L 16.200, 10.500  L 13.400, 10.500  L 10.600, 10.500  L 10.600, 7.500  L 13.400, 7.500  L 13.400, 4.500  L 10.600, 4.500  L 7.800, 4.500  L 7.800, 7.500  L 7.800, 10.500  L 7.800, 13.500  L 10.600, 13.500  L 13.400, 13.500  L 16.200, 13.500  L 19.000, 13.500  L 19.000, 10.500  L 19.000, 7.500  L 19.000, 4.500  L 19.000, 1.500  L 21.800, 1.500  L 24.600, 1.500  L 27.400, 1.500  L 30.200, 1.500  L 30.200, 4.500  L 30.200, 7.500  L 30.200, 10.500  L 27.400, 10.500  L 24.600, 10.500  L 24.600, 7.500  L 27.400, 7.500  L 27.400, 4.500  L 24.600, 4.500  L 21.800, 4.500  L 21.800, 7.500  L 21.800, 10.500  L 21.800, 13.500  L 24.600, 13.500  L 27.400, 13.500  L 30.200, 13.500  L 33.000, 13.500  L 33.000, 10.500  L 33.000, 7.500  L 33.000, 4.500  L 33.000, 1.500  L 35.800, 1.500  L 38.600, 1.500  L 41.400, 1.500  L 44.200, 1.500  L 44.200, 4.500  L 44.200, 7.500  L 44.200, 10.500  L 41.400, 10.500  L 38.600, 10.500  L 38.600, 7.500  L 41.400, 7.500  L 41.400, 4.500  L 38.600, 4.500  L 35.800, 4.500  L 35.800, 7.500  L 35.800, 10.500  L 35.800, 13.500  L 38.600, 13.500  L 41.400, 13.500  L 44.200, 13.500  L 47.000, 13.500  L 47.000, 10.500  L 47.000, 7.500  L 47.000, 4.500  L 47.000, 1.500  L 49.800, 1.500  L 52.600, 1.500  L 55.400, 1.500  L 58.200, 1.500  L 58.200, 4.500  L 58.200, 7.500  L 58.200, 10.500  L 55.400, 10.500  L 52.600, 10.500  L 52.600, 7.500  L 55.400, 7.500  L 55.400, 4.500  L 52.600, 4.500  L 49.800, 4.500  L 49.800, 7.500  L 49.800, 10.500  L 49.800, 13.500  L 52.600, 13.500  L 55.400, 13.500  L 58.200, 13.500  L 61.000, 13.500  L 61.000, 10.500  L 61.000, 7.500  L 61.000, 4.500  L 61.000, 1.500  L 63.800, 1.500  L 66.600, 1.500  L 69.400, 1.500  L 72.200, 1.500  L 72.200, 4.500  L 72.200, 7.500  L 72.200, 10.500  L 69.400, 10.500  L 66.600, 10.500  L 66.600, 7.500  L 69.400, 7.500  L 69.400, 4.500  L 66.600, 4.500  L 63.800, 4.500  L 63.800, 7.500  L 63.800, 10.500  L 63.800, 13.500  L 66.600, 13.500  L 69.400, 13.500  L 72.200, 13.500  L 75.000, 13.500 "/>
    </g>
</svg>
