<?xml version="1.0" encoding="utf-8" ?>
<svg xmlns="http://www.w3.org/2000/svg" xmlns:ev="http://www.w3.org/2001/xml-events" xmlns:xlink="http://www.w3.org/1999/xlink" baseProfile="full" height="10mm" version="1.1" viewBox="0,0,60,10" width="60mm">
    <defs>
        <style type="text/css"><![CDATA[
.stitch_line {
    stroke-width: 0.3;
    stroke-linejoin: round;
    stroke-linecap: round;
    fill: none;
}
.path_center_line {
    fill: none;
    stroke:#808080;
    stroke-width: 0.2;
    stroke-linejoin: round;
    stroke-linecap: round;
}
.path_contour {
    fill: #808080;
    fill-opacity: 0.3;
    stroke: #808080;
    stroke-opacity: 1;
    stroke-width: 0.3;
}
.text{
    text-anchor: middle;
    dominant-baseline: middle;
    font-family: sans-serif;
    font-size: 1.5mm;
}
.smalltext{
    text-anchor: middle;
    dominant-baseline: middle;
    font-family: sans-serif;
    font-size: 1mm;
}
.color_0 {
    stroke:#3bb2d0;
}
.dot_0 {
    marker-start:url(#dot_0);
    marker-mid:url(#dot_0);
    marker-end:url(#dot_0);
}
]]></style>
        <marker id="dot_0" markerHeight="3.0" markerWidth="3.0" refX="1.5" refY="1.5">
            <circle cx="1.5" cy="1.5" fill="#3bb2d0" r="1.5"/>
        </marker>
    </defs>
    <g>
        <path class="stitch_line color_0 dot_0" d="M 5.000, 5.000  L 7.937, 5.000  L 10.875, 5.000  L 13.812, 5.000  L 16.750, 5.000  L 19.687, 5.000  L 22.625, 5.000  L 25.562, 5.000  L 28.500, 5.000  L 26.250, 2.750  L 28.500, 5.000  L 26.250, 7.250  L 28.500, 5.000  L 30.000, 5.000  L 27.750, 2.750  L 30.000, 5.000  L 27.750, 7.250  L 30.000, 5.000  L 31.500, 5.000  L 29.250, 2.750  L 31.500, 5.000  L 29.250, 7.250  L 31.500, 5.000  L 34.437, 5.000  L 37.375, 5.000  L 40.312, 5.000  L 43.250, 5.000  L 46.188, 5.000  L 49.125, 5.000  L 52.063, 5.000  L 55.000, 5.000 "/>
    </g>
</svg>
