<?xml version="1.0" encoding="utf-8" ?>
<svg xmlns="http://www.w3.org/2000/svg" xmlns:ev="http://www.w3.org/2001/xml-events" xmlns:xlink="http://www.w3.org/1999/xlink" baseProfile="full" height="10mm" version="1.1" viewBox="0,0,60,10" width="60mm">
    <defs>
        <style type="text/css"><![CDATA[
.stitch_line {
    stroke-width: 0.3;
    stroke-linejoin: round;
    stroke-linecap: round;
    fill: none;
}
.path_center_line {
    fill: none;
    stroke:#808080;
    stroke-width: 0.2;
    stroke-linejoin: round;
    stroke-linecap: round;
}
.path_contour {
    fill: #808080;
    fill-opacity: 0.3;
    stroke: #808080;
    stroke-opacity: 1;
    stroke-width: 0.3;
}
.text{
    text-anchor: middle;
    dominant-baseline: middle;
    font-family: sans-serif;
    font-size: 1.5mm;
}
.smalltext{
    text-anchor: middle;
    dominant-baseline: middle;
    font-family: sans-serif;
    font-size: 1mm;
}
.color_0 {
    stroke:#3bb2d0;
}
.dot_0 {
    marker-start:url(#dot_0);
    marker-mid:url(#dot_0);
    marker-end:url(#dot_0);
}
]]></style>
        <marker id="dot_0" markerHeight="3.0" markerWidth="3.0" refX="1.5" refY="1.5">
            <circle cx="1.5" cy="1.5" fill="#3bb2d0" r="1.5"/>
        </marker>
    </defs>
    <g>
        <path class="stitch_line color_0 dot_0" d="M 5.000, 5.000  L 8.033, 5.000  L 11.067, 5.000  L 14.100, 5.000  L 17.133, 5.000  L 20.167, 5.000  L 17.917, 2.750  L 20.167, 5.000  L 17.917, 7.250  L 20.167, 5.000  L 21.667, 5.000  L 19.417, 2.750  L 21.667, 5.000  L 19.417, 7.250  L 21.667, 5.000  L 23.167, 5.000  L 20.917, 2.750  L 23.167, 5.000  L 20.917, 7.250  L 23.167, 5.000  L 25.900, 5.000  L 28.633, 5.000  L 31.367, 5.000  L 34.100, 5.000  L 36.833, 5.000  L 34.583, 2.750  L 36.833, 5.000  L 34.583, 7.250  L 36.833, 5.000  L 38.333, 5.000  L 36.083, 2.750  L 38.333, 5.000  L 36.083, 7.250  L 38.333, 5.000  L 39.833, 5.000  L 37.583, 2.750  L 39.833, 5.000  L 37.583, 7.250  L 39.833, 5.000  L 42.867, 5.000  L 45.900, 5.000  L 48.933, 5.000  L 51.967, 5.000  L 55.000, 5.000 "/>
    </g>
</svg>
