<?xml version="1.0" encoding="utf-8" ?>
<svg xmlns="http://www.w3.org/2000/svg" xmlns:ev="http://www.w3.org/2001/xml-events" xmlns:xlink="http://www.w3.org/1999/xlink" baseProfile="full" height="50mm" version="1.1" viewBox="0,0,200,50" width="200mm">
    <defs>
        <style type="text/css"><![CDATA[
.stitch_line {
    stroke-width: 0.3;
    stroke-linejoin: round;
    stroke-linecap: round;
    fill: none;
}
.path_center_line {
    fill: none;
    stroke:#808080;
    stroke-width: 0.2;
    stroke-linejoin: round;
    stroke-linecap: round;
}
.path_contour {
    fill: #808080;
    fill-opacity: 0.3;
    stroke: #808080;
    stroke-opacity: 1;
    stroke-width: 0.3;
}
.text{
    text-anchor: middle;
    dominant-baseline: middle;
    font-family: sans-serif;
    font-size: 1.5mm;
}
.smalltext{
    text-anchor: middle;
    dominant-baseline: middle;
    font-family: sans-serif;
    font-size: 1mm;
}
.color_0 {
    stroke:#3bb2d0;
}
.dot_0 {
    marker-start:url(#dot_0);
    marker-mid:url(#dot_0);
    marker-end:url(#dot_0);
}
]]></style>
        <marker id="dot_0" markerHeight="3.0" markerWidth="3.0" refX="1.5" refY="1.5">
            <circle cx="1.5" cy="1.5" fill="#3bb2d0" r="1.5"/>
        </marker>
    </defs>
    <g>
        <path class="stitch_line color_0 dot_0" d="M 11.118, 22.764  L 13.897, 23.734  L 16.693, 24.605  L 19.504, 25.376  L 22.326, 26.047  L 25.159, 26.617  L 28.000, 27.088  L 30.846, 27.461  L 33.696, 27.738  L 36.548, 27.923  L 39.402, 28.018  L 42.256, 28.027  L 45.110, 27.955  L 47.962, 27.806  L 50.814, 27.585  L 53.665, 27.296  L 56.515, 26.945  L 59.365, 26.535  L 62.214, 26.073  L 65.065, 25.562  L 67.916, 25.009  L 70.770, 24.416  L 73.627, 23.790  L 76.487, 23.134  L 79.353, 22.453  L 82.225, 21.752  L 85.104, 21.035  L 87.992, 20.306  L 90.889, 19.569  L 93.797, 18.830  L 96.716, 18.091  L 99.649, 17.358  L 102.596, 16.635  L 105.557, 15.927  L 108.535, 15.237  L 111.530, 14.571  L 114.542, 13.933  L 117.573, 13.329  L 120.623, 12.764  L 123.692, 12.242  L 126.780, 11.770  L 129.887, 11.352  L 133.012, 10.996  L 136.154, 10.707  L 139.311, 10.491  L 142.482, 10.355  L 145.664, 10.305  L 148.854, 10.346  L 152.047, 10.486  L 155.238, 10.729  L 158.424, 11.082  L 161.596, 11.547  L 164.749, 12.131  L 167.877, 12.834  L 170.970, 13.659  L 174.023, 14.607  L 177.028, 15.677  L 179.979, 16.868  L 182.868, 18.176  L 185.690, 19.598  L 188.442, 21.129  L 191.118, 22.764  L 190.799, 23.403  L 188.108, 21.863  L 185.350, 20.426  L 182.529, 19.097  L 179.649, 17.880  L 176.716, 16.778  L 173.734, 15.794  L 170.711, 14.928  L 167.652, 14.181  L 164.564, 13.552  L 161.453, 13.038  L 158.326, 12.637  L 155.189, 12.346  L 152.045, 12.158  L 148.901, 12.070  L 145.760, 12.076  L 142.626, 12.169  L 139.500, 12.345  L 136.387, 12.596  L 133.286, 12.916  L 130.201, 13.301  L 127.130, 13.743  L 124.075, 14.237  L 121.036, 14.778  L 118.012, 15.360  L 115.004, 15.978  L 112.011, 16.627  L 109.031, 17.302  L 106.065, 17.999  L 103.111, 18.712  L 100.168, 19.437  L 97.236, 20.170  L 94.312, 20.906  L 91.397, 21.641  L 88.488, 22.371  L 85.585, 23.091  L 82.687, 23.797  L 79.792, 24.484  L 76.900, 25.149  L 74.010, 25.785  L 71.120, 26.390  L 68.230, 26.957  L 65.339, 27.483  L 62.447, 27.961  L 59.554, 28.389  L 56.658, 28.759  L 53.761, 29.067  L 50.862, 29.309  L 47.961, 29.479  L 45.060, 29.572  L 42.159, 29.583  L 39.259, 29.508  L 36.363, 29.344  L 33.471, 29.085  L 30.586, 28.730  L 27.711, 28.274  L 24.847, 27.718  L 21.997, 27.059  L 19.165, 26.297  L 16.353, 25.433  L 13.563, 24.468  L 10.799, 23.403  L 10.160, 24.681  L 12.895, 25.935  L 15.672, 27.089  L 18.487, 28.140  L 21.339, 29.083  L 24.222, 29.920  L 27.133, 30.647  L 30.067, 31.267  L 33.022, 31.779  L 35.992, 32.186  L 38.974, 32.490  L 41.965, 32.695  L 44.960, 32.805  L 47.958, 32.824  L 50.956, 32.757  L 53.952, 32.610  L 56.945, 32.388  L 59.932, 32.095  L 62.914, 31.739  L 65.889, 31.323  L 68.858, 30.854  L 71.820, 30.337  L 74.776, 29.776  L 77.726, 29.178  L 80.670, 28.547  L 83.611, 27.887  L 86.547, 27.204  L 89.480, 26.502  L 92.412, 25.785  L 95.343, 25.059  L 98.274, 24.327  L 101.207, 23.594  L 104.142, 22.865  L 107.080, 22.143  L 110.023, 21.433  L 112.972, 20.740  L 115.928, 20.068  L 118.890, 19.422  L 121.861, 18.807  L 124.841, 18.228  L 127.830, 17.690  L 130.828, 17.198  L 133.836, 16.757  L 136.853, 16.373  L 139.879, 16.051  L 142.912, 15.798  L 145.952, 15.619  L 148.996, 15.519  L 152.043, 15.504  L 155.089, 15.579  L 158.132, 15.749  L 161.168, 16.019  L 164.193, 16.393  L 167.203, 16.874  L 170.192, 17.465  L 173.156, 18.166  L 176.091, 18.980  L 178.991, 19.904  L 181.851, 20.939  L 184.669, 22.082  L 187.439, 23.331  L 190.160, 24.681  L 189.840, 25.319  L 187.105, 24.065  L 184.328, 22.911  L 181.513, 21.860  L 178.661, 20.917  L 175.778, 20.080  L 172.867, 19.353  L 169.933, 18.733  L 166.978, 18.221  L 164.008, 17.814  L 161.026, 17.510  L 158.035, 17.305  L 155.040, 17.195  L 152.042, 17.176  L 149.044, 17.243  L 146.048, 17.390  L 143.055, 17.612  L 140.068, 17.905  L 137.086, 18.261  L 134.111, 18.677  L 131.142, 19.146  L 128.180, 19.663  L 125.224, 20.224  L 122.274, 20.822  L 119.330, 21.453  L 116.389, 22.113  L 113.453, 22.796  L 110.520, 23.498  L 107.588, 24.215  L 104.657, 24.941  L 101.726, 25.673  L 98.793, 26.406  L 95.858, 27.135  L 92.920, 27.857  L 89.977, 28.567  L 87.028, 29.260  L 84.072, 29.932  L 81.110, 30.578  L 78.139, 31.193  L 75.159, 31.772  L 72.170, 32.310  L 69.172, 32.802  L 66.164, 33.243  L 63.147, 33.627  L 60.121, 33.949  L 57.088, 34.202  L 54.048, 34.381  L 51.004, 34.481  L 47.957, 34.496  L 44.911, 34.421  L 41.868, 34.251  L 38.832, 33.981  L 35.807, 33.607  L 32.797, 33.126  L 29.808, 32.535  L 26.844, 31.834  L 23.909, 31.020  L 21.009, 30.096  L 18.149, 29.061  L 15.331, 27.918  L 12.561, 26.669  L 9.840, 25.319  L 9.201, 26.597  L 11.892, 28.137  L 14.650, 29.574  L 17.471, 30.903  L 20.351, 32.120  L 23.284, 33.222  L 26.266, 34.206  L 29.289, 35.072  L 32.348, 35.819  L 35.436, 36.448  L 38.547, 36.962  L 41.674, 37.363  L 44.811, 37.654  L 47.955, 37.842  L 51.099, 37.930  L 54.240, 37.924  L 57.374, 37.831  L 60.500, 37.655  L 63.613, 37.404  L 66.714, 37.084  L 69.799, 36.699  L 72.870, 36.257  L 75.925, 35.763  L 78.964, 35.222  L 81.988, 34.640  L 84.996, 34.022  L 87.989, 33.373  L 90.969, 32.698  L 93.935, 32.001  L 96.889, 31.288  L 99.832, 30.563  L 102.764, 29.830  L 105.688, 29.094  L 108.603, 28.359  L 111.512, 27.629  L 114.415, 26.909  L 117.313, 26.203  L 120.208, 25.516  L 123.100, 24.851  L 125.990, 24.215  L 128.880, 23.610  L 131.770, 23.043  L 134.661, 22.517  L 137.553, 22.039  L 140.446, 21.611  L 143.342, 21.241  L 146.239, 20.933  L 149.138, 20.691  L 152.039, 20.521  L 154.940, 20.428  L 157.841, 20.417  L 160.741, 20.492  L 163.637, 20.656  L 166.529, 20.915  L 169.414, 21.270  L 172.289, 21.726  L 175.153, 22.282  L 178.003, 22.941  L 180.835, 23.703  L 183.647, 24.567  L 186.437, 25.532  L 189.201, 26.597  L 188.882, 27.236  L 186.103, 26.266  L 183.307, 25.395  L 180.496, 24.624  L 177.674, 23.953  L 174.841, 23.383  L 172.000, 22.912  L 169.154, 22.539  L 166.304, 22.262  L 163.452, 22.077  L 160.598, 21.982  L 157.744, 21.973  L 154.890, 22.045  L 152.038, 22.194  L 149.186, 22.415  L 146.335, 22.704  L 143.485, 23.055  L 140.635, 23.465  L 137.786, 23.927  L 134.935, 24.438  L 132.084, 24.991  L 129.230, 25.584  L 126.373, 26.210  L 123.513, 26.866  L 120.647, 27.547  L 117.775, 28.248  L 114.896, 28.965  L 112.008, 29.694  L 109.111, 30.431  L 106.203, 31.170  L 103.284, 31.909  L 100.351, 32.642  L 97.404, 33.365  L 94.443, 34.073  L 91.465, 34.763  L 88.470, 35.429  L 85.458, 36.067  L 82.427, 36.671  L 79.377, 37.236  L 76.308, 37.758  L 73.220, 38.230  L 70.113, 38.648  L 66.988, 39.004  L 63.846, 39.293  L 60.689, 39.509  L 57.518, 39.645  L 54.336, 39.695  L 51.146, 39.654  L 47.953, 39.514  L 44.762, 39.271  L 41.576, 38.918  L 38.404, 38.453  L 35.251, 37.869  L 32.123, 37.166  L 29.030, 36.341  L 25.977, 35.393  L 22.972, 34.323  L 20.021, 33.132  L 17.132, 31.824  L 14.310, 30.402  L 11.558, 28.871  L 8.882, 27.236 "/>
    </g>
</svg>
