<?xml version="1.0" encoding="utf-8" ?>
<svg xmlns="http://www.w3.org/2000/svg" xmlns:ev="http://www.w3.org/2001/xml-events" xmlns:xlink="http://www.w3.org/1999/xlink" baseProfile="full" height="50mm" version="1.1" viewBox="0,0,200,50" width="200mm">
    <defs>
        <style type="text/css"><![CDATA[
.stitch_line {
    stroke-width: 0.3;
    stroke-linejoin: round;
    stroke-linecap: round;
    fill: none;
}
.path_center_line {
    fill: none;
    stroke:#808080;
    stroke-width: 0.2;
    stroke-linejoin: round;
    stroke-linecap: round;
}
.path_contour {
    fill: #808080;
    fill-opacity: 0.3;
    stroke: #808080;
    stroke-opacity: 1;
    stroke-width: 0.3;
}
.text{
    text-anchor: middle;
    dominant-baseline: middle;
    font-family: sans-serif;
    font-size: 1.5mm;
}
.smalltext{
    text-anchor: middle;
    dominant-baseline: middle;
    font-family: sans-serif;
    font-size: 1mm;
}
.color_0 {
    stroke:#2e9a69;
}
.dot_0 {
    marker-start:url(#dot_0);
    marker-mid:url(#dot_0);
    marker-end:url(#dot_0);
}
]]></style>
        <marker id="dot_0" markerHeight="3.0" markerWidth="3.0" refX="1.5" refY="1.5">
            <circle cx="1.5" cy="1.5" fill="#2e9a69" r="1.5"/>
        </marker>
    </defs>
    <g>
        <path class="stitch_line color_0 dot_0" d="M 10.000, 25.000  L 11.906, 26.100  L 14.554, 27.554  L 17.255, 28.933  L 20.014, 30.216  L 22.833, 31.388  L 25.708, 32.436  L 28.635, 33.349  L 31.606, 34.125  L 34.612, 34.763  L 37.645, 35.267  L 40.696, 35.644  L 43.759, 35.905  L 46.828, 36.062  L 49.898, 36.127  L 52.967, 36.114  L 56.033, 36.029  L 59.094, 35.878  L 62.148, 35.657  L 65.192, 35.358  L 68.224, 34.988  L 71.243, 34.549  L 74.245, 34.040  L 77.229, 33.455  L 80.190, 32.792  L 83.129, 32.050  L 86.044, 31.234  L 88.938, 30.355  L 91.814, 29.428  L 94.677, 28.471  L 97.533, 27.508  L 100.390, 26.562  L 103.254, 25.653  L 106.130, 24.796  L 109.019, 24.000  L 111.920, 23.260  L 114.830, 22.562  L 117.744, 21.890  L 120.663, 21.246  L 123.587, 20.635  L 126.517, 20.058  L 129.451, 19.518  L 132.391, 19.015  L 135.336, 18.551  L 138.287, 18.128  L 141.244, 17.749  L 144.207, 17.420  L 147.177, 17.146  L 150.155, 16.934  L 153.139, 16.792  L 156.131, 16.730  L 159.127, 16.753  L 162.126, 16.871  L 165.124, 17.091  L 168.117, 17.422  L 171.101, 17.869  L 174.068, 18.437  L 177.014, 19.126  L 179.932, 19.941  L 182.815, 20.884  L 185.653, 21.957  L 188.439, 23.162  L 190.437, 24.125  L 189.397, 23.504  L 186.742, 21.993  L 184.028, 20.563  L 181.254, 19.229  L 178.420, 18.000  L 175.528, 16.889  L 172.583, 15.906  L 169.592, 15.057  L 166.562, 14.345  L 163.502, 13.765  L 160.421, 13.306  L 157.326, 12.963  L 154.222, 12.733  L 151.115, 12.610  L 148.010, 12.589  L 144.911, 12.664  L 141.820, 12.826  L 138.740, 13.072  L 135.675, 13.396  L 132.624, 13.793  L 129.590, 14.261  L 126.575, 14.795  L 123.578, 15.391  L 120.601, 16.046  L 117.642, 16.752  L 114.701, 17.503  L 111.776, 18.290  L 108.865, 19.107  L 105.965, 19.942  L 103.071, 20.774  L 100.177, 21.583  L 97.278, 22.355  L 94.373, 23.080  L 91.460, 23.755  L 88.541, 24.382  L 85.618, 24.963  L 82.693, 25.508  L 79.769, 26.023  L 76.849, 26.517  L 73.935, 26.996  L 71.027, 27.464  L 68.126, 27.921  L 65.230, 28.365  L 62.337, 28.787  L 59.445, 29.173  L 56.551, 29.505  L 53.655, 29.760  L 50.758, 29.923  L 47.862, 29.985  L 44.972, 29.947  L 42.090, 29.812  L 39.219, 29.585  L 36.361, 29.275  L 33.515, 28.886  L 30.682, 28.423  L 27.861, 27.888  L 25.050, 27.279  L 22.251, 26.595  L 19.464, 25.832  L 16.690, 24.987  L 13.931, 24.058  L 11.013, 22.975  L 12.109, 23.372  L 14.881, 24.302  L 17.672, 25.129  L 20.477, 25.851  L 23.295, 26.470  L 26.122, 26.986  L 28.954, 27.404  L 31.790, 27.726  L 34.627, 27.958  L 37.465, 28.102  L 40.302, 28.164  L 43.139, 28.148  L 45.975, 28.058  L 48.811, 27.900  L 51.645, 27.677  L 54.480, 27.396  L 57.316, 27.062  L 60.153, 26.679  L 62.993, 26.252  L 65.835, 25.785  L 68.682, 25.282  L 71.532, 24.749  L 74.389, 24.190  L 77.252, 23.610  L 80.123, 23.015  L 83.003, 22.408  L 85.892, 21.794  L 88.791, 21.176  L 91.700, 20.557  L 94.620, 19.940  L 97.552, 19.329  L 100.495, 18.726  L 103.450, 18.135  L 106.417, 17.560  L 109.396, 17.004  L 112.388, 16.473  L 115.392, 15.969  L 118.408, 15.496  L 121.436, 15.059  L 124.475, 14.659  L 127.523, 14.298  L 130.581, 13.982  L 133.648, 13.714  L 136.722, 13.503  L 139.803, 13.356  L 142.889, 13.282  L 145.978, 13.293  L 149.066, 13.395  L 152.149, 13.598  L 155.222, 13.908  L 158.280, 14.326  L 161.315, 14.854  L 164.323, 15.490  L 167.299, 16.229  L 170.238, 17.066  L 173.138, 17.999  L 175.995, 19.025  L 178.806, 20.140  L 181.573, 21.334  L 184.299, 22.595  L 186.988, 23.913  L 189.816, 25.369  L 187.798, 24.532  L 185.012, 23.471  L 182.202, 22.496  L 179.374, 21.595  L 176.530, 20.760  L 173.671, 19.988  L 170.795, 19.278  L 167.900, 18.638  L 164.984, 18.074  L 162.048, 17.594  L 159.094, 17.199  L 156.124, 16.882  L 153.141, 16.654  L 150.148, 16.525  L 147.148, 16.500  L 144.148, 16.578  L 141.151, 16.755  L 138.160, 17.021  L 135.176, 17.365  L 132.201, 17.775  L 129.233, 18.240  L 126.273, 18.748  L 123.319, 19.290  L 120.370, 19.859  L 117.425, 20.449  L 114.484, 21.058  L 111.546, 21.684  L 108.613, 22.330  L 105.686, 22.997  L 102.767, 23.696  L 99.860, 24.439  L 96.967, 25.234  L 94.086, 26.080  L 91.215, 26.963  L 88.346, 27.861  L 85.471, 28.743  L 82.580, 29.575  L 79.669, 30.324  L 76.731, 30.961  L 73.767, 31.466  L 70.778, 31.829  L 67.772, 32.049  L 64.757, 32.140  L 61.742, 32.121  L 58.735, 32.016  L 55.742, 31.849  L 52.769, 31.630  L 49.816, 31.370  L 46.885, 31.078  L 43.974, 30.762  L 41.082, 30.422  L 38.204, 30.056  L 35.339, 29.656  L 32.485, 29.212  L 29.641, 28.712  L 26.807, 28.145  L 23.986, 27.500  L 21.179, 26.768  L 18.391, 25.944  L 15.625, 25.026  L 12.881, 24.014  L 10.892, 23.217 "/>
    </g>
</svg>
