<?xml version="1.0" encoding="utf-8" ?>
<svg xmlns="http://www.w3.org/2000/svg" xmlns:ev="http://www.w3.org/2001/xml-events" xmlns:xlink="http://www.w3.org/1999/xlink" baseProfile="full" height="50mm" version="1.1" viewBox="0,0,200,50" width="200mm">
    <defs>
        <style type="text/css"><![CDATA[
.stitch_line {
    stroke-width: 0.3;
    stroke-linejoin: round;
    stroke-linecap: round;
    fill: none;
}
.path_center_line {
    fill: none;
    stroke:#808080;
    stroke-width: 0.2;
    stroke-linejoin: round;
    stroke-linecap: round;
}
.path_contour {
    fill: #808080;
    fill-opacity: 0.3;
    stroke: #808080;
    stroke-opacity: 1;
    stroke-width: 0.3;
}
.text{
    text-anchor: middle;
    dominant-baseline: middle;
    font-family: sans-serif;
    font-size: 1.5mm;
}
.smalltext{
    text-anchor: middle;
    dominant-baseline: middle;
    font-family: sans-serif;
    font-size: 1mm;
}
.color_0 {
    stroke:#3bb2d0;
}
.dot_0 {
    marker-start:url(#dot_0);
    marker-mid:url(#dot_0);
    marker-end:url(#dot_0);
}
]]></style>
        <marker id="dot_0" markerHeight="3.0" markerWidth="3.0" refX="1.5" refY="1.5">
            <circle cx="1.5" cy="1.5" fill="#3bb2d0" r="1.5"/>
        </marker>
    </defs>
    <g>
        <path class="stitch_line color_0 dot_0" d="M 10.000, 25.000  L 12.740, 26.276  L 15.523, 27.451  L 18.347, 28.521  L 21.208, 29.485  L 24.102, 30.340  L 27.025, 31.091  L 29.972, 31.733  L 32.940, 32.267  L 35.926, 32.695  L 38.924, 33.019  L 41.931, 33.243  L 44.943, 33.370  L 47.958, 33.405  L 50.973, 33.354  L 53.985, 33.221  L 56.994, 33.012  L 59.997, 32.732  L 62.994, 32.387  L 65.983, 31.983  L 68.966, 31.524  L 71.940, 31.016  L 74.908, 30.465  L 77.869, 29.875  L 80.823, 29.251  L 83.771, 28.600  L 86.715, 27.924  L 89.655, 27.228  L 92.592, 26.519  L 95.527, 25.799  L 98.460, 25.073  L 101.394, 24.345  L 104.329, 23.621  L 107.267, 22.904  L 110.208, 22.200  L 113.153, 21.511  L 116.103, 20.844  L 119.059, 20.202  L 122.022, 19.591  L 124.992, 19.015  L 127.970, 18.479  L 130.956, 17.989  L 133.950, 17.550  L 136.951, 17.167  L 139.960, 16.846  L 142.975, 16.593  L 145.995, 16.412  L 149.018, 16.309  L 152.042, 16.291  L 155.065, 16.361  L 158.084, 16.526  L 161.095, 16.789  L 164.094, 17.154  L 167.078, 17.624  L 170.041, 18.202  L 172.980, 18.890  L 175.890, 19.688  L 172.979, 18.896  L 170.039, 18.214  L 167.075, 17.641  L 164.091, 17.177  L 161.091, 16.825  L 158.081, 16.575  L 155.063, 16.423  L 152.042, 16.366  L 149.020, 16.397  L 146.000, 16.512  L 142.984, 16.706  L 139.973, 16.972  L 136.968, 17.306  L 133.971, 17.701  L 130.982, 18.152  L 128.001, 18.654  L 125.028, 19.202  L 122.063, 19.790  L 119.105, 20.414  L 116.153, 21.067  L 113.208, 21.747  L 110.267, 22.448  L 107.331, 23.165  L 104.397, 23.894  L 101.465, 24.630  L 98.535, 25.370  L 95.603, 26.108  L 92.671, 26.841  L 89.736, 27.564  L 86.797, 28.272  L 83.853, 28.961  L 80.904, 29.626  L 77.948, 30.263  L 74.985, 30.867  L 72.014, 31.432  L 69.035, 31.953  L 66.047, 32.426  L 63.050, 32.844  L 60.045, 33.203  L 57.032, 33.497  L 54.012, 33.720  L 50.987, 33.866  L 47.958, 33.930  L 44.927, 33.907  L 41.896, 33.792  L 38.870, 33.580  L 35.851, 33.267  L 38.869, 33.587  L 41.895, 33.806  L 44.926, 33.928  L 47.958, 33.958  L 50.988, 33.901  L 54.015, 33.762  L 57.036, 33.546  L 60.052, 33.269  L 63.060, 32.927  L 66.061, 32.526  L 69.054, 32.070  L 72.038, 31.565  L 75.014, 31.017  L 77.982, 30.430  L 80.944, 29.810  L 83.898, 29.161  L 86.847, 28.488  L 89.791, 27.797  L 92.732, 27.091  L 95.669, 26.374  L 98.605, 25.653  L 101.540, 24.930  L 104.476, 24.210  L 107.412, 23.498  L 110.351, 22.798  L 113.294, 22.115  L 116.240, 21.453  L 119.192, 20.817  L 122.149, 20.211  L 125.112, 19.641  L 128.082, 19.112  L 131.059, 18.628  L 134.042, 18.195  L 137.032, 17.818  L 140.027, 17.503  L 143.027, 17.255  L 140.028, 17.513  L 137.034, 17.839  L 134.046, 18.226  L 131.065, 18.669  L 128.091, 19.163  L 125.124, 19.702  L 122.164, 20.282  L 119.209, 20.898  L 116.261, 21.544  L 113.317, 22.216  L 110.378, 22.909  L 107.442, 23.619  L 104.508, 24.341  L 101.575, 25.070  L 98.643, 25.803  L 95.709, 26.535  L 92.774, 27.261  L 89.835, 27.978  L 86.892, 28.680  L 83.944, 29.363  L 80.989, 30.022  L 78.028, 30.653  L 75.059, 31.250  L 72.081, 31.809  L 69.095, 32.325  L 66.099, 32.792  L 63.095, 33.205  L 60.081, 33.557  L 57.060, 33.845  L 60.080, 33.547  L 63.092, 33.184  L 66.095, 32.761  L 69.088, 32.284  L 72.072, 31.758  L 75.047, 31.189  L 78.013, 30.582  L 80.972, 29.941  L 83.923, 29.272  L 86.868, 28.579  L 89.808, 27.867  L 92.744, 27.141  L 95.677, 26.404  L 98.608, 25.663  L 101.538, 24.920  L 104.468, 24.180  L 107.400, 23.448  L 110.335, 22.728  L 113.273, 22.024  L 116.215, 21.342  L 119.163, 20.685  L 122.118, 20.059  L 125.079, 19.469  L 128.048, 18.918  L 131.024, 18.413  L 134.008, 17.959  L 137.000, 17.562  L 139.999, 17.225  L 143.003, 16.956  L 146.014, 16.770  L 149.028, 16.662  L 152.042, 16.638  L 155.055, 16.702  L 158.063, 16.860  L 161.063, 17.117  L 164.052, 17.474  L 161.064, 17.110  L 158.064, 16.847  L 155.055, 16.681  L 152.042, 16.610  L 149.027, 16.627  L 146.012, 16.728  L 143.000, 16.907  L 139.992, 17.159  L 136.990, 17.479  L 133.994, 17.860  L 131.005, 18.297  L 128.024, 18.785  L 125.050, 19.319  L 122.084, 19.893  L 119.124, 20.502  L 116.170, 21.142  L 113.222, 21.808  L 110.279, 22.495  L 107.339, 23.199  L 104.402, 23.914  L 101.467, 24.637  L 98.533, 25.363  L 95.598, 26.088  L 92.662, 26.807  L 89.724, 27.516  L 86.782, 28.211  L 83.836, 28.886  L 80.885, 29.538  L 77.927, 30.161  L 74.963, 30.750  L 71.991, 31.301  L 69.012, 31.808  L 66.024, 32.267  L 63.029, 32.671  L 60.026, 33.016  L 57.016, 33.295  L 54.001, 33.504  L 50.981, 33.636  L 47.958, 33.686  L 44.934, 33.649  L 41.913, 33.521  L 38.897, 33.295  L 35.890, 32.969  L 32.894, 32.546  L 29.914, 32.016  L 26.955, 31.377  L 24.021, 30.628  L 26.956, 31.371  L 29.917, 32.004  L 32.897, 32.528  L 35.893, 32.946  L 38.901, 33.259  L 41.916, 33.471  L 44.936, 33.587  L 47.958, 33.611  L 50.978, 33.548  L 53.995, 33.403  L 57.007, 33.182  L 60.013, 32.890  L 63.012, 32.533  L 66.003, 32.116  L 68.985, 31.646  L 71.960, 31.126  L 74.927, 30.563  L 77.886, 29.961  L 80.839, 29.326  L 83.786, 28.663  L 86.727, 27.975  L 89.665, 27.269  L 92.599, 26.547  L 95.531, 25.816  L 98.462, 25.078  L 101.393, 24.340  L 104.325, 23.604  L 107.260, 22.876  L 110.198, 22.160  L 113.141, 21.460  L 116.089, 20.781  L 119.043, 20.127  L 122.004, 19.504  L 124.973, 18.917  L 127.950, 18.369  L 130.936, 17.867  L 133.931, 17.416  L 136.933, 17.021  L 139.944, 16.688  L 142.961, 16.422  L 145.985, 16.230  L 149.012, 16.115  L 152.042, 16.085  L 155.072, 16.144  L 158.098, 16.297  L 161.118, 16.549  L 164.127, 16.903  L 167.121, 17.363  L 170.097, 17.932  L 173.048, 18.610  L 175.972, 19.400  L 178.860, 20.306  L 181.711, 21.321  L 184.520, 22.444  L 187.284, 23.671  L 190.000, 25.000 "/>
    </g>
</svg>
