<?xml version="1.0" encoding="utf-8" ?>
<svg xmlns="http://www.w3.org/2000/svg" xmlns:ev="http://www.w3.org/2001/xml-events" xmlns:xlink="http://www.w3.org/1999/xlink" baseProfile="full" height="50mm" version="1.1" viewBox="0,0,200,50" width="200mm">
    <defs>
        <style type="text/css"><![CDATA[
.stitch_line {
    stroke-width: 0.3;
    stroke-linejoin: round;
    stroke-linecap: round;
    fill: none;
}
.path_center_line {
    stroke-width: 0.2;
    stroke-linejoin: round;
    stroke-linecap: round;
    fill: none;
    stroke:#333;
}
.path_contour {
    stroke: #ddd;
    fill-opacity: 1;
    fill: #eee;
    stroke-width: 0.3;
}
.text{
    text-anchor: middle;
    dominant-baseline: middle;
    font-family: sans-serif;
    font-size: 1.5mm;
}
.smalltext{
    text-anchor: middle;
    dominant-baseline: middle;
    font-family: sans-serif;
    font-size: 1mm;
}
.color_0 {
    stroke:#148983;
}
.dot_0 {
    marker-start:url(#dot_0);
    marker-mid:url(#dot_0);
    marker-end:url(#dot_0);
}
]]></style>
        <marker id="dot_0" markerHeight="3.0" markerWidth="3.0" refX="1.5" refY="1.5">
            <circle cx="1.5" cy="1.5" fill="#148983" r="1.5"/>
        </marker>
    </defs>
    <g>
        <path class="stitch_line color_0 dot_0" d="M 8.882, 27.236  L 10.646, 26.783  L 12.432, 26.167  L 14.233, 25.389  L 16.039, 24.450  L 10.839, 23.323  L 15.452, 25.844  L 10.280, 24.441  L 14.865, 27.239  L 9.720, 25.559  L 14.278, 28.633  L 9.161, 26.677  L 13.690, 30.028  L 15.493, 29.202  L 17.297, 28.217  L 19.096, 27.074  L 20.883, 25.776  L 15.746, 25.147  L 20.307, 27.440  L 15.158, 26.542  L 19.730, 29.104  L 14.571, 27.936  L 19.153, 30.769  L 13.984, 29.330  L 18.576, 32.433  L 20.377, 31.245  L 22.162, 29.904  L 23.924, 28.412  L 25.658, 26.772  L 20.595, 26.608  L 25.126, 28.695  L 20.018, 28.272  L 24.595, 30.618  L 19.441, 29.936  L 24.063, 32.541  L 18.865, 31.601  L 23.531, 34.464  L 25.295, 32.930  L 27.027, 31.250  L 28.721, 29.428  L 30.373, 27.468  L 25.392, 27.734  L 29.916, 29.635  L 24.860, 29.657  L 29.459, 31.802  L 24.329, 31.580  L 29.003, 33.968  L 23.797, 33.503  L 28.546, 36.135  L 30.242, 34.273  L 31.892, 32.276  L 33.492, 30.147  L 35.039, 27.891  L 30.144, 28.552  L 34.682, 30.284  L 29.688, 30.718  L 34.324, 32.676  L 29.231, 32.885  L 33.967, 35.068  L 28.775, 35.052  L 33.610, 37.460  L 35.211, 35.294  L 36.757, 33.004  L 38.244, 30.593  L 39.669, 28.067  L 34.860, 29.087  L 39.429, 30.665  L 34.503, 31.480  L 39.189, 33.262  L 34.146, 33.872  L 38.949, 35.860  L 33.788, 36.264  L 38.709, 38.457  L 40.197, 36.012  L 41.622, 33.454  L 42.982, 30.788  L 44.276, 28.018  L 39.549, 29.366  L 44.165, 30.800  L 39.309, 31.963  L 44.054, 33.582  L 39.069, 34.561  L 43.943, 36.364  L 38.829, 37.158  L 43.833, 39.145  L 45.193, 36.447  L 46.486, 33.649  L 47.712, 30.754  L 48.869, 27.767  L 44.220, 29.409  L 48.894, 30.712  L 44.109, 32.191  L 48.919, 33.657  L 43.999, 34.973  L 48.944, 36.601  L 43.888, 37.755  L 48.968, 39.546  L 50.194, 36.621  L 51.351, 33.609  L 52.440, 30.511  L 53.461, 27.334  L 48.882, 29.240  L 53.623, 30.421  L 48.907, 32.184  L 53.784, 33.507  L 48.931, 35.129  L 53.945, 36.594  L 48.956, 38.073  L 54.106, 39.680  L 55.195, 36.556  L 56.216, 33.355  L 57.171, 30.081  L 58.060, 26.738  L 53.542, 28.877  L 58.354, 29.947  L 53.703, 31.964  L 58.649, 33.155  L 53.864, 35.051  L 58.943, 36.364  L 54.026, 38.137  L 59.237, 39.573  L 60.191, 36.275  L 61.081, 32.910  L 61.908, 29.483  L 62.674, 25.997  L 58.207, 28.342  L 63.094, 29.310  L 58.502, 31.551  L 63.514, 32.622  L 58.796, 34.760  L 63.933, 35.935  L 59.090, 37.969  L 64.353, 39.248  L 65.179, 35.799  L 65.946, 32.295  L 66.655, 28.737  L 67.308, 25.130  L 62.884, 27.654  L 67.843, 28.530  L 63.304, 30.966  L 68.378, 31.930  L 63.723, 34.279  L 68.914, 35.329  L 64.143, 37.591  L 69.449, 38.729  L 70.157, 35.153  L 70.811, 31.530  L 71.414, 27.863  L 71.968, 24.156  L 67.576, 26.830  L 72.606, 27.627  L 68.111, 30.230  L 73.243, 31.098  L 68.646, 33.629  L 73.881, 34.569  L 69.181, 37.029  L 74.519, 38.040  L 75.121, 34.357  L 75.676, 30.637  L 76.187, 26.881  L 76.657, 23.093  L 72.287, 25.892  L 77.383, 26.621  L 72.924, 29.362  L 78.108, 30.149  L 73.562, 32.833  L 78.834, 33.677  L 74.200, 36.304  L 79.559, 37.206  L 80.069, 33.437  L 80.541, 29.637  L 80.976, 25.811  L 81.378, 21.959  L 77.020, 24.857  L 82.176, 25.532  L 77.745, 28.385  L 82.973, 29.104  L 78.471, 31.913  L 83.770, 32.677  L 79.196, 35.442  L 84.567, 36.250  L 85.002, 32.413  L 85.405, 28.553  L 85.782, 24.673  L 86.134, 20.775  L 81.777, 23.745  L 86.986, 24.380  L 82.574, 27.318  L 87.838, 27.985  L 83.372, 30.891  L 88.690, 31.590  L 84.169, 34.463  L 89.542, 35.195  L 89.917, 31.307  L 90.270, 27.404  L 90.605, 23.487  L 90.925, 19.560  L 86.560, 22.577  L 91.814, 23.186  L 87.412, 26.182  L 92.703, 26.812  L 88.264, 29.788  L 93.591, 30.439  L 89.116, 33.393  L 94.480, 34.065  L 94.814, 30.143  L 95.135, 26.213  L 95.447, 22.276  L 95.753, 18.334  L 91.370, 21.373  L 96.660, 21.971  L 92.258, 24.999  L 97.568, 25.608  L 93.147, 28.625  L 98.475, 29.244  L 94.036, 32.252  L 99.382, 32.881  L 99.693, 28.942  L 100.000, 25.000  L 100.307, 21.058  L 100.618, 17.119  L 96.207, 20.153  L 101.525, 20.756  L 97.114, 23.789  L 102.432, 24.392  L 98.021, 27.426  L 103.340, 28.029  L 98.928, 31.063  L 104.247, 31.666  L 104.553, 27.724  L 104.865, 23.787  L 105.186, 19.857  L 105.520, 15.935  L 101.072, 18.937  L 106.409, 19.561  L 101.979, 22.574  L 107.297, 23.188  L 102.886, 26.211  L 108.186, 26.814  L 103.793, 29.847  L 109.075, 30.440  L 109.395, 26.513  L 109.730, 22.596  L 110.083, 18.693  L 110.458, 14.805  L 105.964, 17.748  L 111.310, 18.410  L 106.853, 21.375  L 112.162, 22.015  L 107.742, 25.001  L 113.014, 25.620  L 108.630, 28.627  L 113.866, 29.225  L 114.218, 25.327  L 114.595, 21.447  L 114.998, 17.587  L 115.433, 13.750  L 110.884, 16.607  L 116.230, 17.323  L 111.736, 20.212  L 117.027, 20.896  L 112.588, 23.818  L 117.824, 24.468  L 113.440, 27.423  L 118.622, 28.041  L 119.024, 24.189  L 119.459, 20.363  L 119.931, 16.563  L 120.441, 12.794  L 115.831, 15.537  L 121.166, 16.323  L 116.628, 19.109  L 121.892, 19.851  L 117.426, 22.682  L 122.617, 23.379  L 118.223, 26.255  L 123.343, 26.907  L 123.813, 23.119  L 124.324, 19.363  L 124.879, 15.643  L 125.481, 11.960  L 120.804, 14.558  L 126.119, 15.431  L 121.529, 18.087  L 126.757, 18.902  L 122.255, 21.615  L 127.394, 22.373  L 122.980, 25.143  L 128.032, 25.844  L 128.586, 22.137  L 129.189, 18.470  L 129.843, 14.847  L 130.551, 11.271  L 125.800, 13.696  L 131.086, 14.671  L 126.438, 17.167  L 131.622, 18.070  L 127.076, 20.638  L 132.157, 21.470  L 127.713, 24.108  L 132.692, 24.870  L 133.345, 21.263  L 134.054, 17.705  L 134.821, 14.201  L 135.647, 10.752  L 130.819, 12.971  L 136.067, 14.065  L 131.354, 16.371  L 136.486, 17.378  L 131.889, 19.770  L 136.906, 20.690  L 132.424, 23.170  L 137.326, 24.003  L 138.092, 20.517  L 138.919, 17.090  L 139.809, 13.725  L 140.763, 10.427  L 135.857, 12.409  L 141.057, 13.636  L 136.277, 15.721  L 141.351, 16.845  L 136.696, 19.034  L 141.646, 20.053  L 137.116, 22.346  L 141.940, 23.262  L 142.829, 19.919  L 143.784, 16.645  L 144.805, 13.444  L 145.894, 10.320  L 140.910, 12.031  L 146.055, 13.406  L 141.204, 15.240  L 146.216, 16.493  L 141.498, 18.449  L 146.377, 19.579  L 141.793, 21.658  L 146.539, 22.666  L 147.560, 19.489  L 148.649, 16.391  L 149.806, 13.379  L 151.032, 10.454  L 145.974, 11.863  L 151.056, 13.399  L 146.136, 14.949  L 151.081, 16.343  L 146.297, 18.036  L 151.106, 19.288  L 146.458, 21.123  L 151.131, 22.233  L 152.288, 19.246  L 153.514, 16.351  L 154.807, 13.553  L 156.167, 10.855  L 151.044, 11.927  L 156.057, 13.636  L 151.069, 14.871  L 155.946, 16.418  L 151.093, 17.816  L 155.835, 19.200  L 151.118, 20.760  L 155.724, 21.982  L 157.018, 19.212  L 158.378, 16.546  L 159.803, 13.988  L 161.291, 11.543  L 156.112, 12.245  L 161.051, 14.140  L 156.001, 15.027  L 160.811, 16.738  L 155.891, 17.809  L 160.571, 19.335  L 155.780, 20.591  L 160.331, 21.933  L 161.756, 19.407  L 163.243, 16.996  L 164.789, 14.706  L 166.390, 12.540  L 161.171, 12.842  L 166.033, 14.932  L 160.931, 15.439  L 165.676, 17.324  L 160.691, 18.037  L 165.318, 19.716  L 160.451, 20.634  L 164.961, 22.109  L 166.508, 19.853  L 168.108, 17.724  L 169.758, 15.727  L 171.454, 13.865  L 166.212, 13.736  L 170.997, 16.032  L 165.854, 16.128  L 170.541, 18.198  L 165.497, 18.520  L 170.084, 20.365  L 165.140, 20.913  L 169.627, 22.532  L 171.279, 20.572  L 172.973, 18.750  L 174.705, 17.070  L 176.469, 15.536  L 171.225, 14.948  L 175.937, 17.459  L 170.769, 17.115  L 175.405, 19.382  L 170.312, 19.282  L 174.874, 21.305  L 169.856, 21.448  L 174.342, 23.228  L 176.076, 21.588  L 177.838, 20.096  L 179.623, 18.755  L 181.424, 17.567  L 176.203, 16.497  L 180.847, 19.231  L 175.671, 18.420  L 180.270, 20.896  L 175.140, 20.343  L 179.693, 22.560  L 174.608, 22.266  L 179.117, 24.224  L 180.904, 22.926  L 182.703, 21.783  L 184.507, 20.798  L 186.310, 19.972  L 181.135, 18.399  L 185.722, 21.367  L 180.559, 20.064  L 185.135, 22.761  L 179.982, 21.728  L 184.548, 24.156  L 179.405, 23.392  L 183.961, 25.550  L 185.767, 24.611  L 187.568, 23.833  L 189.354, 23.217  L 191.118, 22.764  L 186.016, 20.670  L 190.559, 23.882  L 185.429, 22.064  L 190.000, 25.000  L 184.842, 23.458  L 189.441, 26.118  L 184.254, 24.853  L 188.882, 27.236 "/>
    </g>
</svg>
