<?xml version="1.0" encoding="utf-8" ?>
<svg xmlns="http://www.w3.org/2000/svg" xmlns:ev="http://www.w3.org/2001/xml-events" xmlns:xlink="http://www.w3.org/1999/xlink" baseProfile="full" height="50mm" version="1.1" viewBox="0,0,200,50" width="200mm">
    <defs>
        <style type="text/css"><![CDATA[
.stitch_line {
    stroke-width: 0.3;
    stroke-linejoin: round;
    stroke-linecap: round;
    fill: none;
}
.path_center_line {
    stroke-width: 0.2;
    stroke-linejoin: round;
    stroke-linecap: round;
    fill: none;
    stroke:#333;
}
.path_contour {
    stroke: #ddd;
    fill-opacity: 1;
    fill: #eee;
    stroke-width: 0.3;
}
.text{
    text-anchor: middle;
    dominant-baseline: middle;
    font-family: sans-serif;
    font-size: 1.5mm;
}
.smalltext{
    text-anchor: middle;
    dominant-baseline: middle;
    font-family: sans-serif;
    font-size: 1mm;
}
.color_0 {
    stroke:#148983;
}
.dot_0 {
    marker-start:url(#dot_0);
    marker-mid:url(#dot_0);
    marker-end:url(#dot_0);
}
]]></style>
        <marker id="dot_0" markerHeight="3.0" markerWidth="3.0" refX="1.5" refY="1.5">
            <circle cx="1.5" cy="1.5" fill="#148983" r="1.5"/>
        </marker>
    </defs>
    <g>
        <path class="stitch_line color_0 dot_0" d="M 9.553, 25.894  L 13.578, 22.317  L 12.683, 19.633  L 10.000, 20.528  L 9.553, 25.894  L 15.253, 26.317  L 15.156, 31.701  L 12.536, 32.768  L 11.469, 30.149  L 15.253, 26.317  L 19.402, 30.049  L 22.929, 25.980  L 21.695, 23.435  L 19.150, 24.670  L 19.402, 30.049  L 24.861, 29.654  L 25.456, 35.007  L 22.996, 36.401  L 21.601, 33.941  L 24.861, 29.654  L 29.253, 32.780  L 32.241, 28.300  L 30.697, 25.931  L 28.327, 27.475  L 29.253, 32.780  L 34.472, 31.687  L 35.711, 36.927  L 33.438, 38.610  L 31.755, 36.336  L 34.472, 31.687  L 39.097, 34.258  L 41.549, 29.463  L 39.741, 27.288  L 37.566, 29.095  L 39.097, 34.258  L 44.094, 32.583  L 45.893, 37.658  L 43.815, 39.577  L 41.897, 37.499  L 44.094, 32.583  L 48.927, 34.657  L 50.885, 29.640  L 48.869, 27.657  L 46.885, 29.673  L 48.927, 34.657  L 53.732, 32.509  L 55.990, 37.398  L 54.097, 39.499  L 51.995, 37.606  L 53.732, 32.509  L 58.740, 34.151  L 60.275, 28.990  L 58.101, 27.181  L 56.292, 29.355  L 58.740, 34.151  L 63.388, 31.630  L 66.001, 36.339  L 64.268, 38.575  L 62.032, 36.842  L 63.388, 31.630  L 68.534, 32.917  L 69.732, 27.667  L 67.445, 26.002  L 65.781, 28.289  L 68.534, 32.917  L 73.063, 30.114  L 75.933, 34.671  L 74.327, 36.999  L 71.999, 35.393  L 73.063, 30.114  L 78.310, 31.129  L 79.261, 25.828  L 76.900, 24.272  L 75.343, 26.634  L 78.310, 31.129  L 82.755, 28.128  L 85.796, 32.573  L 84.280, 34.960  L 81.892, 33.444  L 82.755, 28.128  L 88.068, 28.958  L 88.864, 23.632  L 86.458, 22.146  L 84.972, 24.552  L 88.068, 28.958  L 92.465, 25.841  L 95.597, 30.221  L 94.131, 32.640  L 91.712, 31.173  L 92.465, 25.841  L 97.810, 26.578  L 98.540, 21.243  L 96.115, 19.786  L 94.659, 22.211  L 97.810, 26.578  L 102.190, 23.422  L 105.341, 27.789  L 103.885, 30.214  L 101.460, 28.757  L 102.190, 23.422  L 107.535, 24.159  L 108.288, 18.827  L 105.869, 17.360  L 104.403, 19.779  L 107.535, 24.159  L 111.932, 21.042  L 115.028, 25.448  L 113.542, 27.854  L 111.136, 26.368  L 111.932, 21.042  L 117.245, 21.872  L 118.108, 16.556  L 115.720, 15.040  L 114.204, 17.427  L 117.245, 21.872  L 121.690, 18.871  L 124.657, 23.366  L 123.100, 25.728  L 120.739, 24.172  L 121.690, 18.871  L 126.937, 19.886  L 128.001, 14.607  L 125.673, 13.001  L 124.067, 15.329  L 126.937, 19.886  L 131.466, 17.083  L 134.219, 21.711  L 132.555, 23.998  L 130.268, 22.333  L 131.466, 17.083  L 136.612, 18.370  L 137.968, 13.158  L 135.732, 11.425  L 133.999, 13.661  L 136.612, 18.370  L 141.260, 15.849  L 143.708, 20.645  L 141.899, 22.819  L 139.725, 21.010  L 141.260, 15.849  L 146.268, 17.491  L 148.005, 12.394  L 145.903, 10.501  L 144.010, 12.602  L 146.268, 17.491  L 151.073, 15.343  L 153.115, 20.327  L 151.131, 22.343  L 149.115, 20.360  L 151.073, 15.343  L 155.906, 17.417  L 158.103, 12.501  L 156.185, 10.423  L 154.107, 12.342  L 155.906, 17.417  L 160.903, 15.742  L 162.434, 20.905  L 160.259, 22.712  L 158.451, 20.537  L 160.903, 15.742  L 165.528, 18.313  L 168.245, 13.664  L 166.562, 11.390  L 164.289, 13.073  L 165.528, 18.313  L 170.747, 17.220  L 171.673, 22.525  L 169.303, 24.069  L 167.759, 21.700  L 170.747, 17.220  L 175.139, 20.346  L 178.399, 16.059  L 177.004, 13.599  L 174.544, 14.993  L 175.139, 20.346  L 180.598, 19.951  L 180.850, 25.330  L 178.305, 26.565  L 177.071, 24.020  L 180.598, 19.951  L 184.747, 23.683  L 188.531, 19.851  L 187.464, 17.232  L 184.844, 18.299  L 184.747, 23.683  L 190.447, 24.106  L 190.000, 29.472  L 187.317, 30.367  L 186.422, 27.683  L 190.447, 24.106 "/>
    </g>
</svg>
