<?xml version="1.0" encoding="utf-8" ?>
<svg xmlns="http://www.w3.org/2000/svg" xmlns:ev="http://www.w3.org/2001/xml-events" xmlns:xlink="http://www.w3.org/1999/xlink" baseProfile="full" height="50mm" version="1.1" viewBox="0,0,200,50" width="200mm">
    <defs>
        <style type="text/css"><![CDATA[
.stitch_line {
    stroke-width: 0.3;
    stroke-linejoin: round;
    stroke-linecap: round;
    fill: none;
}
.sampling_line {
    stroke:#148983;
    stroke-width: 0.5;
    fill: none;
}
.path_handle {
    stroke-width: 0.5;
    stroke-linejoin: round;
    stroke-linecap: round;
    fill:none;
    stroke: #808080;
    marker-start: url(#handles);
    marker-mid: url(#handles);
    marker-end: url(#handles);
}
.path_center_line {
    stroke-width: 0.5;
    stroke-linejoin: round;
    stroke-linecap: round;
    fill: none;
    stroke:#148983;
    stroke-dasharray: 2,1.5;
    stroke-dashoffset: 1;
}
.path_contour {
    stroke: #85c4c1;
    fill-opacity: 0;
    stroke-width: 0.3;
}
.path_direction_line {
    stroke-width: 0.05;
    fill: none;
    stroke: #85c4c1;
}
.text{
    text-anchor: middle;
    dominant-baseline: middle;
    font-family: sans-serif;
    font-size: 1.5mm;
}
.smalltext{
    text-anchor: middle;
    dominant-baseline: middle;
    font-family: sans-serif;
    font-size: 1mm;
}
.color_0 {
    stroke:#148983;
    marker-start:url(#dot_0);
    marker-mid:url(#dot_0);
    marker-end:url(#dot_0);
}
.color_1 {
    stroke:#1873ac;
    marker-start:url(#dot_1);
    marker-mid:url(#dot_1);
    marker-end:url(#dot_1);
}
.color_2 {
    stroke:#8c5290;
    marker-start:url(#dot_2);
    marker-mid:url(#dot_2);
    marker-end:url(#dot_2);
}
.color_3 {
    stroke:#61a09c;
    marker-start:url(#dot_3);
    marker-mid:url(#dot_3);
    marker-end:url(#dot_3);
}
.color_4 {
    stroke:#5ad2f4;
    marker-start:url(#dot_4);
    marker-mid:url(#dot_4);
    marker-end:url(#dot_4);
}
.color_5 {
    stroke:#0f6460;
    marker-start:url(#dot_5);
    marker-mid:url(#dot_5);
    marker-end:url(#dot_5);
}
.color_6 {
    stroke:#0f4668;
    marker-start:url(#dot_6);
    marker-mid:url(#dot_6);
    marker-end:url(#dot_6);
}
.color_7 {
    stroke:#543156;
    marker-start:url(#dot_7);
    marker-mid:url(#dot_7);
    marker-end:url(#dot_7);
}
.color_8 {
    stroke:#487673;
    marker-start:url(#dot_8);
    marker-mid:url(#dot_8);
    marker-end:url(#dot_8);
}
.color_9 {
    stroke:#0c8baf;
    marker-start:url(#dot_9);
    marker-mid:url(#dot_9);
    marker-end:url(#dot_9);
}
]]></style>
        <marker id="dot_0" markerHeight="3.0" markerWidth="3.0" refX="1.5" refY="1.5">
            <circle cx="1.5" cy="1.5" fill="#148983" r="1.5"/>
        </marker>
        <marker id="dot_1" markerHeight="3.0" markerWidth="3.0" refX="1.5" refY="1.5">
            <circle cx="1.5" cy="1.5" fill="#1873ac" r="1.5"/>
        </marker>
        <marker id="dot_2" markerHeight="3.0" markerWidth="3.0" refX="1.5" refY="1.5">
            <circle cx="1.5" cy="1.5" fill="#8c5290" r="1.5"/>
        </marker>
        <marker id="dot_3" markerHeight="3.0" markerWidth="3.0" refX="1.5" refY="1.5">
            <circle cx="1.5" cy="1.5" fill="#61a09c" r="1.5"/>
        </marker>
        <marker id="dot_4" markerHeight="3.0" markerWidth="3.0" refX="1.5" refY="1.5">
            <circle cx="1.5" cy="1.5" fill="#5ad2f4" r="1.5"/>
        </marker>
        <marker id="dot_5" markerHeight="3.0" markerWidth="3.0" refX="1.5" refY="1.5">
            <circle cx="1.5" cy="1.5" fill="#0f6460" r="1.5"/>
        </marker>
        <marker id="dot_6" markerHeight="3.0" markerWidth="3.0" refX="1.5" refY="1.5">
            <circle cx="1.5" cy="1.5" fill="#0f4668" r="1.5"/>
        </marker>
        <marker id="dot_7" markerHeight="3.0" markerWidth="3.0" refX="1.5" refY="1.5">
            <circle cx="1.5" cy="1.5" fill="#543156" r="1.5"/>
        </marker>
        <marker id="dot_8" markerHeight="3.0" markerWidth="3.0" refX="1.5" refY="1.5">
            <circle cx="1.5" cy="1.5" fill="#487673" r="1.5"/>
        </marker>
        <marker id="dot_9" markerHeight="3.0" markerWidth="3.0" refX="1.5" refY="1.5">
            <circle cx="1.5" cy="1.5" fill="#0c8baf" r="1.5"/>
        </marker>
    </defs>
    <g>
        <path class="stitch_line color_0" d="M 10.976, 25.480  L 13.932, 26.780  L 16.883, 27.942  L 19.830, 28.969  L 22.774, 29.868  L 25.714, 30.642  L 28.649, 31.297  L 31.582, 31.838  L 34.510, 32.270  L 37.436, 32.597  L 40.358, 32.825  L 43.278, 32.958  L 46.195, 33.001  L 49.110, 32.958  L 52.023, 32.835  L 54.935, 32.636  L 57.845, 32.366  L 60.755, 32.030  L 63.664, 31.631  L 66.572, 31.175  L 69.480, 30.667  L 72.389, 30.110  L 75.297, 29.510  L 78.206, 28.871  L 81.116, 28.197  L 84.027, 27.494  L 86.939, 26.766  L 89.853, 26.017  L 92.768, 25.252  L 95.685, 24.475  L 98.604, 23.692  L 101.525, 22.907  L 104.449, 22.124  L 107.376, 21.348  L 110.305, 20.584  L 113.238, 19.837  L 116.175, 19.110  L 119.115, 18.409  L 122.059, 17.739  L 125.008, 17.104  L 127.962, 16.508  L 130.921, 15.958  L 133.885, 15.457  L 136.855, 15.010  L 139.831, 14.623  L 142.813, 14.300  L 145.802, 14.047  L 148.797, 13.868  L 151.800, 13.768  L 154.810, 13.753  L 157.827, 13.828  L 160.851, 13.998  L 163.882, 14.268  L 166.920, 14.643  L 169.964, 15.129  L 173.014, 15.731  L 176.070, 16.453  L 173.102, 15.611  L 170.130, 14.883  L 167.155, 14.265  L 164.177, 13.753  L 161.196, 13.342  L 158.215, 13.029  L 155.233, 12.807  L 152.252, 12.673  L 149.271, 12.623  L 146.293, 12.650  L 143.316, 12.752  L 140.341, 12.922  L 137.370, 13.156  L 134.402, 13.450  L 131.438, 13.798  L 128.478, 14.196  L 125.523, 14.639  L 122.572, 15.122  L 119.626, 15.641  L 116.685, 16.191  L 113.750, 16.768  L 110.820, 17.366  L 107.896, 17.981  L 104.979, 18.609  L 102.068, 19.244  L 99.164, 19.883  L 96.267, 20.521  L 93.378, 21.153  L 90.497, 21.775  L 87.624, 22.383  L 84.760, 22.971  L 81.905, 23.537  L 79.060, 24.074  L 76.225, 24.580  L 73.401, 25.049  L 70.589, 25.479  L 73.490, 24.948  L 76.402, 24.374  L 79.324, 23.762  L 82.256, 23.116  L 85.196, 22.442  L 88.147, 21.744  L 91.106, 21.026  L 94.075, 20.294  L 97.053, 19.552  L 100.039, 18.806  L 103.035, 18.059  L 106.040, 17.318  L 109.054, 16.587  L 112.078, 15.872  L 115.110, 15.176  L 118.152, 14.506  L 121.204, 13.867  L 124.266, 13.264  L 127.338, 12.702  L 124.308, 13.343  L 121.290, 14.025  L 118.284, 14.741  L 115.289, 15.488  L 112.303, 16.259  L 109.328, 17.051  L 106.362, 17.857  L 103.404, 18.674  L 100.455, 19.497  L 97.514, 20.320  L 94.580, 21.140  L 91.653, 21.951  L 88.734, 22.749  L 85.820, 23.529  L 82.913, 24.286  L 80.012, 25.016  L 77.117, 25.715  L 74.227, 26.378  L 71.342, 27.000  L 68.461, 27.576  L 65.585, 28.103  L 62.714, 28.576  L 59.846, 28.991  L 56.981, 29.342  L 54.120, 29.626  L 51.260, 29.838  L 48.403, 29.974  L 45.546, 30.029  L 42.690, 29.998  L 39.834, 29.878  L 36.977, 29.663  L 34.118, 29.349  L 31.256, 28.930  L 28.390, 28.403  L 25.519, 27.761  L 28.331, 28.532  L 31.149, 29.193  L 33.973, 29.749  L 36.803, 30.203  L 39.639, 30.560  L 42.483, 30.824  L 45.334, 30.998  L 48.192, 31.089  L 51.057, 31.098  L 53.929, 31.032  L 56.808, 30.893  L 59.694, 30.687  L 62.586, 30.417  L 65.484, 30.088  L 68.387, 29.704  L 71.297, 29.271  L 74.211, 28.792  L 77.130, 28.271  L 80.053, 27.715  L 82.980, 27.126  L 85.912, 26.511  L 88.847, 25.873  L 91.785, 25.217  L 94.726, 24.548  L 97.670, 23.870  L 100.617, 23.189  L 103.566, 22.509  L 106.516, 21.835  L 109.469, 21.171  L 112.423, 20.522  L 115.379, 19.894  L 118.336, 19.290  L 121.294, 18.716  L 124.253, 18.176  L 127.212, 17.676  L 130.171, 17.219  L 133.131, 16.811  L 136.090, 16.456  L 139.049, 16.159  L 142.008, 15.926  L 144.965, 15.760  L 147.921, 15.666  L 150.876, 15.649  L 153.829, 15.714  L 156.779, 15.865  L 159.727, 16.107  L 162.673, 16.444  L 165.615, 16.882  L 168.554, 17.424  L 171.490, 18.075  L 174.422, 18.840  L 177.350, 19.722  L 180.275, 20.727  L 183.195, 21.859  L 186.111, 23.121  L 189.024, 24.520  L 186.068, 23.220  L 183.117, 22.058  L 180.170, 21.031  L 177.226, 20.132  L 174.286, 19.358  L 171.351, 18.703  L 168.418, 18.162  L 165.490, 17.730  L 162.564, 17.403  L 159.642, 17.175  L 156.722, 17.042  L 153.805, 16.999  L 150.890, 17.042  L 147.977, 17.165  L 145.065, 17.364  L 142.155, 17.634  L 139.245, 17.970  L 136.336, 18.369  L 133.428, 18.825  L 130.520, 19.333  L 127.611, 19.890  L 124.703, 20.490  L 121.794, 21.129  L 118.884, 21.803  L 115.973, 22.506  L 113.061, 23.234  L 110.147, 23.983  L 107.232, 24.748  L 104.315, 25.525  L 101.396, 26.308  L 98.475, 27.093  L 95.551, 27.876  L 92.624, 28.652  L 89.695, 29.416  L 86.762, 30.163  L 83.825, 30.890  L 80.885, 31.591  L 77.941, 32.261  L 74.992, 32.896  L 72.038, 33.492  L 69.079, 34.042  L 66.115, 34.543  L 63.145, 34.990  L 60.169, 35.377  L 57.187, 35.700  L 54.198, 35.953  L 51.203, 36.132  L 48.200, 36.232  L 45.190, 36.247  L 42.173, 36.172  L 39.149, 36.002  L 36.118, 35.732  L 33.080, 35.357  L 30.036, 34.871  L 26.986, 34.269  L 23.930, 33.547  L 26.898, 34.389  L 29.870, 35.117  L 32.845, 35.735  L 35.823, 36.247  L 38.804, 36.658  L 41.785, 36.971  L 44.767, 37.193  L 47.748, 37.327  L 50.729, 37.377  L 53.707, 37.350  L 56.684, 37.248  L 59.659, 37.078  L 62.630, 36.844  L 65.598, 36.550  L 68.562, 36.202  L 71.522, 35.804  L 74.477, 35.361  L 77.428, 34.878  L 80.374, 34.359  L 83.315, 33.809  L 86.250, 33.232  L 89.180, 32.634  L 92.104, 32.019  L 95.021, 31.391  L 97.932, 30.756  L 100.836, 30.117  L 103.733, 29.479  L 106.622, 28.847  L 109.503, 28.225  L 112.376, 27.617  L 115.240, 27.029  L 118.095, 26.463  L 120.940, 25.926  L 123.775, 25.420  L 126.599, 24.951  L 129.411, 24.521  L 126.510, 25.052  L 123.598, 25.626  L 120.676, 26.238  L 117.744, 26.884  L 114.804, 27.558  L 111.853, 28.256  L 108.894, 28.974  L 105.925, 29.706  L 102.947, 30.448  L 99.961, 31.194  L 96.965, 31.941  L 93.960, 32.682  L 90.946, 33.413  L 87.922, 34.128  L 84.890, 34.824  L 81.848, 35.494  L 78.796, 36.133  L 75.734, 36.736  L 72.662, 37.298  L 75.692, 36.657  L 78.710, 35.975  L 81.716, 35.259  L 84.711, 34.512  L 87.697, 33.741  L 90.672, 32.949  L 93.638, 32.143  L 96.596, 31.326  L 99.545, 30.503  L 102.486, 29.680  L 105.420, 28.860  L 108.347, 28.049  L 111.266, 27.251  L 114.180, 26.471  L 117.087, 25.714  L 119.988, 24.984  L 122.883, 24.285  L 125.773, 23.622  L 128.658, 23.000  L 131.539, 22.424  L 134.415, 21.897  L 137.286, 21.424  L 140.154, 21.009  L 143.019, 20.658  L 145.880, 20.374  L 148.740, 20.162  L 151.597, 20.026  L 154.454, 19.971  L 157.310, 20.002  L 160.166, 20.122  L 163.023, 20.337  L 165.882, 20.651  L 168.744, 21.070  L 171.610, 21.597  L 174.481, 22.239  L 171.669, 21.468  L 168.851, 20.807  L 166.027, 20.251  L 163.197, 19.797  L 160.361, 19.440  L 157.517, 19.176  L 154.666, 19.002  L 151.808, 18.911  L 148.943, 18.902  L 146.071, 18.968  L 143.192, 19.107  L 140.306, 19.313  L 137.414, 19.583  L 134.516, 19.912  L 131.613, 20.296  L 128.703, 20.729  L 125.789, 21.208  L 122.870, 21.729  L 119.947, 22.285  L 117.020, 22.874  L 114.088, 23.489  L 111.153, 24.127  L 108.215, 24.783  L 105.274, 25.452  L 102.330, 26.130  L 99.383, 26.811  L 96.434, 27.491  L 93.484, 28.165  L 90.531, 28.829  L 87.577, 29.478  L 84.621, 30.106  L 81.664, 30.710  L 78.706, 31.284  L 75.747, 31.824  L 72.788, 32.324  L 69.829, 32.781  L 66.869, 33.189  L 63.910, 33.544  L 60.951, 33.841  L 57.992, 34.074  L 55.035, 34.240  L 52.079, 34.334  L 49.124, 34.351  L 46.171, 34.286  L 43.221, 34.135  L 40.273, 33.893  L 37.327, 33.556  L 34.385, 33.118  L 31.446, 32.576  L 28.510, 31.925  L 25.578, 31.160  L 22.650, 30.278  L 19.725, 29.273  L 16.805, 28.141  L 13.889, 26.879  L 10.976, 25.480 "/>
    </g>
</svg>
