<?xml version="1.0" encoding="utf-8" ?>
<svg xmlns="http://www.w3.org/2000/svg" xmlns:ev="http://www.w3.org/2001/xml-events" xmlns:xlink="http://www.w3.org/1999/xlink" baseProfile="full" height="50mm" version="1.1" viewBox="0,0,200,50" width="200mm">
    <defs>
        <style type="text/css"><![CDATA[
.stitch_line {
    stroke-width: 0.3;
    stroke-linejoin: round;
    stroke-linecap: round;
    fill: none;
}
.sampling_line {
    stroke:#148983;
    stroke-width: 0.5;
    fill: none;
}
.path_handle {
    stroke-width: 0.5;
    stroke-linejoin: round;
    stroke-linecap: round;
    fill:none;
    stroke: #808080;
    marker-start: url(#handles);
    marker-mid: url(#handles);
    marker-end: url(#handles);
}
.path_center_line {
    stroke-width: 0.5;
    stroke-linejoin: round;
    stroke-linecap: round;
    fill: none;
    stroke:#148983;
    stroke-dasharray: 2,1.5;
    stroke-dashoffset: 1;
}
.path_contour {
    stroke: #85c4c1;
    fill-opacity: 0;
    stroke-width: 0.3;
}
.path_direction_line {
    stroke-width: 0.05;
    fill: none;
    stroke: #85c4c1;
}
.text{
    text-anchor: middle;
    dominant-baseline: middle;
    font-family: sans-serif;
    font-size: 1.5mm;
}
.smalltext{
    text-anchor: middle;
    dominant-baseline: middle;
    font-family: sans-serif;
    font-size: 1mm;
}
.color_0 {
    stroke:#148983;
    marker-start:url(#dot_0);
    marker-mid:url(#dot_0);
    marker-end:url(#dot_0);
}
.color_1 {
    stroke:#1873ac;
    marker-start:url(#dot_1);
    marker-mid:url(#dot_1);
    marker-end:url(#dot_1);
}
.color_2 {
    stroke:#8c5290;
    marker-start:url(#dot_2);
    marker-mid:url(#dot_2);
    marker-end:url(#dot_2);
}
.color_3 {
    stroke:#61a09c;
    marker-start:url(#dot_3);
    marker-mid:url(#dot_3);
    marker-end:url(#dot_3);
}
.color_4 {
    stroke:#5ad2f4;
    marker-start:url(#dot_4);
    marker-mid:url(#dot_4);
    marker-end:url(#dot_4);
}
.color_5 {
    stroke:#0f6460;
    marker-start:url(#dot_5);
    marker-mid:url(#dot_5);
    marker-end:url(#dot_5);
}
.color_6 {
    stroke:#0f4668;
    marker-start:url(#dot_6);
    marker-mid:url(#dot_6);
    marker-end:url(#dot_6);
}
.color_7 {
    stroke:#543156;
    marker-start:url(#dot_7);
    marker-mid:url(#dot_7);
    marker-end:url(#dot_7);
}
.color_8 {
    stroke:#487673;
    marker-start:url(#dot_8);
    marker-mid:url(#dot_8);
    marker-end:url(#dot_8);
}
.color_9 {
    stroke:#0c8baf;
    marker-start:url(#dot_9);
    marker-mid:url(#dot_9);
    marker-end:url(#dot_9);
}
]]></style>
        <marker id="dot_0" markerHeight="3.0" markerWidth="3.0" refX="1.5" refY="1.5">
            <circle cx="1.5" cy="1.5" fill="#148983" r="1.5"/>
        </marker>
        <marker id="dot_1" markerHeight="3.0" markerWidth="3.0" refX="1.5" refY="1.5">
            <circle cx="1.5" cy="1.5" fill="#1873ac" r="1.5"/>
        </marker>
        <marker id="dot_2" markerHeight="3.0" markerWidth="3.0" refX="1.5" refY="1.5">
            <circle cx="1.5" cy="1.5" fill="#8c5290" r="1.5"/>
        </marker>
        <marker id="dot_3" markerHeight="3.0" markerWidth="3.0" refX="1.5" refY="1.5">
            <circle cx="1.5" cy="1.5" fill="#61a09c" r="1.5"/>
        </marker>
        <marker id="dot_4" markerHeight="3.0" markerWidth="3.0" refX="1.5" refY="1.5">
            <circle cx="1.5" cy="1.5" fill="#5ad2f4" r="1.5"/>
        </marker>
        <marker id="dot_5" markerHeight="3.0" markerWidth="3.0" refX="1.5" refY="1.5">
            <circle cx="1.5" cy="1.5" fill="#0f6460" r="1.5"/>
        </marker>
        <marker id="dot_6" markerHeight="3.0" markerWidth="3.0" refX="1.5" refY="1.5">
            <circle cx="1.5" cy="1.5" fill="#0f4668" r="1.5"/>
        </marker>
        <marker id="dot_7" markerHeight="3.0" markerWidth="3.0" refX="1.5" refY="1.5">
            <circle cx="1.5" cy="1.5" fill="#543156" r="1.5"/>
        </marker>
        <marker id="dot_8" markerHeight="3.0" markerWidth="3.0" refX="1.5" refY="1.5">
            <circle cx="1.5" cy="1.5" fill="#487673" r="1.5"/>
        </marker>
        <marker id="dot_9" markerHeight="3.0" markerWidth="3.0" refX="1.5" refY="1.5">
            <circle cx="1.5" cy="1.5" fill="#0c8baf" r="1.5"/>
        </marker>
    </defs>
    <g>
        <path class="stitch_line color_0" d="M 11.118, 22.764  L 10.719, 25.441  L 10.320, 28.117  L 10.320, 28.117  L 11.545, 26.722  L 14.088, 23.823  L 14.088, 23.823  L 13.798, 25.808  L 13.364, 28.777  L 13.218, 29.772  L 13.218, 29.772  L 15.124, 27.260  L 17.030, 24.748  L 17.030, 24.748  L 16.855, 26.036  L 16.453, 29.009  L 16.144, 31.287  L 16.144, 31.287  L 16.940, 30.084  L 18.596, 27.582  L 19.944, 25.544  L 19.944, 25.544  L 19.520, 29.105  L 19.097, 32.665  L 19.097, 32.665  L 20.463, 30.307  L 21.967, 27.712  L 22.832, 26.219  L 22.832, 26.219  L 22.551, 29.068  L 22.257, 32.054  L 22.074, 33.908  L 22.074, 33.908  L 23.885, 30.343  L 25.696, 26.779  L 25.696, 26.779  L 25.536, 28.904  L 25.310, 31.896  L 25.075, 35.018  L 25.075, 35.018  L 25.994, 32.952  L 27.213, 30.211  L 28.539, 27.231  L 28.539, 27.231  L 28.469, 28.619  L 28.317, 31.615  L 28.166, 34.611  L 28.096, 36.000  L 28.096, 36.000  L 29.367, 32.722  L 30.453, 29.925  L 31.363, 27.580  L 31.363, 27.580  L 31.273, 31.218  L 31.199, 34.217  L 31.134, 36.856  L 31.134, 36.856  L 31.696, 35.187  L 32.652, 32.344  L 33.608, 29.500  L 34.170, 27.832  L 34.170, 27.832  L 34.175, 30.711  L 34.181, 33.711  L 34.188, 37.590  L 34.188, 37.590  L 35.020, 34.713  L 35.853, 31.831  L 36.963, 27.993  L 36.963, 27.993  L 37.023, 30.101  L 37.109, 33.099  L 37.195, 36.098  L 37.255, 38.206  L 37.255, 38.206  L 37.546, 37.021  L 38.261, 34.108  L 38.977, 31.195  L 39.744, 28.068  L 39.744, 28.068  L 39.817, 29.394  L 39.983, 32.389  L 40.148, 35.385  L 40.332, 38.708  L 40.332, 38.708  L 40.821, 36.324  L 41.425, 33.385  L 42.028, 30.446  L 42.517, 28.062  L 42.517, 28.062  L 42.804, 31.588  L 43.048, 34.578  L 43.291, 37.568  L 43.415, 39.101  L 43.415, 39.101  L 44.019, 35.513  L 44.516, 32.554  L 45.013, 29.596  L 45.285, 27.980  L 45.285, 27.980  L 45.575, 30.701  L 45.894, 33.684  L 46.213, 36.667  L 46.504, 39.388  L 46.504, 39.388  L 46.747, 37.572  L 47.144, 34.598  L 47.541, 31.625  L 48.048, 27.826  L 48.048, 27.826  L 48.300, 29.735  L 48.691, 32.710  L 49.083, 35.684  L 49.595, 39.576  L 49.595, 39.576  L 49.900, 36.575  L 50.203, 33.591  L 50.506, 30.606  L 50.810, 27.605  L 50.810, 27.605  L 50.980, 28.696  L 51.441, 31.661  L 51.902, 34.625  L 52.363, 37.589  L 52.686, 39.668  L 52.686, 39.668  L 52.772, 38.482  L 52.987, 35.490  L 53.202, 32.498  L 53.417, 29.505  L 53.573, 27.322  L 53.573, 27.322  L 54.148, 30.543  L 54.675, 33.496  L 55.201, 36.450  L 55.776, 39.671  L 55.776, 39.671  L 55.880, 37.321  L 56.013, 34.324  L 56.146, 31.327  L 56.279, 28.330  L 56.339, 26.979  L 56.339, 26.979  L 56.816, 29.361  L 57.404, 32.303  L 57.993, 35.245  L 58.581, 38.187  L 58.862, 39.589  L 58.862, 39.589  L 58.929, 36.084  L 58.985, 33.085  L 59.042, 30.086  L 59.109, 26.581  L 59.109, 26.581  L 59.449, 28.121  L 60.095, 31.051  L 60.741, 33.981  L 61.388, 36.910  L 61.943, 39.427  L 61.943, 39.427  L 61.936, 37.780  L 61.923, 34.780  L 61.910, 31.780  L 61.896, 28.780  L 61.885, 26.133  L 61.885, 26.133  L 62.751, 29.745  L 63.451, 32.662  L 64.151, 35.579  L 65.017, 39.191  L 65.017, 39.191  L 64.946, 36.413  L 64.868, 33.414  L 64.791, 30.415  L 64.714, 27.416  L 64.668, 25.638  L 64.668, 25.638  L 65.377, 28.388  L 66.126, 31.293  L 66.875, 34.198  L 67.624, 37.103  L 68.084, 38.885  L 68.084, 38.885  L 67.907, 34.990  L 67.772, 31.993  L 67.636, 28.996  L 67.459, 25.100  L 67.459, 25.100  L 67.977, 26.987  L 68.771, 29.880  L 69.565, 32.773  L 70.359, 35.666  L 71.142, 38.517  L 71.142, 38.517  L 71.015, 36.510  L 70.827, 33.516  L 70.638, 30.522  L 70.449, 27.528  L 70.260, 24.524  L 70.260, 24.524  L 70.555, 25.544  L 71.390, 28.425  L 72.225, 31.307  L 73.060, 34.188  L 73.894, 37.070  L 74.190, 38.089  L 74.190, 38.089  L 73.945, 34.989  L 73.709, 31.998  L 73.473, 29.007  L 73.237, 26.016  L 73.071, 23.913  L 73.071, 23.913  L 73.987, 26.933  L 74.859, 29.804  L 75.730, 32.675  L 76.601, 35.545  L 77.227, 37.609  L 77.227, 37.609  L 77.116, 36.414  L 76.838, 33.427  L 76.560, 30.440  L 76.282, 27.453  L 76.004, 24.466  L 75.893, 23.271  L 75.893, 23.271  L 76.567, 25.408  L 77.471, 28.268  L 78.374, 31.129  L 79.277, 33.990  L 80.253, 37.080  L 80.253, 37.080  L 80.014, 34.814  L 79.699, 31.830  L 79.385, 28.847  L 79.070, 25.863  L 78.726, 22.602  L 78.726, 22.602  L 79.134, 23.852  L 80.065, 26.704  L 80.997, 29.556  L 81.928, 32.407  L 82.860, 35.259  L 83.268, 36.509  L 83.268, 36.509  L 82.881, 33.184  L 82.535, 30.204  L 82.189, 27.224  L 81.842, 24.244  L 81.571, 21.912  L 81.571, 21.912  L 82.647, 25.114  L 83.602, 27.958  L 84.557, 30.802  L 85.513, 33.645  L 86.270, 35.900  L 86.270, 35.900  L 86.095, 34.505  L 85.722, 31.528  L 85.349, 28.551  L 84.976, 25.575  L 84.604, 22.598  L 84.429, 21.203  L 84.429, 21.203  L 85.219, 23.502  L 86.194, 26.339  L 87.169, 29.176  L 88.144, 32.013  L 89.259, 35.257  L 89.259, 35.257  L 88.937, 32.826  L 88.542, 29.852  L 88.148, 26.878  L 87.753, 23.904  L 87.299, 20.481  L 87.299, 20.481  L 87.786, 21.871  L 88.777, 24.702  L 89.768, 27.534  L 90.759, 30.366  L 91.750, 33.197  L 92.236, 34.587  L 92.236, 34.587  L 91.758, 31.130  L 91.347, 28.159  L 90.935, 25.187  L 90.524, 22.215  L 90.183, 19.749  L 90.183, 19.749  L 91.354, 23.052  L 92.357, 25.879  L 93.360, 28.707  L 94.363, 31.534  L 95.200, 33.894  L 95.200, 33.894  L 94.986, 32.393  L 94.563, 29.423  L 94.140, 26.453  L 93.717, 23.483  L 93.293, 20.513  L 93.080, 19.012  L 93.080, 19.012  L 93.930, 21.390  L 94.941, 24.214  L 95.952, 27.039  L 96.962, 29.864  L 98.150, 33.183  L 98.150, 33.183  L 97.787, 30.677  L 97.357, 27.708  L 96.926, 24.739  L 96.496, 21.770  L 95.990, 18.275  L 95.990, 18.275  L 96.509, 19.720  L 97.524, 22.543  L 98.538, 25.367  L 99.553, 28.190  L 100.567, 31.013  L 101.087, 32.459  L 101.087, 32.459  L 100.577, 28.958  L 100.144, 25.990  L 99.712, 23.021  L 99.279, 20.052  L 98.913, 17.541  L 98.913, 17.541  L 100.109, 20.869  L 101.124, 23.692  L 102.138, 26.516  L 103.153, 29.339  L 104.010, 31.725  L 104.010, 31.725  L 103.791, 30.209  L 103.360, 27.240  L 102.930, 24.271  L 102.500, 21.302  L 102.070, 18.333  L 101.850, 16.817  L 101.850, 16.817  L 102.701, 19.195  L 103.711, 22.019  L 104.722, 24.844  L 105.733, 27.669  L 106.920, 30.988  L 106.920, 30.988  L 106.566, 28.497  L 106.142, 25.527  L 105.719, 22.557  L 105.296, 19.587  L 104.800, 16.106  L 104.800, 16.106  L 105.303, 17.524  L 106.306, 20.351  L 107.309, 23.178  L 108.311, 26.006  L 109.314, 28.833  L 109.817, 30.251  L 109.817, 30.251  L 109.339, 26.794  L 108.928, 23.823  L 108.516, 20.851  L 108.105, 17.879  L 107.764, 15.413  L 107.764, 15.413  L 108.911, 18.691  L 109.902, 21.522  L 110.893, 24.354  L 111.884, 27.185  L 112.701, 29.519  L 112.701, 29.519  L 112.510, 28.079  L 112.115, 25.105  L 111.721, 22.131  L 111.326, 19.157  L 110.932, 16.183  L 110.741, 14.743  L 110.741, 14.743  L 111.531, 17.041  L 112.506, 19.878  L 113.481, 22.715  L 114.456, 25.553  L 115.571, 28.797  L 115.571, 28.797  L 115.272, 26.410  L 114.899, 23.433  L 114.526, 20.456  L 114.153, 17.480  L 113.730, 14.100  L 113.730, 14.100  L 114.169, 15.407  L 115.124, 18.250  L 116.079, 21.094  L 117.035, 23.938  L 117.990, 26.782  L 118.429, 28.088  L 118.429, 28.088  L 118.042, 24.763  L 117.696, 21.783  L 117.350, 18.803  L 117.003, 15.823  L 116.732, 13.491  L 116.732, 13.491  L 117.761, 16.642  L 118.693, 19.494  L 119.624, 22.346  L 120.556, 25.197  L 121.274, 27.398  L 121.274, 27.398  L 121.140, 26.126  L 120.825, 23.142  L 120.510, 20.159  L 120.196, 17.175  L 119.881, 14.192  L 119.747, 12.920  L 119.747, 12.920  L 120.421, 15.057  L 121.325, 17.917  L 122.228, 20.778  L 123.132, 23.639  L 124.107, 26.729  L 124.107, 26.729  L 123.904, 24.539  L 123.626, 21.552  L 123.348, 18.564  L 123.069, 15.577  L 122.773, 12.391  L 122.773, 12.391  L 123.109, 13.498  L 123.980, 16.369  L 124.851, 19.239  L 125.722, 22.110  L 126.593, 24.981  L 126.929, 26.087  L 126.929, 26.087  L 126.685, 22.987  L 126.448, 19.996  L 126.212, 17.005  L 125.976, 14.015  L 125.810, 11.911  L 125.810, 11.911  L 126.662, 14.851  L 127.497, 17.733  L 128.332, 20.614  L 129.166, 23.496  L 129.740, 25.476  L 129.740, 25.476  L 129.677, 24.468  L 129.488, 21.474  L 129.299, 18.480  L 129.111, 15.486  L 128.922, 12.492  L 128.858, 11.483  L 128.858, 11.483  L 129.376, 13.370  L 130.170, 16.263  L 130.964, 19.156  L 131.758, 22.049  L 132.541, 24.900  L 132.541, 24.900  L 132.455, 23.002  L 132.319, 20.005  L 132.183, 17.008  L 132.047, 14.011  L 131.916, 11.115  L 131.916, 11.115  L 132.875, 14.833  L 133.624, 17.738  L 134.373, 20.643  L 135.332, 24.362  L 135.332, 24.362  L 135.261, 21.584  L 135.183, 18.585  L 135.106, 15.586  L 135.029, 12.587  L 134.983, 10.809  L 134.983, 10.809  L 135.616, 13.449  L 136.316, 16.366  L 137.015, 19.283  L 137.715, 22.200  L 138.115, 23.867  L 138.115, 23.867  L 138.099, 20.220  L 138.086, 17.220  L 138.073, 14.220  L 138.057, 10.573  L 138.057, 10.573  L 138.397, 12.113  L 139.043, 15.043  L 139.689, 17.972  L 140.336, 20.902  L 140.891, 23.419  L 140.891, 23.419  L 140.920, 21.914  L 140.977, 18.915  L 141.033, 15.915  L 141.090, 12.916  L 141.138, 10.411  L 141.138, 10.411  L 141.811, 13.775  L 142.399, 16.716  L 142.988, 19.658  L 143.661, 23.021  L 143.661, 23.021  L 143.765, 20.671  L 143.898, 17.674  L 144.031, 14.677  L 144.164, 11.680  L 144.224, 10.329  L 144.224, 10.329  L 144.623, 12.566  L 145.150, 15.519  L 145.676, 18.473  L 146.203, 21.426  L 146.427, 22.678  L 146.427, 22.678  L 146.655, 19.497  L 146.870, 16.505  L 147.085, 13.513  L 147.314, 10.332  L 147.314, 10.332  L 147.483, 11.423  L 147.944, 14.387  L 148.405, 17.351  L 148.866, 20.316  L 149.190, 22.395  L 149.190, 22.395  L 149.292, 21.384  L 149.595, 18.399  L 149.898, 15.415  L 150.201, 12.430  L 150.405, 10.424  L 150.405, 10.424  L 150.787, 13.325  L 151.178, 16.299  L 151.570, 19.273  L 151.952, 22.174  L 151.952, 22.174  L 152.194, 20.358  L 152.592, 17.384  L 152.989, 14.410  L 153.496, 10.612  L 153.496, 10.612  L 153.681, 12.339  L 153.999, 15.322  L 154.318, 18.305  L 154.715, 22.020  L 154.715, 22.020  L 155.153, 19.418  L 155.650, 16.460  L 156.147, 13.501  L 156.585, 10.899  L 156.585, 10.899  L 156.871, 14.425  L 157.115, 17.415  L 157.358, 20.406  L 157.483, 21.938  L 157.483, 21.938  L 158.173, 18.574  L 158.777, 15.635  L 159.380, 12.697  L 159.668, 11.292  L 159.668, 11.292  L 159.797, 13.617  L 159.962, 16.612  L 160.127, 19.608  L 160.256, 21.932  L 160.256, 21.932  L 160.547, 20.748  L 161.262, 17.834  L 161.977, 14.921  L 162.745, 11.794  L 162.745, 11.794  L 162.777, 12.902  L 162.863, 15.901  L 162.948, 18.900  L 163.037, 22.007  L 163.037, 22.007  L 163.591, 20.091  L 164.424, 17.209  L 165.258, 14.327  L 165.812, 12.410  L 165.812, 12.410  L 165.817, 15.289  L 165.823, 18.289  L 165.830, 22.168  L 165.830, 22.168  L 166.710, 19.552  L 167.667, 16.708  L 168.866, 13.144  L 168.866, 13.144  L 168.825, 14.783  L 168.751, 17.782  L 168.678, 20.781  L 168.637, 22.420  L 168.637, 22.420  L 169.909, 19.143  L 170.994, 16.346  L 171.904, 14.000  L 171.904, 14.000  L 171.733, 17.386  L 171.582, 20.382  L 171.461, 22.769  L 171.461, 22.769  L 171.974, 21.617  L 173.193, 18.876  L 174.412, 16.135  L 174.925, 14.982  L 174.925, 14.982  L 174.765, 17.107  L 174.539, 20.099  L 174.304, 23.221  L 174.304, 23.221  L 175.209, 21.440  L 176.568, 18.765  L 177.926, 16.092  L 177.926, 16.092  L 177.547, 19.937  L 177.168, 23.781  L 177.168, 23.781  L 178.534, 21.423  L 180.038, 18.828  L 180.903, 17.335  L 180.903, 17.335  L 180.598, 19.902  L 180.243, 22.881  L 180.056, 24.456  L 180.056, 24.456  L 181.956, 21.584  L 183.856, 18.713  L 183.856, 18.713  L 183.682, 20.001  L 183.279, 22.973  L 182.970, 25.252  L 182.970, 25.252  L 183.667, 24.333  L 185.481, 21.943  L 186.782, 20.228  L 186.782, 20.228  L 186.347, 23.202  L 185.912, 26.177  L 185.912, 26.177  L 187.136, 24.781  L 189.680, 21.883  L 189.680, 21.883  L 189.428, 23.570  L 188.882, 27.236 "/>
    </g>
</svg>
