<?xml version="1.0" encoding="utf-8" ?>
<svg xmlns="http://www.w3.org/2000/svg" xmlns:ev="http://www.w3.org/2001/xml-events" xmlns:xlink="http://www.w3.org/1999/xlink" baseProfile="full" height="50mm" version="1.1" viewBox="0,0,200,50" width="200mm">
    <defs>
        <style type="text/css"><![CDATA[
.stitch_line {
    stroke-width: 0.3;
    stroke-linejoin: round;
    stroke-linecap: round;
    fill: none;
}
.path_center_line {
    fill: none;
    stroke:#808080;
    stroke-width: 0.2;
    stroke-linejoin: round;
    stroke-linecap: round;
}
.path_contour {
    fill: #808080;
    fill-opacity: 0.3;
    stroke: #808080;
    stroke-opacity: 1;
    stroke-width: 0.3;
}
.text{
    text-anchor: middle;
    dominant-baseline: middle;
    font-family: sans-serif;
    font-size: 1.5mm;
}
.smalltext{
    text-anchor: middle;
    dominant-baseline: middle;
    font-family: sans-serif;
    font-size: 1mm;
}
.color_0 {
    stroke:#3bb2d0;
}
.dot_0 {
    marker-start:url(#dot_0);
    marker-mid:url(#dot_0);
    marker-end:url(#dot_0);
}
]]></style>
        <marker id="dot_0" markerHeight="3.0" markerWidth="3.0" refX="1.5" refY="1.5">
            <circle cx="1.5" cy="1.5" fill="#3bb2d0" r="1.5"/>
        </marker>
    </defs>
    <g>
        <path class="stitch_line color_0 dot_0" d="M 8.882, 27.236  L 9.441, 26.118  L 10.000, 25.000  L 10.559, 23.882  L 11.118, 22.764  L 13.943, 23.749  L 16.786, 24.632  L 19.645, 25.412  L 22.515, 26.088  L 21.940, 27.870  L 21.366, 29.652  L 20.791, 31.433  L 17.867, 30.272  L 14.998, 28.997  L 15.594, 27.542  L 18.460, 28.652  L 19.052, 27.032  L 16.190, 26.087  L 13.358, 25.036  L 12.773, 26.323  L 12.188, 27.610  L 11.603, 28.898  L 14.402, 30.452  L 17.275, 31.892  L 20.216, 33.215  L 23.220, 34.416  L 23.764, 32.477  L 24.308, 30.538  L 24.852, 28.599  L 25.396, 26.660  L 28.284, 27.130  L 31.178, 27.498  L 34.076, 27.768  L 36.976, 27.943  L 36.663, 30.448  L 36.349, 32.954  L 36.036, 35.459  L 32.923, 34.892  L 29.836, 34.207  L 30.283, 31.971  L 33.307, 32.518  L 33.692, 30.143  L 30.731, 29.735  L 27.783, 29.221  L 27.282, 31.311  L 26.781, 33.402  L 26.280, 35.493  L 29.389, 36.443  L 32.539, 37.267  L 35.722, 37.964  L 38.932, 38.538  L 39.168, 35.910  L 39.405, 33.282  L 39.641, 30.653  L 39.878, 28.025  L 42.779, 28.020  L 45.680, 27.931  L 48.580, 27.764  L 51.480, 27.523  L 51.582, 30.561  L 51.685, 33.598  L 51.788, 36.635  L 48.629, 36.606  L 45.470, 36.479  L 45.540, 33.630  L 48.613, 33.659  L 48.597, 30.711  L 45.610, 30.781  L 42.624, 30.763  L 42.469, 33.506  L 42.315, 36.249  L 42.160, 38.991  L 45.400, 39.328  L 48.645, 39.553  L 51.891, 39.672  L 55.132, 39.691  L 54.943, 36.572  L 54.755, 33.453  L 54.566, 30.333  L 54.378, 27.214  L 57.275, 26.841  L 60.172, 26.409  L 63.069, 25.925  L 65.967, 25.392  L 66.470, 28.768  L 66.974, 32.145  L 67.477, 35.521  L 64.360, 35.891  L 61.232, 36.194  L 60.878, 32.932  L 63.930, 32.569  L 63.500, 29.247  L 60.525, 29.671  L 57.547, 30.035  L 57.820, 33.229  L 58.092, 36.423  L 58.364, 39.617  L 61.585, 39.455  L 64.791, 39.214  L 67.980, 38.898  L 71.151, 38.515  L 70.580, 35.090  L 70.009, 31.665  L 69.438, 28.240  L 68.867, 24.815  L 71.769, 24.201  L 74.675, 23.553  L 77.585, 22.876  L 80.501, 22.175  L 81.286, 25.740  L 82.071, 29.304  L 82.856, 32.869  L 79.808, 33.487  L 76.745, 34.067  L 76.055, 30.562  L 79.067, 29.950  L 78.326, 26.413  L 75.365, 27.058  L 72.403, 27.668  L 73.036, 31.136  L 73.670, 34.604  L 74.303, 38.071  L 77.436, 37.572  L 80.548, 37.024  L 83.641, 36.433  L 86.715, 35.805  L 85.892, 32.217  L 85.070, 28.630  L 84.247, 25.042  L 83.424, 21.455  L 86.355, 20.720  L 89.294, 19.975  L 92.245, 19.224  L 95.206, 18.472  L 96.112, 22.109  L 97.018, 25.745  L 97.924, 29.381  L 94.931, 30.115  L 91.929, 30.835  L 91.051, 27.215  L 94.036, 26.485  L 93.140, 22.854  L 90.173, 23.595  L 87.208, 24.326  L 88.062, 27.932  L 88.916, 31.538  L 89.770, 35.144  L 92.807, 34.455  L 95.827, 33.745  L 98.830, 33.017  L 101.819, 32.276  L 100.910, 28.638  L 100.000, 25.000  L 99.090, 21.362  L 98.181, 17.724  L 101.170, 16.983  L 104.173, 16.255  L 107.193, 15.545  L 110.230, 14.856  L 111.084, 18.462  L 111.938, 22.068  L 112.792, 25.674  L 109.827, 26.405  L 106.860, 27.146  L 105.964, 23.515  L 108.949, 22.785  L 108.071, 19.165  L 105.069, 19.885  L 102.076, 20.619  L 102.982, 24.255  L 103.888, 27.891  L 104.794, 31.528  L 107.755, 30.776  L 110.706, 30.025  L 113.645, 29.280  L 116.576, 28.545  L 115.753, 24.958  L 114.930, 21.370  L 114.108, 17.783  L 113.285, 14.195  L 116.359, 13.567  L 119.452, 12.976  L 122.564, 12.428  L 125.697, 11.929  L 126.330, 15.396  L 126.964, 18.864  L 127.597, 22.332  L 124.635, 22.942  L 121.674, 23.587  L 120.933, 20.050  L 123.945, 19.438  L 123.255, 15.933  L 120.192, 16.513  L 117.144, 17.131  L 117.929, 20.696  L 118.714, 24.260  L 119.499, 27.825  L 122.415, 27.124  L 125.325, 26.447  L 128.231, 25.799  L 131.133, 25.185  L 130.562, 21.760  L 129.991, 18.335  L 129.420, 14.910  L 128.849, 11.485  L 132.020, 11.102  L 135.209, 10.786  L 138.415, 10.545  L 141.636, 10.383  L 141.908, 13.577  L 142.180, 16.771  L 142.453, 19.965  L 139.475, 20.329  L 136.500, 20.753  L 136.070, 17.431  L 139.122, 17.068  L 138.768, 13.806  L 135.640, 14.109  L 132.523, 14.479  L 133.026, 17.855  L 133.530, 21.232  L 134.033, 24.608  L 136.931, 24.075  L 139.828, 23.591  L 142.725, 23.159  L 145.622, 22.786  L 145.434, 19.667  L 145.245, 16.547  L 145.057, 13.428  L 144.868, 10.309  L 148.109, 10.328  L 151.355, 10.447  L 154.600, 10.672  L 157.840, 11.009  L 157.685, 13.751  L 157.531, 16.494  L 157.376, 19.237  L 154.390, 19.219  L 151.403, 19.289  L 151.387, 16.341  L 154.460, 16.370  L 154.530, 13.521  L 151.371, 13.394  L 148.212, 13.365  L 148.315, 16.402  L 148.418, 19.439  L 148.520, 22.477  L 151.420, 22.236  L 154.320, 22.069  L 157.221, 21.980  L 160.122, 21.975  L 160.359, 19.347  L 160.595, 16.718  L 160.832, 14.090  L 161.068, 11.462  L 164.278, 12.036  L 167.461, 12.733  L 170.611, 13.557  L 173.720, 14.507  L 173.219, 16.598  L 172.718, 18.689  L 172.217, 20.779  L 169.269, 20.265  L 166.308, 19.857  L 166.693, 17.482  L 169.717, 18.029  L 170.164, 15.793  L 167.077, 15.108  L 163.964, 14.541  L 163.651, 17.046  L 163.337, 19.552  L 163.024, 22.057  L 165.924, 22.232  L 168.822, 22.502  L 171.716, 22.870  L 174.604, 23.340  L 175.148, 21.401  L 175.692, 19.462  L 176.236, 17.523  L 176.780, 15.584  L 179.784, 16.785  L 182.725, 18.108  L 185.598, 19.548  L 188.397, 21.102  L 187.812, 22.390  L 187.227, 23.677  L 186.642, 24.964  L 183.810, 23.913  L 180.948, 22.968  L 181.540, 21.348  L 184.406, 22.458  L 185.002, 21.003  L 182.133, 19.728  L 179.209, 18.567  L 178.634, 20.348  L 178.060, 22.130  L 177.485, 23.912  L 180.355, 24.588  L 183.214, 25.368  L 186.057, 26.251  L 188.882, 27.236 "/>
    </g>
</svg>
