<?xml version="1.0" encoding="utf-8" ?>
<svg xmlns="http://www.w3.org/2000/svg" xmlns:ev="http://www.w3.org/2001/xml-events" xmlns:xlink="http://www.w3.org/1999/xlink" baseProfile="full" height="50mm" version="1.1" viewBox="0,0,200,50" width="200mm">
    <defs>
        <style type="text/css"><![CDATA[
.stitch_line {
    stroke-width: 0.3;
    stroke-linejoin: round;
    stroke-linecap: round;
    fill: none;
}
.path_center_line {
    stroke-width: 0.2;
    stroke-linejoin: round;
    stroke-linecap: round;
    fill: none;
    stroke:#333;
}
.path_contour {
    stroke: #ddd;
    fill-opacity: 1;
    fill: #eee;
    stroke-width: 0.3;
}
.text{
    text-anchor: middle;
    dominant-baseline: middle;
    font-family: sans-serif;
    font-size: 1.5mm;
}
.smalltext{
    text-anchor: middle;
    dominant-baseline: middle;
    font-family: sans-serif;
    font-size: 1mm;
}
.color_0 {
    stroke:#148983;
}
.dot_0 {
    marker-start:url(#dot_0);
    marker-mid:url(#dot_0);
    marker-end:url(#dot_0);
}
]]></style>
        <marker id="dot_0" markerHeight="3.0" markerWidth="3.0" refX="1.5" refY="1.5">
            <circle cx="1.5" cy="1.5" fill="#148983" r="1.5"/>
        </marker>
    </defs>
    <g>
        <path class="stitch_line color_0 dot_0" d="M 8.882, 27.236  L 11.295, 27.791  L 13.733, 28.135  L 16.185, 28.270  L 18.637, 28.200  L 21.078, 27.930  L 23.496, 27.465  L 25.881, 26.812  L 27.654, 28.311  L 29.456, 29.876  L 31.298, 31.502  L 33.186, 33.186  L 35.127, 34.922  L 37.127, 36.707  L 39.191, 38.535  L 41.518, 37.317  L 43.783, 35.954  L 45.984, 34.454  L 48.117, 32.826  L 50.182, 31.079  L 52.180, 29.220  L 54.110, 27.259  L 56.247, 28.814  L 58.452, 30.399  L 60.723, 32.008  L 63.057, 33.637  L 65.451, 35.283  L 67.902, 36.942  L 70.405, 38.611  L 72.270, 36.348  L 74.081, 34.024  L 75.842, 31.643  L 77.559, 29.212  L 79.236, 26.739  L 80.880, 24.227  L 82.494, 21.684  L 85.041, 23.224  L 87.619, 24.771  L 90.221, 26.322  L 92.842, 27.876  L 95.476, 29.432  L 98.117, 30.987  L 100.759, 32.540  L 102.357, 29.932  L 103.953, 27.323  L 105.551, 24.719  L 107.158, 22.124  L 108.780, 19.543  L 110.423, 16.983  L 112.093, 14.448  L 114.723, 16.037  L 117.328, 17.624  L 119.902, 19.209  L 122.441, 20.788  L 124.938, 22.358  L 127.390, 23.919  L 129.790, 25.466  L 131.499, 23.094  L 133.259, 20.782  L 135.072, 18.536  L 136.943, 16.363  L 138.875, 14.270  L 140.872, 12.264  L 142.935, 10.353  L 145.272, 12.095  L 147.543, 13.815  L 149.747, 15.510  L 151.883, 17.174  L 153.951, 18.802  L 155.953, 20.390  L 157.890, 21.932  L 160.027, 20.434  L 162.229, 19.075  L 164.493, 17.866  L 166.814, 16.814  L 169.187, 15.928  L 171.604, 15.216  L 174.056, 14.686  L 175.932, 16.555  L 177.768, 18.366  L 179.575, 20.115  L 181.363, 21.800  L 183.143, 23.419  L 184.928, 24.971  L 186.730, 26.456  L 189.201, 26.597  L 187.388, 25.040  L 185.597, 23.418  L 183.815, 21.730  L 182.029, 19.977  L 180.228, 18.160  L 178.400, 16.281  L 175.932, 16.555  L 173.486, 17.020  L 171.074, 17.670  L 168.702, 18.498  L 166.380, 19.496  L 164.113, 20.655  L 161.907, 21.967  L 160.027, 20.434  L 158.087, 18.849  L 156.085, 17.218  L 154.016, 15.546  L 151.880, 13.838  L 149.676, 12.098  L 147.405, 10.333  L 145.272, 12.095  L 143.207, 13.964  L 141.210, 15.933  L 139.277, 17.992  L 137.406, 20.136  L 135.595, 22.356  L 133.839, 24.645  L 131.499, 23.094  L 129.103, 21.528  L 126.654, 19.948  L 124.158, 18.357  L 121.618, 16.759  L 119.041, 15.156  L 116.432, 13.550  L 114.723, 16.037  L 113.048, 18.557  L 111.402, 21.106  L 109.779, 23.678  L 108.173, 26.268  L 106.578, 28.869  L 104.988, 31.478  L 102.357, 29.932  L 99.720, 28.383  L 97.082, 26.832  L 94.449, 25.281  L 91.827, 23.732  L 89.222, 22.187  L 86.640, 20.647  L 85.041, 23.224  L 83.422, 25.777  L 81.776, 28.301  L 80.098, 30.791  L 78.382, 33.241  L 76.623, 35.644  L 74.816, 37.995  L 72.270, 36.348  L 69.770, 34.709  L 67.322, 33.080  L 64.928, 31.464  L 62.594, 29.864  L 60.321, 28.285  L 58.115, 26.730  L 56.247, 28.814  L 54.316, 30.808  L 52.318, 32.703  L 50.253, 34.490  L 48.120, 36.162  L 45.919, 37.711  L 43.651, 39.126  L 41.518, 37.317  L 39.451, 35.545  L 37.449, 33.816  L 35.507, 32.134  L 33.620, 30.504  L 31.782, 28.932  L 29.986, 27.422  L 27.654, 28.311  L 25.277, 29.023  L 22.864, 29.550  L 20.425, 29.885  L 17.971, 30.023  L 15.513, 29.959  L 13.064, 29.688  L 11.295, 27.791  L 9.521, 25.958  L 11.953, 26.376  L 14.403, 26.582  L 16.857, 26.581  L 19.303, 26.377  L 21.731, 25.975  L 23.496, 27.465  L 25.277, 29.023  L 27.084, 30.645  L 28.926, 32.330  L 30.813, 34.072  L 32.751, 35.867  L 34.747, 37.711  L 37.127, 36.707  L 39.451, 35.545  L 41.715, 34.234  L 43.915, 32.782  L 46.049, 31.198  L 48.114, 29.490  L 50.112, 27.667  L 52.180, 29.220  L 54.316, 30.808  L 56.520, 32.425  L 58.790, 34.067  L 61.125, 35.730  L 63.520, 37.410  L 65.974, 39.103  L 67.902, 36.942  L 69.770, 34.709  L 71.583, 32.410  L 73.346, 30.052  L 75.062, 27.642  L 76.736, 25.184  L 78.375, 22.686  L 80.880, 24.227  L 83.422, 25.777  L 85.996, 27.333  L 88.598, 28.894  L 91.220, 30.457  L 93.857, 32.020  L 96.503, 33.583  L 98.117, 30.987  L 99.720, 28.383  L 101.319, 25.775  L 102.918, 23.168  L 104.524, 20.568  L 106.143, 17.980  L 107.781, 15.409  L 110.423, 16.983  L 113.048, 18.557  L 115.650, 20.130  L 118.224, 21.699  L 120.764, 23.261  L 123.264, 24.816  L 125.719, 26.359  L 127.390, 23.919  L 129.103, 21.528  L 130.865, 19.193  L 132.678, 16.920  L 134.549, 14.717  L 136.480, 12.590  L 138.474, 10.547  L 140.872, 12.264  L 143.207, 13.964  L 145.478, 15.643  L 147.682, 17.297  L 149.818, 18.921  L 151.886, 20.510  L 153.886, 22.059  L 155.953, 20.390  L 158.087, 18.849  L 160.288, 17.444  L 162.551, 16.184  L 164.873, 15.078  L 167.249, 14.133  L 169.672, 13.359  L 171.604, 15.216  L 173.486, 17.020  L 175.328, 18.766  L 177.136, 20.450  L 178.922, 22.070  L 180.697, 23.623  L 182.471, 25.108  L 184.928, 24.971  L 187.388, 25.040  L 189.840, 25.319  L 188.047, 23.624  L 186.267, 21.865  L 184.487, 20.041  L 182.695, 18.153  L 180.228, 18.160  L 177.768, 18.366  L 175.328, 18.766  L 172.916, 19.355  L 170.544, 20.124  L 168.218, 21.068  L 165.946, 22.177  L 164.113, 20.655  L 162.229, 19.075  L 160.288, 17.444  L 158.285, 15.766  L 156.217, 14.046  L 154.081, 12.289  L 151.878, 10.501  L 149.676, 12.098  L 147.543, 13.815  L 145.478, 15.643  L 143.480, 17.575  L 141.548, 19.601  L 139.679, 21.715  L 137.870, 23.909  L 135.595, 22.356  L 133.259, 20.782  L 130.865, 19.193  L 128.417, 17.590  L 125.919, 15.976  L 123.377, 14.356  L 120.796, 12.731  L 119.041, 15.156  L 117.328, 17.624  L 115.650, 20.130  L 114.004, 22.667  L 112.381, 25.229  L 110.778, 27.813  L 109.188, 30.411  L 106.578, 28.869  L 103.953, 27.323  L 101.319, 25.775  L 98.681, 24.225  L 96.047, 22.677  L 93.422, 21.131  L 90.812, 19.589  L 89.222, 22.187  L 87.619, 24.771  L 85.996, 27.333  L 84.350, 29.870  L 82.672, 32.376  L 80.959, 34.844  L 79.204, 37.269  L 76.623, 35.644  L 74.081, 34.024  L 71.583, 32.410  L 69.135, 30.807  L 66.741, 29.218  L 64.405, 27.644  L 62.130, 26.091  L 60.321, 28.285  L 58.452, 30.399  L 56.520, 32.425  L 54.522, 34.357  L 52.457, 36.185  L 50.324, 37.902  L 48.122, 39.499  L 45.919, 37.711  L 43.783, 35.954  L 41.715, 34.234  L 39.712, 32.556  L 37.771, 30.925  L 35.887, 29.345  L 34.054, 27.823  L 31.782, 28.932  L 29.456, 29.876  L 27.084, 30.645  L 24.672, 31.234  L 22.232, 31.634  L 19.772, 31.840  L 17.305, 31.847  L 15.513, 29.959  L 13.733, 28.135  L 11.953, 26.376  L 10.160, 24.681  L 12.612, 24.960  L 15.072, 25.029  L 17.529, 24.892  L 19.303, 26.377  L 21.078, 27.930  L 22.864, 29.550  L 24.672, 31.234  L 26.514, 32.980  L 28.396, 34.784  L 30.328, 36.641  L 32.751, 35.867  L 35.127, 34.922  L 37.449, 33.816  L 39.712, 32.556  L 41.913, 31.151  L 44.047, 29.610  L 46.114, 27.941  L 48.114, 29.490  L 50.182, 31.079  L 52.318, 32.703  L 54.522, 34.357  L 56.793, 36.036  L 59.128, 37.736  L 61.526, 39.453  L 63.520, 37.410  L 65.451, 35.283  L 67.322, 33.080  L 69.135, 30.807  L 70.897, 28.472  L 72.610, 26.081  L 74.281, 23.641  L 76.736, 25.184  L 79.236, 26.739  L 81.776, 28.301  L 84.350, 29.870  L 86.952, 31.443  L 89.577, 33.017  L 92.219, 34.591  L 93.857, 32.020  L 95.476, 29.432  L 97.082, 26.832  L 98.681, 24.225  L 100.280, 21.617  L 101.883, 19.013  L 103.497, 16.417  L 106.143, 17.980  L 108.780, 19.543  L 111.402, 21.106  L 114.004, 22.667  L 116.578, 24.223  L 119.120, 25.773  L 121.625, 27.314  L 123.264, 24.816  L 124.938, 22.358  L 126.654, 19.948  L 128.417, 17.590  L 130.230, 15.291  L 132.098, 13.058  L 134.026, 10.897  L 136.480, 12.590  L 138.875, 14.270  L 141.210, 15.933  L 143.480, 17.575  L 145.684, 19.192  L 147.820, 20.780  L 149.888, 22.333  L 151.886, 20.510  L 153.951, 18.802  L 156.085, 17.218  L 158.285, 15.766  L 160.549, 14.455  L 162.873, 13.293  L 165.253, 12.289  L 167.249, 14.133  L 169.187, 15.928  L 171.074, 17.670  L 172.916, 19.355  L 174.723, 20.977  L 176.504, 22.535  L 178.269, 24.025  L 180.697, 23.623  L 183.143, 23.419  L 185.597, 23.418  L 188.047, 23.624  L 190.479, 24.042  L 188.705, 22.209  L 186.936, 20.312  L 184.487, 20.041  L 182.029, 19.977  L 179.575, 20.115  L 177.136, 20.450  L 174.723, 20.977  L 172.346, 21.689  L 170.014, 22.578  L 168.218, 21.068  L 166.380, 19.496  L 164.493, 17.866  L 162.551, 16.184  L 160.549, 14.455  L 158.482, 12.683  L 156.349, 10.874  L 154.081, 12.289  L 151.880, 13.838  L 149.747, 15.510  L 147.682, 17.297  L 145.684, 19.192  L 143.753, 21.186  L 141.885, 23.270  L 139.679, 21.715  L 137.406, 20.136  L 135.072, 18.536  L 132.678, 16.920  L 130.230, 15.291  L 127.730, 13.652  L 125.184, 12.005  L 123.377, 14.356  L 121.618, 16.759  L 119.902, 19.209  L 118.224, 21.699  L 116.578, 24.223  L 114.959, 26.776  L 113.360, 29.353  L 110.778, 27.813  L 108.173, 26.268  L 105.551, 24.719  L 102.918, 23.168  L 100.280, 21.617  L 97.643, 20.068  L 95.012, 18.522  L 93.422, 21.131  L 91.827, 23.732  L 90.221, 26.322  L 88.598, 28.894  L 86.952, 31.443  L 85.277, 33.963  L 83.568, 36.450  L 80.959, 34.844  L 78.382, 33.241  L 75.842, 31.643  L 73.346, 30.052  L 70.897, 28.472  L 68.501, 26.906  L 66.161, 25.355  L 64.405, 27.644  L 62.594, 29.864  L 60.723, 32.008  L 58.790, 34.067  L 56.793, 36.036  L 54.728, 37.905  L 52.595, 39.667  L 50.324, 37.902  L 48.120, 36.162  L 45.984, 34.454  L 43.915, 32.782  L 41.913, 31.151  L 39.973, 29.566  L 38.093, 28.033  L 35.887, 29.345  L 33.620, 30.504  L 31.298, 31.502  L 28.926, 32.330  L 26.514, 32.980  L 24.068, 33.445  L 21.600, 33.719  L 19.772, 31.840  L 17.971, 30.023  L 16.185, 28.270  L 14.403, 26.582  L 12.612, 24.960  L 10.799, 23.403  L 13.270, 23.544  L 15.072, 25.029  L 16.857, 26.581  L 18.637, 28.200  L 20.425, 29.885  L 22.232, 31.634  L 24.068, 33.445  L 25.944, 35.314  L 28.396, 34.784  L 30.813, 34.072  L 33.186, 33.186  L 35.507, 32.134  L 37.771, 30.925  L 39.973, 29.566  L 42.110, 28.068  L 44.047, 29.610  L 46.049, 31.198  L 48.117, 32.826  L 50.253, 34.490  L 52.457, 36.185  L 54.728, 37.905  L 57.065, 39.647  L 59.128, 37.736  L 61.125, 35.730  L 63.057, 33.637  L 64.928, 31.464  L 66.741, 29.218  L 68.501, 26.906  L 70.210, 24.534  L 72.610, 26.081  L 75.062, 27.642  L 77.559, 29.212  L 80.098, 30.791  L 82.672, 32.376  L 85.277, 33.963  L 87.907, 35.552  L 89.577, 33.017  L 91.220, 30.457  L 92.842, 27.876  L 94.449, 25.281  L 96.047, 22.677  L 97.643, 20.068  L 99.241, 17.460  L 101.883, 19.013  L 104.524, 20.568  L 107.158, 22.124  L 109.779, 23.678  L 112.381, 25.229  L 114.959, 26.776  L 117.506, 28.316  L 119.120, 25.773  L 120.764, 23.261  L 122.441, 20.788  L 124.158, 18.357  L 125.919, 15.976  L 127.730, 13.652  L 129.595, 11.389  L 132.098, 13.058  L 134.549, 14.717  L 136.943, 16.363  L 139.277, 17.992  L 141.548, 19.601  L 143.753, 21.186  L 145.890, 22.741  L 147.820, 20.780  L 149.818, 18.921  L 151.883, 17.174  L 154.016, 15.546  L 156.217, 14.046  L 158.482, 12.683  L 160.809, 11.465  L 162.873, 13.293  L 164.873, 15.078  L 166.814, 16.814  L 168.702, 18.498  L 170.544, 20.124  L 172.346, 21.689  L 174.119, 23.188  L 176.504, 22.535  L 178.922, 22.070  L 181.363, 21.800  L 183.815, 21.730  L 186.267, 21.865  L 188.705, 22.209  L 191.118, 22.764 "/>
    </g>
</svg>
