<?xml version="1.0" encoding="utf-8" ?>
<svg xmlns="http://www.w3.org/2000/svg" xmlns:ev="http://www.w3.org/2001/xml-events" xmlns:xlink="http://www.w3.org/1999/xlink" baseProfile="full" height="50mm" version="1.1" viewBox="0,0,200,50" width="200mm">
    <defs>
        <style type="text/css"><![CDATA[
.stitch_line {
    stroke-width: 0.3;
    stroke-linejoin: round;
    stroke-linecap: round;
    fill: none;
}
.path_center_line {
    fill: none;
    stroke:#808080;
    stroke-width: 0.2;
    stroke-linejoin: round;
    stroke-linecap: round;
}
.path_contour {
    fill: #808080;
    fill-opacity: 0.3;
    stroke: #808080;
    stroke-opacity: 1;
    stroke-width: 0.3;
}
.text{
    text-anchor: middle;
    dominant-baseline: middle;
    font-family: sans-serif;
    font-size: 1.5mm;
}
.smalltext{
    text-anchor: middle;
    dominant-baseline: middle;
    font-family: sans-serif;
    font-size: 1mm;
}
.color_0 {
    stroke:#3bb2d0;
}
.dot_0 {
    marker-start:url(#dot_0);
    marker-mid:url(#dot_0);
    marker-end:url(#dot_0);
}
]]></style>
        <marker id="dot_0" markerHeight="3.0" markerWidth="3.0" refX="1.5" refY="1.5">
            <circle cx="1.5" cy="1.5" fill="#3bb2d0" r="1.5"/>
        </marker>
    </defs>
    <g>
        <path class="stitch_line color_0 dot_0" d="M 10.897, 25.442  L 13.646, 26.655  L 16.436, 27.766  L 19.264, 28.771  L 22.125, 29.668  L 25.016, 30.456  L 27.933, 31.135  L 30.872, 31.704  L 33.827, 32.166  L 36.796, 32.523  L 39.774, 32.777  L 42.757, 32.931  L 45.744, 32.992  L 48.730, 32.962  L 51.714, 32.846  L 54.693, 32.651  L 57.667, 32.382  L 60.634, 32.043  L 63.593, 31.640  L 66.545, 31.179  L 69.488, 30.665  L 72.424, 30.104  L 75.353, 29.499  L 78.274, 28.857  L 81.190, 28.181  L 84.101, 27.477  L 87.007, 26.750  L 89.911, 26.003  L 92.812, 25.241  L 95.713, 24.469  L 98.614, 23.690  L 101.517, 22.909  L 104.424, 22.130  L 107.335, 21.358  L 110.252, 20.597  L 113.176, 19.851  L 116.108, 19.125  L 119.050, 18.423  L 122.002, 17.750  L 124.966, 17.112  L 127.942, 16.512  L 130.931, 15.956  L 133.934, 15.450  L 136.951, 14.999  L 139.981, 14.608  L 143.024, 14.284  L 146.080, 14.032  L 149.147, 13.858  L 152.224, 13.769  L 155.307, 13.768  L 158.395, 13.863  L 161.484, 14.057  L 164.570, 14.356  L 167.649, 14.762  L 170.715, 15.280  L 173.765, 15.910  L 176.792, 16.655  L 173.853, 15.791  L 170.882, 15.035  L 167.886, 14.386  L 164.868, 13.843  L 161.835, 13.404  L 158.790, 13.066  L 155.738, 12.824  L 152.683, 12.676  L 149.628, 12.615  L 146.577, 12.637  L 143.532, 12.736  L 140.494, 12.907  L 137.466, 13.145  L 134.449, 13.443  L 131.444, 13.797  L 128.450, 14.200  L 125.469, 14.649  L 122.500, 15.136  L 119.543, 15.659  L 116.597, 16.211  L 113.663, 16.787  L 110.740, 17.385  L 107.826, 17.998  L 104.922, 18.623  L 102.027, 19.255  L 99.140, 19.889  L 96.260, 20.523  L 93.386, 21.151  L 90.519, 21.770  L 87.657, 22.375  L 84.800, 22.962  L 81.947, 23.527  L 79.099, 24.066  L 76.255, 24.574  L 73.415, 25.047  L 70.580, 25.480  L 73.508, 24.944  L 76.438, 24.367  L 79.370, 23.752  L 82.307, 23.105  L 85.246, 22.430  L 88.191, 21.733  L 91.141, 21.018  L 94.097, 20.288  L 97.060, 19.550  L 100.032, 18.807  L 103.013, 18.065  L 106.005, 17.327  L 109.009, 16.598  L 112.026, 15.884  L 115.057, 15.188  L 118.104, 14.517  L 121.167, 13.875  L 124.248, 13.267  L 127.347, 12.700  L 124.293, 13.346  L 121.258, 14.031  L 118.243, 14.750  L 115.245, 15.497  L 112.263, 16.268  L 109.296, 17.058  L 106.342, 17.862  L 103.399, 18.675  L 100.467, 19.494  L 97.543, 20.313  L 94.626, 21.129  L 91.714, 21.936  L 88.806, 22.731  L 85.902, 23.510  L 82.999, 24.267  L 80.096, 24.998  L 77.193, 25.699  L 74.288, 26.366  L 71.381, 26.993  L 68.471, 27.575  L 65.558, 28.107  L 62.641, 28.585  L 59.721, 29.004  L 56.798, 29.357  L 53.872, 29.640  L 50.945, 29.848  L 48.017, 29.975  L 45.091, 30.016  L 42.168, 29.967  L 39.251, 29.824  L 36.342, 29.583  L 33.444, 29.239  L 30.560, 28.791  L 27.694, 28.236  L 24.850, 27.574  L 27.634, 28.365  L 30.449, 29.053  L 33.291, 29.637  L 36.158, 30.120  L 39.044, 30.504  L 41.946, 30.791  L 44.862, 30.984  L 47.789, 31.089  L 50.723, 31.108  L 53.662, 31.046  L 56.605, 30.909  L 59.549, 30.701  L 62.493, 30.428  L 65.436, 30.094  L 68.377, 29.706  L 71.316, 29.267  L 74.252, 28.784  L 77.186, 28.260  L 80.117, 27.701  L 83.047, 27.112  L 85.974, 26.496  L 88.900, 25.860  L 91.826, 25.207  L 94.751, 24.542  L 97.678, 23.868  L 100.607, 23.192  L 103.538, 22.516  L 106.472, 21.846  L 109.411, 21.185  L 112.355, 20.538  L 115.305, 19.911  L 118.262, 19.306  L 121.225, 18.730  L 124.197, 18.187  L 127.176, 17.682  L 130.163, 17.220  L 133.159, 16.807  L 136.162, 16.447  L 139.172, 16.146  L 142.189, 15.910  L 145.210, 15.745  L 148.235, 15.655  L 151.261, 15.646  L 154.285, 15.723  L 157.306, 15.892  L 160.318, 16.156  L 163.319, 16.520  L 166.305, 16.987  L 169.271, 17.559  L 172.212, 18.239  L 175.124, 19.027  L 178.003, 19.923  L 180.844, 20.926  L 183.643, 22.035  L 186.397, 23.247  L 189.103, 24.558  L 186.354, 23.345  L 183.564, 22.234  L 180.736, 21.229  L 177.875, 20.332  L 174.984, 19.544  L 172.067, 18.865  L 169.128, 18.296  L 166.173, 17.834  L 163.204, 17.477  L 160.226, 17.223  L 157.243, 17.069  L 154.256, 17.008  L 151.270, 17.038  L 148.286, 17.154  L 145.307, 17.349  L 142.333, 17.618  L 139.366, 17.957  L 136.407, 18.360  L 133.455, 18.821  L 130.512, 19.335  L 127.576, 19.896  L 124.647, 20.501  L 121.726, 21.143  L 118.810, 21.819  L 115.899, 22.523  L 112.993, 23.250  L 110.089, 23.997  L 107.188, 24.759  L 104.287, 25.531  L 101.386, 26.310  L 98.483, 27.091  L 95.576, 27.870  L 92.665, 28.642  L 89.748, 29.403  L 86.824, 30.149  L 83.892, 30.875  L 80.950, 31.577  L 77.998, 32.250  L 75.034, 32.888  L 72.058, 33.488  L 69.069, 34.044  L 66.066, 34.550  L 63.049, 35.001  L 60.019, 35.392  L 56.976, 35.716  L 53.920, 35.968  L 50.853, 36.142  L 47.776, 36.231  L 44.693, 36.232  L 41.605, 36.137  L 38.516, 35.943  L 35.430, 35.644  L 32.351, 35.238  L 29.285, 34.720  L 26.235, 34.090  L 23.208, 33.345  L 26.147, 34.209  L 29.118, 34.965  L 32.114, 35.614  L 35.132, 36.157  L 38.165, 36.596  L 41.210, 36.934  L 44.262, 37.176  L 47.317, 37.324  L 50.372, 37.385  L 53.423, 37.363  L 56.468, 37.264  L 59.506, 37.093  L 62.534, 36.855  L 65.551, 36.557  L 68.556, 36.203  L 71.550, 35.800  L 74.531, 35.351  L 77.500, 34.864  L 80.457, 34.341  L 83.403, 33.789  L 86.337, 33.213  L 89.260, 32.615  L 92.174, 32.002  L 95.078, 31.377  L 97.973, 30.745  L 100.860, 30.111  L 103.740, 29.477  L 106.614, 28.849  L 109.481, 28.230  L 112.343, 27.625  L 115.200, 27.038  L 118.053, 26.473  L 120.901, 25.934  L 123.745, 25.426  L 126.585, 24.953  L 129.420, 24.520  L 126.492, 25.056  L 123.562, 25.633  L 120.630, 26.248  L 117.693, 26.895  L 114.754, 27.570  L 111.809, 28.267  L 108.859, 28.982  L 105.903, 29.712  L 102.940, 30.450  L 99.968, 31.193  L 96.987, 31.935  L 93.995, 32.673  L 90.991, 33.402  L 87.974, 34.116  L 84.943, 34.812  L 81.896, 35.483  L 78.833, 36.125  L 75.752, 36.733  L 72.653, 37.300  L 75.707, 36.654  L 78.742, 35.969  L 81.757, 35.250  L 84.755, 34.503  L 87.737, 33.732  L 90.704, 32.942  L 93.658, 32.138  L 96.601, 31.325  L 99.533, 30.506  L 102.457, 29.687  L 105.374, 28.871  L 108.286, 28.064  L 111.194, 27.269  L 114.098, 26.490  L 117.001, 25.733  L 119.904, 25.002  L 122.807, 24.301  L 125.712, 23.634  L 128.619, 23.007  L 131.529, 22.425  L 134.442, 21.893  L 137.359, 21.415  L 140.279, 20.996  L 143.202, 20.643  L 146.128, 20.360  L 149.055, 20.152  L 151.983, 20.025  L 154.909, 19.984  L 157.832, 20.033  L 160.749, 20.176  L 163.658, 20.417  L 166.556, 20.761  L 169.440, 21.209  L 172.306, 21.764  L 175.150, 22.426  L 172.366, 21.635  L 169.551, 20.947  L 166.709, 20.363  L 163.842, 19.880  L 160.956, 19.496  L 158.054, 19.209  L 155.138, 19.016  L 152.211, 18.911  L 149.277, 18.892  L 146.338, 18.954  L 143.395, 19.091  L 140.451, 19.299  L 137.507, 19.572  L 134.564, 19.906  L 131.623, 20.294  L 128.684, 20.733  L 125.748, 21.216  L 122.814, 21.740  L 119.883, 22.299  L 116.953, 22.888  L 114.026, 23.504  L 111.100, 24.140  L 108.174, 24.793  L 105.249, 25.458  L 102.322, 26.132  L 99.393, 26.808  L 96.462, 27.484  L 93.528, 28.154  L 90.589, 28.815  L 87.645, 29.462  L 84.695, 30.089  L 81.738, 30.694  L 78.775, 31.270  L 75.803, 31.813  L 72.824, 32.318  L 69.837, 32.780  L 66.841, 33.193  L 63.838, 33.553  L 60.828, 33.854  L 57.811, 34.090  L 54.790, 34.255  L 51.765, 34.345  L 48.739, 34.354  L 45.715, 34.277  L 42.694, 34.108  L 39.682, 33.844  L 36.681, 33.480  L 33.695, 33.013  L 30.729, 32.441  L 27.788, 31.761  L 24.876, 30.973  L 21.997, 30.077  L 19.156, 29.074  L 16.357, 27.965  L 13.603, 26.753  L 10.897, 25.442 "/>
    </g>
</svg>
