<?xml version="1.0" encoding="utf-8" ?>
<svg xmlns="http://www.w3.org/2000/svg" xmlns:ev="http://www.w3.org/2001/xml-events" xmlns:xlink="http://www.w3.org/1999/xlink" baseProfile="full" height="50mm" version="1.1" viewBox="0,0,200,50" width="200mm">
    <defs>
        <style type="text/css"><![CDATA[
.stitch_line {
    stroke-width: 0.3;
    stroke-linejoin: round;
    stroke-linecap: round;
    fill: none;
}
.path_center_line {
    fill: none;
    stroke:#808080;
    stroke-width: 0.2;
    stroke-linejoin: round;
    stroke-linecap: round;
}
.path_contour {
    fill: #808080;
    fill-opacity: 0.3;
    stroke: #808080;
    stroke-opacity: 1;
    stroke-width: 0.3;
}
.text{
    text-anchor: middle;
    dominant-baseline: middle;
    font-family: sans-serif;
    font-size: 1.5mm;
}
.smalltext{
    text-anchor: middle;
    dominant-baseline: middle;
    font-family: sans-serif;
    font-size: 1mm;
}
.color_0 {
    stroke:#3bb2d0;
}
.dot_0 {
    marker-start:url(#dot_0);
    marker-mid:url(#dot_0);
    marker-end:url(#dot_0);
}
]]></style>
        <marker id="dot_0" markerHeight="3.0" markerWidth="3.0" refX="1.5" refY="1.5">
            <circle cx="1.5" cy="1.5" fill="#3bb2d0" r="1.5"/>
        </marker>
    </defs>
    <g>
        <path class="stitch_line color_0 dot_0" d="M 11.118, 22.764  L 11.558, 28.871  L 16.693, 24.605  L 17.132, 31.824  L 22.326, 26.047  L 22.972, 34.323  L 28.000, 27.088  L 29.030, 36.341  L 33.696, 27.738  L 35.251, 37.869  L 39.402, 28.018  L 41.576, 38.918  L 45.110, 27.955  L 47.953, 39.514  L 50.814, 27.585  L 54.336, 39.695  L 56.515, 26.945  L 60.689, 39.509  L 62.214, 26.073  L 66.988, 39.004  L 67.916, 25.009  L 73.220, 38.230  L 73.627, 23.790  L 79.377, 37.236  L 79.353, 22.453  L 85.458, 36.067  L 85.104, 21.035  L 91.465, 34.763  L 90.889, 19.569  L 97.404, 33.365  L 96.716, 18.091  L 103.284, 31.909  L 102.596, 16.635  L 109.111, 30.431  L 108.535, 15.237  L 114.896, 28.965  L 114.542, 13.933  L 120.647, 27.547  L 120.623, 12.764  L 126.373, 26.210  L 126.780, 11.770  L 132.084, 24.991  L 133.012, 10.996  L 137.786, 23.927  L 139.311, 10.491  L 143.485, 23.055  L 145.664, 10.305  L 149.186, 22.415  L 152.047, 10.486  L 154.890, 22.045  L 158.424, 11.082  L 160.598, 21.982  L 164.749, 12.131  L 166.304, 22.262  L 170.970, 13.659  L 172.000, 22.912  L 177.028, 15.677  L 177.674, 23.953  L 182.868, 18.176  L 183.307, 25.395  L 188.442, 21.129  L 188.882, 27.236 "/>
    </g>
</svg>
