<?xml version="1.0" encoding="utf-8" ?>
<svg xmlns="http://www.w3.org/2000/svg" xmlns:ev="http://www.w3.org/2001/xml-events" xmlns:xlink="http://www.w3.org/1999/xlink" baseProfile="full" height="50mm" version="1.1" viewBox="0,0,200,50" width="200mm">
    <defs>
        <style type="text/css"><![CDATA[
.stitch_line {
    stroke-width: 0.3;
    stroke-linejoin: round;
    stroke-linecap: round;
    fill: none;
}
.sampling_line {
    stroke:#148983;
    stroke-width: 0.5;
    fill: none;
}
.path_handle {
    stroke-width: 0.5;
    stroke-linejoin: round;
    stroke-linecap: round;
    fill:none;
    stroke: #808080;
    marker-start: url(#handles);
    marker-mid: url(#handles);
    marker-end: url(#handles);
}
.path_center_line {
    stroke-width: 0.5;
    stroke-linejoin: round;
    stroke-linecap: round;
    fill: none;
    stroke:#148983;
    stroke-dasharray: 2,1.5;
    stroke-dashoffset: 1;
}
.path_contour {
    stroke: #85c4c1;
    fill-opacity: 0;
    stroke-width: 0.3;
}
.path_direction_line {
    stroke-width: 0.05;
    fill: none;
    stroke: #85c4c1;
}
.text{
    text-anchor: middle;
    dominant-baseline: middle;
    font-family: sans-serif;
    font-size: 1.5mm;
}
.smalltext{
    text-anchor: middle;
    dominant-baseline: middle;
    font-family: sans-serif;
    font-size: 1mm;
}
.color_0 {
    stroke:#148983;
    marker-start:url(#dot_0);
    marker-mid:url(#dot_0);
    marker-end:url(#dot_0);
}
.color_1 {
    stroke:#1873ac;
    marker-start:url(#dot_1);
    marker-mid:url(#dot_1);
    marker-end:url(#dot_1);
}
.color_2 {
    stroke:#8c5290;
    marker-start:url(#dot_2);
    marker-mid:url(#dot_2);
    marker-end:url(#dot_2);
}
.color_3 {
    stroke:#61a09c;
    marker-start:url(#dot_3);
    marker-mid:url(#dot_3);
    marker-end:url(#dot_3);
}
.color_4 {
    stroke:#5ad2f4;
    marker-start:url(#dot_4);
    marker-mid:url(#dot_4);
    marker-end:url(#dot_4);
}
.color_5 {
    stroke:#0f6460;
    marker-start:url(#dot_5);
    marker-mid:url(#dot_5);
    marker-end:url(#dot_5);
}
.color_6 {
    stroke:#0f4668;
    marker-start:url(#dot_6);
    marker-mid:url(#dot_6);
    marker-end:url(#dot_6);
}
.color_7 {
    stroke:#543156;
    marker-start:url(#dot_7);
    marker-mid:url(#dot_7);
    marker-end:url(#dot_7);
}
.color_8 {
    stroke:#487673;
    marker-start:url(#dot_8);
    marker-mid:url(#dot_8);
    marker-end:url(#dot_8);
}
.color_9 {
    stroke:#0c8baf;
    marker-start:url(#dot_9);
    marker-mid:url(#dot_9);
    marker-end:url(#dot_9);
}
]]></style>
        <marker id="dot_0" markerHeight="3.0" markerWidth="3.0" refX="1.5" refY="1.5">
            <circle cx="1.5" cy="1.5" fill="#148983" r="1.5"/>
        </marker>
        <marker id="dot_1" markerHeight="3.0" markerWidth="3.0" refX="1.5" refY="1.5">
            <circle cx="1.5" cy="1.5" fill="#1873ac" r="1.5"/>
        </marker>
        <marker id="dot_2" markerHeight="3.0" markerWidth="3.0" refX="1.5" refY="1.5">
            <circle cx="1.5" cy="1.5" fill="#8c5290" r="1.5"/>
        </marker>
        <marker id="dot_3" markerHeight="3.0" markerWidth="3.0" refX="1.5" refY="1.5">
            <circle cx="1.5" cy="1.5" fill="#61a09c" r="1.5"/>
        </marker>
        <marker id="dot_4" markerHeight="3.0" markerWidth="3.0" refX="1.5" refY="1.5">
            <circle cx="1.5" cy="1.5" fill="#5ad2f4" r="1.5"/>
        </marker>
        <marker id="dot_5" markerHeight="3.0" markerWidth="3.0" refX="1.5" refY="1.5">
            <circle cx="1.5" cy="1.5" fill="#0f6460" r="1.5"/>
        </marker>
        <marker id="dot_6" markerHeight="3.0" markerWidth="3.0" refX="1.5" refY="1.5">
            <circle cx="1.5" cy="1.5" fill="#0f4668" r="1.5"/>
        </marker>
        <marker id="dot_7" markerHeight="3.0" markerWidth="3.0" refX="1.5" refY="1.5">
            <circle cx="1.5" cy="1.5" fill="#543156" r="1.5"/>
        </marker>
        <marker id="dot_8" markerHeight="3.0" markerWidth="3.0" refX="1.5" refY="1.5">
            <circle cx="1.5" cy="1.5" fill="#487673" r="1.5"/>
        </marker>
        <marker id="dot_9" markerHeight="3.0" markerWidth="3.0" refX="1.5" refY="1.5">
            <circle cx="1.5" cy="1.5" fill="#0c8baf" r="1.5"/>
        </marker>
    </defs>
    <g>
        <path class="stitch_line color_0" d="M 8.882, 27.236  L 9.441, 26.118  L 10.000, 25.000  L 10.559, 23.882  L 11.118, 22.764  L 14.162, 23.848  L 17.176, 24.790  L 20.161, 25.599  L 23.120, 26.280  L 22.560, 28.067  L 22.000, 29.853  L 21.440, 31.640  L 18.419, 30.472  L 15.412, 29.165  L 16.000, 27.707  L 19.000, 28.848  L 19.581, 27.223  L 16.588, 26.249  L 13.581, 25.137  L 13.000, 26.426  L 12.419, 27.715  L 11.838, 29.004  L 14.824, 30.623  L 17.839, 32.096  L 20.880, 33.426  L 23.947, 34.617  L 24.474, 32.673  L 25.000, 30.729  L 25.526, 28.785  L 26.053, 26.841  L 28.964, 27.289  L 31.855, 27.631  L 34.729, 27.871  L 37.589, 28.017  L 37.295, 30.525  L 37.000, 33.032  L 36.705, 35.540  L 33.635, 35.004  L 30.573, 34.351  L 31.000, 32.111  L 34.000, 32.627  L 34.365, 30.249  L 31.427, 29.871  L 28.482, 29.385  L 28.000, 31.480  L 27.518, 33.575  L 27.036, 35.671  L 30.145, 36.591  L 33.271, 37.382  L 36.411, 38.048  L 39.562, 38.593  L 39.781, 35.963  L 40.000, 33.333  L 40.219, 30.704  L 40.438, 28.074  L 43.279, 28.047  L 46.114, 27.941  L 48.946, 27.762  L 51.777, 27.513  L 51.889, 30.550  L 52.000, 33.587  L 52.111, 36.624  L 49.027, 36.603  L 45.943, 36.489  L 46.000, 33.640  L 49.000, 33.656  L 48.973, 30.709  L 46.057, 30.791  L 43.139, 30.790  L 43.000, 33.534  L 42.861, 36.278  L 42.721, 39.022  L 45.886, 39.339  L 49.054, 39.550  L 52.223, 39.660  L 55.390, 39.675  L 55.195, 36.556  L 55.000, 33.438  L 54.805, 30.319  L 54.610, 27.200  L 57.446, 26.826  L 60.288, 26.397  L 63.136, 25.916  L 65.993, 25.388  L 66.496, 28.764  L 67.000, 32.141  L 67.504, 35.517  L 64.432, 35.882  L 61.356, 36.180  L 61.000, 32.919  L 64.000, 32.560  L 63.568, 29.238  L 60.644, 29.658  L 57.723, 30.020  L 58.000, 33.213  L 58.277, 36.407  L 58.554, 39.601  L 61.712, 39.442  L 64.864, 39.204  L 68.007, 38.894  L 71.142, 38.517  L 70.571, 35.092  L 70.000, 31.667  L 69.429, 28.242  L 68.858, 24.817  L 71.734, 24.207  L 74.621, 23.563  L 77.520, 22.889  L 80.432, 22.190  L 81.216, 25.755  L 82.000, 29.320  L 82.784, 32.885  L 79.740, 33.502  L 76.689, 34.078  L 76.000, 30.573  L 79.000, 29.964  L 78.260, 26.427  L 75.311, 27.068  L 72.367, 27.675  L 73.000, 31.142  L 73.633, 34.610  L 74.266, 38.078  L 77.379, 37.583  L 80.480, 37.039  L 83.568, 36.450  L 86.644, 35.821  L 85.822, 32.233  L 85.000, 28.646  L 84.178, 25.058  L 83.356, 21.471  L 86.293, 20.735  L 89.244, 19.987  L 92.209, 19.233  L 95.188, 18.477  L 96.094, 22.113  L 97.000, 25.749  L 97.906, 29.385  L 94.895, 30.123  L 91.878, 30.848  L 91.000, 27.227  L 94.000, 26.493  L 93.105, 22.863  L 90.122, 23.607  L 87.147, 24.341  L 88.000, 27.947  L 88.853, 31.553  L 89.707, 35.159  L 92.756, 34.468  L 95.791, 33.754  L 98.812, 33.021  L 101.819, 32.276  L 100.910, 28.638  L 100.000, 25.000  L 99.090, 21.362  L 98.181, 17.724  L 101.188, 16.979  L 104.209, 16.246  L 107.244, 15.532  L 110.293, 14.841  L 111.147, 18.447  L 112.000, 22.053  L 112.853, 25.659  L 109.878, 26.393  L 106.895, 27.137  L 106.000, 23.507  L 109.000, 22.773  L 108.122, 19.152  L 105.105, 19.877  L 102.094, 20.615  L 103.000, 24.251  L 103.906, 27.887  L 104.812, 31.523  L 107.791, 30.767  L 110.756, 30.013  L 113.707, 29.265  L 116.644, 28.529  L 115.822, 24.942  L 115.000, 21.354  L 114.178, 17.767  L 113.356, 14.179  L 116.432, 13.550  L 119.520, 12.961  L 122.621, 12.417  L 125.734, 11.922  L 126.367, 15.390  L 127.000, 18.857  L 127.633, 22.325  L 124.689, 22.932  L 121.740, 23.573  L 121.000, 20.036  L 124.000, 19.427  L 123.311, 15.922  L 120.260, 16.498  L 117.216, 17.115  L 118.000, 20.680  L 118.784, 24.245  L 119.568, 27.810  L 122.480, 27.111  L 125.379, 26.437  L 128.266, 25.793  L 131.142, 25.183  L 130.571, 21.758  L 130.000, 18.333  L 129.429, 14.908  L 128.858, 11.483  L 131.993, 11.106  L 135.136, 10.796  L 138.288, 10.558  L 141.446, 10.399  L 141.723, 13.593  L 142.000, 16.787  L 142.277, 19.980  L 139.356, 20.342  L 136.432, 20.762  L 136.000, 17.440  L 139.000, 17.081  L 138.644, 13.820  L 135.568, 14.118  L 132.496, 14.483  L 133.000, 17.859  L 133.504, 21.236  L 134.007, 24.612  L 136.864, 24.084  L 139.712, 23.603  L 142.554, 23.174  L 145.390, 22.800  L 145.195, 19.681  L 145.000, 16.562  L 144.805, 13.444  L 144.610, 10.325  L 147.777, 10.340  L 150.946, 10.450  L 154.114, 10.661  L 157.279, 10.978  L 157.139, 13.722  L 157.000, 16.466  L 156.861, 19.210  L 153.943, 19.209  L 151.027, 19.291  L 151.000, 16.344  L 154.000, 16.360  L 154.057, 13.511  L 150.973, 13.397  L 147.889, 13.376  L 148.000, 16.413  L 148.111, 19.450  L 148.223, 22.487  L 151.054, 22.238  L 153.886, 22.059  L 156.721, 21.953  L 159.562, 21.926  L 159.781, 19.296  L 160.000, 16.667  L 160.219, 14.037  L 160.438, 11.407  L 163.589, 11.952  L 166.729, 12.618  L 169.855, 13.409  L 172.964, 14.329  L 172.482, 16.425  L 172.000, 18.520  L 171.518, 20.615  L 168.573, 20.129  L 165.635, 19.751  L 166.000, 17.373  L 169.000, 17.889  L 169.427, 15.649  L 166.365, 14.996  L 163.295, 14.460  L 163.000, 16.968  L 162.705, 19.475  L 162.411, 21.983  L 165.271, 22.129  L 168.145, 22.369  L 171.036, 22.711  L 173.947, 23.159  L 174.474, 21.215  L 175.000, 19.271  L 175.526, 17.327  L 176.053, 15.383  L 179.120, 16.574  L 182.161, 17.904  L 185.176, 19.377  L 188.162, 20.996  L 187.581, 22.285  L 187.000, 23.574  L 186.419, 24.863  L 183.412, 23.751  L 180.419, 22.777  L 181.000, 21.153  L 184.000, 22.293  L 184.588, 20.835  L 181.581, 19.528  L 178.560, 18.360  L 178.000, 20.147  L 177.440, 21.933  L 176.880, 23.720  L 179.839, 24.401  L 182.824, 25.210  L 185.838, 26.152  L 188.882, 27.236 "/>
    </g>
</svg>
