<?xml version="1.0" encoding="utf-8" ?>
<svg xmlns="http://www.w3.org/2000/svg" xmlns:ev="http://www.w3.org/2001/xml-events" xmlns:xlink="http://www.w3.org/1999/xlink" baseProfile="full" height="50mm" version="1.1" viewBox="0,0,200,50" width="200mm">
    <defs>
        <style type="text/css"><![CDATA[
.stitch_line {
    stroke-width: 0.3;
    stroke-linejoin: round;
    stroke-linecap: round;
    fill: none;
}
.path_center_line {
    fill: none;
    stroke:#808080;
    stroke-width: 0.2;
    stroke-linejoin: round;
    stroke-linecap: round;
}
.path_contour {
    fill: #808080;
    fill-opacity: 0.3;
    stroke: #808080;
    stroke-opacity: 1;
    stroke-width: 0.3;
}
.text{
    text-anchor: middle;
    dominant-baseline: middle;
    font-family: sans-serif;
    font-size: 1.5mm;
}
.smalltext{
    text-anchor: middle;
    dominant-baseline: middle;
    font-family: sans-serif;
    font-size: 1mm;
}
.color_0 {
    stroke:#3bb2d0;
}
.dot_0 {
    marker-start:url(#dot_0);
    marker-mid:url(#dot_0);
    marker-end:url(#dot_0);
}
]]></style>
        <marker id="dot_0" markerHeight="3.0" markerWidth="3.0" refX="1.5" refY="1.5">
            <circle cx="1.5" cy="1.5" fill="#3bb2d0" r="1.5"/>
        </marker>
    </defs>
    <g>
        <path class="stitch_line color_0 dot_0" d="M 8.882, 27.236  L 10.547, 26.736  L 12.245, 26.081  L 13.968, 25.272  L 15.709, 24.310  L 10.839, 23.323  L 15.115, 25.702  L 10.280, 24.441  L 14.522, 27.093  L 9.720, 25.559  L 13.928, 28.485  L 9.161, 26.677  L 13.334, 29.877  L 15.075, 29.033  L 16.828, 28.035  L 18.586, 26.886  L 20.342, 25.586  L 15.412, 25.006  L 19.752, 27.246  L 14.818, 26.397  L 19.163, 28.906  L 14.225, 27.789  L 18.574, 30.565  L 13.631, 29.181  L 17.984, 32.225  L 19.758, 31.039  L 21.524, 29.702  L 23.275, 28.218  L 25.006, 26.589  L 20.047, 26.416  L 24.457, 28.507  L 19.458, 28.076  L 23.908, 30.425  L 18.868, 29.735  L 23.360, 32.343  L 18.279, 31.395  L 22.811, 34.261  L 24.575, 32.739  L 26.314, 31.073  L 28.021, 29.266  L 29.691, 27.322  L 24.731, 27.548  L 29.215, 29.484  L 24.183, 29.466  L 28.739, 31.646  L 23.634, 31.384  L 28.263, 33.809  L 23.085, 33.302  L 27.787, 35.971  L 29.504, 34.126  L 31.180, 32.145  L 32.810, 30.032  L 34.389, 27.792  L 29.453, 28.403  L 34.012, 30.181  L 28.977, 30.565  L 33.635, 32.570  L 28.501, 32.728  L 33.258, 34.959  L 28.025, 34.890  L 32.881, 37.348  L 34.519, 35.198  L 36.102, 32.922  L 37.628, 30.525  L 39.093, 28.012  L 34.201, 28.986  L 38.836, 30.608  L 33.824, 31.375  L 38.578, 33.203  L 33.447, 33.765  L 38.320, 35.799  L 33.070, 36.154  L 38.062, 38.395  L 39.593, 35.962  L 41.060, 33.415  L 42.463, 30.759  L 43.798, 27.998  L 38.964, 29.310  L 43.673, 30.779  L 38.707, 31.906  L 43.548, 33.560  L 38.449, 34.501  L 43.422, 36.342  L 38.191, 37.097  L 43.297, 39.123  L 44.702, 36.433  L 46.038, 33.641  L 47.305, 30.752  L 48.502, 27.770  L 43.736, 29.389  L 48.516, 30.714  L 43.610, 32.170  L 48.530, 33.659  L 43.485, 34.951  L 48.544, 36.604  L 43.360, 37.732  L 48.557, 39.548  L 49.825, 36.628  L 51.021, 33.618  L 52.147, 30.523  L 53.203, 27.347  L 48.509, 29.242  L 53.357, 30.434  L 48.523, 32.187  L 53.511, 33.521  L 48.537, 35.131  L 53.665, 36.608  L 48.550, 38.076  L 53.819, 39.695  L 54.943, 36.572  L 55.998, 33.371  L 56.984, 30.097  L 57.901, 26.752  L 53.280, 28.891  L 58.192, 29.962  L 53.434, 31.978  L 58.482, 33.171  L 53.588, 35.065  L 58.772, 36.380  L 53.742, 38.152  L 59.062, 39.589  L 60.045, 36.289  L 60.961, 32.923  L 61.812, 29.495  L 62.599, 26.007  L 58.046, 28.357  L 63.018, 29.319  L 58.337, 31.566  L 63.436, 32.632  L 58.627, 34.775  L 63.854, 35.945  L 58.917, 37.984  L 64.272, 39.258  L 65.120, 35.807  L 65.905, 32.300  L 66.631, 28.741  L 67.299, 25.132  L 62.808, 27.663  L 67.834, 28.531  L 63.227, 30.976  L 68.369, 31.931  L 63.645, 34.289  L 68.904, 35.330  L 64.063, 37.602  L 69.439, 38.730  L 70.161, 35.152  L 70.828, 31.527  L 71.441, 27.858  L 72.005, 24.149  L 67.567, 26.832  L 72.643, 27.620  L 68.102, 30.231  L 73.281, 31.091  L 68.637, 33.631  L 73.920, 34.562  L 69.172, 37.030  L 74.558, 38.033  L 75.168, 34.349  L 75.729, 30.626  L 76.246, 26.869  L 76.720, 23.080  L 72.324, 25.885  L 77.446, 26.608  L 72.962, 29.356  L 78.172, 30.136  L 73.600, 32.826  L 78.899, 33.664  L 74.239, 36.297  L 79.625, 37.192  L 80.138, 33.422  L 80.611, 29.622  L 81.046, 25.795  L 81.448, 21.944  L 77.083, 24.844  L 82.246, 25.516  L 77.809, 28.372  L 83.044, 29.088  L 78.535, 31.900  L 83.842, 32.661  L 79.262, 35.428  L 84.640, 36.233  L 85.073, 32.396  L 85.474, 28.537  L 85.847, 24.657  L 86.196, 20.760  L 81.847, 23.730  L 87.048, 24.365  L 82.645, 27.302  L 87.901, 27.970  L 83.443, 30.875  L 88.753, 31.575  L 84.241, 34.447  L 89.605, 35.180  L 89.976, 31.293  L 90.324, 27.391  L 90.654, 23.476  L 90.967, 19.549  L 86.622, 22.563  L 91.856, 23.176  L 87.474, 26.168  L 92.745, 26.802  L 88.327, 29.773  L 93.634, 30.428  L 89.179, 33.378  L 94.523, 34.054  L 94.850, 30.134  L 95.165, 26.205  L 95.469, 22.270  L 95.768, 18.330  L 91.412, 21.363  L 96.675, 21.967  L 92.301, 24.989  L 97.583, 25.604  L 93.190, 28.615  L 98.490, 29.241  L 94.079, 32.241  L 99.397, 32.877  L 99.700, 28.940  L 100.000, 25.000  L 100.300, 21.060  L 100.603, 17.123  L 96.222, 20.149  L 101.510, 20.759  L 97.129, 23.786  L 102.417, 24.396  L 98.036, 27.422  L 103.325, 28.033  L 98.943, 31.059  L 104.232, 31.670  L 104.531, 27.730  L 104.835, 23.795  L 105.150, 19.866  L 105.477, 15.946  L 101.057, 18.941  L 106.366, 19.572  L 101.964, 22.578  L 107.255, 23.198  L 102.871, 26.214  L 108.144, 26.824  L 103.778, 29.851  L 109.033, 30.451  L 109.346, 26.524  L 109.676, 22.609  L 110.024, 18.707  L 110.395, 14.820  L 105.921, 17.759  L 111.247, 18.425  L 106.810, 21.385  L 112.099, 22.030  L 107.699, 25.011  L 112.952, 25.635  L 108.588, 28.637  L 113.804, 29.240  L 114.153, 25.343  L 114.526, 21.463  L 114.927, 17.604  L 115.360, 13.767  L 110.821, 16.622  L 116.158, 17.339  L 111.673, 20.227  L 116.956, 20.912  L 112.526, 23.832  L 117.754, 24.484  L 113.378, 27.437  L 118.552, 28.056  L 118.954, 24.205  L 119.389, 20.378  L 119.862, 16.578  L 120.375, 12.808  L 115.759, 15.553  L 121.101, 16.336  L 116.557, 19.125  L 121.828, 19.864  L 117.355, 22.698  L 122.554, 23.392  L 118.153, 26.270  L 123.280, 26.920  L 123.754, 23.131  L 124.271, 19.374  L 124.832, 15.651  L 125.442, 11.967  L 120.738, 14.572  L 126.080, 15.438  L 121.465, 18.100  L 126.719, 18.909  L 122.191, 21.628  L 127.357, 22.380  L 122.917, 25.156  L 127.995, 25.851  L 128.559, 22.142  L 129.172, 18.473  L 129.839, 14.848  L 130.561, 11.270  L 125.761, 13.703  L 131.096, 14.670  L 126.400, 17.174  L 131.631, 18.069  L 127.038, 20.644  L 132.166, 21.469  L 127.676, 24.115  L 132.701, 24.868  L 133.369, 21.259  L 134.095, 17.700  L 134.880, 14.193  L 135.728, 10.742  L 130.828, 12.970  L 136.146, 14.055  L 131.363, 16.369  L 136.564, 17.368  L 131.898, 19.769  L 136.982, 20.681  L 132.433, 23.168  L 137.401, 23.993  L 138.188, 20.505  L 139.039, 17.077  L 139.955, 13.711  L 140.938, 10.411  L 135.937, 12.398  L 141.228, 13.620  L 136.355, 15.711  L 141.518, 16.829  L 136.773, 19.024  L 141.808, 20.038  L 137.192, 22.337  L 142.099, 23.248  L 143.016, 19.903  L 144.002, 16.629  L 145.057, 13.428  L 146.181, 10.305  L 141.083, 12.016  L 146.335, 13.392  L 141.373, 15.225  L 146.489, 16.479  L 141.663, 18.434  L 146.643, 19.566  L 141.954, 21.643  L 146.797, 22.653  L 147.853, 19.477  L 148.979, 16.382  L 150.175, 13.372  L 151.443, 10.452  L 146.258, 11.848  L 151.456, 13.396  L 146.412, 14.935  L 151.470, 16.341  L 146.566, 18.022  L 151.484, 19.286  L 146.720, 21.109  L 151.498, 22.230  L 152.695, 19.248  L 153.962, 16.359  L 155.298, 13.567  L 156.703, 10.877  L 151.450, 11.924  L 156.578, 13.658  L 151.463, 14.869  L 156.452, 16.440  L 151.477, 17.813  L 156.327, 19.221  L 151.491, 20.758  L 156.202, 22.002  L 157.537, 19.241  L 158.940, 16.585  L 160.407, 14.038  L 161.938, 11.605  L 156.640, 12.268  L 161.680, 14.201  L 156.515, 15.049  L 161.422, 16.797  L 156.390, 17.830  L 161.164, 19.392  L 156.264, 20.611  L 160.907, 21.988  L 162.372, 19.475  L 163.898, 17.078  L 165.481, 14.802  L 167.119, 12.652  L 161.809, 12.903  L 166.742, 15.041  L 161.551, 15.499  L 166.365, 17.430  L 161.293, 18.094  L 165.988, 19.819  L 161.036, 20.690  L 165.611, 22.208  L 167.190, 19.968  L 168.820, 17.855  L 170.496, 15.874  L 172.213, 14.029  L 166.930, 13.846  L 171.737, 16.191  L 166.553, 16.235  L 171.261, 18.354  L 166.176, 18.625  L 170.785, 20.516  L 165.799, 21.014  L 170.309, 22.678  L 171.979, 20.734  L 173.686, 18.927  L 175.425, 17.261  L 177.189, 15.739  L 171.975, 15.110  L 176.640, 17.657  L 171.499, 17.272  L 176.092, 19.575  L 171.023, 19.435  L 175.543, 21.493  L 170.547, 21.597  L 174.994, 23.411  L 176.725, 21.782  L 178.476, 20.298  L 180.242, 18.961  L 182.016, 17.775  L 176.915, 16.698  L 181.426, 19.435  L 176.366, 18.616  L 180.837, 21.094  L 175.817, 20.534  L 180.248, 22.754  L 175.269, 22.452  L 179.658, 24.414  L 181.414, 23.114  L 183.172, 21.965  L 184.925, 20.967  L 186.666, 20.123  L 181.721, 18.605  L 186.072, 21.515  L 181.132, 20.265  L 185.478, 22.907  L 180.542, 21.924  L 184.885, 24.298  L 179.953, 23.584  L 184.291, 25.690  L 186.032, 24.728  L 187.755, 23.919  L 189.453, 23.264  L 191.118, 22.764  L 186.369, 20.819  L 190.559, 23.882  L 185.775, 22.211  L 190.000, 25.000  L 185.182, 23.603  L 189.441, 26.118  L 184.588, 24.994  L 188.882, 27.236 "/>
    </g>
</svg>
