<?xml version="1.0" encoding="utf-8" ?>
<svg xmlns="http://www.w3.org/2000/svg" xmlns:ev="http://www.w3.org/2001/xml-events" xmlns:xlink="http://www.w3.org/1999/xlink" baseProfile="full" height="50mm" version="1.1" viewBox="0,0,200,50" width="200mm">
    <defs>
        <style type="text/css"><![CDATA[
.stitch_line {
    stroke-width: 0.3;
    stroke-linejoin: round;
    stroke-linecap: round;
    fill: none;
}
.path_center_line {
    stroke-width: 0.2;
    stroke-linejoin: round;
    stroke-linecap: round;
    fill: none;
    stroke:#333;
}
.path_contour {
    stroke: #ddd;
    fill-opacity: 1;
    fill: #eee;
    stroke-width: 0.3;
}
.text{
    text-anchor: middle;
    dominant-baseline: middle;
    font-family: sans-serif;
    font-size: 1.5mm;
}
.smalltext{
    text-anchor: middle;
    dominant-baseline: middle;
    font-family: sans-serif;
    font-size: 1mm;
}
.color_0 {
    stroke:#148983;
}
.dot_0 {
    marker-start:url(#dot_0);
    marker-mid:url(#dot_0);
    marker-end:url(#dot_0);
}
]]></style>
        <marker id="dot_0" markerHeight="3.0" markerWidth="3.0" refX="1.5" refY="1.5">
            <circle cx="1.5" cy="1.5" fill="#148983" r="1.5"/>
        </marker>
    </defs>
    <g>
        <path class="stitch_line color_0 dot_0" d="M 11.118, 22.764  L 14.113, 23.831  L 17.078, 24.762  L 20.015, 25.562  L 22.926, 26.239  L 25.813, 26.800  L 28.678, 27.250  L 31.524, 27.597  L 34.353, 27.845  L 37.168, 28.001  L 39.972, 28.070  L 42.767, 28.058  L 45.557, 27.968  L 48.343, 27.806  L 51.127, 27.576  L 53.913, 27.282  L 56.702, 26.930  L 59.495, 26.522  L 62.295, 26.063  L 65.102, 25.557  L 67.918, 25.008  L 70.743, 24.421  L 73.579, 23.799  L 76.426, 23.147  L 79.285, 22.468  L 82.156, 21.768  L 85.039, 21.050  L 87.936, 20.319  L 90.846, 19.580  L 93.770, 18.836  L 96.707, 18.094  L 99.658, 17.356  L 102.623, 16.629  L 105.601, 15.916  L 108.592, 15.223  L 111.597, 14.555  L 114.615, 13.917  L 117.645, 13.314  L 120.688, 12.750  L 123.743, 12.232  L 126.809, 11.764  L 129.885, 11.353  L 132.971, 11.002  L 136.065, 10.718  L 139.168, 10.506  L 142.276, 10.371  L 145.389, 10.320  L 148.504, 10.356  L 151.621, 10.486  L 154.737, 10.715  L 157.849, 11.047  L 160.956, 11.488  L 164.053, 12.043  L 167.140, 12.714  L 170.213, 13.508  L 173.269, 14.427  L 176.305, 15.476  L 179.320, 16.656  L 182.310, 17.973  L 185.275, 19.428  L 188.211, 21.024  L 191.118, 22.764  L 190.373, 24.255  L 187.436, 22.739  L 184.490, 21.365  L 181.535, 20.128  L 178.571, 19.025  L 175.599, 18.050  L 172.620, 17.201  L 169.634, 16.473  L 166.642, 15.861  L 163.646, 15.361  L 160.646, 14.969  L 157.644, 14.679  L 154.639, 14.487  L 151.633, 14.389  L 148.627, 14.379  L 145.621, 14.452  L 142.617, 14.604  L 139.613, 14.830  L 136.612, 15.124  L 133.613, 15.482  L 130.617, 15.899  L 127.625, 16.369  L 124.636, 16.888  L 121.650, 17.451  L 118.669, 18.053  L 115.691, 18.689  L 112.718, 19.354  L 109.749, 20.042  L 106.785, 20.751  L 103.825, 21.474  L 100.870, 22.206  L 97.919, 22.944  L 94.973, 23.681  L 92.031, 24.415  L 89.094, 25.138  L 86.161, 25.848  L 83.232, 26.540  L 80.308, 27.208  L 77.388, 27.848  L 74.472, 28.455  L 71.559, 29.026  L 68.650, 29.555  L 65.744, 30.037  L 62.842, 30.469  L 59.941, 30.846  L 57.043, 31.163  L 54.146, 31.415  L 51.250, 31.599  L 48.355, 31.708  L 45.459, 31.740  L 42.562, 31.689  L 39.663, 31.551  L 36.761, 31.320  L 33.855, 30.992  L 30.945, 30.562  L 28.029, 30.024  L 25.107, 29.375  L 22.178, 28.607  L 19.240, 27.717  L 16.294, 26.699  L 13.338, 25.546  L 10.373, 24.255  L 9.627, 25.745  L 12.564, 27.261  L 15.510, 28.635  L 18.465, 29.872  L 21.429, 30.975  L 24.401, 31.950  L 27.380, 32.799  L 30.366, 33.527  L 33.358, 34.139  L 36.354, 34.639  L 39.354, 35.031  L 42.356, 35.321  L 45.361, 35.513  L 48.367, 35.611  L 51.373, 35.621  L 54.379, 35.548  L 57.383, 35.396  L 60.387, 35.170  L 63.388, 34.876  L 66.387, 34.518  L 69.383, 34.101  L 72.375, 33.631  L 75.364, 33.112  L 78.350, 32.549  L 81.331, 31.947  L 84.309, 31.311  L 87.282, 30.646  L 90.251, 29.958  L 93.215, 29.249  L 96.175, 28.526  L 99.130, 27.794  L 102.081, 27.056  L 105.027, 26.319  L 107.969, 25.585  L 110.906, 24.862  L 113.839, 24.152  L 116.768, 23.460  L 119.692, 22.792  L 122.612, 22.152  L 125.528, 21.545  L 128.441, 20.974  L 131.350, 20.445  L 134.256, 19.963  L 137.158, 19.531  L 140.059, 19.154  L 142.957, 18.837  L 145.854, 18.585  L 148.750, 18.401  L 151.645, 18.292  L 154.541, 18.260  L 157.438, 18.311  L 160.337, 18.449  L 163.239, 18.680  L 166.145, 19.008  L 169.055, 19.438  L 171.971, 19.976  L 174.893, 20.625  L 177.822, 21.393  L 180.760, 22.283  L 183.706, 23.301  L 186.662, 24.454  L 189.627, 25.745  L 188.882, 27.236  L 185.887, 26.169  L 182.922, 25.238  L 179.985, 24.438  L 177.074, 23.761  L 174.187, 23.200  L 171.322, 22.750  L 168.476, 22.403  L 165.647, 22.155  L 162.832, 21.999  L 160.028, 21.930  L 157.233, 21.942  L 154.443, 22.032  L 151.657, 22.194  L 148.873, 22.424  L 146.087, 22.718  L 143.298, 23.070  L 140.505, 23.478  L 137.705, 23.937  L 134.898, 24.443  L 132.082, 24.992  L 129.257, 25.579  L 126.421, 26.201  L 123.574, 26.853  L 120.715, 27.532  L 117.844, 28.232  L 114.961, 28.950  L 112.064, 29.681  L 109.154, 30.420  L 106.230, 31.164  L 103.293, 31.906  L 100.342, 32.644  L 97.377, 33.371  L 94.399, 34.084  L 91.408, 34.777  L 88.403, 35.445  L 85.385, 36.083  L 82.355, 36.686  L 79.312, 37.250  L 76.257, 37.768  L 73.191, 38.236  L 70.115, 38.647  L 67.029, 38.998  L 63.935, 39.282  L 60.832, 39.494  L 57.724, 39.629  L 54.611, 39.680  L 51.496, 39.644  L 48.379, 39.514  L 45.263, 39.285  L 42.151, 38.953  L 39.044, 38.512  L 35.947, 37.957  L 32.860, 37.286  L 29.787, 36.492  L 26.731, 35.573  L 23.695, 34.524  L 20.680, 33.344  L 17.690, 32.027  L 14.725, 30.572  L 11.789, 28.976  L 8.882, 27.236 "/>
    </g>
</svg>
