<?xml version="1.0" encoding="utf-8" ?>
<svg xmlns="http://www.w3.org/2000/svg" xmlns:ev="http://www.w3.org/2001/xml-events" xmlns:xlink="http://www.w3.org/1999/xlink" baseProfile="full" height="50mm" version="1.1" viewBox="0,0,200,50" width="200mm">
    <defs>
        <style type="text/css"><![CDATA[
.stitch_line {
    stroke-width: 0.3;
    stroke-linejoin: round;
    stroke-linecap: round;
    fill: none;
}
.path_center_line {
    stroke-width: 0.2;
    stroke-linejoin: round;
    stroke-linecap: round;
    fill: none;
    stroke:#333;
}
.path_contour {
    stroke: #ddd;
    fill-opacity: 1;
    fill: #eee;
    stroke-width: 0.3;
}
.text{
    text-anchor: middle;
    dominant-baseline: middle;
    font-family: sans-serif;
    font-size: 1.5mm;
}
.smalltext{
    text-anchor: middle;
    dominant-baseline: middle;
    font-family: sans-serif;
    font-size: 1mm;
}
.color_0 {
    stroke:#148983;
}
.dot_0 {
    marker-start:url(#dot_0);
    marker-mid:url(#dot_0);
    marker-end:url(#dot_0);
}
]]></style>
        <marker id="dot_0" markerHeight="3.0" markerWidth="3.0" refX="1.5" refY="1.5">
            <circle cx="1.5" cy="1.5" fill="#148983" r="1.5"/>
        </marker>
    </defs>
    <g>
        <path class="stitch_line color_0 dot_0" d="M 11.891, 26.569  L 14.619, 28.402  L 17.509, 29.793  L 20.451, 30.953  L 23.385, 32.051  L 26.357, 32.925  L 29.406, 33.333  L 32.476, 33.377  L 35.468, 33.613  L 38.419, 33.989  L 41.373, 34.245  L 44.333, 34.212  L 47.283, 33.793  L 50.200, 33.007  L 53.064, 31.872  L 55.865, 30.483  L 58.638, 29.291  L 61.444, 28.639  L 64.284, 28.230  L 67.147, 27.876  L 70.036, 27.575  L 72.973, 27.417  L 75.945, 27.319  L 78.844, 26.755  L 81.622, 25.585  L 84.398, 24.397  L 87.258, 23.551  L 90.072, 22.472  L 92.783, 20.950  L 95.526, 19.529  L 98.352, 18.410  L 101.223, 17.425  L 104.123, 16.516  L 107.070, 15.759  L 110.060, 15.146  L 113.086, 14.669  L 116.142, 14.317  L 119.228, 14.111  L 122.330, 14.023  L 125.438, 14.024  L 128.542, 14.091  L 131.627, 14.160  L 134.709, 14.352  L 137.812, 14.940  L 140.912, 15.929  L 143.969, 17.189  L 146.930, 17.989  L 149.815, 17.734  L 152.711, 17.022  L 155.642, 16.473  L 158.582, 16.417  L 161.520, 16.617  L 164.470, 16.849  L 167.420, 17.231  L 170.293, 18.120  L 173.143, 19.106  L 176.184, 19.453  L 179.414, 19.455  L 182.640, 19.806  L 185.733, 20.754  L 188.721, 22.113  L 189.782, 22.459  L 186.966, 20.646  L 184.075, 19.060  L 181.138, 17.648  L 178.191, 16.318  L 175.215, 15.118  L 172.202, 14.093  L 169.163, 13.223  L 166.109, 12.476  L 163.041, 11.850  L 159.963, 11.345  L 156.877, 10.965  L 153.787, 10.718  L 150.698, 10.606  L 147.614, 10.632  L 144.537, 10.742  L 141.462, 10.851  L 138.386, 10.987  L 135.322, 11.246  L 132.276, 11.649  L 129.274, 12.304  L 126.296, 13.057  L 123.284, 13.592  L 120.241, 13.977  L 117.214, 14.443  L 114.298, 15.400  L 111.573, 17.138  L 108.978, 19.338  L 106.418, 21.608  L 103.819, 23.679  L 101.189, 25.609  L 98.480, 27.220  L 95.576, 28.062  L 92.488, 28.156  L 89.425, 28.330  L 86.421, 28.716  L 83.376, 28.881  L 80.346, 29.049  L 77.382, 29.454  L 74.462, 30.019  L 71.545, 30.552  L 68.616, 30.960  L 65.703, 31.395  L 62.834, 32.129  L 59.951, 32.787  L 57.027, 33.041  L 54.103, 33.225  L 51.202, 34.047  L 48.265, 35.600  L 45.246, 36.834  L 42.185, 37.328  L 39.147, 36.962  L 36.225, 35.591  L 33.432, 33.740  L 30.694, 32.026  L 27.984, 30.464  L 25.215, 29.281  L 22.335, 28.449  L 19.361, 27.758  L 16.371, 26.917  L 13.476, 25.678  L 11.658, 24.544  L 14.647, 25.631  L 17.588, 26.650  L 20.535, 27.477  L 23.547, 27.902  L 26.526, 28.177  L 29.444, 28.431  L 32.340, 28.535  L 35.191, 28.629  L 38.009, 28.729  L 40.816, 28.709  L 43.614, 28.538  L 46.402, 28.121  L 49.170, 27.756  L 51.934, 27.497  L 54.699, 27.189  L 57.468, 26.823  L 60.242, 26.404  L 63.022, 25.936  L 65.810, 25.424  L 68.612, 24.897  L 71.439, 24.419  L 74.274, 23.877  L 77.103, 23.210  L 79.948, 22.545  L 82.841, 22.016  L 85.778, 21.598  L 88.710, 21.075  L 91.643, 20.495  L 94.605, 19.978  L 97.567, 19.414  L 100.461, 18.537  L 103.323, 17.496  L 106.179, 16.390  L 109.084, 15.440  L 112.065, 14.780  L 115.091, 14.288  L 118.117, 13.795  L 121.121, 13.185  L 124.130, 12.585  L 127.182, 12.203  L 130.266, 12.035  L 133.350, 11.926  L 136.425, 11.825  L 139.482, 11.630  L 142.524, 11.280  L 145.574, 10.918  L 148.641, 10.628  L 151.727, 10.629  L 154.814, 10.896  L 157.886, 11.436  L 160.905, 12.453  L 163.841, 13.868  L 166.728, 15.250  L 169.574, 16.603  L 172.353, 18.089  L 175.082, 19.635  L 177.852, 20.957  L 180.690, 22.101  L 183.551, 23.278  L 186.396, 24.606  L 187.089, 25.625  L 184.054, 24.772  L 181.117, 23.894  L 178.271, 22.930  L 175.511, 21.799  L 172.754, 20.686  L 169.931, 19.862  L 167.113, 19.038  L 164.316, 18.000  L 161.473, 17.086  L 158.570, 16.599  L 155.646, 16.371  L 152.717, 16.095  L 149.765, 15.317  L 146.767, 14.516  L 143.757, 14.215  L 140.784, 14.575  L 137.864, 15.387  L 134.884, 15.639  L 131.801, 15.285  L 128.635, 14.634  L 125.484, 14.272  L 122.485, 14.797  L 119.595, 15.853  L 116.737, 17.002  L 113.900, 18.208  L 111.027, 19.225  L 108.069, 19.873  L 105.023, 20.163  L 101.961, 20.387  L 99.004, 21.018  L 96.157, 22.063  L 93.312, 23.095  L 90.549, 24.438  L 88.044, 26.861  L 85.677, 29.956  L 83.131, 32.399  L 80.356, 33.918  L 77.487, 35.058  L 74.568, 36.010  L 71.575, 36.599  L 68.488, 36.588  L 65.330, 35.935  L 62.161, 34.828  L 59.022, 33.364  L 55.957, 31.776  L 52.996, 30.428  L 50.132, 29.664  L 47.316, 29.272  L 44.528, 28.897  L 41.759, 28.535  L 38.986, 28.334  L 36.191, 28.226  L 33.364, 28.158  L 30.487, 28.122  L 27.545, 28.101  L 24.563, 27.942  L 21.620, 27.401  L 18.708, 26.577  L 15.768, 25.653  L 12.834, 24.541  L 13.870, 24.800  L 16.779, 25.904  L 19.647, 26.958  L 22.444, 28.105  L 25.187, 29.381  L 28.003, 30.383  L 30.940, 30.763  L 33.910, 30.717  L 36.822, 30.733  L 39.670, 31.095  L 42.516, 31.531  L 45.382, 31.756  L 48.256, 31.653  L 51.119, 31.222  L 53.966, 30.727  L 56.817, 30.397  L 59.707, 30.384  L 62.701, 31.047  L 65.741, 31.663  L 68.662, 31.250  L 71.497, 30.282  L 74.351, 29.433  L 77.277, 28.937  L 80.131, 28.047  L 82.758, 26.129  L 85.311, 23.947  L 87.965, 22.229  L 90.753, 21.054  L 93.590, 20.048  L 96.478, 19.201  L 99.451, 18.655  L 102.438, 18.125  L 105.371, 17.347  L 108.273, 16.414  L 111.177, 15.450  L 114.180, 14.884  L 117.303, 14.851  L 120.449, 14.978  L 123.604, 15.236  L 126.752, 15.577  L 129.844, 15.757  L 132.909, 15.922  L 135.940, 16.029  L 138.940, 16.080  L 141.940, 16.356  L 144.909, 16.614  L 147.841, 16.580  L 150.768, 16.807  L 153.676, 17.310  L 156.557, 17.797  L 159.414, 18.359  L 162.242, 19.023  L 165.052, 19.707  L 167.872, 20.306  L 170.730, 20.776  L 173.618, 21.270  L 176.498, 21.948  L 179.340, 22.886  L 182.175, 23.962  L 185.079, 25.002  L 188.064, 26.034  L 186.228, 24.980  L 183.353, 23.768  L 180.472, 22.709  L 177.617, 21.703  L 174.840, 20.521  L 172.128, 19.055  L 169.333, 17.839  L 166.409, 17.264  L 163.471, 16.879  L 160.550, 16.438  L 157.609, 16.279  L 154.660, 16.672  L 151.741, 17.015  L 148.829, 16.997  L 145.910, 17.021  L 142.989, 17.158  L 140.044, 17.160  L 137.045, 16.884  L 134.050, 16.862  L 131.181, 17.767  L 128.424, 19.273  L 125.718, 20.929  L 122.923, 22.050  L 119.906, 22.127  L 116.801, 21.909  L 113.751, 22.023  L 110.885, 22.966  L 108.071, 24.131  L 105.043, 24.438  L 101.823, 23.992  L 98.626, 23.652  L 95.383, 23.110  L 92.043, 22.127  L 88.788, 21.398  L 85.736, 21.417  L 82.847, 22.043  L 80.039, 22.961  L 77.235, 23.847  L 74.420, 24.625  L 71.647, 25.569  L 68.928, 26.812  L 66.275, 28.562  L 63.621, 30.568  L 60.898, 32.438  L 58.061, 33.651  L 55.133, 34.046  L 52.192, 34.275  L 49.248, 34.662  L 46.280, 35.297  L 43.256, 36.187  L 40.192, 36.670  L 37.148, 36.455  L 34.141, 35.816  L 31.141, 35.110  L 28.115, 34.466  L 25.121, 33.587  L 22.168, 32.487  L 19.189, 31.398  L 16.209, 30.208  L 13.265, 28.820  L 10.341, 27.284  L 11.215, 28.024  L 14.010, 29.859  L 16.888, 31.461  L 19.849, 32.786  L 22.845, 33.933  L 25.844, 35.005  L 28.868, 35.927  L 31.944, 36.506  L 35.069, 36.578  L 38.205, 36.122  L 41.276, 35.681  L 44.276, 35.770  L 47.267, 36.077  L 50.270, 36.418  L 53.284, 36.584  L 56.277, 36.263  L 59.217, 35.431  L 62.091, 34.228  L 64.876, 32.593  L 67.687, 31.385  L 70.642, 31.124  L 73.699, 31.329  L 76.764, 31.429  L 79.728, 30.943  L 82.585, 29.936  L 85.422, 28.847  L 88.219, 27.601  L 91.070, 26.580  L 93.975, 25.777  L 96.857, 24.871  L 99.694, 23.776  L 102.592, 22.919  L 105.582, 22.427  L 108.665, 22.326  L 111.771, 22.359  L 114.853, 22.350  L 117.928, 22.383  L 120.882, 21.950  L 123.673, 20.762  L 126.391, 19.155  L 129.128, 17.526  L 131.896, 15.908  L 134.692, 14.225  L 137.575, 12.891  L 140.558, 12.181  L 143.612, 12.176  L 146.687, 12.793  L 149.728, 13.504  L 152.732, 14.090  L 155.704, 14.777  L 158.664, 15.208  L 161.638, 15.439  L 164.622, 15.723  L 167.654, 15.856  L 170.759, 15.872  L 173.841, 16.272  L 176.857, 17.108  L 179.852, 18.124  L 182.884, 19.150  L 185.946, 20.247  L 188.931, 21.662  L 189.916, 22.182  L 187.015, 20.533  L 184.074, 19.063  L 181.106, 17.741  L 178.128, 16.528  L 175.116, 15.500  L 172.043, 14.815  L 168.891, 14.715  L 165.685, 15.374  L 162.493, 16.770  L 159.396, 18.588  L 156.457, 19.927  L 153.618, 20.701  L 150.820, 21.351  L 148.045, 21.952  L 145.276, 22.414  L 142.505, 22.870  L 139.742, 23.449  L 136.973, 24.028  L 134.188, 24.567  L 131.392, 25.126  L 128.585, 25.717  L 125.767, 26.337  L 122.937, 26.980  L 120.088, 27.619  L 117.200, 28.164  L 114.242, 28.490  L 111.194, 28.524  L 108.028, 28.165  L 104.769, 27.500  L 101.521, 26.935  L 98.306, 26.525  L 95.091, 26.105  L 91.893, 25.721  L 88.785, 25.656  L 85.804, 26.063  L 82.854, 26.556  L 79.826, 26.625  L 76.713, 26.162  L 73.656, 25.786  L 70.711, 25.808  L 67.831, 26.044  L 65.012, 26.525  L 62.229, 27.196  L 59.465, 28.007  L 56.693, 28.827  L 53.897, 29.485  L 51.091, 30.277  L 48.256, 31.500  L 45.349, 33.000  L 42.362, 34.230  L 39.364, 34.527  L 36.374, 34.383  L 33.339, 34.329  L 30.294, 34.077  L 27.303, 33.387  L 24.368, 32.380  L 21.409, 31.391  L 18.439, 30.333  L 15.496, 29.091  L 12.583, 27.668  L 10.699, 26.539  L 13.663, 27.901  L 16.622, 29.142  L 19.594, 30.219  L 22.595, 31.068  L 25.608, 31.711  L 28.587, 32.326  L 31.453, 33.397  L 34.278, 34.874  L 37.175, 36.206  L 40.150, 37.206  L 43.188, 37.650  L 46.242, 37.561  L 49.278, 37.270  L 52.292, 36.899  L 55.282, 36.406  L 58.254, 35.877  L 61.234, 35.517  L 64.256, 35.485  L 67.358, 35.879  L 70.477, 36.188  L 73.511, 35.876  L 76.492, 35.258  L 79.504, 34.793  L 82.614, 34.766  L 85.724, 34.696  L 88.705, 34.048  L 91.550, 32.853  L 94.309, 31.350  L 97.070, 29.898  L 99.971, 29.033  L 102.953, 28.519  L 105.913, 27.950  L 108.859, 27.358  L 111.915, 27.270  L 115.048, 27.598  L 118.103, 27.708  L 121.021, 27.318  L 123.871, 26.711  L 126.694, 26.052  L 129.495, 25.364  L 132.276, 24.626  L 135.053, 23.926  L 137.842, 23.385  L 140.626, 22.888  L 143.403, 22.385  L 146.183, 21.968  L 148.963, 21.564  L 151.749, 20.966  L 154.571, 20.009  L 157.468, 18.757  L 160.436, 17.713  L 163.439, 17.145  L 166.505, 16.661  L 169.631, 16.306  L 172.761, 16.340  L 175.846, 16.837  L 178.882, 17.682  L 181.899, 18.722  L 184.873, 19.994  L 187.840, 21.389  L 188.899, 21.729  L 185.979, 20.168  L 183.027, 18.767  L 180.071, 17.458  L 177.111, 16.223  L 174.121, 15.137  L 171.109, 14.185  L 168.095, 13.263  L 165.071, 12.377  L 162.012, 11.708  L 158.933, 11.232  L 155.845, 10.936  L 152.756, 10.873  L 149.676, 10.966  L 146.610, 11.140  L 143.559, 11.435  L 140.539, 11.976  L 137.575, 12.886  L 134.663, 14.009  L 131.762, 15.033  L 128.815, 15.693  L 125.906, 16.544  L 123.120, 17.989  L 120.394, 19.638  L 117.561, 20.728  L 114.486, 20.754  L 111.363, 20.640  L 108.437, 21.386  L 105.605, 22.520  L 102.752, 23.560  L 99.903, 24.614  L 97.084, 25.783  L 94.268, 26.964  L 91.461, 28.194  L 88.603, 29.216  L 85.718, 30.134  L 82.884, 31.283  L 80.038, 32.412  L 77.165, 33.442  L 74.243, 34.262  L 71.287, 34.910  L 68.334, 35.587  L 65.394, 36.407  L 62.426, 37.116  L 59.408, 37.460  L 56.368, 37.532  L 53.321, 37.385  L 50.288, 37.297  L 47.257, 37.357  L 44.224, 37.175  L 41.213, 36.610  L 38.242, 35.753  L 35.253, 35.208  L 32.201, 34.993  L 29.133, 34.651  L 26.035, 34.230  L 22.966, 33.511  L 19.985, 32.373  L 17.083, 30.937  L 14.242, 29.305  L 11.465, 27.488  L 9.445, 26.109 "/>
    </g>
</svg>
