<?xml version="1.0" encoding="utf-8" ?>
<svg xmlns="http://www.w3.org/2000/svg" xmlns:ev="http://www.w3.org/2001/xml-events" xmlns:xlink="http://www.w3.org/1999/xlink" baseProfile="full" height="50mm" version="1.1" viewBox="0,0,200,50" width="200mm">
    <defs>
        <style type="text/css"><![CDATA[
.stitch_line {
    stroke-width: 0.3;
    stroke-linejoin: round;
    stroke-linecap: round;
    fill: none;
}
.path_center_line {
    fill: none;
    stroke:#808080;
    stroke-width: 0.2;
    stroke-linejoin: round;
    stroke-linecap: round;
}
.path_contour {
    fill: #808080;
    fill-opacity: 0.3;
    stroke: #808080;
    stroke-opacity: 1;
    stroke-width: 0.3;
}
.text{
    text-anchor: middle;
    dominant-baseline: middle;
    font-family: sans-serif;
    font-size: 1.5mm;
}
.smalltext{
    text-anchor: middle;
    dominant-baseline: middle;
    font-family: sans-serif;
    font-size: 1mm;
}
.color_0 {
    stroke:#2e9a69;
}
.dot_0 {
    marker-start:url(#dot_0);
    marker-mid:url(#dot_0);
    marker-end:url(#dot_0);
}
]]></style>
        <marker id="dot_0" markerHeight="3.0" markerWidth="3.0" refX="1.5" refY="1.5">
            <circle cx="1.5" cy="1.5" fill="#2e9a69" r="1.5"/>
        </marker>
    </defs>
    <g>
        <path class="stitch_line color_0 dot_0" d="M 10.000, 25.000  L 12.728, 26.302  L 15.501, 27.504  L 18.318, 28.600  L 21.174, 29.590  L 24.065, 30.470  L 26.987, 31.246  L 29.935, 31.912  L 32.907, 32.470  L 35.896, 32.919  L 38.900, 33.264  L 41.914, 33.508  L 44.934, 33.654  L 47.958, 33.707  L 50.982, 33.672  L 54.004, 33.555  L 57.021, 33.359  L 60.034, 33.092  L 63.040, 32.759  L 66.038, 32.365  L 69.029, 31.915  L 72.011, 31.416  L 74.986, 30.872  L 77.953, 30.289  L 80.914, 29.671  L 83.867, 29.024  L 86.815, 28.352  L 89.759, 27.660  L 92.698, 26.953  L 95.635, 26.234  L 98.569, 25.509  L 101.503, 24.782  L 104.438, 24.057  L 107.373, 23.339  L 110.311, 22.631  L 113.253, 21.940  L 116.199, 21.268  L 119.150, 20.622  L 122.107, 20.005  L 125.070, 19.422  L 128.041, 18.879  L 131.019, 18.381  L 134.004, 17.932  L 136.997, 17.539  L 139.997, 17.206  L 143.002, 16.940  L 146.013, 16.745  L 149.027, 16.628  L 152.042, 16.593  L 155.056, 16.646  L 158.067, 16.791  L 161.071, 17.034  L 164.065, 17.378  L 167.044, 17.826  L 170.005, 18.382  L 172.942, 19.045  L 175.853, 19.819  L 172.941, 19.051  L 170.002, 18.393  L 167.041, 17.844  L 164.062, 17.401  L 161.068, 17.070  L 158.064, 16.841  L 155.055, 16.708  L 152.042, 16.668  L 149.029, 16.715  L 146.018, 16.846  L 143.011, 17.053  L 140.009, 17.332  L 137.014, 17.677  L 134.026, 18.083  L 131.045, 18.544  L 128.072, 19.054  L 125.106, 19.610  L 122.148, 20.204  L 119.195, 20.833  L 116.249, 21.492  L 113.308, 22.176  L 110.371, 22.879  L 107.437, 23.599  L 104.505, 24.329  L 101.574, 25.067  L 98.644, 25.806  L 95.712, 26.544  L 92.777, 27.275  L 89.839, 27.996  L 86.897, 28.701  L 83.949, 29.386  L 80.995, 30.046  L 78.033, 30.677  L 75.063, 31.274  L 72.085, 31.832  L 69.098, 32.345  L 66.102, 32.808  L 63.096, 33.216  L 60.082, 33.563  L 57.060, 33.844  L 54.030, 34.053  L 50.996, 34.184  L 47.957, 34.232  L 44.918, 34.192  L 41.880, 34.058  L 38.846, 33.826  L 35.822, 33.491  L 38.846, 33.832  L 41.879, 34.072  L 44.917, 34.213  L 47.957, 34.260  L 50.997, 34.219  L 54.033, 34.095  L 57.064, 33.893  L 60.089, 33.629  L 63.106, 33.299  L 66.116, 32.908  L 69.117, 32.461  L 72.109, 31.965  L 75.092, 31.424  L 78.067, 30.844  L 81.034, 30.229  L 83.994, 29.586  L 86.947, 28.917  L 89.895, 28.228  L 92.838, 27.525  L 95.778, 26.810  L 98.714, 26.089  L 101.649, 25.366  L 104.584, 24.646  L 107.519, 23.932  L 110.455, 23.230  L 113.394, 22.544  L 116.336, 21.878  L 119.283, 21.237  L 122.234, 20.625  L 125.191, 20.049  L 128.153, 19.512  L 131.122, 19.020  L 134.097, 18.577  L 137.077, 18.190  L 140.064, 17.863  L 143.054, 17.602  L 140.065, 17.873  L 137.080, 18.210  L 134.101, 18.608  L 131.128, 19.060  L 128.162, 19.563  L 125.202, 20.110  L 122.248, 20.696  L 119.300, 21.318  L 116.357, 21.968  L 113.418, 22.644  L 110.482, 23.341  L 107.548, 24.053  L 104.616, 24.776  L 101.684, 25.507  L 98.752, 26.240  L 95.817, 26.971  L 92.880, 27.695  L 89.939, 28.410  L 86.992, 29.108  L 84.040, 29.787  L 81.080, 30.442  L 78.113, 31.067  L 75.137, 31.658  L 72.152, 32.210  L 69.158, 32.717  L 66.154, 33.174  L 63.141, 33.576  L 60.118, 33.917  L 57.087, 34.192  L 60.117, 33.907  L 63.138, 33.556  L 66.150, 33.143  L 69.151, 32.676  L 72.143, 32.159  L 75.125, 31.597  L 78.098, 30.996  L 81.063, 30.361  L 84.019, 29.696  L 86.969, 29.008  L 89.912, 28.299  L 92.851, 27.575  L 95.785, 26.840  L 98.717, 26.099  L 101.647, 25.356  L 104.576, 24.616  L 107.506, 23.882  L 110.438, 23.160  L 113.373, 22.453  L 116.311, 21.767  L 119.254, 21.105  L 122.203, 20.473  L 125.157, 19.876  L 128.119, 19.318  L 131.087, 18.805  L 134.063, 18.342  L 137.046, 17.933  L 140.035, 17.585  L 143.031, 17.303  L 146.032, 17.103  L 149.036, 16.980  L 152.042, 16.940  L 155.046, 16.987  L 158.046, 17.126  L 161.040, 17.362  L 164.023, 17.699  L 161.041, 17.355  L 158.047, 17.112  L 155.047, 16.966  L 152.042, 16.912  L 149.035, 16.945  L 146.030, 17.062  L 143.027, 17.255  L 140.029, 17.519  L 137.036, 17.850  L 134.049, 18.242  L 131.069, 18.688  L 128.095, 19.185  L 125.129, 19.726  L 122.169, 20.307  L 119.215, 20.922  L 116.266, 21.567  L 113.322, 22.237  L 110.382, 22.927  L 107.445, 23.633  L 104.510, 24.350  L 101.576, 25.073  L 98.642, 25.800  L 95.707, 26.524  L 92.769, 27.241  L 89.828, 27.948  L 86.883, 28.640  L 83.932, 29.311  L 80.976, 29.958  L 78.012, 30.575  L 75.041, 31.158  L 72.062, 31.701  L 69.075, 32.200  L 66.079, 32.649  L 63.075, 33.043  L 60.063, 33.376  L 57.044, 33.643  L 54.019, 33.837  L 50.989, 33.954  L 47.958, 33.988  L 44.926, 33.934  L 41.897, 33.786  L 38.874, 33.541  L 35.861, 33.194  L 32.860, 32.748  L 29.878, 32.195  L 26.917, 31.532  L 23.984, 30.759  L 26.919, 31.526  L 29.880, 32.183  L 32.863, 32.731  L 35.864, 33.170  L 38.877, 33.505  L 41.900, 33.737  L 44.928, 33.872  L 47.958, 33.913  L 50.987, 33.866  L 54.013, 33.737  L 57.035, 33.529  L 60.050, 33.250  L 63.058, 32.905  L 66.057, 32.499  L 69.048, 32.037  L 72.031, 31.526  L 75.005, 30.970  L 77.971, 30.375  L 80.930, 29.746  L 83.882, 29.087  L 86.827, 28.404  L 89.768, 27.700  L 92.705, 26.981  L 95.639, 26.251  L 98.571, 25.515  L 101.502, 24.776  L 104.433, 24.040  L 107.366, 23.310  L 110.302, 22.591  L 113.241, 21.888  L 116.184, 21.205  L 119.134, 20.547  L 122.089, 19.918  L 125.051, 19.324  L 128.021, 18.769  L 130.999, 18.259  L 133.985, 17.798  L 136.979, 17.393  L 139.980, 17.048  L 142.989, 16.770  L 146.003, 16.563  L 149.021, 16.434  L 152.042, 16.387  L 155.063, 16.428  L 158.082, 16.562  L 161.094, 16.794  L 164.098, 17.127  L 167.087, 17.565  L 170.060, 18.111  L 173.010, 18.765  L 175.935, 19.530  L 178.826, 20.410  L 181.682, 21.400  L 184.499, 22.496  L 187.272, 23.698  L 190.000, 25.000 "/>
    </g>
</svg>
