<?xml version="1.0" encoding="utf-8" ?>
<svg xmlns="http://www.w3.org/2000/svg" xmlns:ev="http://www.w3.org/2001/xml-events" xmlns:xlink="http://www.w3.org/1999/xlink" baseProfile="full" height="50mm" version="1.1" viewBox="0,0,200,50" width="200mm">
    <defs>
        <style type="text/css"><![CDATA[
.stitch_line {
    stroke-width: 0.3;
    stroke-linejoin: round;
    stroke-linecap: round;
    fill: none;
}
.path_center_line {
    fill: none;
    stroke:#808080;
    stroke-width: 0.2;
    stroke-linejoin: round;
    stroke-linecap: round;
}
.path_contour {
    fill: #808080;
    fill-opacity: 0.3;
    stroke: #808080;
    stroke-opacity: 1;
    stroke-width: 0.3;
}
.text{
    text-anchor: middle;
    dominant-baseline: middle;
    font-family: sans-serif;
    font-size: 1.5mm;
}
.smalltext{
    text-anchor: middle;
    dominant-baseline: middle;
    font-family: sans-serif;
    font-size: 1mm;
}
.color_0 {
    stroke:#2e9a69;
}
.dot_0 {
    marker-start:url(#dot_0);
    marker-mid:url(#dot_0);
    marker-end:url(#dot_0);
}
]]></style>
        <marker id="dot_0" markerHeight="3.0" markerWidth="3.0" refX="1.5" refY="1.5">
            <circle cx="1.5" cy="1.5" fill="#2e9a69" r="1.5"/>
        </marker>
    </defs>
    <g>
        <path class="stitch_line color_0 dot_0" d="M 11.723, 26.491  L 14.259, 28.251  L 17.001, 29.602  L 19.835, 30.748  L 22.696, 31.850  L 25.630, 32.742  L 28.672, 33.177  L 31.762, 33.252  L 34.789, 33.519  L 37.789, 33.924  L 40.802, 34.205  L 43.831, 34.192  L 46.854, 33.789  L 49.845, 33.014  L 52.780, 31.885  L 55.649, 30.498  L 58.482, 29.306  L 61.342, 28.651  L 64.229, 28.238  L 67.131, 27.879  L 70.052, 27.572  L 73.013, 27.410  L 76.003, 27.308  L 78.912, 26.741  L 81.693, 25.569  L 84.466, 24.381  L 87.319, 23.537  L 90.121, 22.460  L 92.818, 20.941  L 95.544, 19.525  L 98.352, 18.410  L 101.205, 17.429  L 104.088, 16.525  L 107.020, 15.771  L 109.997, 15.161  L 113.016, 14.686  L 116.069, 14.333  L 119.158, 14.125  L 122.271, 14.035  L 125.396, 14.032  L 128.526, 14.094  L 131.644, 14.157  L 134.767, 14.344  L 137.919, 14.928  L 141.073, 15.914  L 144.190, 17.174  L 147.214, 17.976  L 150.168, 17.727  L 153.137, 17.026  L 156.141, 16.493  L 159.149, 16.457  L 162.146, 16.682  L 165.145, 16.942  L 168.129, 17.355  L 171.013, 18.272  L 173.851, 19.284  L 176.859, 19.650  L 180.028, 19.659  L 183.151, 19.998  L 186.097, 20.908  L 188.892, 22.193  L 189.879, 22.506  L 187.273, 20.780  L 184.548, 19.245  L 181.737, 17.856  L 178.876, 16.527  L 175.953, 15.314  L 172.961, 14.263  L 169.916, 13.363  L 166.834, 12.585  L 163.721, 11.928  L 160.583, 11.395  L 157.429, 10.993  L 154.265, 10.727  L 151.100, 10.603  L 147.941, 10.620  L 144.792, 10.726  L 141.650, 10.835  L 138.514, 10.974  L 135.397, 11.236  L 132.306, 11.644  L 129.267, 12.305  L 126.262, 13.063  L 123.229, 13.603  L 120.174, 13.991  L 117.141, 14.459  L 114.226, 15.416  L 111.508, 17.153  L 108.924, 19.351  L 106.377, 21.618  L 103.795, 23.685  L 101.183, 25.610  L 98.492, 27.216  L 95.606, 28.054  L 92.533, 28.145  L 89.483, 28.316  L 86.488, 28.700  L 83.447, 28.865  L 80.416, 29.034  L 77.444, 29.442  L 74.509, 30.010  L 71.570, 30.548  L 68.611, 30.961  L 65.660, 31.401  L 62.746, 32.140  L 59.810, 32.801  L 56.827, 33.057  L 53.839, 33.239  L 50.867, 34.056  L 47.852, 35.600  L 44.755, 36.820  L 41.618, 37.294  L 38.516, 36.903  L 35.547, 35.505  L 32.725, 33.625  L 29.976, 31.883  L 27.276, 30.295  L 24.538, 29.092  L 21.715, 28.251  L 18.829, 27.566  L 15.967, 26.754  L 13.245, 25.573  L 11.566, 24.499  L 14.355, 25.504  L 17.141, 26.475  L 19.974, 27.282  L 22.911, 27.708  L 25.849, 27.998  L 28.754, 28.275  L 31.659, 28.408  L 34.538, 28.531  L 37.399, 28.659  L 40.260, 28.664  L 43.120, 28.514  L 45.974, 28.112  L 48.809, 27.760  L 51.639, 27.508  L 54.469, 27.203  L 57.297, 26.838  L 60.125, 26.417  L 62.953, 25.945  L 65.783, 25.428  L 68.618, 24.896  L 71.472, 24.413  L 74.326, 23.867  L 77.166, 23.196  L 80.017, 22.530  L 82.910, 22.000  L 85.842, 21.583  L 88.763, 21.062  L 91.682, 20.486  L 94.628, 19.972  L 97.573, 19.412  L 100.449, 18.540  L 103.293, 17.503  L 106.134, 16.401  L 109.025, 15.454  L 111.997, 14.796  L 115.018, 14.304  L 118.046, 13.811  L 121.057, 13.198  L 124.081, 12.595  L 127.155, 12.207  L 130.270, 12.035  L 133.394, 11.920  L 136.516, 11.813  L 139.628, 11.615  L 142.733, 11.264  L 145.852, 10.903  L 148.993, 10.619  L 152.155, 10.629  L 155.317, 10.910  L 158.459, 11.471  L 161.540, 12.512  L 164.524, 13.954  L 167.443, 15.366  L 170.303, 16.748  L 173.075, 18.261  L 175.768, 19.826  L 178.477, 21.157  L 181.222, 22.294  L 183.953, 23.441  L 186.627, 24.710  L 187.252, 25.701  L 184.399, 24.917  L 181.601, 24.076  L 178.857, 23.125  L 176.166, 21.990  L 173.448, 20.860  L 170.636, 20.011  L 167.807, 19.159  L 164.982, 18.092  L 162.096, 17.151  L 159.135, 16.639  L 156.145, 16.390  L 153.147, 16.099  L 150.127, 15.310  L 147.060, 14.502  L 143.983, 14.199  L 140.947, 14.560  L 137.970, 15.374  L 134.941, 15.631  L 131.817, 15.283  L 128.618, 14.637  L 125.443, 14.280  L 122.425, 14.809  L 119.526, 15.868  L 116.664, 17.018  L 113.831, 18.224  L 110.966, 19.240  L 108.019, 19.885  L 104.988, 20.171  L 101.943, 20.391  L 99.004, 21.018  L 96.175, 22.059  L 93.347, 23.086  L 90.599, 24.426  L 88.105, 26.847  L 85.746, 29.940  L 83.203, 32.383  L 80.425, 33.903  L 77.546, 35.046  L 74.610, 36.002  L 71.592, 36.596  L 68.471, 36.590  L 65.271, 35.943  L 62.054, 34.841  L 58.861, 33.378  L 55.738, 31.791  L 52.716, 30.441  L 49.787, 29.671  L 46.906, 29.269  L 44.053, 28.878  L 41.224, 28.497  L 38.396, 28.273  L 35.555, 28.138  L 32.694, 28.041  L 29.800, 27.976  L 26.862, 27.929  L 23.911, 27.752  L 21.032, 27.205  L 18.221, 26.393  L 15.421, 25.507  L 12.670, 24.465  L 13.641, 24.697  L 16.381, 25.743  L 19.121, 26.768  L 21.826, 27.907  L 24.509, 29.192  L 27.296, 30.214  L 30.233, 30.622  L 33.229, 30.606  L 36.181, 30.652  L 39.079, 31.041  L 41.983, 31.499  L 44.915, 31.743  L 47.859, 31.653  L 50.792, 31.231  L 53.707, 30.741  L 56.622, 30.413  L 59.568, 30.398  L 62.614, 31.057  L 65.698, 31.669  L 68.658, 31.251  L 71.522, 30.277  L 74.398, 29.424  L 77.339, 28.924  L 80.201, 28.032  L 82.829, 26.113  L 85.377, 23.932  L 88.023, 22.215  L 90.797, 21.043  L 93.620, 20.041  L 96.490, 19.198  L 99.445, 18.656  L 102.414, 18.131  L 105.330, 17.357  L 108.219, 16.428  L 111.111, 15.466  L 114.109, 14.900  L 117.230, 14.866  L 120.382, 14.992  L 123.550, 15.246  L 126.718, 15.583  L 129.838, 15.758  L 132.938, 15.917  L 136.012, 16.020  L 139.064, 16.067  L 142.120, 16.341  L 145.152, 16.598  L 148.151, 16.568  L 151.148, 16.803  L 154.124, 17.318  L 157.072, 17.822  L 159.989, 18.406  L 162.868, 19.095  L 165.718, 19.807  L 168.562, 20.435  L 171.428, 20.933  L 174.300, 21.450  L 177.135, 22.142  L 179.898, 23.080  L 182.619, 24.135  L 185.368, 25.128  L 188.156, 26.078  L 186.458, 25.084  L 183.753, 23.931  L 181.000, 22.900  L 178.236, 21.900  L 175.519, 20.709  L 172.841, 19.224  L 170.052, 17.982  L 167.107, 17.378  L 164.131, 16.963  L 161.158, 16.494  L 158.155, 16.311  L 155.135, 16.686  L 152.143, 17.015  L 149.161, 16.988  L 146.174, 17.007  L 143.189, 17.142  L 140.185, 17.146  L 137.133, 16.873  L 134.093, 16.856  L 131.185, 17.766  L 128.399, 19.277  L 125.671, 20.938  L 122.862, 22.063  L 119.837, 22.142  L 116.730, 21.925  L 113.684, 22.038  L 110.827, 22.980  L 108.026, 24.143  L 105.014, 24.445  L 101.810, 23.995  L 98.632, 23.650  L 95.407, 23.104  L 92.083, 22.117  L 88.841, 21.385  L 85.799, 21.402  L 82.916, 22.027  L 80.108, 22.946  L 77.299, 23.833  L 74.472, 24.615  L 71.680, 25.563  L 68.934, 26.812  L 66.247, 28.566  L 63.550, 30.577  L 60.776, 32.451  L 57.880, 33.666  L 54.889, 34.061  L 51.879, 34.286  L 48.863, 34.666  L 45.820, 35.288  L 42.720, 36.161  L 39.585, 36.620  L 36.481, 36.378  L 33.430, 35.710  L 30.402, 34.972  L 27.370, 34.298  L 24.395, 33.395  L 21.493, 32.280  L 18.598, 31.192  L 15.740, 30.024  L 12.961, 28.687  L 10.245, 27.238  L 11.044, 27.945  L 13.643, 29.704  L 16.368, 31.265  L 19.217, 32.575  L 22.140, 33.727  L 25.098, 34.818  L 28.111, 35.766  L 31.203, 36.376  L 34.367, 36.481  L 37.560, 36.055  L 40.696, 35.640  L 43.765, 35.750  L 46.828, 36.073  L 49.903, 36.425  L 52.988, 36.598  L 56.050, 36.279  L 59.054, 35.446  L 61.985, 34.240  L 64.819, 32.600  L 67.671, 31.387  L 70.658, 31.121  L 73.740, 31.321  L 76.822, 31.417  L 79.797, 30.929  L 82.657, 29.920  L 85.491, 28.831  L 88.281, 27.586  L 91.119, 26.568  L 94.010, 25.769  L 96.875, 24.867  L 99.694, 23.776  L 102.574, 22.923  L 105.547, 22.436  L 108.615, 22.338  L 111.710, 22.374  L 114.785, 22.366  L 117.857, 22.399  L 120.815, 21.964  L 123.615, 20.774  L 126.350, 19.163  L 129.112, 17.529  L 131.913, 15.905  L 134.750, 14.218  L 137.683, 12.878  L 140.724, 12.166  L 143.841, 12.160  L 146.984, 12.780  L 150.096, 13.497  L 153.171, 14.095  L 156.212, 14.797  L 159.238, 15.249  L 162.273, 15.505  L 165.305, 15.818  L 168.375, 15.982  L 171.500, 16.030  L 174.575, 16.456  L 177.552, 17.311  L 180.476, 18.332  L 183.400, 19.344  L 186.312, 20.401  L 189.103, 21.742  L 190.012, 22.228  L 187.323, 20.667  L 184.547, 19.248  L 181.704, 17.949  L 178.812, 16.736  L 175.850, 15.694  L 172.795, 14.984  L 169.631, 14.853  L 166.387, 15.479  L 163.136, 16.844  L 159.969, 18.635  L 156.960, 19.952  L 154.051, 20.709  L 151.184, 21.348  L 148.341, 21.941  L 145.507, 22.400  L 142.677, 22.856  L 139.859, 23.436  L 137.042, 24.019  L 134.216, 24.563  L 131.386, 25.127  L 128.553, 25.723  L 125.716, 26.348  L 122.873, 26.993  L 120.019, 27.634  L 117.131, 28.180  L 114.179, 28.505  L 111.140, 28.537  L 107.988, 28.175  L 104.745, 27.506  L 101.515, 26.936  L 98.319, 26.522  L 95.121, 26.097  L 91.938, 25.709  L 88.843, 25.643  L 85.870, 26.047  L 82.925, 26.540  L 79.895, 26.610  L 76.774, 26.149  L 73.703, 25.777  L 70.735, 25.804  L 67.827, 26.044  L 64.971, 26.531  L 62.145, 27.206  L 59.329, 28.021  L 56.500, 28.843  L 53.641, 29.499  L 50.767, 30.286  L 47.859, 31.500  L 44.876, 32.986  L 41.813, 34.197  L 38.750, 34.470  L 35.705, 34.298  L 32.627, 34.214  L 29.558, 33.931  L 26.568, 33.212  L 23.663, 32.184  L 20.764, 31.185  L 17.889, 30.134  L 15.080, 28.922  L 12.345, 27.561  L 10.604, 26.493  L 13.362, 27.770  L 16.160, 28.962  L 19.012, 30.016  L 21.932, 30.865  L 24.899, 31.524  L 27.860, 32.163  L 30.730, 33.262  L 33.575, 34.768  L 36.510, 36.129  L 39.540, 37.156  L 42.643, 37.623  L 45.772, 37.552  L 48.884, 37.274  L 51.972, 36.911  L 55.033, 36.421  L 58.071, 35.893  L 61.109, 35.530  L 64.183, 35.495  L 67.328, 35.883  L 70.484, 36.187  L 73.545, 35.870  L 76.546, 35.248  L 79.570, 34.779  L 82.686, 34.751  L 85.796, 34.679  L 88.770, 34.032  L 91.605, 32.840  L 94.350, 31.340  L 97.094, 29.892  L 99.977, 29.031  L 102.941, 28.522  L 105.884, 27.957  L 108.815, 27.369  L 111.857, 27.283  L 114.982, 27.614  L 118.034, 27.724  L 120.953, 27.333  L 123.811, 26.724  L 126.648, 26.061  L 129.471, 25.368  L 132.280, 24.626  L 135.093, 23.921  L 137.926, 23.374  L 140.761, 22.874  L 143.594, 22.370  L 146.436, 21.955  L 149.281, 21.555  L 152.136, 20.966  L 155.029, 20.022  L 157.998, 18.788  L 161.035, 17.768  L 164.096, 17.228  L 167.208, 16.775  L 170.364, 16.452  L 173.499, 16.516  L 176.558, 17.035  L 179.535, 17.891  L 182.456, 18.924  L 185.293, 20.165  L 188.081, 21.498  L 189.071, 21.809  L 186.345, 20.322  L 183.546, 18.962  L 180.701, 17.667  L 177.814, 16.428  L 174.865, 15.324  L 171.865, 14.346  L 168.839, 13.393  L 165.782, 12.476  L 162.673, 11.777  L 159.531, 11.274  L 156.372, 10.957  L 153.208, 10.877  L 150.052, 10.959  L 146.911, 11.127  L 143.790, 11.419  L 140.705, 11.960  L 137.683, 12.874  L 134.721, 14.001  L 131.778, 15.030  L 128.799, 15.696  L 125.865, 16.552  L 123.062, 18.001  L 120.326, 19.652  L 117.490, 20.743  L 114.417, 20.770  L 111.302, 20.655  L 108.387, 21.398  L 105.570, 22.529  L 102.734, 23.565  L 99.903, 24.614  L 97.102, 25.779  L 94.303, 26.956  L 91.511, 28.182  L 88.664, 29.201  L 85.787, 30.118  L 82.956, 31.267  L 80.107, 32.397  L 77.224, 33.430  L 74.285, 34.254  L 71.304, 34.907  L 68.317, 35.590  L 65.335, 36.415  L 62.318, 37.129  L 59.243, 37.476  L 56.139, 37.549  L 53.024, 37.398  L 49.918, 37.304  L 46.813, 37.353  L 43.707, 37.154  L 40.628, 36.569  L 37.599, 35.687  L 34.562, 35.113  L 31.473, 34.866  L 28.387, 34.493  L 25.296, 34.044  L 22.264, 33.306  L 19.357, 32.163  L 16.567, 30.742  L 13.877, 29.152  L 11.295, 27.408  L 9.445, 26.109 "/>
    </g>
</svg>
