<?xml version="1.0" encoding="utf-8" ?>
<svg xmlns="http://www.w3.org/2000/svg" xmlns:ev="http://www.w3.org/2001/xml-events" xmlns:xlink="http://www.w3.org/1999/xlink" baseProfile="full" height="50mm" version="1.1" viewBox="0,0,200,50" width="200mm">
    <defs>
        <style type="text/css"><![CDATA[
.stitch_line {
    stroke-width: 0.3;
    stroke-linejoin: round;
    stroke-linecap: round;
    fill: none;
}
.path_center_line {
    fill: none;
    stroke:#808080;
    stroke-width: 0.2;
    stroke-linejoin: round;
    stroke-linecap: round;
}
.path_contour {
    fill: #808080;
    fill-opacity: 0.3;
    stroke: #808080;
    stroke-opacity: 1;
    stroke-width: 0.3;
}
.text{
    text-anchor: middle;
    dominant-baseline: middle;
    font-family: sans-serif;
    font-size: 1.5mm;
}
.smalltext{
    text-anchor: middle;
    dominant-baseline: middle;
    font-family: sans-serif;
    font-size: 1mm;
}
.color_0 {
    stroke:#3bb2d0;
}
.dot_0 {
    marker-start:url(#dot_0);
    marker-mid:url(#dot_0);
    marker-end:url(#dot_0);
}
]]></style>
        <marker id="dot_0" markerHeight="3.0" markerWidth="3.0" refX="1.5" refY="1.5">
            <circle cx="1.5" cy="1.5" fill="#3bb2d0" r="1.5"/>
        </marker>
    </defs>
    <g>
        <path class="stitch_line color_0 dot_0" d="M 11.118, 22.764  L 13.852, 23.719  L 16.603, 24.578  L 19.367, 25.341  L 22.144, 26.007  L 24.930, 26.575  L 27.724, 27.047  L 30.524, 27.424  L 33.328, 27.708  L 36.134, 27.902  L 38.942, 28.008  L 41.750, 28.032  L 44.557, 27.975  L 47.364, 27.844  L 50.170, 27.641  L 52.975, 27.372  L 55.780, 27.041  L 58.583, 26.653  L 61.387, 26.212  L 64.191, 25.724  L 66.996, 25.192  L 69.803, 24.621  L 72.612, 24.016  L 75.426, 23.381  L 78.243, 22.720  L 81.066, 22.037  L 83.896, 21.337  L 86.733, 20.625  L 89.579, 19.903  L 92.435, 19.176  L 95.302, 18.448  L 98.181, 17.724  L 101.073, 17.007  L 103.979, 16.302  L 106.900, 15.613  L 109.837, 14.944  L 112.791, 14.300  L 115.762, 13.685  L 118.751, 13.105  L 121.759, 12.565  L 124.785, 12.068  L 127.830, 11.622  L 130.893, 11.231  L 133.973, 10.900  L 137.069, 10.637  L 140.180, 10.446  L 143.303, 10.334  L 146.435, 10.306  L 149.575, 10.369  L 152.716, 10.528  L 155.856, 10.789  L 158.987, 11.156  L 162.106, 11.633  L 165.205, 12.225  L 168.278, 12.934  L 171.317, 13.760  L 174.316, 14.706  L 177.268, 15.769  L 180.167, 16.949  L 183.006, 18.242  L 185.780, 19.645  L 188.486, 21.154  L 191.118, 22.764  L 190.000, 25.000  L 188.882, 27.236  L 186.148, 26.281  L 183.397, 25.422  L 180.633, 24.659  L 177.856, 23.993  L 175.070, 23.425  L 172.276, 22.953  L 169.476, 22.576  L 166.672, 22.292  L 163.866, 22.098  L 161.058, 21.992  L 158.250, 21.968  L 155.443, 22.025  L 152.636, 22.156  L 149.830, 22.359  L 147.025, 22.628  L 144.220, 22.959  L 141.417, 23.347  L 138.613, 23.788  L 135.809, 24.276  L 133.004, 24.808  L 130.197, 25.379  L 127.388, 25.984  L 124.574, 26.619  L 121.757, 27.280  L 118.934, 27.963  L 116.104, 28.663  L 113.267, 29.375  L 110.421, 30.097  L 107.565, 30.824  L 104.698, 31.552  L 101.819, 32.276  L 98.927, 32.993  L 96.021, 33.698  L 93.100, 34.387  L 90.163, 35.056  L 87.209, 35.700  L 84.238, 36.315  L 81.249, 36.895  L 78.241, 37.435  L 75.215, 37.932  L 72.170, 38.378  L 69.107, 38.769  L 66.027, 39.100  L 62.931, 39.363  L 59.820, 39.554  L 56.697, 39.666  L 53.565, 39.694  L 50.425, 39.631  L 47.284, 39.472  L 44.144, 39.211  L 41.013, 38.844  L 37.894, 38.367  L 34.795, 37.775  L 31.722, 37.066  L 28.683, 36.240  L 25.684, 35.294  L 22.732, 34.231  L 19.833, 33.051  L 16.994, 31.758  L 14.220, 30.355  L 11.514, 28.846  L 8.882, 27.236  L 10.000, 25.000  L 11.118, 22.764 "/>
    </g>
</svg>
