<?xml version="1.0" encoding="utf-8" ?>
<svg xmlns="http://www.w3.org/2000/svg" xmlns:ev="http://www.w3.org/2001/xml-events" xmlns:xlink="http://www.w3.org/1999/xlink" baseProfile="full" height="50mm" version="1.1" viewBox="0,0,200,50" width="200mm">
    <defs>
        <style type="text/css"><![CDATA[
.stitch_line {
    stroke-width: 0.3;
    stroke-linejoin: round;
    stroke-linecap: round;
    fill: none;
}
.path_center_line {
    stroke-width: 0.2;
    stroke-linejoin: round;
    stroke-linecap: round;
    fill: none;
    stroke:#333;
}
.path_contour {
    stroke: #ddd;
    fill-opacity: 1;
    fill: #eee;
    stroke-width: 0.3;
}
.text{
    text-anchor: middle;
    dominant-baseline: middle;
    font-family: sans-serif;
    font-size: 1.5mm;
}
.smalltext{
    text-anchor: middle;
    dominant-baseline: middle;
    font-family: sans-serif;
    font-size: 1mm;
}
.color_0 {
    stroke:#148983;
}
.dot_0 {
    marker-start:url(#dot_0);
    marker-mid:url(#dot_0);
    marker-end:url(#dot_0);
}
]]></style>
        <marker id="dot_0" markerHeight="3.0" markerWidth="3.0" refX="1.5" refY="1.5">
            <circle cx="1.5" cy="1.5" fill="#148983" r="1.5"/>
        </marker>
    </defs>
    <g>
        <path class="stitch_line color_0 dot_0" d="M 11.118, 22.764  L 14.113, 23.831  L 17.078, 24.762  L 20.015, 25.562  L 22.926, 26.239  L 25.813, 26.800  L 28.678, 27.250  L 31.524, 27.597  L 34.353, 27.845  L 37.168, 28.001  L 39.972, 28.070  L 42.767, 28.058  L 45.557, 27.968  L 48.343, 27.806  L 51.127, 27.576  L 53.913, 27.282  L 56.702, 26.930  L 59.495, 26.522  L 62.295, 26.063  L 65.102, 25.557  L 67.918, 25.008  L 70.743, 24.421  L 73.579, 23.799  L 76.426, 23.147  L 79.285, 22.468  L 82.156, 21.768  L 85.039, 21.050  L 87.936, 20.319  L 90.846, 19.580  L 93.770, 18.836  L 96.707, 18.094  L 99.658, 17.356  L 102.623, 16.629  L 105.601, 15.916  L 108.592, 15.223  L 111.597, 14.555  L 114.615, 13.917  L 117.645, 13.314  L 120.688, 12.750  L 123.743, 12.232  L 126.809, 11.764  L 129.885, 11.353  L 132.971, 11.002  L 136.065, 10.718  L 139.168, 10.506  L 142.276, 10.371  L 145.389, 10.320  L 148.504, 10.356  L 151.621, 10.486  L 154.737, 10.715  L 157.849, 11.047  L 160.956, 11.488  L 164.053, 12.043  L 167.140, 12.714  L 170.213, 13.508  L 173.269, 14.427  L 176.303, 15.484  L 179.305, 16.702  L 182.268, 18.089  L 185.191, 19.635  L 188.076, 21.323  L 190.932, 23.137  L 187.959, 21.582  L 184.966, 20.189  L 181.965, 18.934  L 178.960, 17.795  L 175.954, 16.755  L 172.944, 15.814  L 169.923, 14.990  L 166.891, 14.288  L 163.850, 13.702  L 160.801, 13.229  L 157.746, 12.863  L 154.688, 12.601  L 151.627, 12.438  L 148.566, 12.368  L 145.505, 12.386  L 142.446, 12.488  L 139.390, 12.668  L 136.339, 12.921  L 133.292, 13.242  L 130.251, 13.626  L 127.217, 14.067  L 124.189, 14.560  L 121.169, 15.101  L 118.157, 15.683  L 115.153, 16.303  L 112.157, 16.954  L 109.171, 17.633  L 106.193, 18.333  L 103.224, 19.051  L 100.264, 19.781  L 97.313, 20.519  L 94.371, 21.259  L 91.439, 21.997  L 88.515, 22.729  L 85.600, 23.449  L 82.694, 24.154  L 79.796, 24.838  L 76.907, 25.497  L 74.025, 26.127  L 71.151, 26.723  L 68.284, 27.282  L 65.423, 27.797  L 62.568, 28.266  L 59.718, 28.684  L 56.872, 29.046  L 54.030, 29.349  L 51.189, 29.587  L 48.349, 29.757  L 45.508, 29.854  L 42.664, 29.873  L 39.817, 29.811  L 36.965, 29.661  L 34.104, 29.419  L 31.235, 29.079  L 28.354, 28.637  L 25.458, 28.095  L 22.538, 27.469  L 19.586, 26.756  L 16.602, 25.937  L 13.590, 24.988  L 10.559, 23.882  L 13.473, 25.247  L 16.378, 26.491  L 19.282, 27.601  L 22.192, 28.561  L 25.109, 29.366  L 28.029, 30.024  L 30.945, 30.562  L 33.855, 30.992  L 36.761, 31.320  L 39.663, 31.551  L 42.562, 31.689  L 45.459, 31.740  L 48.355, 31.708  L 51.250, 31.599  L 54.146, 31.415  L 57.043, 31.163  L 59.941, 30.846  L 62.842, 30.469  L 65.744, 30.037  L 68.650, 29.555  L 71.559, 29.026  L 74.472, 28.455  L 77.388, 27.848  L 80.308, 27.208  L 83.232, 26.540  L 86.161, 25.848  L 89.094, 25.138  L 92.031, 24.415  L 94.973, 23.681  L 97.919, 22.944  L 100.870, 22.206  L 103.825, 21.474  L 106.785, 20.751  L 109.749, 20.042  L 112.718, 19.354  L 115.691, 18.689  L 118.669, 18.053  L 121.650, 17.451  L 124.636, 16.888  L 127.625, 16.369  L 130.617, 15.899  L 133.613, 15.482  L 136.612, 15.124  L 139.613, 14.830  L 142.617, 14.604  L 145.621, 14.452  L 148.627, 14.379  L 151.633, 14.389  L 154.639, 14.487  L 157.644, 14.679  L 160.646, 14.969  L 163.646, 15.361  L 166.642, 15.861  L 169.634, 16.473  L 172.620, 17.201  L 175.597, 18.059  L 178.557, 19.070  L 181.493, 20.244  L 184.407, 21.572  L 187.301, 23.038  L 190.186, 24.627  L 187.184, 23.297  L 184.182, 22.126  L 181.189, 21.089  L 178.211, 20.163  L 175.248, 19.330  L 172.295, 18.588  L 169.344, 17.956  L 166.393, 17.435  L 163.443, 17.021  L 160.492, 16.709  L 157.541, 16.495  L 154.590, 16.374  L 151.639, 16.340  L 148.689, 16.390  L 145.738, 16.519  L 142.787, 16.721  L 139.836, 16.992  L 136.885, 17.328  L 133.934, 17.722  L 130.984, 18.172  L 128.033, 18.672  L 125.082, 19.217  L 122.131, 19.802  L 119.180, 20.423  L 116.230, 21.075  L 113.279, 21.753  L 110.328, 22.452  L 107.377, 23.168  L 104.426, 23.896  L 101.475, 24.631  L 98.525, 25.369  L 95.574, 26.104  L 92.623, 26.832  L 89.672, 27.548  L 86.721, 28.247  L 83.770, 28.925  L 80.820, 29.577  L 77.869, 30.198  L 74.918, 30.783  L 71.967, 31.328  L 69.016, 31.828  L 66.066, 32.278  L 63.115, 32.672  L 60.164, 33.008  L 57.213, 33.279  L 54.262, 33.481  L 51.311, 33.610  L 48.361, 33.660  L 45.410, 33.626  L 42.459, 33.505  L 39.508, 33.291  L 36.557, 32.979  L 33.607, 32.565  L 30.656, 32.044  L 27.705, 31.412  L 24.752, 30.670  L 21.789, 29.837  L 18.811, 28.911  L 15.818, 27.874  L 12.816, 26.703  L 9.814, 25.373  L 12.699, 26.962  L 15.593, 28.428  L 18.507, 29.756  L 21.443, 30.930  L 24.403, 31.941  L 27.380, 32.799  L 30.366, 33.527  L 33.358, 34.139  L 36.354, 34.639  L 39.354, 35.031  L 42.356, 35.321  L 45.361, 35.513  L 48.367, 35.611  L 51.373, 35.621  L 54.379, 35.548  L 57.383, 35.396  L 60.387, 35.170  L 63.388, 34.876  L 66.387, 34.518  L 69.383, 34.101  L 72.375, 33.631  L 75.364, 33.112  L 78.350, 32.549  L 81.331, 31.947  L 84.309, 31.311  L 87.282, 30.646  L 90.251, 29.958  L 93.215, 29.249  L 96.175, 28.526  L 99.130, 27.794  L 102.081, 27.056  L 105.027, 26.319  L 107.969, 25.585  L 110.906, 24.862  L 113.839, 24.152  L 116.768, 23.460  L 119.692, 22.792  L 122.612, 22.152  L 125.528, 21.545  L 128.441, 20.974  L 131.350, 20.445  L 134.256, 19.963  L 137.158, 19.531  L 140.059, 19.154  L 142.957, 18.837  L 145.854, 18.585  L 148.750, 18.401  L 151.645, 18.292  L 154.541, 18.260  L 157.438, 18.311  L 160.337, 18.449  L 163.239, 18.680  L 166.145, 19.008  L 169.055, 19.438  L 171.971, 19.976  L 174.891, 20.634  L 177.808, 21.439  L 180.718, 22.399  L 183.622, 23.509  L 186.527, 24.753  L 189.441, 26.118  L 186.410, 25.012  L 183.398, 24.063  L 180.414, 23.244  L 177.462, 22.531  L 174.542, 21.905  L 171.646, 21.363  L 168.765, 20.921  L 165.896, 20.581  L 163.035, 20.339  L 160.183, 20.189  L 157.336, 20.127  L 154.492, 20.146  L 151.651, 20.243  L 148.811, 20.413  L 145.970, 20.651  L 143.128, 20.954  L 140.282, 21.316  L 137.432, 21.734  L 134.577, 22.203  L 131.716, 22.718  L 128.849, 23.277  L 125.975, 23.873  L 123.093, 24.503  L 120.204, 25.162  L 117.306, 25.846  L 114.400, 26.551  L 111.485, 27.271  L 108.561, 28.003  L 105.629, 28.741  L 102.687, 29.481  L 99.736, 30.219  L 96.776, 30.949  L 93.807, 31.667  L 90.829, 32.367  L 87.843, 33.046  L 84.847, 33.697  L 81.843, 34.317  L 78.831, 34.899  L 75.811, 35.440  L 72.783, 35.933  L 69.749, 36.374  L 66.708, 36.758  L 63.661, 37.079  L 60.610, 37.332  L 57.554, 37.512  L 54.495, 37.614  L 51.434, 37.632  L 48.373, 37.562  L 45.312, 37.399  L 42.254, 37.137  L 39.199, 36.771  L 36.150, 36.298  L 33.109, 35.712  L 30.077, 35.010  L 27.056, 34.186  L 24.046, 33.245  L 21.040, 32.205  L 18.035, 31.066  L 15.034, 29.811  L 12.041, 28.418  L 9.068, 26.863  L 11.924, 28.677  L 14.809, 30.365  L 17.732, 31.911  L 20.695, 33.298  L 23.697, 34.516  L 26.731, 35.573  L 29.787, 36.492  L 32.860, 37.286  L 35.947, 37.957  L 39.044, 38.512  L 42.151, 38.953  L 45.263, 39.285  L 48.379, 39.514  L 51.496, 39.644  L 54.611, 39.680  L 57.724, 39.629  L 60.832, 39.494  L 63.935, 39.282  L 67.029, 38.998  L 70.115, 38.647  L 73.191, 38.236  L 76.257, 37.768  L 79.312, 37.250  L 82.355, 36.686  L 85.385, 36.083  L 88.403, 35.445  L 91.408, 34.777  L 94.399, 34.084  L 97.377, 33.371  L 100.342, 32.644  L 103.293, 31.906  L 106.230, 31.164  L 109.154, 30.420  L 112.064, 29.681  L 114.961, 28.950  L 117.844, 28.232  L 120.715, 27.532  L 123.574, 26.853  L 126.421, 26.201  L 129.257, 25.579  L 132.082, 24.992  L 134.898, 24.443  L 137.705, 23.937  L 140.505, 23.478  L 143.298, 23.070  L 146.087, 22.718  L 148.873, 22.424  L 151.657, 22.194  L 154.443, 22.032  L 157.233, 21.942  L 160.028, 21.930  L 162.832, 21.999  L 165.647, 22.155  L 168.476, 22.403  L 171.322, 22.750  L 174.187, 23.200  L 177.074, 23.761  L 179.985, 24.438  L 182.922, 25.238  L 185.887, 26.169  L 188.882, 27.236 "/>
    </g>
</svg>
