<?xml version="1.0" encoding="utf-8" ?>
<svg xmlns="http://www.w3.org/2000/svg" xmlns:ev="http://www.w3.org/2001/xml-events" xmlns:xlink="http://www.w3.org/1999/xlink" baseProfile="full" height="50mm" version="1.1" viewBox="0,0,200,50" width="200mm">
    <defs>
        <style type="text/css"><![CDATA[
.stitch_line {
    stroke-width: 0.3;
    stroke-linejoin: round;
    stroke-linecap: round;
    fill: none;
}
.path_center_line {
    fill: none;
    stroke:#808080;
    stroke-width: 0.2;
    stroke-linejoin: round;
    stroke-linecap: round;
}
.path_contour {
    fill: #808080;
    fill-opacity: 0.3;
    stroke: #808080;
    stroke-opacity: 1;
    stroke-width: 0.3;
}
.text{
    text-anchor: middle;
    dominant-baseline: middle;
    font-family: sans-serif;
    font-size: 1.5mm;
}
.smalltext{
    text-anchor: middle;
    dominant-baseline: middle;
    font-family: sans-serif;
    font-size: 1mm;
}
.color_0 {
    stroke:#3bb2d0;
}
.dot_0 {
    marker-start:url(#dot_0);
    marker-mid:url(#dot_0);
    marker-end:url(#dot_0);
}
]]></style>
        <marker id="dot_0" markerHeight="3.0" markerWidth="3.0" refX="1.5" refY="1.5">
            <circle cx="1.5" cy="1.5" fill="#3bb2d0" r="1.5"/>
        </marker>
    </defs>
    <g>
        <path class="stitch_line color_0 dot_0" d="M 6.870, 26.789  L 10.000, 25.000  L 9.553, 21.422  L 12.150, 22.743  L 12.728, 26.302  L 9.664, 28.204  L 12.511, 29.518  L 15.501, 27.504  L 14.792, 23.968  L 17.476, 25.094  L 18.318, 28.600  L 15.405, 30.725  L 18.344, 31.824  L 21.174, 29.590  L 20.200, 26.118  L 22.961, 27.038  L 24.065, 30.470  L 21.322, 32.810  L 24.335, 33.682  L 26.988, 31.240  L 25.755, 27.852  L 28.579, 28.561  L 29.938, 31.901  L 27.377, 34.439  L 30.443, 35.082  L 32.910, 32.452  L 31.430, 29.164  L 34.304, 29.663  L 35.899, 32.896  L 33.528, 35.612  L 36.626, 36.031  L 38.903, 33.235  L 37.198, 30.058  L 40.107, 30.354  L 41.916, 33.473  L 39.733, 36.342  L 42.844, 36.550  L 44.936, 33.613  L 43.029, 30.553  L 45.960, 30.659  L 47.958, 33.660  L 45.956, 36.659  L 49.063, 36.673  L 50.980, 33.619  L 48.898, 30.676  L 51.841, 30.608  L 54.000, 33.496  L 52.165, 36.599  L 55.259, 36.443  L 57.016, 33.295  L 54.786, 30.461  L 57.732, 30.241  L 60.027, 33.022  L 58.342, 36.210  L 61.413, 35.905  L 63.030, 32.683  L 60.678, 29.951  L 63.622, 29.597  L 66.026, 32.283  L 64.472, 35.536  L 67.517, 35.108  L 69.015, 31.828  L 66.563, 29.184  L 69.502, 28.719  L 71.995, 31.323  L 70.550, 34.627  L 73.569, 34.097  L 74.967, 30.774  L 72.438, 28.205  L 75.371, 27.648  L 77.932, 30.185  L 76.575, 33.526  L 79.569, 32.917  L 80.890, 29.562  L 78.301, 27.052  L 81.230, 26.424  L 83.841, 28.909  L 82.551, 32.276  L 85.523, 31.609  L 86.787, 28.232  L 84.157, 25.766  L 87.083, 25.085  L 89.728, 27.534  L 88.485, 30.919  L 91.437, 30.211  L 92.666, 26.821  L 90.009, 24.383  L 92.937, 23.667  L 95.601, 26.097  L 94.382, 29.491  L 97.320, 28.762  L 98.534, 25.366  L 95.866, 22.941  L 98.799, 22.208  L 101.466, 24.634  L 100.253, 28.029  L 103.181, 27.296  L 104.399, 23.903  L 101.736, 21.473  L 104.678, 20.741  L 107.334, 23.179  L 106.105, 26.568  L 109.028, 25.850  L 110.272, 22.466  L 107.626, 20.016  L 110.582, 19.302  L 113.213, 21.768  L 111.948, 25.145  L 114.869, 24.457  L 116.159, 21.091  L 113.547, 18.605  L 116.521, 17.928  L 119.110, 20.438  L 117.789, 23.793  L 120.711, 23.155  L 122.068, 19.815  L 119.506, 17.277  L 122.503, 16.657  L 125.033, 19.226  L 123.634, 22.549  L 126.560, 21.980  L 128.005, 18.677  L 125.512, 16.072  L 128.534, 15.528  L 130.985, 18.172  L 129.488, 21.452  L 132.419, 20.970  L 133.974, 17.717  L 131.569, 15.031  L 134.617, 14.585  L 136.970, 17.317  L 135.352, 20.540  L 138.288, 20.166  L 139.973, 16.978  L 137.679, 14.197  L 140.754, 13.872  L 142.984, 16.705  L 141.226, 19.853  L 144.165, 19.608  L 146.000, 16.504  L 143.841, 13.617  L 146.938, 13.437  L 149.020, 16.381  L 147.103, 19.434  L 150.040, 19.338  L 152.042, 16.340  L 150.044, 13.338  L 153.158, 13.327  L 155.064, 16.387  L 152.973, 19.324  L 155.901, 19.397  L 158.084, 16.527  L 156.274, 13.408  L 159.392, 13.588  L 161.097, 16.765  L 158.821, 19.561  L 161.729, 19.820  L 164.101, 17.104  L 162.505, 13.870  L 165.611, 14.260  L 167.090, 17.548  L 164.624, 20.178  L 167.502, 20.638  L 170.062, 18.099  L 168.704, 14.759  L 171.779, 15.371  L 173.012, 18.760  L 170.359, 21.201  L 173.191, 21.870  L 175.935, 19.530  L 174.830, 16.098  L 177.852, 16.939  L 178.826, 20.410  L 175.996, 22.645  L 178.770, 23.525  L 181.682, 21.400  L 180.841, 17.894  L 183.790, 18.961  L 184.499, 22.496  L 181.508, 24.511  L 184.209, 25.599  L 187.272, 23.698  L 186.695, 20.139  L 189.553, 21.422  L 190.000, 25.000  L 186.870, 26.789 "/>
    </g>
</svg>
