<?xml version="1.0" encoding="utf-8" ?>
<svg xmlns="http://www.w3.org/2000/svg" xmlns:ev="http://www.w3.org/2001/xml-events" xmlns:xlink="http://www.w3.org/1999/xlink" baseProfile="full" height="50mm" version="1.1" viewBox="0,0,200,50" width="200mm">
    <defs>
        <style type="text/css"><![CDATA[
.stitch_line {
    stroke-width: 0.3;
    stroke-linejoin: round;
    stroke-linecap: round;
    fill: none;
}
.path_center_line {
    fill: none;
    stroke:#808080;
    stroke-width: 0.2;
    stroke-linejoin: round;
    stroke-linecap: round;
}
.path_contour {
    fill: #808080;
    fill-opacity: 0.3;
    stroke: #808080;
    stroke-opacity: 1;
    stroke-width: 0.3;
}
.text{
    text-anchor: middle;
    dominant-baseline: middle;
    font-family: sans-serif;
    font-size: 1.5mm;
}
.smalltext{
    text-anchor: middle;
    dominant-baseline: middle;
    font-family: sans-serif;
    font-size: 1mm;
}
.color_0 {
    stroke:#3bb2d0;
}
.dot_0 {
    marker-start:url(#dot_0);
    marker-mid:url(#dot_0);
    marker-end:url(#dot_0);
}
]]></style>
        <marker id="dot_0" markerHeight="3.0" markerWidth="3.0" refX="1.5" refY="1.5">
            <circle cx="1.5" cy="1.5" fill="#3bb2d0" r="1.5"/>
        </marker>
    </defs>
    <g>
        <path class="stitch_line color_0 dot_0" d="M 11.118, 22.764  L 10.883, 25.548  L 10.648, 28.332  L 12.310, 26.612  L 14.807, 24.029  L 14.279, 30.386  L 17.155, 26.818  L 18.525, 25.119  L 18.321, 28.086  L 18.036, 32.249  L 20.150, 29.141  L 22.265, 26.033  L 22.059, 30.571  L 21.907, 33.909  L 23.365, 31.380  L 24.864, 28.781  L 26.023, 26.771  L 25.971, 29.866  L 25.920, 32.865  L 25.878, 35.360  L 26.783, 33.504  L 28.099, 30.808  L 29.793, 27.335  L 29.864, 31.965  L 29.934, 36.596  L 31.525, 32.717  L 32.664, 29.942  L 33.572, 27.728  L 33.726, 30.874  L 33.873, 33.871  L 34.057, 37.616  L 35.124, 34.491  L 36.094, 31.652  L 37.355, 27.959  L 37.743, 32.593  L 37.994, 35.583  L 38.232, 38.424  L 38.877, 36.118  L 39.686, 33.229  L 40.494, 30.340  L 41.139, 28.033  L 41.508, 31.146  L 41.861, 34.125  L 42.441, 39.025  L 43.419, 34.665  L 44.076, 31.737  L 44.923, 27.962  L 45.616, 32.509  L 46.067, 35.475  L 46.669, 39.429  L 47.275, 35.956  L 47.791, 33.001  L 48.307, 30.046  L 48.706, 27.755  L 49.260, 30.751  L 49.805, 33.701  L 50.350, 36.651  L 50.903, 39.647  L 51.233, 37.105  L 51.618, 34.130  L 52.004, 31.155  L 52.488, 27.423  L 53.431, 31.798  L 54.063, 34.730  L 54.695, 37.663  L 55.132, 39.691  L 55.540, 35.127  L 55.806, 32.139  L 56.073, 29.151  L 56.267, 26.978  L 56.952, 29.780  L 57.664, 32.694  L 58.376, 35.608  L 59.346, 39.577  L 59.536, 35.999  L 59.696, 33.003  L 59.856, 30.007  L 60.046, 26.429  L 61.164, 30.557  L 61.949, 33.452  L 62.734, 36.348  L 63.538, 39.317  L 63.592, 36.753  L 63.656, 33.753  L 63.720, 30.754  L 63.825, 25.790  L 64.575, 28.331  L 65.424, 31.208  L 66.274, 34.085  L 67.123, 36.963  L 67.703, 38.928  L 67.671, 34.399  L 67.650, 31.400  L 67.629, 28.400  L 67.606, 25.071  L 68.816, 28.887  L 69.722, 31.747  L 70.628, 34.607  L 71.838, 38.424  L 71.728, 34.951  L 71.633, 31.953  L 71.538, 28.954  L 71.391, 24.283  L 72.136, 26.500  L 73.092, 29.344  L 74.048, 32.188  L 75.003, 35.031  L 75.940, 37.817  L 75.813, 35.420  L 75.655, 32.425  L 75.497, 29.429  L 75.339, 26.433  L 75.181, 23.437  L 76.397, 26.885  L 77.395, 29.714  L 78.393, 32.543  L 80.008, 37.123  L 79.705, 32.826  L 79.494, 29.833  L 79.282, 26.841  L 78.979, 22.543  L 80.685, 27.195  L 81.718, 30.012  L 82.751, 32.828  L 84.043, 36.353  L 83.772, 33.168  L 83.518, 30.179  L 83.263, 27.190  L 83.008, 24.201  L 82.788, 21.613  L 83.932, 24.638  L 84.992, 27.445  L 86.053, 30.251  L 87.114, 33.057  L 88.046, 35.521  L 87.847, 33.463  L 87.558, 30.477  L 87.270, 27.491  L 86.982, 24.505  L 86.610, 20.656  L 88.231, 24.848  L 89.313, 27.646  L 90.395, 30.445  L 92.016, 34.637  L 91.608, 30.740  L 91.295, 27.756  L 90.982, 24.773  L 90.669, 21.789  L 90.448, 19.682  L 91.448, 22.230  L 92.545, 25.022  L 93.641, 27.815  L 94.738, 30.607  L 95.958, 33.713  L 95.656, 30.978  L 95.328, 27.996  L 94.999, 25.014  L 94.671, 22.033  L 94.304, 18.701  L 95.762, 22.384  L 96.867, 25.173  L 97.971, 27.962  L 99.076, 30.751  L 99.872, 32.760  L 99.361, 28.223  L 99.026, 25.242  L 98.691, 22.261  L 98.181, 17.724  L 98.979, 19.737  L 100.086, 22.525  L 101.192, 25.314  L 102.298, 28.103  L 103.760, 31.788  L 103.387, 28.448  L 103.054, 25.467  L 102.721, 22.485  L 102.388, 19.504  L 102.082, 16.760  L 103.312, 19.878  L 104.414, 22.668  L 105.515, 25.459  L 106.617, 28.249  L 107.627, 30.808  L 107.398, 28.683  L 107.076, 25.701  L 106.754, 22.718  L 106.432, 19.735  L 106.009, 15.820  L 107.651, 20.030  L 108.741, 22.825  L 109.832, 25.620  L 111.473, 29.830  L 111.082, 25.954  L 110.780, 22.969  L 110.478, 19.985  L 110.176, 17.000  L 109.965, 14.915  L 110.918, 17.406  L 111.991, 20.208  L 113.063, 23.010  L 114.135, 25.812  L 115.303, 28.863  L 115.063, 26.239  L 114.791, 23.252  L 114.518, 20.264  L 114.245, 17.277  L 113.951, 14.056  L 115.277, 17.613  L 116.325, 20.425  L 117.373, 23.236  L 119.118, 27.918  L 118.778, 23.576  L 118.544, 20.585  L 118.310, 17.595  L 117.970, 13.253  L 119.633, 17.871  L 120.649, 20.693  L 121.665, 23.516  L 122.921, 27.005  L 122.732, 23.954  L 122.546, 20.960  L 122.360, 17.966  L 122.174, 14.971  L 122.022, 12.520  L 122.999, 15.356  L 123.977, 18.192  L 124.955, 21.028  L 125.933, 23.864  L 126.715, 26.134  L 126.513, 21.398  L 126.385, 18.401  L 126.258, 15.404  L 126.107, 11.868  L 127.373, 15.740  L 128.305, 18.591  L 129.237, 21.443  L 130.502, 25.315  L 130.435, 21.912  L 130.376, 18.913  L 130.316, 15.913  L 130.225, 11.311  L 130.849, 13.346  L 131.728, 16.214  L 132.607, 19.083  L 133.485, 21.951  L 134.285, 24.560  L 134.298, 22.511  L 134.318, 19.511  L 134.338, 16.511  L 134.358, 13.511  L 134.376, 10.862  L 135.239, 13.907  L 136.057, 16.794  L 136.874, 19.680  L 138.064, 23.880  L 138.200, 20.206  L 138.310, 17.208  L 138.420, 14.210  L 138.555, 10.536  L 139.600, 14.586  L 140.349, 17.491  L 141.098, 20.396  L 141.843, 23.284  L 142.005, 21.005  L 142.216, 18.013  L 142.428, 15.020  L 142.759, 10.347  L 143.248, 12.474  L 143.921, 15.397  L 144.594, 18.321  L 145.622, 22.786  L 146.042, 18.934  L 146.367, 15.952  L 146.691, 12.969  L 146.981, 10.310  L 147.602, 13.411  L 148.192, 16.353  L 148.781, 19.295  L 149.403, 22.396  L 149.769, 19.977  L 150.218, 17.011  L 150.668, 14.045  L 151.214, 10.440  L 151.900, 14.507  L 152.399, 17.466  L 153.185, 22.125  L 153.965, 18.202  L 154.550, 15.260  L 155.446, 10.749  L 155.724, 12.799  L 156.127, 15.772  L 156.530, 18.745  L 156.969, 21.984  L 157.586, 19.527  L 158.318, 16.617  L 159.049, 13.708  L 159.667, 11.250  L 159.968, 14.230  L 160.270, 17.215  L 160.753, 21.985  L 161.952, 18.116  L 162.839, 15.250  L 163.861, 11.954  L 164.119, 15.848  L 164.318, 18.841  L 164.537, 22.137  L 165.432, 19.749  L 166.485, 16.940  L 168.012, 12.867  L 168.165, 17.658  L 168.318, 22.448  L 169.966, 18.769  L 171.192, 16.031  L 172.104, 13.995  L 172.101, 16.661  L 172.097, 19.661  L 172.093, 22.926  L 173.262, 20.722  L 174.669, 18.072  L 176.119, 15.339  L 176.008, 18.858  L 175.858, 23.576  L 177.950, 20.235  L 180.042, 16.895  L 179.790, 21.247  L 179.608, 24.402  L 181.019, 22.494  L 183.857, 18.658  L 183.690, 20.834  L 183.337, 25.404  L 185.842, 22.561  L 187.553, 20.618  L 187.297, 23.600  L 187.041, 26.582  L 188.642, 25.083  L 191.118, 22.764 "/>
    </g>
</svg>
