<?xml version="1.0" encoding="utf-8" ?>
<svg xmlns="http://www.w3.org/2000/svg" xmlns:ev="http://www.w3.org/2001/xml-events" xmlns:xlink="http://www.w3.org/1999/xlink" baseProfile="full" height="50mm" version="1.1" viewBox="0,0,200,50" width="200mm">
    <defs>
        <style type="text/css"><![CDATA[
.stitch_line {
    stroke-width: 0.3;
    stroke-linejoin: round;
    stroke-linecap: round;
    fill: none;
}
.path_center_line {
    stroke-width: 0.2;
    stroke-linejoin: round;
    stroke-linecap: round;
    fill: none;
    stroke:#333;
}
.path_contour {
    stroke: #ddd;
    fill-opacity: 1;
    fill: #eee;
    stroke-width: 0.3;
}
.text{
    text-anchor: middle;
    dominant-baseline: middle;
    font-family: sans-serif;
    font-size: 1.5mm;
}
.smalltext{
    text-anchor: middle;
    dominant-baseline: middle;
    font-family: sans-serif;
    font-size: 1mm;
}
.color_0 {
    stroke:#148983;
}
.dot_0 {
    marker-start:url(#dot_0);
    marker-mid:url(#dot_0);
    marker-end:url(#dot_0);
}
]]></style>
        <marker id="dot_0" markerHeight="3.0" markerWidth="3.0" refX="1.5" refY="1.5">
            <circle cx="1.5" cy="1.5" fill="#148983" r="1.5"/>
        </marker>
    </defs>
    <g>
        <path class="stitch_line color_0 dot_0" d="M 10.481, 25.239  L 13.130, 19.855  L 10.481, 25.239  L 11.848, 25.896  L 14.398, 20.465  L 11.848, 25.896  L 17.315, 28.224  L 19.461, 22.621  L 17.315, 28.224  L 18.681, 28.733  L 20.725, 23.092  L 18.681, 28.733  L 24.148, 30.493  L 25.781, 24.720  L 24.148, 30.493  L 25.515, 30.867  L 27.045, 25.065  L 25.515, 30.867  L 30.982, 32.107  L 32.108, 26.214  L 30.982, 32.107  L 32.348, 32.357  L 33.376, 26.445  L 32.348, 32.357  L 37.815, 33.124  L 38.460, 27.159  L 37.815, 33.124  L 39.182, 33.261  L 39.734, 27.287  L 39.182, 33.261  L 44.649, 33.604  L 44.851, 27.607  L 44.649, 33.604  L 46.015, 33.640  L 46.134, 27.641  L 46.015, 33.640  L 51.482, 33.604  L 51.290, 27.608  L 51.482, 33.604  L 52.849, 33.552  L 52.584, 27.558  L 52.849, 33.552  L 58.316, 33.186  L 57.783, 27.209  L 58.316, 33.186  L 59.682, 33.057  L 59.088, 27.086  L 59.682, 33.057  L 65.149, 32.406  L 64.332, 26.462  L 65.149, 32.406  L 66.516, 32.212  L 65.648, 26.275  L 66.516, 32.212  L 71.983, 31.326  L 70.935, 25.418  L 71.983, 31.326  L 73.349, 31.078  L 72.262, 25.178  L 73.349, 31.078  L 78.816, 30.003  L 77.592, 24.129  L 78.816, 30.003  L 80.183, 29.714  L 78.929, 23.846  L 80.183, 29.714  L 85.650, 28.496  L 84.300, 22.650  L 85.650, 28.496  L 87.016, 28.178  L 85.647, 22.337  L 87.016, 28.178  L 92.483, 26.866  L 91.057, 21.038  L 92.483, 26.866  L 93.850, 26.530  L 92.414, 20.705  L 93.850, 26.530  L 99.317, 25.171  L 97.862, 19.350  L 99.317, 25.171  L 100.683, 24.829  L 99.228, 19.008  L 100.683, 24.829  L 106.150, 23.470  L 104.714, 17.644  L 106.150, 23.470  L 107.517, 23.134  L 106.090, 17.306  L 107.517, 23.134  L 112.984, 21.822  L 111.614, 15.980  L 112.984, 21.822  L 114.350, 21.504  L 113.000, 15.657  L 114.350, 21.504  L 119.817, 20.286  L 118.564, 14.418  L 119.817, 20.286  L 121.184, 19.997  L 119.959, 14.124  L 121.184, 19.997  L 126.651, 18.922  L 125.564, 13.021  L 126.651, 18.922  L 128.017, 18.674  L 126.970, 12.767  L 128.017, 18.674  L 133.484, 17.788  L 132.616, 11.851  L 133.484, 17.788  L 134.851, 17.594  L 134.033, 11.650  L 134.851, 17.594  L 140.318, 16.943  L 139.724, 10.973  L 140.318, 16.943  L 141.684, 16.814  L 141.152, 10.838  L 141.684, 16.814  L 147.151, 16.448  L 146.887, 10.453  L 147.151, 16.448  L 148.518, 16.396  L 148.326, 10.399  L 148.518, 16.396  L 153.985, 16.360  L 154.104, 10.361  L 153.985, 16.360  L 155.351, 16.396  L 155.553, 10.400  L 155.351, 16.396  L 160.818, 16.739  L 161.371, 10.764  L 160.818, 16.739  L 162.185, 16.876  L 162.829, 10.910  L 162.185, 16.876  L 167.652, 17.643  L 168.679, 11.732  L 167.652, 17.643  L 169.018, 17.893  L 170.144, 11.999  L 169.018, 17.893  L 174.485, 19.133  L 176.015, 13.332  L 174.485, 19.133  L 175.852, 19.507  L 177.484, 13.733  L 175.852, 19.507  L 181.319, 21.267  L 183.362, 15.626  L 181.319, 21.267  L 182.685, 21.776  L 184.832, 16.173  L 182.685, 21.776  L 188.152, 24.104  L 190.702, 18.673  L 188.152, 24.104  L 189.519, 24.761  L 192.168, 19.378  L 189.519, 24.761 "/>
    </g>
</svg>
