<?xml version="1.0" encoding="utf-8" ?>
<svg xmlns="http://www.w3.org/2000/svg" xmlns:ev="http://www.w3.org/2001/xml-events" xmlns:xlink="http://www.w3.org/1999/xlink" baseProfile="full" height="50mm" version="1.1" viewBox="0,0,200,50" width="200mm">
    <defs>
        <style type="text/css"><![CDATA[
.stitch_line {
    stroke-width: 0.3;
    stroke-linejoin: round;
    stroke-linecap: round;
    fill: none;
}
.path_center_line {
    fill: none;
    stroke:#808080;
    stroke-width: 0.2;
    stroke-linejoin: round;
    stroke-linecap: round;
}
.path_contour {
    fill: #808080;
    fill-opacity: 0.3;
    stroke: #808080;
    stroke-opacity: 1;
    stroke-width: 0.3;
}
.text{
    text-anchor: middle;
    dominant-baseline: middle;
    font-family: sans-serif;
    font-size: 1.5mm;
}
.smalltext{
    text-anchor: middle;
    dominant-baseline: middle;
    font-family: sans-serif;
    font-size: 1mm;
}
.color_0 {
    stroke:#3bb2d0;
}
.dot_0 {
    marker-start:url(#dot_0);
    marker-mid:url(#dot_0);
    marker-end:url(#dot_0);
}
]]></style>
        <marker id="dot_0" markerHeight="3.0" markerWidth="3.0" refX="1.5" refY="1.5">
            <circle cx="1.5" cy="1.5" fill="#3bb2d0" r="1.5"/>
        </marker>
    </defs>
    <g>
        <path class="stitch_line color_0 dot_0" d="M 8.882, 27.236  L 11.126, 27.713  L 13.423, 28.001  L 15.759, 28.099  L 18.121, 28.010  L 20.495, 27.733  L 22.867, 27.272  L 25.226, 26.629  L 26.968, 28.140  L 28.753, 29.720  L 30.587, 31.365  L 32.480, 33.068  L 34.435, 34.825  L 36.458, 36.630  L 38.553, 38.477  L 40.937, 37.278  L 43.260, 35.931  L 45.520, 34.444  L 47.712, 32.826  L 49.834, 31.085  L 51.885, 29.232  L 53.866, 27.273  L 56.045, 28.830  L 58.290, 30.414  L 60.599, 32.021  L 62.969, 33.648  L 65.396, 35.291  L 67.877, 36.946  L 70.407, 38.611  L 72.293, 36.344  L 74.121, 34.016  L 75.896, 31.632  L 77.622, 29.200  L 79.305, 26.724  L 80.950, 24.212  L 82.564, 21.669  L 85.108, 23.209  L 87.679, 24.756  L 90.274, 26.309  L 92.885, 27.866  L 95.508, 29.424  L 98.137, 30.982  L 100.766, 32.539  L 102.351, 29.934  L 103.933, 27.328  L 105.519, 24.727  L 107.115, 22.134  L 108.727, 19.556  L 110.361, 16.998  L 112.025, 14.464  L 114.651, 16.053  L 117.256, 17.640  L 119.833, 19.223  L 122.378, 20.800  L 124.886, 22.369  L 127.350, 23.926  L 129.768, 25.469  L 131.498, 23.095  L 133.282, 20.779  L 135.125, 18.529  L 137.031, 16.352  L 139.003, 14.256  L 141.043, 12.248  L 143.155, 10.337  L 145.539, 12.080  L 147.857, 13.803  L 150.107, 15.503  L 152.288, 17.174  L 154.400, 18.812  L 156.442, 20.412  L 158.416, 21.968  L 160.604, 20.486  L 162.855, 19.147  L 165.163, 17.960  L 167.520, 16.932  L 169.920, 16.070  L 172.352, 15.382  L 174.806, 14.873  L 176.646, 16.754  L 178.433, 18.570  L 180.174, 20.317  L 181.879, 21.990  L 183.560, 23.586  L 185.226, 25.100  L 186.889, 26.530  L 189.201, 26.597  L 187.551, 25.116  L 185.902, 23.550  L 184.241, 21.901  L 182.558, 20.172  L 180.842, 18.367  L 179.082, 16.491  L 176.646, 16.754  L 174.215, 17.202  L 171.800, 17.831  L 169.413, 18.635  L 167.063, 19.609  L 164.761, 20.745  L 162.512, 22.036  L 160.604, 20.486  L 158.632, 18.886  L 156.591, 17.241  L 154.480, 15.556  L 152.299, 13.838  L 150.048, 12.091  L 147.728, 10.321  L 145.539, 12.080  L 143.422, 13.948  L 141.377, 15.917  L 139.401, 17.979  L 137.492, 20.125  L 135.647, 22.348  L 133.862, 24.641  L 131.498, 23.095  L 129.081, 21.532  L 126.614, 19.955  L 124.104, 18.368  L 121.555, 16.772  L 118.971, 15.171  L 116.359, 13.567  L 114.651, 16.053  L 112.981, 18.573  L 111.341, 21.121  L 109.726, 23.691  L 108.130, 26.278  L 106.546, 28.877  L 104.968, 31.483  L 102.351, 29.934  L 99.727, 28.381  L 97.102, 26.827  L 94.481, 25.273  L 91.870, 23.722  L 89.275, 22.175  L 86.700, 20.633  L 85.108, 23.209  L 83.492, 25.761  L 81.847, 28.286  L 80.167, 30.777  L 78.445, 33.228  L 76.677, 35.633  L 74.857, 37.987  L 72.293, 36.344  L 69.772, 34.709  L 67.297, 33.084  L 64.875, 31.471  L 62.508, 29.875  L 60.201, 28.298  L 57.957, 26.744  L 56.045, 28.830  L 54.065, 30.822  L 52.014, 32.714  L 49.893, 34.497  L 47.701, 36.162  L 45.440, 37.700  L 43.112, 39.102  L 40.937, 37.278  L 38.834, 35.489  L 36.802, 33.741  L 34.837, 32.040  L 32.937, 30.391  L 31.095, 28.799  L 29.305, 27.271  L 26.968, 28.140  L 24.602, 28.835  L 22.217, 29.351  L 19.826, 29.683  L 17.442, 29.828  L 15.077, 29.785  L 12.747, 29.551  L 11.126, 27.713  L 9.521, 25.958  L 11.787, 26.298  L 14.098, 26.450  L 16.440, 26.414  L 18.800, 26.191  L 21.163, 25.783  L 22.867, 27.272  L 24.602, 28.835  L 26.377, 30.469  L 28.200, 32.169  L 30.080, 33.930  L 32.023, 35.746  L 34.033, 37.611  L 36.458, 36.630  L 38.834, 35.489  L 41.153, 34.196  L 43.409, 32.759  L 45.600, 31.188  L 47.722, 29.489  L 49.774, 27.674  L 51.885, 29.232  L 54.065, 30.822  L 56.311, 32.441  L 58.623, 34.083  L 60.997, 35.744  L 63.430, 37.421  L 65.918, 39.110  L 67.877, 36.946  L 69.772, 34.709  L 71.606, 32.406  L 73.386, 30.045  L 75.114, 27.631  L 76.798, 25.172  L 78.442, 22.672  L 80.950, 24.212  L 83.492, 25.761  L 86.063, 27.318  L 88.659, 28.879  L 91.273, 30.444  L 93.900, 32.010  L 96.535, 33.575  L 98.137, 30.982  L 99.727, 28.381  L 101.312, 25.776  L 102.898, 23.173  L 104.492, 20.576  L 106.100, 17.990  L 107.728, 15.422  L 110.361, 16.998  L 112.981, 18.573  L 115.580, 20.146  L 118.153, 21.714  L 120.695, 23.276  L 123.202, 24.828  L 125.667, 26.370  L 127.350, 23.926  L 129.081, 21.532  L 130.863, 19.193  L 132.703, 16.916  L 134.604, 14.709  L 136.570, 12.579  L 138.604, 10.533  L 141.043, 12.248  L 143.422, 13.948  L 145.737, 15.629  L 147.986, 17.286  L 150.166, 18.915  L 152.278, 20.511  L 154.320, 22.069  L 156.442, 20.412  L 158.632, 18.886  L 160.885, 17.498  L 163.198, 16.259  L 165.565, 15.175  L 167.977, 14.254  L 170.427, 13.505  L 172.352, 15.382  L 174.215, 17.202  L 176.022, 18.959  L 177.783, 20.649  L 179.505, 22.267  L 181.200, 23.809  L 182.878, 25.271  L 185.226, 25.100  L 187.551, 25.116  L 189.840, 25.319  L 188.213, 23.702  L 186.577, 21.999  L 184.923, 20.215  L 183.237, 18.353  L 180.842, 18.367  L 178.433, 18.570  L 176.022, 18.959  L 173.623, 19.531  L 171.247, 20.280  L 168.905, 21.201  L 166.606, 22.287  L 164.761, 20.745  L 162.855, 19.147  L 160.885, 17.498  L 158.847, 15.804  L 156.740, 14.069  L 154.560, 12.300  L 152.310, 10.502  L 150.048, 12.091  L 147.857, 13.803  L 145.737, 15.629  L 143.689, 17.559  L 141.710, 19.586  L 139.799, 21.702  L 137.953, 23.899  L 135.647, 22.348  L 133.282, 20.779  L 130.863, 19.193  L 128.394, 17.594  L 125.879, 15.984  L 123.323, 14.367  L 120.731, 12.744  L 118.971, 15.171  L 117.256, 17.640  L 115.580, 20.146  L 113.937, 22.682  L 112.321, 25.244  L 110.725, 27.825  L 109.145, 30.422  L 106.546, 28.877  L 103.933, 27.328  L 101.312, 25.776  L 98.688, 24.224  L 96.067, 22.672  L 93.454, 21.123  L 90.855, 19.578  L 89.275, 22.175  L 87.679, 24.756  L 86.063, 27.318  L 84.420, 29.854  L 82.744, 32.360  L 81.029, 34.829  L 79.269, 37.256  L 76.677, 35.633  L 74.121, 34.016  L 71.606, 32.406  L 69.137, 30.807  L 66.718, 29.221  L 64.353, 27.652  L 62.047, 26.101  L 60.201, 28.298  L 58.290, 30.414  L 56.311, 32.441  L 54.263, 34.371  L 52.143, 36.197  L 49.952, 37.909  L 47.690, 39.498  L 45.440, 37.700  L 43.260, 35.931  L 41.153, 34.196  L 39.115, 32.502  L 37.145, 30.853  L 35.239, 29.255  L 33.394, 27.713  L 31.095, 28.799  L 28.753, 29.720  L 26.377, 30.469  L 23.978, 31.041  L 21.567, 31.430  L 19.158, 31.633  L 16.763, 31.647  L 15.077, 29.785  L 13.423, 28.001  L 11.787, 26.298  L 10.160, 24.681  L 12.449, 24.884  L 14.774, 24.900  L 17.122, 24.729  L 18.800, 26.191  L 20.495, 27.733  L 22.217, 29.351  L 23.978, 31.041  L 25.785, 32.798  L 27.648, 34.618  L 29.573, 36.495  L 32.023, 35.746  L 34.435, 34.825  L 36.802, 33.741  L 39.115, 32.502  L 41.368, 31.114  L 43.558, 29.588  L 45.680, 27.931  L 47.722, 29.489  L 49.834, 31.085  L 52.014, 32.714  L 54.263, 34.371  L 56.578, 36.052  L 58.957, 37.752  L 61.396, 39.467  L 63.430, 37.421  L 65.396, 35.291  L 67.297, 33.084  L 69.137, 30.807  L 70.919, 28.468  L 72.650, 26.074  L 74.333, 23.630  L 76.798, 25.172  L 79.305, 26.724  L 81.847, 28.286  L 84.420, 29.854  L 87.019, 31.427  L 89.639, 33.002  L 92.272, 34.578  L 93.900, 32.010  L 95.508, 29.424  L 97.102, 26.827  L 98.688, 24.224  L 100.273, 21.619  L 101.863, 19.018  L 103.465, 16.425  L 106.100, 17.990  L 108.727, 19.556  L 111.341, 21.121  L 113.937, 22.682  L 116.508, 24.239  L 119.050, 25.788  L 121.558, 27.328  L 123.202, 24.828  L 124.886, 22.369  L 126.614, 19.955  L 128.394, 17.594  L 130.228, 15.291  L 132.123, 13.054  L 134.082, 10.890  L 136.570, 12.579  L 139.003, 14.256  L 141.377, 15.917  L 143.689, 17.559  L 145.935, 19.178  L 148.115, 20.768  L 150.226, 22.326  L 152.278, 20.511  L 154.400, 18.812  L 156.591, 17.241  L 158.847, 15.804  L 161.166, 14.511  L 163.542, 13.370  L 165.967, 12.389  L 167.977, 14.254  L 169.920, 16.070  L 171.800, 17.831  L 173.623, 19.531  L 175.398, 21.165  L 177.133, 22.728  L 178.837, 24.217  L 181.200, 23.809  L 183.560, 23.586  L 185.902, 23.550  L 188.213, 23.702  L 190.479, 24.042  L 188.874, 22.287  L 187.253, 20.449  L 184.923, 20.215  L 182.558, 20.172  L 180.174, 20.317  L 177.783, 20.649  L 175.398, 21.165  L 173.032, 21.860  L 170.695, 22.729  L 168.905, 21.201  L 167.063, 19.609  L 165.163, 17.960  L 163.198, 16.259  L 161.166, 14.511  L 159.063, 12.722  L 156.888, 10.898  L 154.560, 12.300  L 152.299, 13.838  L 150.107, 15.503  L 147.986, 17.286  L 145.935, 19.178  L 143.955, 21.170  L 142.043, 23.256  L 139.799, 21.702  L 137.492, 20.125  L 135.125, 18.529  L 132.703, 16.916  L 130.228, 15.291  L 127.707, 13.656  L 125.143, 12.013  L 123.323, 14.367  L 121.555, 16.772  L 119.833, 19.223  L 118.153, 21.714  L 116.508, 24.239  L 114.892, 26.791  L 113.300, 29.367  L 110.725, 27.825  L 108.130, 26.278  L 105.519, 24.727  L 102.898, 23.173  L 100.273, 21.619  L 97.649, 20.066  L 95.032, 18.517  L 93.454, 21.123  L 91.870, 23.722  L 90.274, 26.309  L 88.659, 28.879  L 87.019, 31.427  L 85.349, 33.947  L 83.641, 36.433  L 81.029, 34.829  L 78.445, 33.228  L 75.896, 31.632  L 73.386, 30.045  L 70.919, 28.468  L 68.502, 26.905  L 66.138, 25.359  L 64.353, 27.652  L 62.508, 29.875  L 60.599, 32.021  L 58.623, 34.083  L 56.578, 36.052  L 54.461, 37.920  L 52.272, 39.679  L 49.952, 37.909  L 47.701, 36.162  L 45.520, 34.444  L 43.409, 32.759  L 41.368, 31.114  L 39.396, 29.514  L 37.488, 27.964  L 35.239, 29.255  L 32.937, 30.391  L 30.587, 31.365  L 28.200, 32.169  L 25.785, 32.798  L 23.354, 33.246  L 20.918, 33.509  L 19.158, 31.633  L 17.442, 29.828  L 15.759, 28.099  L 14.098, 26.450  L 12.449, 24.884  L 10.799, 23.403  L 13.111, 23.470  L 14.774, 24.900  L 16.440, 26.414  L 18.121, 28.010  L 19.826, 29.683  L 21.567, 31.430  L 23.354, 33.246  L 25.194, 35.127  L 27.648, 34.618  L 30.080, 33.930  L 32.480, 33.068  L 34.837, 32.040  L 37.145, 30.853  L 39.396, 29.514  L 41.584, 28.032  L 43.558, 29.588  L 45.600, 31.188  L 47.712, 32.826  L 49.893, 34.497  L 52.143, 36.197  L 54.461, 37.920  L 56.845, 39.663  L 58.957, 37.752  L 60.997, 35.744  L 62.969, 33.648  L 64.875, 31.471  L 66.718, 29.221  L 68.502, 26.905  L 70.232, 24.531  L 72.650, 26.074  L 75.114, 27.631  L 77.622, 29.200  L 80.167, 30.777  L 82.744, 32.360  L 85.349, 33.947  L 87.975, 35.536  L 89.639, 33.002  L 91.273, 30.444  L 92.885, 27.866  L 94.481, 25.273  L 96.067, 22.672  L 97.649, 20.066  L 99.234, 17.461  L 101.863, 19.018  L 104.492, 20.576  L 107.115, 22.134  L 109.726, 23.691  L 112.321, 25.244  L 114.892, 26.791  L 117.436, 28.331  L 119.050, 25.788  L 120.695, 23.276  L 122.378, 20.800  L 124.104, 18.368  L 125.879, 15.984  L 127.707, 13.656  L 129.593, 11.389  L 132.123, 13.054  L 134.604, 14.709  L 137.031, 16.352  L 139.401, 17.979  L 141.710, 19.586  L 143.955, 21.170  L 146.134, 22.727  L 148.115, 20.768  L 150.166, 18.915  L 152.288, 17.174  L 154.480, 15.556  L 156.740, 14.069  L 159.063, 12.722  L 161.447, 11.523  L 163.542, 13.370  L 165.565, 15.175  L 167.520, 16.932  L 169.413, 18.635  L 171.247, 20.280  L 173.032, 21.860  L 174.774, 23.371  L 177.133, 22.728  L 179.505, 22.267  L 181.879, 21.990  L 184.241, 21.901  L 186.577, 21.999  L 188.874, 22.287  L 191.118, 22.764 "/>
    </g>
</svg>
