<?xml version="1.0" encoding="utf-8" ?>
<svg xmlns="http://www.w3.org/2000/svg" xmlns:ev="http://www.w3.org/2001/xml-events" xmlns:xlink="http://www.w3.org/1999/xlink" baseProfile="full" height="50mm" version="1.1" viewBox="0,0,200,50" width="200mm">
    <defs>
        <style type="text/css"><![CDATA[
.stitch_line {
    stroke-width: 0.3;
    stroke-linejoin: round;
    stroke-linecap: round;
    fill: none;
}
.path_center_line {
    fill: none;
    stroke:#808080;
    stroke-width: 0.2;
    stroke-linejoin: round;
    stroke-linecap: round;
}
.path_contour {
    fill: #808080;
    fill-opacity: 0.3;
    stroke: #808080;
    stroke-opacity: 1;
    stroke-width: 0.3;
}
.text{
    text-anchor: middle;
    dominant-baseline: middle;
    font-family: sans-serif;
    font-size: 1.5mm;
}
.smalltext{
    text-anchor: middle;
    dominant-baseline: middle;
    font-family: sans-serif;
    font-size: 1mm;
}
.color_0 {
    stroke:#3bb2d0;
}
.dot_0 {
    marker-start:url(#dot_0);
    marker-mid:url(#dot_0);
    marker-end:url(#dot_0);
}
]]></style>
        <marker id="dot_0" markerHeight="3.0" markerWidth="3.0" refX="1.5" refY="1.5">
            <circle cx="1.5" cy="1.5" fill="#3bb2d0" r="1.5"/>
        </marker>
    </defs>
    <g>
        <path class="stitch_line color_0 dot_0" d="M 8.882, 27.236  L 10.602, 28.276  L 12.375, 29.223  L 14.200, 30.063  L 16.075, 30.786  L 17.998, 31.378  L 19.963, 31.828  L 21.964, 32.126  L 23.996, 32.261  L 26.051, 32.224  L 28.119, 32.007  L 30.193, 31.602  L 32.262, 31.003  L 34.318, 30.205  L 36.351, 29.203  L 38.350, 27.993  L 40.065, 29.390  L 41.840, 30.731  L 43.670, 32.004  L 45.550, 33.199  L 47.477, 34.306  L 49.443, 35.315  L 51.443, 36.219  L 53.468, 37.010  L 55.514, 37.681  L 57.571, 38.227  L 59.635, 38.642  L 61.697, 38.922  L 63.751, 39.063  L 65.792, 39.062  L 67.812, 38.916  L 69.808, 38.624  L 71.775, 38.182  L 73.707, 37.591  L 75.601, 36.850  L 77.455, 35.957  L 79.265, 34.914  L 81.030, 33.721  L 82.748, 32.378  L 84.419, 30.886  L 86.042, 29.247  L 87.619, 27.462  L 89.150, 25.533  L 90.637, 23.463  L 92.083, 21.253  L 93.490, 18.908  L 95.830, 20.308  L 98.145, 21.581  L 100.432, 22.727  L 102.688, 23.745  L 104.908, 24.634  L 107.092, 25.393  L 109.238, 26.022  L 111.344, 26.523  L 113.410, 26.895  L 115.436, 27.140  L 117.423, 27.259  L 119.373, 27.255  L 121.287, 27.127  L 123.168, 26.881  L 125.019, 26.517  L 126.843, 26.040  L 128.645, 25.454  L 130.429, 24.762  L 132.200, 23.969  L 133.963, 23.080  L 135.725, 22.101  L 137.492, 21.039  L 139.269, 19.900  L 141.063, 18.692  L 142.882, 17.424  L 144.730, 16.104  L 146.616, 14.743  L 148.544, 13.350  L 150.521, 11.938  L 152.551, 10.517  L 154.564, 12.141  L 156.524, 13.642  L 158.437, 15.024  L 160.308, 16.291  L 162.143, 17.448  L 163.950, 18.500  L 165.735, 19.453  L 167.503, 20.315  L 169.263, 21.092  L 171.018, 21.793  L 172.776, 22.426  L 174.539, 23.001  L 176.313, 23.527  L 178.100, 24.015  L 179.903, 24.474  L 181.722, 24.917  L 183.556, 25.354  L 185.404, 25.796  L 187.264, 26.254  L 189.130, 26.739  L 187.469, 25.818  L 185.823, 24.849  L 184.191, 23.821  L 182.569, 22.724  L 180.953, 21.548  L 179.337, 20.285  L 177.715, 18.926  L 176.081, 17.462  L 174.426, 15.887  L 172.743, 14.193  L 170.544, 14.753  L 168.382, 15.371  L 166.261, 16.036  L 164.181, 16.732  L 162.143, 17.448  L 160.145, 18.169  L 158.185, 18.883  L 156.260, 19.579  L 154.365, 20.245  L 152.495, 20.871  L 150.645, 21.447  L 148.811, 21.963  L 146.984, 22.412  L 145.161, 22.785  L 143.335, 23.076  L 141.500, 23.277  L 139.650, 23.383  L 137.781, 23.388  L 135.887, 23.289  L 133.963, 23.080  L 132.007, 22.758  L 130.013, 22.319  L 127.979, 21.762  L 125.903, 21.083  L 123.782, 20.280  L 121.615, 19.352  L 119.401, 18.297  L 117.140, 17.115  L 114.832, 15.805  L 112.479, 14.366  L 110.989, 16.644  L 109.493, 18.813  L 107.984, 20.871  L 106.458, 22.812  L 104.908, 24.634  L 103.332, 26.331  L 101.725, 27.901  L 100.085, 29.342  L 98.408, 30.651  L 96.693, 31.825  L 94.939, 32.864  L 93.144, 33.765  L 91.309, 34.527  L 89.434, 35.150  L 87.521, 35.634  L 85.571, 35.977  L 83.586, 36.180  L 81.569, 36.244  L 79.524, 36.169  L 77.455, 35.957  L 75.366, 35.610  L 73.263, 35.130  L 71.151, 34.519  L 69.036, 33.780  L 66.925, 32.918  L 64.823, 31.937  L 62.740, 30.841  L 60.680, 29.636  L 58.653, 28.328  L 56.665, 26.924  L 54.939, 28.774  L 53.152, 30.436  L 51.309, 31.913  L 49.416, 33.202  L 47.477, 34.306  L 45.501, 35.225  L 43.493, 35.962  L 41.463, 36.520  L 39.417, 36.902  L 37.363, 37.112  L 35.310, 37.156  L 33.266, 37.040  L 31.237, 36.771  L 29.232, 36.357  L 27.257, 35.807  L 25.317, 35.130  L 23.418, 34.338  L 21.564, 33.440  L 19.756, 32.450  L 17.998, 31.378  L 16.287, 30.237  L 14.623, 29.041  L 13.003, 27.802  L 11.423, 26.534  L 9.876, 25.248  L 11.833, 25.663  L 13.841, 25.909  L 15.894, 25.975  L 17.982, 25.851  L 20.097, 25.526  L 21.611, 26.856  L 23.166, 28.182  L 24.767, 29.491  L 26.418, 30.771  L 28.119, 32.007  L 29.873, 33.187  L 31.676, 34.299  L 33.529, 35.331  L 35.426, 36.272  L 37.363, 37.112  L 39.335, 37.840  L 41.337, 38.449  L 43.361, 38.931  L 45.401, 39.277  L 47.449, 39.483  L 49.499, 39.542  L 51.543, 39.449  L 53.574, 39.201  L 55.586, 38.795  L 57.571, 38.227  L 59.526, 37.496  L 61.443, 36.601  L 63.318, 35.539  L 65.146, 34.312  L 66.925, 32.918  L 68.650, 31.359  L 70.320, 29.634  L 71.932, 27.746  L 73.486, 25.695  L 74.981, 23.483  L 77.194, 24.876  L 79.413, 26.152  L 81.632, 27.308  L 83.843, 28.340  L 86.042, 29.247  L 88.224, 30.025  L 90.384, 30.673  L 92.517, 31.189  L 94.621, 31.574  L 96.693, 31.825  L 98.730, 31.944  L 100.731, 31.929  L 102.695, 31.782  L 104.621, 31.502  L 106.510, 31.092  L 108.362, 30.553  L 110.178, 29.886  L 111.961, 29.093  L 113.712, 28.177  L 115.436, 27.140  L 117.136, 25.987  L 118.815, 24.720  L 120.479, 23.343  L 122.133, 21.862  L 123.782, 20.280  L 125.433, 18.604  L 127.092, 16.839  L 128.766, 14.993  L 130.462, 13.072  L 132.188, 11.084  L 134.434, 12.600  L 136.625, 13.991  L 138.761, 15.257  L 140.845, 16.400  L 142.882, 17.424  L 144.874, 18.331  L 146.826, 19.125  L 148.744, 19.810  L 150.632, 20.390  L 152.495, 20.871  L 154.340, 21.258  L 156.172, 21.558  L 157.997, 21.777  L 159.821, 21.924  L 161.650, 22.007  L 163.488, 22.035  L 165.340, 22.016  L 167.210, 21.963  L 169.103, 21.885  L 171.018, 21.793  L 172.959, 21.700  L 174.925, 21.616  L 176.914, 21.555  L 178.925, 21.528  L 180.953, 21.548  L 182.993, 21.627  L 185.038, 21.776  L 187.081, 22.008  L 189.111, 22.334  L 191.118, 22.764 "/>
    </g>
</svg>
