<?xml version="1.0" encoding="utf-8" ?>
<svg xmlns="http://www.w3.org/2000/svg" xmlns:ev="http://www.w3.org/2001/xml-events" xmlns:xlink="http://www.w3.org/1999/xlink" baseProfile="full" height="50mm" version="1.1" viewBox="0,0,200,50" width="200mm">
    <defs>
        <style type="text/css"><![CDATA[
.stitch_line {
    stroke-width: 0.3;
    stroke-linejoin: round;
    stroke-linecap: round;
    fill: none;
}
.path_center_line {
    stroke-width: 0.2;
    stroke-linejoin: round;
    stroke-linecap: round;
    fill: none;
    stroke:#333;
}
.path_contour {
    stroke: #ddd;
    fill-opacity: 1;
    fill: #eee;
    stroke-width: 0.3;
}
.text{
    text-anchor: middle;
    dominant-baseline: middle;
    font-family: sans-serif;
    font-size: 1.5mm;
}
.smalltext{
    text-anchor: middle;
    dominant-baseline: middle;
    font-family: sans-serif;
    font-size: 1mm;
}
.color_0 {
    stroke:#148983;
}
.dot_0 {
    marker-start:url(#dot_0);
    marker-mid:url(#dot_0);
    marker-end:url(#dot_0);
}
]]></style>
        <marker id="dot_0" markerHeight="3.0" markerWidth="3.0" refX="1.5" refY="1.5">
            <circle cx="1.5" cy="1.5" fill="#148983" r="1.5"/>
        </marker>
    </defs>
    <g>
        <path class="stitch_line color_0 dot_0" d="M 11.118, 22.764  L 10.000, 25.000  L 8.882, 27.236  L 10.806, 28.406  L 11.533, 26.852  L 13.107, 23.487  L 15.083, 24.149  L 14.313, 25.914  L 12.743, 29.512  L 14.693, 30.556  L 15.870, 27.654  L 17.046, 24.752  L 18.997, 25.298  L 18.529, 26.545  L 17.475, 29.354  L 16.656, 31.537  L 18.630, 32.457  L 19.129, 31.013  L 20.109, 28.178  L 20.936, 25.789  L 22.863, 26.226  L 21.739, 29.771  L 20.615, 33.316  L 22.611, 34.116  L 23.418, 31.325  L 24.251, 28.443  L 24.780, 26.612  L 26.688, 26.948  L 25.905, 29.935  L 25.146, 32.838  L 24.617, 34.857  L 26.632, 35.541  L 26.922, 34.309  L 27.609, 31.389  L 28.296, 28.469  L 28.585, 27.237  L 30.475, 27.480  L 29.975, 29.866  L 29.360, 32.803  L 28.656, 36.167  L 30.687, 36.738  L 31.159, 34.176  L 31.703, 31.225  L 32.356, 27.679  L 34.230, 27.836  L 33.951, 29.583  L 33.478, 32.545  L 33.005, 35.507  L 32.726, 37.254  L 34.771, 37.716  L 35.300, 33.825  L 35.704, 30.852  L 36.099, 27.952  L 37.961, 28.029  L 37.840, 29.103  L 37.504, 32.084  L 37.167, 35.065  L 36.821, 38.126  L 38.876, 38.484  L 39.077, 36.264  L 39.348, 33.277  L 39.619, 30.289  L 39.820, 28.069  L 41.674, 28.072  L 41.442, 31.437  L 41.236, 34.430  L 41.029, 37.423  L 40.934, 38.793  L 42.996, 39.053  L 43.165, 35.545  L 43.309, 32.548  L 43.453, 29.552  L 43.526, 28.041  L 45.375, 27.976  L 45.301, 30.622  L 45.217, 33.621  L 45.134, 36.620  L 45.060, 39.267  L 47.125, 39.434  L 47.140, 37.656  L 47.166, 34.657  L 47.191, 31.657  L 47.222, 27.879  L 49.069, 27.752  L 49.089, 29.655  L 49.120, 32.655  L 49.151, 35.654  L 49.192, 39.557  L 51.258, 39.637  L 51.172, 36.615  L 51.087, 33.616  L 51.002, 30.618  L 50.916, 27.596  L 52.762, 27.411  L 52.815, 28.549  L 52.952, 31.546  L 53.089, 34.543  L 53.227, 37.539  L 53.325, 39.676  L 55.390, 39.675  L 55.312, 38.428  L 55.125, 35.434  L 54.938, 32.439  L 54.750, 29.445  L 54.610, 27.200  L 56.459, 26.963  L 56.722, 30.309  L 56.957, 33.299  L 57.191, 36.290  L 57.454, 39.636  L 59.515, 39.561  L 59.286, 37.114  L 59.006, 34.127  L 58.726, 31.140  L 58.447, 28.153  L 58.311, 26.701  L 60.164, 26.417  L 60.439, 28.957  L 60.762, 31.939  L 61.085, 34.922  L 61.408, 37.904  L 61.575, 39.450  L 63.631, 39.306  L 63.190, 35.686  L 62.826, 32.708  L 62.463, 29.730  L 62.021, 26.110  L 63.881, 25.783  L 64.113, 27.501  L 64.515, 30.474  L 64.917, 33.447  L 65.318, 36.420  L 65.685, 39.130  L 67.734, 38.924  L 67.469, 37.126  L 67.031, 34.158  L 66.593, 31.190  L 66.155, 28.222  L 65.744, 25.435  L 67.611, 25.070  L 68.224, 28.917  L 68.696, 31.879  L 69.167, 34.842  L 69.780, 38.689  L 71.822, 38.426  L 71.324, 35.500  L 70.820, 32.543  L 70.317, 29.585  L 69.813, 26.628  L 69.483, 24.687  L 71.359, 24.289  L 71.898, 27.277  L 72.431, 30.229  L 72.964, 33.182  L 73.497, 36.134  L 73.859, 38.138  L 75.891, 37.827  L 75.686, 36.745  L 75.125, 33.798  L 74.565, 30.851  L 74.005, 27.904  L 73.445, 24.956  L 73.239, 23.875  L 75.125, 23.448  L 75.546, 25.566  L 76.131, 28.509  L 76.717, 31.451  L 77.302, 34.393  L 77.919, 37.492  L 79.941, 37.137  L 79.492, 34.969  L 78.884, 32.031  L 78.275, 29.094  L 77.667, 26.156  L 77.015, 23.009  L 78.911, 22.558  L 79.176, 23.794  L 79.805, 26.727  L 80.435, 29.660  L 81.064, 32.593  L 81.693, 35.527  L 81.959, 36.762  L 83.970, 36.370  L 83.256, 33.139  L 82.607, 30.210  L 81.959, 27.281  L 81.311, 24.352  L 80.812, 22.098  L 82.719, 21.629  L 83.461, 24.894  L 84.126, 27.820  L 84.791, 30.745  L 85.456, 33.670  L 85.977, 35.961  L 87.977, 35.537  L 87.664, 34.189  L 86.984, 31.267  L 86.304, 28.345  L 85.625, 25.423  L 84.945, 22.501  L 84.631, 21.152  L 86.549, 20.670  L 87.107, 23.020  L 87.799, 25.939  L 88.492, 28.858  L 89.184, 31.777  L 89.972, 35.100  L 91.962, 34.650  L 91.389, 32.277  L 90.686, 29.361  L 89.983, 26.445  L 89.280, 23.528  L 88.473, 20.183  L 90.403, 19.693  L 90.750, 21.113  L 91.462, 24.027  L 92.174, 26.942  L 92.886, 29.856  L 93.598, 32.770  L 93.945, 34.191  L 95.922, 33.722  L 95.089, 30.345  L 94.370, 27.432  L 93.651, 24.519  L 92.932, 21.607  L 92.338, 19.200  L 94.280, 18.707  L 95.122, 22.095  L 95.846, 25.006  L 96.569, 27.917  L 97.293, 30.829  L 97.894, 33.246  L 99.859, 32.763  L 99.497, 31.310  L 98.770, 28.400  L 98.043, 25.489  L 97.317, 22.578  L 96.590, 19.668  L 96.227, 18.215  L 98.181, 17.724  L 98.787, 20.149  L 99.515, 23.060  L 100.243, 25.970  L 100.970, 28.881  L 101.819, 32.276  L 103.773, 31.785  L 103.168, 29.362  L 102.441, 26.452  L 101.714, 23.541  L 100.988, 20.630  L 100.141, 17.237  L 102.106, 16.754  L 102.466, 18.201  L 103.189, 21.112  L 103.913, 24.024  L 104.637, 26.935  L 105.360, 29.846  L 105.720, 31.293  L 107.662, 30.800  L 106.828, 27.422  L 106.109, 24.510  L 105.390, 21.597  L 104.671, 18.685  L 104.078, 16.278  L 106.055, 15.809  L 106.877, 19.173  L 107.589, 22.087  L 108.301, 25.001  L 109.013, 27.915  L 109.597, 30.307  L 111.527, 29.817  L 111.189, 28.416  L 110.486, 25.500  L 109.783, 22.583  L 109.079, 19.667  L 108.376, 16.750  L 108.038, 15.350  L 110.028, 14.900  L 110.585, 17.250  L 111.277, 20.169  L 111.970, 23.088  L 112.662, 26.007  L 113.451, 29.330  L 115.369, 28.848  L 114.829, 26.525  L 114.149, 23.603  L 113.469, 20.681  L 112.789, 17.759  L 112.023, 14.463  L 114.023, 14.039  L 114.322, 15.355  L 114.987, 18.280  L 115.652, 21.205  L 116.317, 24.131  L 116.982, 27.056  L 117.281, 28.371  L 119.188, 27.902  L 118.473, 24.672  L 117.825, 21.743  L 117.177, 18.814  L 116.528, 15.884  L 116.030, 13.630  L 118.041, 13.238  L 118.726, 16.429  L 119.355, 19.362  L 119.985, 22.295  L 120.614, 25.229  L 121.089, 27.442  L 122.985, 26.991  L 122.739, 25.803  L 122.130, 22.865  L 121.522, 19.927  L 120.913, 16.990  L 120.305, 14.052  L 120.059, 12.863  L 122.081, 12.508  L 122.503, 14.626  L 123.088, 17.568  L 123.673, 20.511  L 124.259, 23.453  L 124.875, 26.552  L 126.761, 26.125  L 126.369, 24.061  L 125.808, 21.114  L 125.248, 18.167  L 124.688, 15.220  L 124.109, 12.173  L 126.141, 11.862  L 126.325, 12.882  L 126.858, 15.834  L 127.391, 18.786  L 127.924, 21.739  L 128.457, 24.691  L 128.641, 25.711  L 130.517, 25.313  L 130.019, 22.386  L 129.516, 19.429  L 129.012, 16.472  L 128.509, 13.514  L 128.178, 11.574  L 130.220, 11.311  L 130.675, 14.171  L 131.147, 17.133  L 131.619, 20.096  L 132.091, 23.059  L 132.389, 24.930  L 134.256, 24.565  L 133.699, 20.788  L 133.261, 17.820  L 132.823, 14.853  L 132.266, 11.076  L 134.315, 10.870  L 134.548, 12.589  L 134.950, 15.562  L 135.351, 18.535  L 135.753, 21.508  L 136.119, 24.217  L 137.979, 23.890  L 137.780, 22.255  L 137.416, 19.277  L 137.053, 16.299  L 136.689, 13.321  L 136.369, 10.694  L 138.425, 10.550  L 138.808, 14.084  L 139.130, 17.067  L 139.453, 20.049  L 139.836, 23.583  L 141.689, 23.299  L 141.460, 20.852  L 141.180, 17.865  L 140.900, 14.878  L 140.621, 11.891  L 140.485, 10.439  L 142.546, 10.364  L 142.731, 12.713  L 142.965, 15.704  L 143.200, 18.694  L 143.435, 21.685  L 143.541, 23.037  L 145.390, 22.800  L 145.187, 19.557  L 145.000, 16.562  L 144.813, 13.568  L 144.610, 10.325  L 146.675, 10.324  L 146.728, 11.462  L 146.865, 14.458  L 147.002, 17.455  L 147.140, 20.452  L 147.238, 22.589  L 149.084, 22.404  L 149.055, 21.382  L 148.970, 18.383  L 148.885, 15.384  L 148.799, 12.385  L 148.742, 10.363  L 150.808, 10.443  L 150.838, 13.346  L 150.870, 16.345  L 150.901, 19.345  L 150.931, 22.248  L 152.778, 22.121  L 152.793, 20.343  L 152.818, 17.343  L 152.843, 14.343  L 152.875, 10.566  L 154.940, 10.733  L 154.894, 12.380  L 154.810, 15.379  L 154.727, 18.378  L 154.625, 22.024  L 156.474, 21.959  L 156.595, 19.449  L 156.739, 16.453  L 156.883, 13.456  L 157.004, 10.947  L 159.066, 11.207  L 158.833, 14.572  L 158.627, 17.565  L 158.420, 20.558  L 158.326, 21.928  L 160.180, 21.931  L 160.472, 18.715  L 160.742, 15.727  L 161.013, 12.740  L 161.124, 11.516  L 163.179, 11.874  L 162.945, 13.941  L 162.609, 16.922  L 162.272, 19.903  L 162.039, 21.971  L 163.901, 22.048  L 164.430, 18.157  L 164.835, 15.184  L 165.229, 12.284  L 167.274, 12.746  L 166.679, 16.468  L 166.206, 19.430  L 165.770, 22.164  L 167.644, 22.321  L 167.935, 20.742  L 168.478, 17.791  L 169.022, 14.841  L 169.313, 13.262  L 171.344, 13.833  L 170.845, 16.219  L 170.230, 19.155  L 169.525, 22.520  L 171.415, 22.763  L 171.933, 20.558  L 172.620, 17.638  L 173.368, 14.459  L 175.383, 15.143  L 175.108, 16.195  L 174.348, 19.097  L 173.588, 21.999  L 173.312, 23.052  L 175.220, 23.388  L 176.027, 20.597  L 176.860, 17.715  L 177.389, 15.884  L 179.385, 16.684  L 178.563, 19.276  L 177.656, 22.135  L 177.137, 23.774  L 179.064, 24.211  L 180.217, 20.877  L 181.370, 17.543  L 183.344, 18.463  L 182.877, 19.710  L 181.823, 22.519  L 181.003, 24.702  L 182.954, 25.248  L 183.379, 24.200  L 184.506, 21.419  L 185.307, 19.444  L 187.257, 20.488  L 186.087, 23.169  L 184.917, 25.851  L 186.893, 26.513  L 187.620, 24.959  L 189.194, 21.594  L 191.118, 22.764  L 190.447, 24.106  L 188.882, 27.236 "/>
    </g>
</svg>
