<?xml version="1.0" encoding="utf-8" ?>
<svg xmlns="http://www.w3.org/2000/svg" xmlns:ev="http://www.w3.org/2001/xml-events" xmlns:xlink="http://www.w3.org/1999/xlink" baseProfile="full" height="50mm" version="1.1" viewBox="0,0,200,50" width="200mm">
    <defs>
        <style type="text/css"><![CDATA[
.stitch_line {
    stroke-width: 0.3;
    stroke-linejoin: round;
    stroke-linecap: round;
    fill: none;
}
.path_center_line {
    fill: none;
    stroke:#808080;
    stroke-width: 0.2;
    stroke-linejoin: round;
    stroke-linecap: round;
}
.path_contour {
    fill: #808080;
    fill-opacity: 0.3;
    stroke: #808080;
    stroke-opacity: 1;
    stroke-width: 0.3;
}
.text{
    text-anchor: middle;
    dominant-baseline: middle;
    font-family: sans-serif;
    font-size: 1.5mm;
}
.smalltext{
    text-anchor: middle;
    dominant-baseline: middle;
    font-family: sans-serif;
    font-size: 1mm;
}
.color_0 {
    stroke:#3bb2d0;
}
.dot_0 {
    marker-start:url(#dot_0);
    marker-mid:url(#dot_0);
    marker-end:url(#dot_0);
}
]]></style>
        <marker id="dot_0" markerHeight="3.0" markerWidth="3.0" refX="1.5" refY="1.5">
            <circle cx="1.5" cy="1.5" fill="#3bb2d0" r="1.5"/>
        </marker>
    </defs>
    <g>
        <path class="stitch_line color_0 dot_0" d="M 11.118, 22.764  L 10.000, 25.000  L 8.882, 27.236  L 11.558, 28.871  L 12.728, 26.302  L 13.897, 23.734  L 16.693, 24.605  L 15.501, 27.504  L 14.310, 30.402  L 17.132, 31.824  L 18.318, 28.600  L 19.504, 25.376  L 22.326, 26.047  L 21.174, 29.590  L 20.021, 33.132  L 22.972, 34.323  L 23.701, 31.754  L 24.430, 29.186  L 25.159, 26.617  L 28.000, 27.088  L 27.325, 29.856  L 26.651, 32.625  L 25.977, 35.393  L 29.030, 36.341  L 29.635, 33.381  L 30.240, 30.421  L 30.846, 27.461  L 33.696, 27.738  L 33.172, 30.881  L 32.648, 34.023  L 32.123, 37.166  L 35.251, 37.869  L 35.683, 34.554  L 36.116, 31.238  L 36.548, 27.923  L 39.402, 28.018  L 39.069, 31.496  L 38.737, 34.974  L 38.404, 38.453  L 41.576, 38.918  L 41.746, 36.196  L 41.916, 33.473  L 42.086, 30.750  L 42.256, 28.027  L 45.110, 27.955  L 45.023, 30.784  L 44.936, 33.613  L 44.849, 36.442  L 44.762, 39.271  L 47.953, 39.514  L 47.956, 36.587  L 47.958, 33.660  L 47.960, 30.733  L 47.962, 27.806  L 50.814, 27.585  L 50.897, 30.602  L 50.980, 33.619  L 51.063, 36.637  L 51.146, 39.654  L 54.336, 39.695  L 54.168, 36.596  L 54.000, 33.496  L 53.833, 30.396  L 53.665, 27.296  L 56.515, 26.945  L 56.766, 30.120  L 57.016, 33.295  L 57.267, 36.470  L 57.518, 39.645  L 60.689, 39.509  L 60.358, 36.265  L 60.027, 33.022  L 59.696, 29.779  L 59.365, 26.535  L 62.214, 26.073  L 62.622, 29.378  L 63.030, 32.683  L 63.438, 35.988  L 63.846, 39.293  L 66.988, 39.004  L 66.604, 36.316  L 66.219, 33.627  L 65.834, 30.939  L 65.449, 28.251  L 65.065, 25.562  L 67.916, 25.009  L 68.356, 27.736  L 68.795, 30.464  L 69.234, 33.192  L 69.674, 35.920  L 70.113, 38.648  L 73.220, 38.230  L 72.730, 35.468  L 72.240, 32.705  L 71.750, 29.942  L 71.260, 27.179  L 70.770, 24.416  L 73.627, 23.790  L 74.163, 26.584  L 74.699, 29.377  L 75.236, 32.171  L 75.772, 34.964  L 76.308, 37.758  L 79.377, 37.236  L 78.799, 34.416  L 78.221, 31.595  L 77.643, 28.775  L 77.065, 25.955  L 76.487, 23.134  L 79.353, 22.453  L 79.968, 25.297  L 80.583, 28.140  L 81.197, 30.984  L 81.812, 33.827  L 82.427, 36.671  L 85.458, 36.067  L 84.811, 33.204  L 84.165, 30.341  L 83.518, 27.478  L 82.872, 24.615  L 82.225, 21.752  L 85.104, 21.035  L 85.778, 23.914  L 86.451, 26.793  L 87.124, 29.671  L 87.797, 32.550  L 88.470, 35.429  L 91.465, 34.763  L 90.770, 31.872  L 90.076, 28.980  L 89.381, 26.089  L 88.687, 23.197  L 87.992, 20.306  L 90.889, 19.569  L 91.600, 22.470  L 92.311, 25.371  L 93.021, 28.272  L 93.732, 31.172  L 94.443, 34.073  L 97.404, 33.365  L 96.683, 30.458  L 95.961, 27.551  L 95.240, 24.644  L 94.518, 21.737  L 93.797, 18.830  L 96.716, 18.091  L 97.443, 21.001  L 98.170, 23.911  L 98.897, 26.821  L 99.624, 29.732  L 100.351, 32.642  L 103.284, 31.909  L 102.557, 28.999  L 101.830, 26.089  L 101.103, 23.179  L 100.376, 20.268  L 99.649, 17.358  L 102.596, 16.635  L 103.317, 19.542  L 104.039, 22.449  L 104.760, 25.356  L 105.482, 28.263  L 106.203, 31.170  L 109.111, 30.431  L 108.400, 27.530  L 107.689, 24.629  L 106.979, 21.728  L 106.268, 18.828  L 105.557, 15.927  L 108.535, 15.237  L 109.230, 18.128  L 109.924, 21.020  L 110.619, 23.911  L 111.313, 26.803  L 112.008, 29.694  L 114.896, 28.965  L 114.222, 26.086  L 113.549, 23.207  L 112.876, 20.329  L 112.203, 17.450  L 111.530, 14.571  L 114.542, 13.933  L 115.189, 16.796  L 115.835, 19.659  L 116.482, 22.522  L 117.128, 25.385  L 117.775, 28.248  L 120.647, 27.547  L 120.032, 24.703  L 119.417, 21.860  L 118.803, 19.016  L 118.188, 16.173  L 117.573, 13.329  L 120.623, 12.764  L 121.201, 15.584  L 121.779, 18.405  L 122.357, 21.225  L 122.935, 24.045  L 123.513, 26.866  L 126.373, 26.210  L 125.837, 23.416  L 125.301, 20.623  L 124.764, 17.829  L 124.228, 15.036  L 123.692, 12.242  L 126.780, 11.770  L 127.270, 14.532  L 127.760, 17.295  L 128.250, 20.058  L 128.740, 22.821  L 129.230, 25.584  L 132.084, 24.991  L 131.644, 22.264  L 131.205, 19.536  L 130.766, 16.808  L 130.326, 14.080  L 129.887, 11.352  L 133.012, 10.996  L 133.396, 13.684  L 133.781, 16.373  L 134.166, 19.061  L 134.551, 21.749  L 134.935, 24.438  L 137.786, 23.927  L 137.378, 20.622  L 136.970, 17.317  L 136.562, 14.012  L 136.154, 10.707  L 139.311, 10.491  L 139.642, 13.735  L 139.973, 16.978  L 140.304, 20.221  L 140.635, 23.465  L 143.485, 23.055  L 143.234, 19.880  L 142.984, 16.705  L 142.733, 13.530  L 142.482, 10.355  L 145.664, 10.305  L 145.832, 13.404  L 146.000, 16.504  L 146.167, 19.604  L 146.335, 22.704  L 149.186, 22.415  L 149.103, 19.398  L 149.020, 16.381  L 148.937, 13.363  L 148.854, 10.346  L 152.047, 10.486  L 152.044, 13.413  L 152.042, 16.340  L 152.040, 19.267  L 152.038, 22.194  L 154.890, 22.045  L 154.977, 19.216  L 155.064, 16.387  L 155.151, 13.558  L 155.238, 10.729  L 158.424, 11.082  L 158.254, 13.804  L 158.084, 16.527  L 157.914, 19.250  L 157.744, 21.973  L 160.598, 21.982  L 160.931, 18.504  L 161.263, 15.026  L 161.596, 11.547  L 164.749, 12.131  L 164.317, 15.446  L 163.884, 18.762  L 163.452, 22.077  L 166.304, 22.262  L 166.828, 19.119  L 167.352, 15.977  L 167.877, 12.834  L 170.970, 13.659  L 170.365, 16.619  L 169.760, 19.579  L 169.154, 22.539  L 172.000, 22.912  L 172.675, 20.144  L 173.349, 17.375  L 174.023, 14.607  L 177.028, 15.677  L 176.299, 18.246  L 175.570, 20.814  L 174.841, 23.383  L 177.674, 23.953  L 178.826, 20.410  L 179.979, 16.868  L 182.868, 18.176  L 181.682, 21.400  L 180.496, 24.624  L 183.307, 25.395  L 184.499, 22.496  L 185.690, 19.598  L 188.442, 21.129  L 187.272, 23.698  L 186.103, 26.266  L 188.882, 27.236  L 190.000, 25.000  L 191.118, 22.764 "/>
    </g>
</svg>
