<?xml version="1.0" encoding="utf-8" ?>
<svg xmlns="http://www.w3.org/2000/svg" xmlns:ev="http://www.w3.org/2001/xml-events" xmlns:xlink="http://www.w3.org/1999/xlink" baseProfile="full" height="50mm" version="1.1" viewBox="0,0,200,50" width="200mm">
    <defs>
        <style type="text/css"><![CDATA[
.stitch_line {
    stroke-width: 0.3;
    stroke-linejoin: round;
    stroke-linecap: round;
    fill: none;
}
.path_center_line {
    fill: none;
    stroke:#808080;
    stroke-width: 0.2;
    stroke-linejoin: round;
    stroke-linecap: round;
}
.path_contour {
    fill: #808080;
    fill-opacity: 0.3;
    stroke: #808080;
    stroke-opacity: 1;
    stroke-width: 0.3;
}
.text{
    text-anchor: middle;
    dominant-baseline: middle;
    font-family: sans-serif;
    font-size: 1.5mm;
}
.smalltext{
    text-anchor: middle;
    dominant-baseline: middle;
    font-family: sans-serif;
    font-size: 1mm;
}
.color_0 {
    stroke:#3bb2d0;
}
.dot_0 {
    marker-start:url(#dot_0);
    marker-mid:url(#dot_0);
    marker-end:url(#dot_0);
}
]]></style>
        <marker id="dot_0" markerHeight="3.0" markerWidth="3.0" refX="1.5" refY="1.5">
            <circle cx="1.5" cy="1.5" fill="#3bb2d0" r="1.5"/>
        </marker>
    </defs>
    <g>
        <path class="stitch_line color_0 dot_0" d="M 11.118, 22.764  L 11.338, 25.818  L 11.558, 28.871  L 11.558, 28.871  L 14.126, 26.738  L 16.693, 24.605  L 16.693, 24.605  L 16.913, 28.215  L 17.132, 31.824  L 17.132, 31.824  L 18.864, 29.898  L 20.595, 27.973  L 22.326, 26.047  L 22.326, 26.047  L 22.542, 28.805  L 22.757, 31.564  L 22.972, 34.323  L 22.972, 34.323  L 24.648, 31.911  L 26.324, 29.500  L 28.000, 27.088  L 28.000, 27.088  L 28.343, 30.172  L 28.686, 33.256  L 29.030, 36.341  L 29.030, 36.341  L 30.585, 33.473  L 32.140, 30.606  L 33.696, 27.738  L 33.696, 27.738  L 34.214, 31.115  L 34.732, 34.492  L 35.251, 37.869  L 35.251, 37.869  L 36.288, 35.406  L 37.326, 32.944  L 38.364, 30.481  L 39.402, 28.018  L 39.402, 28.018  L 39.946, 30.743  L 40.489, 33.468  L 41.033, 36.193  L 41.576, 38.918  L 41.576, 38.918  L 42.460, 36.178  L 43.343, 33.437  L 44.226, 30.696  L 45.110, 27.955  L 45.110, 27.955  L 45.820, 30.845  L 46.531, 33.735  L 47.242, 36.624  L 47.953, 39.514  L 47.953, 39.514  L 48.669, 36.532  L 49.384, 33.550  L 50.099, 30.567  L 50.814, 27.585  L 50.814, 27.585  L 51.695, 30.613  L 52.575, 33.640  L 53.455, 36.668  L 54.336, 39.695  L 54.336, 39.695  L 54.880, 36.508  L 55.425, 33.320  L 55.970, 30.132  L 56.515, 26.945  L 56.515, 26.945  L 57.559, 30.086  L 58.602, 33.227  L 59.645, 36.368  L 60.689, 39.509  L 60.689, 39.509  L 60.994, 36.822  L 61.299, 34.134  L 61.604, 31.447  L 61.909, 28.760  L 62.214, 26.073  L 62.214, 26.073  L 63.169, 28.659  L 64.124, 31.245  L 65.079, 33.831  L 66.034, 36.418  L 66.988, 39.004  L 66.988, 39.004  L 67.174, 36.205  L 67.359, 33.406  L 67.545, 30.607  L 67.731, 27.808  L 67.916, 25.009  L 67.916, 25.009  L 68.977, 27.653  L 70.038, 30.297  L 71.099, 32.942  L 72.159, 35.586  L 73.220, 38.230  L 73.220, 38.230  L 73.301, 35.342  L 73.383, 32.454  L 73.464, 29.566  L 73.545, 26.678  L 73.627, 23.790  L 73.627, 23.790  L 74.777, 26.479  L 75.927, 29.168  L 77.077, 31.858  L 78.227, 34.547  L 79.377, 37.236  L 79.377, 37.236  L 79.372, 34.280  L 79.368, 31.323  L 79.363, 28.367  L 79.358, 25.410  L 79.353, 22.453  L 79.353, 22.453  L 80.574, 25.176  L 81.795, 27.899  L 83.016, 30.621  L 84.237, 33.344  L 85.458, 36.067  L 85.458, 36.067  L 85.387, 33.060  L 85.316, 30.054  L 85.246, 27.048  L 85.175, 24.041  L 85.104, 21.035  L 85.104, 21.035  L 86.377, 23.781  L 87.649, 26.526  L 88.921, 29.272  L 90.193, 32.017  L 91.465, 34.763  L 91.465, 34.763  L 91.350, 31.724  L 91.235, 28.686  L 91.119, 25.647  L 91.004, 22.608  L 90.889, 19.569  L 90.889, 19.569  L 92.192, 22.328  L 93.495, 25.088  L 94.798, 27.847  L 96.101, 30.606  L 97.404, 33.365  L 97.404, 33.365  L 97.267, 30.310  L 97.129, 27.255  L 96.992, 24.201  L 96.854, 21.146  L 96.716, 18.091  L 96.716, 18.091  L 98.030, 20.855  L 99.343, 23.618  L 100.657, 26.382  L 101.970, 29.145  L 103.284, 31.909  L 103.284, 31.909  L 103.146, 28.854  L 103.008, 25.799  L 102.871, 22.745  L 102.733, 19.690  L 102.596, 16.635  L 102.596, 16.635  L 103.899, 19.394  L 105.202, 22.153  L 106.505, 24.912  L 107.808, 27.672  L 109.111, 30.431  L 109.111, 30.431  L 108.996, 27.392  L 108.881, 24.353  L 108.765, 21.314  L 108.650, 18.276  L 108.535, 15.237  L 108.535, 15.237  L 109.807, 17.983  L 111.079, 20.728  L 112.351, 23.474  L 113.623, 26.219  L 114.896, 28.965  L 114.896, 28.965  L 114.825, 25.959  L 114.754, 22.952  L 114.684, 19.946  L 114.613, 16.940  L 114.542, 13.933  L 114.542, 13.933  L 115.763, 16.656  L 116.984, 19.379  L 118.205, 22.101  L 119.426, 24.824  L 120.647, 27.547  L 120.647, 27.547  L 120.642, 24.590  L 120.637, 21.633  L 120.632, 18.677  L 120.628, 15.720  L 120.623, 12.764  L 120.623, 12.764  L 121.773, 15.453  L 122.923, 18.142  L 124.073, 20.832  L 125.223, 23.521  L 126.373, 26.210  L 126.373, 26.210  L 126.455, 23.322  L 126.536, 20.434  L 126.617, 17.546  L 126.699, 14.658  L 126.780, 11.770  L 126.780, 11.770  L 127.841, 14.414  L 128.901, 17.058  L 129.962, 19.703  L 131.023, 22.347  L 132.084, 24.991  L 132.084, 24.991  L 132.269, 22.192  L 132.455, 19.393  L 132.641, 16.594  L 132.826, 13.795  L 133.012, 10.996  L 133.012, 10.996  L 133.966, 13.582  L 134.921, 16.169  L 135.876, 18.755  L 136.831, 21.341  L 137.786, 23.927  L 137.786, 23.927  L 138.091, 21.240  L 138.396, 18.553  L 138.701, 15.866  L 139.006, 13.178  L 139.311, 10.491  L 139.311, 10.491  L 140.355, 13.632  L 141.398, 16.773  L 142.441, 19.914  L 143.485, 23.055  L 143.485, 23.055  L 144.030, 19.868  L 144.575, 16.680  L 145.120, 13.492  L 145.664, 10.305  L 145.664, 10.305  L 146.545, 13.332  L 147.425, 16.360  L 148.305, 19.387  L 149.186, 22.415  L 149.186, 22.415  L 149.901, 19.433  L 150.616, 16.450  L 151.331, 13.468  L 152.047, 10.486  L 152.047, 10.486  L 152.758, 13.376  L 153.469, 16.265  L 154.180, 19.155  L 154.890, 22.045  L 154.890, 22.045  L 155.774, 19.304  L 156.657, 16.563  L 157.540, 13.822  L 158.424, 11.082  L 158.424, 11.082  L 158.967, 13.807  L 159.511, 16.532  L 160.054, 19.257  L 160.598, 21.982  L 160.598, 21.982  L 161.636, 19.519  L 162.674, 17.056  L 163.712, 14.594  L 164.749, 12.131  L 164.749, 12.131  L 165.268, 15.508  L 165.786, 18.885  L 166.304, 22.262  L 166.304, 22.262  L 167.860, 19.394  L 169.415, 16.527  L 170.970, 13.659  L 170.970, 13.659  L 171.314, 16.744  L 171.657, 19.828  L 172.000, 22.912  L 172.000, 22.912  L 173.676, 20.500  L 175.352, 18.089  L 177.028, 15.677  L 177.028, 15.677  L 177.243, 18.436  L 177.458, 21.195  L 177.674, 23.953  L 177.674, 23.953  L 179.405, 22.027  L 181.136, 20.102  L 182.868, 18.176  L 182.868, 18.176  L 183.087, 21.785  L 183.307, 25.395  L 183.307, 25.395  L 185.874, 23.262  L 188.442, 21.129  L 188.442, 21.129  L 188.662, 24.182  L 188.882, 27.236  L 188.882, 27.236  L 190.000, 25.000  L 191.118, 22.764  L 191.118, 22.764  L 188.611, 24.515  L 186.103, 26.266  L 186.103, 26.266  L 185.897, 22.932  L 185.690, 19.598  L 185.690, 19.598  L 183.093, 22.111  L 180.496, 24.624  L 180.496, 24.624  L 180.324, 22.039  L 180.151, 19.453  L 179.979, 16.868  L 179.979, 16.868  L 178.266, 19.039  L 176.553, 21.211  L 174.841, 23.383  L 174.841, 23.383  L 174.568, 20.458  L 174.296, 17.532  L 174.023, 14.607  L 174.023, 14.607  L 172.400, 17.251  L 170.777, 19.895  L 169.154, 22.539  L 169.154, 22.539  L 168.728, 19.304  L 168.302, 16.069  L 167.877, 12.834  L 167.877, 12.834  L 166.402, 15.915  L 164.927, 18.996  L 163.452, 22.077  L 163.452, 22.077  L 162.988, 19.445  L 162.524, 16.812  L 162.060, 14.180  L 161.596, 11.547  L 161.596, 11.547  L 160.633, 14.154  L 159.670, 16.760  L 158.707, 19.366  L 157.744, 21.973  L 157.744, 21.973  L 157.118, 19.162  L 156.491, 16.351  L 155.865, 13.540  L 155.238, 10.729  L 155.238, 10.729  L 154.438, 13.595  L 153.638, 16.461  L 152.838, 19.328  L 152.038, 22.194  L 152.038, 22.194  L 151.242, 19.232  L 150.446, 16.270  L 149.650, 13.308  L 148.854, 10.346  L 148.854, 10.346  L 148.224, 13.436  L 147.594, 16.525  L 146.965, 19.614  L 146.335, 22.704  L 146.335, 22.704  L 145.372, 19.617  L 144.409, 16.529  L 143.446, 13.442  L 142.482, 10.355  L 142.482, 10.355  L 142.021, 13.632  L 141.559, 16.910  L 141.097, 20.187  L 140.635, 23.465  L 140.635, 23.465  L 139.739, 20.913  L 138.843, 18.362  L 137.946, 15.810  L 137.050, 13.259  L 136.154, 10.707  L 136.154, 10.707  L 135.910, 13.453  L 135.666, 16.199  L 135.423, 18.945  L 135.179, 21.691  L 134.935, 24.438  L 134.935, 24.438  L 133.926, 21.821  L 132.916, 19.203  L 131.906, 16.586  L 130.896, 13.969  L 129.887, 11.352  L 129.887, 11.352  L 129.755, 14.199  L 129.624, 17.045  L 129.493, 19.891  L 129.361, 22.737  L 129.230, 25.584  L 129.230, 25.584  L 128.123, 22.915  L 127.015, 20.247  L 125.907, 17.579  L 124.800, 14.910  L 123.692, 12.242  L 123.692, 12.242  L 123.656, 15.167  L 123.620, 18.091  L 123.584, 21.016  L 123.548, 23.941  L 123.513, 26.866  L 123.513, 26.866  L 122.325, 24.159  L 121.137, 21.451  L 119.949, 18.744  L 118.761, 16.037  L 117.573, 13.329  L 117.573, 13.329  L 117.614, 16.313  L 117.654, 19.297  L 117.694, 22.280  L 117.734, 25.264  L 117.775, 28.248  L 117.775, 28.248  L 116.526, 25.512  L 115.277, 22.777  L 114.028, 20.042  L 112.779, 17.306  L 111.530, 14.571  L 111.530, 14.571  L 111.625, 17.596  L 111.721, 20.620  L 111.817, 23.645  L 111.912, 26.669  L 112.008, 29.694  L 112.008, 29.694  L 110.718, 26.941  L 109.428, 24.187  L 108.138, 21.434  L 106.847, 18.680  L 105.557, 15.927  L 105.557, 15.927  L 105.686, 18.975  L 105.816, 22.024  L 105.945, 25.073  L 106.074, 28.121  L 106.203, 31.170  L 106.203, 31.170  L 104.892, 28.408  L 103.581, 25.645  L 102.271, 22.883  L 100.960, 20.121  L 99.649, 17.358  L 99.649, 17.358  L 99.789, 20.415  L 99.930, 23.472  L 100.070, 26.528  L 100.211, 29.585  L 100.351, 32.642  L 100.351, 32.642  L 99.040, 29.879  L 97.729, 27.117  L 96.419, 24.355  L 95.108, 21.592  L 93.797, 18.830  L 93.797, 18.830  L 93.926, 21.879  L 94.055, 24.927  L 94.184, 27.976  L 94.314, 31.025  L 94.443, 34.073  L 94.443, 34.073  L 93.153, 31.320  L 91.862, 28.566  L 90.572, 25.813  L 89.282, 23.059  L 87.992, 20.306  L 87.992, 20.306  L 88.088, 23.331  L 88.183, 26.355  L 88.279, 29.380  L 88.375, 32.404  L 88.470, 35.429  L 88.470, 35.429  L 87.221, 32.694  L 85.972, 29.958  L 84.723, 27.223  L 83.474, 24.488  L 82.225, 21.752  L 82.225, 21.752  L 82.266, 24.736  L 82.306, 27.720  L 82.346, 30.703  L 82.386, 33.687  L 82.427, 36.671  L 82.427, 36.671  L 81.239, 33.963  L 80.051, 31.256  L 78.863, 28.549  L 77.675, 25.841  L 76.487, 23.134  L 76.487, 23.134  L 76.452, 26.059  L 76.416, 28.984  L 76.380, 31.909  L 76.344, 34.833  L 76.308, 37.758  L 76.308, 37.758  L 75.200, 35.090  L 74.093, 32.421  L 72.985, 29.753  L 71.877, 27.085  L 70.770, 24.416  L 70.770, 24.416  L 70.639, 27.263  L 70.507, 30.109  L 70.376, 32.955  L 70.245, 35.801  L 70.113, 38.648  L 70.113, 38.648  L 69.104, 36.031  L 68.094, 33.414  L 67.084, 30.797  L 66.074, 28.179  L 65.065, 25.562  L 65.065, 25.562  L 64.821, 28.309  L 64.577, 31.055  L 64.334, 33.801  L 64.090, 36.547  L 63.846, 39.293  L 63.846, 39.293  L 62.950, 36.741  L 62.054, 34.190  L 61.157, 31.638  L 60.261, 29.087  L 59.365, 26.535  L 59.365, 26.535  L 58.903, 29.813  L 58.441, 33.090  L 57.979, 36.368  L 57.518, 39.645  L 57.518, 39.645  L 56.554, 36.558  L 55.591, 33.471  L 54.628, 30.383  L 53.665, 27.296  L 53.665, 27.296  L 53.035, 30.386  L 52.406, 33.475  L 51.776, 36.564  L 51.146, 39.654  L 51.146, 39.654  L 50.350, 36.692  L 49.554, 33.730  L 48.758, 30.768  L 47.962, 27.806  L 47.962, 27.806  L 47.162, 30.672  L 46.362, 33.539  L 45.562, 36.405  L 44.762, 39.271  L 44.762, 39.271  L 44.135, 36.460  L 43.509, 33.649  L 42.882, 30.838  L 42.256, 28.027  L 42.256, 28.027  L 41.293, 30.634  L 40.330, 33.240  L 39.367, 35.846  L 38.404, 38.453  L 38.404, 38.453  L 37.940, 35.820  L 37.476, 33.188  L 37.012, 30.555  L 36.548, 27.923  L 36.548, 27.923  L 35.073, 31.004  L 33.598, 34.085  L 32.123, 37.166  L 32.123, 37.166  L 31.698, 33.931  L 31.272, 30.696  L 30.846, 27.461  L 30.846, 27.461  L 29.223, 30.105  L 27.600, 32.749  L 25.977, 35.393  L 25.977, 35.393  L 25.704, 32.468  L 25.432, 29.542  L 25.159, 26.617  L 25.159, 26.617  L 23.447, 28.789  L 21.734, 30.961  L 20.021, 33.132  L 20.021, 33.132  L 19.849, 30.547  L 19.676, 27.961  L 19.504, 25.376  L 19.504, 25.376  L 16.907, 27.889  L 14.310, 30.402  L 14.310, 30.402  L 14.103, 27.068  L 13.897, 23.734  L 13.897, 23.734  L 11.389, 25.485  L 8.882, 27.236  L 8.882, 27.236  L 10.000, 25.000  L 11.118, 22.764  L 11.118, 22.764  L 11.118, 22.764 "/>
    </g>
</svg>
