<?xml version="1.0" encoding="utf-8" ?>
<svg xmlns="http://www.w3.org/2000/svg" xmlns:ev="http://www.w3.org/2001/xml-events" xmlns:xlink="http://www.w3.org/1999/xlink" baseProfile="full" height="50mm" version="1.1" viewBox="0,0,200,50" width="200mm">
    <defs>
        <style type="text/css"><![CDATA[
.stitch_line {
    stroke-width: 0.3;
    stroke-linejoin: round;
    stroke-linecap: round;
    fill: none;
}
.sampling_line {
    stroke:#148983;
    stroke-width: 0.5;
    fill: none;
}
.path_handle {
    stroke-width: 0.5;
    stroke-linejoin: round;
    stroke-linecap: round;
    fill:none;
    stroke: #808080;
    marker-start: url(#handles);
    marker-mid: url(#handles);
    marker-end: url(#handles);
}
.path_center_line {
    stroke-width: 0.5;
    stroke-linejoin: round;
    stroke-linecap: round;
    fill: none;
    stroke:#148983;
    stroke-dasharray: 2,1.5;
    stroke-dashoffset: 1;
}
.path_contour {
    stroke: #85c4c1;
    fill-opacity: 0;
    stroke-width: 0.3;
}
.path_direction_line {
    stroke-width: 0.05;
    fill: none;
    stroke: #85c4c1;
}
.text{
    text-anchor: middle;
    dominant-baseline: middle;
    font-family: sans-serif;
    font-size: 1.5mm;
}
.smalltext{
    text-anchor: middle;
    dominant-baseline: middle;
    font-family: sans-serif;
    font-size: 1mm;
}
.color_0 {
    stroke:#148983;
    marker-start:url(#dot_0);
    marker-mid:url(#dot_0);
    marker-end:url(#dot_0);
}
.color_1 {
    stroke:#1873ac;
    marker-start:url(#dot_1);
    marker-mid:url(#dot_1);
    marker-end:url(#dot_1);
}
.color_2 {
    stroke:#8c5290;
    marker-start:url(#dot_2);
    marker-mid:url(#dot_2);
    marker-end:url(#dot_2);
}
.color_3 {
    stroke:#61a09c;
    marker-start:url(#dot_3);
    marker-mid:url(#dot_3);
    marker-end:url(#dot_3);
}
.color_4 {
    stroke:#5ad2f4;
    marker-start:url(#dot_4);
    marker-mid:url(#dot_4);
    marker-end:url(#dot_4);
}
.color_5 {
    stroke:#0f6460;
    marker-start:url(#dot_5);
    marker-mid:url(#dot_5);
    marker-end:url(#dot_5);
}
.color_6 {
    stroke:#0f4668;
    marker-start:url(#dot_6);
    marker-mid:url(#dot_6);
    marker-end:url(#dot_6);
}
.color_7 {
    stroke:#543156;
    marker-start:url(#dot_7);
    marker-mid:url(#dot_7);
    marker-end:url(#dot_7);
}
.color_8 {
    stroke:#487673;
    marker-start:url(#dot_8);
    marker-mid:url(#dot_8);
    marker-end:url(#dot_8);
}
.color_9 {
    stroke:#0c8baf;
    marker-start:url(#dot_9);
    marker-mid:url(#dot_9);
    marker-end:url(#dot_9);
}
]]></style>
        <marker id="dot_0" markerHeight="3.0" markerWidth="3.0" refX="1.5" refY="1.5">
            <circle cx="1.5" cy="1.5" fill="#148983" r="1.5"/>
        </marker>
        <marker id="dot_1" markerHeight="3.0" markerWidth="3.0" refX="1.5" refY="1.5">
            <circle cx="1.5" cy="1.5" fill="#1873ac" r="1.5"/>
        </marker>
        <marker id="dot_2" markerHeight="3.0" markerWidth="3.0" refX="1.5" refY="1.5">
            <circle cx="1.5" cy="1.5" fill="#8c5290" r="1.5"/>
        </marker>
        <marker id="dot_3" markerHeight="3.0" markerWidth="3.0" refX="1.5" refY="1.5">
            <circle cx="1.5" cy="1.5" fill="#61a09c" r="1.5"/>
        </marker>
        <marker id="dot_4" markerHeight="3.0" markerWidth="3.0" refX="1.5" refY="1.5">
            <circle cx="1.5" cy="1.5" fill="#5ad2f4" r="1.5"/>
        </marker>
        <marker id="dot_5" markerHeight="3.0" markerWidth="3.0" refX="1.5" refY="1.5">
            <circle cx="1.5" cy="1.5" fill="#0f6460" r="1.5"/>
        </marker>
        <marker id="dot_6" markerHeight="3.0" markerWidth="3.0" refX="1.5" refY="1.5">
            <circle cx="1.5" cy="1.5" fill="#0f4668" r="1.5"/>
        </marker>
        <marker id="dot_7" markerHeight="3.0" markerWidth="3.0" refX="1.5" refY="1.5">
            <circle cx="1.5" cy="1.5" fill="#543156" r="1.5"/>
        </marker>
        <marker id="dot_8" markerHeight="3.0" markerWidth="3.0" refX="1.5" refY="1.5">
            <circle cx="1.5" cy="1.5" fill="#487673" r="1.5"/>
        </marker>
        <marker id="dot_9" markerHeight="3.0" markerWidth="3.0" refX="1.5" refY="1.5">
            <circle cx="1.5" cy="1.5" fill="#0c8baf" r="1.5"/>
        </marker>
    </defs>
    <g>
        <path class="stitch_line color_0" d="M 11.118, 22.764  L 10.000, 25.000  L 8.882, 27.236  L 12.251, 29.237  L 13.417, 26.612  L 14.583, 23.987  L 16.055, 24.455  L 14.881, 27.246  L 13.707, 30.036  L 17.130, 31.764  L 18.298, 28.593  L 19.465, 25.421  L 20.915, 25.784  L 19.762, 29.116  L 18.609, 32.448  L 22.083, 33.911  L 22.813, 31.445  L 23.544, 28.980  L 24.275, 26.515  L 25.705, 26.781  L 24.997, 29.348  L 24.289, 31.915  L 23.581, 34.483  L 27.098, 35.690  L 27.739, 32.893  L 28.381, 30.095  L 29.022, 27.297  L 30.435, 27.476  L 29.828, 30.369  L 29.221, 33.262  L 28.613, 36.155  L 32.166, 37.117  L 32.683, 34.011  L 33.199, 30.904  L 33.716, 27.797  L 35.116, 27.896  L 34.642, 31.091  L 34.168, 34.285  L 33.694, 37.479  L 37.273, 38.209  L 37.639, 34.820  L 38.005, 31.431  L 38.371, 28.041  L 39.761, 28.068  L 39.445, 31.537  L 39.128, 35.005  L 38.811, 38.474  L 42.408, 38.984  L 42.556, 36.251  L 42.703, 33.519  L 42.851, 30.786  L 42.998, 28.053  L 44.383, 28.015  L 44.275, 30.801  L 44.167, 33.586  L 44.060, 36.372  L 43.952, 39.158  L 47.559, 39.463  L 47.571, 36.561  L 47.584, 33.659  L 47.597, 30.757  L 47.610, 27.855  L 48.992, 27.758  L 49.020, 30.707  L 49.049, 33.655  L 49.077, 36.604  L 49.105, 39.553  L 52.714, 39.669  L 52.590, 36.619  L 52.465, 33.569  L 52.341, 30.519  L 52.217, 27.468  L 53.599, 27.319  L 53.764, 30.409  L 53.930, 33.500  L 54.095, 36.590  L 54.260, 39.681  L 57.865, 39.624  L 57.606, 36.446  L 57.346, 33.268  L 57.087, 30.090  L 56.828, 26.912  L 58.214, 26.715  L 58.512, 29.928  L 58.811, 33.141  L 59.109, 36.353  L 59.408, 39.566  L 63.002, 39.354  L 62.615, 36.067  L 62.227, 32.780  L 61.840, 29.493  L 61.452, 26.206  L 62.843, 25.968  L 63.268, 29.284  L 63.692, 32.600  L 64.116, 35.916  L 64.540, 39.232  L 68.121, 38.881  L 67.716, 36.179  L 67.311, 33.476  L 66.906, 30.773  L 66.501, 28.071  L 66.096, 25.368  L 67.494, 25.093  L 67.925, 27.816  L 68.357, 30.538  L 68.789, 33.260  L 69.220, 35.982  L 69.652, 38.704  L 73.215, 38.232  L 72.725, 35.469  L 72.235, 32.706  L 71.745, 29.943  L 71.255, 27.180  L 70.764, 24.416  L 72.170, 24.112  L 72.684, 26.891  L 73.197, 29.670  L 73.711, 32.449  L 74.224, 35.228  L 74.737, 38.007  L 78.280, 37.430  L 77.716, 34.618  L 77.153, 31.806  L 76.589, 28.994  L 76.025, 26.182  L 75.461, 23.371  L 76.877, 23.041  L 77.460, 25.866  L 78.043, 28.690  L 78.627, 31.515  L 79.210, 34.339  L 79.793, 37.164  L 83.313, 36.500  L 82.689, 33.650  L 82.064, 30.800  L 81.439, 27.949  L 80.815, 25.099  L 80.190, 22.249  L 81.615, 21.901  L 82.256, 24.761  L 82.896, 27.620  L 83.536, 30.480  L 84.177, 33.340  L 84.817, 36.199  L 88.313, 35.464  L 87.641, 32.586  L 86.969, 29.707  L 86.297, 26.829  L 85.625, 23.950  L 84.953, 21.072  L 86.389, 20.711  L 87.072, 23.596  L 87.755, 26.481  L 88.439, 29.366  L 89.122, 32.251  L 89.806, 35.137  L 93.277, 34.347  L 92.572, 31.449  L 91.866, 28.552  L 91.161, 25.654  L 90.456, 22.756  L 89.751, 19.859  L 91.198, 19.490  L 91.910, 22.392  L 92.622, 25.294  L 93.334, 28.196  L 94.046, 31.097  L 94.759, 33.999  L 98.204, 33.170  L 97.480, 30.262  L 96.757, 27.354  L 96.033, 24.446  L 95.310, 21.538  L 94.586, 18.629  L 96.044, 18.261  L 96.770, 21.170  L 97.496, 24.080  L 98.222, 26.990  L 98.949, 29.899  L 99.675, 32.809  L 103.094, 31.956  L 102.367, 29.046  L 101.640, 26.136  L 100.912, 23.226  L 100.185, 20.316  L 99.458, 17.406  L 100.927, 17.043  L 101.652, 19.952  L 102.378, 22.861  L 103.103, 25.770  L 103.828, 28.679  L 104.553, 31.588  L 107.946, 30.727  L 107.231, 27.824  L 106.515, 24.920  L 105.799, 22.016  L 105.083, 19.112  L 104.368, 16.209  L 105.848, 15.858  L 106.557, 18.758  L 107.267, 21.658  L 107.976, 24.558  L 108.686, 27.459  L 109.395, 30.359  L 112.762, 29.504  L 112.073, 26.615  L 111.383, 23.726  L 110.693, 20.838  L 110.004, 17.949  L 109.314, 15.060  L 110.805, 14.728  L 111.484, 17.611  L 112.163, 20.493  L 112.842, 23.376  L 113.521, 26.258  L 114.200, 29.141  L 117.542, 28.307  L 116.893, 25.442  L 116.244, 22.577  L 115.595, 19.712  L 114.946, 16.847  L 114.297, 13.983  L 115.798, 13.677  L 116.432, 16.532  L 117.067, 19.388  L 117.701, 22.244  L 118.335, 25.100  L 118.969, 27.956  L 122.286, 27.156  L 121.692, 24.325  L 121.098, 21.493  L 120.503, 18.662  L 119.909, 15.831  L 119.314, 12.999  L 120.826, 12.726  L 121.401, 15.545  L 121.977, 18.365  L 122.552, 21.184  L 123.128, 24.004  L 123.703, 26.823  L 126.998, 26.072  L 126.471, 23.284  L 125.945, 20.496  L 125.418, 17.709  L 124.891, 14.921  L 124.365, 12.133  L 125.886, 11.899  L 126.390, 14.672  L 126.894, 17.445  L 127.398, 20.217  L 127.902, 22.990  L 128.406, 25.763  L 131.680, 25.073  L 131.233, 22.340  L 130.786, 19.607  L 130.339, 16.874  L 129.892, 14.141  L 129.445, 11.408  L 130.975, 11.221  L 131.396, 13.936  L 131.816, 16.650  L 132.237, 19.364  L 132.658, 22.079  L 133.079, 24.793  L 136.335, 24.179  L 135.889, 20.846  L 135.443, 17.513  L 134.998, 14.181  L 134.552, 10.848  L 136.089, 10.716  L 136.499, 14.020  L 136.908, 17.325  L 137.317, 20.629  L 137.726, 23.933  L 140.967, 23.407  L 140.646, 20.175  L 140.325, 16.943  L 140.003, 13.710  L 139.682, 10.478  L 141.224, 10.408  L 141.506, 13.607  L 141.789, 16.805  L 142.071, 20.004  L 142.354, 23.202  L 145.584, 22.777  L 145.395, 19.663  L 145.206, 16.550  L 145.016, 13.436  L 144.827, 10.323  L 146.373, 10.322  L 146.521, 13.396  L 146.670, 16.470  L 146.819, 19.544  L 146.967, 22.618  L 150.192, 22.307  L 150.139, 19.332  L 150.087, 16.356  L 150.034, 13.381  L 149.981, 10.406  L 151.528, 10.481  L 151.540, 13.411  L 151.551, 16.341  L 151.563, 19.270  L 151.574, 22.200  L 154.800, 22.016  L 154.884, 19.200  L 154.968, 16.384  L 155.052, 13.568  L 155.135, 10.752  L 156.680, 10.910  L 156.556, 13.674  L 156.432, 16.439  L 156.308, 19.203  L 156.184, 21.967  L 159.418, 21.926  L 159.634, 19.290  L 159.849, 16.654  L 160.064, 14.018  L 160.279, 11.383  L 161.819, 11.631  L 161.482, 15.068  L 161.145, 18.504  L 160.808, 21.940  L 164.058, 22.056  L 164.506, 18.811  L 164.954, 15.566  L 165.401, 12.321  L 166.932, 12.665  L 166.440, 15.824  L 165.948, 18.983  L 165.456, 22.142  L 168.732, 22.431  L 169.318, 19.482  L 169.904, 16.534  L 170.490, 13.586  L 172.008, 14.032  L 171.386, 16.886  L 170.765, 19.740  L 170.143, 22.594  L 173.453, 23.075  L 174.146, 20.448  L 174.839, 17.822  L 175.531, 15.195  L 177.033, 15.748  L 176.315, 18.273  L 175.597, 20.799  L 174.880, 23.325  L 178.231, 24.016  L 179.373, 20.591  L 180.515, 17.165  L 181.997, 17.828  L 180.837, 21.095  L 179.678, 24.361  L 183.078, 25.284  L 184.254, 22.396  L 185.430, 19.509  L 186.890, 20.287  L 185.719, 23.010  L 184.547, 25.733  L 188.001, 26.909  L 189.135, 24.574  L 190.269, 22.239 "/>
    </g>
</svg>
