<?xml version="1.0" encoding="utf-8" ?>
<svg xmlns="http://www.w3.org/2000/svg" xmlns:ev="http://www.w3.org/2001/xml-events" xmlns:xlink="http://www.w3.org/1999/xlink" baseProfile="full" height="50mm" version="1.1" viewBox="0,0,200,50" width="200mm">
    <defs>
        <style type="text/css"><![CDATA[
.stitch_line {
    stroke-width: 0.3;
    stroke-linejoin: round;
    stroke-linecap: round;
    fill: none;
}
.path_center_line {
    fill: none;
    stroke:#808080;
    stroke-width: 0.2;
    stroke-linejoin: round;
    stroke-linecap: round;
}
.path_contour {
    fill: #808080;
    fill-opacity: 0.3;
    stroke: #808080;
    stroke-opacity: 1;
    stroke-width: 0.3;
}
.text{
    text-anchor: middle;
    dominant-baseline: middle;
    font-family: sans-serif;
    font-size: 1.5mm;
}
.smalltext{
    text-anchor: middle;
    dominant-baseline: middle;
    font-family: sans-serif;
    font-size: 1mm;
}
.color_0 {
    stroke:#3bb2d0;
}
.dot_0 {
    marker-start:url(#dot_0);
    marker-mid:url(#dot_0);
    marker-end:url(#dot_0);
}
]]></style>
        <marker id="dot_0" markerHeight="3.0" markerWidth="3.0" refX="1.5" refY="1.5">
            <circle cx="1.5" cy="1.5" fill="#3bb2d0" r="1.5"/>
        </marker>
    </defs>
    <g>
        <path class="stitch_line color_0 dot_0" d="M 10.442, 25.219  L 13.093, 19.837  L 10.442, 25.219  L 11.703, 25.827  L 14.263, 20.401  L 11.703, 25.827  L 16.845, 28.042  L 19.026, 22.452  L 16.845, 28.042  L 18.154, 28.539  L 20.237, 22.913  L 18.154, 28.539  L 23.469, 30.298  L 25.152, 24.539  L 23.469, 30.298  L 24.816, 30.679  L 26.398, 24.892  L 24.816, 30.679  L 30.265, 31.967  L 31.443, 26.084  L 30.265, 31.967  L 31.640, 32.230  L 32.718, 26.328  L 31.640, 32.230  L 37.178, 33.053  L 37.866, 27.093  L 37.178, 33.053  L 38.570, 33.203  L 39.164, 27.232  L 38.570, 33.203  L 44.156, 33.586  L 44.389, 27.590  L 44.156, 33.586  L 45.556, 33.630  L 45.702, 27.632  L 45.556, 33.630  L 51.155, 33.614  L 50.981, 27.617  L 51.155, 33.614  L 52.554, 33.565  L 52.305, 27.570  L 52.554, 33.565  L 58.142, 33.201  L 57.617, 27.224  L 58.142, 33.201  L 59.536, 33.071  L 58.948, 27.100  L 59.536, 33.071  L 65.097, 32.413  L 64.281, 26.469  L 65.097, 32.413  L 66.483, 32.217  L 65.616, 26.280  L 66.483, 32.217  L 72.011, 31.321  L 70.962, 25.413  L 72.011, 31.321  L 73.388, 31.071  L 72.300, 25.171  L 73.388, 31.071  L 78.883, 29.989  L 77.657, 24.115  L 78.883, 29.989  L 80.252, 29.699  L 78.997, 23.832  L 80.252, 29.699  L 85.718, 28.481  L 84.367, 22.635  L 85.718, 28.481  L 87.082, 28.163  L 85.711, 22.322  L 87.082, 28.163  L 92.527, 26.855  L 91.100, 21.028  L 92.527, 26.855  L 93.886, 26.521  L 92.450, 20.696  L 93.886, 26.521  L 99.321, 25.170  L 97.866, 19.349  L 99.321, 25.170  L 100.679, 24.830  L 99.224, 19.009  L 100.679, 24.830  L 106.114, 23.479  L 104.677, 17.653  L 106.114, 23.479  L 107.473, 23.145  L 106.046, 17.317  L 107.473, 23.145  L 112.918, 21.837  L 111.548, 15.995  L 112.918, 21.837  L 114.282, 21.519  L 112.931, 15.674  L 114.282, 21.519  L 119.748, 20.301  L 118.493, 14.433  L 119.748, 20.301  L 121.117, 20.011  L 119.892, 14.138  L 121.117, 20.011  L 126.612, 18.929  L 125.524, 13.028  L 126.612, 18.929  L 127.989, 18.679  L 126.941, 12.772  L 127.989, 18.679  L 133.517, 17.783  L 132.650, 11.846  L 133.517, 17.783  L 134.903, 17.587  L 134.088, 11.642  L 134.903, 17.587  L 140.464, 16.929  L 139.877, 10.958  L 140.464, 16.929  L 141.858, 16.799  L 141.334, 10.822  L 141.858, 16.799  L 147.446, 16.435  L 147.197, 10.440  L 147.446, 16.435  L 148.845, 16.386  L 148.671, 10.388  L 148.845, 16.386  L 154.444, 16.370  L 154.591, 10.372  L 154.444, 16.370  L 155.844, 16.414  L 156.076, 10.419  L 155.844, 16.414  L 161.430, 16.797  L 162.023, 10.827  L 161.430, 16.797  L 162.822, 16.947  L 163.510, 10.986  L 162.822, 16.947  L 168.360, 17.770  L 169.438, 11.867  L 168.360, 17.770  L 169.735, 18.033  L 170.913, 12.150  L 169.735, 18.033  L 175.184, 19.321  L 176.766, 13.533  L 175.184, 19.321  L 176.531, 19.702  L 178.214, 13.943  L 176.531, 19.702  L 181.846, 21.461  L 183.930, 15.834  L 181.846, 21.461  L 183.155, 21.958  L 185.336, 16.369  L 183.155, 21.958  L 188.297, 24.173  L 190.858, 18.747  L 188.297, 24.173  L 189.558, 24.781  L 192.210, 19.399  L 189.558, 24.781 "/>
    </g>
</svg>
