<?xml version="1.0" encoding="utf-8" ?>
<svg xmlns="http://www.w3.org/2000/svg" xmlns:ev="http://www.w3.org/2001/xml-events" xmlns:xlink="http://www.w3.org/1999/xlink" baseProfile="full" height="50mm" version="1.1" viewBox="0,0,200,50" width="200mm">
    <defs>
        <style type="text/css"><![CDATA[
.stitch_line {
    stroke-width: 0.3;
    stroke-linejoin: round;
    stroke-linecap: round;
    fill: none;
}
.sampling_line {
    stroke:#148983;
    stroke-width: 0.5;
    fill: none;
}
.path_handle {
    stroke-width: 0.5;
    stroke-linejoin: round;
    stroke-linecap: round;
    fill:none;
    stroke: #808080;
    marker-start: url(#handles);
    marker-mid: url(#handles);
    marker-end: url(#handles);
}
.path_center_line {
    stroke-width: 0.5;
    stroke-linejoin: round;
    stroke-linecap: round;
    fill: none;
    stroke:#148983;
    stroke-dasharray: 2,1.5;
    stroke-dashoffset: 1;
}
.path_contour {
    stroke: #85c4c1;
    fill-opacity: 0;
    stroke-width: 0.3;
}
.path_direction_line {
    stroke-width: 0.05;
    fill: none;
    stroke: #85c4c1;
}
.text{
    text-anchor: middle;
    dominant-baseline: middle;
    font-family: sans-serif;
    font-size: 1.5mm;
}
.smalltext{
    text-anchor: middle;
    dominant-baseline: middle;
    font-family: sans-serif;
    font-size: 1mm;
}
.color_0 {
    stroke:#148983;
    marker-start:url(#dot_0);
    marker-mid:url(#dot_0);
    marker-end:url(#dot_0);
}
.color_1 {
    stroke:#1873ac;
    marker-start:url(#dot_1);
    marker-mid:url(#dot_1);
    marker-end:url(#dot_1);
}
.color_2 {
    stroke:#8c5290;
    marker-start:url(#dot_2);
    marker-mid:url(#dot_2);
    marker-end:url(#dot_2);
}
.color_3 {
    stroke:#61a09c;
    marker-start:url(#dot_3);
    marker-mid:url(#dot_3);
    marker-end:url(#dot_3);
}
.color_4 {
    stroke:#5ad2f4;
    marker-start:url(#dot_4);
    marker-mid:url(#dot_4);
    marker-end:url(#dot_4);
}
.color_5 {
    stroke:#0f6460;
    marker-start:url(#dot_5);
    marker-mid:url(#dot_5);
    marker-end:url(#dot_5);
}
.color_6 {
    stroke:#0f4668;
    marker-start:url(#dot_6);
    marker-mid:url(#dot_6);
    marker-end:url(#dot_6);
}
.color_7 {
    stroke:#543156;
    marker-start:url(#dot_7);
    marker-mid:url(#dot_7);
    marker-end:url(#dot_7);
}
.color_8 {
    stroke:#487673;
    marker-start:url(#dot_8);
    marker-mid:url(#dot_8);
    marker-end:url(#dot_8);
}
.color_9 {
    stroke:#0c8baf;
    marker-start:url(#dot_9);
    marker-mid:url(#dot_9);
    marker-end:url(#dot_9);
}
]]></style>
        <marker id="dot_0" markerHeight="3.0" markerWidth="3.0" refX="1.5" refY="1.5">
            <circle cx="1.5" cy="1.5" fill="#148983" r="1.5"/>
        </marker>
        <marker id="dot_1" markerHeight="3.0" markerWidth="3.0" refX="1.5" refY="1.5">
            <circle cx="1.5" cy="1.5" fill="#1873ac" r="1.5"/>
        </marker>
        <marker id="dot_2" markerHeight="3.0" markerWidth="3.0" refX="1.5" refY="1.5">
            <circle cx="1.5" cy="1.5" fill="#8c5290" r="1.5"/>
        </marker>
        <marker id="dot_3" markerHeight="3.0" markerWidth="3.0" refX="1.5" refY="1.5">
            <circle cx="1.5" cy="1.5" fill="#61a09c" r="1.5"/>
        </marker>
        <marker id="dot_4" markerHeight="3.0" markerWidth="3.0" refX="1.5" refY="1.5">
            <circle cx="1.5" cy="1.5" fill="#5ad2f4" r="1.5"/>
        </marker>
        <marker id="dot_5" markerHeight="3.0" markerWidth="3.0" refX="1.5" refY="1.5">
            <circle cx="1.5" cy="1.5" fill="#0f6460" r="1.5"/>
        </marker>
        <marker id="dot_6" markerHeight="3.0" markerWidth="3.0" refX="1.5" refY="1.5">
            <circle cx="1.5" cy="1.5" fill="#0f4668" r="1.5"/>
        </marker>
        <marker id="dot_7" markerHeight="3.0" markerWidth="3.0" refX="1.5" refY="1.5">
            <circle cx="1.5" cy="1.5" fill="#543156" r="1.5"/>
        </marker>
        <marker id="dot_8" markerHeight="3.0" markerWidth="3.0" refX="1.5" refY="1.5">
            <circle cx="1.5" cy="1.5" fill="#487673" r="1.5"/>
        </marker>
        <marker id="dot_9" markerHeight="3.0" markerWidth="3.0" refX="1.5" refY="1.5">
            <circle cx="1.5" cy="1.5" fill="#0c8baf" r="1.5"/>
        </marker>
    </defs>
    <g>
        <path class="stitch_line color_0" d="M 11.118, 22.764  L 14.064, 23.815  L 16.983, 24.734  L 19.874, 25.526  L 22.739, 26.199  L 25.581, 26.759  L 28.402, 27.211  L 31.204, 27.563  L 33.989, 27.818  L 36.760, 27.984  L 39.520, 28.065  L 42.272, 28.066  L 45.017, 27.991  L 47.759, 27.846  L 50.499, 27.634  L 53.239, 27.359  L 55.982, 27.026  L 58.729, 26.639  L 61.482, 26.201  L 64.241, 25.717  L 67.008, 25.190  L 69.785, 24.624  L 72.571, 24.023  L 75.368, 23.392  L 78.176, 22.734  L 80.996, 22.053  L 83.829, 21.353  L 86.673, 20.639  L 89.531, 19.915  L 92.401, 19.184  L 95.284, 18.453  L 98.181, 17.724  L 101.091, 17.003  L 104.014, 16.293  L 106.950, 15.601  L 109.899, 14.929  L 112.861, 14.284  L 115.835, 13.669  L 118.822, 13.091  L 121.820, 12.552  L 124.829, 12.060  L 127.849, 11.618  L 130.879, 11.233  L 133.918, 10.908  L 136.965, 10.649  L 140.019, 10.461  L 143.079, 10.350  L 146.142, 10.320  L 149.208, 10.377  L 152.275, 10.526  L 155.340, 10.771  L 158.401, 11.118  L 161.456, 11.570  L 164.502, 12.133  L 167.537, 12.810  L 170.559, 13.605  L 173.563, 14.523  L 176.549, 15.566  L 179.514, 16.737  L 182.454, 18.040  L 185.370, 19.477  L 188.258, 21.051  L 191.118, 22.764  L 190.000, 25.000  L 188.882, 27.236  L 185.936, 26.185  L 183.017, 25.266  L 180.126, 24.474  L 177.261, 23.801  L 174.419, 23.241  L 171.598, 22.789  L 168.796, 22.437  L 166.011, 22.182  L 163.240, 22.016  L 160.480, 21.935  L 157.728, 21.934  L 154.983, 22.009  L 152.241, 22.154  L 149.501, 22.366  L 146.761, 22.641  L 144.018, 22.974  L 141.271, 23.361  L 138.518, 23.799  L 135.759, 24.283  L 132.992, 24.810  L 130.215, 25.376  L 127.429, 25.977  L 124.632, 26.608  L 121.824, 27.266  L 119.004, 27.947  L 116.171, 28.647  L 113.327, 29.361  L 110.469, 30.085  L 107.599, 30.816  L 104.716, 31.547  L 101.819, 32.276  L 98.909, 32.997  L 95.986, 33.707  L 93.050, 34.399  L 90.101, 35.071  L 87.139, 35.716  L 84.165, 36.331  L 81.178, 36.909  L 78.180, 37.448  L 75.171, 37.940  L 72.151, 38.382  L 69.121, 38.767  L 66.082, 39.092  L 63.035, 39.351  L 59.981, 39.539  L 56.921, 39.650  L 53.858, 39.680  L 50.792, 39.623  L 47.725, 39.474  L 44.660, 39.229  L 41.599, 38.882  L 38.544, 38.430  L 35.498, 37.867  L 32.463, 37.190  L 29.441, 36.395  L 26.437, 35.477  L 23.451, 34.434  L 20.486, 33.263  L 17.546, 31.960  L 14.630, 30.523  L 11.742, 28.949  L 8.882, 27.236  L 10.000, 25.000  L 11.118, 22.764 "/>
    </g>
</svg>
