<?xml version="1.0" encoding="utf-8" ?>
<svg xmlns="http://www.w3.org/2000/svg" xmlns:ev="http://www.w3.org/2001/xml-events" xmlns:xlink="http://www.w3.org/1999/xlink" baseProfile="full" height="50mm" version="1.1" viewBox="0,0,200,50" width="200mm">
    <defs>
        <style type="text/css"><![CDATA[
.stitch_line {
    stroke-width: 0.3;
    stroke-linejoin: round;
    stroke-linecap: round;
    fill: none;
}
.path_center_line {
    fill: none;
    stroke:#808080;
    stroke-width: 0.2;
    stroke-linejoin: round;
    stroke-linecap: round;
}
.path_contour {
    fill: #808080;
    fill-opacity: 0.3;
    stroke: #808080;
    stroke-opacity: 1;
    stroke-width: 0.3;
}
.text{
    text-anchor: middle;
    dominant-baseline: middle;
    font-family: sans-serif;
    font-size: 1.5mm;
}
.smalltext{
    text-anchor: middle;
    dominant-baseline: middle;
    font-family: sans-serif;
    font-size: 1mm;
}
.color_0 {
    stroke:#3bb2d0;
}
.dot_0 {
    marker-start:url(#dot_0);
    marker-mid:url(#dot_0);
    marker-end:url(#dot_0);
}
]]></style>
        <marker id="dot_0" markerHeight="3.0" markerWidth="3.0" refX="1.5" refY="1.5">
            <circle cx="1.5" cy="1.5" fill="#3bb2d0" r="1.5"/>
        </marker>
    </defs>
    <g>
        <path class="stitch_line color_0 dot_0" d="M 11.118, 22.764  L 13.897, 23.734  L 16.693, 24.605  L 19.504, 25.376  L 22.326, 26.047  L 25.159, 26.617  L 28.000, 27.088  L 30.846, 27.461  L 33.696, 27.738  L 36.548, 27.923  L 39.402, 28.018  L 42.256, 28.027  L 45.110, 27.955  L 47.962, 27.806  L 50.814, 27.585  L 53.665, 27.296  L 56.515, 26.945  L 59.365, 26.535  L 62.214, 26.073  L 65.065, 25.562  L 67.916, 25.009  L 70.770, 24.416  L 73.627, 23.790  L 76.487, 23.134  L 79.353, 22.453  L 82.225, 21.752  L 85.104, 21.035  L 87.992, 20.306  L 90.889, 19.569  L 93.797, 18.830  L 96.716, 18.091  L 99.649, 17.358  L 102.596, 16.635  L 105.557, 15.927  L 108.535, 15.237  L 111.530, 14.571  L 114.542, 13.933  L 117.573, 13.329  L 120.623, 12.764  L 123.692, 12.242  L 126.780, 11.770  L 129.887, 11.352  L 133.012, 10.996  L 136.154, 10.707  L 139.311, 10.491  L 142.482, 10.355  L 145.664, 10.305  L 148.854, 10.346  L 152.047, 10.486  L 155.238, 10.729  L 158.424, 11.082  L 161.596, 11.547  L 164.749, 12.131  L 167.877, 12.834  L 170.970, 13.659  L 174.023, 14.607  L 177.026, 15.685  L 179.964, 16.913  L 182.825, 18.292  L 185.605, 19.804  L 188.306, 21.428  L 190.932, 23.137  L 188.188, 21.686  L 185.378, 20.357  L 182.515, 19.135  L 179.609, 18.003  L 176.666, 16.953  L 173.686, 15.991  L 170.668, 15.139  L 167.614, 14.405  L 164.533, 13.788  L 161.430, 13.287  L 158.310, 12.897  L 155.180, 12.615  L 152.045, 12.437  L 148.909, 12.358  L 145.776, 12.371  L 142.650, 12.472  L 139.532, 12.654  L 136.426, 12.910  L 133.332, 13.236  L 130.253, 13.626  L 127.188, 14.072  L 124.139, 14.570  L 121.105, 15.114  L 118.085, 15.699  L 115.081, 16.319  L 112.091, 16.970  L 109.114, 17.647  L 106.150, 18.344  L 103.197, 19.058  L 100.255, 19.783  L 97.322, 20.516  L 94.398, 21.252  L 91.481, 21.987  L 88.571, 22.715  L 85.665, 23.434  L 82.764, 24.138  L 79.865, 24.823  L 76.969, 25.484  L 74.074, 26.118  L 71.178, 26.719  L 68.282, 27.282  L 65.385, 27.803  L 62.486, 28.276  L 59.585, 28.697  L 56.682, 29.061  L 53.777, 29.363  L 50.870, 29.596  L 47.961, 29.758  L 45.052, 29.841  L 42.143, 29.842  L 39.236, 29.757  L 36.332, 29.581  L 33.434, 29.310  L 30.543, 28.941  L 27.662, 28.472  L 24.792, 27.910  L 21.927, 27.273  L 19.066, 26.567  L 16.211, 25.778  L 13.371, 24.889  L 10.559, 23.882  L 13.253, 25.147  L 15.984, 26.331  L 18.756, 27.410  L 21.573, 28.363  L 24.432, 29.178  L 27.325, 29.856  L 30.240, 30.421  L 33.172, 30.881  L 36.116, 31.238  L 39.069, 31.496  L 42.029, 31.658  L 44.994, 31.727  L 47.959, 31.709  L 50.925, 31.608  L 53.889, 31.429  L 56.849, 31.178  L 59.806, 30.860  L 62.758, 30.480  L 65.706, 30.043  L 68.649, 29.555  L 71.587, 29.021  L 74.520, 28.446  L 77.451, 27.835  L 80.378, 27.193  L 83.303, 26.524  L 86.226, 25.833  L 89.150, 25.125  L 92.074, 24.404  L 94.999, 23.675  L 97.928, 22.941  L 100.860, 22.208  L 103.798, 21.480  L 106.742, 20.761  L 109.693, 20.056  L 112.652, 19.369  L 115.620, 18.705  L 118.598, 18.068  L 121.586, 17.464  L 124.586, 16.898  L 127.597, 16.374  L 130.619, 15.899  L 133.653, 15.477  L 136.698, 15.114  L 139.753, 14.816  L 142.817, 14.588  L 145.888, 14.438  L 148.964, 14.369  L 152.044, 14.388  L 155.122, 14.501  L 158.197, 14.712  L 161.263, 15.026  L 164.317, 15.446  L 167.352, 15.977  L 170.365, 16.619  L 173.349, 17.375  L 176.297, 18.254  L 179.195, 19.275  L 182.035, 20.441  L 184.811, 21.737  L 187.526, 23.140  L 190.186, 24.627  L 187.408, 23.399  L 184.584, 22.290  L 181.725, 21.284  L 178.841, 20.365  L 175.937, 19.522  L 173.012, 18.760  L 170.062, 18.099  L 167.090, 17.548  L 164.101, 17.104  L 161.097, 16.765  L 158.084, 16.527  L 155.064, 16.387  L 152.042, 16.340  L 149.020, 16.381  L 146.000, 16.504  L 142.984, 16.705  L 139.973, 16.978  L 136.970, 17.317  L 133.974, 17.717  L 130.985, 18.172  L 128.005, 18.677  L 125.033, 19.226  L 122.068, 19.815  L 119.110, 20.438  L 116.159, 21.091  L 113.213, 21.768  L 110.272, 22.466  L 107.334, 23.179  L 104.399, 23.903  L 101.466, 24.634  L 98.534, 25.366  L 95.601, 26.097  L 92.666, 26.821  L 89.728, 27.534  L 86.787, 28.232  L 83.841, 28.909  L 80.890, 29.562  L 77.932, 30.185  L 74.967, 30.774  L 71.995, 31.323  L 69.015, 31.828  L 66.026, 32.283  L 63.030, 32.683  L 60.027, 33.022  L 57.016, 33.295  L 54.000, 33.496  L 50.980, 33.619  L 47.958, 33.660  L 44.936, 33.613  L 41.916, 33.473  L 38.903, 33.235  L 35.899, 32.896  L 32.910, 32.452  L 29.938, 31.901  L 26.988, 31.240  L 24.063, 30.478  L 21.159, 29.635  L 18.275, 28.716  L 15.416, 27.710  L 12.592, 26.601  L 9.814, 25.373  L 12.474, 26.860  L 15.189, 28.263  L 17.965, 29.559  L 20.805, 30.725  L 23.703, 31.746  L 26.651, 32.625  L 29.635, 33.381  L 32.648, 34.023  L 35.683, 34.554  L 38.737, 34.974  L 41.803, 35.288  L 44.878, 35.499  L 47.956, 35.612  L 51.036, 35.631  L 54.112, 35.562  L 57.183, 35.412  L 60.247, 35.184  L 63.302, 34.886  L 66.347, 34.523  L 69.381, 34.101  L 72.403, 33.626  L 75.414, 33.102  L 78.414, 32.536  L 81.402, 31.932  L 84.380, 31.295  L 87.348, 30.631  L 90.307, 29.944  L 93.258, 29.239  L 96.202, 28.520  L 99.140, 27.792  L 102.072, 27.059  L 105.001, 26.325  L 107.926, 25.596  L 110.850, 24.875  L 113.774, 24.167  L 116.697, 23.476  L 119.622, 22.807  L 122.549, 22.165  L 125.480, 21.554  L 128.413, 20.979  L 131.351, 20.445  L 134.294, 19.957  L 137.242, 19.520  L 140.194, 19.140  L 143.151, 18.822  L 146.111, 18.571  L 149.075, 18.392  L 152.041, 18.291  L 155.006, 18.273  L 157.971, 18.342  L 160.931, 18.504  L 163.884, 18.762  L 166.828, 19.119  L 169.760, 19.579  L 172.675, 20.144  L 175.568, 20.822  L 178.427, 21.637  L 181.244, 22.590  L 184.016, 23.669  L 186.747, 24.853  L 189.441, 26.118  L 186.629, 25.111  L 183.789, 24.222  L 180.934, 23.433  L 178.073, 22.727  L 175.208, 22.090  L 172.338, 21.528  L 169.457, 21.059  L 166.566, 20.690  L 163.668, 20.419  L 160.764, 20.243  L 157.857, 20.158  L 154.948, 20.159  L 152.039, 20.242  L 149.130, 20.404  L 146.223, 20.637  L 143.318, 20.939  L 140.415, 21.303  L 137.514, 21.724  L 134.615, 22.197  L 131.718, 22.718  L 128.822, 23.281  L 125.926, 23.882  L 123.031, 24.516  L 120.135, 25.177  L 117.236, 25.862  L 114.335, 26.566  L 111.429, 27.285  L 108.519, 28.013  L 105.602, 28.748  L 102.678, 29.484  L 99.745, 30.217  L 96.803, 30.942  L 93.850, 31.656  L 90.886, 32.353  L 87.909, 33.030  L 84.919, 33.681  L 81.915, 34.301  L 78.895, 34.886  L 75.861, 35.430  L 72.812, 35.928  L 69.747, 36.374  L 66.668, 36.764  L 63.574, 37.090  L 60.468, 37.346  L 57.350, 37.528  L 54.224, 37.629  L 51.091, 37.642  L 47.955, 37.563  L 44.820, 37.385  L 41.690, 37.103  L 38.570, 36.713  L 35.467, 36.212  L 32.386, 35.595  L 29.332, 34.861  L 26.314, 34.009  L 23.334, 33.047  L 20.391, 31.997  L 17.485, 30.865  L 14.622, 29.643  L 11.812, 28.314  L 9.068, 26.863  L 11.694, 28.572  L 14.395, 30.196  L 17.175, 31.708  L 20.036, 33.087  L 22.974, 34.315  L 25.977, 35.393  L 29.030, 36.341  L 32.123, 37.166  L 35.251, 37.869  L 38.404, 38.453  L 41.576, 38.918  L 44.762, 39.271  L 47.953, 39.514  L 51.146, 39.654  L 54.336, 39.695  L 57.518, 39.645  L 60.689, 39.509  L 63.846, 39.293  L 66.988, 39.004  L 70.113, 38.648  L 73.220, 38.230  L 76.308, 37.758  L 79.377, 37.236  L 82.427, 36.671  L 85.458, 36.067  L 88.470, 35.429  L 91.465, 34.763  L 94.443, 34.073  L 97.404, 33.365  L 100.351, 32.642  L 103.284, 31.909  L 106.203, 31.170  L 109.111, 30.431  L 112.008, 29.694  L 114.896, 28.965  L 117.775, 28.248  L 120.647, 27.547  L 123.513, 26.866  L 126.373, 26.210  L 129.230, 25.584  L 132.084, 24.991  L 134.935, 24.438  L 137.786, 23.927  L 140.635, 23.465  L 143.485, 23.055  L 146.335, 22.704  L 149.186, 22.415  L 152.038, 22.194  L 154.890, 22.045  L 157.744, 21.973  L 160.598, 21.982  L 163.452, 22.077  L 166.304, 22.262  L 169.154, 22.539  L 172.000, 22.912  L 174.841, 23.383  L 177.674, 23.953  L 180.496, 24.624  L 183.307, 25.395  L 186.103, 26.266  L 188.882, 27.236 "/>
    </g>
</svg>
