<?xml version="1.0" encoding="utf-8" ?>
<svg xmlns="http://www.w3.org/2000/svg" xmlns:ev="http://www.w3.org/2001/xml-events" xmlns:xlink="http://www.w3.org/1999/xlink" baseProfile="full" height="50mm" version="1.1" viewBox="0,0,200,50" width="200mm">
    <defs>
        <style type="text/css"><![CDATA[
.stitch_line {
    stroke-width: 0.3;
    stroke-linejoin: round;
    stroke-linecap: round;
    fill: none;
}
.sampling_line {
    stroke:#148983;
    stroke-width: 0.5;
    fill: none;
}
.path_handle {
    stroke-width: 0.5;
    stroke-linejoin: round;
    stroke-linecap: round;
    fill:none;
    stroke: #808080;
    marker-start: url(#handles);
    marker-mid: url(#handles);
    marker-end: url(#handles);
}
.path_center_line {
    stroke-width: 0.5;
    stroke-linejoin: round;
    stroke-linecap: round;
    fill: none;
    stroke:#148983;
    stroke-dasharray: 2,1.5;
    stroke-dashoffset: 1;
}
.path_contour {
    stroke: #85c4c1;
    fill-opacity: 0;
    stroke-width: 0.3;
}
.path_direction_line {
    stroke-width: 0.05;
    fill: none;
    stroke: #85c4c1;
}
.text{
    text-anchor: middle;
    dominant-baseline: middle;
    font-family: sans-serif;
    font-size: 1.5mm;
}
.smalltext{
    text-anchor: middle;
    dominant-baseline: middle;
    font-family: sans-serif;
    font-size: 1mm;
}
.color_0 {
    stroke:#148983;
    marker-start:url(#dot_0);
    marker-mid:url(#dot_0);
    marker-end:url(#dot_0);
}
.color_1 {
    stroke:#1873ac;
    marker-start:url(#dot_1);
    marker-mid:url(#dot_1);
    marker-end:url(#dot_1);
}
.color_2 {
    stroke:#8c5290;
    marker-start:url(#dot_2);
    marker-mid:url(#dot_2);
    marker-end:url(#dot_2);
}
.color_3 {
    stroke:#61a09c;
    marker-start:url(#dot_3);
    marker-mid:url(#dot_3);
    marker-end:url(#dot_3);
}
.color_4 {
    stroke:#5ad2f4;
    marker-start:url(#dot_4);
    marker-mid:url(#dot_4);
    marker-end:url(#dot_4);
}
.color_5 {
    stroke:#0f6460;
    marker-start:url(#dot_5);
    marker-mid:url(#dot_5);
    marker-end:url(#dot_5);
}
.color_6 {
    stroke:#0f4668;
    marker-start:url(#dot_6);
    marker-mid:url(#dot_6);
    marker-end:url(#dot_6);
}
.color_7 {
    stroke:#543156;
    marker-start:url(#dot_7);
    marker-mid:url(#dot_7);
    marker-end:url(#dot_7);
}
.color_8 {
    stroke:#487673;
    marker-start:url(#dot_8);
    marker-mid:url(#dot_8);
    marker-end:url(#dot_8);
}
.color_9 {
    stroke:#0c8baf;
    marker-start:url(#dot_9);
    marker-mid:url(#dot_9);
    marker-end:url(#dot_9);
}
]]></style>
        <marker id="dot_0" markerHeight="3.0" markerWidth="3.0" refX="1.5" refY="1.5">
            <circle cx="1.5" cy="1.5" fill="#148983" r="1.5"/>
        </marker>
        <marker id="dot_1" markerHeight="3.0" markerWidth="3.0" refX="1.5" refY="1.5">
            <circle cx="1.5" cy="1.5" fill="#1873ac" r="1.5"/>
        </marker>
        <marker id="dot_2" markerHeight="3.0" markerWidth="3.0" refX="1.5" refY="1.5">
            <circle cx="1.5" cy="1.5" fill="#8c5290" r="1.5"/>
        </marker>
        <marker id="dot_3" markerHeight="3.0" markerWidth="3.0" refX="1.5" refY="1.5">
            <circle cx="1.5" cy="1.5" fill="#61a09c" r="1.5"/>
        </marker>
        <marker id="dot_4" markerHeight="3.0" markerWidth="3.0" refX="1.5" refY="1.5">
            <circle cx="1.5" cy="1.5" fill="#5ad2f4" r="1.5"/>
        </marker>
        <marker id="dot_5" markerHeight="3.0" markerWidth="3.0" refX="1.5" refY="1.5">
            <circle cx="1.5" cy="1.5" fill="#0f6460" r="1.5"/>
        </marker>
        <marker id="dot_6" markerHeight="3.0" markerWidth="3.0" refX="1.5" refY="1.5">
            <circle cx="1.5" cy="1.5" fill="#0f4668" r="1.5"/>
        </marker>
        <marker id="dot_7" markerHeight="3.0" markerWidth="3.0" refX="1.5" refY="1.5">
            <circle cx="1.5" cy="1.5" fill="#543156" r="1.5"/>
        </marker>
        <marker id="dot_8" markerHeight="3.0" markerWidth="3.0" refX="1.5" refY="1.5">
            <circle cx="1.5" cy="1.5" fill="#487673" r="1.5"/>
        </marker>
        <marker id="dot_9" markerHeight="3.0" markerWidth="3.0" refX="1.5" refY="1.5">
            <circle cx="1.5" cy="1.5" fill="#0c8baf" r="1.5"/>
        </marker>
    </defs>
    <g>
        <path class="stitch_line color_0" d="M 8.882, 27.236  L 10.755, 28.348  L 12.662, 29.349  L 14.602, 30.229  L 16.574, 30.977  L 18.574, 31.582  L 20.600, 32.036  L 22.645, 32.330  L 24.706, 32.455  L 26.774, 32.403  L 28.844, 32.168  L 30.907, 31.743  L 32.956, 31.124  L 34.984, 30.305  L 36.981, 29.283  L 38.940, 28.055  L 40.629, 29.437  L 42.372, 30.764  L 44.166, 32.025  L 46.009, 33.209  L 47.894, 34.307  L 49.817, 35.310  L 51.773, 36.208  L 53.754, 36.996  L 55.757, 37.665  L 57.772, 38.211  L 59.796, 38.627  L 61.820, 38.909  L 63.840, 39.052  L 65.849, 39.054  L 67.842, 38.912  L 69.813, 38.623  L 71.759, 38.185  L 73.673, 37.597  L 75.554, 36.859  L 77.397, 35.969  L 79.199, 34.928  L 80.960, 33.736  L 82.676, 32.394  L 84.348, 30.902  L 85.974, 29.262  L 87.556, 27.477  L 89.093, 25.547  L 90.589, 23.474  L 92.044, 21.263  L 93.462, 18.915  L 95.812, 20.312  L 98.139, 21.583  L 100.438, 22.726  L 102.705, 23.741  L 104.937, 24.626  L 107.131, 25.383  L 109.286, 26.010  L 111.400, 26.509  L 113.472, 26.880  L 115.503, 27.125  L 117.493, 27.244  L 119.443, 27.239  L 121.355, 27.113  L 123.231, 26.868  L 125.074, 26.506  L 126.888, 26.032  L 128.676, 25.448  L 130.444, 24.759  L 132.195, 23.969  L 133.936, 23.084  L 135.671, 22.108  L 137.408, 21.049  L 139.153, 19.913  L 140.911, 18.707  L 142.689, 17.440  L 144.495, 16.120  L 146.334, 14.757  L 148.213, 13.361  L 150.137, 11.943  L 152.113, 10.516  L 154.085, 12.130  L 156.005, 13.620  L 157.880, 14.989  L 159.716, 16.242  L 161.521, 17.383  L 163.302, 18.418  L 165.066, 19.353  L 166.821, 20.197  L 168.572, 20.956  L 170.328, 21.640  L 172.095, 22.258  L 173.877, 22.820  L 175.681, 23.337  L 177.511, 23.822  L 179.370, 24.285  L 181.260, 24.740  L 183.182, 25.200  L 185.135, 25.677  L 187.119, 26.186  L 189.130, 26.739  L 187.324, 25.750  L 185.551, 24.729  L 183.809, 23.663  L 182.093, 22.542  L 180.398, 21.352  L 178.717, 20.083  L 177.043, 18.724  L 175.369, 17.268  L 173.685, 15.704  L 171.984, 14.025  L 169.797, 14.605  L 167.657, 15.246  L 165.565, 15.932  L 163.520, 16.649  L 161.521, 17.383  L 159.566, 18.121  L 157.651, 18.850  L 155.771, 19.558  L 153.922, 20.235  L 152.099, 20.870  L 150.295, 21.452  L 148.504, 21.973  L 146.721, 22.425  L 144.939, 22.800  L 143.151, 23.090  L 141.352, 23.291  L 139.537, 23.395  L 137.699, 23.398  L 135.833, 23.296  L 133.936, 23.084  L 132.002, 22.759  L 130.028, 22.317  L 128.011, 21.756  L 125.949, 21.074  L 123.839, 20.269  L 121.680, 19.339  L 119.471, 18.282  L 117.212, 17.099  L 114.904, 15.789  L 112.548, 14.350  L 111.053, 16.628  L 109.550, 18.800  L 108.033, 20.859  L 106.497, 22.803  L 104.937, 24.626  L 103.350, 26.326  L 101.731, 27.900  L 100.079, 29.344  L 98.391, 30.655  L 96.664, 31.832  L 94.899, 32.873  L 93.095, 33.777  L 91.252, 34.541  L 89.370, 35.166  L 87.452, 35.650  L 85.498, 35.993  L 83.513, 36.196  L 81.498, 36.259  L 79.458, 36.183  L 77.397, 35.969  L 75.319, 35.619  L 73.230, 35.136  L 71.135, 34.522  L 69.041, 33.780  L 66.953, 32.914  L 64.879, 31.929  L 62.824, 30.830  L 60.796, 29.623  L 58.802, 28.314  L 56.849, 26.910  L 55.165, 28.759  L 53.423, 30.423  L 51.627, 31.902  L 49.782, 33.197  L 47.894, 34.307  L 45.968, 35.236  L 44.011, 35.984  L 42.029, 36.555  L 40.029, 36.952  L 38.017, 37.180  L 36.001, 37.243  L 33.987, 37.148  L 31.981, 36.900  L 29.989, 36.506  L 28.016, 35.975  L 26.067, 35.316  L 24.146, 34.537  L 22.256, 33.648  L 20.399, 32.660  L 18.574, 31.582  L 16.782, 30.427  L 15.020, 29.205  L 13.286, 27.927  L 11.573, 26.604  L 9.876, 25.248  L 11.982, 25.732  L 14.117, 26.030  L 16.275, 26.132  L 18.449, 26.029  L 20.630, 25.715  L 22.208, 27.051  L 23.813, 28.376  L 25.452, 29.679  L 27.128, 30.947  L 28.844, 32.168  L 30.601, 33.331  L 32.399, 34.424  L 34.236, 35.437  L 36.110, 36.359  L 38.017, 37.180  L 39.954, 37.892  L 41.915, 38.485  L 43.894, 38.953  L 45.887, 39.288  L 47.887, 39.484  L 49.887, 39.536  L 51.882, 39.438  L 53.865, 39.187  L 55.831, 38.779  L 57.772, 38.211  L 59.685, 37.481  L 61.564, 36.587  L 63.405, 35.529  L 65.202, 34.304  L 66.953, 32.914  L 68.655, 31.358  L 70.304, 29.637  L 71.900, 27.752  L 73.441, 25.703  L 74.926, 23.494  L 77.131, 24.889  L 79.345, 26.167  L 81.561, 27.324  L 83.772, 28.356  L 85.974, 29.262  L 88.160, 30.040  L 90.327, 30.686  L 92.468, 31.201  L 94.582, 31.583  L 96.664, 31.832  L 98.713, 31.948  L 100.725, 31.930  L 102.701, 31.780  L 104.639, 31.498  L 106.538, 31.085  L 108.400, 30.543  L 110.226, 29.874  L 112.017, 29.079  L 113.775, 28.162  L 115.503, 27.125  L 117.205, 25.971  L 118.885, 24.704  L 120.547, 23.329  L 122.197, 21.848  L 123.839, 20.269  L 125.479, 18.595  L 127.125, 16.833  L 128.781, 14.990  L 130.457, 13.072  L 132.158, 11.088  L 134.377, 12.608  L 136.537, 14.002  L 138.640, 15.270  L 140.690, 16.415  L 142.689, 17.440  L 144.643, 18.347  L 146.555, 19.139  L 148.431, 19.820  L 150.277, 20.396  L 152.099, 20.870  L 153.902, 21.248  L 155.694, 21.538  L 157.479, 21.745  L 159.266, 21.878  L 161.060, 21.945  L 162.867, 21.956  L 164.693, 21.919  L 166.542, 21.847  L 168.419, 21.750  L 170.328, 21.640  L 172.271, 21.529  L 174.250, 21.432  L 176.265, 21.360  L 178.315, 21.329  L 180.398, 21.352  L 182.510, 21.442  L 184.645, 21.615  L 186.798, 21.884  L 188.958, 22.262  L 191.118, 22.764 "/>
    </g>
</svg>
