<?xml version="1.0" encoding="utf-8" ?>
<svg xmlns="http://www.w3.org/2000/svg" xmlns:ev="http://www.w3.org/2001/xml-events" xmlns:xlink="http://www.w3.org/1999/xlink" baseProfile="full" height="50mm" version="1.1" viewBox="0,0,200,50" width="200mm">
    <defs>
        <style type="text/css"><![CDATA[
.stitch_line {
    stroke-width: 0.3;
    stroke-linejoin: round;
    stroke-linecap: round;
    fill: none;
}
.path_center_line {
    fill: none;
    stroke:#808080;
    stroke-width: 0.2;
    stroke-linejoin: round;
    stroke-linecap: round;
}
.path_contour {
    fill: #808080;
    fill-opacity: 0.3;
    stroke: #808080;
    stroke-opacity: 1;
    stroke-width: 0.3;
}
.text{
    text-anchor: middle;
    dominant-baseline: middle;
    font-family: sans-serif;
    font-size: 1.5mm;
}
.smalltext{
    text-anchor: middle;
    dominant-baseline: middle;
    font-family: sans-serif;
    font-size: 1mm;
}
.color_0 {
    stroke:#3bb2d0;
}
.dot_0 {
    marker-start:url(#dot_0);
    marker-mid:url(#dot_0);
    marker-end:url(#dot_0);
}
]]></style>
        <marker id="dot_0" markerHeight="3.0" markerWidth="3.0" refX="1.5" refY="1.5">
            <circle cx="1.5" cy="1.5" fill="#3bb2d0" r="1.5"/>
        </marker>
    </defs>
    <g>
        <path class="stitch_line color_0 dot_0" d="M 11.807, 26.312  L 14.372, 27.983  L 17.067, 29.428  L 19.825, 30.778  L 22.667, 31.949  L 25.629, 32.745  L 28.554, 33.723  L 31.460, 34.938  L 34.500, 35.547  L 37.645, 35.261  L 40.747, 34.957  L 43.780, 35.401  L 46.830, 35.835  L 49.897, 36.079  L 53.000, 36.851  L 56.120, 37.286  L 59.194, 36.950  L 62.146, 35.632  L 64.935, 33.454  L 67.813, 32.314  L 70.662, 31.146  L 73.423, 29.615  L 76.401, 29.307  L 79.483, 29.447  L 82.442, 28.950  L 85.482, 28.791  L 88.597, 28.919  L 91.576, 28.447  L 94.724, 28.663  L 98.098, 29.774  L 101.298, 30.191  L 104.293, 29.821  L 107.097, 28.713  L 109.860, 27.462  L 112.666, 26.402  L 115.137, 23.894  L 117.429, 20.470  L 120.168, 18.904  L 123.156, 18.473  L 125.953, 17.024  L 128.753, 15.426  L 131.732, 14.728  L 134.719, 13.988  L 137.779, 13.710  L 140.833, 13.339  L 143.942, 13.606  L 147.078, 14.899  L 150.133, 15.672  L 153.161, 14.934  L 156.231, 14.339  L 159.246, 15.138  L 162.126, 16.872  L 164.971, 18.170  L 167.945, 18.383  L 170.919, 18.706  L 173.710, 19.838  L 176.430, 21.099  L 179.081, 22.462  L 181.667, 23.901  L 184.336, 25.066  L 187.027, 26.182  L 187.849, 26.715  L 185.043, 25.871  L 182.263, 25.038  L 179.521, 24.152  L 176.816, 23.173  L 174.047, 22.387  L 171.261, 21.663  L 168.486, 20.835  L 165.692, 19.979  L 162.926, 18.608  L 160.152, 16.476  L 157.251, 14.391  L 154.224, 12.661  L 151.110, 11.920  L 148.002, 12.365  L 144.943, 13.191  L 141.829, 12.934  L 138.687, 12.576  L 135.546, 12.396  L 132.361, 12.014  L 129.263, 12.279  L 126.293, 13.235  L 123.304, 13.984  L 120.232, 14.271  L 117.178, 14.625  L 114.276, 15.636  L 111.463, 16.962  L 108.540, 17.761  L 105.562, 18.299  L 102.831, 19.808  L 100.278, 21.990  L 97.838, 24.598  L 95.591, 27.994  L 93.073, 30.355  L 90.082, 30.817  L 86.822, 30.136  L 83.553, 29.336  L 80.454, 29.209  L 77.525, 29.836  L 74.688, 30.947  L 72.010, 33.051  L 69.216, 34.750  L 66.265, 35.672  L 63.305, 36.718  L 60.260, 37.275  L 57.098, 36.554  L 53.936, 35.086  L 50.882, 34.656  L 47.852, 35.331  L 44.801, 35.352  L 41.774, 34.825  L 38.716, 34.824  L 35.585, 35.213  L 32.491, 35.032  L 29.481, 34.309  L 26.368, 34.033  L 23.253, 33.635  L 20.271, 32.707  L 17.495, 31.212  L 14.792, 29.627  L 11.997, 28.329  L 10.018, 27.710  L 12.673, 29.344  L 15.400, 30.888  L 18.225, 32.252  L 21.156, 33.367  L 24.186, 34.170  L 27.297, 34.613  L 30.440, 34.777  L 33.528, 35.074  L 36.672, 34.773  L 39.809, 33.976  L 42.859, 33.503  L 45.850, 33.888  L 48.859, 34.117  L 51.855, 33.603  L 54.860, 33.594  L 57.857, 33.395  L 60.743, 32.142  L 63.616, 31.093  L 66.413, 29.692  L 69.104, 27.836  L 71.790, 26.170  L 74.471, 24.610  L 77.246, 23.580  L 80.052, 22.691  L 82.849, 21.733  L 85.694, 20.956  L 88.585, 20.324  L 91.648, 20.345  L 95.003, 21.479  L 98.211, 21.964  L 101.343, 22.124  L 104.456, 22.194  L 107.337, 21.325  L 110.118, 20.018  L 112.932, 18.807  L 116.025, 18.786  L 119.068, 18.567  L 121.872, 17.200  L 124.713, 15.911  L 127.723, 15.432  L 130.874, 15.813  L 134.127, 17.099  L 137.262, 17.926  L 140.297, 18.263  L 143.237, 17.759  L 146.158, 16.689  L 149.128, 15.751  L 152.146, 15.615  L 155.164, 15.762  L 158.161, 16.209  L 161.104, 17.054  L 164.041, 17.647  L 167.010, 17.964  L 170.045, 18.012  L 173.190, 17.786  L 176.288, 17.990  L 179.143, 19.101  L 181.932, 20.355  L 184.749, 21.495  L 187.386, 23.034  L 187.887, 24.343  L 184.936, 23.650  L 181.863, 23.386  L 178.891, 23.023  L 176.025, 22.463  L 173.148, 22.031  L 170.344, 21.356  L 167.696, 19.778  L 165.014, 17.865  L 162.173, 16.437  L 159.281, 14.668  L 156.286, 13.028  L 153.193, 12.164  L 150.068, 11.869  L 146.949, 11.988  L 143.860, 12.438  L 140.757, 12.524  L 137.675, 12.808  L 134.691, 13.783  L 131.997, 16.451  L 129.355, 18.955  L 126.461, 19.759  L 123.643, 20.916  L 121.083, 23.233  L 118.565, 25.592  L 115.852, 26.999  L 112.931, 27.517  L 109.974, 27.933  L 106.998, 28.314  L 103.858, 28.075  L 100.462, 26.849  L 97.167, 26.039  L 94.029, 25.847  L 91.043, 26.254  L 88.167, 27.108  L 85.311, 28.049  L 82.459, 29.024  L 79.636, 30.170  L 76.676, 30.685  L 73.520, 30.136  L 70.511, 30.262  L 67.629, 31.114  L 64.784, 32.339  L 61.971, 34.119  L 58.997, 34.836  L 55.914, 34.316  L 52.879, 34.132  L 49.868, 34.404  L 46.837, 35.220  L 43.750, 36.119  L 40.606, 36.865  L 37.460, 36.984  L 34.376, 36.420  L 31.373, 35.426  L 28.455, 34.182  L 25.640, 32.701  L 22.923, 31.085  L 20.123, 29.894  L 17.209, 29.054  L 14.229, 28.323  L 11.222, 27.564  L 11.848, 28.658  L 14.541, 30.242  L 17.280, 31.799  L 20.129, 33.146  L 23.055, 34.336  L 26.034, 35.410  L 29.064, 36.350  L 32.138, 37.153  L 35.251, 37.774  L 38.385, 38.273  L 41.551, 38.363  L 44.723, 37.814  L 47.848, 37.607  L 50.961, 37.622  L 54.042, 37.096  L 57.088, 36.422  L 60.099, 35.674  L 62.967, 33.946  L 65.655, 31.361  L 68.423, 29.779  L 71.297, 28.995  L 74.132, 28.028  L 76.894, 26.736  L 79.776, 26.055  L 82.735, 25.695  L 85.811, 25.793  L 88.948, 26.079  L 91.897, 25.541  L 94.843, 24.976  L 98.041, 25.412  L 101.153, 25.490  L 104.220, 25.396  L 107.082, 24.486  L 109.703, 22.581  L 112.335, 20.668  L 115.334, 20.284  L 118.342, 19.955  L 121.237, 19.113  L 124.206, 18.611  L 127.056, 17.455  L 129.910, 16.196  L 132.879, 15.518  L 135.816, 14.496  L 138.754, 13.195  L 141.754, 12.057  L 144.861, 11.860  L 148.008, 12.524  L 151.121, 13.341  L 154.222, 12.732  L 157.381, 11.904  L 160.549, 11.805  L 163.678, 12.287  L 166.750, 13.130  L 169.772, 14.116  L 172.727, 15.283  L 175.427, 17.263  L 177.852, 19.832  L 180.252, 22.075  L 182.739, 23.829  L 185.440, 24.963  L 188.143, 26.105  L 186.302, 25.429  L 183.621, 24.252  L 180.790, 23.474  L 177.964, 22.739  L 175.315, 21.430  L 172.674, 19.909  L 169.966, 18.399  L 167.218, 16.714  L 164.305, 15.625  L 161.271, 15.308  L 158.265, 14.554  L 155.229, 13.688  L 152.150, 13.152  L 149.043, 12.510  L 145.883, 11.495  L 142.718, 11.076  L 139.569, 11.031  L 136.424, 11.061  L 133.291, 11.198  L 130.194, 11.554  L 127.176, 12.324  L 124.268, 13.576  L 121.457, 15.161  L 118.762, 17.141  L 115.998, 18.664  L 113.262, 20.225  L 110.735, 22.597  L 108.063, 24.292  L 105.165, 25.056  L 102.259, 25.792  L 99.237, 26.070  L 96.131, 26.016  L 93.163, 26.513  L 90.166, 26.878  L 87.182, 27.281  L 84.566, 29.277  L 82.074, 31.948  L 79.224, 33.108  L 76.163, 33.283  L 73.351, 34.794  L 70.541, 36.537  L 67.583, 37.605  L 64.495, 37.924  L 61.377, 38.019  L 58.265, 38.164  L 55.154, 38.399  L 52.026, 38.434  L 48.891, 38.179  L 45.783, 37.017  L 42.797, 34.691  L 39.907, 32.822  L 36.967, 32.288  L 33.921, 32.529  L 30.888, 32.435  L 28.017, 31.483  L 25.208, 30.378  L 22.265, 29.792  L 19.384, 28.959  L 16.675, 27.655  L 13.777, 26.824  L 10.748, 26.196  L 11.474, 27.024  L 14.246, 28.281  L 16.930, 29.789  L 19.497, 31.748  L 22.231, 33.421  L 25.084, 34.873  L 28.063, 35.987  L 31.113, 36.878  L 34.202, 37.639  L 37.323, 38.265  L 40.465, 38.769  L 43.623, 39.158  L 46.789, 39.438  L 49.958, 39.614  L 53.121, 39.603  L 56.237, 38.968  L 59.276, 37.832  L 62.327, 37.211  L 65.355, 36.560  L 68.270, 35.283  L 70.964, 32.913  L 73.515, 30.111  L 76.102, 27.807  L 78.919, 26.776  L 81.741, 25.789  L 84.502, 24.538  L 87.300, 23.455  L 90.096, 22.357  L 92.968, 21.549  L 96.092, 21.724  L 99.132, 21.530  L 101.951, 20.421  L 104.764, 19.262  L 107.724, 18.671  L 110.747, 18.318  L 113.778, 17.994  L 116.765, 17.473  L 119.968, 17.958  L 123.402, 19.707  L 126.708, 21.087  L 129.924, 22.289  L 133.017, 23.086  L 135.890, 22.646  L 138.626, 21.074  L 141.459, 20.067  L 144.421, 20.502  L 147.334, 20.697  L 150.222, 20.867  L 153.087, 21.356  L 155.921, 21.730  L 158.750, 21.857  L 161.585, 21.908  L 164.453, 21.802  L 167.348, 21.720  L 170.222, 21.919  L 173.147, 22.035  L 176.086, 22.257  L 178.977, 22.768  L 181.906, 23.274  L 184.877, 23.789  L 187.974, 24.155  L 189.374, 23.551  L 186.916, 21.595  L 184.218, 20.083  L 181.493, 18.549  L 178.700, 17.096  L 175.729, 16.143  L 172.594, 15.860  L 169.457, 15.764  L 166.446, 15.097  L 163.381, 14.788  L 160.245, 15.381  L 157.167, 16.003  L 154.148, 16.197  L 151.153, 17.405  L 148.233, 18.885  L 145.305, 19.100  L 142.364, 19.199  L 139.409, 19.263  L 136.382, 18.895  L 133.405, 19.077  L 130.499, 19.756  L 127.719, 21.116  L 125.027, 22.817  L 122.356, 24.500  L 119.719, 26.260  L 117.026, 27.719  L 114.242, 28.774  L 111.418, 29.689  L 108.488, 30.208  L 105.410, 30.180  L 102.346, 30.262  L 99.263, 30.307  L 96.185, 30.392  L 93.302, 31.289  L 90.429, 32.268  L 87.563, 33.316  L 84.709, 34.479  L 81.752, 35.247  L 78.721, 35.714  L 75.749, 36.513  L 72.837, 37.749  L 69.789, 38.340  L 66.636, 38.291  L 63.493, 38.259  L 60.396, 38.627  L 57.259, 38.634  L 54.074, 37.697  L 50.922, 36.149  L 47.854, 34.542  L 44.870, 33.162  L 41.965, 31.786  L 39.165, 30.147  L 36.402, 28.958  L 33.570, 28.557  L 30.723, 28.222  L 27.923, 27.633  L 25.078, 27.181  L 22.099, 27.066  L 19.001, 27.096  L 15.917, 26.877  L 12.921, 26.288  L 10.730, 26.233  L 13.290, 27.935  L 16.066, 29.198  L 18.888, 30.368  L 21.565, 32.050  L 24.311, 33.707  L 27.167, 35.182  L 30.118, 36.457  L 33.195, 37.229  L 36.321, 37.722  L 39.460, 38.099  L 42.577, 38.886  L 45.733, 39.351  L 48.901, 39.566  L 52.070, 39.675  L 55.233, 39.684  L 58.382, 39.533  L 61.501, 39.165  L 64.595, 38.695  L 67.677, 38.246  L 70.795, 38.073  L 73.845, 37.524  L 76.672, 35.893  L 79.362, 33.774  L 82.154, 32.315  L 85.017, 31.257  L 88.136, 31.335  L 91.188, 31.113  L 94.099, 30.318  L 97.198, 30.310  L 100.177, 29.832  L 102.952, 28.568  L 105.869, 27.896  L 108.887, 27.666  L 111.746, 26.818  L 114.495, 25.522  L 117.141, 23.754  L 119.660, 21.321  L 122.218, 18.900  L 125.068, 17.770  L 128.082, 17.474  L 130.996, 16.578  L 133.918, 15.619  L 136.871, 14.727  L 139.914, 14.457  L 142.979, 14.436  L 145.999, 13.697  L 149.052, 12.840  L 152.151, 12.902  L 155.254, 12.901  L 158.359, 13.066  L 161.418, 13.785  L 164.416, 14.781  L 167.436, 15.403  L 170.502, 15.775  L 173.506, 16.486  L 176.405, 17.575  L 179.360, 18.431  L 182.264, 19.448  L 185.039, 20.785  L 187.736, 22.260  L 188.468, 23.100  L 185.620, 22.034  L 182.878, 20.717  L 180.239, 19.035  L 177.496, 17.500  L 174.543, 16.583  L 171.618, 15.483  L 168.719, 14.058  L 165.702, 13.034  L 162.595, 12.498  L 159.478, 12.000  L 156.326, 12.057  L 153.186, 12.715  L 150.091, 13.232  L 146.992, 12.953  L 143.907, 13.101  L 140.850, 13.526  L 137.790, 13.808  L 134.811, 14.668  L 131.925, 15.983  L 128.972, 16.708  L 125.813, 16.274  L 122.838, 16.877  L 119.959, 17.915  L 117.036, 18.696  L 114.088, 19.342  L 111.178, 20.135  L 108.086, 20.159  L 104.899, 19.812  L 101.858, 20.047  L 99.189, 21.756  L 96.922, 25.055  L 94.646, 28.346  L 92.316, 31.493  L 89.603, 33.157  L 86.510, 33.256  L 82.964, 31.305  L 79.537, 29.699  L 76.355, 29.076  L 73.173, 28.274  L 69.947, 26.957  L 66.911, 26.447  L 64.027, 26.744  L 61.191, 27.332  L 58.362, 28.017  L 55.535, 28.860  L 52.657, 29.108  L 49.770, 28.665  L 46.911, 28.807  L 44.019, 29.685  L 41.053, 30.806  L 37.977, 32.170  L 34.792, 33.500  L 31.650, 33.875  L 28.581, 33.598  L 25.521, 33.166  L 22.429, 32.752  L 19.549, 31.595  L 16.926, 29.799  L 14.247, 28.280  L 11.501, 26.966  L 9.585, 25.830 "/>
    </g>
</svg>
