<?xml version="1.0" encoding="utf-8" ?>
<svg xmlns="http://www.w3.org/2000/svg" xmlns:ev="http://www.w3.org/2001/xml-events" xmlns:xlink="http://www.w3.org/1999/xlink" baseProfile="full" height="50mm" version="1.1" viewBox="0,0,200,50" width="200mm">
    <defs>
        <style type="text/css"><![CDATA[
.stitch_line {
    stroke-width: 0.3;
    stroke-linejoin: round;
    stroke-linecap: round;
    fill: none;
}
.sampling_line {
    stroke:#148983;
    stroke-width: 0.5;
    fill: none;
}
.path_handle {
    stroke-width: 0.5;
    stroke-linejoin: round;
    stroke-linecap: round;
    fill:none;
    stroke: #808080;
    marker-start: url(#handles);
    marker-mid: url(#handles);
    marker-end: url(#handles);
}
.path_center_line {
    stroke-width: 0.5;
    stroke-linejoin: round;
    stroke-linecap: round;
    fill: none;
    stroke:#148983;
    stroke-dasharray: 2,1.5;
    stroke-dashoffset: 1;
}
.path_contour {
    stroke: #85c4c1;
    fill-opacity: 0;
    stroke-width: 0.3;
}
.path_direction_line {
    stroke-width: 0.05;
    fill: none;
    stroke: #85c4c1;
}
.text{
    text-anchor: middle;
    dominant-baseline: middle;
    font-family: sans-serif;
    font-size: 1.5mm;
}
.smalltext{
    text-anchor: middle;
    dominant-baseline: middle;
    font-family: sans-serif;
    font-size: 1mm;
}
.color_0 {
    stroke:#148983;
    marker-start:url(#dot_0);
    marker-mid:url(#dot_0);
    marker-end:url(#dot_0);
}
.color_1 {
    stroke:#1873ac;
    marker-start:url(#dot_1);
    marker-mid:url(#dot_1);
    marker-end:url(#dot_1);
}
.color_2 {
    stroke:#8c5290;
    marker-start:url(#dot_2);
    marker-mid:url(#dot_2);
    marker-end:url(#dot_2);
}
.color_3 {
    stroke:#61a09c;
    marker-start:url(#dot_3);
    marker-mid:url(#dot_3);
    marker-end:url(#dot_3);
}
.color_4 {
    stroke:#5ad2f4;
    marker-start:url(#dot_4);
    marker-mid:url(#dot_4);
    marker-end:url(#dot_4);
}
.color_5 {
    stroke:#0f6460;
    marker-start:url(#dot_5);
    marker-mid:url(#dot_5);
    marker-end:url(#dot_5);
}
.color_6 {
    stroke:#0f4668;
    marker-start:url(#dot_6);
    marker-mid:url(#dot_6);
    marker-end:url(#dot_6);
}
.color_7 {
    stroke:#543156;
    marker-start:url(#dot_7);
    marker-mid:url(#dot_7);
    marker-end:url(#dot_7);
}
.color_8 {
    stroke:#487673;
    marker-start:url(#dot_8);
    marker-mid:url(#dot_8);
    marker-end:url(#dot_8);
}
.color_9 {
    stroke:#0c8baf;
    marker-start:url(#dot_9);
    marker-mid:url(#dot_9);
    marker-end:url(#dot_9);
}
]]></style>
        <marker id="dot_0" markerHeight="3.0" markerWidth="3.0" refX="1.5" refY="1.5">
            <circle cx="1.5" cy="1.5" fill="#148983" r="1.5"/>
        </marker>
        <marker id="dot_1" markerHeight="3.0" markerWidth="3.0" refX="1.5" refY="1.5">
            <circle cx="1.5" cy="1.5" fill="#1873ac" r="1.5"/>
        </marker>
        <marker id="dot_2" markerHeight="3.0" markerWidth="3.0" refX="1.5" refY="1.5">
            <circle cx="1.5" cy="1.5" fill="#8c5290" r="1.5"/>
        </marker>
        <marker id="dot_3" markerHeight="3.0" markerWidth="3.0" refX="1.5" refY="1.5">
            <circle cx="1.5" cy="1.5" fill="#61a09c" r="1.5"/>
        </marker>
        <marker id="dot_4" markerHeight="3.0" markerWidth="3.0" refX="1.5" refY="1.5">
            <circle cx="1.5" cy="1.5" fill="#5ad2f4" r="1.5"/>
        </marker>
        <marker id="dot_5" markerHeight="3.0" markerWidth="3.0" refX="1.5" refY="1.5">
            <circle cx="1.5" cy="1.5" fill="#0f6460" r="1.5"/>
        </marker>
        <marker id="dot_6" markerHeight="3.0" markerWidth="3.0" refX="1.5" refY="1.5">
            <circle cx="1.5" cy="1.5" fill="#0f4668" r="1.5"/>
        </marker>
        <marker id="dot_7" markerHeight="3.0" markerWidth="3.0" refX="1.5" refY="1.5">
            <circle cx="1.5" cy="1.5" fill="#543156" r="1.5"/>
        </marker>
        <marker id="dot_8" markerHeight="3.0" markerWidth="3.0" refX="1.5" refY="1.5">
            <circle cx="1.5" cy="1.5" fill="#487673" r="1.5"/>
        </marker>
        <marker id="dot_9" markerHeight="3.0" markerWidth="3.0" refX="1.5" refY="1.5">
            <circle cx="1.5" cy="1.5" fill="#0c8baf" r="1.5"/>
        </marker>
    </defs>
    <g>
        <path class="stitch_line color_0" d="M 6.870, 26.789  L 10.000, 25.000  L 9.553, 21.422  L 12.363, 22.846  L 12.951, 26.404  L 9.893, 28.315  L 12.922, 29.697  L 15.902, 27.667  L 15.174, 24.136  L 17.986, 25.295  L 18.852, 28.795  L 15.955, 30.941  L 18.992, 32.049  L 21.803, 29.791  L 20.801, 26.328  L 23.619, 27.240  L 24.754, 30.662  L 22.032, 33.026  L 25.074, 33.877  L 27.705, 31.412  L 26.441, 28.035  L 29.268, 28.717  L 30.656, 32.044  L 28.118, 34.606  L 31.162, 35.216  L 33.607, 32.565  L 32.100, 29.290  L 34.938, 29.758  L 36.557, 32.979  L 34.207, 35.713  L 37.251, 36.102  L 39.508, 33.291  L 37.781, 30.126  L 40.632, 30.397  L 42.459, 33.505  L 40.293, 36.387  L 43.333, 36.574  L 45.410, 33.626  L 43.488, 30.576  L 46.351, 30.666  L 48.361, 33.660  L 46.370, 36.666  L 49.404, 36.669  L 51.311, 33.610  L 49.221, 30.672  L 52.097, 30.598  L 54.262, 33.481  L 52.434, 36.589  L 55.460, 36.430  L 57.213, 33.279  L 54.979, 30.449  L 57.867, 30.229  L 60.164, 33.008  L 58.482, 36.197  L 61.499, 35.896  L 63.115, 32.672  L 60.761, 29.941  L 63.660, 29.592  L 66.066, 32.278  L 64.512, 35.531  L 67.519, 35.108  L 69.016, 31.828  L 66.565, 29.184  L 69.474, 28.723  L 71.967, 31.328  L 70.521, 34.631  L 73.519, 34.106  L 74.918, 30.783  L 72.389, 28.214  L 75.308, 27.660  L 77.869, 30.198  L 76.511, 33.538  L 79.498, 32.932  L 80.820, 29.577  L 78.232, 27.067  L 81.159, 26.439  L 83.770, 28.925  L 82.480, 32.292  L 85.456, 31.624  L 86.721, 28.247  L 84.091, 25.781  L 87.027, 25.098  L 89.672, 27.548  L 88.428, 30.932  L 91.394, 30.222  L 92.623, 26.832  L 89.967, 24.394  L 92.910, 23.674  L 95.574, 26.104  L 94.355, 29.497  L 97.311, 28.764  L 98.525, 25.369  L 95.857, 22.943  L 98.808, 22.205  L 101.475, 24.631  L 100.262, 28.027  L 103.208, 27.290  L 104.426, 23.896  L 101.762, 21.466  L 104.721, 20.730  L 107.377, 23.168  L 106.148, 26.558  L 109.084, 25.836  L 110.328, 22.452  L 107.683, 20.002  L 110.649, 19.286  L 113.279, 21.753  L 112.014, 25.129  L 114.939, 24.441  L 116.230, 21.075  L 113.618, 18.588  L 116.592, 17.912  L 119.180, 20.423  L 117.859, 23.777  L 120.773, 23.142  L 122.131, 19.802  L 119.570, 17.264  L 122.553, 16.647  L 125.082, 19.217  L 123.683, 22.539  L 126.587, 21.975  L 128.033, 18.672  L 125.540, 16.067  L 128.532, 15.528  L 130.984, 18.172  L 129.486, 21.452  L 132.380, 20.976  L 133.934, 17.722  L 131.529, 15.037  L 134.531, 14.597  L 136.885, 17.328  L 135.270, 20.551  L 138.154, 20.181  L 139.836, 16.992  L 137.539, 14.213  L 140.553, 13.891  L 142.787, 16.721  L 141.034, 19.872  L 143.910, 19.626  L 145.738, 16.519  L 143.572, 13.636  L 146.598, 13.453  L 148.689, 16.390  L 146.781, 19.450  L 149.649, 19.346  L 151.639, 16.340  L 149.630, 13.346  L 152.669, 13.323  L 154.590, 16.374  L 152.513, 19.321  L 155.375, 19.377  L 157.541, 16.495  L 155.714, 13.387  L 158.765, 13.544  L 160.492, 16.709  L 158.234, 19.520  L 161.092, 19.755  L 163.443, 17.021  L 161.823, 13.799  L 164.887, 14.159  L 166.393, 17.435  L 163.949, 20.085  L 166.806, 20.517  L 169.344, 17.956  L 167.956, 14.628  L 171.031, 15.212  L 172.295, 18.588  L 169.664, 21.054  L 172.524, 21.702  L 175.246, 19.338  L 174.111, 15.916  L 177.194, 16.745  L 178.197, 20.209  L 175.385, 22.466  L 178.250, 23.351  L 181.148, 21.205  L 180.281, 17.706  L 183.370, 18.802  L 184.098, 22.333  L 181.119, 24.363  L 183.992, 25.507  L 187.049, 23.596  L 186.461, 20.039  L 189.553, 21.422  L 190.000, 25.000  L 186.870, 26.789 "/>
    </g>
</svg>
