<?xml version="1.0" encoding="utf-8" ?>
<svg xmlns="http://www.w3.org/2000/svg" xmlns:ev="http://www.w3.org/2001/xml-events" xmlns:xlink="http://www.w3.org/1999/xlink" baseProfile="full" height="50mm" version="1.1" viewBox="0,0,200,50" width="200mm">
    <defs>
        <style type="text/css"><![CDATA[
.stitch_line {
    stroke-width: 0.3;
    stroke-linejoin: round;
    stroke-linecap: round;
    fill: none;
}
.path_center_line {
    stroke-width: 0.2;
    stroke-linejoin: round;
    stroke-linecap: round;
    fill: none;
    stroke:#333;
}
.path_contour {
    stroke: #ddd;
    fill-opacity: 1;
    fill: #eee;
    stroke-width: 0.3;
}
.text{
    text-anchor: middle;
    dominant-baseline: middle;
    font-family: sans-serif;
    font-size: 1.5mm;
}
.smalltext{
    text-anchor: middle;
    dominant-baseline: middle;
    font-family: sans-serif;
    font-size: 1mm;
}
.color_0 {
    stroke:#148983;
}
.dot_0 {
    marker-start:url(#dot_0);
    marker-mid:url(#dot_0);
    marker-end:url(#dot_0);
}
]]></style>
        <marker id="dot_0" markerHeight="3.0" markerWidth="3.0" refX="1.5" refY="1.5">
            <circle cx="1.5" cy="1.5" fill="#148983" r="1.5"/>
        </marker>
    </defs>
    <g>
        <path class="stitch_line color_0 dot_0" d="M 11.118, 22.764  L 14.113, 23.831  L 17.078, 24.762  L 20.015, 25.562  L 22.926, 26.239  L 25.813, 26.800  L 28.678, 27.250  L 31.524, 27.597  L 34.353, 27.845  L 37.168, 28.001  L 39.972, 28.070  L 42.767, 28.058  L 45.557, 27.968  L 48.343, 27.806  L 51.127, 27.576  L 53.913, 27.282  L 56.702, 26.930  L 59.495, 26.522  L 62.295, 26.063  L 65.102, 25.557  L 67.918, 25.008  L 70.743, 24.421  L 73.579, 23.799  L 76.426, 23.147  L 79.285, 22.468  L 82.156, 21.768  L 85.039, 21.050  L 87.936, 20.319  L 90.846, 19.580  L 93.770, 18.836  L 96.707, 18.094  L 99.658, 17.356  L 102.623, 16.629  L 105.601, 15.916  L 108.592, 15.223  L 111.597, 14.555  L 114.615, 13.917  L 117.645, 13.314  L 120.688, 12.750  L 123.743, 12.232  L 126.809, 11.764  L 129.885, 11.353  L 132.971, 11.002  L 136.065, 10.718  L 139.168, 10.506  L 142.276, 10.371  L 145.389, 10.320  L 148.504, 10.356  L 151.621, 10.486  L 154.737, 10.715  L 157.849, 11.047  L 160.956, 11.488  L 164.053, 12.043  L 167.140, 12.714  L 170.213, 13.508  L 173.269, 14.427  L 176.305, 15.476  L 179.320, 16.656  L 182.310, 17.973  L 185.275, 19.428  L 188.211, 21.024  L 191.118, 22.764  L 190.799, 23.403  L 187.879, 21.759  L 184.939, 20.258  L 181.978, 18.897  L 178.999, 17.671  L 176.003, 16.579  L 172.990, 15.616  L 169.965, 14.779  L 166.927, 14.063  L 163.879, 13.465  L 160.823, 12.980  L 157.761, 12.604  L 154.695, 12.332  L 151.626, 12.159  L 148.557, 12.080  L 145.488, 12.091  L 142.422, 12.186  L 139.359, 12.359  L 136.300, 12.606  L 133.246, 12.922  L 130.199, 13.301  L 127.158, 13.738  L 124.125, 14.228  L 121.100, 14.765  L 118.084, 15.345  L 115.076, 15.962  L 112.077, 16.612  L 109.088, 17.289  L 106.108, 17.988  L 103.138, 18.705  L 100.177, 19.435  L 97.227, 20.172  L 94.285, 20.913  L 91.354, 21.652  L 88.432, 22.385  L 85.520, 23.106  L 82.617, 23.813  L 79.723, 24.499  L 76.838, 25.161  L 73.961, 25.795  L 71.093, 26.395  L 68.232, 26.957  L 65.377, 27.477  L 62.529, 27.951  L 59.686, 28.375  L 56.848, 28.744  L 54.013, 29.054  L 51.180, 29.300  L 48.348, 29.478  L 45.515, 29.585  L 42.679, 29.614  L 39.839, 29.562  L 36.994, 29.424  L 34.140, 29.194  L 31.276, 28.867  L 28.400, 28.439  L 25.511, 27.903  L 22.606, 27.254  L 19.683, 26.486  L 16.742, 25.592  L 13.781, 24.566  L 10.799, 23.403  L 10.160, 24.681  L 13.117, 26.036  L 16.070, 27.252  L 19.019, 28.333  L 21.964, 29.284  L 24.905, 30.110  L 27.844, 30.817  L 30.780, 31.409  L 33.713, 31.891  L 36.645, 32.268  L 39.574, 32.545  L 42.503, 32.727  L 45.431, 32.818  L 48.358, 32.823  L 51.285, 32.748  L 54.212, 32.596  L 57.140, 32.372  L 60.068, 32.081  L 62.998, 31.728  L 65.928, 31.317  L 68.859, 30.854  L 71.792, 30.342  L 74.727, 29.786  L 77.663, 29.191  L 80.600, 28.562  L 83.540, 27.903  L 86.481, 27.219  L 89.424, 26.515  L 92.369, 25.796  L 95.316, 25.066  L 98.265, 24.329  L 101.216, 23.592  L 104.169, 22.858  L 107.123, 22.132  L 110.080, 21.419  L 113.038, 20.724  L 115.999, 20.052  L 118.961, 19.407  L 121.925, 18.794  L 124.891, 18.219  L 127.858, 17.685  L 130.827, 17.198  L 133.797, 16.762  L 136.768, 16.383  L 139.741, 16.066  L 142.714, 15.814  L 145.688, 15.633  L 148.662, 15.528  L 151.637, 15.504  L 154.611, 15.565  L 157.585, 15.717  L 160.558, 15.963  L 163.530, 16.309  L 166.500, 16.760  L 169.468, 17.320  L 172.434, 17.994  L 175.397, 18.786  L 178.357, 19.701  L 181.314, 20.744  L 184.266, 21.918  L 187.215, 23.229  L 190.160, 24.681  L 189.840, 25.319  L 186.883, 23.964  L 183.930, 22.748  L 180.981, 21.667  L 178.036, 20.716  L 175.095, 19.890  L 172.156, 19.183  L 169.220, 18.591  L 166.287, 18.109  L 163.355, 17.732  L 160.426, 17.455  L 157.497, 17.273  L 154.569, 17.182  L 151.642, 17.177  L 148.715, 17.252  L 145.788, 17.404  L 142.860, 17.628  L 139.932, 17.919  L 137.002, 18.272  L 134.072, 18.683  L 131.141, 19.146  L 128.208, 19.658  L 125.273, 20.214  L 122.337, 20.809  L 119.400, 21.438  L 116.460, 22.097  L 113.519, 22.781  L 110.576, 23.485  L 107.631, 24.204  L 104.684, 24.934  L 101.735, 25.671  L 98.784, 26.408  L 95.831, 27.142  L 92.877, 27.868  L 89.920, 28.581  L 86.962, 29.276  L 84.001, 29.948  L 81.039, 30.593  L 78.075, 31.206  L 75.109, 31.781  L 72.142, 32.315  L 69.173, 32.802  L 66.203, 33.238  L 63.232, 33.617  L 60.259, 33.934  L 57.286, 34.186  L 54.312, 34.367  L 51.338, 34.472  L 48.363, 34.496  L 45.389, 34.435  L 42.415, 34.283  L 39.442, 34.037  L 36.470, 33.691  L 33.500, 33.240  L 30.532, 32.680  L 27.566, 32.006  L 24.603, 31.214  L 21.643, 30.299  L 18.686, 29.256  L 15.734, 28.082  L 12.785, 26.771  L 9.840, 25.319  L 9.201, 26.597  L 12.121, 28.241  L 15.061, 29.742  L 18.022, 31.103  L 21.001, 32.329  L 23.997, 33.421  L 27.010, 34.384  L 30.035, 35.221  L 33.073, 35.937  L 36.121, 36.535  L 39.177, 37.020  L 42.239, 37.396  L 45.305, 37.668  L 48.374, 37.841  L 51.443, 37.920  L 54.512, 37.909  L 57.578, 37.814  L 60.641, 37.641  L 63.700, 37.394  L 66.754, 37.078  L 69.801, 36.699  L 72.842, 36.262  L 75.875, 35.772  L 78.900, 35.235  L 81.916, 34.655  L 84.924, 34.038  L 87.923, 33.388  L 90.912, 32.711  L 93.892, 32.012  L 96.862, 31.295  L 99.823, 30.565  L 102.773, 29.828  L 105.715, 29.087  L 108.646, 28.348  L 111.568, 27.615  L 114.480, 26.894  L 117.383, 26.187  L 120.277, 25.501  L 123.162, 24.839  L 126.039, 24.205  L 128.907, 23.605  L 131.768, 23.043  L 134.623, 22.523  L 137.471, 22.049  L 140.314, 21.625  L 143.152, 21.256  L 145.987, 20.946  L 148.820, 20.700  L 151.652, 20.522  L 154.485, 20.415  L 157.321, 20.386  L 160.161, 20.438  L 163.006, 20.576  L 165.860, 20.806  L 168.724, 21.133  L 171.600, 21.561  L 174.489, 22.097  L 177.394, 22.746  L 180.317, 23.514  L 183.258, 24.408  L 186.219, 25.434  L 189.201, 26.597  L 188.882, 27.236  L 185.887, 26.169  L 182.922, 25.238  L 179.985, 24.438  L 177.074, 23.761  L 174.187, 23.200  L 171.322, 22.750  L 168.476, 22.403  L 165.647, 22.155  L 162.832, 21.999  L 160.028, 21.930  L 157.233, 21.942  L 154.443, 22.032  L 151.657, 22.194  L 148.873, 22.424  L 146.087, 22.718  L 143.298, 23.070  L 140.505, 23.478  L 137.705, 23.937  L 134.898, 24.443  L 132.082, 24.992  L 129.257, 25.579  L 126.421, 26.201  L 123.574, 26.853  L 120.715, 27.532  L 117.844, 28.232  L 114.961, 28.950  L 112.064, 29.681  L 109.154, 30.420  L 106.230, 31.164  L 103.293, 31.906  L 100.342, 32.644  L 97.377, 33.371  L 94.399, 34.084  L 91.408, 34.777  L 88.403, 35.445  L 85.385, 36.083  L 82.355, 36.686  L 79.312, 37.250  L 76.257, 37.768  L 73.191, 38.236  L 70.115, 38.647  L 67.029, 38.998  L 63.935, 39.282  L 60.832, 39.494  L 57.724, 39.629  L 54.611, 39.680  L 51.496, 39.644  L 48.379, 39.514  L 45.263, 39.285  L 42.151, 38.953  L 39.044, 38.512  L 35.947, 37.957  L 32.860, 37.286  L 29.787, 36.492  L 26.731, 35.573  L 23.695, 34.524  L 20.680, 33.344  L 17.690, 32.027  L 14.725, 30.572  L 11.789, 28.976  L 8.882, 27.236 "/>
    </g>
</svg>
