<?xml version="1.0" encoding="utf-8" ?>
<svg xmlns="http://www.w3.org/2000/svg" xmlns:ev="http://www.w3.org/2001/xml-events" xmlns:xlink="http://www.w3.org/1999/xlink" baseProfile="full" height="50mm" version="1.1" viewBox="0,0,200,50" width="200mm">
    <defs>
        <style type="text/css"><![CDATA[
.stitch_line {
    stroke-width: 0.3;
    stroke-linejoin: round;
    stroke-linecap: round;
    fill: none;
}
.path_center_line {
    fill: none;
    stroke:#808080;
    stroke-width: 0.2;
    stroke-linejoin: round;
    stroke-linecap: round;
}
.path_contour {
    fill: #808080;
    fill-opacity: 0.3;
    stroke: #808080;
    stroke-opacity: 1;
    stroke-width: 0.3;
}
.text{
    text-anchor: middle;
    dominant-baseline: middle;
    font-family: sans-serif;
    font-size: 1.5mm;
}
.smalltext{
    text-anchor: middle;
    dominant-baseline: middle;
    font-family: sans-serif;
    font-size: 1mm;
}
.color_0 {
    stroke:#3bb2d0;
}
.dot_0 {
    marker-start:url(#dot_0);
    marker-mid:url(#dot_0);
    marker-end:url(#dot_0);
}
]]></style>
        <marker id="dot_0" markerHeight="3.0" markerWidth="3.0" refX="1.5" refY="1.5">
            <circle cx="1.5" cy="1.5" fill="#3bb2d0" r="1.5"/>
        </marker>
    </defs>
    <g>
        <path class="stitch_line color_0 dot_0" d="M 11.118, 22.764  L 10.000, 25.000  L 8.882, 27.236  L 11.988, 29.120  L 13.163, 26.499  L 14.337, 23.878  L 15.724, 24.315  L 14.537, 27.100  L 13.350, 29.885  L 16.596, 31.566  L 17.785, 28.402  L 18.974, 25.239  L 20.373, 25.594  L 19.194, 28.917  L 18.016, 32.240  L 21.390, 33.702  L 22.142, 31.243  L 22.894, 28.784  L 23.646, 26.325  L 25.053, 26.598  L 24.322, 29.158  L 23.591, 31.719  L 22.860, 34.280  L 26.342, 35.513  L 27.008, 32.722  L 27.675, 29.930  L 28.342, 27.138  L 29.754, 27.330  L 29.121, 30.217  L 28.487, 33.104  L 27.854, 35.992  L 31.423, 36.991  L 31.966, 33.888  L 32.509, 30.786  L 33.053, 27.684  L 34.468, 27.797  L 33.967, 30.988  L 33.467, 34.178  L 32.967, 37.368  L 36.599, 38.134  L 36.990, 34.747  L 37.381, 31.361  L 37.771, 27.974  L 39.187, 28.014  L 38.847, 31.480  L 38.507, 34.946  L 38.166, 38.413  L 41.840, 38.952  L 42.003, 36.220  L 42.166, 33.488  L 42.329, 30.756  L 42.492, 28.024  L 43.908, 27.995  L 43.786, 30.780  L 43.664, 33.566  L 43.542, 36.351  L 43.419, 39.136  L 47.113, 39.460  L 47.138, 36.558  L 47.162, 33.657  L 47.187, 30.755  L 47.212, 27.853  L 48.627, 27.761  L 48.645, 30.710  L 48.662, 33.658  L 48.680, 36.607  L 48.698, 39.556  L 52.394, 39.681  L 52.278, 36.631  L 52.162, 33.581  L 52.045, 30.530  L 51.929, 27.480  L 53.344, 27.332  L 53.502, 30.423  L 53.660, 33.514  L 53.818, 36.605  L 53.976, 39.695  L 57.661, 39.641  L 57.407, 36.462  L 57.152, 33.284  L 56.898, 30.106  L 56.644, 26.927  L 58.058, 26.730  L 58.352, 29.943  L 58.647, 33.156  L 58.941, 36.369  L 59.236, 39.581  L 62.898, 39.366  L 62.513, 36.079  L 62.128, 32.791  L 61.743, 29.504  L 61.357, 26.217  L 62.772, 25.977  L 63.194, 29.293  L 63.617, 32.609  L 64.039, 35.926  L 64.462, 39.242  L 68.095, 38.885  L 67.690, 36.183  L 67.286, 33.480  L 66.881, 30.777  L 66.477, 28.074  L 66.072, 25.371  L 67.487, 25.094  L 67.919, 27.817  L 68.350, 30.539  L 68.782, 33.261  L 69.213, 35.983  L 69.645, 38.705  L 73.244, 38.227  L 72.753, 35.464  L 72.263, 32.701  L 71.772, 29.938  L 71.282, 27.175  L 70.791, 24.412  L 72.209, 24.105  L 72.723, 26.884  L 73.237, 29.662  L 73.750, 32.441  L 74.264, 35.220  L 74.778, 37.999  L 78.341, 37.418  L 77.777, 34.606  L 77.212, 31.794  L 76.648, 28.983  L 76.083, 26.171  L 75.519, 23.359  L 76.940, 23.028  L 77.524, 25.852  L 78.108, 28.677  L 78.692, 31.501  L 79.276, 34.326  L 79.860, 37.150  L 83.386, 36.484  L 82.761, 33.634  L 82.136, 30.784  L 81.510, 27.934  L 80.885, 25.084  L 80.260, 22.234  L 81.685, 21.885  L 82.326, 24.745  L 82.967, 27.604  L 83.608, 30.464  L 84.249, 33.323  L 84.890, 36.183  L 88.380, 35.449  L 87.708, 32.570  L 87.035, 29.692  L 86.363, 26.813  L 85.690, 23.935  L 85.018, 21.057  L 86.450, 20.696  L 87.133, 23.581  L 87.817, 26.466  L 88.501, 29.352  L 89.185, 32.237  L 89.869, 35.122  L 93.325, 34.335  L 92.620, 31.437  L 91.915, 28.540  L 91.210, 25.642  L 90.504, 22.744  L 89.799, 19.847  L 91.238, 19.480  L 91.951, 22.382  L 92.663, 25.284  L 93.375, 28.186  L 94.088, 31.087  L 94.800, 33.989  L 98.226, 33.165  L 97.502, 30.257  L 96.779, 27.348  L 96.055, 24.440  L 95.332, 21.532  L 94.608, 18.624  L 96.057, 18.258  L 96.783, 21.167  L 97.509, 24.077  L 98.236, 26.986  L 98.962, 29.896  L 99.688, 32.806  L 103.086, 31.958  L 102.359, 29.048  L 101.632, 26.138  L 100.905, 23.228  L 100.177, 20.318  L 99.450, 17.408  L 100.910, 17.047  L 101.636, 19.956  L 102.361, 22.865  L 103.086, 25.774  L 103.811, 28.683  L 104.537, 31.593  L 107.910, 30.736  L 107.194, 27.833  L 106.478, 24.929  L 105.763, 22.025  L 105.047, 19.121  L 104.331, 16.218  L 105.803, 15.869  L 106.513, 18.769  L 107.222, 21.669  L 107.932, 24.569  L 108.642, 27.469  L 109.351, 30.369  L 112.704, 29.518  L 112.014, 26.629  L 111.324, 23.740  L 110.634, 20.852  L 109.944, 17.963  L 109.254, 15.074  L 110.740, 14.744  L 111.420, 17.626  L 112.099, 20.509  L 112.778, 23.391  L 113.458, 26.273  L 114.137, 29.156  L 117.472, 28.323  L 116.823, 25.458  L 116.173, 22.593  L 115.524, 19.728  L 114.874, 16.864  L 114.225, 13.999  L 115.725, 13.693  L 116.360, 16.549  L 116.995, 19.404  L 117.629, 22.260  L 118.264, 25.116  L 118.899, 27.971  L 122.221, 27.170  L 121.626, 24.339  L 121.030, 21.507  L 120.435, 18.676  L 119.840, 15.845  L 119.245, 13.014  L 120.761, 12.739  L 121.337, 15.558  L 121.914, 18.378  L 122.490, 21.197  L 123.066, 24.016  L 123.642, 26.836  L 126.954, 26.080  L 126.427, 23.293  L 125.899, 20.505  L 125.372, 17.717  L 124.845, 14.929  L 124.318, 12.142  L 125.849, 11.906  L 126.354, 14.679  L 126.858, 17.451  L 127.363, 20.224  L 127.867, 22.996  L 128.372, 25.769  L 131.677, 25.074  L 131.230, 22.341  L 130.783, 19.608  L 130.336, 16.874  L 129.889, 14.141  L 129.442, 11.408  L 130.989, 11.219  L 131.410, 13.934  L 131.830, 16.648  L 132.251, 19.362  L 132.672, 22.077  L 133.092, 24.791  L 136.393, 24.171  L 135.949, 20.838  L 135.505, 17.505  L 135.061, 14.172  L 134.616, 10.840  L 136.178, 10.705  L 136.585, 14.010  L 136.993, 17.314  L 137.400, 20.619  L 137.807, 23.923  L 141.107, 23.393  L 140.789, 20.161  L 140.471, 16.928  L 140.153, 13.696  L 139.835, 10.463  L 141.409, 10.392  L 141.687, 13.591  L 141.965, 16.790  L 142.243, 19.989  L 142.521, 23.188  L 145.821, 22.763  L 145.638, 19.649  L 145.455, 16.535  L 145.273, 13.421  L 145.090, 10.307  L 146.671, 10.308  L 146.812, 13.382  L 146.953, 16.457  L 147.094, 19.531  L 147.235, 22.606  L 150.537, 22.301  L 150.494, 19.326  L 150.452, 16.351  L 150.409, 13.375  L 150.367, 10.400  L 151.951, 10.480  L 151.951, 13.410  L 151.952, 16.340  L 151.952, 19.270  L 151.952, 22.199  L 155.256, 22.031  L 155.353, 19.215  L 155.451, 16.400  L 155.549, 13.584  L 155.646, 10.768  L 157.228, 10.936  L 157.089, 13.700  L 156.950, 16.463  L 156.811, 19.227  L 156.672, 21.991  L 159.976, 21.973  L 160.209, 19.339  L 160.441, 16.705  L 160.674, 14.070  L 160.906, 11.436  L 162.476, 11.698  L 162.115, 15.132  L 161.754, 18.566  L 161.392, 22.000  L 164.696, 22.146  L 165.170, 18.905  L 165.644, 15.664  L 166.117, 12.423  L 167.666, 12.783  L 167.148, 15.937  L 166.630, 19.092  L 166.112, 22.246  L 169.412, 22.569  L 170.024, 19.626  L 170.636, 16.683  L 171.248, 13.740  L 172.767, 14.201  L 172.119, 17.049  L 171.472, 19.897  L 170.824, 22.746  L 174.116, 23.253  L 174.832, 20.633  L 175.549, 18.013  L 176.266, 15.392  L 177.744, 15.953  L 177.004, 18.472  L 176.264, 20.992  L 175.524, 23.511  L 178.800, 24.209  L 179.969, 20.792  L 181.138, 17.375  L 182.567, 18.033  L 181.384, 21.291  L 180.200, 24.549  L 183.455, 25.439  L 184.646, 22.557  L 185.838, 19.676  L 187.210, 20.425  L 186.027, 23.143  L 184.844, 25.861  L 188.069, 26.942  L 189.206, 24.608  L 190.342, 22.274 "/>
    </g>
</svg>
