<?xml version="1.0" encoding="utf-8" ?>
<svg xmlns="http://www.w3.org/2000/svg" xmlns:ev="http://www.w3.org/2001/xml-events" xmlns:xlink="http://www.w3.org/1999/xlink" baseProfile="full" height="50mm" version="1.1" viewBox="0,0,200,50" width="200mm">
    <defs>
        <style type="text/css"><![CDATA[
.stitch_line {
    stroke-width: 0.3;
    stroke-linejoin: round;
    stroke-linecap: round;
    fill: none;
}
.sampling_line {
    stroke:#148983;
    stroke-width: 0.5;
    fill: none;
}
.path_handle {
    stroke-width: 0.5;
    stroke-linejoin: round;
    stroke-linecap: round;
    fill:none;
    stroke: #808080;
    marker-start: url(#handles);
    marker-mid: url(#handles);
    marker-end: url(#handles);
}
.path_center_line {
    stroke-width: 0.5;
    stroke-linejoin: round;
    stroke-linecap: round;
    fill: none;
    stroke:#148983;
    stroke-dasharray: 2,1.5;
    stroke-dashoffset: 1;
}
.path_contour {
    stroke: #85c4c1;
    fill-opacity: 0;
    stroke-width: 0.3;
}
.path_direction_line {
    stroke-width: 0.05;
    fill: none;
    stroke: #85c4c1;
}
.text{
    text-anchor: middle;
    dominant-baseline: middle;
    font-family: sans-serif;
    font-size: 1.5mm;
}
.smalltext{
    text-anchor: middle;
    dominant-baseline: middle;
    font-family: sans-serif;
    font-size: 1mm;
}
.color_0 {
    stroke:#148983;
    marker-start:url(#dot_0);
    marker-mid:url(#dot_0);
    marker-end:url(#dot_0);
}
.color_1 {
    stroke:#1873ac;
    marker-start:url(#dot_1);
    marker-mid:url(#dot_1);
    marker-end:url(#dot_1);
}
.color_2 {
    stroke:#8c5290;
    marker-start:url(#dot_2);
    marker-mid:url(#dot_2);
    marker-end:url(#dot_2);
}
.color_3 {
    stroke:#61a09c;
    marker-start:url(#dot_3);
    marker-mid:url(#dot_3);
    marker-end:url(#dot_3);
}
.color_4 {
    stroke:#5ad2f4;
    marker-start:url(#dot_4);
    marker-mid:url(#dot_4);
    marker-end:url(#dot_4);
}
.color_5 {
    stroke:#0f6460;
    marker-start:url(#dot_5);
    marker-mid:url(#dot_5);
    marker-end:url(#dot_5);
}
.color_6 {
    stroke:#0f4668;
    marker-start:url(#dot_6);
    marker-mid:url(#dot_6);
    marker-end:url(#dot_6);
}
.color_7 {
    stroke:#543156;
    marker-start:url(#dot_7);
    marker-mid:url(#dot_7);
    marker-end:url(#dot_7);
}
.color_8 {
    stroke:#487673;
    marker-start:url(#dot_8);
    marker-mid:url(#dot_8);
    marker-end:url(#dot_8);
}
.color_9 {
    stroke:#0c8baf;
    marker-start:url(#dot_9);
    marker-mid:url(#dot_9);
    marker-end:url(#dot_9);
}
]]></style>
        <marker id="dot_0" markerHeight="3.0" markerWidth="3.0" refX="1.5" refY="1.5">
            <circle cx="1.5" cy="1.5" fill="#148983" r="1.5"/>
        </marker>
        <marker id="dot_1" markerHeight="3.0" markerWidth="3.0" refX="1.5" refY="1.5">
            <circle cx="1.5" cy="1.5" fill="#1873ac" r="1.5"/>
        </marker>
        <marker id="dot_2" markerHeight="3.0" markerWidth="3.0" refX="1.5" refY="1.5">
            <circle cx="1.5" cy="1.5" fill="#8c5290" r="1.5"/>
        </marker>
        <marker id="dot_3" markerHeight="3.0" markerWidth="3.0" refX="1.5" refY="1.5">
            <circle cx="1.5" cy="1.5" fill="#61a09c" r="1.5"/>
        </marker>
        <marker id="dot_4" markerHeight="3.0" markerWidth="3.0" refX="1.5" refY="1.5">
            <circle cx="1.5" cy="1.5" fill="#5ad2f4" r="1.5"/>
        </marker>
        <marker id="dot_5" markerHeight="3.0" markerWidth="3.0" refX="1.5" refY="1.5">
            <circle cx="1.5" cy="1.5" fill="#0f6460" r="1.5"/>
        </marker>
        <marker id="dot_6" markerHeight="3.0" markerWidth="3.0" refX="1.5" refY="1.5">
            <circle cx="1.5" cy="1.5" fill="#0f4668" r="1.5"/>
        </marker>
        <marker id="dot_7" markerHeight="3.0" markerWidth="3.0" refX="1.5" refY="1.5">
            <circle cx="1.5" cy="1.5" fill="#543156" r="1.5"/>
        </marker>
        <marker id="dot_8" markerHeight="3.0" markerWidth="3.0" refX="1.5" refY="1.5">
            <circle cx="1.5" cy="1.5" fill="#487673" r="1.5"/>
        </marker>
        <marker id="dot_9" markerHeight="3.0" markerWidth="3.0" refX="1.5" refY="1.5">
            <circle cx="1.5" cy="1.5" fill="#0c8baf" r="1.5"/>
        </marker>
    </defs>
    <g>
        <path class="stitch_line color_0" d="M 11.807, 23.021  L 10.676, 25.334  L 9.546, 27.648  L 10.988, 28.513  L 12.141, 26.032  L 13.293, 23.552  L 16.733, 24.660  L 15.557, 27.527  L 14.382, 30.393  L 15.848, 31.141  L 17.022, 28.111  L 18.196, 25.081  L 21.583, 25.941  L 20.439, 29.346  L 19.294, 32.752  L 20.782, 33.386  L 21.903, 29.823  L 23.024, 26.260  L 26.364, 26.894  L 25.668, 29.508  L 24.971, 32.122  L 24.275, 34.736  L 25.781, 35.260  L 26.450, 32.547  L 27.118, 29.834  L 27.786, 27.121  L 31.086, 27.550  L 30.496, 30.486  L 29.905, 33.422  L 29.315, 36.359  L 30.837, 36.777  L 31.389, 33.749  L 31.941, 30.721  L 32.493, 27.692  L 35.762, 27.934  L 35.309, 31.168  L 34.855, 34.402  L 34.402, 37.637  L 35.935, 37.955  L 36.342, 34.637  L 36.750, 31.319  L 37.157, 28.001  L 40.403, 28.074  L 40.183, 30.702  L 39.963, 33.330  L 39.743, 35.959  L 39.523, 38.587  L 41.064, 38.811  L 41.245, 36.126  L 41.427, 33.441  L 41.609, 30.756  L 41.791, 28.071  L 45.022, 27.991  L 44.933, 30.801  L 44.844, 33.610  L 44.755, 36.420  L 44.666, 39.229  L 46.211, 39.365  L 46.260, 36.506  L 46.308, 33.646  L 46.357, 30.786  L 46.405, 27.926  L 49.630, 27.708  L 49.678, 30.677  L 49.725, 33.647  L 49.772, 36.616  L 49.820, 39.586  L 51.366, 39.640  L 51.278, 36.627  L 51.189, 33.613  L 51.101, 30.600  L 51.012, 27.587  L 54.238, 27.244  L 54.422, 30.353  L 54.606, 33.461  L 54.790, 36.570  L 54.974, 39.679  L 56.519, 39.659  L 56.295, 36.512  L 56.070, 33.366  L 55.846, 30.219  L 55.622, 27.073  L 58.854, 26.620  L 59.171, 29.848  L 59.487, 33.076  L 59.804, 36.304  L 60.120, 39.532  L 61.661, 39.445  L 61.306, 36.185  L 60.951, 32.924  L 60.597, 29.664  L 60.242, 26.404  L 63.486, 25.854  L 63.927, 29.183  L 64.368, 32.512  L 64.809, 35.841  L 65.250, 39.170  L 66.785, 39.023  L 66.404, 36.338  L 66.023, 33.653  L 65.642, 30.968  L 65.261, 28.283  L 64.880, 25.599  L 68.140, 24.963  L 68.584, 27.694  L 69.027, 30.425  L 69.471, 33.156  L 69.915, 35.886  L 70.358, 38.617  L 71.886, 38.418  L 71.417, 35.669  L 70.948, 32.921  L 70.479, 30.172  L 70.010, 27.424  L 69.541, 24.675  L 72.821, 23.968  L 73.345, 26.754  L 73.868, 29.540  L 74.392, 32.326  L 74.916, 35.112  L 75.440, 37.898  L 76.959, 37.653  L 76.413, 34.853  L 75.867, 32.053  L 75.322, 29.253  L 74.776, 26.452  L 74.231, 23.652  L 77.531, 22.887  L 78.123, 25.717  L 78.715, 28.547  L 79.307, 31.377  L 79.899, 34.207  L 80.492, 37.037  L 82.001, 36.754  L 81.391, 33.913  L 80.781, 31.072  L 80.171, 28.231  L 79.561, 25.390  L 78.951, 22.549  L 82.275, 21.739  L 82.922, 24.602  L 83.569, 27.466  L 84.216, 30.330  L 84.863, 33.193  L 85.510, 36.057  L 87.009, 35.744  L 86.348, 32.872  L 85.687, 30.000  L 85.026, 27.128  L 84.365, 24.256  L 83.704, 21.384  L 87.053, 20.543  L 87.741, 23.431  L 88.429, 26.319  L 89.118, 29.207  L 89.806, 32.095  L 90.494, 34.983  L 91.982, 34.646  L 91.285, 31.752  L 90.587, 28.859  L 89.889, 25.965  L 89.191, 23.072  L 88.493, 20.178  L 91.867, 19.320  L 92.582, 22.223  L 93.297, 25.127  L 94.012, 28.030  L 94.727, 30.933  L 95.442, 33.837  L 96.919, 33.482  L 96.199, 30.576  L 95.479, 27.670  L 94.759, 24.764  L 94.039, 21.857  L 93.319, 18.951  L 96.718, 18.091  L 97.445, 21.001  L 98.172, 23.911  L 98.899, 26.821  L 99.626, 29.731  L 100.353, 32.641  L 101.819, 32.276  L 101.091, 29.366  L 100.364, 26.455  L 99.636, 23.545  L 98.909, 20.634  L 98.181, 17.724  L 101.607, 16.876  L 102.331, 19.784  L 103.055, 22.693  L 103.779, 25.601  L 104.503, 28.510  L 105.227, 31.418  L 106.681, 31.049  L 105.961, 28.143  L 105.241, 25.236  L 104.521, 22.330  L 103.801, 19.424  L 103.081, 16.518  L 106.533, 15.698  L 107.239, 18.596  L 107.945, 21.494  L 108.651, 24.392  L 109.357, 27.291  L 110.063, 30.189  L 111.507, 29.822  L 110.809, 26.928  L 110.111, 24.035  L 109.413, 21.141  L 108.715, 18.248  L 108.018, 15.354  L 111.495, 14.577  L 112.169, 17.457  L 112.842, 20.336  L 113.516, 23.216  L 114.189, 26.095  L 114.863, 28.974  L 116.296, 28.616  L 115.635, 25.744  L 114.974, 22.872  L 114.313, 20.000  L 113.652, 17.128  L 112.991, 14.256  L 116.493, 13.538  L 117.120, 16.390  L 117.747, 19.241  L 118.373, 22.093  L 119.000, 24.944  L 119.627, 27.795  L 121.049, 27.451  L 120.439, 24.610  L 119.829, 21.769  L 119.219, 18.928  L 118.609, 16.087  L 117.999, 13.246  L 121.525, 12.603  L 122.092, 15.417  L 122.658, 18.231  L 123.224, 21.044  L 123.790, 23.858  L 124.357, 26.671  L 125.769, 26.348  L 125.224, 23.548  L 124.678, 20.747  L 124.133, 17.947  L 123.587, 15.147  L 123.041, 12.347  L 126.589, 11.796  L 127.082, 14.561  L 127.576, 17.327  L 128.069, 20.092  L 128.562, 22.857  L 129.055, 25.622  L 130.459, 25.325  L 129.990, 22.576  L 129.521, 19.828  L 129.052, 17.079  L 128.583, 14.331  L 128.114, 11.582  L 131.682, 11.141  L 132.091, 13.846  L 132.499, 16.551  L 132.907, 19.256  L 133.316, 21.962  L 133.724, 24.667  L 135.120, 24.401  L 134.739, 21.717  L 134.358, 19.032  L 133.977, 16.347  L 133.596, 13.662  L 133.215, 10.977  L 136.800, 10.661  L 137.192, 13.952  L 137.584, 17.243  L 137.977, 20.533  L 138.369, 23.824  L 139.758, 23.596  L 139.403, 20.336  L 139.049, 17.076  L 138.694, 13.815  L 138.339, 10.555  L 141.937, 10.382  L 142.201, 13.565  L 142.465, 16.747  L 142.730, 19.930  L 142.994, 23.112  L 144.378, 22.927  L 144.154, 19.781  L 143.930, 16.634  L 143.705, 13.488  L 143.481, 10.341  L 147.087, 10.328  L 147.217, 13.384  L 147.346, 16.439  L 147.476, 19.495  L 147.606, 22.550  L 148.988, 22.413  L 148.899, 19.400  L 148.811, 16.387  L 148.722, 13.373  L 148.634, 10.360  L 152.242, 10.524  L 152.235, 13.432  L 152.227, 16.340  L 152.220, 19.248  L 152.213, 22.156  L 153.595, 22.074  L 153.643, 19.214  L 153.692, 16.354  L 153.740, 13.494  L 153.789, 10.635  L 157.393, 10.992  L 157.251, 13.732  L 157.109, 16.471  L 156.966, 19.211  L 156.824, 21.951  L 158.209, 21.929  L 158.391, 19.244  L 158.573, 16.559  L 158.755, 13.874  L 158.936, 11.189  L 162.529, 11.755  L 162.169, 15.155  L 161.810, 18.555  L 161.450, 21.954  L 162.843, 21.999  L 163.250, 18.681  L 163.658, 15.363  L 164.065, 12.045  L 167.638, 12.834  L 167.126, 15.952  L 166.615, 19.071  L 166.103, 22.189  L 167.507, 22.308  L 168.059, 19.279  L 168.611, 16.251  L 169.163, 13.223  L 172.707, 14.248  L 172.070, 17.058  L 171.433, 19.868  L 170.796, 22.678  L 172.214, 22.879  L 172.882, 20.166  L 173.550, 17.453  L 174.219, 14.740  L 177.725, 16.014  L 176.997, 18.492  L 176.269, 20.971  L 175.541, 23.450  L 176.976, 23.740  L 178.097, 20.177  L 179.218, 16.614  L 182.680, 18.146  L 181.514, 21.338  L 180.348, 24.530  L 181.804, 24.919  L 182.978, 21.889  L 184.152, 18.859  L 187.562, 20.658  L 186.395, 23.304  L 185.228, 25.951  L 186.707, 26.448  L 187.859, 23.968  L 189.012, 21.487 "/>
    </g>
</svg>
