<?xml version="1.0" encoding="utf-8" ?>
<svg xmlns="http://www.w3.org/2000/svg" xmlns:ev="http://www.w3.org/2001/xml-events" xmlns:xlink="http://www.w3.org/1999/xlink" baseProfile="full" height="50mm" version="1.1" viewBox="0,0,200,50" width="200mm">
    <defs>
        <style type="text/css"><![CDATA[
.stitch_line {
    stroke-width: 0.3;
    stroke-linejoin: round;
    stroke-linecap: round;
    fill: none;
}
.path_center_line {
    stroke-width: 0.2;
    stroke-linejoin: round;
    stroke-linecap: round;
    fill: none;
    stroke:#333;
}
.path_contour {
    stroke: #ddd;
    fill-opacity: 1;
    fill: #eee;
    stroke-width: 0.3;
}
.text{
    text-anchor: middle;
    dominant-baseline: middle;
    font-family: sans-serif;
    font-size: 1.5mm;
}
.smalltext{
    text-anchor: middle;
    dominant-baseline: middle;
    font-family: sans-serif;
    font-size: 1mm;
}
.color_0 {
    stroke:#148983;
}
.dot_0 {
    marker-start:url(#dot_0);
    marker-mid:url(#dot_0);
    marker-end:url(#dot_0);
}
]]></style>
        <marker id="dot_0" markerHeight="3.0" markerWidth="3.0" refX="1.5" refY="1.5">
            <circle cx="1.5" cy="1.5" fill="#148983" r="1.5"/>
        </marker>
    </defs>
    <g>
        <path class="stitch_line color_0 dot_0" d="M 10.000, 25.000  L 12.951, 26.404  L 15.902, 27.667  L 18.852, 28.795  L 21.803, 29.791  L 24.754, 30.662  L 27.705, 31.412  L 30.656, 32.044  L 33.607, 32.565  L 36.557, 32.979  L 39.508, 33.291  L 42.459, 33.505  L 45.410, 33.626  L 48.361, 33.660  L 51.311, 33.610  L 54.262, 33.481  L 57.213, 33.279  L 60.164, 33.008  L 63.115, 32.672  L 66.066, 32.278  L 69.016, 31.828  L 71.967, 31.328  L 74.918, 30.783  L 77.869, 30.198  L 80.820, 29.577  L 83.770, 28.925  L 86.721, 28.247  L 89.672, 27.548  L 92.623, 26.832  L 95.574, 26.104  L 98.525, 25.369  L 101.475, 24.631  L 104.426, 23.896  L 107.377, 23.168  L 110.328, 22.452  L 113.279, 21.753  L 116.230, 21.075  L 119.180, 20.423  L 122.131, 19.802  L 125.082, 19.217  L 128.033, 18.672  L 130.984, 18.172  L 133.934, 17.722  L 136.885, 17.328  L 139.836, 16.992  L 142.787, 16.721  L 145.738, 16.519  L 148.689, 16.390  L 151.639, 16.340  L 154.590, 16.374  L 157.541, 16.495  L 160.492, 16.709  L 163.443, 17.021  L 166.393, 17.435  L 169.344, 17.956  L 172.295, 18.588  L 175.246, 19.338  L 178.197, 20.209  L 181.148, 21.205  L 184.098, 22.333  L 187.049, 23.596  L 190.000, 25.000 "/>
    </g>
</svg>
