<?xml version="1.0" encoding="utf-8" ?>
<svg xmlns="http://www.w3.org/2000/svg" xmlns:ev="http://www.w3.org/2001/xml-events" xmlns:xlink="http://www.w3.org/1999/xlink" baseProfile="full" height="50mm" version="1.1" viewBox="0,0,200,50" width="200mm">
    <defs>
        <style type="text/css"><![CDATA[
.stitch_line {
    stroke-width: 0.3;
    stroke-linejoin: round;
    stroke-linecap: round;
    fill: none;
}
.path_center_line {
    fill: none;
    stroke:#808080;
    stroke-width: 0.2;
    stroke-linejoin: round;
    stroke-linecap: round;
}
.path_contour {
    fill: #808080;
    fill-opacity: 0.3;
    stroke: #808080;
    stroke-opacity: 1;
    stroke-width: 0.3;
}
.text{
    text-anchor: middle;
    dominant-baseline: middle;
    font-family: sans-serif;
    font-size: 1.5mm;
}
.smalltext{
    text-anchor: middle;
    dominant-baseline: middle;
    font-family: sans-serif;
    font-size: 1mm;
}
.color_0 {
    stroke:#3bb2d0;
}
.dot_0 {
    marker-start:url(#dot_0);
    marker-mid:url(#dot_0);
    marker-end:url(#dot_0);
}
]]></style>
        <marker id="dot_0" markerHeight="3.0" markerWidth="3.0" refX="1.5" refY="1.5">
            <circle cx="1.5" cy="1.5" fill="#3bb2d0" r="1.5"/>
        </marker>
    </defs>
    <g>
        <path class="stitch_line color_0 dot_0" d="M 11.118, 22.764  L 10.000, 25.000  L 9.765, 27.784  L 11.803, 25.875  L 13.883, 23.723  L 13.627, 26.705  L 13.363, 29.884  L 15.471, 27.491  L 17.594, 24.857  L 17.334, 28.231  L 17.089, 31.796  L 19.214, 28.924  L 21.329, 25.816  L 21.111, 29.569  L 20.932, 33.507  L 22.652, 31.414  L 23.397, 28.919  L 25.083, 26.598  L 25.309, 29.401  L 24.595, 32.031  L 24.879, 35.010  L 26.554, 32.598  L 27.231, 29.836  L 28.850, 27.204  L 29.161, 30.225  L 28.529, 33.115  L 28.915, 36.300  L 30.516, 33.581  L 31.099, 30.567  L 32.627, 27.640  L 33.044, 30.863  L 32.516, 33.998  L 33.023, 37.374  L 34.526, 34.365  L 34.994, 31.114  L 36.409, 27.911  L 36.950, 31.321  L 36.545, 34.684  L 37.186, 38.235  L 38.570, 34.954  L 38.909, 31.485  L 40.193, 28.024  L 40.938, 30.713  L 40.736, 33.392  L 40.535, 36.071  L 41.387, 38.888  L 42.589, 36.273  L 42.736, 33.520  L 42.884, 30.768  L 43.977, 27.989  L 44.831, 30.785  L 44.739, 33.607  L 44.646, 36.429  L 45.611, 39.340  L 46.706, 36.541  L 46.742, 33.652  L 46.779, 30.764  L 47.761, 27.815  L 48.726, 30.707  L 48.746, 33.658  L 48.766, 36.609  L 49.845, 39.604  L 50.827, 36.636  L 50.750, 33.625  L 50.674, 30.615  L 51.542, 27.514  L 52.620, 30.490  L 52.753, 33.557  L 52.886, 36.623  L 54.075, 39.690  L 54.943, 36.572  L 54.755, 33.453  L 54.566, 30.333  L 55.322, 27.096  L 56.511, 30.146  L 56.754, 33.315  L 56.998, 36.484  L 58.294, 39.615  L 59.049, 36.361  L 58.751, 33.146  L 58.454, 29.931  L 59.101, 26.572  L 60.396, 29.688  L 60.746, 32.947  L 61.095, 36.205  L 62.492, 39.391  L 63.137, 36.018  L 62.737, 32.719  L 62.336, 29.420  L 62.880, 25.955  L 64.275, 29.127  L 64.725, 32.464  L 65.174, 35.801  L 66.664, 39.033  L 67.306, 36.230  L 66.908, 33.533  L 66.510, 30.835  L 66.113, 28.137  L 66.661, 25.255  L 68.040, 27.795  L 68.473, 30.518  L 68.907, 33.242  L 69.341, 35.966  L 70.806, 38.556  L 71.370, 35.676  L 70.902, 32.928  L 70.434, 30.180  L 69.966, 27.432  L 70.444, 24.484  L 71.891, 27.053  L 72.392, 29.823  L 72.892, 32.592  L 73.393, 35.362  L 74.917, 37.975  L 75.409, 35.027  L 74.878, 32.237  L 74.347, 29.447  L 73.816, 26.657  L 74.233, 23.652  L 75.740, 26.246  L 76.300, 29.054  L 76.859, 31.863  L 77.419, 34.672  L 78.993, 37.302  L 79.423, 34.297  L 78.837, 31.472  L 78.251, 28.646  L 77.665, 25.821  L 78.029, 22.769  L 79.589, 25.384  L 80.199, 28.225  L 80.810, 31.066  L 81.420, 33.906  L 83.037, 36.550  L 83.411, 33.499  L 82.779, 30.645  L 82.147, 27.791  L 81.514, 24.936  L 81.835, 21.848  L 83.440, 24.479  L 84.092, 27.346  L 84.744, 30.212  L 85.396, 33.078  L 87.047, 35.733  L 87.376, 32.644  L 86.706, 29.767  L 86.036, 26.891  L 85.367, 24.014  L 85.653, 20.896  L 87.295, 23.542  L 87.980, 26.427  L 88.665, 29.313  L 89.350, 32.199  L 91.026, 34.861  L 91.318, 31.744  L 90.621, 28.850  L 89.923, 25.957  L 89.225, 23.064  L 89.487, 19.926  L 91.156, 22.581  L 91.865, 25.481  L 92.573, 28.380  L 93.282, 31.280  L 94.974, 33.946  L 95.241, 30.809  L 94.524, 27.905  L 93.807, 25.000  L 93.090, 22.096  L 93.338, 18.946  L 95.027, 21.609  L 95.749, 24.517  L 96.472, 27.424  L 97.195, 30.332  L 98.895, 33.000  L 99.145, 29.851  L 98.419, 26.941  L 97.692, 24.031  L 96.966, 21.121  L 97.210, 17.968  L 98.909, 20.634  L 99.636, 23.545  L 100.364, 26.455  L 101.091, 29.366  L 102.790, 32.032  L 103.034, 28.879  L 102.308, 25.969  L 101.581, 23.059  L 100.855, 20.149  L 101.105, 17.000  L 102.805, 19.668  L 103.528, 22.576  L 104.251, 25.483  L 104.973, 28.391  L 106.662, 31.054  L 106.910, 27.904  L 106.193, 25.000  L 105.476, 22.095  L 104.759, 19.191  L 105.026, 16.054  L 106.718, 18.720  L 107.427, 21.620  L 108.135, 24.519  L 108.844, 27.419  L 110.513, 30.074  L 110.775, 26.936  L 110.077, 24.043  L 109.379, 21.150  L 108.682, 18.256  L 108.974, 15.139  L 110.650, 17.801  L 111.335, 20.687  L 112.020, 23.573  L 112.705, 26.458  L 114.347, 29.104  L 114.633, 25.986  L 113.964, 23.109  L 113.294, 20.233  L 112.624, 17.356  L 112.953, 14.267  L 114.604, 16.922  L 115.256, 19.788  L 115.908, 22.654  L 116.560, 25.521  L 118.165, 28.152  L 118.486, 25.064  L 117.853, 22.209  L 117.221, 19.355  L 116.589, 16.501  L 116.963, 13.450  L 118.580, 16.094  L 119.190, 18.934  L 119.801, 21.775  L 120.411, 24.616  L 121.971, 27.231  L 122.335, 24.179  L 121.749, 21.354  L 121.163, 18.528  L 120.577, 15.703  L 121.007, 12.698  L 122.581, 15.328  L 123.141, 18.137  L 123.700, 20.946  L 124.260, 23.754  L 125.767, 26.348  L 126.184, 23.343  L 125.653, 20.553  L 125.122, 17.763  L 124.591, 14.973  L 125.083, 12.025  L 126.607, 14.638  L 127.108, 17.408  L 127.608, 20.177  L 128.109, 22.947  L 129.556, 25.516  L 130.034, 22.568  L 129.566, 19.820  L 129.098, 17.072  L 128.630, 14.324  L 129.194, 11.444  L 130.659, 14.034  L 131.093, 16.758  L 131.527, 19.482  L 131.960, 22.205  L 133.339, 24.745  L 133.887, 21.863  L 133.490, 19.165  L 133.092, 16.467  L 132.694, 13.770  L 133.336, 10.967  L 134.826, 14.199  L 135.275, 17.536  L 135.725, 20.873  L 137.120, 24.045  L 137.664, 20.580  L 137.263, 17.281  L 136.863, 13.982  L 137.508, 10.609  L 138.905, 13.795  L 139.254, 17.053  L 139.604, 20.312  L 140.899, 23.428  L 141.546, 20.069  L 141.249, 16.854  L 140.951, 13.639  L 141.706, 10.385  L 143.002, 13.516  L 143.246, 16.685  L 143.489, 19.854  L 144.678, 22.904  L 145.434, 19.667  L 145.245, 16.547  L 145.057, 13.428  L 145.925, 10.310  L 147.114, 13.377  L 147.247, 16.443  L 147.380, 19.510  L 148.458, 22.486  L 149.326, 19.385  L 149.250, 16.375  L 149.173, 13.364  L 150.155, 10.396  L 151.234, 13.391  L 151.254, 16.342  L 151.274, 19.293  L 152.239, 22.185  L 153.221, 19.236  L 153.258, 16.348  L 153.294, 13.459  L 154.389, 10.660  L 155.354, 13.571  L 155.261, 16.393  L 155.169, 19.215  L 156.023, 22.011  L 157.116, 19.232  L 157.264, 16.480  L 157.411, 13.727  L 158.613, 11.112  L 159.465, 13.929  L 159.264, 16.608  L 159.062, 19.287  L 159.807, 21.976  L 161.091, 18.515  L 161.430, 15.046  L 162.814, 11.765  L 163.455, 15.316  L 163.050, 18.679  L 163.591, 22.089  L 165.006, 18.886  L 165.474, 15.635  L 166.977, 12.626  L 167.484, 16.002  L 166.956, 19.137  L 167.373, 22.360  L 168.901, 19.433  L 169.484, 16.419  L 171.085, 13.700  L 171.471, 16.885  L 170.839, 19.775  L 171.150, 22.796  L 172.769, 20.164  L 173.446, 17.402  L 175.121, 14.990  L 175.405, 17.969  L 174.691, 20.599  L 174.917, 23.402  L 176.603, 21.081  L 177.348, 18.586  L 179.068, 16.493  L 178.889, 20.431  L 178.671, 24.184  L 180.786, 21.076  L 182.911, 18.204  L 182.666, 21.769  L 182.406, 25.143  L 184.529, 22.509  L 186.637, 20.116  L 186.373, 23.295  L 186.117, 26.277  L 188.197, 24.125  L 190.235, 22.216  L 190.000, 25.000  L 188.882, 27.236 "/>
    </g>
</svg>
