<?xml version="1.0" encoding="utf-8" ?>
<svg xmlns="http://www.w3.org/2000/svg" xmlns:ev="http://www.w3.org/2001/xml-events" xmlns:xlink="http://www.w3.org/1999/xlink" baseProfile="full" height="50mm" version="1.1" viewBox="0,0,200,50" width="200mm">
    <defs>
        <style type="text/css"><![CDATA[
.stitch_line {
    stroke-width: 0.3;
    stroke-linejoin: round;
    stroke-linecap: round;
    fill: none;
}
.path_center_line {
    stroke-width: 0.2;
    stroke-linejoin: round;
    stroke-linecap: round;
    fill: none;
    stroke:#333;
}
.path_contour {
    stroke: #ddd;
    fill-opacity: 1;
    fill: #eee;
    stroke-width: 0.3;
}
.text{
    text-anchor: middle;
    dominant-baseline: middle;
    font-family: sans-serif;
    font-size: 1.5mm;
}
.smalltext{
    text-anchor: middle;
    dominant-baseline: middle;
    font-family: sans-serif;
    font-size: 1mm;
}
.color_0 {
    stroke:#148983;
}
.dot_0 {
    marker-start:url(#dot_0);
    marker-mid:url(#dot_0);
    marker-end:url(#dot_0);
}
]]></style>
        <marker id="dot_0" markerHeight="3.0" markerWidth="3.0" refX="1.5" refY="1.5">
            <circle cx="1.5" cy="1.5" fill="#148983" r="1.5"/>
        </marker>
    </defs>
    <g>
        <path class="stitch_line color_0 dot_0" d="M 10.000, 25.000  L 13.147, 26.492  L 16.294, 27.824  L 19.440, 29.003  L 22.587, 30.035  L 25.734, 30.924  L 28.881, 31.677  L 29.752, 29.132  L 31.530, 27.114  L 33.946, 25.930  L 36.631, 25.760  L 39.176, 26.631  L 41.194, 28.410  L 42.378, 30.825  L 42.548, 33.510  L 45.560, 33.630  L 48.571, 33.659  L 51.583, 33.601  L 54.595, 33.462  L 54.825, 30.789  L 56.061, 28.408  L 58.114, 26.681  L 60.671, 25.871  L 63.344, 26.102  L 65.725, 27.338  L 67.452, 29.390  L 68.262, 31.948  L 71.274, 31.450  L 74.286, 30.904  L 77.298, 30.314  L 80.309, 29.687  L 80.220, 26.951  L 81.184, 24.388  L 83.055, 22.390  L 85.549, 21.260  L 88.285, 21.170  L 90.848, 22.134  L 92.846, 24.005  L 93.976, 26.499  L 96.988, 25.752  L 100.000, 25.000  L 103.012, 24.248  L 106.024, 23.501  L 105.934, 20.764  L 106.898, 18.202  L 108.769, 16.204  L 111.263, 15.073  L 114.000, 14.984  L 116.562, 15.948  L 118.561, 17.819  L 119.691, 20.313  L 122.702, 19.686  L 125.714, 19.096  L 128.726, 18.550  L 131.738, 18.052  L 131.968, 15.380  L 133.204, 12.998  L 135.257, 11.271  L 137.814, 10.462  L 140.487, 10.692  L 142.868, 11.928  L 144.595, 13.980  L 145.405, 16.538  L 148.417, 16.399  L 151.429, 16.341  L 154.440, 16.370  L 157.452, 16.490  L 158.323, 13.945  L 160.102, 11.926  L 162.517, 10.742  L 165.202, 10.573  L 167.747, 11.444  L 169.766, 13.222  L 170.950, 15.638  L 171.119, 18.323  L 174.266, 19.076  L 177.413, 19.965  L 180.560, 20.997  L 183.706, 22.176  L 186.853, 23.508  L 190.000, 25.000 "/>
    </g>
</svg>
