<?xml version="1.0" encoding="utf-8" ?>
<svg xmlns="http://www.w3.org/2000/svg" xmlns:ev="http://www.w3.org/2001/xml-events" xmlns:xlink="http://www.w3.org/1999/xlink" baseProfile="full" height="50mm" version="1.1" viewBox="0,0,200,50" width="200mm">
    <defs>
        <style type="text/css"><![CDATA[
.stitch_line {
    stroke-width: 0.3;
    stroke-linejoin: round;
    stroke-linecap: round;
    fill: none;
}
.sampling_line {
    stroke:#148983;
    stroke-width: 0.5;
    fill: none;
}
.path_handle {
    stroke-width: 0.5;
    stroke-linejoin: round;
    stroke-linecap: round;
    fill:none;
    stroke: #808080;
    marker-start: url(#handles);
    marker-mid: url(#handles);
    marker-end: url(#handles);
}
.path_center_line {
    stroke-width: 0.5;
    stroke-linejoin: round;
    stroke-linecap: round;
    fill: none;
    stroke:#148983;
    stroke-dasharray: 2,1.5;
    stroke-dashoffset: 1;
}
.path_contour {
    stroke: #85c4c1;
    fill-opacity: 0;
    stroke-width: 0.3;
}
.path_direction_line {
    stroke-width: 0.05;
    fill: none;
    stroke: #85c4c1;
}
.text{
    text-anchor: middle;
    dominant-baseline: middle;
    font-family: sans-serif;
    font-size: 1.5mm;
}
.smalltext{
    text-anchor: middle;
    dominant-baseline: middle;
    font-family: sans-serif;
    font-size: 1mm;
}
.color_0 {
    stroke:#148983;
    marker-start:url(#dot_0);
    marker-mid:url(#dot_0);
    marker-end:url(#dot_0);
}
.color_1 {
    stroke:#1873ac;
    marker-start:url(#dot_1);
    marker-mid:url(#dot_1);
    marker-end:url(#dot_1);
}
.color_2 {
    stroke:#8c5290;
    marker-start:url(#dot_2);
    marker-mid:url(#dot_2);
    marker-end:url(#dot_2);
}
.color_3 {
    stroke:#61a09c;
    marker-start:url(#dot_3);
    marker-mid:url(#dot_3);
    marker-end:url(#dot_3);
}
.color_4 {
    stroke:#5ad2f4;
    marker-start:url(#dot_4);
    marker-mid:url(#dot_4);
    marker-end:url(#dot_4);
}
.color_5 {
    stroke:#0f6460;
    marker-start:url(#dot_5);
    marker-mid:url(#dot_5);
    marker-end:url(#dot_5);
}
.color_6 {
    stroke:#0f4668;
    marker-start:url(#dot_6);
    marker-mid:url(#dot_6);
    marker-end:url(#dot_6);
}
.color_7 {
    stroke:#543156;
    marker-start:url(#dot_7);
    marker-mid:url(#dot_7);
    marker-end:url(#dot_7);
}
.color_8 {
    stroke:#487673;
    marker-start:url(#dot_8);
    marker-mid:url(#dot_8);
    marker-end:url(#dot_8);
}
.color_9 {
    stroke:#0c8baf;
    marker-start:url(#dot_9);
    marker-mid:url(#dot_9);
    marker-end:url(#dot_9);
}
]]></style>
        <marker id="dot_0" markerHeight="3.0" markerWidth="3.0" refX="1.5" refY="1.5">
            <circle cx="1.5" cy="1.5" fill="#148983" r="1.5"/>
        </marker>
        <marker id="dot_1" markerHeight="3.0" markerWidth="3.0" refX="1.5" refY="1.5">
            <circle cx="1.5" cy="1.5" fill="#1873ac" r="1.5"/>
        </marker>
        <marker id="dot_2" markerHeight="3.0" markerWidth="3.0" refX="1.5" refY="1.5">
            <circle cx="1.5" cy="1.5" fill="#8c5290" r="1.5"/>
        </marker>
        <marker id="dot_3" markerHeight="3.0" markerWidth="3.0" refX="1.5" refY="1.5">
            <circle cx="1.5" cy="1.5" fill="#61a09c" r="1.5"/>
        </marker>
        <marker id="dot_4" markerHeight="3.0" markerWidth="3.0" refX="1.5" refY="1.5">
            <circle cx="1.5" cy="1.5" fill="#5ad2f4" r="1.5"/>
        </marker>
        <marker id="dot_5" markerHeight="3.0" markerWidth="3.0" refX="1.5" refY="1.5">
            <circle cx="1.5" cy="1.5" fill="#0f6460" r="1.5"/>
        </marker>
        <marker id="dot_6" markerHeight="3.0" markerWidth="3.0" refX="1.5" refY="1.5">
            <circle cx="1.5" cy="1.5" fill="#0f4668" r="1.5"/>
        </marker>
        <marker id="dot_7" markerHeight="3.0" markerWidth="3.0" refX="1.5" refY="1.5">
            <circle cx="1.5" cy="1.5" fill="#543156" r="1.5"/>
        </marker>
        <marker id="dot_8" markerHeight="3.0" markerWidth="3.0" refX="1.5" refY="1.5">
            <circle cx="1.5" cy="1.5" fill="#487673" r="1.5"/>
        </marker>
        <marker id="dot_9" markerHeight="3.0" markerWidth="3.0" refX="1.5" refY="1.5">
            <circle cx="1.5" cy="1.5" fill="#0c8baf" r="1.5"/>
        </marker>
    </defs>
    <g>
        <path class="stitch_line color_0" d="M 11.118, 22.764  L 10.962, 25.585  L 10.806, 28.406  L 10.806, 28.406  L 12.519, 26.701  L 15.083, 24.149  L 15.083, 24.149  L 14.815, 28.550  L 14.693, 30.556  L 14.693, 30.556  L 17.605, 26.998  L 18.997, 25.298  L 18.997, 25.298  L 18.844, 28.278  L 18.630, 32.457  L 18.630, 32.457  L 20.746, 29.341  L 22.863, 26.226  L 22.863, 26.226  L 22.718, 30.771  L 22.611, 34.116  L 22.611, 34.116  L 24.056, 31.575  L 25.539, 28.968  L 26.688, 26.948  L 26.688, 26.948  L 26.668, 30.045  L 26.648, 33.044  L 26.632, 35.541  L 26.632, 35.541  L 27.521, 33.677  L 28.811, 30.969  L 30.475, 27.480  L 30.475, 27.480  L 30.581, 32.109  L 30.687, 36.738  L 30.687, 36.738  L 32.237, 32.845  L 33.346, 30.057  L 34.230, 27.836  L 34.230, 27.836  L 34.402, 30.979  L 34.566, 33.974  L 34.771, 37.716  L 34.771, 37.716  L 35.803, 34.582  L 36.742, 31.733  L 37.961, 28.029  L 37.961, 28.029  L 38.366, 32.659  L 38.628, 35.648  L 38.876, 38.484  L 38.876, 38.484  L 39.496, 36.175  L 40.275, 33.278  L 41.054, 30.381  L 41.674, 28.072  L 41.674, 28.072  L 42.048, 31.180  L 42.407, 34.158  L 42.996, 39.053  L 42.996, 39.053  L 43.934, 34.688  L 44.563, 31.755  L 45.375, 27.976  L 45.375, 27.976  L 46.069, 32.519  L 46.522, 35.484  L 47.125, 39.434  L 47.125, 39.434  L 47.703, 35.960  L 48.196, 33.001  L 48.688, 30.042  L 49.069, 27.752  L 49.069, 27.752  L 49.620, 30.744  L 50.164, 33.695  L 50.707, 36.645  L 51.258, 39.637  L 51.258, 39.637  L 51.571, 37.097  L 51.937, 34.120  L 52.303, 31.142  L 52.762, 27.411  L 52.762, 27.411  L 53.699, 31.783  L 54.327, 34.717  L 54.956, 37.650  L 55.390, 39.675  L 55.390, 39.675  L 55.774, 35.113  L 56.025, 32.123  L 56.277, 29.134  L 56.459, 26.963  L 56.459, 26.963  L 57.139, 29.763  L 57.846, 32.679  L 58.553, 35.594  L 59.515, 39.561  L 59.515, 39.561  L 59.692, 35.985  L 59.840, 32.989  L 59.988, 29.992  L 60.164, 26.417  L 60.164, 26.417  L 61.274, 30.544  L 62.054, 33.441  L 62.833, 36.338  L 63.631, 39.306  L 63.631, 39.306  L 63.679, 36.744  L 63.734, 33.744  L 63.789, 30.745  L 63.881, 25.783  L 63.881, 25.783  L 64.626, 28.323  L 65.470, 31.202  L 66.314, 34.080  L 67.158, 36.959  L 67.734, 38.924  L 67.734, 38.924  L 67.694, 34.397  L 67.667, 31.397  L 67.641, 28.397  L 67.611, 25.070  L 67.611, 25.070  L 68.814, 28.887  L 69.716, 31.748  L 70.618, 34.609  L 71.822, 38.426  L 71.822, 38.426  L 71.708, 34.956  L 71.610, 31.957  L 71.512, 28.959  L 71.359, 24.289  L 71.359, 24.289  L 72.101, 26.506  L 73.053, 29.351  L 74.006, 32.196  L 74.958, 35.040  L 75.891, 37.827  L 75.891, 37.827  L 75.764, 35.430  L 75.604, 32.435  L 75.444, 29.439  L 75.284, 26.443  L 75.125, 23.448  L 75.125, 23.448  L 76.338, 26.897  L 77.334, 29.726  L 78.330, 32.556  L 79.941, 37.137  L 79.941, 37.137  L 79.638, 32.840  L 79.426, 29.847  L 79.215, 26.855  L 78.911, 22.558  L 78.911, 22.558  L 80.615, 27.210  L 81.647, 30.027  L 82.679, 32.844  L 83.970, 36.370  L 83.970, 36.370  L 83.700, 33.184  L 83.446, 30.195  L 83.192, 27.206  L 82.939, 24.216  L 82.719, 21.629  L 82.719, 21.629  L 83.863, 24.654  L 84.924, 27.460  L 85.985, 30.266  L 87.046, 33.073  L 87.977, 35.537  L 87.977, 35.537  L 87.780, 33.479  L 87.493, 30.492  L 87.206, 27.506  L 86.919, 24.520  L 86.549, 20.670  L 86.549, 20.670  L 88.172, 24.863  L 89.255, 27.660  L 90.339, 30.458  L 91.962, 34.650  L 91.962, 34.650  L 91.555, 30.752  L 91.244, 27.768  L 90.933, 24.784  L 90.622, 21.801  L 90.403, 19.693  L 90.403, 19.693  L 91.405, 22.241  L 92.504, 25.032  L 93.602, 27.824  L 94.700, 30.616  L 95.922, 33.722  L 95.922, 33.722  L 95.623, 30.986  L 95.297, 28.004  L 94.971, 25.022  L 94.644, 22.039  L 94.280, 18.707  L 94.280, 18.707  L 95.742, 22.389  L 96.848, 25.178  L 97.955, 27.966  L 99.062, 30.754  L 99.859, 32.763  L 99.859, 32.763  L 99.353, 28.225  L 99.020, 25.244  L 98.687, 22.262  L 98.181, 17.724  L 98.181, 17.724  L 98.981, 19.737  L 100.090, 22.525  L 101.198, 25.312  L 102.307, 28.100  L 103.773, 31.785  L 103.773, 31.785  L 103.402, 28.444  L 103.072, 25.463  L 102.741, 22.481  L 102.410, 19.499  L 102.106, 16.754  L 102.106, 16.754  L 103.339, 19.871  L 104.442, 22.661  L 105.546, 25.451  L 106.649, 28.241  L 107.662, 30.800  L 107.662, 30.800  L 107.434, 28.674  L 107.114, 25.691  L 106.794, 22.708  L 106.475, 19.725  L 106.055, 15.809  L 106.055, 15.809  L 107.699, 20.019  L 108.791, 22.813  L 109.883, 25.607  L 111.527, 29.817  L 111.527, 29.817  L 111.137, 25.941  L 110.837, 22.956  L 110.537, 19.971  L 110.237, 16.986  L 110.028, 14.900  L 110.028, 14.900  L 110.981, 17.391  L 112.054, 20.193  L 113.127, 22.995  L 114.200, 25.796  L 115.369, 28.848  L 115.369, 28.848  L 115.130, 26.224  L 114.859, 23.236  L 114.587, 20.248  L 114.316, 17.261  L 114.023, 14.039  L 114.023, 14.039  L 115.349, 17.597  L 116.396, 20.409  L 117.443, 23.220  L 119.188, 27.902  L 119.188, 27.902  L 118.848, 23.561  L 118.615, 20.570  L 118.381, 17.579  L 118.041, 13.238  L 118.041, 13.238  L 119.701, 17.856  L 120.716, 20.679  L 121.731, 23.502  L 122.985, 26.991  L 122.985, 26.991  L 122.795, 23.941  L 122.608, 20.947  L 122.421, 17.953  L 122.234, 14.959  L 122.081, 12.508  L 122.081, 12.508  L 123.056, 15.344  L 124.031, 18.181  L 125.006, 21.019  L 125.981, 23.856  L 126.761, 26.125  L 126.761, 26.125  L 126.555, 21.391  L 126.425, 18.394  L 126.295, 15.397  L 126.141, 11.862  L 126.141, 11.862  L 127.401, 15.734  L 128.329, 18.587  L 129.257, 21.440  L 130.517, 25.313  L 130.517, 25.313  L 130.445, 21.911  L 130.381, 18.912  L 130.318, 15.913  L 130.220, 11.311  L 130.220, 11.311  L 130.840, 13.346  L 131.714, 16.216  L 132.588, 19.086  L 133.462, 21.956  L 134.256, 24.565  L 134.256, 24.565  L 134.265, 22.517  L 134.278, 19.517  L 134.291, 16.517  L 134.304, 13.517  L 134.315, 10.870  L 134.315, 10.870  L 135.172, 13.915  L 135.985, 16.802  L 136.797, 19.690  L 137.979, 23.890  L 137.979, 23.890  L 138.102, 20.218  L 138.202, 17.220  L 138.302, 14.222  L 138.425, 10.550  L 138.425, 10.550  L 139.462, 14.599  L 140.206, 17.506  L 140.950, 20.412  L 141.689, 23.299  L 141.689, 23.299  L 141.840, 21.022  L 142.039, 18.029  L 142.237, 15.035  L 142.546, 10.364  L 142.546, 10.364  L 143.032, 12.488  L 143.701, 15.412  L 144.369, 18.337  L 145.390, 22.800  L 145.390, 22.800  L 145.787, 18.949  L 146.094, 15.965  L 146.402, 12.981  L 146.675, 10.324  L 146.675, 10.324  L 147.293, 13.422  L 147.880, 16.364  L 148.467, 19.306  L 149.084, 22.404  L 149.084, 22.404  L 149.433, 19.987  L 149.861, 17.018  L 150.289, 14.048  L 150.808, 10.443  L 150.808, 10.443  L 151.494, 14.507  L 151.992, 17.465  L 152.778, 22.121  L 152.778, 22.121  L 153.523, 18.195  L 154.083, 15.248  L 154.940, 10.733  L 154.940, 10.733  L 155.220, 12.780  L 155.626, 15.752  L 156.032, 18.724  L 156.474, 21.959  L 156.474, 21.959  L 157.067, 19.500  L 157.770, 16.583  L 158.473, 13.667  L 159.066, 11.207  L 159.066, 11.207  L 159.375, 14.182  L 159.685, 17.166  L 160.180, 21.931  L 160.180, 21.931  L 161.337, 18.053  L 162.194, 15.178  L 163.179, 11.874  L 163.179, 11.874  L 163.455, 15.764  L 163.668, 18.756  L 163.901, 22.048  L 163.901, 22.048  L 164.770, 19.653  L 165.792, 16.833  L 167.274, 12.746  L 167.274, 12.746  L 167.459, 17.533  L 167.644, 22.321  L 167.644, 22.321  L 169.254, 18.627  L 170.453, 15.877  L 171.344, 13.833  L 171.344, 13.833  L 171.365, 16.498  L 171.389, 19.498  L 171.415, 22.763  L 171.415, 22.763  L 172.568, 20.549  L 173.953, 17.888  L 175.383, 15.143  L 175.383, 15.143  L 175.313, 18.666  L 175.220, 23.388  L 175.220, 23.388  L 177.302, 20.036  L 179.385, 16.684  L 179.385, 16.684  L 179.199, 21.047  L 179.064, 24.211  L 179.064, 24.211  L 180.488, 22.300  L 183.344, 18.463  L 183.344, 18.463  L 183.218, 20.657  L 182.954, 25.248  L 182.954, 25.248  L 185.508, 22.423  L 187.257, 20.488  L 187.257, 20.488  L 187.075, 23.500  L 186.893, 26.513  L 186.893, 26.513  L 188.557, 25.037  L 191.118, 22.764 "/>
    </g>
</svg>
