<?xml version="1.0" encoding="utf-8" ?>
<svg xmlns="http://www.w3.org/2000/svg" xmlns:ev="http://www.w3.org/2001/xml-events" xmlns:xlink="http://www.w3.org/1999/xlink" baseProfile="full" height="50mm" version="1.1" viewBox="0,0,200,50" width="200mm">
    <defs>
        <style type="text/css"><![CDATA[
.stitch_line {
    stroke-width: 0.3;
    stroke-linejoin: round;
    stroke-linecap: round;
    fill: none;
}
.path_center_line {
    stroke-width: 0.2;
    stroke-linejoin: round;
    stroke-linecap: round;
    fill: none;
    stroke:#333;
}
.path_contour {
    stroke: #ddd;
    fill-opacity: 1;
    fill: #eee;
    stroke-width: 0.3;
}
.text{
    text-anchor: middle;
    dominant-baseline: middle;
    font-family: sans-serif;
    font-size: 1.5mm;
}
.smalltext{
    text-anchor: middle;
    dominant-baseline: middle;
    font-family: sans-serif;
    font-size: 1mm;
}
.color_0 {
    stroke:#148983;
}
.dot_0 {
    marker-start:url(#dot_0);
    marker-mid:url(#dot_0);
    marker-end:url(#dot_0);
}
]]></style>
        <marker id="dot_0" markerHeight="3.0" markerWidth="3.0" refX="1.5" refY="1.5">
            <circle cx="1.5" cy="1.5" fill="#148983" r="1.5"/>
        </marker>
    </defs>
    <g>
        <path class="stitch_line color_0 dot_0" d="M 11.118, 22.764  L 11.789, 28.976  L 17.078, 24.762  L 17.690, 32.027  L 22.926, 26.239  L 23.695, 34.524  L 28.678, 27.250  L 29.787, 36.492  L 34.353, 27.845  L 35.947, 37.957  L 39.972, 28.070  L 42.151, 38.953  L 45.557, 27.968  L 48.379, 39.514  L 51.127, 27.576  L 54.611, 39.680  L 56.702, 26.930  L 60.832, 39.494  L 62.295, 26.063  L 67.029, 38.998  L 67.918, 25.008  L 73.191, 38.236  L 73.579, 23.799  L 79.312, 37.250  L 79.285, 22.468  L 85.385, 36.083  L 85.039, 21.050  L 91.408, 34.777  L 90.846, 19.580  L 97.377, 33.371  L 96.707, 18.094  L 103.293, 31.906  L 102.623, 16.629  L 109.154, 30.420  L 108.592, 15.223  L 114.961, 28.950  L 114.615, 13.917  L 120.715, 27.532  L 120.688, 12.750  L 126.421, 26.201  L 126.809, 11.764  L 132.082, 24.992  L 132.971, 11.002  L 137.705, 23.937  L 139.168, 10.506  L 143.298, 23.070  L 145.389, 10.320  L 148.873, 22.424  L 151.621, 10.486  L 154.443, 22.032  L 157.849, 11.047  L 160.028, 21.930  L 164.053, 12.043  L 165.647, 22.155  L 170.213, 13.508  L 171.322, 22.750  L 176.305, 15.476  L 177.074, 23.761  L 182.310, 17.973  L 182.922, 25.238  L 188.211, 21.024  L 188.882, 27.236 "/>
    </g>
</svg>
