<?xml version="1.0" encoding="utf-8" ?>
<svg xmlns="http://www.w3.org/2000/svg" xmlns:ev="http://www.w3.org/2001/xml-events" xmlns:xlink="http://www.w3.org/1999/xlink" baseProfile="full" height="50mm" version="1.1" viewBox="0,0,200,50" width="200mm">
    <defs>
        <style type="text/css"><![CDATA[
.stitch_line {
    stroke-width: 0.3;
    stroke-linejoin: round;
    stroke-linecap: round;
    fill: none;
}
.path_center_line {
    fill: none;
    stroke:#808080;
    stroke-width: 0.2;
    stroke-linejoin: round;
    stroke-linecap: round;
}
.path_contour {
    fill: #808080;
    fill-opacity: 0.3;
    stroke: #808080;
    stroke-opacity: 1;
    stroke-width: 0.3;
}
.text{
    text-anchor: middle;
    dominant-baseline: middle;
    font-family: sans-serif;
    font-size: 1.5mm;
}
.smalltext{
    text-anchor: middle;
    dominant-baseline: middle;
    font-family: sans-serif;
    font-size: 1mm;
}
.color_0 {
    stroke:#3bb2d0;
}
.dot_0 {
    marker-start:url(#dot_0);
    marker-mid:url(#dot_0);
    marker-end:url(#dot_0);
}
]]></style>
        <marker id="dot_0" markerHeight="3.0" markerWidth="3.0" refX="1.5" refY="1.5">
            <circle cx="1.5" cy="1.5" fill="#3bb2d0" r="1.5"/>
        </marker>
    </defs>
    <g>
        <path class="stitch_line color_0 dot_0" d="M 11.118, 22.764  L 11.558, 28.871  L 16.693, 24.605  L 17.132, 31.824  L 22.326, 26.047  L 22.972, 34.323  L 28.000, 27.088  L 29.030, 36.341  L 33.696, 27.738  L 35.251, 37.869  L 39.402, 28.018  L 41.576, 38.918  L 45.110, 27.955  L 47.953, 39.514  L 50.814, 27.585  L 54.336, 39.695  L 56.515, 26.945  L 60.689, 39.509  L 62.214, 26.073  L 66.988, 39.004  L 67.916, 25.009  L 73.220, 38.230  L 73.627, 23.790  L 79.377, 37.236  L 79.353, 22.453  L 85.458, 36.067  L 85.104, 21.035  L 91.465, 34.763  L 90.889, 19.569  L 97.404, 33.365  L 96.716, 18.091  L 103.284, 31.909  L 102.596, 16.635  L 109.111, 30.431  L 108.535, 15.237  L 114.896, 28.965  L 114.542, 13.933  L 120.647, 27.547  L 120.623, 12.764  L 126.373, 26.210  L 126.780, 11.770  L 132.084, 24.991  L 133.012, 10.996  L 137.786, 23.927  L 139.311, 10.491  L 143.485, 23.055  L 145.664, 10.305  L 149.186, 22.415  L 152.047, 10.486  L 154.890, 22.045  L 158.424, 11.082  L 160.598, 21.982  L 164.749, 12.131  L 166.304, 22.262  L 170.970, 13.659  L 172.000, 22.912  L 177.028, 15.677  L 177.674, 23.953  L 182.868, 18.176  L 183.307, 25.395  L 188.442, 21.129  L 188.882, 27.236  L 191.118, 22.764  L 186.103, 26.266  L 185.690, 19.598  L 180.496, 24.624  L 179.979, 16.868  L 174.841, 23.383  L 174.023, 14.607  L 169.154, 22.539  L 167.877, 12.834  L 163.452, 22.077  L 161.596, 11.547  L 157.744, 21.973  L 155.238, 10.729  L 152.038, 22.194  L 148.854, 10.346  L 146.335, 22.704  L 142.482, 10.355  L 140.635, 23.465  L 136.154, 10.707  L 134.935, 24.438  L 129.887, 11.352  L 129.230, 25.584  L 123.692, 12.242  L 123.513, 26.866  L 117.573, 13.329  L 117.775, 28.248  L 111.530, 14.571  L 112.008, 29.694  L 105.557, 15.927  L 106.203, 31.170  L 99.649, 17.358  L 100.351, 32.642  L 93.797, 18.830  L 94.443, 34.073  L 87.992, 20.306  L 88.470, 35.429  L 82.225, 21.752  L 82.427, 36.671  L 76.487, 23.134  L 76.308, 37.758  L 70.770, 24.416  L 70.113, 38.648  L 65.065, 25.562  L 63.846, 39.293  L 59.365, 26.535  L 57.518, 39.645  L 53.665, 27.296  L 51.146, 39.654  L 47.962, 27.806  L 44.762, 39.271  L 42.256, 28.027  L 38.404, 38.453  L 36.548, 27.923  L 32.123, 37.166  L 30.846, 27.461  L 25.977, 35.393  L 25.159, 26.617  L 20.021, 33.132  L 19.504, 25.376  L 14.310, 30.402  L 13.897, 23.734  L 8.882, 27.236  L 11.118, 22.764 "/>
    </g>
</svg>
