<?xml version="1.0" encoding="utf-8" ?>
<svg xmlns="http://www.w3.org/2000/svg" xmlns:ev="http://www.w3.org/2001/xml-events" xmlns:xlink="http://www.w3.org/1999/xlink" baseProfile="full" height="50mm" version="1.1" viewBox="0,0,200,50" width="200mm">
    <defs>
        <style type="text/css"><![CDATA[
.stitch_line {
    stroke-width: 0.3;
    stroke-linejoin: round;
    stroke-linecap: round;
    fill: none;
}
.path_center_line {
    fill: none;
    stroke:#808080;
    stroke-width: 0.2;
    stroke-linejoin: round;
    stroke-linecap: round;
}
.path_contour {
    fill: #808080;
    fill-opacity: 0.3;
    stroke: #808080;
    stroke-opacity: 1;
    stroke-width: 0.3;
}
.text{
    text-anchor: middle;
    dominant-baseline: middle;
    font-family: sans-serif;
    font-size: 1.5mm;
}
.smalltext{
    text-anchor: middle;
    dominant-baseline: middle;
    font-family: sans-serif;
    font-size: 1mm;
}
.color_0 {
    stroke:#3bb2d0;
}
.dot_0 {
    marker-start:url(#dot_0);
    marker-mid:url(#dot_0);
    marker-end:url(#dot_0);
}
]]></style>
        <marker id="dot_0" markerHeight="3.0" markerWidth="3.0" refX="1.5" refY="1.5">
            <circle cx="1.5" cy="1.5" fill="#3bb2d0" r="1.5"/>
        </marker>
    </defs>
    <g>
        <path class="stitch_line color_0 dot_0" d="M 10.000, 25.000  L 12.716, 26.297  L 15.478, 27.494  L 18.282, 28.587  L 21.126, 29.574  L 24.004, 30.453  L 21.941, 26.746  L 24.004, 30.453  L 20.297, 32.516  L 24.004, 30.453  L 26.073, 31.012  L 23.911, 27.361  L 26.073, 31.012  L 22.423, 33.174  L 26.073, 31.012  L 28.156, 31.516  L 25.897, 27.924  L 28.156, 31.516  L 24.564, 33.774  L 28.156, 31.516  L 30.952, 32.102  L 33.767, 32.591  L 36.597, 32.984  L 39.438, 33.285  L 42.287, 33.495  L 45.141, 33.619  L 47.998, 33.660  L 50.855, 33.623  L 53.710, 33.511  L 50.559, 30.670  L 53.710, 33.511  L 50.869, 36.662  L 53.710, 33.511  L 55.849, 33.381  L 52.648, 30.597  L 55.849, 33.381  L 53.064, 36.582  L 55.849, 33.381  L 57.985, 33.215  L 54.738, 30.484  L 57.985, 33.215  L 55.255, 36.462  L 57.985, 33.215  L 60.829, 32.938  L 63.666, 32.603  L 66.497, 32.215  L 69.321, 31.779  L 72.137, 31.298  L 74.947, 30.778  L 77.749, 30.223  L 80.546, 29.636  L 83.336, 29.023  L 79.752, 26.752  L 83.336, 29.023  L 81.065, 32.607  L 83.336, 29.023  L 85.426, 28.548  L 81.829, 26.298  L 85.426, 28.548  L 83.176, 32.145  L 85.426, 28.548  L 87.513, 28.062  L 83.905, 25.830  L 87.513, 28.062  L 85.280, 31.670  L 87.513, 28.062  L 90.292, 27.399  L 93.068, 26.723  L 95.842, 26.037  L 98.614, 25.346  L 101.386, 24.654  L 104.158, 23.963  L 106.932, 23.277  L 109.708, 22.601  L 112.487, 21.938  L 108.879, 19.706  L 112.487, 21.938  L 110.255, 25.546  L 112.487, 21.938  L 114.574, 21.452  L 110.977, 19.202  L 114.574, 21.452  L 112.324, 25.049  L 114.574, 21.452  L 116.664, 20.977  L 113.080, 18.706  L 116.664, 20.977  L 114.393, 24.561  L 116.664, 20.977  L 119.454, 20.364  L 122.251, 19.777  L 125.053, 19.222  L 127.863, 18.702  L 130.679, 18.221  L 133.503, 17.785  L 136.334, 17.397  L 139.171, 17.062  L 142.015, 16.785  L 138.767, 14.055  L 142.015, 16.785  L 139.285, 20.033  L 142.015, 16.785  L 144.151, 16.619  L 140.950, 13.834  L 144.151, 16.619  L 141.366, 19.819  L 144.151, 16.619  L 146.290, 16.489  L 143.139, 13.647  L 146.290, 16.489  L 143.449, 19.639  L 146.290, 16.489  L 149.145, 16.377  L 152.002, 16.340  L 154.859, 16.381  L 157.713, 16.505  L 160.562, 16.715  L 163.403, 17.016  L 166.233, 17.409  L 169.048, 17.898  L 171.844, 18.484  L 169.586, 14.893  L 171.844, 18.484  L 168.253, 20.743  L 171.844, 18.484  L 173.927, 18.988  L 171.765, 15.338  L 173.927, 18.988  L 170.277, 21.150  L 173.927, 18.988  L 175.996, 19.547  L 173.932, 15.841  L 175.996, 19.547  L 172.289, 21.611  L 175.996, 19.547  L 178.874, 20.426  L 181.718, 21.413  L 184.522, 22.506  L 187.284, 23.703  L 190.000, 25.000 "/>
    </g>
</svg>
