<?xml version="1.0" encoding="utf-8" ?>
<svg baseProfile="full" height="120mm" version="1.1" viewBox="0,0,240,120" width="240mm" xmlns="http://www.w3.org/2000/svg" xmlns:ev="http://www.w3.org/2001/xml-events" xmlns:xlink="http://www.w3.org/1999/xlink">
    <defs>
        <marker id="handles" markerHeight="5" markerWidth="5" refX="2.5" refY="2.5">
            <circle cx="2.5" cy="2.5" fill="#3bb2d0" r="2.5"/>
        </marker>
        <marker id="marker_148983" markerHeight="3" markerWidth="3" refX="1.5" refY="1.5">
            <circle cx="1.5" cy="1.5" fill="#148983" r="1.5"/>
        </marker>
        <marker id="marker_1873ac" markerHeight="3" markerWidth="3" refX="1.5" refY="1.5">
            <circle cx="1.5" cy="1.5" fill="#1873ac" r="1.5"/>
        </marker>
        <marker id="marker_8c5290" markerHeight="3" markerWidth="3" refX="1.5" refY="1.5">
            <circle cx="1.5" cy="1.5" fill="#8c5290" r="1.5"/>
        </marker>
        <marker id="marker_61a09c" markerHeight="3" markerWidth="3" refX="1.5" refY="1.5">
            <circle cx="1.5" cy="1.5" fill="#61a09c" r="1.5"/>
        </marker>
    </defs>
    <g transform="translate(30,10)">
        <path d="M 0, 0 C 20, 30 -20, 70 0, 100" style="stroke-width:1;stroke-linejoin:round;stroke-linecap:round;fill:none;stroke:#333333;"/>
        <path d="M 0, 0 L 20, 30 M 0, 100 L -20, 70" style="stroke-width:0.5;stroke-linejoin:round;stroke-linecap:round;fill:none;stroke:#808080;marker-start:url(#handles);marker-mid:url(#handles);marker-end:url(#handles);"/>
    </g>
    <path d="M 101.24807544150677, 9.167949705662156  L 102.32008452989415, 10.624502748910443  L 102.74557294369922, 12.406542064208358  L 102.49538451210097, 14.422812258735856  L 101.78935149520929, 16.483811933565374  L 101.05263297859103, 18.387258382269124  L 100.78297979832698, 20.004985606310107  L 101.37213904311932, 21.332988962244738  L 102.94580653022038, 22.484941695013674  L 105.28381054680945, 23.635493941123155  L 107.85602707898963, 24.941093726307226  L 109.9694258779828, 26.473998074546547  L 110.98223716554105, 28.197245787261554  L 110.5165060592184, 29.989241179403226  L 108.59867411120136, 31.705091723161257  L 105.6795676546608, 33.24695377798664  L 102.5228441909887, 34.61292191098872  L 99.99227017670083, 35.90374729660289  L 98.80016750629618, 37.28433735139138  L 99.29224079461167, 38.91531884469342  L 101.33408917064514, 40.88188842445288  L 104.3352019066161, 43.1484340908328  L 107.40603748860408, 45.557822644581584  L 109.60476466718333, 47.87760004422673  L 110.2037656579408, 49.877853162000065  L 108.89968211519911, 51.41347847132657  L 105.90638533676875, 52.48135494399868  L 101.90325937363633, 53.231177201168144  L 97.85215689914826, 53.92453981128046  L 94.73366435059657, 54.85474160889931  L 93.27632595939814, 56.253503786128505  L 93.75471876246962, 58.215633932134175  L 95.91311178974239, 60.666948596766716  L 99.03628612668255, 63.38642543049913  L 102.14784310085174, 66.07546018871955  L 104.28059973832522, 68.45139271962486  L 104.74352157145971, 70.33446645877376  L 103.31074585928289, 71.69980655699003  L 100.28029241575834, 72.67800885416978  L 96.38682823671579, 73.50542110033231  L 92.59396251139589, 74.44217735541842  L 89.82536691087729, 75.68667560838651  L 88.71094293462382, 77.31578920162974  L 89.4194604247013, 79.27045965903334  L 91.6239097408625, 81.38981058096911  L 94.60743177469706, 83.47940653217415  L 97.47715580901132, 85.38707808901131  L 99.42235529987974, 87.05737975013155  L 99.94112990143331, 88.54428434927976  L 98.97006585915797, 89.97816400844559  L 96.88113570203473, 91.50136197590396  L 94.35064281158736, 93.19962404753115  L 92.14397292101037, 95.0589062736928  L 90.8851046546143, 96.96712103119818  L 90.8830534283371, 98.76163257602312  L 92.06731543867504, 100.30314773502847  L 94.04729198704239, 101.54373008958385  L 96.26900741834783, 102.55731596790977  L 98.21064850479071, 103.51618806643462  L 99.5479042432854, 104.6206961852344  L 100.2345247602124, 106.0117682947757  L 100.47724608875421, 107.70583603748753  L 100.62403772075338, 109.58397485283108  L 99.07858077943003, 108.54066664428855  L 97.25442705630077, 107.59345793579163  L 95.46132673251266, 106.5336792972939  L 94.11678496148367, 105.18977149560915  L 93.59064781528669, 103.50189031808866  L 94.04729198704239, 101.54373008958385  L 95.34758819777785, 99.48507938639187  L 97.05419346977963, 97.51505830498633  L 98.54727425176684, 95.76189108655552  L 99.21713958646436, 94.2442431070067  L 98.67071150115757, 92.8732461696088  L 96.88113570203473, 91.50136197590395  L 94.22677989996976, 89.99446141452115  L 91.40132588879862, 88.29490827683874  L 89.21850939079864, 86.4487126938952  L 88.36951101297335, 84.58585187810176  L 89.20713372609495, 82.86256036095119  L 91.62390974086253, 81.38981058096908  L 95.06360981504486, 80.17757040716992  L 98.6659108293549, 79.1181115755471  L 101.50422927589054, 78.0164562099479  L 102.84873034292265, 76.65792315831825  L 102.37842114061489, 74.88844224489134  L 100.28029241575834, 72.67800885416978  L 97.20553187204189, 70.14316404283173  L 94.09361466323122, 67.5186450560013  L 91.9128815144021, 65.08625287803886  L 91.39025921805415, 63.08421775152604  L 92.8062366039617, 61.627592469897564  L 95.91311178974243, 60.6669485967667  L 100.0, 60.0  L 104.08688821025761, 59.333051403233284  L 107.1937633960383, 58.37240753010241  L 108.60974078194585, 56.91578224847395  L 108.08711848559788, 54.913747121961094  L 105.90638533676872, 52.481354943998625  L 102.79446812795804, 49.856835957168215  L 99.71970758424163, 47.32199114583018  L 97.62157885938508, 45.11155775510861  L 97.15126965707736, 43.3420768416817  L 98.4957707241095, 41.98354379005207  L 101.33408917064517, 40.88188842445285  L 104.93639018495519, 39.82242959283002  L 108.37609025913753, 38.610189419030874  L 110.79286627390508, 37.13743963904879  L 111.63048898702665, 35.41414812189821  L 110.78149060920134, 33.55128730610478  L 108.59867411120132, 31.705091723161228  L 105.77322010003022, 30.005538585478817  L 103.11886429796526, 28.498638024096042  L 101.32928849884243, 27.12675383039118  L 100.78286041353564, 25.755756892993283  L 101.45272574823319, 24.238108913444442  L 102.94580653022037, 22.484941695013667  L 104.65241180222215, 20.514920613608126  L 105.95270801295766, 18.45626991041612  L 106.40935218471331, 16.498109681911302  L 105.88321503851631, 14.810228504390818  L 104.53867326748731, 13.466320702706078  L 102.7455729436992, 12.406542064208345  L 100.92141922056994, 11.459333355711445  L 99.37596227924661, 10.416025147168925  L 99.5227539112458, 12.294163962512515  L 99.76547523978762, 13.988231705224306  L 100.45209575671463, 15.379303814765656  L 101.7893514952093, 16.483811933565367  L 103.73099258165219, 17.442684032090263  L 105.95270801295763, 18.456269910416147  L 107.932684561325, 19.696852264971568  L 109.1169465716629, 21.23836742397687  L 109.1148953453857, 23.03287896880189  L 107.85602707898958, 24.94109372630721  L 105.64935718841261, 26.800375952468894  L 103.11886429796526, 28.498638024096042  L 101.02993414084203, 30.021835991554468  L 100.0588700985667, 31.455715650720208  L 100.57764470012029, 32.9426202498685  L 102.52284419098874, 34.61292191098873  L 105.39256822530301, 36.52059346782589  L 108.37609025913758, 38.61018941903093  L 110.58053957529873, 40.72954034096671  L 111.28905706537618, 42.68421079837029  L 110.1746330891227, 44.31332439161353  L 107.40603748860403, 45.557822644581584  L 103.61317176328413, 46.49457889966768  L 99.71970758424162, 47.321991145830225  L 96.68925414071707, 48.300193443009974  L 95.25647842854029, 49.665533541226246  L 95.71940026167479, 51.54860728037515  L 97.8521568991483, 53.924539811280475  L 100.96371387331745, 56.61357456950086  L 104.08688821025765, 59.3330514032333  L 106.2452812375304, 61.78436606786583  L 106.72367404060186, 63.746496213871495  L 105.26633564940342, 65.14525839110067  L 102.1478431008517, 66.07546018871952  L 98.09674062636367, 66.76882279883186  L 94.09361466323114, 67.51864505600133  L 91.10031788480086, 68.58652152867346  L 89.7962343420592, 70.12214683799998  L 90.39523533281671, 72.12239995577332  L 92.59396251139596, 74.44217735541847  L 95.66479809338398, 76.85156590916723  L 98.66591082935496, 79.11811157554719  L 100.70775920538834, 81.0846811553066  L 101.19983249370382, 82.71566264860863  L 100.00772982329914, 84.09625270339713  L 97.47715580901125, 85.38707808901131  L 94.32043234533913, 86.75304622201338  L 91.40132588879862, 88.29490827683877  L 89.48349394078159, 90.01075882059682  L 89.01776283445896, 91.80275421273848  L 90.03057412201721, 93.52600192545347  L 92.14397292101042, 95.05890627369278  L 94.71618945319057, 96.36450605887687  L 97.05419346977963, 97.51505830498633  L 98.6278609568807, 98.66701103775527  L 99.21702020167302, 99.9950143936899  L 98.94736702140897, 101.61274161773088  L 98.2106485047907, 103.51618806643467  L 97.50461548789903, 105.5771877412642  L 97.25442705630078, 107.59345793579169  L 97.67991547010588, 109.37549725108958  L 98.75192455849323, 110.83205029433785 " style="stroke-width:0.3;stroke-linejoin:round;stroke-linecap:round;fill:none;stroke:#148983;marker-start:url(#marker_148983);marker-mid:url(#marker_148983);marker-end:url(#marker_148983);"/>
    <path d="M 131.24807544150676, 9.167949705662156  L 128.92960444301085, 11.326893395240555  L 132.44493534041732, 10.403306199355452  L 129.565847450709, 13.286005447434821  L 132.52122093623495, 12.251450998124174  L 133.93059484262446, 12.122748651571037  L 132.11968, 13.64672  L 130.06120054945956, 15.204969241556189  L 131.65721238407164, 14.99193014241601  L 135.2828283227419, 13.92626985022443  L 130.42859687346368, 17.085653958480595  L 134.29101374661695, 16.0773058851266  L 136.50031949546536, 15.809197825281156  L 133.70944, 17.38176  L 130.68066002059436, 18.931648181457653  L 133.07747460944128, 18.63450125775217  L 137.58228523432228, 17.765254575788056  L 136.24121343558704, 18.724177245050292  L 132.39878656441297, 19.835822754949707  L 130.82927689449778, 20.74799405659254  L 135.54996231709274, 19.986366369589796  L 138.52885539032928, 19.78689338007969  L 134.81536, 21.19744  L 130.88527779714514, 22.5407933388543  L 134.0409169435907, 22.358462882852862  L 137.9638091692279, 21.576851351441423  L 139.3413239907269, 21.865732416719922  L 137.17256154388667, 22.795408474091005  L 133.22999845611332, 23.470831525909  L 130.85825863422002, 24.316751983301753  L 132.38579342168586, 24.536233361538443  L 136.3447355261047, 23.96458887948718  L 140.02225299612283, 23.993014401873857  L 135.48352, 25.08608  L 130.75654813339537, 26.082732440820866  L 134.5919002627699, 26.161808188221983  L 138.57453921169025, 25.789535435334056  L 140.57544024597775, 26.16002844115478  L 137.6630362366946, 26.916824888639315  L 133.67264376330542, 27.193895111360682  L 130.5872962946382, 27.845368772972584  L 132.7282924198422, 28.184615530951138  L 136.72400919338594, 27.999554823016286  L 141.00578451799277, 28.358449909165124  L 139.75883923386994, 28.94364242809952  L 135.76, 29.04  L 131.76116076613008, 29.13635757190048  L 130.35664526010177, 29.610776739712946  L 134.77332381228473, 30.040541259657534  L 138.77330856314586, 30.029496221027387  L 141.3190892304474, 30.580578291829653  L 137.76544651513407, 31.07444962003348  L 133.76607348486593, 31.00363037996652  L 130.06994117433584, 31.38436764771807  L 132.74012770189185, 31.93175891487594  L 136.73734409936938, 32.08096036170802  L 141.5218438299652, 32.81947403738095  L 139.6845980937231, 33.275608794607386  L 135.69088, 33.05152  L 131.69716190627688, 32.827431205392614  L 129.7319520531715, 33.17075690605602  L 130.63866122771645, 33.69314157242344  L 134.62773224554329, 33.988628314484686  L 138.61680326337012, 34.284115056545936  L 141.62101272805714, 35.069009498372736  L 137.53284843251407, 35.258188148180196  L 133.54939156748594, 34.8947718518198  L 129.3470674138951, 34.973748117850946  L 132.45717579216304, 35.77240640955098  L 136.4342214026123, 36.20031786348301  L 140.41126701306158, 36.628229317415034  L 141.62385038494773, 37.323855462440186  L 139.29223528402102, 37.60197681448685  L 135.32224, 37.11296  L 131.35224471597897, 36.62394318551317  L 128.919466397794, 36.79637038158431  L 130.2356150182002, 37.45173826208121  L 134.19806700364003, 37.99852365241624  L 138.1605189890799, 38.54530904275128  L 141.5377510382283, 39.57942523482616  L 137.01727504559764, 39.460638311026536  L 133.06272495440237, 38.85936168897346  L 128.45324996402655, 38.64094808482664  L 131.91711054231067, 39.697764047897095  L 135.86352315256312, 40.35031865070096  L 139.80993576281554, 41.00287325350483  L 141.37013416798456, 41.83179514839958  L 138.63831165008122, 41.917326506907784  L 134.70016, 41.21664  L 130.7620083499188, 40.51595349309221  L 127.95253865727861, 40.50918650390964  L 129.59810380001448, 41.3160834832867  L 133.5279727600029, 42.06182469665734  L 137.4578417199913, 42.80756591002799  L 141.12836228123234, 44.077615852098276  L 136.26930826192296, 43.67581405586297  L 132.34765173807705, 42.88802594413703  L 127.42154068409651, 42.40226118657745  L 131.1598021156644, 43.69732794339653  L 135.07339929477854, 44.52422401886783  L 138.98699647389267, 45.35112009433912  L 140.81968546522387, 46.31402419013095  L 137.77648524342163, 46.218012587311854  L 133.87072, 45.35488  L 129.96495475657838, 44.49174741268815  L 126.86459625834125, 44.32090332700764  L 128.76357608273543, 45.27323624982883  L 132.6618032165471, 46.16979924996576  L 136.56003035035874, 47.0663622501027  L 140.45120665343407, 48.53856167014155  L 139.22920295063722, 48.82543487692069  L 135.33816098354572, 47.898184958973566  L 131.44711901645425, 46.97093504102644  L 127.5560770493628, 46.04368512307932  L 126.28620413499517, 46.26547668167522  L 130.22708340060342, 47.76018048876109  L 134.11134553313218, 48.715433170412965  L 137.99560766566094, 49.67068585206484  L 140.0298619849852, 50.74910266986911  L 136.75793383046863, 50.50062694563575  L 132.88, 49.52  L 129.00206616953136, 48.539373054364255  L 125.69103554579452, 48.236043946726994  L 127.77239803458278, 49.310299584827305  L 131.64449560691656, 50.313723916965465  L 135.51659317925032, 51.31714824910363  L 139.56241151022448, 52.94379360303891  L 138.1387429584601, 53.145778227589574  L 134.2719543194867, 52.12208607586319  L 130.4051656805133, 51.09839392413681  L 126.53837704153989, 50.07470177241042  L 125.08393979199123, 50.23242204711546  L 129.16231187838142, 51.87575511544685  L 133.02434937387287, 52.91722829485105  L 136.8863868693643, 53.95870147425525  L 139.05543647955895, 55.12100308562723  L 135.63195016156195, 54.761125477147985  L 131.77408, 53.70432  L 127.91620983843805, 52.64751452285202  L 124.46994478198573, 52.25422666729808  L 126.66711432890482, 53.415347181412784  L 130.52142286578098, 54.48506943628256  L 134.3757314026571, 55.554791691152325  L 138.51534037420953, 57.27928251633922  L 136.96937602269978, 57.421657644436046  L 133.11800534089994, 56.341405881478686  L 129.26663465910008, 55.261154118521326  L 125.41526397730021, 54.180902355563966  L 123.85425494418607, 54.30090677219573  L 128.00995670980487, 56.03422709202989  L 131.85902776339836, 57.122644302656695  L 135.70809881699188, 58.211061513283504  L 137.94835162107947, 59.417336235705704  L 134.44646069868662, 58.994396705342055  L 130.59904, 57.90016  L 126.7516193013134, 56.805923294657944  L 123.24224823909915, 56.37176998083221  L 125.49184574807863, 57.57786598810817  L 129.33827314961573, 58.67558919762164  L 133.18470055115282, 59.773312407135116  L 137.36052656437366, 61.5340004215712  L 135.76914368584494, 61.64832676738427  L 131.92304789528166, 60.54944225579476  L 128.07695210471834, 59.45055774420524  L 124.23085631415506, 58.35167323261573  L 122.63947343562634, 58.4659995784288  L 126.81529944884717, 60.226687592864884  L 130.66172685038427, 61.32441080237836  L 134.50815425192138, 62.42213401189183  L 136.75775176090085, 63.62823001916779  L 133.24838069868662, 63.194076705342056  L 129.40096, 62.09984  L 125.55353930131339, 61.005603294657945  L 122.05164837892052, 60.582663764294296  L 124.29190118300812, 61.788938486716496  L 128.1409722366016, 62.877355697343305  L 131.99004329019513, 63.965772907970106  L 136.14574505581393, 65.69909322780427  L 134.5847360226998, 65.81909764443606  L 130.73336534089992, 64.73884588147868  L 126.88199465910007, 63.65859411852133  L 123.03062397730021, 62.57834235556397  L 121.48465962579046, 62.720717483660785  L 125.62426859734289, 64.44520830884767  L 129.47857713421902, 65.51493056371744  L 133.33288567109517, 66.58465281858722  L 135.53005521801427, 67.74577333270193  L 132.08379016156195, 67.35248547714798  L 128.22592, 66.29568  L 124.36804983843805, 65.23887452285203  L 120.94456352044105, 64.87899691437278  L 123.11361313063571, 66.04129852574476  L 126.97565062612713, 67.08277170514896  L 130.83768812161856, 68.12424488455315  L 134.91606020800876, 69.76757795288454  L 133.4616229584601, 69.92529822758956  L 129.5948343194867, 68.90160607586319  L 125.7280456805133, 67.8779139241368  L 121.86125704153989, 66.85422177241043  L 120.43758848977552, 67.05620639696109  L 124.48340682074968, 68.68285175089636  L 128.35550439308344, 69.68627608303453  L 132.22760196541722, 70.6897004151727  L 134.3089644542055, 71.763956053273  L 130.99793383046864, 71.46062694563575  L 127.12, 70.48  L 123.24206616953137, 69.49937305436426  L 119.9701380150148, 69.2508973301309  L 122.00439233433904, 70.32931414793515  L 125.8886544668678, 71.28456682958702  L 129.77291659939658, 72.2398195112389  L 133.7137958650048, 73.73452331832479  L 132.44392295063722, 73.95631487692069  L 128.55288098354575, 73.02906495897356  L 124.66183901645427, 72.10181504102644  L 120.7707970493628, 71.1745651230793  L 119.54879334656592, 71.46143832985845  L 123.43996964964126, 72.93363774989731  L 127.33819678345291, 73.83020075003424  L 131.23642391726457, 74.72676375017119  L 133.13540374165876, 75.67909667299236  L 130.03504524342162, 75.50825258731186  L 126.12928, 74.64512  L 122.22351475657838, 73.78198741268815  L 119.18031453477612, 73.68597580986905  L 121.01300352610733, 74.64887990566088  L 124.92660070522146, 75.47577598113217  L 128.8401978843356, 76.30267205660348  L 132.57845931590347, 77.59773881342255  L 127.65234826192295, 77.11197405586297  L 123.73069173807704, 76.32418594413703  L 118.87163771876766, 75.92238414790174  L 122.54215828000868, 77.19243408997201  L 126.4720272399971, 77.93817530334266  L 130.40189619998552, 78.68391651671331  L 132.0474613427214, 79.49081349609037  L 129.2379916500812, 79.4840465069078  L 125.29984, 78.78336000000002  L 121.3616883499188, 78.08267349309223  L 118.62986583201544, 78.16820485160042  L 120.19006423718444, 78.99712674649517  L 124.13647684743688, 79.64968134929903  L 128.08288945768933, 80.3022359521029  L 131.54675003597345, 81.35905191517335  L 126.93727504559763, 81.14063831102655  L 122.98272495440237, 80.53936168897346  L 118.4622489617717, 80.42057476517384  L 121.83948101092011, 81.45469095724872  L 125.80193299635997, 82.00147634758376  L 129.7643849817998, 82.54826173791879  L 131.080533602206, 83.20362961841569  L 128.64775528402103, 83.37605681448684  L 124.67776, 82.88704  L 120.70776471597898, 82.39802318551315  L 118.37614961505226, 82.67614453755982  L 119.58873298693841, 83.37177068258498  L 123.56577859738768, 83.79968213651699  L 127.54282420783696, 84.22759359044902  L 130.6529325861049, 85.02625188214905  L 126.45060843251406, 85.1052281481802  L 122.46715156748594, 84.74181185181979  L 118.37898727194286, 84.93099050162726  L 121.38319673662987, 85.71588494345406  L 125.37226775445671, 86.01137168551531  L 130.2680479468285, 86.82924309394397  L 128.30283809372312, 87.17256879460739  L 124.30912000000001, 86.94848  L 120.31540190627689, 86.72439120539262  L 118.47815617003478, 87.18052596261906  L 123.26265590063062, 87.91903963829198  L 127.25987229810815, 88.06824108512406  L 129.93005882566416, 88.61563235228192  L 126.23392651513409, 88.99636962003348  L 122.23455348486593, 88.92555037996652  L 118.68091076955261, 89.41942170817035  L 121.22669143685414, 89.97050377897261  L 125.22667618771528, 89.95945874034247  L 129.64335473989823, 90.38922326028705  L 128.23883923386992, 90.86364242809951  L 124.24, 90.96  L 120.24116076613006, 91.05635757190048  L 118.99421548200723, 91.64155009083487  L 123.27599080661408, 92.00044517698372  L 127.2717075801578, 91.81538446904887  L 129.4127037053618, 92.15463122702742  L 126.3273562366946, 92.80610488863933  L 122.3369637633054, 93.08317511136069  L 119.42455975402225, 93.83997155884524  L 121.42546078830975, 94.21046456466595  L 125.40809973723009, 93.83819181177803  L 129.24345186660463, 93.91726755917914  L 124.51648, 94.91392  L 119.97774700387717, 96.00698559812615  L 123.65526447389529, 96.03541112051283  L 127.61420657831414, 95.46376663846156  L 129.14174136577998, 95.68324801669826  L 126.77000154388666, 96.529168474091  L 122.82743845611333, 97.204591525909  L 120.6586760092731, 98.13426758328008  L 122.03619083077211, 98.42314864855858  L 125.9590830564093, 97.64153711714714  L 129.11472220285486, 97.4592066611457  L 125.18464, 98.80256  L 121.4711446096707, 100.21310661992031  L 124.45003768290726, 100.01363363041021  L 129.17072310550222, 99.25200594340745  L 127.60121343558703, 100.1641772450503  L 123.75878656441297, 101.2758227549497  L 122.41771476567773, 102.23474542421195  L 126.92252539055872, 101.36549874224784  L 129.31933997940564, 101.06835181854234  L 126.29056, 102.61824  L 123.49968050453464, 104.19080217471885  L 125.70898625338306, 103.92269411487342  L 129.57140312653632, 102.91434604151941  L 124.71717167725811, 106.07373014977557  L 128.34278761592836, 105.00806985758399  L 129.93879945054044, 104.7950307584438  L 127.88032, 106.35328  L 126.06940515737553, 107.87725134842896  L 127.47877906376505, 107.7485490018758  L 130.434152549291, 106.71399455256517  L 127.55506465958268, 109.59669380064456  L 131.07039555698915, 108.67310660475944 " style="stroke-width:0.3;stroke-linejoin:round;stroke-linecap:round;fill:none;stroke:#1873ac;marker-start:url(#marker_1873ac);marker-mid:url(#marker_1873ac);marker-end:url(#marker_1873ac);"/>
    <path d="M 161.24807544150676, 9.167949705662156  L 158.75192455849324, 10.832050294337844  L 159.7146803810019, 13.799939320404274  L 163.59778309675082, 11.708589493909665  L 165.64195507028927, 14.443857199625434  L 163.0019200267134, 15.560286056153824  L 160.36188498313757, 16.676714912682215  L 160.73795215194238, 19.471999995416176  L 164.0570999248685, 18.41472577009767  L 167.37624769779464, 17.357451544779167  L 168.79965055836226, 20.42517165587976  L 166.16108784925345, 21.01788680002366  L 163.52252514014467, 21.610601944167563  L 160.88396243103585, 22.203317088311465  L 160.83521225901353, 24.89304132190469  L 163.86245395137945, 24.468015564138064  L 166.88969564374537, 24.042989806371438  L 169.91693733611126, 23.61796404860481  L 170.73945733478226, 26.90546866691998  L 167.36644570813803, 27.125263910761458  L 163.9934340814938, 27.345059154602932  L 160.6204224548496, 27.56485439844441  L 160.26242508810964, 30.240775135844107  L 163.01793096796334, 30.245328436664575  L 165.773436847817, 30.249881737485044  L 168.5289427276707, 30.254435038305513  L 171.28444860752438, 30.25898833912598  L 171.5735177469837, 33.65332319025104  L 168.62505923245337, 33.47482365651072  L 165.67660071792304, 33.29632412277041  L 162.7281422033927, 33.11782458903009  L 159.77968368886238, 32.93932505528978  L 159.1879816357217, 35.674827597252666  L 162.29872410110653, 36.02298855444902  L 165.40946656649135, 36.37114951164538  L 168.5202090318762, 36.71931046884173  L 171.630951497261, 37.06747142603809  L 171.48228385724093, 40.484516119804795  L 168.23717665606014, 39.97776742351094  L 164.99206945487938, 39.47101872721708  L 161.7469622536986, 38.96427003092322  L 158.50185505251784, 38.45752133462936  L 157.73561546541086, 41.29410956439254  L 160.4191470570243, 41.81350277567257  L 163.10267864863772, 42.332895986952586  L 165.78621024025117, 42.852289198232604  L 168.4697418318646, 43.37168240951263  L 171.15327342347803, 43.89107562079265  L 170.6692697404696, 47.276609390375484  L 167.91621248289934, 46.65897840657691  L 165.16315522532906, 46.04134742277833  L 162.41009796775882, 45.42371643897975  L 159.65704071018857, 44.806085455181176  L 156.90398345261832, 44.1884544713826  L 156.02242818230852, 47.142242252695105  L 158.8289172983992, 47.84034437769047  L 161.63540641448992, 48.53844650268584  L 164.4418955305806, 49.236548627681195  L 167.24838464667133, 49.93465075267656  L 170.054873762762, 50.632752877671926  L 169.33378920179447, 53.95276097404113  L 166.48849457458698, 53.193316711869926  L 163.64319994737951, 52.43387244969873  L 160.79790532017205, 51.67442818752753  L 157.95261069296456, 50.91498392535634  L 155.1073160657571, 50.15553966318514  L 154.17595191774285, 53.22721972014297  L 157.04651780729483, 54.02799223779577  L 159.91708369684684, 54.82876475544858  L 162.78764958639883, 55.629537273101384  L 165.65821547595084, 56.430309790754194  L 168.52878136550285, 57.231082308407  L 167.66168563969393, 60.463059067334555  L 164.7786626067899, 59.641499630511206  L 161.89563957388586, 58.819940193687856  L 159.0126165409818, 57.998380756864506  L 156.1295935080778, 57.17682132004116  L 153.24657047517374, 56.35526188321781  L 152.33831436030607, 59.536940932665445  L 155.2213373932101, 60.358500369488794  L 158.10436042611414, 61.180059806312144  L 160.9873834590182, 62.001619243135494  L 163.8704064919222, 62.82317867995884  L 166.75342952482626, 63.64473811678219  L 165.82404808225715, 66.77278027985702  L 162.95348219270517, 65.97200776220421  L 160.08291630315316, 65.17123524455141  L 157.21235041360117, 64.37046272689861  L 154.34178452404916, 63.5696902092458  L 151.47121863449715, 62.768917691592996  L 150.66621079820553, 66.04723902595887  L 153.51150542541302, 66.80668328813007  L 156.35680005262049, 67.56612755030127  L 159.20209467982795, 68.32557181247248  L 162.04738930703544, 69.08501607464368  L 164.8926839342429, 69.84446033681488  L 163.97757181769148, 72.8577577473049  L 161.1710827016008, 72.15965562230954  L 158.36459358551008, 71.46155349731417  L 155.5581044694194, 70.76345137231881  L 152.75161535332867, 70.06534924732344  L 149.945126237238, 69.36724712232808  L 149.3307302595304, 72.72339060962452  L 152.08378751710066, 73.34102159342311  L 154.83684477467094, 73.95865257722167  L 157.58990203224118, 74.57628356102025  L 160.34295928981143, 75.19391454481882  L 163.09601654738168, 75.8115455286174  L 162.26438453458914, 78.70589043560747  L 159.5808529429757, 78.18649722432745  L 156.89732135136228, 77.66710401304744  L 154.21378975974883, 77.1477108017674  L 151.5302581681354, 76.62831759048738  L 148.84672657652197, 76.10892437920737  L 148.51771614275907, 79.51548388019522  L 151.76282334393986, 80.02223257648907  L 155.00793054512062, 80.52898127278293  L 158.2530377463014, 81.03572996907678  L 161.49814494748216, 81.54247866537064  L 160.8120183642783, 84.32517240274733  L 157.70127589889347, 83.97701144555097  L 154.59053343350865, 83.62885048835462  L 151.4797909681238, 83.28068953115826  L 148.369048502739, 82.9325285739619  L 148.4264822530163, 86.34667680974897  L 151.37494076754663, 86.52517634348928  L 154.32339928207696, 86.7036758772296  L 157.2718577966073, 86.88217541096992  L 160.22031631113762, 87.06067494471023  L 159.73757491189036, 89.75922486415588  L 156.98206903203666, 89.75467156333542  L 154.226563152183, 89.75011826251495  L 151.4710572723293, 89.74556496169447  L 148.71555139247562, 89.74101166087401  L 149.26054266521774, 93.09453133308003  L 152.63355429186197, 92.87473608923855  L 156.00656591850617, 92.65494084539708  L 159.3795775451504, 92.4351456015556  L 159.16478774098647, 95.10695867809531  L 156.13754604862055, 95.53198443586193  L 153.11030435625463, 95.95701019362856  L 150.08306266388874, 96.38203595139518  L 151.20034944163774, 99.57482834412023  L 153.83891215074655, 98.98211319997634  L 156.47747485985533, 98.38939805583243  L 159.11603756896415, 97.79668291168854  L 159.26204784805762, 100.52800000458384  L 155.9429000751315, 101.58527422990235  L 152.62375230220536, 102.64254845522086  L 154.35804492971073, 105.55614280037457  L 156.9980799732866, 104.43971394384619  L 159.63811501686243, 103.3232850873178  L 160.28531961899807, 106.20006067959572  L 156.40221690324918, 108.29141050609034  L 158.75192455849324, 110.83205029433785  L 161.24807544150676, 109.16794970566215 " style="stroke-width:0.3;stroke-linejoin:round;stroke-linecap:round;fill:none;stroke:#8c5290;marker-start:url(#marker_8c5290);marker-mid:url(#marker_8c5290);marker-end:url(#marker_8c5290);"/>
    <path d="M 188.75192455849324, 10.832050294337844  L 190.1851889286128, 13.260892647040022  L 191.71649739876887, 15.566642651574893  L 193.36909843647652, 17.851503702525775  L 195.14484108318368, 20.206402784391273  L 197.02778830115957, 22.703379151555218  L 198.9902217795351, 25.39145265016655  L 200.99910472733393, 28.296283977767384  L 199.79471996220815, 31.35130318089633  L 198.1894027971744, 34.252455762753655  L 196.24550777586498, 36.993435955397146  L 194.02109324056684, 39.58199667958053  L 191.56923202485862, 42.036099866221136  L 188.93819844182067, 44.3807857190916  L 186.17213796457605, 46.645796751949256  L 187.36466568885575, 49.92950741589803  L 188.57795418012273, 53.32446126689903  L 189.80241889557257, 56.79254196106968  L 191.03020422961515, 60.29434406560433  L 192.25426594702716, 63.789898122277926  L 193.46747005644838, 67.23929523646686  L 194.66169025782418, 70.60331924737238  L 191.8288373739213, 72.8642114127268  L 189.0990150912862, 75.18342843137083  L 186.5139596954175, 77.59290498286455  L 184.11882986608123, 80.12126279755034  L 181.96306514977135, 82.79198294313643  L 180.10099533804268, 85.62090706207724  L 178.5919188018798, 88.61297664413881  L 180.5025501212753, 91.64916125828685  L 182.38364471005673, 94.46883211360377  L 184.2023284537973, 97.08212693119168  L 185.9267340872989, 99.52053172814983  L 187.53159357945933, 101.83900741094118  L 189.00474027502855, 104.1150377389161  L 190.35287541763753, 106.44383808563917  L 190.89148245821912, 109.40567836118726  L 189.27674672513686, 107.03437662028078  L 187.5622649274337, 104.75167695793411  L 185.73020954758763, 102.45798518400723  L 183.7835837463337, 100.06666270306762  L 181.74209494388356, 97.51111476569785  L 179.6359117308731, 94.74826258606313  L 180.5025501212753, 91.64916125828688  L 181.81864127370392, 88.68441699406854  L 183.52019906760853, 85.87418141241547  L 185.54591929849872, 83.2211451460693  L 187.83898365278512, 80.71474384328859  L 190.34757625486526, 78.33489528469316  L 193.02458802507243, 76.05500013044599  L 191.8288373739213, 72.86421141272683  L 190.60897836446432, 69.53766592083156  L 189.37662158330616, 66.11178222973508  L 188.14089626182772, 62.625017955582734  L 186.90938731115452, 59.116967803187  L 185.6890492103731, 55.62766179437448  L 184.4871057069805, 52.196948260167275  L 187.36466568885575, 49.92950741589806  L 190.17018728758137, 47.625780422597124  L 192.86377137560694, 45.252357418166746  L 195.40284858430638, 42.77809016804976  L 197.7412470272707, 40.1754777253188  L 199.82836192459231, 37.422598158330004  L 201.60860652674026, 34.50573011309187  L 199.79471996220815, 31.351303180896345  L 197.9957950301155, 28.4053935056589  L 196.24248880035148, 25.67088312262593  L 194.56755479124584, 23.132366986061378  L 193.00169074221847, 20.752533759309046  L 191.5677144046048, 18.470481475591836  L 190.27402205117403, 16.203281870592882  L 190.1851889286128, 13.260892647040011  L 189.46511052506852, 10.35659298328765  L 191.2613176211135, 12.670354112398396  L 193.1589727463637, 14.93000343255687  L 195.17048246834824, 17.23252592945974  L 197.2879914241489, 19.6602718094735  L 199.4880218110733, 22.274391317049062  L 198.9902217795351, 25.391452650166585  L 197.9957950301155, 28.4053935056589  L 196.56799749038402, 31.279862830966657  L 194.77019906760856, 33.99918141241545  L 192.66265362713764, 36.564273752464274  L 190.30093945386295, 38.98851563384226  L 187.73561546541086, 41.294109564392514  L 188.93819844182067, 44.380785719091556  L 190.1701872875814, 47.6257804225971  L 191.4173775822156, 50.995160742438856  L 192.66880265326498, 54.451974273630796  L 193.91578858077202, 57.95742212776484  L 195.15102114807584, 61.47172032802162  L 196.3676356322266, 64.95477828897313  L 193.4674700564484, 67.23929523646684  L 190.60897836446435, 69.53766592083153  L 187.83078805091594, 71.88422774207899  L 185.17344215749995, 74.31185673229568  L 182.68034313596974, 76.85091468103595  L 180.39867607937737, 79.52778175181207  L 178.38021100104402, 82.36282074020353  L 180.10099533804268, 85.62090706207724  L 181.81864127370392, 88.6844169940685  L 183.50585981849372, 91.54005173039535  L 185.13137768924034, 94.18940164114443  L 186.662561963711, 96.65313909668554  L 188.06988442826412, 98.97440075323206  L 189.33297761133105, 101.22002963787513  L 189.00474027502855, 104.1150377389161  L 189.27674672513686, 107.03437662028078  L 190.17829649164383, 109.88113567223745  L 188.20061803263616, 107.6249151549224  L 186.11978957983885, 105.38831617695215  L 183.9288255157159, 103.07696295707332  L 181.6404334053685, 100.61279367798544  L 181.74209494388356, 97.5111147656979  L 182.38364471005673, 94.46883211360384  L 183.50585981849372, 91.54005173039539  L 185.04536374552802, 88.75585734399823  L 186.93940279717435, 86.1274557627537  L 189.12877344722608, 83.65030734900216  L 191.55913743948898, 81.30822488902687  L 190.34757625486526, 78.33489528469318  L 189.0990150912862, 75.18342843137088  L 187.83078805091594, 71.88422774207903  L 186.55626647110452, 68.47201259429075  L 185.28577311016392, 64.98426922300332  L 184.0275265766283, 61.46013778888755  L 182.78857039269383, 57.93959154076966  L 185.6890492103731, 55.62766179437448  L 188.57795418012273, 53.32446126689906  L 191.41737758221558, 50.99516074243889  L 194.1682366105867, 48.605764093244986  L 196.78934430939316, 46.123929117241936  L 199.23646514375412, 43.520080469878394  L 201.46140081397456, 40.768958771057  L 199.82836192459234, 37.42259815832999  L 198.1894027971744, 34.252455762753655  L 196.56799749038402, 31.279862830966657  L 194.99248533289705, 28.514503033550394  L 193.49475582116787, 25.95031359508528  L 192.10732128133213, 23.561354820567573  L 190.85854040125326, 21.298664734226787  L 191.5677144046048, 18.470481475591797  L 191.71649739876887, 15.566642651574876  L 191.2613176211135, 12.670354112398396  L 190.1782964916438, 9.881135672237454  L 192.33744631361418, 12.07981557775678  L 194.60144809395857, 14.293364213538863  L 196.9718665002199, 16.613548156393648  L 197.2879914241489, 19.660271809473443  L 197.0277883011596, 22.70337915155526  L 196.24248880035148, 25.67088312262593  L 194.99248533289705, 28.514503033550394  L 193.3412750185599, 31.208422481036973  L 191.3509953380427, 33.74590706207724  L 189.07979947841028, 36.135111549531416  L 190.30093945386292, 38.988515633842255  L 191.5692320248586, 42.03609986622119  L 192.86377137560697, 45.25235741816671  L 194.1682366105867, 48.605764093244986  L 195.47008947557546, 52.06081406897964  L 196.7596511264072, 55.57948728036262  L 198.0291582659715, 59.12230229446001  L 195.1510211480759, 61.47172032802168  L 192.2542659470272, 63.78989812227783  L 189.37662158330622, 66.11178222973507  L 186.55626647110446, 68.47201259429067  L 183.8327387279106, 70.90424407143108  L 181.24786922371368, 73.44028503322048  L 178.84672657652197, 76.1089243792073  L 180.39867607937737, 79.52778175181203  L 181.96306514977135, 82.79198294313633  L 183.52019906760853, 85.87418141241535  L 185.04536374552808, 88.75585734399819  L 186.5091695157122, 91.43094220250386  L 187.87911066842398, 93.90997116868506  L 189.12279547362476, 96.22415126217933  L 188.06988442826412, 98.97440075323202  L 187.53159357945933, 101.83900741094114  L 187.5622649274337, 104.75167695793407  L 188.2006180326361, 107.62491515492235  L 189.46511052506847, 110.35659298328756  L 187.12448934013545, 108.21545368956403  L 184.677314232244, 106.02495539597015  L 183.9288255157159, 103.07696295707332  L 183.7835837463337, 100.06666270306766  L 184.2023284537973, 97.08212693119174  L 185.13137768924034, 94.18940164114449  L 186.50916951571216, 91.43094220250393  L 188.27208621735218, 88.82729769392787  L 190.35860652674026, 86.38073011309187  L 189.12877344722608, 83.65030734900216  L 187.83898365278512, 80.71474384328863  L 186.5139596954175, 77.59290498286458  L 185.17344215749995, 74.31185673229574  L 183.83273872791062, 70.9042440714312  L 182.50355457774467, 67.40635926774996  L 181.19492463702167, 63.85675621627159  L 184.02752657662825, 61.46013778888749  L 186.9093873111545, 59.116967803186995  L 189.80241889557254, 56.79254196106969  L 192.66880265326495, 54.45197427363084  L 195.47008947557538, 52.060814068979724  L 198.166285933592, 49.58574776389283  L 200.7149172431794, 46.99550081631708  L 199.23646514375417, 43.52008046987831  L 197.74124702727073, 40.17547772531876  L 196.24550777586498, 36.99343595539713  L 194.77019906760856, 33.99918141241545  L 193.3412750185599, 31.208422481036973  L 191.98917563567863, 28.623612561441885  L 190.74702284198423, 26.22974406754463  L 192.10732128133208, 23.56135482056758  L 193.00169074221844, 20.752533759309102  L 193.3690984364765, 17.851503702525747  L 193.1589727463637, 14.93000343255687  L 192.33744631361418, 12.07981557775678  L 190.89148245821912, 9.40567836118726  L 193.41357500611488, 11.489277043115164  L 194.6014480939586, 14.293364213538847  L 195.17048246834824, 17.232525929459683  L 195.14484108318368, 20.206402784391233  L 194.56755479124587, 23.132366986061417  L 193.49475582116781, 25.9503135950852  L 191.98917563567863, 28.623612561441885  L 190.11455254673578, 31.136982131107207  L 191.35099533804262, 33.74590706207723  L 192.66265362713762, 36.56427375246418  L 194.02109324056676, 39.5819966795805  L 195.40284858430638, 42.778090168049616  L 196.78934430939321, 46.12392911724185  L 198.16628593359204, 49.58574776389273  L 199.5228013689353, 53.12646739552047  L 196.7596511264073, 55.57948728036254  L 193.91578858077204, 57.95742212776481  L 191.03020422961526, 60.29434406560426  L 188.14089626182778, 62.62501795558262  L 185.2857731101639, 64.98426922300327  L 182.5035545777447, 67.40635926774986  L 179.83468940490528, 69.92426040078324  L 181.24786922371362, 73.44028503322046  L 182.68034313596974, 76.85091468103589  L 184.11882986608117, 80.12126279755026  L 185.5459192984987, 83.2211451460692  L 186.93940279717432, 86.12745576275357  L 188.27208621735215, 88.8272976939278  L 189.51247921293063, 91.32183267461235  L 187.87911066842403, 93.90997116868505  L 186.66256196371103, 96.65313909668548  L 185.92673408729894, 99.52053172814978  L 185.7302095475876, 102.45798518400719  L 186.11978957983882, 105.38831617695206  L 187.1244893401354, 108.21545368956396  L 188.75192455849324, 110.83205029433785 " style="stroke-width:0.3;stroke-linejoin:round;stroke-linecap:round;fill:none;stroke:#61a09c;marker-start:url(#marker_61a09c);marker-mid:url(#marker_61a09c);marker-end:url(#marker_61a09c);"/>
</svg>
