<?xml version="1.0" encoding="utf-8" ?>
<svg xmlns="http://www.w3.org/2000/svg" xmlns:ev="http://www.w3.org/2001/xml-events" xmlns:xlink="http://www.w3.org/1999/xlink" baseProfile="full" height="50mm" version="1.1" viewBox="0,0,200,50" width="200mm">
    <defs>
        <style type="text/css"><![CDATA[
.stitch_line {
    stroke-width: 0.3;
    stroke-linejoin: round;
    stroke-linecap: round;
    fill: none;
}
.sampling_line {
    stroke:#148983;
    stroke-width: 0.5;
    fill: none;
}
.path_handle {
    stroke-width: 0.5;
    stroke-linejoin: round;
    stroke-linecap: round;
    fill:none;
    stroke: #808080;
    marker-start: url(#handles);
    marker-mid: url(#handles);
    marker-end: url(#handles);
}
.path_center_line {
    stroke-width: 0.5;
    stroke-linejoin: round;
    stroke-linecap: round;
    fill: none;
    stroke:#148983;
    stroke-dasharray: 2,1.5;
    stroke-dashoffset: 1;
}
.path_contour {
    stroke: #85c4c1;
    fill-opacity: 0;
    stroke-width: 0.3;
}
.path_direction_line {
    stroke-width: 0.05;
    fill: none;
    stroke: #85c4c1;
}
.text{
    text-anchor: middle;
    dominant-baseline: middle;
    font-family: sans-serif;
    font-size: 1.5mm;
}
.smalltext{
    text-anchor: middle;
    dominant-baseline: middle;
    font-family: sans-serif;
    font-size: 1mm;
}
.color_0 {
    stroke:#148983;
    marker-start:url(#dot_0);
    marker-mid:url(#dot_0);
    marker-end:url(#dot_0);
}
.color_1 {
    stroke:#1873ac;
    marker-start:url(#dot_1);
    marker-mid:url(#dot_1);
    marker-end:url(#dot_1);
}
.color_2 {
    stroke:#8c5290;
    marker-start:url(#dot_2);
    marker-mid:url(#dot_2);
    marker-end:url(#dot_2);
}
.color_3 {
    stroke:#61a09c;
    marker-start:url(#dot_3);
    marker-mid:url(#dot_3);
    marker-end:url(#dot_3);
}
.color_4 {
    stroke:#5ad2f4;
    marker-start:url(#dot_4);
    marker-mid:url(#dot_4);
    marker-end:url(#dot_4);
}
.color_5 {
    stroke:#0f6460;
    marker-start:url(#dot_5);
    marker-mid:url(#dot_5);
    marker-end:url(#dot_5);
}
.color_6 {
    stroke:#0f4668;
    marker-start:url(#dot_6);
    marker-mid:url(#dot_6);
    marker-end:url(#dot_6);
}
.color_7 {
    stroke:#543156;
    marker-start:url(#dot_7);
    marker-mid:url(#dot_7);
    marker-end:url(#dot_7);
}
.color_8 {
    stroke:#487673;
    marker-start:url(#dot_8);
    marker-mid:url(#dot_8);
    marker-end:url(#dot_8);
}
.color_9 {
    stroke:#0c8baf;
    marker-start:url(#dot_9);
    marker-mid:url(#dot_9);
    marker-end:url(#dot_9);
}
]]></style>
        <marker id="dot_0" markerHeight="3.0" markerWidth="3.0" refX="1.5" refY="1.5">
            <circle cx="1.5" cy="1.5" fill="#148983" r="1.5"/>
        </marker>
        <marker id="dot_1" markerHeight="3.0" markerWidth="3.0" refX="1.5" refY="1.5">
            <circle cx="1.5" cy="1.5" fill="#1873ac" r="1.5"/>
        </marker>
        <marker id="dot_2" markerHeight="3.0" markerWidth="3.0" refX="1.5" refY="1.5">
            <circle cx="1.5" cy="1.5" fill="#8c5290" r="1.5"/>
        </marker>
        <marker id="dot_3" markerHeight="3.0" markerWidth="3.0" refX="1.5" refY="1.5">
            <circle cx="1.5" cy="1.5" fill="#61a09c" r="1.5"/>
        </marker>
        <marker id="dot_4" markerHeight="3.0" markerWidth="3.0" refX="1.5" refY="1.5">
            <circle cx="1.5" cy="1.5" fill="#5ad2f4" r="1.5"/>
        </marker>
        <marker id="dot_5" markerHeight="3.0" markerWidth="3.0" refX="1.5" refY="1.5">
            <circle cx="1.5" cy="1.5" fill="#0f6460" r="1.5"/>
        </marker>
        <marker id="dot_6" markerHeight="3.0" markerWidth="3.0" refX="1.5" refY="1.5">
            <circle cx="1.5" cy="1.5" fill="#0f4668" r="1.5"/>
        </marker>
        <marker id="dot_7" markerHeight="3.0" markerWidth="3.0" refX="1.5" refY="1.5">
            <circle cx="1.5" cy="1.5" fill="#543156" r="1.5"/>
        </marker>
        <marker id="dot_8" markerHeight="3.0" markerWidth="3.0" refX="1.5" refY="1.5">
            <circle cx="1.5" cy="1.5" fill="#487673" r="1.5"/>
        </marker>
        <marker id="dot_9" markerHeight="3.0" markerWidth="3.0" refX="1.5" refY="1.5">
            <circle cx="1.5" cy="1.5" fill="#0c8baf" r="1.5"/>
        </marker>
    </defs>
    <g>
        <path class="stitch_line color_0" d="M 11.118, 22.764  L 10.000, 25.000  L 9.844, 27.821  L 11.957, 25.947  L 14.095, 23.818  L 13.913, 26.831  L 13.718, 30.034  L 15.870, 27.654  L 18.021, 25.025  L 17.826, 28.417  L 17.643, 31.997  L 19.783, 29.123  L 21.899, 26.007  L 21.739, 29.771  L 21.613, 33.716  L 23.334, 31.615  L 24.057, 29.113  L 25.734, 26.780  L 25.997, 29.585  L 25.307, 32.221  L 25.624, 35.199  L 27.283, 32.773  L 27.934, 30.005  L 29.530, 27.359  L 29.868, 30.376  L 29.262, 33.272  L 29.672, 36.453  L 31.244, 33.718  L 31.800, 30.699  L 33.293, 27.758  L 33.729, 30.975  L 33.228, 34.115  L 33.749, 37.485  L 35.213, 34.461  L 35.656, 31.207  L 37.030, 27.991  L 37.581, 31.395  L 37.201, 34.760  L 37.849, 38.305  L 39.191, 35.013  L 39.505, 31.541  L 40.747, 28.070  L 41.489, 30.752  L 41.304, 33.433  L 41.119, 36.113  L 41.965, 38.923  L 43.128, 36.300  L 43.261, 33.547  L 43.393, 30.794  L 44.450, 28.008  L 45.296, 30.799  L 45.217, 33.621  L 45.139, 36.444  L 46.093, 39.350  L 47.150, 36.545  L 47.174, 33.657  L 47.198, 30.768  L 48.146, 27.816  L 49.100, 30.703  L 49.130, 33.655  L 49.161, 36.606  L 50.225, 39.597  L 51.173, 36.627  L 51.087, 33.616  L 51.001, 30.606  L 51.839, 27.503  L 52.903, 30.477  L 53.043, 33.544  L 53.184, 36.610  L 54.357, 39.676  L 55.195, 36.556  L 55.000, 33.438  L 54.805, 30.319  L 55.535, 27.081  L 56.708, 30.131  L 56.957, 33.299  L 57.205, 36.468  L 58.485, 39.599  L 59.214, 36.346  L 58.913, 33.131  L 58.612, 29.916  L 59.237, 26.559  L 60.517, 29.675  L 60.870, 32.933  L 61.222, 36.192  L 62.603, 39.378  L 63.229, 36.007  L 62.826, 32.708  L 62.423, 29.409  L 62.951, 25.946  L 64.332, 29.119  L 64.783, 32.456  L 65.234, 35.793  L 66.709, 39.027  L 67.336, 36.226  L 66.938, 33.528  L 66.540, 30.831  L 66.142, 28.133  L 66.678, 25.253  L 68.045, 27.794  L 68.479, 30.517  L 68.913, 33.241  L 69.346, 35.965  L 70.801, 38.557  L 71.354, 35.678  L 70.886, 32.931  L 70.418, 30.183  L 69.950, 27.435  L 70.421, 24.488  L 71.859, 27.059  L 72.359, 29.829  L 72.859, 32.599  L 73.359, 35.368  L 74.875, 37.983  L 75.361, 35.036  L 74.830, 32.246  L 74.300, 29.456  L 73.770, 26.665  L 74.182, 23.662  L 75.683, 26.257  L 76.242, 29.066  L 76.801, 31.875  L 77.360, 34.683  L 78.930, 37.315  L 79.356, 34.311  L 78.771, 31.486  L 78.186, 28.660  L 77.600, 25.834  L 77.963, 22.783  L 79.521, 25.399  L 80.130, 28.240  L 80.740, 31.081  L 81.349, 33.921  L 82.964, 36.566  L 83.339, 33.515  L 82.707, 30.661  L 82.075, 27.806  L 81.444, 24.952  L 81.766, 21.863  L 83.370, 24.495  L 84.022, 27.361  L 84.674, 30.228  L 85.325, 33.094  L 86.977, 35.749  L 87.308, 32.660  L 86.639, 29.783  L 85.970, 26.906  L 85.300, 24.029  L 85.590, 20.911  L 87.234, 23.556  L 87.919, 26.442  L 88.603, 29.328  L 89.288, 32.214  L 90.967, 34.875  L 91.264, 31.757  L 90.566, 28.863  L 89.869, 25.970  L 89.171, 23.077  L 89.438, 19.938  L 91.111, 22.592  L 91.820, 25.492  L 92.528, 28.392  L 93.237, 31.291  L 94.934, 33.956  L 95.206, 30.818  L 94.489, 27.913  L 93.772, 25.009  L 93.055, 22.105  L 93.309, 18.954  L 95.003, 21.615  L 95.726, 24.523  L 96.448, 27.430  L 97.171, 30.338  L 98.877, 33.005  L 99.133, 29.854  L 98.407, 26.944  L 97.680, 24.034  L 96.954, 21.124  L 97.204, 17.969  L 98.909, 20.634  L 99.636, 23.545  L 100.364, 26.455  L 101.091, 29.366  L 102.796, 32.031  L 103.046, 28.876  L 102.320, 25.966  L 101.593, 23.056  L 100.867, 20.146  L 101.123, 16.995  L 102.829, 19.662  L 103.552, 22.570  L 104.274, 25.477  L 104.997, 28.385  L 106.691, 31.046  L 106.945, 27.895  L 106.228, 24.991  L 105.511, 22.087  L 104.794, 19.182  L 105.066, 16.044  L 106.763, 18.709  L 107.472, 21.608  L 108.180, 24.508  L 108.889, 27.408  L 110.562, 30.062  L 110.829, 26.923  L 110.131, 24.030  L 109.434, 21.137  L 108.736, 18.243  L 109.033, 15.125  L 110.712, 17.786  L 111.397, 20.672  L 112.081, 23.558  L 112.766, 26.444  L 114.410, 29.089  L 114.700, 25.971  L 114.030, 23.094  L 113.361, 20.217  L 112.692, 17.340  L 113.023, 14.251  L 114.675, 16.906  L 115.326, 19.772  L 115.978, 22.639  L 116.630, 25.505  L 118.234, 28.137  L 118.556, 25.048  L 117.925, 22.194  L 117.293, 19.339  L 116.661, 16.485  L 117.036, 13.434  L 118.651, 16.079  L 119.260, 18.919  L 119.870, 21.760  L 120.479, 24.601  L 122.037, 27.217  L 122.400, 24.166  L 121.814, 21.340  L 121.229, 18.514  L 120.644, 15.689  L 121.070, 12.685  L 122.640, 15.317  L 123.199, 18.125  L 123.758, 20.934  L 124.317, 23.743  L 125.818, 26.338  L 126.230, 23.335  L 125.700, 20.544  L 125.170, 17.754  L 124.639, 14.964  L 125.125, 12.017  L 126.641, 14.632  L 127.141, 17.401  L 127.641, 20.171  L 128.141, 22.941  L 129.579, 25.512  L 130.050, 22.565  L 129.582, 19.817  L 129.114, 17.069  L 128.646, 14.322  L 129.199, 11.443  L 130.654, 14.035  L 131.087, 16.759  L 131.521, 19.483  L 131.955, 22.206  L 133.322, 24.747  L 133.858, 21.867  L 133.460, 19.169  L 133.062, 16.472  L 132.664, 13.774  L 133.291, 10.973  L 134.766, 14.207  L 135.217, 17.544  L 135.668, 20.881  L 137.049, 24.054  L 137.577, 20.591  L 137.174, 17.292  L 136.771, 13.993  L 137.397, 10.622  L 138.778, 13.808  L 139.130, 17.067  L 139.483, 20.325  L 140.763, 23.441  L 141.388, 20.084  L 141.087, 16.869  L 140.786, 13.654  L 141.515, 10.401  L 142.795, 13.532  L 143.043, 16.701  L 143.292, 19.869  L 144.465, 22.919  L 145.195, 19.681  L 145.000, 16.562  L 144.805, 13.444  L 145.643, 10.324  L 146.816, 13.390  L 146.957, 16.456  L 147.097, 19.523  L 148.161, 22.497  L 148.999, 19.394  L 148.913, 16.384  L 148.827, 13.373  L 149.775, 10.403  L 150.839, 13.394  L 150.870, 16.345  L 150.900, 19.297  L 151.854, 22.184  L 152.802, 19.232  L 152.826, 16.343  L 152.850, 13.455  L 153.907, 10.650  L 154.861, 13.556  L 154.783, 16.379  L 154.704, 19.201  L 155.550, 21.992  L 156.607, 19.206  L 156.739, 16.453  L 156.872, 13.700  L 158.035, 11.077  L 158.881, 13.887  L 158.696, 16.567  L 158.511, 19.248  L 159.253, 21.930  L 160.495, 18.459  L 160.809, 14.987  L 162.151, 11.695  L 162.799, 15.240  L 162.419, 18.605  L 162.970, 22.009  L 164.344, 18.793  L 164.787, 15.539  L 166.251, 12.515  L 166.772, 15.885  L 166.271, 19.025  L 166.707, 22.242  L 168.200, 19.301  L 168.756, 16.282  L 170.328, 13.547  L 170.738, 16.728  L 170.132, 19.624  L 170.470, 22.641  L 172.066, 19.995  L 172.717, 17.227  L 174.376, 14.801  L 174.693, 17.779  L 174.003, 20.415  L 174.266, 23.220  L 175.943, 20.887  L 176.666, 18.385  L 178.387, 16.284  L 178.261, 20.229  L 178.101, 23.993  L 180.217, 20.877  L 182.357, 18.003  L 182.174, 21.583  L 181.979, 24.975  L 184.130, 22.346  L 186.282, 19.966  L 186.087, 23.169  L 185.905, 26.182  L 188.043, 24.053  L 190.156, 22.179  L 190.000, 25.000  L 188.882, 27.236 "/>
    </g>
</svg>
