<?xml version="1.0" encoding="utf-8" ?>
<svg xmlns="http://www.w3.org/2000/svg" xmlns:ev="http://www.w3.org/2001/xml-events" xmlns:xlink="http://www.w3.org/1999/xlink" baseProfile="full" height="50mm" version="1.1" viewBox="0,0,200,50" width="200mm">
    <defs>
        <style type="text/css"><![CDATA[
.stitch_line {
    stroke-width: 0.3;
    stroke-linejoin: round;
    stroke-linecap: round;
    fill: none;
}
.path_center_line {
    fill: none;
    stroke:#808080;
    stroke-width: 0.2;
    stroke-linejoin: round;
    stroke-linecap: round;
}
.path_contour {
    fill: #808080;
    fill-opacity: 0.3;
    stroke: #808080;
    stroke-opacity: 1;
    stroke-width: 0.3;
}
.text{
    text-anchor: middle;
    dominant-baseline: middle;
    font-family: sans-serif;
    font-size: 1.5mm;
}
.smalltext{
    text-anchor: middle;
    dominant-baseline: middle;
    font-family: sans-serif;
    font-size: 1mm;
}
.color_0 {
    stroke:#3bb2d0;
}
.dot_0 {
    marker-start:url(#dot_0);
    marker-mid:url(#dot_0);
    marker-end:url(#dot_0);
}
]]></style>
        <marker id="dot_0" markerHeight="3.0" markerWidth="3.0" refX="1.5" refY="1.5">
            <circle cx="1.5" cy="1.5" fill="#3bb2d0" r="1.5"/>
        </marker>
    </defs>
    <g>
        <path class="stitch_line color_0 dot_0" d="M 9.553, 25.894  L 13.578, 22.317  L 12.683, 19.633  L 10.000, 20.528  L 9.553, 25.894  L 14.914, 26.173  L 14.792, 31.557  L 12.168, 32.612  L 11.113, 29.988  L 14.914, 26.173  L 18.828, 29.848  L 22.386, 25.805  L 21.171, 23.251  L 18.617, 24.467  L 18.828, 29.848  L 24.183, 29.464  L 24.731, 34.821  L 22.258, 36.194  L 20.885, 33.721  L 24.183, 29.464  L 28.524, 32.623  L 31.552, 28.170  L 30.029, 25.787  L 27.646, 27.310  L 28.524, 32.623  L 33.791, 31.582  L 34.987, 36.833  L 32.700, 38.497  L 31.036, 36.209  L 33.791, 31.582  L 38.479, 34.199  L 40.963, 29.421  L 39.171, 27.233  L 36.983, 29.025  L 38.479, 34.199  L 43.593, 32.561  L 45.366, 37.646  L 43.278, 39.554  L 41.370, 37.466  L 43.593, 32.561  L 48.534, 34.659  L 50.511, 29.650  L 48.501, 27.659  L 46.511, 29.669  L 48.534, 34.659  L 53.461, 32.522  L 55.708, 37.417  L 53.810, 39.514  L 51.713, 37.616  L 53.461, 32.522  L 58.572, 34.167  L 60.113, 29.007  L 57.941, 27.195  L 56.130, 29.367  L 58.572, 34.167  L 63.310, 31.640  L 65.921, 36.350  L 64.187, 38.585  L 61.952, 36.851  L 63.310, 31.640  L 68.525, 32.919  L 69.723, 27.669  L 67.437, 26.004  L 65.772, 28.290  L 68.525, 32.919  L 73.100, 30.107  L 75.972, 34.663  L 74.366, 36.992  L 72.038, 35.387  L 73.100, 30.107  L 78.374, 31.115  L 79.325, 25.815  L 76.962, 24.259  L 75.407, 26.621  L 78.374, 31.115  L 82.826, 28.113  L 85.868, 32.556  L 84.352, 34.944  L 81.964, 33.428  L 82.826, 28.113  L 88.131, 28.943  L 88.927, 23.617  L 86.520, 22.131  L 85.034, 24.538  L 88.131, 28.943  L 92.507, 25.831  L 95.640, 30.211  L 94.174, 32.629  L 91.755, 31.163  L 92.507, 25.831  L 97.825, 26.574  L 98.555, 21.239  L 96.130, 19.782  L 94.674, 22.207  L 97.825, 26.574  L 102.175, 23.426  L 105.326, 27.793  L 103.870, 30.218  L 101.445, 28.761  L 102.175, 23.426  L 107.493, 24.169  L 108.245, 18.837  L 105.826, 17.371  L 104.360, 19.789  L 107.493, 24.169  L 111.869, 21.057  L 114.966, 25.462  L 113.480, 27.869  L 111.073, 26.383  L 111.869, 21.057  L 117.174, 21.887  L 118.036, 16.572  L 115.648, 15.056  L 114.132, 17.444  L 117.174, 21.887  L 121.626, 18.885  L 124.593, 23.379  L 123.038, 25.741  L 120.675, 24.185  L 121.626, 18.885  L 126.900, 19.893  L 127.962, 14.613  L 125.634, 13.008  L 124.028, 15.337  L 126.900, 19.893  L 131.475, 17.081  L 134.228, 21.710  L 132.563, 23.996  L 130.277, 22.331  L 131.475, 17.081  L 136.690, 18.360  L 138.048, 13.149  L 135.813, 11.415  L 134.079, 13.650  L 136.690, 18.360  L 141.428, 15.833  L 143.870, 20.633  L 142.059, 22.805  L 139.887, 20.993  L 141.428, 15.833  L 146.539, 17.478  L 148.287, 12.384  L 146.190, 10.486  L 144.292, 12.583  L 146.539, 17.478  L 151.466, 15.341  L 153.489, 20.331  L 151.499, 22.341  L 149.489, 20.350  L 151.466, 15.341  L 156.407, 17.439  L 158.630, 12.534  L 156.722, 10.446  L 154.634, 12.354  L 156.407, 17.439  L 161.521, 15.801  L 163.017, 20.975  L 160.829, 22.767  L 159.037, 20.579  L 161.521, 15.801  L 166.209, 18.418  L 168.964, 13.791  L 167.300, 11.503  L 165.013, 13.167  L 166.209, 18.418  L 171.476, 17.377  L 172.354, 22.690  L 169.971, 24.213  L 168.448, 21.830  L 171.476, 17.377  L 175.817, 20.536  L 179.115, 16.279  L 177.742, 13.806  L 175.269, 15.179  L 175.817, 20.536  L 181.172, 20.152  L 181.383, 25.533  L 178.829, 26.749  L 177.614, 24.195  L 181.172, 20.152  L 185.086, 23.827  L 188.887, 20.012  L 187.832, 17.388  L 185.208, 18.443  L 185.086, 23.827  L 190.447, 24.106  L 190.000, 29.472  L 187.317, 30.367  L 186.422, 27.683  L 190.447, 24.106 "/>
    </g>
</svg>
