<?xml version="1.0" encoding="utf-8" ?>
<svg xmlns="http://www.w3.org/2000/svg" xmlns:ev="http://www.w3.org/2001/xml-events" xmlns:xlink="http://www.w3.org/1999/xlink" baseProfile="full" height="50mm" version="1.1" viewBox="0,0,200,50" width="200mm">
    <defs>
        <style type="text/css"><![CDATA[
.stitch_line {
    stroke-width: 0.3;
    stroke-linejoin: round;
    stroke-linecap: round;
    fill: none;
}
.path_center_line {
    fill: none;
    stroke:#808080;
    stroke-width: 0.2;
    stroke-linejoin: round;
    stroke-linecap: round;
}
.path_contour {
    fill: #808080;
    fill-opacity: 0.3;
    stroke: #808080;
    stroke-opacity: 1;
    stroke-width: 0.3;
}
.text{
    text-anchor: middle;
    dominant-baseline: middle;
    font-family: sans-serif;
    font-size: 1.5mm;
}
.smalltext{
    text-anchor: middle;
    dominant-baseline: middle;
    font-family: sans-serif;
    font-size: 1mm;
}
.color_0 {
    stroke:#3bb2d0;
}
.dot_0 {
    marker-start:url(#dot_0);
    marker-mid:url(#dot_0);
    marker-end:url(#dot_0);
}
]]></style>
        <marker id="dot_0" markerHeight="3.0" markerWidth="3.0" refX="1.5" refY="1.5">
            <circle cx="1.5" cy="1.5" fill="#3bb2d0" r="1.5"/>
        </marker>
    </defs>
    <g>
        <path class="stitch_line color_0 dot_0" d="M 10.000, 25.000  L 11.931, 26.047  L 14.611, 27.421  L 17.337, 28.717  L 20.112, 29.927  L 22.937, 31.039  L 25.809, 32.043  L 28.725, 32.932  L 31.681, 33.703  L 34.670, 34.355  L 37.684, 34.896  L 40.719, 35.331  L 43.769, 35.667  L 46.829, 35.911  L 49.897, 36.069  L 52.969, 36.150  L 56.041, 36.150  L 59.111, 36.055  L 62.171, 35.854  L 65.217, 35.541  L 68.245, 35.123  L 71.254, 34.616  L 74.247, 34.049  L 77.228, 33.453  L 80.205, 32.859  L 83.182, 32.288  L 86.161, 31.739  L 89.137, 31.191  L 92.113, 30.657  L 95.091, 30.151  L 98.069, 29.657  L 101.035, 29.140  L 103.980, 28.565  L 106.897, 27.902  L 109.782, 27.141  L 112.639, 26.288  L 115.475, 25.364  L 118.302, 24.405  L 121.128, 23.448  L 123.963, 22.520  L 126.810, 21.636  L 129.673, 20.814  L 132.557, 20.092  L 135.464, 19.498  L 138.393, 19.046  L 141.335, 18.732  L 144.284, 18.537  L 147.234, 18.433  L 150.180, 18.398  L 153.121, 18.418  L 156.057, 18.488  L 158.989, 18.618  L 161.917, 18.821  L 164.837, 19.110  L 167.743, 19.516  L 170.627, 20.055  L 173.482, 20.726  L 176.307, 21.514  L 179.102, 22.400  L 181.870, 23.368  L 184.616, 24.406  L 187.342, 25.507  L 189.324, 26.352  L 188.232, 25.920  L 185.471, 24.893  L 182.693, 23.947  L 179.898, 23.083  L 177.086, 22.300  L 174.261, 21.594  L 171.425, 20.949  L 168.580, 20.342  L 165.727, 19.751  L 162.860, 19.164  L 159.973, 18.587  L 157.060, 18.047  L 154.118, 17.587  L 151.152, 17.248  L 148.168, 17.061  L 145.178, 17.031  L 142.188, 17.138  L 139.202, 17.347  L 136.217, 17.609  L 133.229, 17.887  L 130.234, 18.158  L 127.231, 18.419  L 124.221, 18.685  L 121.210, 18.982  L 118.208, 19.342  L 115.222, 19.793  L 112.263, 20.360  L 109.336, 21.060  L 106.445, 21.893  L 103.583, 22.834  L 100.735, 23.816  L 97.882, 24.775  L 95.017, 25.678  L 92.134, 26.514  L 89.237, 27.287  L 86.327, 28.010  L 83.410, 28.701  L 80.490, 29.375  L 77.568, 30.046  L 74.645, 30.722  L 71.721, 31.404  L 68.791, 32.087  L 65.851, 32.747  L 62.894, 33.348  L 59.916, 33.849  L 56.918, 34.228  L 53.904, 34.481  L 50.881, 34.616  L 47.854, 34.652  L 44.824, 34.609  L 41.794, 34.505  L 38.761, 34.350  L 35.725, 34.144  L 32.684, 33.874  L 29.642, 33.517  L 26.610, 33.039  L 23.602, 32.402  L 20.634, 31.586  L 17.721, 30.595  L 14.868, 29.441  L 12.084, 28.137  L 9.202, 26.595  L 10.245, 27.239  L 12.917, 28.787  L 15.662, 30.222  L 18.478, 31.532  L 21.361, 32.708  L 24.302, 33.743  L 27.292, 34.636  L 30.323, 35.385  L 33.387, 35.983  L 36.472, 36.448  L 39.569, 36.807  L 42.672, 37.079  L 45.778, 37.275  L 48.884, 37.382  L 51.989, 37.379  L 55.083, 37.234  L 58.159, 36.921  L 61.205, 36.421  L 64.212, 35.722  L 67.173, 34.831  L 70.086, 33.783  L 72.957, 32.620  L 75.790, 31.369  L 78.599, 30.099  L 81.406, 28.889  L 84.231, 27.807  L 87.088, 26.881  L 89.980, 26.105  L 92.899, 25.436  L 95.831, 24.812  L 98.761, 24.165  L 101.673, 23.443  L 104.563, 22.626  L 107.439, 21.740  L 110.309, 20.816  L 113.174, 19.848  L 116.041, 18.857  L 118.922, 17.885  L 121.828, 16.985  L 124.767, 16.195  L 127.740, 15.532  L 130.742, 14.989  L 133.765, 14.542  L 136.802, 14.162  L 139.851, 13.828  L 142.909, 13.537  L 145.979, 13.311  L 149.061, 13.194  L 152.150, 13.215  L 155.239, 13.370  L 158.323, 13.644  L 161.395, 14.016  L 164.455, 14.477  L 167.499, 15.030  L 170.519, 15.689  L 173.509, 16.474  L 176.455, 17.398  L 179.349, 18.463  L 182.184, 19.665  L 184.956, 20.990  L 187.661, 22.427  L 190.464, 24.071  L 188.459, 23.119  L 185.651, 21.961  L 182.787, 20.958  L 179.885, 20.080  L 176.967, 19.285  L 174.044, 18.530  L 171.118, 17.789  L 168.182, 17.062  L 165.226, 16.375  L 162.245, 15.764  L 159.238, 15.252  L 156.210, 14.825  L 153.166, 14.475  L 150.108, 14.230  L 147.044, 14.136  L 143.985, 14.235  L 140.946, 14.551  L 137.937, 15.085  L 134.966, 15.810  L 132.032, 16.680  L 129.130, 17.637  L 126.251, 18.631  L 123.388, 19.637  L 120.537, 20.651  L 117.696, 21.671  L 114.850, 22.649  L 111.985, 23.534  L 109.091, 24.296  L 106.165, 24.939  L 103.215, 25.493  L 100.252, 26.007  L 97.291, 26.535  L 94.344, 27.123  L 91.418, 27.797  L 88.512, 28.562  L 85.622, 29.400  L 82.735, 30.273  L 79.840, 31.133  L 76.931, 31.965  L 74.008, 32.762  L 71.066, 33.511  L 68.103, 34.201  L 65.121, 34.831  L 62.119, 35.400  L 59.097, 35.913  L 56.057, 36.369  L 52.996, 36.758  L 49.914, 37.062  L 46.814, 37.255  L 43.700, 37.307  L 40.581, 37.203  L 37.465, 36.938  L 34.363, 36.509  L 31.284, 35.922  L 28.237, 35.187  L 25.226, 34.319  L 22.258, 33.329  L 19.336, 32.225  L 16.467, 31.006  L 13.659, 29.668  L 10.921, 28.208  L 8.968, 27.064 "/>
    </g>
</svg>
