<?xml version="1.0" encoding="utf-8" ?>
<svg xmlns="http://www.w3.org/2000/svg" xmlns:ev="http://www.w3.org/2001/xml-events" xmlns:xlink="http://www.w3.org/1999/xlink" baseProfile="full" height="50mm" version="1.1" viewBox="0,0,200,50" width="200mm">
    <defs>
        <style type="text/css"><![CDATA[
.stitch_line {
    stroke-width: 0.3;
    stroke-linejoin: round;
    stroke-linecap: round;
    fill: none;
}
.path_center_line {
    fill: none;
    stroke:#808080;
    stroke-width: 0.2;
    stroke-linejoin: round;
    stroke-linecap: round;
}
.path_contour {
    fill: #808080;
    fill-opacity: 0.3;
    stroke: #808080;
    stroke-opacity: 1;
    stroke-width: 0.3;
}
.text{
    text-anchor: middle;
    dominant-baseline: middle;
    font-family: sans-serif;
    font-size: 1.5mm;
}
.smalltext{
    text-anchor: middle;
    dominant-baseline: middle;
    font-family: sans-serif;
    font-size: 1mm;
}
.color_0 {
    stroke:#3bb2d0;
}
.dot_0 {
    marker-start:url(#dot_0);
    marker-mid:url(#dot_0);
    marker-end:url(#dot_0);
}
]]></style>
        <marker id="dot_0" markerHeight="3.0" markerWidth="3.0" refX="1.5" refY="1.5">
            <circle cx="1.5" cy="1.5" fill="#3bb2d0" r="1.5"/>
        </marker>
    </defs>
    <g>
        <path class="stitch_line color_0 dot_0" d="M 11.118, 22.764  L 10.000, 25.000  L 8.882, 27.236  L 10.648, 28.332  L 11.378, 26.780  L 12.959, 23.418  L 14.807, 24.029  L 14.030, 25.790  L 12.447, 29.382  L 14.279, 30.386  L 15.471, 27.491  L 16.663, 24.596  L 18.525, 25.119  L 18.048, 26.363  L 16.976, 29.165  L 16.143, 31.342  L 18.036, 32.249  L 18.546, 30.809  L 19.548, 27.981  L 20.392, 25.598  L 22.265, 26.033  L 21.111, 29.569  L 19.958, 33.105  L 21.907, 33.909  L 22.738, 31.125  L 23.597, 28.250  L 24.142, 26.424  L 26.023, 26.771  L 25.214, 29.751  L 24.428, 32.646  L 23.881, 34.661  L 25.878, 35.360  L 26.179, 34.131  L 26.892, 31.217  L 27.606, 28.303  L 27.907, 27.074  L 29.793, 27.335  L 29.272, 29.716  L 28.631, 32.646  L 27.896, 36.005  L 29.934, 36.596  L 30.428, 34.038  L 30.998, 31.092  L 31.682, 27.552  L 33.572, 27.728  L 33.278, 29.472  L 32.780, 32.430  L 32.282, 35.389  L 31.988, 37.133  L 34.057, 37.616  L 34.618, 33.729  L 35.045, 30.760  L 35.463, 27.863  L 37.355, 27.959  L 37.225, 29.031  L 36.867, 32.010  L 36.508, 34.988  L 36.139, 38.046  L 38.232, 38.424  L 38.448, 36.205  L 38.739, 33.219  L 39.030, 30.234  L 39.247, 28.015  L 41.139, 28.033  L 40.886, 31.397  L 40.661, 34.389  L 40.436, 37.380  L 40.333, 38.750  L 42.441, 39.025  L 42.629, 35.518  L 42.790, 32.522  L 42.950, 29.526  L 43.031, 28.016  L 44.923, 27.962  L 44.837, 30.608  L 44.739, 33.607  L 44.640, 36.605  L 44.554, 39.251  L 46.669, 39.429  L 46.692, 37.652  L 46.730, 34.652  L 46.767, 31.652  L 46.815, 27.875  L 48.706, 27.755  L 48.719, 29.658  L 48.740, 32.658  L 48.760, 35.658  L 48.786, 39.560  L 50.903, 39.647  L 50.827, 36.625  L 50.750, 33.625  L 50.674, 30.626  L 50.597, 27.604  L 52.488, 27.423  L 52.537, 28.561  L 52.667, 31.558  L 52.797, 34.556  L 52.926, 37.553  L 53.019, 39.690  L 55.132, 39.691  L 55.056, 38.443  L 54.875, 35.449  L 54.694, 32.454  L 54.513, 29.460  L 54.378, 27.214  L 56.267, 26.978  L 56.524, 30.324  L 56.754, 33.315  L 56.984, 36.306  L 57.241, 39.653  L 59.346, 39.577  L 59.120, 37.129  L 58.843, 34.142  L 58.567, 31.155  L 58.291, 28.167  L 58.157, 26.716  L 60.046, 26.429  L 60.319, 28.970  L 60.639, 31.952  L 60.959, 34.935  L 61.279, 37.918  L 61.445, 39.464  L 63.538, 39.317  L 63.098, 35.697  L 62.737, 32.719  L 62.375, 29.741  L 61.936, 26.120  L 63.825, 25.790  L 64.057, 27.509  L 64.458, 30.482  L 64.858, 33.455  L 65.259, 36.428  L 65.624, 39.138  L 67.703, 38.928  L 67.438, 37.131  L 67.001, 34.163  L 66.563, 31.195  L 66.126, 28.227  L 65.715, 25.440  L 67.606, 25.071  L 68.219, 28.917  L 68.690, 31.880  L 69.162, 34.843  L 69.775, 38.689  L 71.838, 38.424  L 71.339, 35.497  L 70.836, 32.540  L 70.332, 29.583  L 69.828, 26.625  L 69.498, 24.685  L 71.391, 24.283  L 71.931, 27.271  L 72.464, 30.223  L 72.997, 33.176  L 73.531, 36.128  L 73.893, 38.132  L 75.940, 37.817  L 75.734, 36.736  L 75.173, 33.789  L 74.612, 30.842  L 74.051, 27.895  L 73.491, 24.948  L 73.285, 23.866  L 75.181, 23.437  L 75.603, 25.555  L 76.189, 28.497  L 76.775, 31.439  L 77.361, 34.382  L 77.978, 37.480  L 80.008, 37.123  L 79.559, 34.955  L 78.950, 32.018  L 78.341, 29.080  L 77.731, 26.143  L 77.079, 22.995  L 78.979, 22.543  L 79.244, 23.779  L 79.875, 26.712  L 80.505, 29.645  L 81.135, 32.578  L 81.765, 35.511  L 82.030, 36.747  L 84.043, 36.353  L 83.328, 33.123  L 82.679, 30.194  L 82.030, 27.265  L 81.381, 24.336  L 80.882, 22.082  L 82.788, 21.613  L 83.531, 24.878  L 84.196, 27.804  L 84.862, 30.729  L 85.527, 33.654  L 86.049, 35.944  L 88.046, 35.521  L 87.732, 34.173  L 87.052, 31.251  L 86.371, 28.329  L 85.691, 25.407  L 85.011, 22.485  L 84.697, 21.137  L 86.610, 20.656  L 87.168, 23.005  L 87.860, 25.924  L 88.553, 28.843  L 89.246, 31.762  L 90.035, 35.085  L 92.016, 34.637  L 91.444, 32.264  L 90.741, 29.348  L 90.037, 26.432  L 89.333, 23.515  L 88.527, 20.170  L 90.448, 19.682  L 90.795, 21.102  L 91.507, 24.016  L 92.219, 26.931  L 92.931, 29.845  L 93.644, 32.759  L 93.991, 34.180  L 95.958, 33.713  L 95.124, 30.336  L 94.405, 27.423  L 93.686, 24.511  L 92.967, 21.598  L 92.373, 19.192  L 94.304, 18.701  L 95.146, 22.089  L 95.870, 25.000  L 96.593, 27.911  L 97.317, 30.823  L 97.918, 33.240  L 99.872, 32.760  L 99.509, 31.307  L 98.782, 28.397  L 98.056, 25.486  L 97.329, 22.575  L 96.602, 19.665  L 96.240, 18.212  L 98.181, 17.724  L 98.787, 20.149  L 99.515, 23.060  L 100.243, 25.970  L 100.970, 28.881  L 101.819, 32.276  L 103.760, 31.788  L 103.156, 29.365  L 102.429, 26.455  L 101.702, 23.544  L 100.976, 20.633  L 100.128, 17.240  L 102.082, 16.760  L 102.442, 18.207  L 103.165, 21.118  L 103.889, 24.030  L 104.613, 26.941  L 105.337, 29.852  L 105.696, 31.299  L 107.627, 30.808  L 106.793, 27.431  L 106.074, 24.518  L 105.355, 21.606  L 104.636, 18.693  L 104.042, 16.287  L 106.009, 15.820  L 106.831, 19.184  L 107.543, 22.098  L 108.256, 25.012  L 108.968, 27.926  L 109.552, 30.318  L 111.473, 29.830  L 111.136, 28.429  L 110.432, 25.513  L 109.728, 22.596  L 109.025, 19.680  L 108.321, 16.764  L 107.984, 15.363  L 109.965, 14.915  L 110.523, 17.265  L 111.216, 20.184  L 111.909, 23.103  L 112.601, 26.022  L 113.390, 29.344  L 115.303, 28.863  L 114.762, 26.541  L 114.082, 23.619  L 113.402, 20.697  L 112.722, 17.775  L 111.954, 14.479  L 113.951, 14.056  L 114.251, 15.371  L 114.916, 18.296  L 115.582, 21.221  L 116.247, 24.147  L 116.913, 27.072  L 117.212, 28.387  L 119.118, 27.918  L 118.402, 24.687  L 117.754, 21.758  L 117.105, 18.829  L 116.456, 15.900  L 115.957, 13.647  L 117.970, 13.253  L 118.655, 16.444  L 119.285, 19.377  L 119.915, 22.310  L 120.545, 25.243  L 121.021, 27.457  L 122.921, 27.005  L 122.675, 25.816  L 122.066, 22.878  L 121.456, 19.941  L 120.847, 17.003  L 120.238, 14.066  L 119.992, 12.877  L 122.022, 12.520  L 122.444, 14.638  L 123.030, 17.580  L 123.616, 20.522  L 124.202, 23.464  L 124.819, 26.563  L 126.715, 26.134  L 126.322, 24.070  L 125.762, 21.123  L 125.201, 18.176  L 124.640, 15.229  L 124.060, 12.183  L 126.107, 11.868  L 126.291, 12.888  L 126.825, 15.840  L 127.358, 18.792  L 127.892, 21.745  L 128.425, 24.697  L 128.609, 25.717  L 130.502, 25.315  L 130.004, 22.389  L 129.500, 19.432  L 128.996, 16.474  L 128.493, 13.517  L 128.162, 11.576  L 130.225, 11.311  L 130.681, 14.170  L 131.152, 17.132  L 131.624, 20.095  L 132.096, 23.058  L 132.394, 24.929  L 134.285, 24.560  L 133.728, 20.784  L 133.291, 17.816  L 132.853, 14.848  L 132.297, 11.072  L 134.376, 10.862  L 134.607, 12.581  L 135.008, 15.554  L 135.409, 18.527  L 135.810, 21.500  L 136.175, 24.210  L 138.064, 23.880  L 137.866, 22.245  L 137.504, 19.267  L 137.143, 16.288  L 136.781, 13.310  L 136.462, 10.683  L 138.555, 10.536  L 138.934, 14.070  L 139.254, 17.053  L 139.575, 20.036  L 139.954, 23.571  L 141.843, 23.284  L 141.617, 20.837  L 141.341, 17.850  L 141.065, 14.862  L 140.788, 11.875  L 140.654, 10.423  L 142.759, 10.347  L 142.939, 12.697  L 143.169, 15.688  L 143.399, 18.679  L 143.629, 21.670  L 143.733, 23.022  L 145.622, 22.786  L 145.426, 19.542  L 145.245, 16.547  L 145.064, 13.553  L 144.868, 10.309  L 146.981, 10.310  L 147.030, 11.448  L 147.160, 14.445  L 147.290, 17.443  L 147.420, 20.440  L 147.512, 22.577  L 149.403, 22.396  L 149.377, 21.373  L 149.301, 18.374  L 149.224, 15.375  L 149.148, 12.376  L 149.097, 10.353  L 151.214, 10.440  L 151.233, 13.342  L 151.254, 16.342  L 151.274, 19.342  L 151.294, 22.245  L 153.185, 22.125  L 153.207, 20.348  L 153.245, 17.348  L 153.283, 14.348  L 153.331, 10.571  L 155.446, 10.749  L 155.392, 12.395  L 155.294, 15.394  L 155.196, 18.392  L 155.077, 22.038  L 156.969, 21.984  L 157.103, 19.475  L 157.264, 16.480  L 157.424, 13.484  L 157.559, 10.975  L 159.667, 11.250  L 159.414, 14.614  L 159.189, 17.606  L 158.964, 20.597  L 158.861, 21.967  L 160.753, 21.985  L 161.067, 18.771  L 161.358, 15.785  L 161.649, 12.799  L 161.768, 11.576  L 163.861, 11.954  L 163.612, 14.019  L 163.253, 16.998  L 162.894, 19.976  L 162.645, 22.041  L 164.537, 22.137  L 165.097, 18.250  L 165.525, 15.281  L 165.943, 12.384  L 168.012, 12.867  L 167.386, 16.583  L 166.888, 19.542  L 166.428, 22.272  L 168.318, 22.448  L 168.623, 20.872  L 169.192, 17.926  L 169.762, 14.981  L 170.066, 13.404  L 172.104, 13.995  L 171.583, 16.377  L 170.941, 19.307  L 170.207, 22.665  L 172.093, 22.926  L 172.632, 20.726  L 173.345, 17.812  L 174.122, 14.640  L 176.119, 15.339  L 175.834, 16.389  L 175.048, 19.284  L 174.262, 22.179  L 173.977, 23.229  L 175.858, 23.576  L 176.689, 20.791  L 177.548, 17.917  L 178.093, 16.091  L 180.042, 16.895  L 179.199, 19.480  L 178.268, 22.332  L 177.735, 23.967  L 179.608, 24.402  L 180.786, 21.076  L 181.964, 17.751  L 183.857, 18.658  L 183.381, 19.901  L 182.309, 22.703  L 181.475, 24.881  L 183.337, 25.404  L 183.768, 24.358  L 184.910, 21.584  L 185.721, 19.614  L 187.553, 20.618  L 186.373, 23.295  L 185.193, 25.971  L 187.041, 26.582  L 187.771, 25.030  L 189.352, 21.668  L 191.118, 22.764  L 190.447, 24.106  L 188.882, 27.236 "/>
    </g>
</svg>
