<?xml version="1.0" encoding="utf-8" ?>
<svg xmlns="http://www.w3.org/2000/svg" xmlns:ev="http://www.w3.org/2001/xml-events" xmlns:xlink="http://www.w3.org/1999/xlink" baseProfile="full" height="50mm" version="1.1" viewBox="0,0,200,50" width="200mm">
    <defs>
        <style type="text/css"><![CDATA[
.stitch_line {
    stroke-width: 0.3;
    stroke-linejoin: round;
    stroke-linecap: round;
    fill: none;
}
.path_center_line {
    stroke-width: 0.2;
    stroke-linejoin: round;
    stroke-linecap: round;
    fill: none;
    stroke:#333;
}
.path_contour {
    stroke: #ddd;
    fill-opacity: 1;
    fill: #eee;
    stroke-width: 0.3;
}
.text{
    text-anchor: middle;
    dominant-baseline: middle;
    font-family: sans-serif;
    font-size: 1.5mm;
}
.smalltext{
    text-anchor: middle;
    dominant-baseline: middle;
    font-family: sans-serif;
    font-size: 1mm;
}
.color_0 {
    stroke:#148983;
}
.dot_0 {
    marker-start:url(#dot_0);
    marker-mid:url(#dot_0);
    marker-end:url(#dot_0);
}
]]></style>
        <marker id="dot_0" markerHeight="3.0" markerWidth="3.0" refX="1.5" refY="1.5">
            <circle cx="1.5" cy="1.5" fill="#148983" r="1.5"/>
        </marker>
    </defs>
    <g>
        <path class="stitch_line color_0 dot_0" d="M 10.000, 25.000  L 12.951, 26.404  L 15.902, 27.667  L 18.852, 28.795  L 21.803, 29.791  L 24.754, 30.662  L 27.704, 31.417  L 30.653, 32.056  L 33.604, 32.583  L 36.555, 33.003  L 39.506, 33.320  L 42.457, 33.540  L 45.409, 33.668  L 48.361, 33.707  L 51.313, 33.663  L 54.266, 33.540  L 57.218, 33.344  L 60.171, 33.078  L 63.124, 32.748  L 66.077, 32.359  L 69.030, 31.915  L 71.984, 31.421  L 74.937, 30.882  L 77.890, 30.302  L 80.843, 29.687  L 83.796, 29.040  L 86.749, 28.368  L 89.702, 27.674  L 92.655, 26.963  L 95.608, 26.241  L 98.560, 25.511  L 101.512, 24.780  L 104.464, 24.050  L 107.416, 23.328  L 110.368, 22.618  L 113.319, 21.924  L 116.270, 21.252  L 119.220, 20.607  L 122.170, 19.992  L 125.120, 19.413  L 128.069, 18.874  L 131.017, 18.381  L 133.965, 17.938  L 136.913, 17.549  L 139.860, 17.220  L 142.806, 16.955  L 145.751, 16.759  L 148.696, 16.637  L 151.640, 16.593  L 154.583, 16.632  L 157.526, 16.759  L 160.468, 16.979  L 163.409, 17.295  L 166.349, 17.713  L 169.289, 18.239  L 172.228, 18.875  L 175.167, 19.627  L 172.227, 18.881  L 169.287, 18.250  L 166.347, 17.731  L 163.406, 17.318  L 160.465, 17.015  L 157.523, 16.808  L 154.582, 16.694  L 151.640, 16.668  L 148.699, 16.725  L 145.757, 16.860  L 142.815, 17.069  L 139.873, 17.346  L 136.930, 17.688  L 133.987, 18.088  L 131.044, 18.544  L 128.100, 19.050  L 125.156, 19.600  L 122.211, 20.191  L 119.266, 20.818  L 116.320, 21.476  L 113.374, 22.160  L 110.427, 22.866  L 107.480, 23.588  L 104.532, 24.323  L 101.584, 25.064  L 98.634, 25.809  L 95.685, 26.551  L 92.734, 27.286  L 89.783, 28.009  L 86.831, 28.716  L 83.878, 29.402  L 80.924, 30.061  L 77.970, 30.690  L 75.014, 31.284  L 72.057, 31.837  L 69.100, 32.344  L 66.141, 32.802  L 63.181, 33.206  L 60.220, 33.549  L 57.257, 33.828  L 54.294, 34.039  L 51.329, 34.175  L 48.362, 34.232  L 45.395, 34.205  L 42.426, 34.090  L 39.456, 33.882  L 36.484, 33.575  L 39.455, 33.889  L 42.425, 34.104  L 45.394, 34.226  L 48.363, 34.260  L 51.330, 34.210  L 54.296, 34.080  L 57.261, 33.877  L 60.227, 33.615  L 63.191, 33.288  L 66.155, 32.902  L 69.118, 32.461  L 72.081, 31.970  L 75.043, 31.434  L 78.004, 30.857  L 80.964, 30.245  L 83.923, 29.602  L 86.881, 28.932  L 89.839, 28.242  L 92.795, 27.535  L 95.751, 26.817  L 98.705, 26.091  L 101.658, 25.364  L 104.611, 24.639  L 107.562, 23.922  L 110.511, 23.217  L 113.460, 22.528  L 116.407, 21.862  L 119.353, 21.222  L 122.297, 20.613  L 125.240, 20.039  L 128.181, 19.507  L 131.120, 19.020  L 134.058, 18.583  L 136.993, 18.200  L 139.927, 17.877  L 142.859, 17.618  L 139.928, 17.887  L 136.996, 18.221  L 134.062, 18.613  L 131.127, 19.061  L 128.190, 19.558  L 125.251, 20.100  L 122.312, 20.683  L 119.370, 21.302  L 116.428, 21.952  L 113.483, 22.629  L 110.538, 23.327  L 107.591, 24.042  L 104.643, 24.770  L 101.694, 25.504  L 98.743, 26.242  L 95.791, 26.977  L 92.837, 27.706  L 89.882, 28.423  L 86.926, 29.124  L 83.969, 29.803  L 81.010, 30.457  L 78.049, 31.080  L 75.088, 31.667  L 72.124, 32.214  L 69.160, 32.716  L 66.193, 33.168  L 63.226, 33.566  L 60.256, 33.903  L 57.285, 34.176  L 60.255, 33.893  L 63.223, 33.545  L 66.189, 33.138  L 69.153, 32.676  L 72.115, 32.164  L 75.076, 31.606  L 78.035, 31.009  L 80.992, 30.376  L 83.948, 29.713  L 86.903, 29.023  L 89.856, 28.312  L 92.808, 27.585  L 95.758, 26.847  L 98.708, 26.101  L 101.656, 25.354  L 104.603, 24.609  L 107.549, 23.871  L 110.495, 23.146  L 113.439, 22.438  L 116.382, 21.751  L 119.324, 21.090  L 122.266, 20.461  L 125.207, 19.867  L 128.147, 19.313  L 131.086, 18.805  L 134.024, 18.347  L 136.962, 17.944  L 139.899, 17.599  L 142.835, 17.319  L 145.771, 17.118  L 148.707, 16.990  L 151.641, 16.940  L 154.575, 16.973  L 157.507, 17.094  L 160.439, 17.307  L 163.370, 17.616  L 160.439, 17.300  L 157.508, 17.080  L 154.575, 16.952  L 151.641, 16.912  L 148.706, 16.955  L 145.769, 17.076  L 142.831, 17.270  L 139.892, 17.533  L 136.951, 17.861  L 134.010, 18.247  L 131.067, 18.689  L 128.123, 19.180  L 125.178, 19.717  L 122.232, 20.294  L 119.285, 20.907  L 116.337, 21.551  L 113.388, 22.221  L 110.439, 22.913  L 107.488, 23.622  L 104.537, 24.343  L 101.585, 25.071  L 98.633, 25.802  L 95.680, 26.530  L 92.726, 27.252  L 89.771, 27.962  L 86.817, 28.655  L 83.861, 29.327  L 80.905, 29.973  L 77.949, 30.588  L 74.992, 31.167  L 72.034, 31.706  L 69.076, 32.200  L 66.118, 32.644  L 63.159, 33.032  L 60.200, 33.362  L 57.241, 33.627  L 54.282, 33.823  L 51.322, 33.945  L 48.362, 33.988  L 45.402, 33.947  L 42.441, 33.819  L 39.481, 33.597  L 36.521, 33.277  L 33.560, 32.862  L 30.598, 32.339  L 27.637, 31.704  L 24.675, 30.951  L 27.638, 31.698  L 30.601, 32.327  L 33.562, 32.844  L 36.524, 33.254  L 39.484, 33.561  L 42.444, 33.769  L 45.403, 33.885  L 48.361, 33.913  L 51.319, 33.857  L 54.276, 33.722  L 57.232, 33.514  L 60.187, 33.236  L 63.142, 32.894  L 66.096, 32.493  L 69.050, 32.037  L 72.003, 31.531  L 74.956, 30.980  L 77.908, 30.388  L 80.859, 29.761  L 83.811, 29.103  L 86.761, 28.419  L 89.712, 27.714  L 92.662, 26.992  L 95.612, 26.258  L 98.562, 25.517  L 101.511, 24.774  L 104.460, 24.033  L 107.409, 23.300  L 110.358, 22.578  L 113.307, 21.873  L 116.255, 21.189  L 119.204, 20.532  L 122.152, 19.905  L 125.101, 19.315  L 128.049, 18.764  L 130.998, 18.259  L 133.946, 17.804  L 136.895, 17.403  L 139.843, 17.062  L 142.792, 16.785  L 145.741, 16.577  L 148.690, 16.443  L 151.639, 16.387  L 154.589, 16.415  L 157.539, 16.530  L 160.489, 16.738  L 163.440, 17.044  L 166.391, 17.452  L 169.342, 17.967  L 172.294, 18.594  L 175.246, 19.338  L 178.197, 20.209  L 181.148, 21.205  L 184.098, 22.333  L 187.049, 23.596  L 190.000, 25.000 "/>
    </g>
</svg>
