<?xml version="1.0" encoding="utf-8" ?>
<svg xmlns="http://www.w3.org/2000/svg" xmlns:ev="http://www.w3.org/2001/xml-events" xmlns:xlink="http://www.w3.org/1999/xlink" baseProfile="full" height="50mm" version="1.1" viewBox="0,0,200,50" width="200mm">
    <defs>
        <style type="text/css"><![CDATA[
.stitch_line {
    stroke-width: 0.3;
    stroke-linejoin: round;
    stroke-linecap: round;
    fill: none;
}
.path_center_line {
    stroke-width: 0.2;
    stroke-linejoin: round;
    stroke-linecap: round;
    fill: none;
    stroke:#333;
}
.path_contour {
    stroke: #ddd;
    fill-opacity: 1;
    fill: #eee;
    stroke-width: 0.3;
}
.text{
    text-anchor: middle;
    dominant-baseline: middle;
    font-family: sans-serif;
    font-size: 1.5mm;
}
.smalltext{
    text-anchor: middle;
    dominant-baseline: middle;
    font-family: sans-serif;
    font-size: 1mm;
}
.color_0 {
    stroke:#148983;
}
.dot_0 {
    marker-start:url(#dot_0);
    marker-mid:url(#dot_0);
    marker-end:url(#dot_0);
}
]]></style>
        <marker id="dot_0" markerHeight="3.0" markerWidth="3.0" refX="1.5" refY="1.5">
            <circle cx="1.5" cy="1.5" fill="#148983" r="1.5"/>
        </marker>
    </defs>
    <g>
        <path class="stitch_line color_0 dot_0" d="M 11.118, 22.764  L 10.000, 25.000  L 8.882, 27.236  L 11.789, 28.976  L 12.951, 26.404  L 14.113, 23.831  L 17.078, 24.762  L 15.902, 27.667  L 14.725, 30.572  L 17.690, 32.027  L 18.852, 28.795  L 20.015, 25.562  L 22.926, 26.239  L 21.803, 29.791  L 20.680, 33.344  L 23.695, 34.524  L 24.401, 31.950  L 25.107, 29.375  L 25.813, 26.800  L 28.678, 27.250  L 28.029, 30.024  L 27.380, 32.799  L 26.731, 35.573  L 29.787, 36.492  L 30.366, 33.527  L 30.945, 30.562  L 31.524, 27.597  L 34.353, 27.845  L 33.855, 30.992  L 33.358, 34.139  L 32.860, 37.286  L 35.947, 37.957  L 36.354, 34.639  L 36.761, 31.320  L 37.168, 28.001  L 39.972, 28.070  L 39.663, 31.551  L 39.354, 35.031  L 39.044, 38.512  L 42.151, 38.953  L 42.305, 36.229  L 42.459, 33.505  L 42.613, 30.781  L 42.767, 28.058  L 45.557, 27.968  L 45.483, 30.797  L 45.410, 33.626  L 45.336, 36.456  L 45.263, 39.285  L 48.379, 39.514  L 48.370, 36.587  L 48.361, 33.660  L 48.352, 30.733  L 48.343, 27.806  L 51.127, 27.576  L 51.219, 30.593  L 51.311, 33.610  L 51.403, 36.627  L 51.496, 39.644  L 54.611, 39.680  L 54.437, 36.581  L 54.262, 33.481  L 54.088, 30.382  L 53.913, 27.282  L 56.702, 26.930  L 56.958, 30.104  L 57.213, 33.279  L 57.469, 36.454  L 57.724, 39.629  L 60.832, 39.494  L 60.498, 36.251  L 60.164, 33.008  L 59.830, 29.765  L 59.495, 26.522  L 62.295, 26.063  L 62.705, 29.368  L 63.115, 32.672  L 63.525, 35.977  L 63.935, 39.282  L 67.029, 38.998  L 66.644, 36.310  L 66.258, 33.622  L 65.873, 30.933  L 65.487, 28.245  L 65.102, 25.557  L 67.918, 25.008  L 68.357, 27.736  L 68.797, 30.464  L 69.236, 33.192  L 69.676, 35.920  L 70.115, 38.647  L 73.191, 38.236  L 72.702, 35.473  L 72.212, 32.710  L 71.722, 29.947  L 71.233, 27.184  L 70.743, 24.421  L 73.579, 23.799  L 74.114, 26.593  L 74.650, 29.387  L 75.186, 32.180  L 75.722, 34.974  L 76.257, 37.768  L 79.312, 37.250  L 78.735, 34.429  L 78.157, 31.609  L 77.580, 28.788  L 77.003, 25.967  L 76.426, 23.147  L 79.285, 22.468  L 79.899, 25.312  L 80.513, 28.155  L 81.127, 30.999  L 81.741, 33.843  L 82.355, 36.686  L 85.385, 36.083  L 84.739, 33.220  L 84.093, 30.357  L 83.448, 27.494  L 82.802, 24.631  L 82.156, 21.768  L 85.039, 21.050  L 85.712, 23.929  L 86.385, 26.808  L 87.058, 29.687  L 87.730, 32.566  L 88.403, 35.445  L 91.408, 34.777  L 90.714, 31.885  L 90.019, 28.994  L 89.325, 26.102  L 88.631, 23.211  L 87.936, 20.319  L 90.846, 19.580  L 91.557, 22.481  L 92.268, 25.381  L 92.978, 28.282  L 93.689, 31.183  L 94.399, 34.084  L 97.377, 33.371  L 96.656, 30.464  L 95.935, 27.557  L 95.213, 24.650  L 94.492, 21.743  L 93.770, 18.836  L 96.707, 18.094  L 97.434, 21.004  L 98.161, 23.914  L 98.888, 26.824  L 99.615, 29.734  L 100.342, 32.644  L 103.293, 31.906  L 102.566, 28.996  L 101.839, 26.086  L 101.112, 23.176  L 100.385, 20.266  L 99.658, 17.356  L 102.623, 16.629  L 103.344, 19.536  L 104.065, 22.443  L 104.787, 25.350  L 105.508, 28.257  L 106.230, 31.164  L 109.154, 30.420  L 108.443, 27.519  L 107.732, 24.619  L 107.022, 21.718  L 106.311, 18.817  L 105.601, 15.916  L 108.592, 15.223  L 109.286, 18.115  L 109.981, 21.006  L 110.675, 23.898  L 111.369, 26.789  L 112.064, 29.681  L 114.961, 28.950  L 114.288, 26.071  L 113.615, 23.192  L 112.942, 20.313  L 112.270, 17.434  L 111.597, 14.555  L 114.615, 13.917  L 115.261, 16.780  L 115.907, 19.643  L 116.552, 22.506  L 117.198, 25.369  L 117.844, 28.232  L 120.715, 27.532  L 120.101, 24.688  L 119.487, 21.845  L 118.873, 19.001  L 118.259, 16.157  L 117.645, 13.314  L 120.688, 12.750  L 121.265, 15.571  L 121.843, 18.391  L 122.420, 21.212  L 122.997, 24.033  L 123.574, 26.853  L 126.421, 26.201  L 125.886, 23.407  L 125.350, 20.613  L 124.814, 17.820  L 124.278, 15.026  L 123.743, 12.232  L 126.809, 11.764  L 127.298, 14.527  L 127.788, 17.290  L 128.278, 20.053  L 128.767, 22.816  L 129.257, 25.579  L 132.082, 24.992  L 131.643, 22.264  L 131.203, 19.536  L 130.764, 16.808  L 130.324, 14.080  L 129.885, 11.353  L 132.971, 11.002  L 133.356, 13.690  L 133.742, 16.378  L 134.127, 19.067  L 134.513, 21.755  L 134.898, 24.443  L 137.705, 23.937  L 137.295, 20.632  L 136.885, 17.328  L 136.475, 14.023  L 136.065, 10.718  L 139.168, 10.506  L 139.502, 13.749  L 139.836, 16.992  L 140.170, 20.235  L 140.505, 23.478  L 143.298, 23.070  L 143.042, 19.896  L 142.787, 16.721  L 142.531, 13.546  L 142.276, 10.371  L 145.389, 10.320  L 145.563, 13.419  L 145.738, 16.519  L 145.912, 19.618  L 146.087, 22.718  L 148.873, 22.424  L 148.781, 19.407  L 148.689, 16.390  L 148.597, 13.373  L 148.504, 10.356  L 151.621, 10.486  L 151.630, 13.413  L 151.639, 16.340  L 151.648, 19.267  L 151.657, 22.194  L 154.443, 22.032  L 154.517, 19.203  L 154.590, 16.374  L 154.664, 13.544  L 154.737, 10.715  L 157.849, 11.047  L 157.695, 13.771  L 157.541, 16.495  L 157.387, 19.219  L 157.233, 21.942  L 160.028, 21.930  L 160.337, 18.449  L 160.646, 14.969  L 160.956, 11.488  L 164.053, 12.043  L 163.646, 15.361  L 163.239, 18.680  L 162.832, 21.999  L 165.647, 22.155  L 166.145, 19.008  L 166.642, 15.861  L 167.140, 12.714  L 170.213, 13.508  L 169.634, 16.473  L 169.055, 19.438  L 168.476, 22.403  L 171.322, 22.750  L 171.971, 19.976  L 172.620, 17.201  L 173.269, 14.427  L 176.305, 15.476  L 175.599, 18.050  L 174.893, 20.625  L 174.187, 23.200  L 177.074, 23.761  L 178.197, 20.209  L 179.320, 16.656  L 182.310, 17.973  L 181.148, 21.205  L 179.985, 24.438  L 182.922, 25.238  L 184.098, 22.333  L 185.275, 19.428  L 188.211, 21.024  L 187.049, 23.596  L 185.887, 26.169  L 188.882, 27.236  L 190.000, 25.000  L 191.118, 22.764 "/>
    </g>
</svg>
