<?xml version="1.0" encoding="utf-8" ?>
<svg xmlns="http://www.w3.org/2000/svg" xmlns:ev="http://www.w3.org/2001/xml-events" xmlns:xlink="http://www.w3.org/1999/xlink" baseProfile="full" height="50mm" version="1.1" viewBox="0,0,200,50" width="200mm">
    <defs>
        <style type="text/css"><![CDATA[
.stitch_line {
    stroke-width: 0.3;
    stroke-linejoin: round;
    stroke-linecap: round;
    fill: none;
}
.path_center_line {
    fill: none;
    stroke:#808080;
    stroke-width: 0.2;
    stroke-linejoin: round;
    stroke-linecap: round;
}
.path_contour {
    fill: #808080;
    fill-opacity: 0.3;
    stroke: #808080;
    stroke-opacity: 1;
    stroke-width: 0.3;
}
.text{
    text-anchor: middle;
    dominant-baseline: middle;
    font-family: sans-serif;
    font-size: 1.5mm;
}
.smalltext{
    text-anchor: middle;
    dominant-baseline: middle;
    font-family: sans-serif;
    font-size: 1mm;
}
.color_0 {
    stroke:#3bb2d0;
}
.dot_0 {
    marker-start:url(#dot_0);
    marker-mid:url(#dot_0);
    marker-end:url(#dot_0);
}
]]></style>
        <marker id="dot_0" markerHeight="3.0" markerWidth="3.0" refX="1.5" refY="1.5">
            <circle cx="1.5" cy="1.5" fill="#3bb2d0" r="1.5"/>
        </marker>
    </defs>
    <g>
        <path class="stitch_line color_0 dot_0" d="M 11.118, 22.764  L 13.897, 23.734  L 16.693, 24.605  L 19.504, 25.376  L 22.326, 26.047  L 25.159, 26.617  L 28.000, 27.088  L 30.846, 27.461  L 33.696, 27.738  L 36.548, 27.923  L 39.402, 28.018  L 42.256, 28.027  L 45.110, 27.955  L 47.962, 27.806  L 50.814, 27.585  L 53.665, 27.296  L 56.515, 26.945  L 59.365, 26.535  L 62.214, 26.073  L 65.065, 25.562  L 67.916, 25.009  L 70.770, 24.416  L 73.627, 23.790  L 76.487, 23.134  L 79.353, 22.453  L 82.225, 21.752  L 85.104, 21.035  L 87.992, 20.306  L 90.889, 19.569  L 93.797, 18.830  L 96.716, 18.091  L 99.649, 17.358  L 102.596, 16.635  L 105.557, 15.927  L 108.535, 15.237  L 111.530, 14.571  L 114.542, 13.933  L 117.573, 13.329  L 120.623, 12.764  L 123.692, 12.242  L 126.780, 11.770  L 129.887, 11.352  L 133.012, 10.996  L 136.154, 10.707  L 139.311, 10.491  L 142.482, 10.355  L 145.664, 10.305  L 148.854, 10.346  L 152.047, 10.486  L 155.238, 10.729  L 158.424, 11.082  L 161.596, 11.547  L 164.749, 12.131  L 167.877, 12.834  L 170.970, 13.659  L 174.023, 14.607  L 177.028, 15.677  L 179.979, 16.868  L 182.868, 18.176  L 185.690, 19.598  L 188.442, 21.129  L 191.118, 22.764  L 190.373, 24.255  L 187.662, 22.841  L 184.896, 21.530  L 182.077, 20.325  L 179.210, 19.230  L 176.299, 18.246  L 173.349, 17.375  L 170.365, 16.619  L 167.352, 15.977  L 164.317, 15.446  L 161.263, 15.026  L 158.197, 14.712  L 155.122, 14.501  L 152.044, 14.388  L 148.964, 14.369  L 145.888, 14.438  L 142.817, 14.588  L 139.753, 14.816  L 136.698, 15.114  L 133.653, 15.477  L 130.619, 15.899  L 127.597, 16.374  L 124.586, 16.898  L 121.586, 17.464  L 118.598, 18.068  L 115.620, 18.705  L 112.652, 19.369  L 109.693, 20.056  L 106.742, 20.761  L 103.798, 21.480  L 100.860, 22.208  L 97.928, 22.941  L 94.999, 23.675  L 92.074, 24.404  L 89.150, 25.125  L 86.226, 25.833  L 83.303, 26.524  L 80.378, 27.193  L 77.451, 27.835  L 74.520, 28.446  L 71.587, 29.021  L 68.649, 29.555  L 65.706, 30.043  L 62.758, 30.480  L 59.806, 30.860  L 56.849, 31.178  L 53.889, 31.429  L 50.925, 31.608  L 47.959, 31.709  L 44.994, 31.727  L 42.029, 31.658  L 39.069, 31.496  L 36.116, 31.238  L 33.172, 30.881  L 30.240, 30.421  L 27.325, 29.856  L 24.430, 29.186  L 21.558, 28.409  L 18.713, 27.525  L 15.899, 26.537  L 13.117, 25.446  L 10.373, 24.255  L 9.627, 25.745  L 12.338, 27.159  L 15.104, 28.470  L 17.923, 29.675  L 20.790, 30.770  L 23.701, 31.754  L 26.651, 32.625  L 29.635, 33.381  L 32.648, 34.023  L 35.683, 34.554  L 38.737, 34.974  L 41.803, 35.288  L 44.878, 35.499  L 47.956, 35.612  L 51.036, 35.631  L 54.112, 35.562  L 57.183, 35.412  L 60.247, 35.184  L 63.302, 34.886  L 66.347, 34.523  L 69.381, 34.101  L 72.403, 33.626  L 75.414, 33.102  L 78.414, 32.536  L 81.402, 31.932  L 84.380, 31.295  L 87.348, 30.631  L 90.307, 29.944  L 93.258, 29.239  L 96.202, 28.520  L 99.140, 27.792  L 102.072, 27.059  L 105.001, 26.325  L 107.926, 25.596  L 110.850, 24.875  L 113.774, 24.167  L 116.697, 23.476  L 119.622, 22.807  L 122.549, 22.165  L 125.480, 21.554  L 128.413, 20.979  L 131.351, 20.445  L 134.294, 19.957  L 137.242, 19.520  L 140.194, 19.140  L 143.151, 18.822  L 146.111, 18.571  L 149.075, 18.392  L 152.041, 18.291  L 155.006, 18.273  L 157.971, 18.342  L 160.931, 18.504  L 163.884, 18.762  L 166.828, 19.119  L 169.760, 19.579  L 172.675, 20.144  L 175.570, 20.814  L 178.442, 21.591  L 181.287, 22.475  L 184.101, 23.463  L 186.883, 24.554  L 189.627, 25.745  L 188.882, 27.236  L 186.103, 26.266  L 183.307, 25.395  L 180.496, 24.624  L 177.674, 23.953  L 174.841, 23.383  L 172.000, 22.912  L 169.154, 22.539  L 166.304, 22.262  L 163.452, 22.077  L 160.598, 21.982  L 157.744, 21.973  L 154.890, 22.045  L 152.038, 22.194  L 149.186, 22.415  L 146.335, 22.704  L 143.485, 23.055  L 140.635, 23.465  L 137.786, 23.927  L 134.935, 24.438  L 132.084, 24.991  L 129.230, 25.584  L 126.373, 26.210  L 123.513, 26.866  L 120.647, 27.547  L 117.775, 28.248  L 114.896, 28.965  L 112.008, 29.694  L 109.111, 30.431  L 106.203, 31.170  L 103.284, 31.909  L 100.351, 32.642  L 97.404, 33.365  L 94.443, 34.073  L 91.465, 34.763  L 88.470, 35.429  L 85.458, 36.067  L 82.427, 36.671  L 79.377, 37.236  L 76.308, 37.758  L 73.220, 38.230  L 70.113, 38.648  L 66.988, 39.004  L 63.846, 39.293  L 60.689, 39.509  L 57.518, 39.645  L 54.336, 39.695  L 51.146, 39.654  L 47.953, 39.514  L 44.762, 39.271  L 41.576, 38.918  L 38.404, 38.453  L 35.251, 37.869  L 32.123, 37.166  L 29.030, 36.341  L 25.977, 35.393  L 22.972, 34.323  L 20.021, 33.132  L 17.132, 31.824  L 14.310, 30.402  L 11.558, 28.871  L 8.882, 27.236 "/>
    </g>
</svg>
