<?xml version="1.0" encoding="utf-8" ?>
<svg xmlns="http://www.w3.org/2000/svg" xmlns:ev="http://www.w3.org/2001/xml-events" xmlns:xlink="http://www.w3.org/1999/xlink" baseProfile="full" height="110mm" version="1.1" viewBox="0,0,100,110" width="100mm">
    <defs>
        <style type="text/css"><![CDATA[
.stitch_line {
    stroke-width: 0.3;
    stroke-linejoin: round;
    stroke-linecap: round;
    fill: none;
}
.path_center_line {
    fill: none;
    stroke:#808080;
    stroke-width: 0.2;
    stroke-linejoin: round;
    stroke-linecap: round;
}
.path_contour {
    fill: #808080;
    fill-opacity: 0.3;
    stroke: #808080;
    stroke-opacity: 1;
    stroke-width: 0.3;
}
.text{
    text-anchor: middle;
    dominant-baseline: middle;
    font-family: sans-serif;
    font-size: 1.5mm;
}
.smalltext{
    text-anchor: middle;
    dominant-baseline: middle;
    font-family: sans-serif;
    font-size: 1mm;
}
.color_0 {
    stroke:#3bb2d0;
}
]]></style>
    </defs>
    <g>
        <g transform="translate(0,5)">
            <path class="stitch_line color_0" d="M 0.000, 0.000 L 80.000, 0.000 M 20.000, 1.000 L 20.000, -1.000 M 45.000, 1.000 L 45.000, -1.000 M 70.000, 1.000 L 70.000, -1.000" transform="translate(15,0)"/>
            <text class="smalltext" x="7" y="0">80</text>
        </g>
        <g transform="translate(0,10)">
            <path class="stitch_line color_0" d="M 0.000, 0.000 L 80.000, 0.000 M 0.400, 1.000 L 0.400, -1.000 M 25.400, 1.000 L 25.400, -1.000 M 50.400, 1.000 L 50.400, -1.000 M 75.400, 1.000 L 75.400, -1.000" transform="translate(15,0)"/>
            <text class="smalltext" x="7" y="0">80</text>
        </g>
        <g transform="translate(0,15)">
            <path class="stitch_line color_0" d="M 0.000, 0.000 L 80.000, 0.000 M 4.600, 1.000 L 4.600, -1.000 M 29.600, 1.000 L 29.600, -1.000 M 54.600, 1.000 L 54.600, -1.000 M 79.600, 1.000 L 79.600, -1.000" transform="translate(15,0)"/>
            <text class="smalltext" x="7" y="0">80</text>
        </g>
        <g transform="translate(0,20)">
            <path class="stitch_line color_0" d="M 0.000, 0.000 L 80.000, 0.000 M 7.600, 1.000 L 7.600, -1.000 M 32.600, 1.000 L 32.600, -1.000 M 57.600, 1.000 L 57.600, -1.000" transform="translate(15,0)"/>
            <text class="smalltext" x="7" y="0">80</text>
        </g>
        <g transform="translate(0,25)">
            <path class="stitch_line color_0" d="M 0.000, 0.000 L 80.000, 0.000 M 9.400, 1.000 L 9.400, -1.000 M 34.400, 1.000 L 34.400, -1.000 M 59.400, 1.000 L 59.400, -1.000" transform="translate(15,0)"/>
            <text class="smalltext" x="7" y="0">80</text>
        </g>
        <g transform="translate(0,30)">
            <path class="stitch_line color_0" d="M 0.000, 0.000 L 80.000, 0.000 M 10.000, 1.000 L 10.000, -1.000 M 35.000, 1.000 L 35.000, -1.000 M 60.000, 1.000 L 60.000, -1.000" transform="translate(15,0)"/>
            <text class="smalltext" x="7" y="0">80</text>
        </g>
        <g transform="translate(0,35)">
            <path class="stitch_line color_0" d="M 0.000, 0.000 L 80.000, 0.000 M 9.400, 1.000 L 9.400, -1.000 M 34.400, 1.000 L 34.400, -1.000 M 59.400, 1.000 L 59.400, -1.000" transform="translate(15,0)"/>
            <text class="smalltext" x="7" y="0">80</text>
        </g>
        <g transform="translate(0,40)">
            <path class="stitch_line color_0" d="M 0.000, 0.000 L 80.000, 0.000 M 7.600, 1.000 L 7.600, -1.000 M 32.600, 1.000 L 32.600, -1.000 M 57.600, 1.000 L 57.600, -1.000" transform="translate(15,0)"/>
            <text class="smalltext" x="7" y="0">80</text>
        </g>
        <g transform="translate(0,45)">
            <path class="stitch_line color_0" d="M 0.000, 0.000 L 80.000, 0.000 M 4.600, 1.000 L 4.600, -1.000 M 29.600, 1.000 L 29.600, -1.000 M 54.600, 1.000 L 54.600, -1.000 M 79.600, 1.000 L 79.600, -1.000" transform="translate(15,0)"/>
            <text class="smalltext" x="7" y="0">80</text>
        </g>
        <g transform="translate(0,50)">
            <path class="stitch_line color_0" d="M 0.000, 0.000 L 80.000, 0.000 M 0.400, 1.000 L 0.400, -1.000 M 25.400, 1.000 L 25.400, -1.000 M 50.400, 1.000 L 50.400, -1.000 M 75.400, 1.000 L 75.400, -1.000" transform="translate(15,0)"/>
            <text class="smalltext" x="7" y="0">80</text>
        </g>
        <g transform="translate(0,55)">
            <path class="stitch_line color_0" d="M 0.000, 0.000 L 80.000, 0.000 M 20.000, 1.000 L 20.000, -1.000 M 45.000, 1.000 L 45.000, -1.000 M 70.000, 1.000 L 70.000, -1.000" transform="translate(15,0)"/>
            <text class="smalltext" x="7" y="0">80</text>
        </g>
        <g transform="translate(0,60)">
            <path class="stitch_line color_0" d="M 0.000, 0.000 L 80.000, 0.000 M 0.400, 1.000 L 0.400, -1.000 M 25.400, 1.000 L 25.400, -1.000 M 50.400, 1.000 L 50.400, -1.000 M 75.400, 1.000 L 75.400, -1.000" transform="translate(15,0)"/>
            <text class="smalltext" x="7" y="0">80</text>
        </g>
        <g transform="translate(0,65)">
            <path class="stitch_line color_0" d="M 0.000, 0.000 L 80.000, 0.000 M 4.600, 1.000 L 4.600, -1.000 M 29.600, 1.000 L 29.600, -1.000 M 54.600, 1.000 L 54.600, -1.000 M 79.600, 1.000 L 79.600, -1.000" transform="translate(15,0)"/>
            <text class="smalltext" x="7" y="0">80</text>
        </g>
        <g transform="translate(0,70)">
            <path class="stitch_line color_0" d="M 0.000, 0.000 L 80.000, 0.000 M 7.600, 1.000 L 7.600, -1.000 M 32.600, 1.000 L 32.600, -1.000 M 57.600, 1.000 L 57.600, -1.000" transform="translate(15,0)"/>
            <text class="smalltext" x="7" y="0">80</text>
        </g>
        <g transform="translate(0,75)">
            <path class="stitch_line color_0" d="M 0.000, 0.000 L 80.000, 0.000 M 9.400, 1.000 L 9.400, -1.000 M 34.400, 1.000 L 34.400, -1.000 M 59.400, 1.000 L 59.400, -1.000" transform="translate(15,0)"/>
            <text class="smalltext" x="7" y="0">80</text>
        </g>
        <g transform="translate(0,80)">
            <path class="stitch_line color_0" d="M 0.000, 0.000 L 80.000, 0.000 M 10.000, 1.000 L 10.000, -1.000 M 35.000, 1.000 L 35.000, -1.000 M 60.000, 1.000 L 60.000, -1.000" transform="translate(15,0)"/>
            <text class="smalltext" x="7" y="0">80</text>
        </g>
        <g transform="translate(0,85)">
            <path class="stitch_line color_0" d="M 0.000, 0.000 L 80.000, 0.000 M 9.400, 1.000 L 9.400, -1.000 M 34.400, 1.000 L 34.400, -1.000 M 59.400, 1.000 L 59.400, -1.000" transform="translate(15,0)"/>
            <text class="smalltext" x="7" y="0">80</text>
        </g>
        <g transform="translate(0,90)">
            <path class="stitch_line color_0" d="M 0.000, 0.000 L 80.000, 0.000 M 7.600, 1.000 L 7.600, -1.000 M 32.600, 1.000 L 32.600, -1.000 M 57.600, 1.000 L 57.600, -1.000" transform="translate(15,0)"/>
            <text class="smalltext" x="7" y="0">80</text>
        </g>
        <g transform="translate(0,95)">
            <path class="stitch_line color_0" d="M 0.000, 0.000 L 80.000, 0.000 M 4.600, 1.000 L 4.600, -1.000 M 29.600, 1.000 L 29.600, -1.000 M 54.600, 1.000 L 54.600, -1.000 M 79.600, 1.000 L 79.600, -1.000" transform="translate(15,0)"/>
            <text class="smalltext" x="7" y="0">80</text>
        </g>
        <g transform="translate(0,100)">
            <path class="stitch_line color_0" d="M 0.000, 0.000 L 80.000, 0.000 M 0.400, 1.000 L 0.400, -1.000 M 25.400, 1.000 L 25.400, -1.000 M 50.400, 1.000 L 50.400, -1.000 M 75.400, 1.000 L 75.400, -1.000" transform="translate(15,0)"/>
            <text class="smalltext" x="7" y="0">80</text>
        </g>
        <g transform="translate(0,105)">
            <path class="stitch_line color_0" d="M 0.000, 0.000 L 80.000, 0.000 M 20.000, 1.000 L 20.000, -1.000 M 45.000, 1.000 L 45.000, -1.000 M 70.000, 1.000 L 70.000, -1.000" transform="translate(15,0)"/>
            <text class="smalltext" x="7" y="0">80</text>
        </g>
    </g>
</svg>
