<?xml version="1.0" encoding="utf-8" ?>
<svg xmlns="http://www.w3.org/2000/svg" xmlns:ev="http://www.w3.org/2001/xml-events" xmlns:xlink="http://www.w3.org/1999/xlink" baseProfile="full" height="60mm" version="1.1" viewBox="0,0,100,60" width="100mm">
    <defs>
        <style type="text/css"><![CDATA[
.stitch_line {
    stroke-width: 0.3;
    stroke-linejoin: round;
    stroke-linecap: round;
    fill: none;
}
.path_center_line {
    fill: none;
    stroke:#808080;
    stroke-width: 0.2;
    stroke-linejoin: round;
    stroke-linecap: round;
}
.path_contour {
    fill: #808080;
    fill-opacity: 0.3;
    stroke: #808080;
    stroke-opacity: 1;
    stroke-width: 0.3;
}
.text{
    text-anchor: middle;
    dominant-baseline: middle;
    font-family: sans-serif;
    font-size: 1.5mm;
}
.smalltext{
    text-anchor: middle;
    dominant-baseline: middle;
    font-family: sans-serif;
    font-size: 1mm;
}
.color_0 {
    stroke:#3bb2d0;
}
]]></style>
    </defs>
    <g>
        <g transform="translate(0,5)">
            <path class="stitch_line color_0" d="M 0.000, 0.000 L 40.000, 0.000 M 3.500, 1.000 L 3.500, -1.000 M 5.000, 1.000 L 5.000, -1.000 M 6.500, 1.000 L 6.500, -1.000 M 18.500, 1.000 L 18.500, -1.000 M 20.000, 1.000 L 20.000, -1.000 M 21.500, 1.000 L 21.500, -1.000 M 33.500, 1.000 L 33.500, -1.000 M 35.000, 1.000 L 35.000, -1.000 M 36.500, 1.000 L 36.500, -1.000" transform="translate(15,0)"/>
            <text class="smalltext" x="7" y="0">40</text>
        </g>
        <g transform="translate(0,10)">
            <path class="stitch_line color_0" d="M 0.000, 0.000 L 44.000, 0.000 M 5.500, 1.000 L 5.500, -1.000 M 7.000, 1.000 L 7.000, -1.000 M 8.500, 1.000 L 8.500, -1.000 M 20.500, 1.000 L 20.500, -1.000 M 22.000, 1.000 L 22.000, -1.000 M 23.500, 1.000 L 23.500, -1.000 M 35.500, 1.000 L 35.500, -1.000 M 37.000, 1.000 L 37.000, -1.000 M 38.500, 1.000 L 38.500, -1.000" transform="translate(15,0)"/>
            <text class="smalltext" x="7" y="0">44</text>
        </g>
        <g transform="translate(0,15)">
            <path class="stitch_line color_0" d="M 0.000, 0.000 L 48.000, 0.000 M 7.500, 1.000 L 7.500, -1.000 M 9.000, 1.000 L 9.000, -1.000 M 10.500, 1.000 L 10.500, -1.000 M 22.500, 1.000 L 22.500, -1.000 M 24.000, 1.000 L 24.000, -1.000 M 25.500, 1.000 L 25.500, -1.000 M 37.500, 1.000 L 37.500, -1.000 M 39.000, 1.000 L 39.000, -1.000 M 40.500, 1.000 L 40.500, -1.000" transform="translate(15,0)"/>
            <text class="smalltext" x="7" y="0">48</text>
        </g>
        <g transform="translate(0,20)">
            <path class="stitch_line color_0" d="M 0.000, 0.000 L 52.000, 0.000 M 9.500, 1.000 L 9.500, -1.000 M 11.000, 1.000 L 11.000, -1.000 M 12.500, 1.000 L 12.500, -1.000 M 24.500, 1.000 L 24.500, -1.000 M 26.000, 1.000 L 26.000, -1.000 M 27.500, 1.000 L 27.500, -1.000 M 39.500, 1.000 L 39.500, -1.000 M 41.000, 1.000 L 41.000, -1.000 M 42.500, 1.000 L 42.500, -1.000" transform="translate(15,0)"/>
            <text class="smalltext" x="7" y="0">52</text>
        </g>
        <g transform="translate(0,25)">
            <path class="stitch_line color_0" d="M 0.000, 0.000 L 56.000, 0.000 M 11.500, 1.000 L 11.500, -1.000 M 13.000, 1.000 L 13.000, -1.000 M 14.500, 1.000 L 14.500, -1.000 M 26.500, 1.000 L 26.500, -1.000 M 28.000, 1.000 L 28.000, -1.000 M 29.500, 1.000 L 29.500, -1.000 M 41.500, 1.000 L 41.500, -1.000 M 43.000, 1.000 L 43.000, -1.000 M 44.500, 1.000 L 44.500, -1.000" transform="translate(15,0)"/>
            <text class="smalltext" x="7" y="0">56</text>
        </g>
        <g transform="translate(0,30)">
            <path class="stitch_line color_0" d="M 0.000, 0.000 L 60.000, 0.000 M 0.000, 1.000 L 0.000, -1.000 M 1.500, 1.000 L 1.500, -1.000 M 13.500, 1.000 L 13.500, -1.000 M 15.000, 1.000 L 15.000, -1.000 M 16.500, 1.000 L 16.500, -1.000 M 28.500, 1.000 L 28.500, -1.000 M 30.000, 1.000 L 30.000, -1.000 M 31.500, 1.000 L 31.500, -1.000 M 43.500, 1.000 L 43.500, -1.000 M 45.000, 1.000 L 45.000, -1.000 M 46.500, 1.000 L 46.500, -1.000 M 58.500, 1.000 L 58.500, -1.000" transform="translate(15,0)"/>
            <text class="smalltext" x="7" y="0">60</text>
        </g>
        <g transform="translate(0,35)">
            <path class="stitch_line color_0" d="M 0.000, 0.000 L 64.000, 0.000 M 0.500, 1.000 L 0.500, -1.000 M 2.000, 1.000 L 2.000, -1.000 M 3.500, 1.000 L 3.500, -1.000 M 15.500, 1.000 L 15.500, -1.000 M 17.000, 1.000 L 17.000, -1.000 M 18.500, 1.000 L 18.500, -1.000 M 30.500, 1.000 L 30.500, -1.000 M 32.000, 1.000 L 32.000, -1.000 M 33.500, 1.000 L 33.500, -1.000 M 45.500, 1.000 L 45.500, -1.000 M 47.000, 1.000 L 47.000, -1.000 M 48.500, 1.000 L 48.500, -1.000 M 60.500, 1.000 L 60.500, -1.000 M 62.000, 1.000 L 62.000, -1.000 M 63.500, 1.000 L 63.500, -1.000" transform="translate(15,0)"/>
            <text class="smalltext" x="7" y="0">64</text>
        </g>
        <g transform="translate(0,40)">
            <path class="stitch_line color_0" d="M 0.000, 0.000 L 68.000, 0.000 M 2.500, 1.000 L 2.500, -1.000 M 4.000, 1.000 L 4.000, -1.000 M 5.500, 1.000 L 5.500, -1.000 M 17.500, 1.000 L 17.500, -1.000 M 19.000, 1.000 L 19.000, -1.000 M 20.500, 1.000 L 20.500, -1.000 M 32.500, 1.000 L 32.500, -1.000 M 34.000, 1.000 L 34.000, -1.000 M 35.500, 1.000 L 35.500, -1.000 M 47.500, 1.000 L 47.500, -1.000 M 49.000, 1.000 L 49.000, -1.000 M 50.500, 1.000 L 50.500, -1.000 M 62.500, 1.000 L 62.500, -1.000 M 64.000, 1.000 L 64.000, -1.000 M 65.500, 1.000 L 65.500, -1.000" transform="translate(15,0)"/>
            <text class="smalltext" x="7" y="0">68</text>
        </g>
        <g transform="translate(0,45)">
            <path class="stitch_line color_0" d="M 0.000, 0.000 L 72.000, 0.000 M 4.500, 1.000 L 4.500, -1.000 M 6.000, 1.000 L 6.000, -1.000 M 7.500, 1.000 L 7.500, -1.000 M 19.500, 1.000 L 19.500, -1.000 M 21.000, 1.000 L 21.000, -1.000 M 22.500, 1.000 L 22.500, -1.000 M 34.500, 1.000 L 34.500, -1.000 M 36.000, 1.000 L 36.000, -1.000 M 37.500, 1.000 L 37.500, -1.000 M 49.500, 1.000 L 49.500, -1.000 M 51.000, 1.000 L 51.000, -1.000 M 52.500, 1.000 L 52.500, -1.000 M 64.500, 1.000 L 64.500, -1.000 M 66.000, 1.000 L 66.000, -1.000 M 67.500, 1.000 L 67.500, -1.000" transform="translate(15,0)"/>
            <text class="smalltext" x="7" y="0">72</text>
        </g>
        <g transform="translate(0,50)">
            <path class="stitch_line color_0" d="M 0.000, 0.000 L 76.000, 0.000 M 6.500, 1.000 L 6.500, -1.000 M 8.000, 1.000 L 8.000, -1.000 M 9.500, 1.000 L 9.500, -1.000 M 21.500, 1.000 L 21.500, -1.000 M 23.000, 1.000 L 23.000, -1.000 M 24.500, 1.000 L 24.500, -1.000 M 36.500, 1.000 L 36.500, -1.000 M 38.000, 1.000 L 38.000, -1.000 M 39.500, 1.000 L 39.500, -1.000 M 51.500, 1.000 L 51.500, -1.000 M 53.000, 1.000 L 53.000, -1.000 M 54.500, 1.000 L 54.500, -1.000 M 66.500, 1.000 L 66.500, -1.000 M 68.000, 1.000 L 68.000, -1.000 M 69.500, 1.000 L 69.500, -1.000" transform="translate(15,0)"/>
            <text class="smalltext" x="7" y="0">76</text>
        </g>
        <g transform="translate(0,55)">
            <path class="stitch_line color_0" d="M 0.000, 0.000 L 80.000, 0.000 M 8.500, 1.000 L 8.500, -1.000 M 10.000, 1.000 L 10.000, -1.000 M 11.500, 1.000 L 11.500, -1.000 M 23.500, 1.000 L 23.500, -1.000 M 25.000, 1.000 L 25.000, -1.000 M 26.500, 1.000 L 26.500, -1.000 M 38.500, 1.000 L 38.500, -1.000 M 40.000, 1.000 L 40.000, -1.000 M 41.500, 1.000 L 41.500, -1.000 M 53.500, 1.000 L 53.500, -1.000 M 55.000, 1.000 L 55.000, -1.000 M 56.500, 1.000 L 56.500, -1.000 M 68.500, 1.000 L 68.500, -1.000 M 70.000, 1.000 L 70.000, -1.000 M 71.500, 1.000 L 71.500, -1.000" transform="translate(15,0)"/>
            <text class="smalltext" x="7" y="0">80</text>
        </g>
    </g>
</svg>
