<?xml version="1.0" encoding="utf-8" ?>
<svg xmlns="http://www.w3.org/2000/svg" xmlns:ev="http://www.w3.org/2001/xml-events" xmlns:xlink="http://www.w3.org/1999/xlink" baseProfile="full" height="60mm" version="1.1" viewBox="0,0,100,60" width="100mm">
    <defs>
        <style type="text/css"><![CDATA[
.stitch_line {
    stroke-width: 0.3;
    stroke-linejoin: round;
    stroke-linecap: round;
    fill: none;
}
.path_center_line {
    fill: none;
    stroke:#808080;
    stroke-width: 0.2;
    stroke-linejoin: round;
    stroke-linecap: round;
}
.path_contour {
    fill: #808080;
    fill-opacity: 0.3;
    stroke: #808080;
    stroke-opacity: 1;
    stroke-width: 0.3;
}
.text{
    text-anchor: middle;
    dominant-baseline: middle;
    font-family: sans-serif;
    font-size: 1.5mm;
}
.smalltext{
    text-anchor: middle;
    dominant-baseline: middle;
    font-family: sans-serif;
    font-size: 1mm;
}
.color_0 {
    stroke:#3bb2d0;
}
]]></style>
    </defs>
    <g>
        <g transform="translate(0,5)">
            <path class="stitch_line color_0" d="M 0.000, 0.000 L 20.000, 0.000 M 0.000, 1.000 L 0.000, -1.000 M 2.106, 1.000 L 2.106, -1.000 M 4.497, 1.000 L 4.497, -1.000 M 7.333, 1.000 L 7.333, -1.000 M 11.028, 1.000 L 11.028, -1.000 M 20.000, 1.000 L 20.000, -1.000" transform="translate(15,0)"/>
            <text class="smalltext" x="7" y="0">20</text>
        </g>
        <g transform="translate(0,10)">
            <path class="stitch_line color_0" d="M 0.000, 0.000 L 26.000, 0.000 M 0.000, 1.000 L 0.000, -1.000 M 1.924, 1.000 L 1.924, -1.000 M 4.016, 1.000 L 4.016, -1.000 M 6.330, 1.000 L 6.330, -1.000 M 8.957, 1.000 L 8.957, -1.000 M 12.072, 1.000 L 12.072, -1.000 M 16.132, 1.000 L 16.132, -1.000 M 26.000, 1.000 L 26.000, -1.000" transform="translate(15,0)"/>
            <text class="smalltext" x="7" y="0">26</text>
        </g>
        <g transform="translate(0,15)">
            <path class="stitch_line color_0" d="M 0.000, 0.000 L 32.000, 0.000 M 0.000, 1.000 L 0.000, -1.000 M 2.062, 1.000 L 2.062, -1.000 M 4.277, 1.000 L 4.277, -1.000 M 6.685, 1.000 L 6.685, -1.000 M 9.349, 1.000 L 9.349, -1.000 M 12.373, 1.000 L 12.373, -1.000 M 15.960, 1.000 L 15.960, -1.000 M 20.634, 1.000 L 20.634, -1.000 M 32.000, 1.000 L 32.000, -1.000" transform="translate(15,0)"/>
            <text class="smalltext" x="7" y="0">32</text>
        </g>
        <g transform="translate(0,20)">
            <path class="stitch_line color_0" d="M 0.000, 0.000 L 38.000, 0.000 M 0.000, 1.000 L 0.000, -1.000 M 1.945, 1.000 L 1.945, -1.000 M 4.002, 1.000 L 4.002, -1.000 M 6.191, 1.000 L 6.191, -1.000 M 8.544, 1.000 L 8.544, -1.000 M 11.102, 1.000 L 11.102, -1.000 M 13.932, 1.000 L 13.932, -1.000 M 17.144, 1.000 L 17.144, -1.000 M 20.953, 1.000 L 20.953, -1.000 M 25.918, 1.000 L 25.918, -1.000 M 38.000, 1.000 L 38.000, -1.000" transform="translate(15,0)"/>
            <text class="smalltext" x="7" y="0">38</text>
        </g>
        <g transform="translate(0,25)">
            <path class="stitch_line color_0" d="M 0.000, 0.000 L 44.000, 0.000 M 0.000, 1.000 L 0.000, -1.000 M 2.043, 1.000 L 2.043, -1.000 M 4.190, 1.000 L 4.190, -1.000 M 6.461, 1.000 L 6.461, -1.000 M 8.878, 1.000 L 8.878, -1.000 M 11.475, 1.000 L 11.475, -1.000 M 14.299, 1.000 L 14.299, -1.000 M 17.423, 1.000 L 17.423, -1.000 M 20.969, 1.000 L 20.969, -1.000 M 25.175, 1.000 L 25.175, -1.000 M 30.657, 1.000 L 30.657, -1.000 M 44.000, 1.000 L 44.000, -1.000" transform="translate(15,0)"/>
            <text class="smalltext" x="7" y="0">44</text>
        </g>
        <g transform="translate(0,30)">
            <path class="stitch_line color_0" d="M 0.000, 0.000 L 50.000, 0.000 M 0.000, 1.000 L 0.000, -1.000 M 1.957, 1.000 L 1.957, -1.000 M 3.997, 1.000 L 3.997, -1.000 M 6.132, 1.000 L 6.132, -1.000 M 8.377, 1.000 L 8.377, -1.000 M 10.750, 1.000 L 10.750, -1.000 M 13.277, 1.000 L 13.277, -1.000 M 15.992, 1.000 L 15.992, -1.000 M 18.944, 1.000 L 18.944, -1.000 M 22.209, 1.000 L 22.209, -1.000 M 25.916, 1.000 L 25.916, -1.000 M 30.312, 1.000 L 30.312, -1.000 M 36.042, 1.000 L 36.042, -1.000 M 50.000, 1.000 L 50.000, -1.000" transform="translate(15,0)"/>
            <text class="smalltext" x="7" y="0">50</text>
        </g>
        <g transform="translate(0,35)">
            <path class="stitch_line color_0" d="M 0.000, 0.000 L 56.000, 0.000 M 0.000, 1.000 L 0.000, -1.000 M 2.032, 1.000 L 2.032, -1.000 M 4.144, 1.000 L 4.144, -1.000 M 6.346, 1.000 L 6.346, -1.000 M 8.650, 1.000 L 8.650, -1.000 M 11.073, 1.000 L 11.073, -1.000 M 13.634, 1.000 L 13.634, -1.000 M 16.361, 1.000 L 16.361, -1.000 M 19.291, 1.000 L 19.291, -1.000 M 22.477, 1.000 L 22.477, -1.000 M 26.001, 1.000 L 26.001, -1.000 M 30.002, 1.000 L 30.002, -1.000 M 34.747, 1.000 L 34.747, -1.000 M 40.931, 1.000 L 40.931, -1.000 M 56.000, 1.000 L 56.000, -1.000" transform="translate(15,0)"/>
            <text class="smalltext" x="7" y="0">56</text>
        </g>
        <g transform="translate(0,40)">
            <path class="stitch_line color_0" d="M 0.000, 0.000 L 62.000, 0.000 M 0.000, 1.000 L 0.000, -1.000 M 1.964, 1.000 L 1.964, -1.000 M 3.994, 1.000 L 3.994, -1.000 M 6.099, 1.000 L 6.099, -1.000 M 8.286, 1.000 L 8.286, -1.000 M 10.566, 1.000 L 10.566, -1.000 M 12.952, 1.000 L 12.952, -1.000 M 15.461, 1.000 L 15.461, -1.000 M 18.114, 1.000 L 18.114, -1.000 M 20.939, 1.000 L 20.939, -1.000 M 23.973, 1.000 L 23.973, -1.000 M 27.272, 1.000 L 27.272, -1.000 M 30.923, 1.000 L 30.923, -1.000 M 35.065, 1.000 L 35.065, -1.000 M 39.979, 1.000 L 39.979, -1.000 M 46.384, 1.000 L 46.384, -1.000 M 62.000, 1.000 L 62.000, -1.000" transform="translate(15,0)"/>
            <text class="smalltext" x="7" y="0">62</text>
        </g>
        <g transform="translate(0,45)">
            <path class="stitch_line color_0" d="M 0.000, 0.000 L 68.000, 0.000 M 0.000, 1.000 L 0.000, -1.000 M 2.025, 1.000 L 2.025, -1.000 M 4.115, 1.000 L 4.115, -1.000 M 6.275, 1.000 L 6.275, -1.000 M 8.514, 1.000 L 8.514, -1.000 M 10.841, 1.000 L 10.841, -1.000 M 13.268, 1.000 L 13.268, -1.000 M 15.807, 1.000 L 15.807, -1.000 M 18.477, 1.000 L 18.477, -1.000 M 21.299, 1.000 L 21.299, -1.000 M 24.304, 1.000 L 24.304, -1.000 M 27.533, 1.000 L 27.533, -1.000 M 31.044, 1.000 L 31.044, -1.000 M 34.928, 1.000 L 34.928, -1.000 M 39.336, 1.000 L 39.336, -1.000 M 44.564, 1.000 L 44.564, -1.000 M 51.378, 1.000 L 51.378, -1.000 M 68.000, 1.000 L 68.000, -1.000" transform="translate(15,0)"/>
            <text class="smalltext" x="7" y="0">68</text>
        </g>
        <g transform="translate(0,50)">
            <path class="stitch_line color_0" d="M 0.000, 0.000 L 74.000, 0.000 M 0.000, 1.000 L 0.000, -1.000 M 1.969, 1.000 L 1.969, -1.000 M 3.993, 1.000 L 3.993, -1.000 M 6.078, 1.000 L 6.078, -1.000 M 8.229, 1.000 L 8.229, -1.000 M 10.453, 1.000 L 10.453, -1.000 M 12.758, 1.000 L 12.758, -1.000 M 15.153, 1.000 L 15.153, -1.000 M 17.650, 1.000 L 17.650, -1.000 M 20.264, 1.000 L 20.264, -1.000 M 23.012, 1.000 L 23.012, -1.000 M 25.917, 1.000 L 25.917, -1.000 M 29.011, 1.000 L 29.011, -1.000 M 32.335, 1.000 L 32.335, -1.000 M 35.949, 1.000 L 35.949, -1.000 M 39.946, 1.000 L 39.946, -1.000 M 44.484, 1.000 L 44.484, -1.000 M 49.866, 1.000 L 49.866, -1.000 M 56.881, 1.000 L 56.881, -1.000 M 74.000, 1.000 L 74.000, -1.000" transform="translate(15,0)"/>
            <text class="smalltext" x="7" y="0">74</text>
        </g>
        <g transform="translate(0,55)">
            <path class="stitch_line color_0" d="M 0.000, 0.000 L 80.000, 0.000 M 0.000, 1.000 L 0.000, -1.000 M 2.021, 1.000 L 2.021, -1.000 M 4.095, 1.000 L 4.095, -1.000 M 6.228, 1.000 L 6.228, -1.000 M 8.425, 1.000 L 8.425, -1.000 M 10.691, 1.000 L 10.691, -1.000 M 13.035, 1.000 L 13.035, -1.000 M 15.463, 1.000 L 15.463, -1.000 M 17.987, 1.000 L 17.987, -1.000 M 20.619, 1.000 L 20.619, -1.000 M 23.373, 1.000 L 23.373, -1.000 M 26.269, 1.000 L 26.269, -1.000 M 29.330, 1.000 L 29.330, -1.000 M 32.590, 1.000 L 32.590, -1.000 M 36.092, 1.000 L 36.092, -1.000 M 39.900, 1.000 L 39.900, -1.000 M 44.112, 1.000 L 44.112, -1.000 M 48.894, 1.000 L 48.894, -1.000 M 54.565, 1.000 L 54.565, -1.000 M 61.956, 1.000 L 61.956, -1.000 M 80.000, 1.000 L 80.000, -1.000" transform="translate(15,0)"/>
            <text class="smalltext" x="7" y="0">80</text>
        </g>
    </g>
</svg>
