<?xml version="1.0" encoding="utf-8" ?>
<svg xmlns="http://www.w3.org/2000/svg" xmlns:ev="http://www.w3.org/2001/xml-events" xmlns:xlink="http://www.w3.org/1999/xlink" baseProfile="full" height="60mm" version="1.1" viewBox="0,0,100,60" width="100mm">
    <defs>
        <style type="text/css"><![CDATA[
.stitch_line {
    stroke-width: 0.3;
    stroke-linejoin: round;
    stroke-linecap: round;
    fill: none;
}
.path_center_line {
    fill: none;
    stroke:#808080;
    stroke-width: 0.2;
    stroke-linejoin: round;
    stroke-linecap: round;
}
.path_contour {
    fill: #808080;
    fill-opacity: 0.3;
    stroke: #808080;
    stroke-opacity: 1;
    stroke-width: 0.3;
}
.text{
    text-anchor: middle;
    dominant-baseline: middle;
    font-family: sans-serif;
    font-size: 1.5mm;
}
.smalltext{
    text-anchor: middle;
    dominant-baseline: middle;
    font-family: sans-serif;
    font-size: 1mm;
}
.color_0 {
    stroke:#3bb2d0;
}
]]></style>
    </defs>
    <g>
        <g transform="translate(0,5)">
            <path class="stitch_line color_0" d="M 0.000, 0.000 L 80.000, 0.000 M 15.000, 1.000 L 15.000, -1.000 M 30.000, 1.000 L 30.000, -1.000 M 45.000, 1.000 L 45.000, -1.000 M 60.000, 1.000 L 60.000, -1.000 M 75.000, 1.000 L 75.000, -1.000" transform="translate(15,0)"/>
            <text class="smalltext" x="7" y="0">80</text>
        </g>
        <g transform="translate(0,10)">
            <path class="stitch_line color_0" d="M 0.000, 0.000 L 80.000, 0.000 M 15.000, 1.000 L 15.000, -1.000 M 30.000, 1.000 L 30.000, -1.000 M 45.000, 1.000 L 45.000, -1.000 M 60.000, 1.000 L 60.000, -1.000 M 75.000, 1.000 L 75.000, -1.000" transform="translate(15,0)"/>
            <text class="smalltext" x="7" y="0">80</text>
        </g>
        <g transform="translate(0,15)">
            <path class="stitch_line color_0" d="M 0.000, 0.000 L 80.000, 0.000 M 7.500, 1.000 L 7.500, -1.000 M 22.500, 1.000 L 22.500, -1.000 M 37.500, 1.000 L 37.500, -1.000 M 52.500, 1.000 L 52.500, -1.000 M 67.500, 1.000 L 67.500, -1.000" transform="translate(15,0)"/>
            <text class="smalltext" x="7" y="0">80</text>
        </g>
        <g transform="translate(0,20)">
            <path class="stitch_line color_0" d="M 0.000, 0.000 L 80.000, 0.000 M 7.500, 1.000 L 7.500, -1.000 M 22.500, 1.000 L 22.500, -1.000 M 37.500, 1.000 L 37.500, -1.000 M 52.500, 1.000 L 52.500, -1.000 M 67.500, 1.000 L 67.500, -1.000" transform="translate(15,0)"/>
            <text class="smalltext" x="7" y="0">80</text>
        </g>
        <g transform="translate(0,25)">
            <path class="stitch_line color_0" d="M 0.000, 0.000 L 80.000, 0.000 M 15.000, 1.000 L 15.000, -1.000 M 30.000, 1.000 L 30.000, -1.000 M 45.000, 1.000 L 45.000, -1.000 M 60.000, 1.000 L 60.000, -1.000 M 75.000, 1.000 L 75.000, -1.000" transform="translate(15,0)"/>
            <text class="smalltext" x="7" y="0">80</text>
        </g>
        <g transform="translate(0,30)">
            <path class="stitch_line color_0" d="M 0.000, 0.000 L 80.000, 0.000 M 15.000, 1.000 L 15.000, -1.000 M 30.000, 1.000 L 30.000, -1.000 M 45.000, 1.000 L 45.000, -1.000 M 60.000, 1.000 L 60.000, -1.000 M 75.000, 1.000 L 75.000, -1.000" transform="translate(15,0)"/>
            <text class="smalltext" x="7" y="0">80</text>
        </g>
        <g transform="translate(0,35)">
            <path class="stitch_line color_0" d="M 0.000, 0.000 L 80.000, 0.000 M 7.500, 1.000 L 7.500, -1.000 M 22.500, 1.000 L 22.500, -1.000 M 37.500, 1.000 L 37.500, -1.000 M 52.500, 1.000 L 52.500, -1.000 M 67.500, 1.000 L 67.500, -1.000" transform="translate(15,0)"/>
            <text class="smalltext" x="7" y="0">80</text>
        </g>
        <g transform="translate(0,40)">
            <path class="stitch_line color_0" d="M 0.000, 0.000 L 80.000, 0.000 M 7.500, 1.000 L 7.500, -1.000 M 22.500, 1.000 L 22.500, -1.000 M 37.500, 1.000 L 37.500, -1.000 M 52.500, 1.000 L 52.500, -1.000 M 67.500, 1.000 L 67.500, -1.000" transform="translate(15,0)"/>
            <text class="smalltext" x="7" y="0">80</text>
        </g>
        <g transform="translate(0,45)">
            <path class="stitch_line color_0" d="M 0.000, 0.000 L 80.000, 0.000 M 15.000, 1.000 L 15.000, -1.000 M 30.000, 1.000 L 30.000, -1.000 M 45.000, 1.000 L 45.000, -1.000 M 60.000, 1.000 L 60.000, -1.000 M 75.000, 1.000 L 75.000, -1.000" transform="translate(15,0)"/>
            <text class="smalltext" x="7" y="0">80</text>
        </g>
        <g transform="translate(0,50)">
            <path class="stitch_line color_0" d="M 0.000, 0.000 L 80.000, 0.000 M 15.000, 1.000 L 15.000, -1.000 M 30.000, 1.000 L 30.000, -1.000 M 45.000, 1.000 L 45.000, -1.000 M 60.000, 1.000 L 60.000, -1.000 M 75.000, 1.000 L 75.000, -1.000" transform="translate(15,0)"/>
            <text class="smalltext" x="7" y="0">80</text>
        </g>
        <g transform="translate(0,55)">
            <path class="stitch_line color_0" d="M 0.000, 0.000 L 80.000, 0.000 M 7.500, 1.000 L 7.500, -1.000 M 22.500, 1.000 L 22.500, -1.000 M 37.500, 1.000 L 37.500, -1.000 M 52.500, 1.000 L 52.500, -1.000 M 67.500, 1.000 L 67.500, -1.000" transform="translate(15,0)"/>
            <text class="smalltext" x="7" y="0">80</text>
        </g>
    </g>
</svg>
