<?xml version="1.0" encoding="utf-8" ?>
<svg xmlns="http://www.w3.org/2000/svg" xmlns:ev="http://www.w3.org/2001/xml-events" xmlns:xlink="http://www.w3.org/1999/xlink" baseProfile="full" height="60mm" version="1.1" viewBox="0,0,100,60" width="100mm">
    <defs>
        <style type="text/css"><![CDATA[
.stitch_line {
    stroke-width: 0.3;
    stroke-linejoin: round;
    stroke-linecap: round;
    fill: none;
}
.path_center_line {
    fill: none;
    stroke:#808080;
    stroke-width: 0.2;
    stroke-linejoin: round;
    stroke-linecap: round;
}
.path_contour {
    fill: #808080;
    fill-opacity: 0.3;
    stroke: #808080;
    stroke-opacity: 1;
    stroke-width: 0.3;
}
.text{
    text-anchor: middle;
    dominant-baseline: middle;
    font-family: sans-serif;
    font-size: 1.5mm;
}
.smalltext{
    text-anchor: middle;
    dominant-baseline: middle;
    font-family: sans-serif;
    font-size: 1mm;
}
.color_0 {
    stroke:#3bb2d0;
}
]]></style>
    </defs>
    <g>
        <g transform="translate(0,5)">
            <path class="stitch_line color_0" d="M 0.000, 0.000 L 60.000, 0.000 M 0.000, 1.000 L 0.000, -1.000 M 20.000, 1.000 L 20.000, -1.000 M 40.000, 1.000 L 40.000, -1.000 M 60.000, 1.000 L 60.000, -1.000" transform="translate(15,0)"/>
            <text class="smalltext" x="7" y="0">60</text>
        </g>
        <g transform="translate(0,10)">
            <path class="stitch_line color_0" d="M 0.000, 0.000 L 62.000, 0.000 M 0.000, 1.000 L 0.000, -1.000 M 20.667, 1.000 L 20.667, -1.000 M 41.333, 1.000 L 41.333, -1.000 M 62.000, 1.000 L 62.000, -1.000" transform="translate(15,0)"/>
            <text class="smalltext" x="7" y="0">62</text>
        </g>
        <g transform="translate(0,15)">
            <path class="stitch_line color_0" d="M 0.000, 0.000 L 64.000, 0.000 M 0.000, 1.000 L 0.000, -1.000 M 21.333, 1.000 L 21.333, -1.000 M 42.667, 1.000 L 42.667, -1.000 M 64.000, 1.000 L 64.000, -1.000" transform="translate(15,0)"/>
            <text class="smalltext" x="7" y="0">64</text>
        </g>
        <g transform="translate(0,20)">
            <path class="stitch_line color_0" d="M 0.000, 0.000 L 66.000, 0.000 M 0.000, 1.000 L 0.000, -1.000 M 22.000, 1.000 L 22.000, -1.000 M 44.000, 1.000 L 44.000, -1.000 M 66.000, 1.000 L 66.000, -1.000" transform="translate(15,0)"/>
            <text class="smalltext" x="7" y="0">66</text>
        </g>
        <g transform="translate(0,25)">
            <path class="stitch_line color_0" d="M 0.000, 0.000 L 68.000, 0.000 M 0.000, 1.000 L 0.000, -1.000 M 22.667, 1.000 L 22.667, -1.000 M 45.333, 1.000 L 45.333, -1.000 M 68.000, 1.000 L 68.000, -1.000" transform="translate(15,0)"/>
            <text class="smalltext" x="7" y="0">68</text>
        </g>
        <g transform="translate(0,30)">
            <path class="stitch_line color_0" d="M 0.000, 0.000 L 70.000, 0.000 M 0.000, 1.000 L 0.000, -1.000 M 17.500, 1.000 L 17.500, -1.000 M 35.000, 1.000 L 35.000, -1.000 M 52.500, 1.000 L 52.500, -1.000 M 70.000, 1.000 L 70.000, -1.000" transform="translate(15,0)"/>
            <text class="smalltext" x="7" y="0">70</text>
        </g>
        <g transform="translate(0,35)">
            <path class="stitch_line color_0" d="M 0.000, 0.000 L 72.000, 0.000 M 0.000, 1.000 L 0.000, -1.000 M 18.000, 1.000 L 18.000, -1.000 M 36.000, 1.000 L 36.000, -1.000 M 54.000, 1.000 L 54.000, -1.000 M 72.000, 1.000 L 72.000, -1.000" transform="translate(15,0)"/>
            <text class="smalltext" x="7" y="0">72</text>
        </g>
        <g transform="translate(0,40)">
            <path class="stitch_line color_0" d="M 0.000, 0.000 L 74.000, 0.000 M 0.000, 1.000 L 0.000, -1.000 M 18.500, 1.000 L 18.500, -1.000 M 37.000, 1.000 L 37.000, -1.000 M 55.500, 1.000 L 55.500, -1.000 M 74.000, 1.000 L 74.000, -1.000" transform="translate(15,0)"/>
            <text class="smalltext" x="7" y="0">74</text>
        </g>
        <g transform="translate(0,45)">
            <path class="stitch_line color_0" d="M 0.000, 0.000 L 76.000, 0.000 M 0.000, 1.000 L 0.000, -1.000 M 19.000, 1.000 L 19.000, -1.000 M 38.000, 1.000 L 38.000, -1.000 M 57.000, 1.000 L 57.000, -1.000 M 76.000, 1.000 L 76.000, -1.000" transform="translate(15,0)"/>
            <text class="smalltext" x="7" y="0">76</text>
        </g>
        <g transform="translate(0,50)">
            <path class="stitch_line color_0" d="M 0.000, 0.000 L 78.000, 0.000 M 0.000, 1.000 L 0.000, -1.000 M 19.500, 1.000 L 19.500, -1.000 M 39.000, 1.000 L 39.000, -1.000 M 58.500, 1.000 L 58.500, -1.000 M 78.000, 1.000 L 78.000, -1.000" transform="translate(15,0)"/>
            <text class="smalltext" x="7" y="0">78</text>
        </g>
        <g transform="translate(0,55)">
            <path class="stitch_line color_0" d="M 0.000, 0.000 L 80.000, 0.000 M 0.000, 1.000 L 0.000, -1.000 M 20.000, 1.000 L 20.000, -1.000 M 40.000, 1.000 L 40.000, -1.000 M 60.000, 1.000 L 60.000, -1.000 M 80.000, 1.000 L 80.000, -1.000" transform="translate(15,0)"/>
            <text class="smalltext" x="7" y="0">80</text>
        </g>
    </g>
</svg>
