<?xml version="1.0" encoding="UTF-8" standalone="no"?>
<svg
   xmlns:dc="http://purl.org/dc/elements/1.1/"
   xmlns:cc="http://creativecommons.org/ns#"
   xmlns:rdf="http://www.w3.org/1999/02/22-rdf-syntax-ns#"
   xmlns:svg="http://www.w3.org/2000/svg"
   xmlns="http://www.w3.org/2000/svg"
   xmlns:xlink="http://www.w3.org/1999/xlink"
   xmlns:sodipodi="http://sodipodi.sourceforge.net/DTD/sodipodi-0.dtd"
   xmlns:inkscape="http://www.inkscape.org/namespaces/inkscape"
   id="svg8"
   version="1.1"
   viewBox="0 0 700 1250"
   height="125mm"
   width="70mm"
   sodipodi:docname="variable_running_stitch.svg">
  <defs
     id="defs2">
    <marker
       inkscape:stockid="DotS"
       orient="auto"
       refY="0.0"
       refX="0.0"
       id="DotS"
       style="overflow:visible"
       inkscape:isstock="true">
      <path
         id="path957"
         d="M -2.5,-1.0 C -2.5,1.7600000 -4.7400000,4.0 -7.5,4.0 C -10.260000,4.0 -12.5,1.7600000 -12.5,-1.0 C -12.5,-3.7600000 -10.260000,-6.0 -7.5,-6.0 C -4.7400000,-6.0 -2.5,-3.7600000 -2.5,-1.0 z "
         style="fill-rule:evenodd;stroke:#0080ff;stroke-width:1pt;stroke-opacity:1;fill:#0080ff;fill-opacity:1"
         transform="scale(0.2) translate(7.4, 1)" />
    </marker>
    <marker
       markerWidth="2.3897631"
       markerHeight="8.5590537"
       refX="0"
       refY="0"
       orient="auto"
       id="marker1355">
      <path
         inkscape:connector-curvature="0"
         id="path1353"
         d="M 1.8897638,-3.7795275 H 0 V 3.7795275 H 1.8897638"
         style="fill:none;stroke:#000000;stroke-width:0.999999px;stroke-linecap:butt;stroke-linejoin:miter;stroke-opacity:1" />
    </marker>
    <marker
       markerWidth="2.3897631"
       markerHeight="8.5590537"
       refX="0"
       refY="0"
       orient="auto"
       id="marker1356">
      <path
         inkscape:connector-curvature="0"
         id="path1635"
         d="M -1.8897638,-3.7795275 H 0 V 3.7795275 H -1.8897638"
         style="fill:none;stroke:#000000;stroke-width:0.999999px;stroke-linecap:butt;stroke-linejoin:miter;stroke-opacity:1" />
    </marker>
  </defs>
  <sodipodi:namedview
     inkscape:showpageshadow="false"
     showborder="true"
     showgrid="false"
     inkscape:document-rotation="0"
     inkscape:current-layer="layer1"
     inkscape:document-units="mm"
     inkscape:cy="236.22047"
     inkscape:cx="132.28346"
     inkscape:zoom="2.2076833"
     inkscape:pageshadow="2"
     inkscape:pageopacity="0.0"
     borderopacity="1"
     bordercolor="#cacaca"
     pagecolor="#ffffff"
     id="base"
     inkscape:window-width="1600"
     inkscape:window-height="1209"
     inkscape:window-x="0"
     inkscape:window-y="23"
     inkscape:window-maximized="0"
     inkscape:snap-center="true">
    <inkscape:grid
       empopacity="0.21568627"
       empcolor="#226dab"
       opacity="0.2"
       color="#4da8f1"
       spacingy="5"
       spacingx="5"
       units="mm"
       id="big_grid"
       type="xygrid" />
    <inkscape:grid
       opacity="0.1254902"
       color="#9f9f9f"
       empopacity="0"
       empcolor="#9f9f9f"
       spacingy="1"
       spacingx="1"
       units="mm"
       id="small_grid"
       type="xygrid" />
  </sodipodi:namedview>
  <metadata
     id="metadata5">
    <rdf:RDF>
      <cc:Work
         rdf:about="">
        <dc:format>image/svg+xml</dc:format>
        <dc:type
           rdf:resource="http://purl.org/dc/dcmitype/StillImage" />
        <dc:title />
      </cc:Work>
    </rdf:RDF>
  </metadata>
  <g
     id="layer1"
     transform="translate(100 200)">
    <g
       id="g918">
      <g
         id="g872">
        <rect
           style="fill:#ffffff;stroke:none;stroke-width:0px;stop-color:#000000;fill-opacity:1"
           id="rect867"
           width="550"
           height="150"
           x="-25"
           y="-125" />
        <path
           sodipodi:nodetypes="ccccccccccccccccccccccccccccccccccc"
           inkscape:connector-curvature="0"
           d="M 552.2347,0 H 483.33333 H 466.66667 H 450 H 433.33333 H 416.66667 H 400 H 383.33333 H 366.66667 H 350 H 333.33333 H 316.66667 H 300 H 283.33333 H 266.66667 H 250 H 233.33333 H 216.66667 H 200 H 183.33333 H 166.66667 H 150 H 133.33333 H 116.66667 H 100 H 83.333333 H 66.666667 H 50 H 33.333333 H 16.666667 H 0 V -25.000003 V -50.000003 V -75.000004 V -125"
           style="stroke:#000000;stroke-width:3;stroke-miterlimit:4;stroke-dasharray:none;stroke-opacity:1;fill:none"
           id="path839" />
        <path
           d="M 0,-25.0 H 500.0 M 0,-50.0 H 500.0 M 0,-75.0 H 500.0 M 0,-100.0 H 500.0"
           style="fill:none;stroke:#888888;stroke-width:0.5;stroke-linecap:butt;stroke-linejoin:miter;stroke-miterlimit:4;stroke-dasharray:none;stroke-opacity:1"
           id="path888" />
        <text
           xml:space="preserve"
           style="font-style:normal;font-weight:normal;font-size:105.833px;line-height:1.25;font-family:sans-serif;fill:#000000;fill-opacity:1;stroke:none;stroke-width:2.64583"
           x="484.42139"
           y="26.653887"
           id="text9341"><tspan
             sodipodi:role="line"
             id="tspan9339"
             x="484.42139"
             y="26.653887"
             style="font-size:21.1667px;stroke-width:2.64583">indices</tspan></text>
        <path
           sodipodi:nodetypes="ccc"
           inkscape:connector-curvature="0"
           id="path9361"
           d="M 545,5 L 555.0,0 L 545,-5"
           style="fill:none;stroke:#000000;stroke-width:2.64583px;stroke-linecap:butt;stroke-linejoin:miter;stroke-opacity:1" />
        <path
           inkscape:transform-center-y="-4e-06"
           style="fill:none;stroke:#000000;stroke-width:2.64583px;stroke-linecap:butt;stroke-linejoin:miter;stroke-opacity:1"
           d="M 5.0,-115 L 0,-125.00001 L -5.0,-115"
           id="path9396"
           inkscape:connector-curvature="0"
           sodipodi:nodetypes="ccc" />
      </g>
      <path
         style="marker-mid:url(#DotS)"
         id="path853"
         stroke-width="3"
         stroke="#0080ff"
         fill="none"
         d="M 0.0,0.0 16.666666666666668,-4.322727117869945 33.333333333333336,-16.543469682057076 50.0,-34.54915028125262 66.66666666666667,-55.22642316338265 83.33333333333331,-74.99999999999997 100.0,-90.45084971874736 116.66666666666666,-98.90738003669028 133.33333333333334,-98.90738003669028 150.0,-90.45084971874735 166.66666666666663,-75.0 183.33333333333331,-55.22642316338268 200.0,-34.54915028125264 216.66666666666669,-16.543469682057083 233.33333333333331,-4.322727117869974 250.0,0.0 266.6666666666667,-4.322727117869957 283.3333333333333,-16.543469682057054 300.0,-34.54915028125261 316.66666666666663,-55.2264231633826 333.33333333333326,-74.99999999999996 350.0,-90.45084971874736 366.66666666666663,-98.90738003669027 383.33333333333326,-98.9073800366903 400.0,-90.45084971874738 416.66666666666674,-74.99999999999991 433.33333333333337,-55.22642316338264 450.0,-34.549150281252736 466.66666666666663,-16.543469682057086 483.33333333333337,-4.322727117869945 500.0,0.0" />
      <text
         xml:space="preserve"
         style="font-style:normal;font-weight:normal;font-size:105.833px;line-height:1.25;font-family:sans-serif;fill:#000000;fill-opacity:1;stroke:none;stroke-width:2.64583"
         x="-25.730179"
         y="7.6740284"
         id="text9341-5"><tspan
           sodipodi:role="line"
           id="tspan9339-5"
           x="-25.730179"
           y="7.6740284"
           style="font-size:21.1667px;stroke-width:2.64583">0</tspan></text>
      <text
         id="text9373"
         y="-92.325974"
         x="-25.730179"
         style="font-style:normal;font-weight:normal;font-size:105.833px;line-height:1.25;font-family:sans-serif;fill:#000000;fill-opacity:1;stroke:none;stroke-width:2.64583"
         xml:space="preserve"><tspan
           style="font-size:21.1667px;stroke-width:2.64583"
           y="-92.325974"
           x="-25.730179"
           id="tspan9371"
           sodipodi:role="line">1</tspan></text>
      <text
         id="text9341-52"
         y="-143.11934"
         x="-0.46508896"
         style="font-style:normal;font-weight:normal;font-size:105.833px;line-height:1.25;font-family:sans-serif;fill:#000000;fill-opacity:1;stroke:none;stroke-width:2.64583"
         xml:space="preserve"><tspan
           style="font-size:21.1667px;text-align:center;text-anchor:middle;stroke-width:2.64583"
           y="-143.11934"
           x="-0.46509007"
           id="tspan9339-4"
           sodipodi:role="line">width</tspan></text>
    </g>
    <g
       id="g935">
      <use
         height="100%"
         width="100%"
         transform="translate(0,200)"
         id="use874"
         xlink:href="#g872"
         y="0"
         x="0" />
      <path
         style="stroke:none;fill:#0080ff"
         id="path855"
         stroke-width="3"
         stroke="#0080ff"
         fill="none"
         d="M 500,200 H 483.33333 V 200 H 466.66667 V 175 H 450 V 150 H 433.33333 V 125 H 416.66667 V 100 H 400 V 100 H 383.33333 V 100 H 366.66667 V 100 H 350 V 100 H 333.33333 V 125 H 316.66667 V 150 H 300 V 175 H 283.33333 V 200 H 266.66667 V 200 H 250 V 200 H 233.33333 V 200 H 216.66667 V 175 H 200 V 150 H 183.33333 V 125 H 166.66667 V 100 H 150 V 100 H 133.33333 V 100 H 116.66667 V 100 H 100 V 100 H 83.333333 V 125 H 66.666667 V 150 H 50 V 175 H 33.333333 V 200 H 16.666667 V 200 H 0 Z" />
      <g
         id="g9456">
        <text
           id="text9422"
           y="56.880661"
           x="-0.46508896"
           style="font-style:normal;font-weight:normal;font-size:105.833px;line-height:1.25;font-family:sans-serif;fill:#000000;fill-opacity:1;stroke:none;stroke-width:2.64583"
           xml:space="preserve"><tspan
             style="font-size:21.1667px;text-align:center;text-anchor:middle;stroke-width:2.64583"
             y="56.880661"
             x="-0.46509004"
             id="tspan9420"
             sodipodi:role="line">levels</tspan></text>
        <text
           xml:space="preserve"
           style="font-style:normal;font-weight:normal;font-size:105.833px;line-height:1.25;font-family:sans-serif;fill:#000000;fill-opacity:1;stroke:none;stroke-width:2.64583"
           x="-25.730179"
           y="207.67403"
           id="text9426"><tspan
             sodipodi:role="line"
             id="tspan9424"
             x="-25.730179"
             y="207.67403"
             style="font-size:21.1667px;stroke-width:2.64583">0</tspan></text>
        <text
           id="text9430"
           y="107.67403"
           x="-25.730179"
           style="font-style:normal;font-weight:normal;font-size:105.833px;line-height:1.25;font-family:sans-serif;fill:#000000;fill-opacity:1;stroke:none;stroke-width:2.64583"
           xml:space="preserve"><tspan
             style="font-size:21.1667px;stroke-width:2.64583"
             y="107.67403"
             x="-25.730179"
             id="tspan9428"
             sodipodi:role="line">4</tspan></text>
        <text
           id="text9434"
           y="182.67403"
           x="-25.730179"
           style="font-style:normal;font-weight:normal;font-size:105.833px;line-height:1.25;font-family:sans-serif;fill:#000000;fill-opacity:1;stroke:none;stroke-width:2.64583"
           xml:space="preserve"><tspan
             style="font-size:21.1667px;stroke-width:2.64583"
             y="182.67403"
             x="-25.730179"
             id="tspan9432"
             sodipodi:role="line">1</tspan></text>
        <text
           xml:space="preserve"
           style="font-style:normal;font-weight:normal;font-size:105.833px;line-height:1.25;font-family:sans-serif;fill:#000000;fill-opacity:1;stroke:none;stroke-width:2.64583"
           x="-25.730179"
           y="157.67403"
           id="text9438"><tspan
             sodipodi:role="line"
             id="tspan9436"
             x="-25.730179"
             y="157.67403"
             style="font-size:21.1667px;stroke-width:2.64583">2</tspan></text>
        <text
           id="text9442"
           y="132.67403"
           x="-25.730179"
           style="font-style:normal;font-weight:normal;font-size:105.833px;line-height:1.25;font-family:sans-serif;fill:#000000;fill-opacity:1;stroke:none;stroke-width:2.64583"
           xml:space="preserve"><tspan
             style="font-size:21.1667px;stroke-width:2.64583"
             y="132.67403"
             x="-25.730179"
             id="tspan9440"
             sodipodi:role="line">3</tspan></text>
      </g>
    </g>
    <g
       id="g971">
      <path
         inkscape:connector-curvature="0"
         id="path863"
         stroke-width="3"
         stroke="#0080ff"
         fill="none"
         d="M 1.0882434e-7,950 L 19.67407,968.04444 L 38.72593,982.35556 L 57.2,992.97273 L 75.14074,1000.3899 L 92.59259,1004.8737 L 109.6,1006.6909 L 126.20741,1006.1081 L 142.45926,1003.3919 L 158.4,998.80909 L 174.07407,992.62626 L 189.52593,985.1101 L 204.8,976.52727 L 219.94074,967.14444 L 204.8,976.3 L 189.52593,984.37778 L 174.07407,991.38889 L 158.4,997.06667 L 142.45926,1001.1444 L 126.20741,1003.3556 L 109.6,1003.4333 L 92.59259,1001.1111 L 75.14074,996.12222 L 57.2,988.2 L 75.14074,995.84444 L 92.59259,1000.1984 L 109.6,1001.8857 L 126.20741,1001.173 L 142.45926,998.32698 L 158.4,993.61429 L 174.07407,987.30159 L 189.52593,979.65556 L 174.07407,986.94444 L 158.4,992.4 L 142.45926,996.25556 L 126.20741,998.24444 L 109.6,998.1 L 92.59259,995.55556 L 109.6,997.6 L 126.20741,997.24444 L 142.45926,994.75556 L 158.4,990.4 L 174.07407,984.44444 L 158.4,990.9 L 142.45926,995.75556 L 126.20741,998.74444 L 109.6,999.6 L 92.59259,998.05556 L 75.14074,993.34444 L 92.59259,998.4127 L 109.6,1000.8143 L 126.20741,1000.8159 L 142.45926,998.68413 L 158.4,994.68571 L 174.07407,989.0873 L 189.52593,982.15556 L 204.8,973.8 L 189.52593,982.43333 L 174.07407,990 L 158.4,996.23333 L 142.45926,1000.8667 L 126.20741,1003.6333 L 109.6,1004.2667 L 92.59259,1002.5 L 75.14074,998.06667 L 57.2,990.7 L 38.72593,979.85556 L 57.2,990.92727 L 75.14074,998.79899 L 92.59259,1003.7374 L 109.6,1006.0091 L 126.20741,1005.8808 L 142.45926,1003.6192 L 158.4,999.49091 L 174.07407,993.76263 L 189.52593,986.70101 L 204.8,978.57273 L 219.94074,969.64444 L 234.99259,959.95556 L 250,950 L 265.00741,940.04444 L 280.05926,930.35556 L 295.2,920.97273 L 310.47407,912.3899 L 325.92593,904.87374 L 341.6,898.69091 L 357.54074,894.10808 L 373.79259,891.39192 L 390.4,890.80909 L 407.40741,892.62626 L 424.85926,897.1101 L 442.8,904.52727 L 461.27407,915.14444 L 442.8,904.3 L 424.85926,896.37778 L 407.40741,891.38889 L 390.4,889.06667 L 373.79259,889.14444 L 357.54074,891.35556 L 341.6,895.43333 L 325.92593,901.11111 L 310.47407,908.12222 L 295.2,916.2 L 310.47407,907.84444 L 325.92593,900.19841 L 341.6,893.88571 L 357.54074,889.17302 L 373.79259,886.32698 L 390.4,885.61429 L 407.40741,887.30159 L 424.85926,891.65556 L 407.40741,886.94444 L 390.4,884.4 L 373.79259,884.25556 L 357.54074,886.24444 L 341.6,890.1 L 325.92593,895.55556 L 341.6,889.6 L 357.54074,885.24444 L 373.79259,882.75556 L 390.4,882.4 L 407.40741,884.44444 L 390.4,882.9 L 373.79259,883.75556 L 357.54074,886.74444 L 341.6,891.6 L 325.92593,898.05556 L 310.47407,905.34444 L 325.92593,898.4127 L 341.6,892.81429 L 357.54074,888.81587 L 373.79259,886.68413 L 390.4,886.68571 L 407.40741,889.0873 L 424.85926,894.15556 L 442.8,901.8 L 424.85926,894.43333 L 407.40741,890 L 390.4,888.23333 L 373.79259,888.86667 L 357.54074,891.63333 L 341.6,896.26667 L 325.92593,902.5 L 310.47407,910.06667 L 295.2,918.7 L 280.05926,927.85556 L 295.2,918.92727 L 310.47407,910.79899 L 325.92593,903.73737 L 341.6,898.00909 L 357.54074,893.88081 L 373.79259,891.61919 L 390.4,891.49091 L 407.40741,893.76263 L 424.85926,898.70101 L 442.8,906.57273 L 461.27407,917.64444 L 480.32593,931.95556 L 500,950" />
      <text
         id="text9498"
         y="901.88068"
         x="-27.586292"
         style="font-style:normal;font-weight:normal;font-size:105.833px;line-height:1.25;font-family:sans-serif;fill:#000000;fill-opacity:1;stroke:none;stroke-width:2.64583"
         xml:space="preserve"><tspan
           style="font-size:21.1667px;text-align:left;stroke-width:2.64583"
           y="901.88068"
           x="-27.586292"
           id="tspan9496"
           sodipodi:role="line">apply to curve</tspan></text>
    </g>
    <g
       id="g966">
      <path
         style="fill:none;stroke:#0080ff"
         inkscape:connector-curvature="0"
         id="path861"
         stroke-width="3"
         stroke="#0080ff"
         fill="none"
         d="M 0,760.00001 H 16.66667 H 33.33333 L 50,758.63641 L 66.66667,757.27271 L 83.33333,755.90911 L 100,754.54547 L 116.66667,753.18187 L 133.33333,751.81817 L 150,750.45457 L 166.66667,749.09093 L 183.33333,747.72731 L 200,746.36363 L 216.66667,745.00002 H 200 L 183.33333,743.33334 L 166.66667,741.66666 L 150,740.00003 L 133.33333,738.33336 L 116.66667,736.66667 L 100,734.99999 L 83.33333,733.33338 L 66.66667,731.6667 L 50,730.00001 H 66.66667 L 83.33333,727.85718 L 100,725.71428 L 116.66667,723.57144 L 133.33333,721.42861 L 150,719.28575 L 166.66667,717.14286 L 183.33333,715.00002 H 166.66667 L 150,712.00002 L 133.33333,709.00001 L 116.66667,706.00001 L 100,703.00002 L 83.33333,700.00001 H 100 H 116.66667 H 133.33333 H 150 H 166.66667 L 150,703.00002 L 133.33333,706.00001 L 116.66667,709.00001 L 100,712.00002 L 83.33333,715.00002 H 66.66667 L 83.33333,717.14286 L 100,719.28575 L 116.66667,721.42861 L 133.33333,723.57144 L 150,725.71428 L 166.66667,727.85718 L 183.33333,730.00001 H 200 L 183.33333,731.6667 L 166.66667,733.33338 L 150,734.99999 L 133.33333,736.66667 L 116.66667,738.33336 L 100,740.00003 L 83.33333,741.66666 L 66.66667,743.33334 L 50,745.00002 H 33.33333 L 50,746.36363 L 66.66667,747.72731 L 83.33333,749.09093 L 100,750.45457 L 116.66667,751.81817 L 133.33333,753.18187 L 150,754.54547 L 166.66667,755.90911 L 183.33333,757.27271 L 200,758.63641 L 216.66667,760.00001 H 233.33333 H 250 H 266.66667 H 283.33333 L 300,758.63641 L 316.66667,757.27271 L 333.33333,755.90911 L 350,754.54547 L 366.66667,753.18187 L 383.33333,751.81817 L 400,750.45457 L 416.66667,749.09093 L 433.33333,747.72731 L 450,746.36363 L 466.66667,745.00002 H 450 L 433.33333,743.33334 L 416.66667,741.66666 L 400,740.00003 L 383.33333,738.33336 L 366.66667,736.66667 L 350,734.99999 L 333.33333,733.33338 L 316.66667,731.6667 L 300,730.00001 H 316.66667 L 333.33333,727.85718 L 350,725.71428 L 366.66667,723.57144 L 383.33333,721.42861 L 400,719.28575 L 416.66667,717.14286 L 433.33333,715.00002 H 416.66667 L 400,712.00002 L 383.33333,709.00001 L 366.66667,706.00001 L 350,703.00002 L 333.33333,700.00001 H 350 H 366.66667 H 383.33333 H 400 H 416.66667 L 400,703.00002 L 383.33333,706.00001 L 366.66667,709.00001 L 350,712.00002 L 333.33333,715.00002 H 316.66667 L 333.33333,717.14286 L 350,719.28575 L 366.66667,721.42861 L 383.33333,723.57144 L 400,725.71428 L 416.66667,727.85718 L 433.33333,730.00001 H 450 L 433.33333,731.6667 L 416.66667,733.33338 L 400,734.99999 L 383.33333,736.66667 L 366.66667,738.33336 L 350,740.00003 L 333.33333,741.66666 L 316.66667,743.33334 L 300,745.00002 H 283.33333 L 300,746.36363 L 316.66667,747.72731 L 333.33333,749.09093 L 350,750.45457 L 366.66667,751.81817 L 383.33333,753.18187 L 400,754.54547 L 416.66667,755.90911 L 433.33333,757.27271 L 450,758.63641 L 466.66667,760.00001 H 483.33333 H 500" />
      <path
         d="M 0,810 H 16.66667 H 33.33333 L 50,809.77273 L 66.66667,809.54545 L 83.33333,809.31818 L 100,809.09091 L 116.66667,808.86364 L 133.33333,808.63636 L 150,808.40909 L 166.66667,808.18182 L 183.33333,807.95455 L 200,807.72727 L 216.66667,807.5 H 200 L 183.33333,807.22222 L 166.66667,806.94444 L 150,806.66667 L 133.33333,806.38889 L 116.66667,806.11111 L 100,805.83333 L 83.33333,805.55556 L 66.66667,805.27778 L 50,805 H 66.66667 L 83.33333,804.64286 L 100,804.28571 L 116.66667,803.92857 L 133.33333,803.57143 L 150,803.21429 L 166.66667,802.85714 L 183.33333,802.5 H 166.66667 L 150,802 L 133.33333,801.5 L 116.66667,801 L 100,800.5 L 83.33333,800 H 100 H 116.66667 H 133.33333 H 150 H 166.66667 L 150,800.5 L 133.33333,801 L 116.66667,801.5 L 100,802 L 83.33333,802.5 H 66.66667 L 83.33333,802.85714 L 100,803.21429 L 116.66667,803.57143 L 133.33333,803.92857 L 150,804.28571 L 166.66667,804.64286 L 183.33333,805 H 200 L 183.33333,805.27778 L 166.66667,805.55556 L 150,805.83333 L 133.33333,806.11111 L 116.66667,806.38889 L 100,806.66667 L 83.33333,806.94444 L 66.66667,807.22222 L 50,807.5 H 33.33333 L 50,807.72727 L 66.66667,807.95455 L 83.33333,808.18182 L 100,808.40909 L 116.66667,808.63636 L 133.33333,808.86364 L 150,809.09091 L 166.66667,809.31818 L 183.33333,809.54545 L 200,809.77273 L 216.66667,810 H 233.33333 H 250 H 266.66667 H 283.33333 L 300,809.77273 L 316.66667,809.54545 L 333.33333,809.31818 L 350,809.09091 L 366.66667,808.86364 L 383.33333,808.63636 L 400,808.40909 L 416.66667,808.18182 L 433.33333,807.95455 L 450,807.72727 L 466.66667,807.5 H 450 L 433.33333,807.22222 L 416.66667,806.94444 L 400,806.66667 L 383.33333,806.38889 L 366.66667,806.11111 L 350,805.83333 L 333.33333,805.55556 L 316.66667,805.27778 L 300,805 H 316.66667 L 333.33333,804.64286 L 350,804.28571 L 366.66667,803.92857 L 383.33333,803.57143 L 400,803.21429 L 416.66667,802.85714 L 433.33333,802.5 H 416.66667 L 400,802 L 383.33333,801.5 L 366.66667,801 L 350,800.5 L 333.33333,800 H 350 H 366.66667 H 383.33333 H 400 H 416.66667 L 400,800.5 L 383.33333,801 L 366.66667,801.5 L 350,802 L 333.33333,802.5 H 316.66667 L 333.33333,802.85714 L 350,803.21429 L 366.66667,803.57143 L 383.33333,803.92857 L 400,804.28571 L 416.66667,804.64286 L 433.33333,805 H 450 L 433.33333,805.27778 L 416.66667,805.55556 L 400,805.83333 L 383.33333,806.11111 L 366.66667,806.38889 L 350,806.66667 L 333.33333,806.94444 L 316.66667,807.22222 L 300,807.5 H 283.33333 L 300,807.72727 L 316.66667,807.95455 L 333.33333,808.18182 L 350,808.40909 L 366.66667,808.63636 L 383.33333,808.86364 L 400,809.09091 L 416.66667,809.31818 L 433.33333,809.54545 L 450,809.77273 L 466.66667,810 H 483.33333 H 500"
         fill="none"
         stroke="#0080ff"
         stroke-width="3"
         id="path9462"
         inkscape:connector-curvature="0" />
      <path
         inkscape:connector-curvature="0"
         d="M -40,700 L -40,760 M -30.0,760.0 H -50 M -30,700.0 H -50"
         style="fill:none;stroke:#000000;stroke-width:2.64583px;stroke-linecap:butt;stroke-linejoin:miter;stroke-opacity:1"
         id="path9472" />
      <path
         d="M -40,800 L -40,810 M -30,810 H -50 M -30,800 H -50"
         style="fill:none;stroke:#000000;stroke-width:2.64583px;stroke-linecap:butt;stroke-linejoin:miter;stroke-opacity:1"
         id="path9474"
         inkscape:connector-curvature="0" />
      <text
         xml:space="preserve"
         style="font-style:normal;font-weight:normal;font-size:105.833px;line-height:1.25;font-family:sans-serif;fill:#000000;fill-opacity:1;stroke:none;stroke-width:2.64583"
         x="-27.586292"
         y="666.88068"
         id="text9502"><tspan
           sodipodi:role="line"
           id="tspan9500"
           x="-27.586292"
           y="666.88068"
           style="font-size:21.1667px;text-align:left;stroke-width:2.64583">width scale</tspan></text>
    </g>
    <g
       id="g951">
      <use
         x="0"
         y="0"
         xlink:href="#g872"
         id="use876"
         transform="translate(0,400)"
         width="100%"
         height="100%" />
      <path
         inkscape:connector-curvature="0"
         d="M 500,400 H 483.33333 V 400 H 466.66667 V 375 H 450 V 350 H 433.33333 V 325 H 416.66667 V 300 H 400 V 300 H 383.33333 V 300 H 366.66667 V 300 H 350 V 300 H 333.33333 V 325 H 316.66667 V 350 H 300 V 375 H 283.33333 V 400 H 266.66667 V 400 H 250 V 400 H 233.33333 V 400 H 216.66667 V 375 H 200 V 350 H 183.33333 V 325 H 166.66667 V 300 H 150 V 300 H 133.33333 V 300 H 116.66667 V 300 H 100 V 300 H 83.333333 V 325 H 66.666667 V 350 H 50 V 375 H 33.333333 V 400 H 16.666667 V 400 H 0 Z"
         fill="none"
         stroke="#0080ff"
         stroke-width="3"
         id="path1171"
         style="fill:#0080ff;stroke:none;fill-opacity:0.10483871" />
      <path
         id="path8337"
         d="M 283.33333,375 H 466.66667"
         style="fill:none;stroke:#0080ff;stroke-width:2.65000002;stroke-linecap:butt;stroke-linejoin:miter;stroke-opacity:1;stroke-miterlimit:4;stroke-dasharray:none;marker-start:url(#marker1355);marker-end:url(#marker1356)" />
      <path
         id="path8335"
         d="M 300,350 H 450"
         style="fill:none;stroke:#0080ff;stroke-width:2.65000002;stroke-linecap:butt;stroke-linejoin:miter;stroke-opacity:1;stroke-miterlimit:4;stroke-dasharray:none;marker-start:url(#marker1355);marker-end:url(#marker1356)" />
      <path
         id="path8333"
         d="M 316.66667,325 H 433.33333"
         style="fill:none;stroke:#0080ff;stroke-width:2.65000002;stroke-linecap:butt;stroke-linejoin:miter;stroke-opacity:1;stroke-miterlimit:4;stroke-dasharray:none;marker-start:url(#marker1355);marker-end:url(#marker1356)" />
      <path
         id="path8331"
         d="M 333.33333,300 H 416.66667"
         style="fill:none;stroke:#0080ff;stroke-width:2.65000002;stroke-linecap:butt;stroke-linejoin:miter;stroke-opacity:1;stroke-miterlimit:4;stroke-dasharray:none;marker-start:url(#marker1355);marker-end:url(#marker1356)" />
      <path
         id="path8329"
         d="M 0,400 H 500"
         style="fill:none;stroke:#0080ff;stroke-width:2.65000002;stroke-linecap:butt;stroke-linejoin:miter;stroke-opacity:1;stroke-miterlimit:4;stroke-dasharray:none;marker-start:url(#marker1355);marker-end:url(#marker1356)" />
      <path
         id="path8327"
         d="M 33.333333,375 H 216.66667"
         style="fill:none;stroke:#0080ff;stroke-width:2.65000002;stroke-linecap:butt;stroke-linejoin:miter;stroke-opacity:1;stroke-miterlimit:4;stroke-dasharray:none;marker-start:url(#marker1355);marker-end:url(#marker1356)" />
      <path
         id="path8325"
         d="M 50,350 H 200"
         style="fill:none;stroke:#0080ff;stroke-width:2.65000002;stroke-linecap:butt;stroke-linejoin:miter;stroke-opacity:1;stroke-miterlimit:4;stroke-dasharray:none;marker-start:url(#marker1355);marker-end:url(#marker1356)" />
      <path
         id="path8323"
         d="M 66.666667,325 H 183.33333"
         style="fill:none;stroke:#0080ff;stroke-width:2.65000002;stroke-linecap:butt;stroke-linejoin:miter;stroke-opacity:1;stroke-miterlimit:4;stroke-dasharray:none;marker-start:url(#marker1355);marker-end:url(#marker1356)" />
      <path
         id="path1160"
         d="M 83.333336,300.00002 H 166.66667"
         style="fill:none;stroke:#0080ff;stroke-width:2.65000002;stroke-linecap:butt;stroke-linejoin:miter;stroke-opacity:1;stroke-miterlimit:4;stroke-dasharray:none;marker-start:url(#marker1355);marker-end:url(#marker1356)" />
      <use
         height="100%"
         width="100%"
         transform="translate(0,200)"
         id="use9458"
         xlink:href="#g9456"
         y="0"
         x="0" />
      <text
         id="text905"
         y="256.88068"
         x="214.25389"
         style="font-style:normal;font-weight:normal;font-size:105.833px;line-height:1.25;font-family:sans-serif;fill:#000000;fill-opacity:1;stroke:none;stroke-width:2.64583"
         xml:space="preserve"><tspan
           style="font-size:21.1667px;text-align:left;stroke-width:2.64583"
           y="256.88068"
           x="214.25389"
           id="tspan903"
           sodipodi:role="line">ranges</tspan></text>
    </g>
    <g
       id="g958">
      <use
         height="100%"
         width="100%"
         transform="translate(0,600)"
         id="use878"
         xlink:href="#g872"
         y="0"
         x="0" />
      <path
         id="path859"
         stroke-width="3"
         stroke="#0080ff"
         fill="none"
         d="M 0.0,600.0 16.666666666666668,600.0 33.333333333333336,600.0 50.0,597.7272727272727 66.66666666666667,595.4545454545455 83.33333333333331,593.1818181818182 100.0,590.909090909091 116.66666666666666,588.6363636363636 133.33333333333334,586.3636363636364 150.0,584.090909090909 166.66666666666663,581.8181818181818 183.33333333333331,579.5454545454545 200.0,577.2727272727273 216.66666666666669,575.0 200.0,575.0 183.33333333333331,572.2222222222222 166.66666666666663,569.4444444444445 150.0,566.6666666666666 133.33333333333334,563.8888888888889 116.66666666666666,561.1111111111111 100.0,558.3333333333334 83.33333333333331,555.5555555555555 66.66666666666667,552.7777777777778 50.0,550.0 66.66666666666667,550.0 83.33333333333331,546.4285714285714 100.0,542.8571428571429 116.66666666666666,539.2857142857143 133.33333333333334,535.7142857142857 150.0,532.1428571428571 166.66666666666663,528.5714285714286 183.33333333333331,525.0 166.66666666666663,525.0 150.0,520.0 133.33333333333334,515.0 116.66666666666666,510.0 100.0,505.0 83.33333333333331,500.0 100.0,500.0 116.66666666666666,500.0 133.33333333333334,500.0 150.0,500.0 166.66666666666663,500.0 150.0,505.0 133.33333333333334,510.0 116.66666666666666,515.0 100.0,520.0 83.33333333333331,525.0 66.66666666666667,525.0 83.33333333333331,528.5714285714286 100.0,532.1428571428571 116.66666666666666,535.7142857142857 133.33333333333334,539.2857142857143 150.0,542.8571428571429 166.66666666666663,546.4285714285714 183.33333333333331,550.0 200.0,550.0 183.33333333333331,552.7777777777778 166.66666666666663,555.5555555555555 150.0,558.3333333333334 133.33333333333334,561.1111111111111 116.66666666666666,563.8888888888889 100.0,566.6666666666666 83.33333333333331,569.4444444444445 66.66666666666667,572.2222222222222 50.0,575.0 33.333333333333336,575.0 50.0,577.2727272727273 66.66666666666667,579.5454545454545 83.33333333333331,581.8181818181818 100.0,584.090909090909 116.66666666666666,586.3636363636364 133.33333333333334,588.6363636363636 150.0,590.909090909091 166.66666666666663,593.1818181818182 183.33333333333331,595.4545454545455 200.0,597.7272727272727 216.66666666666669,600.0 233.33333333333331,600.0 250.0,600.0 266.6666666666667,600.0 283.3333333333333,600.0 300.0,597.7272727272727 316.66666666666663,595.4545454545455 333.33333333333326,593.1818181818182 350.0,590.909090909091 366.66666666666663,588.6363636363636 383.33333333333326,586.3636363636364 400.0,584.090909090909 416.66666666666674,581.8181818181818 433.33333333333337,579.5454545454545 450.0,577.2727272727273 466.66666666666663,575.0 450.0,575.0 433.33333333333337,572.2222222222222 416.66666666666674,569.4444444444445 400.0,566.6666666666666 383.33333333333326,563.8888888888889 366.66666666666663,561.1111111111111 350.0,558.3333333333334 333.33333333333326,555.5555555555555 316.66666666666663,552.7777777777778 300.0,550.0 316.66666666666663,550.0 333.33333333333326,546.4285714285714 350.0,542.8571428571429 366.66666666666663,539.2857142857143 383.33333333333326,535.7142857142857 400.0,532.1428571428571 416.66666666666674,528.5714285714286 433.33333333333337,525.0 416.66666666666674,525.0 400.0,520.0 383.33333333333326,515.0 366.66666666666663,510.0 350.0,505.0 333.33333333333326,500.0 350.0,500.0 366.66666666666663,500.0 383.33333333333326,500.0 400.0,500.0 416.66666666666674,500.0 400.0,505.0 383.33333333333326,510.0 366.66666666666663,515.0 350.0,520.0 333.33333333333326,525.0 316.66666666666663,525.0 333.33333333333326,528.5714285714286 350.0,532.1428571428571 366.66666666666663,535.7142857142857 383.33333333333326,539.2857142857143 400.0,542.8571428571429 416.66666666666674,546.4285714285714 433.33333333333337,550.0 450.0,550.0 433.33333333333337,552.7777777777778 416.66666666666674,555.5555555555555 400.0,558.3333333333334 383.33333333333326,561.1111111111111 366.66666666666663,563.8888888888889 350.0,566.6666666666666 333.33333333333326,569.4444444444445 316.66666666666663,572.2222222222222 300.0,575.0 283.3333333333333,575.0 300.0,577.2727272727273 316.66666666666663,579.5454545454545 333.33333333333326,581.8181818181818 350.0,584.090909090909 366.66666666666663,586.3636363636364 383.33333333333326,588.6363636363636 400.0,590.909090909091 416.66666666666674,593.1818181818182 433.33333333333337,595.4545454545455 450.0,597.7272727272727 466.66666666666663,600.0 483.33333333333337,600.0 500.0,600.0" />
      <use
         x="0"
         y="0"
         xlink:href="#g9456"
         id="use9460"
         transform="translate(0,400)"
         width="100%"
         height="100%" />
      <text
         xml:space="preserve"
         style="font-style:normal;font-weight:normal;font-size:105.833px;line-height:1.25;font-family:sans-serif;fill:#000000;fill-opacity:1;stroke:none;stroke-width:2.64583"
         x="152.01416"
         y="456.88068"
         id="text909"><tspan
           sodipodi:role="line"
           id="tspan907"
           x="152.01416"
           y="456.88068"
           style="font-size:21.1667px;text-align:left;stroke-width:2.64583">indices and offsets</tspan></text>
    </g>
  </g>
</svg>
